<svg width="77" height="83" viewBox="0 0 77 83" fill="none" xmlns="http://www.w3.org/2000/svg">
<circle cx="40.9999" cy="41.591" r="35.9091" fill="#7000FF" stroke="white" stroke-width="10"/>
<path d="M25.0097 52.5304C29.0685 52.5304 32.373 49.2293 32.373 45.1705V38.0135C32.373 33.9547 29.0719 30.6501 25.0097 30.6501C20.9475 30.6501 17.6498 33.9513 17.6498 38.0135V45.1705C17.6498 49.2293 20.9509 52.5304 25.0097 52.5304Z" fill="white"/>
<path fill-rule="evenodd" clip-rule="evenodd" d="M25.0097 54.2391C30.0108 54.2391 34.0811 50.1742 34.0811 45.1711V38.0141C34.0811 33.0125 30.0157 28.9427 25.0097 28.9427C20.0032 28.9427 15.9417 33.0096 15.9417 38.0141V45.1711C15.9417 50.1732 20.0076 54.2391 25.0097 54.2391ZM32.373 45.1711C32.373 49.2299 29.0685 52.5311 25.0097 52.5311C20.9509 52.5311 17.6497 49.2299 17.6497 45.1711V38.0141C17.6497 33.9519 20.9475 30.6508 25.0097 30.6508C29.0719 30.6508 32.373 33.9553 32.373 38.0141V45.1711Z" fill="#3C008A"/>
<path d="M25.0091 31.3269C21.3223 31.3269 18.3256 34.3271 18.3256 38.0104V45.1674C18.3256 48.8542 21.3257 51.8509 25.0124 51.8509C28.6992 51.8509 31.6993 48.8508 31.6993 45.1674V38.0104C31.6993 34.3237 28.6992 31.3269 25.0124 31.3269M25.0124 29.974C29.4501 29.974 33.0522 33.5728 33.0522 38.0104V45.1674C33.0522 49.6084 29.4534 53.2038 25.0124 53.2038C20.5748 53.2038 16.976 49.605 16.976 45.1674V38.0104C16.976 33.5694 20.5748 29.974 25.0124 29.974Z" fill="#3C008A"/>
<path d="M23.2717 36.9109C23.2717 35.267 24.6043 33.9344 26.2482 33.9344C27.892 33.9344 29.2246 35.267 29.2246 36.9109V41.7273C29.2246 43.3712 27.892 44.7038 26.2482 44.7038C24.6043 44.7038 23.2717 43.3712 23.2717 41.7273V36.9109Z" fill="#1C1C1C"/>
<path d="M23.4336 35.0944C23.4336 34.2251 24.1405 33.5182 25.0098 33.5182C25.879 33.5182 26.5859 34.2251 26.5859 35.0944C26.5859 35.9636 25.879 36.6705 25.0098 36.6705C24.1405 36.6705 23.4336 35.9636 23.4336 35.0944Z" fill="white"/>
<path d="M50.0693 52.5304C54.1281 52.5304 57.4326 49.2293 57.4326 45.1705V38.0135C57.4326 33.9547 54.1315 30.6501 50.0693 30.6501C46.0071 30.6501 42.7093 33.9513 42.7093 38.0135V45.1705C42.7093 49.2293 46.0105 52.5304 50.0693 52.5304Z" fill="white"/>
<path fill-rule="evenodd" clip-rule="evenodd" d="M50.0678 54.2391C55.0689 54.2391 59.1392 50.1742 59.1392 45.1711V38.0141C59.1392 33.0125 55.0738 28.9427 50.0678 28.9427C45.0613 28.9427 40.9998 33.0096 40.9998 38.0141V45.1711C40.9998 50.1732 45.0657 54.2391 50.0678 54.2391ZM57.4311 45.1711C57.4311 49.2299 54.1266 52.5311 50.0678 52.5311C46.009 52.5311 42.7079 49.2299 42.7079 45.1711V38.0141C42.7079 33.9519 46.0056 30.6508 50.0678 30.6508C54.13 30.6508 57.4311 33.9553 57.4311 38.0141V45.1711Z" fill="#3C008A"/>
<path d="M50.0686 31.3269C46.3819 31.3269 43.3851 34.3271 43.3851 38.0104V45.1674C43.3851 48.8542 46.3853 51.8509 50.072 51.8509C53.7588 51.8509 56.7589 48.8508 56.7589 45.1674V38.0104C56.7589 34.3237 53.7588 31.3269 50.072 31.3269M50.072 29.974C54.5096 29.974 58.1118 33.5728 58.1118 38.0104V45.1674C58.1118 49.6084 54.513 53.2038 50.072 53.2038C45.6344 53.2038 42.0356 49.605 42.0356 45.1674V38.0104C42.0356 33.5694 45.6344 29.974 50.072 29.974Z" fill="#3C008A"/>
<path d="M48.3288 36.9108C48.3288 35.2669 49.6614 33.9343 51.3053 33.9343C52.9491 33.9343 54.2817 35.2669 54.2817 36.9108V41.7272C54.2817 43.3711 52.9491 44.7037 51.3053 44.7037C49.6614 44.7037 48.3288 43.3711 48.3288 41.7272V36.9108Z" fill="#1C1C1C"/>
<path d="M48.4912 35.0942C48.4912 34.225 49.1981 33.5181 50.0674 33.5181C50.9366 33.5181 51.6436 34.225 51.6436 35.0942C51.6436 35.9635 50.9366 36.6704 50.0674 36.6704C49.1981 36.6704 48.4912 35.9635 48.4912 35.0942Z" fill="white"/>
<circle cx="38.0093" cy="56.1946" r="2.99075" fill="#3A179D"/>
</svg>
