<svg width="42" height="42" viewBox="0 0 42 42" fill="none" xmlns="http://www.w3.org/2000/svg">
<path d="M41.0803 5.74358H0.919739C0.983996 3.848 2.54222 2.3219 4.45386 2.3219H37.5461C39.4578 2.3219 41.016 3.848 41.0803 5.74358Z" fill="#7000FF"/>
<path d="M40.0803 6.74341V38.4409C40.0803 39.4238 39.0846 40.48 37.5461 40.48H4.45386C2.91544 40.48 1.91974 39.4238 1.91974 38.4409V6.74341H40.0803Z" fill="white" stroke="#7000FF" stroke-width="2"/>
<path d="M6.54221 1.5188V8.37433" stroke="#3A179D" stroke-width="2" stroke-miterlimit="10" stroke-linecap="round"/>
<path d="M21 1.5188V8.37433" stroke="#3A179D" stroke-width="2" stroke-miterlimit="10" stroke-linecap="round"/>
<path d="M35.4578 1.5188V8.37433" stroke="#3A179D" stroke-width="2" stroke-miterlimit="10" stroke-linecap="round"/>
<path d="M33.9156 28.2294H30.5743C29.2789 28.2294 28.2289 29.2794 28.2289 30.5747V33.9161C28.2289 35.2114 29.2789 36.2615 30.5743 36.2615H33.9156C35.2109 36.2615 36.261 35.2114 36.261 33.9161V30.5747C36.261 29.2794 35.2109 28.2294 33.9156 28.2294Z" stroke="#7000FF" stroke-width="2" stroke-miterlimit="10" stroke-linecap="round"/>
<path opacity="0.5" d="M22.6707 28.2294H19.3293C18.034 28.2294 16.9839 29.2794 16.9839 30.5747V33.9161C16.9839 35.2114 18.034 36.2615 19.3293 36.2615H22.6707C23.966 36.2615 25.016 35.2114 25.016 33.9161V30.5747C25.016 29.2794 23.966 28.2294 22.6707 28.2294Z" stroke="#C1C1C1" stroke-width="2" stroke-miterlimit="10" stroke-linecap="round"/>
<path opacity="0.5" d="M11.4257 28.2294H8.08437C6.78906 28.2294 5.739 29.2794 5.739 30.5747V33.9161C5.739 35.2114 6.78906 36.2615 8.08437 36.2615H11.4257C12.721 36.2615 13.7711 35.2114 13.7711 33.9161V30.5747C13.7711 29.2794 12.721 28.2294 11.4257 28.2294Z" stroke="#C1C1C1" stroke-width="2" stroke-miterlimit="10" stroke-linecap="round"/>
<path opacity="0.5" d="M33.9156 16.7838H30.5743C29.2789 16.7838 28.2289 17.8339 28.2289 19.1292V22.4705C28.2289 23.7659 29.2789 24.8159 30.5743 24.8159H33.9156C35.2109 24.8159 36.261 23.7659 36.261 22.4705V19.1292C36.261 17.8339 35.2109 16.7838 33.9156 16.7838Z" stroke="#C1C1C1" stroke-width="2" stroke-miterlimit="10" stroke-linecap="round"/>
<path opacity="0.5" d="M22.6707 16.7838H19.3293C18.034 16.7838 16.9839 17.8339 16.9839 19.1292V22.4705C16.9839 23.7659 18.034 24.8159 19.3293 24.8159H22.6707C23.966 24.8159 25.016 23.7659 25.016 22.4705V19.1292C25.016 17.8339 23.966 16.7838 22.6707 16.7838Z" stroke="#C1C1C1" stroke-width="2" stroke-miterlimit="10" stroke-linecap="round"/>
<path opacity="0.5" d="M11.4257 16.7837H8.08437C6.78906 16.7837 5.739 17.8337 5.739 19.1291V22.4704C5.739 23.7657 6.78906 24.8158 8.08437 24.8158H11.4257C12.721 24.8158 13.7711 23.7657 13.7711 22.4704V19.1291C13.7711 17.8337 12.721 16.7837 11.4257 16.7837Z" stroke="#C1C1C1" stroke-width="2" stroke-miterlimit="10" stroke-linecap="round"/>
</svg>
