<svg width="22" height="30" viewBox="0 0 22 30" fill="none" xmlns="http://www.w3.org/2000/svg">
<path d="M11.6948 23.656L11.5648 23.886L11.4348 24.096C11.5148 23.946 11.6048 23.796 11.6948 23.656Z" fill="#FCCD06"/>
<path d="M14.6348 22.456C14.6348 24.766 12.6348 26.606 10.2648 26.336C8.58482 26.136 7.17483 24.826 6.89483 23.156C6.73483 22.206 6.90482 21.296 7.32482 20.546L7.37482 20.466L7.42482 20.386L9.78482 16.306C10.2048 15.566 11.2648 15.566 11.6948 16.306L14.0648 20.416L14.1548 20.556C14.4748 21.116 14.6448 21.766 14.6448 22.466L14.6348 22.456Z" fill="#FCCD06"/>
<path d="M14.6348 22.456C14.6348 24.766 12.6348 26.606 10.2648 26.336C8.58482 26.136 7.17483 24.826 6.89483 23.156C6.73483 22.206 6.90482 21.296 7.32482 20.546L7.37482 20.466L7.42482 20.386L9.78482 16.306C10.2048 15.566 11.2648 15.566 11.6948 16.306L14.0648 20.416L14.1548 20.556C14.4748 21.116 14.6448 21.766 14.6448 22.466L14.6348 22.456Z" fill="#FF4C4C"/>
<path d="M20.0848 14.0559L19.8548 13.6659L12.5848 1.07592C11.7648 -0.354082 9.69478 -0.354082 8.87478 1.07592L4.87478 8.01592C4.72478 8.27592 4.38478 8.35592 4.13478 8.18592L3.35478 7.66592C2.65478 7.19592 1.69478 7.66592 1.64478 8.50592L1.32478 13.2359V13.3959C1.30478 13.4759 1.30478 13.5559 1.30478 13.6359C1.30478 13.9759 1.23478 14.3059 1.08478 14.6059C0.354778 16.0959 -0.0352221 17.7859 0.0147779 19.5659C0.154778 25.1259 4.68477 29.7559 10.2448 29.9959C16.3848 30.2659 21.4448 25.3659 21.4448 19.2959C21.4448 17.3959 20.9448 15.6059 20.0748 14.0559H20.0848ZM10.2648 26.3359C8.58478 26.1359 7.17478 24.8259 6.89478 23.1559C6.73478 22.2059 6.90478 21.2959 7.32478 20.5459L7.37478 20.4659L7.42478 20.3859L9.78478 16.3059C10.2048 15.5659 11.2648 15.5659 11.6948 16.3059L14.0648 20.4159L14.1548 20.5559C14.4748 21.1159 14.6448 21.7659 14.6448 22.4659C14.6448 24.7759 12.6448 26.6159 10.2748 26.3459L10.2648 26.3359Z" fill="#FCCD06"/>
<g opacity="0.6">
<path d="M8.06476 11.756C7.84476 11.756 7.62476 11.696 7.42476 11.586C6.80476 11.226 6.58476 10.436 6.94476 9.81599L8.66475 6.80598C9.02475 6.18598 9.81475 5.96599 10.4348 6.32599C11.0548 6.68599 11.2747 7.47599 10.9147 8.09599L9.19476 11.106C8.95476 11.526 8.51476 11.766 8.06476 11.766V11.756Z" fill="white"/>
</g>
</svg>
