<svg width="31" height="31" viewBox="0 0 31 31" fill="none" xmlns="http://www.w3.org/2000/svg">
<path d="M30.1496 4.17177H0C0.0482393 2.74871 1.21804 1.60303 2.65316 1.60303H27.4964C28.9315 1.60303 30.1013 2.74871 30.1496 4.17177Z" fill="#7000FF"/>
<path d="M29.1496 5.17151V28.7184C29.1496 29.2847 28.5503 29.9999 27.4964 29.9999H2.65316C1.59927 29.9999 1 29.2847 1 28.7184V5.17151H29.1496Z" fill="white" stroke="#7000FF" stroke-width="2"/>
<path d="M4.22096 1.00012V6.14675" stroke="#3A179D" stroke-width="2" stroke-miterlimit="10" stroke-linecap="round"/>
<path d="M15.0748 1.00012V6.14675" stroke="#3A179D" stroke-width="2" stroke-miterlimit="10" stroke-linecap="round"/>
<path d="M25.9286 1.00012V6.14675" stroke="#3A179D" stroke-width="2" stroke-miterlimit="10" stroke-linecap="round"/>
<path d="M24.0474 19.6422H21.1354C20.0065 19.6422 19.0914 20.5573 19.0914 21.6862V24.5982C19.0914 25.7271 20.0065 26.6422 21.1354 26.6422H24.0474C25.1762 26.6422 26.0914 25.7271 26.0914 24.5982V21.6862C26.0914 20.5573 25.1762 19.6422 24.0474 19.6422Z" fill="#7000FF"/>
</svg>
