<svg width="36" height="37" viewBox="0 0 36 37" fill="none" xmlns="http://www.w3.org/2000/svg">
<path d="M27.8302 1.34124C28.3902 1.34124 28.8502 1.80124 28.8502 2.36124V33.8012C28.8502 34.3612 28.3902 34.8212 27.8302 34.8212H8.33023C7.77023 34.8212 7.31023 34.3612 7.31023 33.8012V2.36124C7.31023 1.80124 7.77023 1.34124 8.33023 1.34124H27.8302ZM27.8302 0.52124H8.33023C7.31023 0.52124 6.49023 1.34124 6.49023 2.36124V33.8012C6.49023 34.8212 7.31023 35.6412 8.33023 35.6412H27.8302C28.8502 35.6412 29.6702 34.8212 29.6702 33.8012V2.36124C29.6702 1.34124 28.8502 0.52124 27.8302 0.52124Z" fill="#8E8E8E" stroke="#262626"/>
<path d="M15.5249 13.9998L16.2107 6.69558L17.7896 6.29688L21.7447 12.4209L20.2934 12.7877L17.0081 7.54082L17.4865 7.41324L16.9603 13.633L15.509 13.9998H15.5249ZM16.3383 11.0494L19.48 10.252L19.815 11.5757L16.6732 12.3731L16.3383 11.0494Z" fill="#262626" stroke="#262626" stroke-width="0.25"/>
<path d="M25.1737 8.75309L25.6042 10.4914L24.2008 10.8423L23.7543 9.11989L22.0957 9.53454L21.7448 8.16301L23.4034 7.74836L22.9569 5.97813L24.3762 5.61133L24.8228 7.38156L26.5452 6.95096L26.8801 8.32249L25.1737 8.75309Z" fill="#262626" stroke="#262626" stroke-width="0.25"/>
<path d="M25.2879 18.82H10.8829C10.6941 18.82 10.5464 18.64 10.5464 18.41C10.5464 18.18 10.6941 18 10.8829 18H25.2879C25.4767 18 25.6244 18.18 25.6244 18.41C25.6244 18.64 25.4767 18.82 25.2879 18.82Z" fill="#262626" stroke="#262626"/>
<path d="M25.2879 24.6401H10.8829C10.6941 24.6401 10.5464 24.4601 10.5464 24.2301C10.5464 24.0001 10.6941 23.8201 10.8829 23.8201H25.2879C25.4767 23.8201 25.6244 24.0001 25.6244 24.2301C25.6244 24.4601 25.4767 24.6401 25.2879 24.6401Z" fill="#262626" stroke="#262626"/>
<path d="M25.2879 30.4599H10.8829C10.6941 30.4599 10.5464 30.2799 10.5464 30.0499C10.5464 29.8199 10.6941 29.6399 10.8829 29.6399H25.2879C25.4767 29.6399 25.6244 29.8199 25.6244 30.0499C25.6244 30.2799 25.4767 30.4599 25.2879 30.4599Z" fill="#262626" stroke="#262626"/>
</svg>
