<svg width="36" height="36" viewBox="0 0 36 36" fill="none" xmlns="http://www.w3.org/2000/svg">
<rect x="6.91992" y="1" width="22.3755" height="33.9832" rx="1" fill="white"/>
<path d="M27.8302 1.34124C28.3902 1.34124 28.8502 1.80124 28.8502 2.36124V33.8012C28.8502 34.3612 28.3902 34.8212 27.8302 34.8212H8.33023C7.77023 34.8212 7.31023 34.3612 7.31023 33.8012V2.36124C7.31023 1.80124 7.77023 1.34124 8.33023 1.34124H27.8302ZM27.8302 0.52124H8.33023C7.31023 0.52124 6.49023 1.34124 6.49023 2.36124V33.8012C6.49023 34.8212 7.31023 35.6412 8.33023 35.6412H27.8302C28.8502 35.6412 29.6702 34.8212 29.6702 33.8012V2.36124C29.6702 1.34124 28.8502 0.52124 27.8302 0.52124Z" fill="white"/>
<path d="M19.76 9.87126L20.19 5.29126L21.18 5.04126L23.66 8.88126L22.75 9.11126L20.69 5.82126L20.99 5.74126L20.66 9.64126L19.75 9.87126H19.76ZM20.27 8.02126L22.24 7.52126L22.45 8.35126L20.48 8.85126L20.27 8.02126Z" fill="#949494"/>
<path d="M25.81 6.58133L26.08 7.67133L25.2 7.89133L24.92 6.81133L23.88 7.07133L23.66 6.21133L24.7 5.95133L24.42 4.84133L25.31 4.61133L25.59 5.72133L26.67 5.45133L26.88 6.31133L25.81 6.58133Z" fill="#949494"/>
<path d="M26.8604 15.9062H9.31039C9.08039 15.9062 8.90039 15.7262 8.90039 15.4962C8.90039 15.2662 9.08039 15.0862 9.31039 15.0862H26.8604C27.0904 15.0862 27.2704 15.2662 27.2704 15.4962C27.2704 15.7262 27.0904 15.9062 26.8604 15.9062Z" fill="#949494"/>
<path d="M26.8604 23.1962H9.31039C9.08039 23.1962 8.90039 23.0162 8.90039 22.7862C8.90039 22.5562 9.08039 22.3762 9.31039 22.3762H26.8604C27.0904 22.3762 27.2704 22.5562 27.2704 22.7862C27.2704 23.0162 27.0904 23.1962 26.8604 23.1962Z" fill="#949494"/>
<path d="M26.8604 30.4963H9.31039C9.08039 30.4963 8.90039 30.3163 8.90039 30.0863C8.90039 29.8563 9.08039 29.6763 9.31039 29.6763H26.8604C27.0904 29.6763 27.2704 29.8563 27.2704 30.0863C27.2704 30.3163 27.0904 30.4963 26.8604 30.4963Z" fill="#949494"/>
</svg>
