<svg width="14" height="19" viewBox="0 0 14 19" fill="none" xmlns="http://www.w3.org/2000/svg">
<path d="M7.31785 14.9531L7.239 15.0911L7.16016 15.2171C7.20868 15.1271 7.26327 15.0371 7.31785 14.9531Z" fill="#FCCD06"/>
<path d="M9.10096 14.233C9.10096 15.6189 7.88795 16.7228 6.45054 16.5608C5.43161 16.4408 4.57644 15.6549 4.40662 14.653C4.30958 14.083 4.41268 13.5371 4.66741 13.0871L4.69774 13.0392L4.72806 12.9912L6.15942 10.5434C6.41415 10.0995 7.05705 10.0995 7.31784 10.5434L8.75526 13.0092L8.80984 13.0931C9.00392 13.4291 9.10703 13.8191 9.10703 14.239L9.10096 14.233Z" fill="#FCCD06"/>
<path d="M9.10096 14.233C9.10096 15.6189 7.88795 16.7228 6.45054 16.5608C5.43161 16.4408 4.57644 15.6549 4.40662 14.653C4.30958 14.083 4.41268 13.5371 4.66741 13.0871L4.69774 13.0392L4.72806 12.9912L6.15942 10.5434C6.41415 10.0995 7.05705 10.0995 7.31784 10.5434L8.75526 13.0092L8.80984 13.0931C9.00392 13.4291 9.10703 13.8191 9.10703 14.239L9.10096 14.233Z" fill="#FF4C4C"/>
<path d="M12.4064 9.1938L12.2669 8.95982L7.85757 1.40662C7.36023 0.548706 6.10476 0.548706 5.60743 1.40662L3.18141 5.57018C3.09044 5.72616 2.88422 5.77416 2.7326 5.67217L2.25953 5.3602C1.83497 5.07823 1.25273 5.3602 1.2224 5.86415L1.02832 8.70185V8.79784C1.01619 8.84583 1.01619 8.89383 1.01619 8.94182C1.01619 9.1458 0.973733 9.34378 0.882757 9.52376C0.440008 10.4177 0.203472 11.4316 0.233797 12.4995C0.318708 15.8351 3.06617 18.6128 6.43834 18.7568C10.1623 18.9188 13.2312 15.9791 13.2312 12.3375C13.2312 11.1976 12.9279 10.1237 12.4003 9.1938H12.4064ZM6.45047 16.561C5.43154 16.441 4.57638 15.6551 4.40655 14.6532C4.30951 14.0833 4.41261 13.5373 4.66735 13.0874L4.69767 13.0394L4.728 12.9914L6.15935 10.5437C6.41408 10.0997 7.05698 10.0997 7.31778 10.5437L8.75519 13.0094L8.80978 13.0934C9.00386 13.4294 9.10697 13.8193 9.10697 14.2393C9.10697 15.6251 7.89395 16.729 6.45653 16.567L6.45047 16.561Z" fill="#FCCD06"/>
<g opacity="0.6">
<path d="M5.11624 7.81383C4.98281 7.81383 4.84937 7.77784 4.72807 7.71184C4.35204 7.49587 4.21861 7.02192 4.43695 6.64996L5.48013 4.84415C5.69848 4.47218 6.17762 4.3402 6.55365 4.55618C6.92968 4.77215 7.06311 5.2461 6.84477 5.61806L5.80159 7.42388C5.65603 7.67585 5.38916 7.81983 5.11624 7.81983V7.81383Z" fill="white"/>
</g>
</svg>
