<svg width="38" height="38" viewBox="0 0 38 38" fill="none" xmlns="http://www.w3.org/2000/svg">
<path d="M22.7186 29.481C23.1872 29.0124 20.3823 25.4477 16.4536 21.519C12.5249 17.5903 8.96022 14.7854 8.4916 15.254C8.02297 15.7226 10.8279 19.2874 14.7566 23.216C18.6852 27.1447 22.25 29.9496 22.7186 29.481Z" stroke="white" stroke-width="2" stroke-linecap="round" stroke-linejoin="round"/>
<path d="M8.44014 15.3899C8.39014 16.1999 11.0901 19.5499 14.7601 23.2199C18.4301 26.8899 21.7801 29.5799 22.5901 29.5399L2.83014 36.8999C1.74014 37.3099 0.680136 36.2399 1.09014 35.1599L8.45014 15.3999L8.44014 15.3899Z" stroke="white" stroke-width="2" stroke-linecap="round" stroke-linejoin="round"/>
<path d="M21.0699 5.0698L20.4899 3.9798C20.4199 3.8398 20.5299 3.6898 20.6799 3.7098L21.8999 3.9198C21.9599 3.9298 22.0199 3.9198 22.0599 3.8698L22.9199 2.9798C23.0299 2.8698 23.2099 2.9298 23.2299 3.0798L23.4099 4.2998C23.4099 4.3598 23.4599 4.4098 23.5099 4.4398L24.6199 4.9898C24.7599 5.0598 24.7599 5.2498 24.6199 5.3198L23.5099 5.8698C23.4599 5.8998 23.4199 5.9498 23.4099 6.0098L23.2299 7.2298C23.2099 7.3798 23.0199 7.4398 22.9199 7.3298L22.0599 6.4398C22.0599 6.4398 21.9599 6.3798 21.8999 6.3898L20.6799 6.5998C20.5299 6.6298 20.4099 6.4698 20.4899 6.3298L21.0699 5.2398C21.0999 5.1898 21.0999 5.1198 21.0699 5.0698Z" fill="white"/>
<path d="M32.8502 15.7798L32.2702 14.6898C32.2002 14.5498 32.3102 14.3998 32.4602 14.4198L33.6802 14.6298C33.7402 14.6398 33.8002 14.6298 33.8402 14.5798L34.7002 13.6898C34.8102 13.5798 34.9902 13.6398 35.0102 13.7898L35.1902 15.0098C35.1902 15.0698 35.2402 15.1198 35.2902 15.1498L36.4002 15.6998C36.5402 15.7698 36.5402 15.9598 36.4002 16.0298L35.2902 16.5798C35.2402 16.6098 35.2002 16.6598 35.1902 16.7198L35.0102 17.9398C34.9902 18.0898 34.8002 18.1498 34.7002 18.0398L33.8402 17.1498C33.8402 17.1498 33.7402 17.0898 33.6802 17.0998L32.4602 17.3098C32.3102 17.3398 32.1902 17.1798 32.2702 17.0398L32.8502 15.9498C32.8802 15.8998 32.8802 15.8298 32.8502 15.7798Z" fill="white"/>
<path d="M36.4901 7.81977L36.1101 8.08977C35.9701 8.18977 35.7801 8.13977 35.7001 7.98977L35.5701 7.71977C35.4701 7.49977 35.1501 7.51977 35.0701 7.73977L34.9701 7.99977C34.9101 8.14977 34.7301 8.21977 34.5901 8.14977L34.2401 7.96977C34.0901 7.89977 34.0401 7.70977 34.1301 7.56977L34.2601 7.36977C34.3901 7.16977 34.2201 6.89977 33.9801 6.94977L33.7201 6.99977C33.5501 7.02977 33.4001 6.89977 33.3901 6.72977V6.27977C33.3901 6.12977 33.5101 5.99977 33.6601 5.99977H34.0601C34.2901 5.99977 34.4201 5.73977 34.2801 5.55977L34.0601 5.26977C33.9701 5.14977 33.9901 4.96977 34.1201 4.87977L34.4901 4.61977C34.6301 4.51977 34.8201 4.56977 34.9001 4.71977L35.0001 4.92977C35.1101 5.14977 35.4201 5.12977 35.5001 4.90977L35.5601 4.73977C35.6201 4.58977 35.8001 4.51977 35.9401 4.58977L36.2801 4.75977C36.4301 4.82977 36.4801 5.01977 36.3901 5.14977L36.2801 5.32977C36.1501 5.52977 36.3201 5.78977 36.5601 5.74977L36.8301 5.69977C37.0001 5.66977 37.1501 5.79977 37.1601 5.95977V6.40977C37.1701 6.56977 37.0501 6.68977 36.8901 6.68977H36.5501C36.3201 6.68977 36.1901 6.94977 36.3301 7.12977L36.5501 7.41977C36.6401 7.53977 36.6201 7.71977 36.4901 7.80977V7.81977Z" fill="white"/>
<path d="M17.5903 18.0998C18.7103 16.9798 21.8203 20.0898 22.9403 18.9698C24.0603 17.8498 20.9503 14.7398 22.0703 13.6198C23.1903 12.4998 26.3003 15.6098 27.4203 14.4898C28.5403 13.3698 25.4303 10.2598 26.5503 9.1398C27.6703 8.0198 30.7803 11.1298 31.9003 10.0098" stroke="white" stroke-width="2" stroke-miterlimit="10" stroke-linecap="round"/>
<path d="M22.98 24.2598C22.98 24.2598 28.57 19.9898 32.84 24.2598" stroke="white" stroke-width="2" stroke-linecap="round" stroke-linejoin="round"/>
<path d="M15.3301 14.7099C15.3301 14.7099 19.6001 9.11985 15.3301 4.84985" stroke="white" stroke-width="2" stroke-linecap="round" stroke-linejoin="round"/>
<path d="M34.6402 26.8298C34.9992 26.8298 35.2902 26.5388 35.2902 26.1798C35.2902 25.8208 34.9992 25.5298 34.6402 25.5298C34.2812 25.5298 33.9902 25.8208 33.9902 26.1798C33.9902 26.5388 34.2812 26.8298 34.6402 26.8298Z" fill="white"/>
<path d="M27.6202 18.75C27.9792 18.75 28.2702 18.4589 28.2702 18.1C28.2702 17.741 27.9792 17.45 27.6202 17.45C27.2612 17.45 26.9702 17.741 26.9702 18.1C26.9702 18.4589 27.2612 18.75 27.6202 18.75Z" fill="white"/>
<path d="M29.8502 2.16987C30.2092 2.16987 30.5002 1.87886 30.5002 1.51987C30.5002 1.16089 30.2092 0.869873 29.8502 0.869873C29.4912 0.869873 29.2002 1.16089 29.2002 1.51987C29.2002 1.87886 29.4912 2.16987 29.8502 2.16987Z" fill="white"/>
<path d="M13.7999 3.99995C14.1589 3.99995 14.4499 3.70894 14.4499 3.34995C14.4499 2.99097 14.1589 2.69995 13.7999 2.69995C13.4409 2.69995 13.1499 2.99097 13.1499 3.34995C13.1499 3.70894 13.4409 3.99995 13.7999 3.99995Z" fill="white"/>
</svg>
