<svg width="45" height="50" viewBox="0 0 45 50" fill="none" xmlns="http://www.w3.org/2000/svg">
<path d="M11.1897 26.916L18.9997 13.3887C19.8797 11.8645 21.6599 11.241 22.9762 12.001C24.2926 12.761 24.6428 14.6145 23.7628 16.1387L18.1128 25.9247" stroke="white" stroke-width="2" stroke-linecap="round" stroke-linejoin="round"/>
<path d="M18.1041 25.9197L19.6491 23.2437C20.5291 21.7195 22.3094 21.0961 23.6257 21.8561C24.9421 22.6161 25.2923 24.4695 24.4123 25.9937L22.2973 29.657" stroke="white" stroke-width="2" stroke-linecap="round" stroke-linejoin="round"/>
<path d="M22.2839 29.6608L23.6239 27.3398C24.5039 25.8156 26.2841 25.1922 27.6005 25.9522C28.9168 26.7122 29.267 28.5656 28.387 30.0898L26.537 33.2941" stroke="white" stroke-width="2" stroke-linecap="round" stroke-linejoin="round"/>
<path d="M27.4227 31.7387C28.3027 30.2145 30.0829 29.5911 31.3993 30.3511C32.7157 31.1111 33.0659 32.9645 32.1859 34.4887L28.1659 41.4516" stroke="white" stroke-width="2" stroke-linecap="round" stroke-linejoin="round"/>
<path d="M29.988 38.2772L27.908 41.8798C25.623 45.8376 20.5687 47.1919 16.611 44.9069L9.81268 40.9819C6.72097 39.1969 4.93639 35.7878 5.23503 32.2306L5.52599 28.7266C5.73703 26.1811 7.70958 24.1445 10.2413 23.8395L13.1514 23.499L10.9664 27.2835" stroke="white" stroke-width="2" stroke-miterlimit="10" stroke-linecap="round"/>
<path d="M15.545 8.39179C17.485 5.03161 21.7743 3.88229 25.1345 5.82229" stroke="white" stroke-width="2" stroke-linecap="round" stroke-linejoin="round"/>
<path d="M26.5379 6.33226L24.7465 2.51514" stroke="white" stroke-width="2" stroke-linecap="round" stroke-linejoin="round"/>
<path d="M22.7254 8.11491L26.5376 6.33212" stroke="white" stroke-width="2" stroke-linecap="round" stroke-linejoin="round"/>
</svg>
