<svg width="45" height="50" viewBox="0 0 45 50" fill="none" xmlns="http://www.w3.org/2000/svg">
<path d="M32.9813 26.916L25.1713 13.3887C24.2913 11.8645 22.5111 11.241 21.1947 12.001C19.8784 12.761 19.5282 14.6145 20.4082 16.1387L26.0582 25.9247" stroke="white" stroke-width="2" stroke-linecap="round" stroke-linejoin="round"/>
<path d="M26.0668 25.9197L24.5218 23.2437C23.6418 21.7195 21.8616 21.0961 20.5453 21.8561C19.2289 22.6161 18.8787 24.4695 19.7587 25.9937L21.8737 29.657" stroke="white" stroke-width="2" stroke-linecap="round" stroke-linejoin="round"/>
<path d="M21.8871 29.6608L20.5471 27.3398C19.6671 25.8156 17.8869 25.1922 16.5705 25.9522C15.2541 26.7122 14.9039 28.5656 15.7839 30.0898L17.6339 33.2941" stroke="white" stroke-width="2" stroke-linecap="round" stroke-linejoin="round"/>
<path d="M16.7482 31.7387C15.8682 30.2145 14.088 29.5911 12.7717 30.3511C11.4553 31.1111 11.1051 32.9645 11.9851 34.4887L16.0051 41.4516" stroke="white" stroke-width="2" stroke-linecap="round" stroke-linejoin="round"/>
<path d="M14.183 38.2772L16.263 41.8798C18.548 45.8376 23.6023 47.1919 27.56 44.9069L34.3583 40.9819C37.45 39.1969 39.2346 35.7878 38.9359 32.2306L38.645 28.7266C38.4339 26.1811 36.4614 24.1445 33.9297 23.8395L31.0195 23.499L33.2045 27.2835" stroke="white" stroke-width="2" stroke-miterlimit="10" stroke-linecap="round"/>
<path d="M28.626 8.39179C26.686 5.03161 22.3967 3.88229 19.0365 5.82229" stroke="white" stroke-width="2" stroke-linecap="round" stroke-linejoin="round"/>
<path d="M17.6331 6.33226L19.4245 2.51514" stroke="white" stroke-width="2" stroke-linecap="round" stroke-linejoin="round"/>
<path d="M21.4455 8.1149L17.6334 6.33212" stroke="white" stroke-width="2" stroke-linecap="round" stroke-linejoin="round"/>
</svg>
