<svg width="23" height="30" viewBox="0 0 23 30" fill="none" xmlns="http://www.w3.org/2000/svg">
<path d="M2.85 0V30H2.96C1.32 30 0 28.68 0 27.04V2.97C0 1.33 1.32 0.01 2.96 0.01H2.85V0Z" fill="#FF4C4C"/>
<path d="M22.9 2.97V27.05C22.9 28.69 21.58 30.01 19.94 30.01H2.84998V0H19.94C21.58 0 22.9 1.32 22.9 2.96V2.97Z" fill="#DDDDDD"/>
<path d="M1.39002 3.30006C1.59437 3.30006 1.76002 3.1344 1.76002 2.93006C1.76002 2.72571 1.59437 2.56006 1.39002 2.56006C1.18568 2.56006 1.02002 2.72571 1.02002 2.93006C1.02002 3.1344 1.18568 3.30006 1.39002 3.30006Z" fill="white"/>
<path d="M1.39002 27.0801C1.59437 27.0801 1.76002 26.9144 1.76002 26.7101C1.76002 26.5057 1.59437 26.3401 1.39002 26.3401C1.18568 26.3401 1.02002 26.5057 1.02002 26.7101C1.02002 26.9144 1.18568 27.0801 1.39002 27.0801Z" fill="white"/>
<path d="M17.41 15.5698H6.97998C6.42998 15.5698 5.97998 15.1198 5.97998 14.5698C5.97998 14.0198 6.42998 13.5698 6.97998 13.5698H17.41C17.96 13.5698 18.41 14.0198 18.41 14.5698C18.41 15.1198 17.96 15.5698 17.41 15.5698Z" fill="#5B5B5B"/>
<path d="M17.41 21.0298H6.97998C6.42998 21.0298 5.97998 20.5798 5.97998 20.0298C5.97998 19.4798 6.42998 19.0298 6.97998 19.0298H17.41C17.96 19.0298 18.41 19.4798 18.41 20.0298C18.41 20.5798 17.96 21.0298 17.41 21.0298Z" fill="#5B5B5B"/>
<path d="M17.41 26.4797H6.97998C6.42998 26.4797 5.97998 26.0297 5.97998 25.4797C5.97998 24.9297 6.42998 24.4797 6.97998 24.4797H17.41C17.96 24.4797 18.41 24.9297 18.41 25.4797C18.41 26.0297 17.96 26.4797 17.41 26.4797Z" fill="#5B5B5B"/>
<path d="M13.59 10.4299H10.53C10.24 10.4299 10 10.1899 10 9.89991V4.43991C10 4.14991 10.24 3.90991 10.53 3.90991H11.2C11.49 3.90991 11.73 4.14991 11.73 4.43991V9.55991L11.19 8.74991H13.58C13.87 8.74991 14.11 8.98991 14.11 9.27991V9.90991C14.11 10.1999 13.87 10.4399 13.58 10.4399L13.59 10.4299Z" fill="#5B5B5B"/>
</svg>
