<svg width="24" height="31" viewBox="0 0 24 31" fill="none" xmlns="http://www.w3.org/2000/svg">
<path d="M3.00996 0.857422V30.9874H3.11996C1.47996 30.9874 0.149958 29.6574 0.149958 28.0174V3.82742C0.139958 2.18742 1.46996 0.857422 3.10996 0.857422H2.99996H3.00996Z" fill="#B23838"/>
<path d="M23.14 3.82742V28.0074C23.14 29.6474 21.81 30.9774 20.17 30.9774H3.01001V0.857422H20.17C21.81 0.857422 23.14 2.18742 23.14 3.82742Z" fill="#FF4C4C"/>
<path d="M1.53992 4.16749C1.74427 4.16749 1.90992 4.00184 1.90992 3.79749C1.90992 3.59314 1.74427 3.42749 1.53992 3.42749C1.33558 3.42749 1.16992 3.59314 1.16992 3.79749C1.16992 4.00184 1.33558 4.16749 1.53992 4.16749Z" fill="white"/>
<path d="M1.53992 28.0474C1.74427 28.0474 1.90992 27.8817 1.90992 27.6774C1.90992 27.473 1.74427 27.3074 1.53992 27.3074C1.33558 27.3074 1.16992 27.473 1.16992 27.6774C1.16992 27.8817 1.33558 28.0474 1.53992 28.0474Z" fill="white"/>
<path d="M14.7799 21.0674H9.86991C9.47991 21.0674 9.15991 20.7474 9.15991 20.3574V11.7574C9.15991 11.3674 9.47991 11.0474 9.86991 11.0474H11.1099C11.4999 11.0474 11.8199 11.3674 11.8199 11.7574V19.7274L10.9999 18.4774H14.7799C15.1699 18.4774 15.4899 18.7974 15.4899 19.1874V20.3574C15.4899 20.7474 15.1699 21.0674 14.7799 21.0674Z" fill="white"/>
</svg>
