<svg width="89" height="55" viewBox="0 0 89 55" fill="none" xmlns="http://www.w3.org/2000/svg">
<path d="M38.59 53.5L36.1225 51.0325" stroke="white" stroke-width="2.46753" stroke-linecap="round" stroke-linejoin="round"/>
<path d="M50.4096 53.5L52.8771 51.0325" stroke="white" stroke-width="2.46753" stroke-linecap="round" stroke-linejoin="round"/>
<path d="M44.4263 51.0324V47.5408" stroke="white" stroke-width="2.46753" stroke-linecap="round" stroke-linejoin="round"/>
<path d="M10.9337 15.503C10.7003 15.503 10.5183 15.4377 10.3877 15.307C10.2663 15.1764 10.2057 14.9944 10.2057 14.761V6.75303H7.23766C7.04166 6.75303 6.88766 6.7017 6.77566 6.59903C6.66366 6.48703 6.60766 6.33303 6.60766 6.13703C6.60766 5.94103 6.66366 5.7917 6.77566 5.68903C6.88766 5.58636 7.04166 5.53503 7.23766 5.53503H14.6157C14.821 5.53503 14.9797 5.58636 15.0917 5.68903C15.2037 5.7917 15.2597 5.94103 15.2597 6.13703C15.2597 6.33303 15.2037 6.48703 15.0917 6.59903C14.9797 6.7017 14.821 6.75303 14.6157 6.75303H11.6477V14.761C11.6477 14.9944 11.587 15.1764 11.4657 15.307C11.3537 15.4377 11.1763 15.503 10.9337 15.503ZM17.3062 15.531C16.8302 15.531 16.4008 15.4377 16.0182 15.251C15.6448 15.0644 15.3508 14.8124 15.1362 14.495C14.9215 14.1777 14.8142 13.8184 14.8142 13.417C14.8142 12.913 14.9402 12.5164 15.1922 12.227C15.4535 11.9284 15.8782 11.7184 16.4662 11.597C17.0635 11.4664 17.8662 11.401 18.8742 11.401H19.5322V12.269H18.8882C18.2162 12.269 17.6842 12.3017 17.2922 12.367C16.9002 12.4324 16.6202 12.5444 16.4522 12.703C16.2935 12.8524 16.2142 13.0624 16.2142 13.333C16.2142 13.6877 16.3355 13.977 16.5782 14.201C16.8208 14.4157 17.1568 14.523 17.5862 14.523C17.9315 14.523 18.2348 14.4437 18.4962 14.285C18.7575 14.117 18.9628 13.893 19.1122 13.613C19.2708 13.333 19.3502 13.011 19.3502 12.647V11.037C19.3502 10.505 19.2382 10.1224 19.0142 9.88903C18.7902 9.6557 18.4215 9.53903 17.9082 9.53903C17.6095 9.53903 17.2968 9.57636 16.9702 9.65103C16.6528 9.7257 16.3215 9.8517 15.9762 10.029C15.8175 10.1037 15.6822 10.127 15.5702 10.099C15.4582 10.071 15.3695 10.0104 15.3042 9.91703C15.2388 9.81436 15.2015 9.70703 15.1922 9.59503C15.1922 9.4737 15.2202 9.35703 15.2762 9.24503C15.3415 9.13303 15.4488 9.04903 15.5982 8.99303C16.0088 8.79703 16.4148 8.65703 16.8162 8.57303C17.2175 8.48903 17.5955 8.44703 17.9502 8.44703C18.5755 8.44703 19.0888 8.54503 19.4902 8.74103C19.9008 8.93703 20.2042 9.2357 20.4002 9.63703C20.5962 10.0384 20.6942 10.5564 20.6942 11.191V14.789C20.6942 15.013 20.6382 15.1904 20.5262 15.321C20.4142 15.4424 20.2508 15.503 20.0362 15.503C19.8308 15.503 19.6675 15.4424 19.5462 15.321C19.4248 15.1904 19.3642 15.013 19.3642 14.789V13.879H19.4902C19.4155 14.2244 19.2755 14.523 19.0702 14.775C18.8742 15.0177 18.6268 15.2044 18.3282 15.335C18.0295 15.4657 17.6888 15.531 17.3062 15.531ZM23.3417 18.023C23.1177 18.023 22.945 17.9624 22.8237 17.841C22.7024 17.7197 22.6417 17.5424 22.6417 17.309V9.18903C22.6417 8.9557 22.7024 8.77836 22.8237 8.65703C22.945 8.5357 23.113 8.47503 23.3277 8.47503C23.5517 8.47503 23.7244 8.5357 23.8457 8.65703C23.967 8.77836 24.0277 8.9557 24.0277 9.18903V10.407L23.8737 10.113C24.023 9.60903 24.317 9.2077 24.7557 8.90903C25.1944 8.60103 25.7124 8.44703 26.3097 8.44703C26.9164 8.44703 27.4437 8.5917 27.8917 8.88103C28.349 9.17036 28.699 9.57636 28.9417 10.099C29.1937 10.6217 29.3197 11.2517 29.3197 11.989C29.3197 12.7077 29.1937 13.3377 28.9417 13.879C28.699 14.411 28.3537 14.8217 27.9057 15.111C27.4577 15.391 26.9257 15.531 26.3097 15.531C25.7217 15.531 25.2084 15.3817 24.7697 15.083C24.331 14.7844 24.037 14.3877 23.8877 13.893H24.0557V17.309C24.0557 17.5424 23.9904 17.7197 23.8597 17.841C23.7384 17.9624 23.5657 18.023 23.3417 18.023ZM25.9597 14.439C26.3517 14.439 26.6924 14.3457 26.9817 14.159C27.271 13.9724 27.495 13.697 27.6537 13.333C27.8124 12.969 27.8917 12.521 27.8917 11.989C27.8917 11.1864 27.7144 10.5797 27.3597 10.169C27.0144 9.75836 26.5477 9.55303 25.9597 9.55303C25.577 9.55303 25.2364 9.64636 24.9377 9.83303C24.6484 10.0104 24.4244 10.281 24.2657 10.645C24.107 11.009 24.0277 11.457 24.0277 11.989C24.0277 12.7824 24.205 13.389 24.5597 13.809C24.9144 14.229 25.381 14.439 25.9597 14.439ZM37.5166 15.531C36.9566 15.531 36.4853 15.433 36.1026 15.237C35.7199 15.041 35.4353 14.7517 35.2486 14.369C35.0619 13.9864 34.9686 13.5197 34.9686 12.969V9.66503H34.1286C33.9419 9.66503 33.7973 9.61836 33.6946 9.52503C33.5919 9.42236 33.5406 9.28703 33.5406 9.11903C33.5406 8.9417 33.5919 8.80636 33.6946 8.71303C33.7973 8.6197 33.9419 8.57303 34.1286 8.57303H34.9686V7.13103C34.9686 6.8977 35.0293 6.72036 35.1506 6.59903C35.2813 6.4777 35.4586 6.41703 35.6826 6.41703C35.9066 6.41703 36.0793 6.4777 36.2006 6.59903C36.3219 6.72036 36.3826 6.8977 36.3826 7.13103V8.57303H38.0206C38.2073 8.57303 38.3519 8.6197 38.4546 8.71303C38.5573 8.80636 38.6086 8.9417 38.6086 9.11903C38.6086 9.28703 38.5573 9.42236 38.4546 9.52503C38.3519 9.61836 38.2073 9.66503 38.0206 9.66503H36.3826V12.857C36.3826 13.3517 36.4853 13.725 36.6906 13.977C36.9053 14.229 37.2506 14.355 37.7266 14.355C37.8946 14.355 38.0393 14.341 38.1606 14.313C38.2913 14.2757 38.3986 14.2524 38.4826 14.243C38.5853 14.243 38.6693 14.2804 38.7346 14.355C38.7999 14.4204 38.8326 14.551 38.8326 14.747C38.8326 14.887 38.8046 15.0177 38.7486 15.139C38.7019 15.2604 38.6133 15.3397 38.4826 15.377C38.3706 15.4144 38.2166 15.447 38.0206 15.475C37.8339 15.5124 37.6659 15.531 37.5166 15.531ZM42.6175 15.531C41.9269 15.531 41.3295 15.3864 40.8255 15.097C40.3309 14.8077 39.9435 14.397 39.6635 13.865C39.3835 13.333 39.2435 12.7077 39.2435 11.989C39.2435 11.4384 39.3229 10.9484 39.4815 10.519C39.6402 10.0897 39.8642 9.72103 40.1535 9.41303C40.4522 9.0957 40.8069 8.8577 41.2175 8.69903C41.6375 8.53103 42.1042 8.44703 42.6175 8.44703C43.2989 8.44703 43.8869 8.5917 44.3815 8.88103C44.8855 9.17036 45.2775 9.58103 45.5575 10.113C45.8375 10.6357 45.9775 11.261 45.9775 11.989C45.9775 12.5304 45.8982 13.0204 45.7395 13.459C45.5809 13.8977 45.3522 14.271 45.0535 14.579C44.7642 14.887 44.4095 15.125 43.9895 15.293C43.5789 15.4517 43.1215 15.531 42.6175 15.531ZM42.6175 14.439C43.0002 14.439 43.3362 14.3457 43.6255 14.159C43.9149 13.9724 44.1389 13.697 44.2975 13.333C44.4655 12.969 44.5495 12.521 44.5495 11.989C44.5495 11.1864 44.3722 10.5797 44.0175 10.169C43.6629 9.75836 43.1962 9.55303 42.6175 9.55303C42.2255 9.55303 41.8849 9.64636 41.5955 9.83303C41.3062 10.0104 41.0775 10.281 40.9095 10.645C40.7509 11.009 40.6715 11.457 40.6715 11.989C40.6715 12.7824 40.8489 13.389 41.2035 13.809C41.5582 14.229 42.0295 14.439 42.6175 14.439ZM51.9849 15.503C51.7609 15.503 51.5883 15.4424 51.4669 15.321C51.3456 15.1904 51.2849 15.013 51.2849 14.789V9.18903C51.2849 8.9557 51.3456 8.77836 51.4669 8.65703C51.5883 8.5357 51.7563 8.47503 51.9709 8.47503C52.1949 8.47503 52.3629 8.5357 52.4749 8.65703C52.5963 8.77836 52.6569 8.9557 52.6569 9.18903V10.337L52.5029 10.029C52.6896 9.53436 52.9789 9.14703 53.3709 8.86703C53.7629 8.58703 54.2343 8.44703 54.7849 8.44703C55.3543 8.44703 55.8163 8.58236 56.1709 8.85303C56.5256 9.1237 56.7683 9.53903 56.8989 10.099H56.7029C56.8803 9.5857 57.1836 9.18436 57.6129 8.89503C58.0423 8.59636 58.5416 8.44703 59.1109 8.44703C59.6336 8.44703 60.0629 8.5497 60.3989 8.75503C60.7349 8.95103 60.9869 9.25436 61.1549 9.66503C61.3229 10.0664 61.4069 10.575 61.4069 11.191V14.789C61.4069 15.013 61.3416 15.1904 61.2109 15.321C61.0896 15.4424 60.9169 15.503 60.6929 15.503C60.4689 15.503 60.2963 15.4424 60.1749 15.321C60.0536 15.1904 59.9929 15.013 59.9929 14.789V11.261C59.9929 10.6824 59.8903 10.2577 59.6849 9.98703C59.4889 9.71636 59.1623 9.58103 58.7049 9.58103C58.1916 9.58103 57.7856 9.75836 57.4869 10.113C57.1883 10.4677 57.0389 10.9577 57.0389 11.583V14.789C57.0389 15.013 56.9783 15.1904 56.8569 15.321C56.7356 15.4424 56.5629 15.503 56.3389 15.503C56.1149 15.503 55.9376 15.4424 55.8069 15.321C55.6856 15.1904 55.6249 15.013 55.6249 14.789V11.261C55.6249 10.6824 55.5269 10.2577 55.3309 9.98703C55.1349 9.71636 54.8083 9.58103 54.3509 9.58103C53.8376 9.58103 53.4316 9.75836 53.1329 10.113C52.8436 10.4677 52.6989 10.9577 52.6989 11.583V14.789C52.6989 15.265 52.4609 15.503 51.9849 15.503ZM65.5679 15.531C65.0919 15.531 64.6626 15.4377 64.2799 15.251C63.9066 15.0644 63.6126 14.8124 63.3979 14.495C63.1832 14.1777 63.0759 13.8184 63.0759 13.417C63.0759 12.913 63.2019 12.5164 63.4539 12.227C63.7152 11.9284 64.1399 11.7184 64.7279 11.597C65.3252 11.4664 66.1279 11.401 67.1359 11.401H67.7939V12.269H67.1499C66.4779 12.269 65.9459 12.3017 65.5539 12.367C65.1619 12.4324 64.8819 12.5444 64.7139 12.703C64.5552 12.8524 64.4759 13.0624 64.4759 13.333C64.4759 13.6877 64.5972 13.977 64.8399 14.201C65.0826 14.4157 65.4186 14.523 65.8479 14.523C66.1932 14.523 66.4966 14.4437 66.7579 14.285C67.0192 14.117 67.2246 13.893 67.3739 13.613C67.5326 13.333 67.6119 13.011 67.6119 12.647V11.037C67.6119 10.505 67.4999 10.1224 67.2759 9.88903C67.0519 9.6557 66.6832 9.53903 66.1699 9.53903C65.8712 9.53903 65.5586 9.57636 65.2319 9.65103C64.9146 9.7257 64.5832 9.8517 64.2379 10.029C64.0792 10.1037 63.9439 10.127 63.8319 10.099C63.7199 10.071 63.6312 10.0104 63.5659 9.91703C63.5006 9.81436 63.4632 9.70703 63.4539 9.59503C63.4539 9.4737 63.4819 9.35703 63.5379 9.24503C63.6032 9.13303 63.7106 9.04903 63.8599 8.99303C64.2706 8.79703 64.6766 8.65703 65.0779 8.57303C65.4792 8.48903 65.8572 8.44703 66.2119 8.44703C66.8372 8.44703 67.3506 8.54503 67.7519 8.74103C68.1626 8.93703 68.4659 9.2357 68.6619 9.63703C68.8579 10.0384 68.9559 10.5564 68.9559 11.191V14.789C68.9559 15.013 68.8999 15.1904 68.7879 15.321C68.6759 15.4424 68.5126 15.503 68.2979 15.503C68.0926 15.503 67.9292 15.4424 67.8079 15.321C67.6866 15.1904 67.6259 15.013 67.6259 14.789V13.879H67.7519C67.6772 14.2244 67.5372 14.523 67.3319 14.775C67.1359 15.0177 66.8886 15.2044 66.5899 15.335C66.2912 15.4657 65.9506 15.531 65.5679 15.531ZM71.6174 15.503C71.3841 15.503 71.2068 15.4424 71.0854 15.321C70.9641 15.1904 70.9034 15.013 70.9034 14.789V9.18903C70.9034 8.9557 70.9641 8.77836 71.0854 8.65703C71.2068 8.5357 71.3748 8.47503 71.5894 8.47503C71.8134 8.47503 71.9814 8.5357 72.0934 8.65703C72.2148 8.77836 72.2754 8.9557 72.2754 9.18903V10.211H72.1354C72.2848 9.65103 72.5601 9.22636 72.9614 8.93703C73.3628 8.6477 73.8761 8.4797 74.5014 8.43303C74.6694 8.4237 74.8001 8.4657 74.8934 8.55903C74.9961 8.65236 75.0521 8.79703 75.0614 8.99303C75.0801 9.18903 75.0381 9.3477 74.9354 9.46903C74.8328 9.58103 74.6741 9.64636 74.4594 9.66503L74.1934 9.69303C73.5868 9.74903 73.1248 9.94036 72.8074 10.267C72.4901 10.5937 72.3314 11.0417 72.3314 11.611V14.789C72.3314 15.013 72.2708 15.1904 72.1494 15.321C72.0374 15.4424 71.8601 15.503 71.6174 15.503ZM76.8261 15.503C76.6021 15.503 76.4294 15.4424 76.3081 15.321C76.1867 15.1904 76.1261 15.013 76.1261 14.789V6.15103C76.1261 5.9177 76.1867 5.74036 76.3081 5.61903C76.4294 5.4977 76.6021 5.43703 76.8261 5.43703C77.0501 5.43703 77.2227 5.4977 77.3441 5.61903C77.4747 5.74036 77.5401 5.9177 77.5401 6.15103V11.555H77.5681L80.1861 8.95103C80.3354 8.8017 80.4707 8.68503 80.5921 8.60103C80.7134 8.51703 80.8721 8.47503 81.0681 8.47503C81.2641 8.47503 81.4134 8.52636 81.5161 8.62903C81.6187 8.7317 81.6701 8.8577 81.6701 9.00703C81.6701 9.14703 81.6001 9.2917 81.4601 9.44103L78.6881 12.185V11.527L81.7121 14.537C81.8614 14.6864 81.9314 14.8357 81.9221 14.985C81.9127 15.1344 81.8521 15.2604 81.7401 15.363C81.6281 15.4564 81.4881 15.503 81.3201 15.503C81.1054 15.503 80.9327 15.461 80.8021 15.377C80.6807 15.293 80.5361 15.167 80.3681 14.999L77.5681 12.283H77.5401V14.789C77.5401 15.265 77.3021 15.503 76.8261 15.503ZM14.5991 36.531C14.1231 36.531 13.6938 36.4377 13.3111 36.251C12.9378 36.0644 12.6438 35.8124 12.4291 35.495C12.2145 35.1777 12.1071 34.8184 12.1071 34.417C12.1071 33.913 12.2331 33.5164 12.4851 33.227C12.7465 32.9284 13.1711 32.7184 13.7591 32.597C14.3565 32.4664 15.1591 32.401 16.1671 32.401H16.8251V33.269H16.1811C15.5091 33.269 14.9771 33.3017 14.5851 33.367C14.1931 33.4324 13.9131 33.5444 13.7451 33.703C13.5865 33.8524 13.5071 34.0624 13.5071 34.333C13.5071 34.6877 13.6285 34.977 13.8711 35.201C14.1138 35.4157 14.4498 35.523 14.8791 35.523C15.2245 35.523 15.5278 35.4437 15.7891 35.285C16.0505 35.117 16.2558 34.893 16.4051 34.613C16.5638 34.333 16.6431 34.011 16.6431 33.647V32.037C16.6431 31.505 16.5311 31.1224 16.3071 30.889C16.0831 30.6557 15.7145 30.539 15.2011 30.539C14.9025 30.539 14.5898 30.5764 14.2631 30.651C13.9458 30.7257 13.6145 30.8517 13.2691 31.029C13.1105 31.1037 12.9751 31.127 12.8631 31.099C12.7511 31.071 12.6625 31.0104 12.5971 30.917C12.5318 30.8144 12.4945 30.707 12.4851 30.595C12.4851 30.4737 12.5131 30.357 12.5691 30.245C12.6345 30.133 12.7418 30.049 12.8911 29.993C13.3018 29.797 13.7078 29.657 14.1091 29.573C14.5105 29.489 14.8885 29.447 15.2431 29.447C15.8685 29.447 16.3818 29.545 16.7831 29.741C17.1938 29.937 17.4971 30.2357 17.6931 30.637C17.8891 31.0384 17.9871 31.5564 17.9871 32.191V35.789C17.9871 36.013 17.9311 36.1904 17.8191 36.321C17.7071 36.4424 17.5438 36.503 17.3291 36.503C17.1238 36.503 16.9605 36.4424 16.8391 36.321C16.7178 36.1904 16.6571 36.013 16.6571 35.789V34.879H16.7831C16.7085 35.2244 16.5685 35.523 16.3631 35.775C16.1671 36.0177 15.9198 36.2044 15.6211 36.335C15.3225 36.4657 14.9818 36.531 14.5991 36.531ZM22.3287 36.531C21.918 36.531 21.4933 36.4844 21.0547 36.391C20.6253 36.2977 20.2287 36.139 19.8647 35.915C19.7433 35.831 19.6593 35.7377 19.6127 35.635C19.566 35.5324 19.5473 35.4297 19.5567 35.327C19.5753 35.215 19.6173 35.1217 19.6827 35.047C19.7573 34.963 19.846 34.9117 19.9487 34.893C20.0607 34.8744 20.1773 34.8977 20.2987 34.963C20.6627 35.1684 21.0127 35.313 21.3487 35.397C21.6847 35.4717 22.016 35.509 22.3427 35.509C22.8373 35.509 23.2107 35.4204 23.4627 35.243C23.7147 35.0657 23.8407 34.8277 23.8407 34.529C23.8407 34.2864 23.7567 34.0997 23.5887 33.969C23.4207 33.829 23.1687 33.7217 22.8327 33.647L21.5027 33.381C20.924 33.2597 20.4853 33.045 20.1867 32.737C19.888 32.429 19.7387 32.037 19.7387 31.561C19.7387 31.1317 19.8553 30.7584 20.0887 30.441C20.322 30.1237 20.6487 29.881 21.0687 29.713C21.4887 29.5357 21.974 29.447 22.5247 29.447C22.9353 29.447 23.3227 29.4984 23.6867 29.601C24.0507 29.7037 24.3867 29.8577 24.6947 30.063C24.816 30.1284 24.8953 30.217 24.9327 30.329C24.97 30.4317 24.9747 30.5344 24.9467 30.637C24.928 30.7397 24.8813 30.833 24.8067 30.917C24.732 30.9917 24.6387 31.0384 24.5267 31.057C24.424 31.0664 24.3073 31.0384 24.1767 30.973C23.8967 30.7957 23.6167 30.6697 23.3367 30.595C23.066 30.5204 22.7953 30.483 22.5247 30.483C22.03 30.483 21.6567 30.5764 21.4047 30.763C21.162 30.9404 21.0407 31.183 21.0407 31.491C21.0407 31.7244 21.1153 31.9157 21.2647 32.065C21.414 32.2144 21.6473 32.3217 21.9647 32.387L23.2947 32.653C23.9013 32.7744 24.3587 32.9797 24.6667 33.269C24.984 33.5584 25.1427 33.9504 25.1427 34.445C25.1427 35.089 24.886 35.5977 24.3727 35.971C23.8593 36.3444 23.178 36.531 22.3287 36.531ZM33.0113 36.531C32.414 36.531 31.8867 36.391 31.4293 36.111C30.9813 35.8217 30.6313 35.411 30.3793 34.879C30.1273 34.3377 30.0013 33.7077 30.0013 32.989C30.0013 32.2517 30.1273 31.6217 30.3793 31.099C30.6313 30.5764 30.9813 30.1704 31.4293 29.881C31.8867 29.5917 32.414 29.447 33.0113 29.447C33.6087 29.447 34.122 29.5964 34.5513 29.895C34.99 30.1844 35.284 30.5764 35.4333 31.071H35.2793V27.151C35.2793 26.9177 35.34 26.7404 35.4613 26.619C35.5827 26.4977 35.7553 26.437 35.9793 26.437C36.2033 26.437 36.376 26.4977 36.4973 26.619C36.628 26.7404 36.6933 26.9177 36.6933 27.151V35.789C36.6933 36.013 36.6327 36.1904 36.5113 36.321C36.39 36.4424 36.2173 36.503 35.9933 36.503C35.7693 36.503 35.5967 36.4424 35.4753 36.321C35.354 36.1904 35.2933 36.013 35.2933 35.789V34.557L35.4473 34.865C35.298 35.369 35.004 35.775 34.5653 36.083C34.136 36.3817 33.618 36.531 33.0113 36.531ZM33.3753 35.439C33.758 35.439 34.094 35.3457 34.3833 35.159C34.6727 34.9724 34.8967 34.697 35.0553 34.333C35.2233 33.969 35.3073 33.521 35.3073 32.989C35.3073 32.1864 35.13 31.5797 34.7753 31.169C34.4207 30.7584 33.954 30.553 33.3753 30.553C32.9833 30.553 32.6427 30.6464 32.3533 30.833C32.064 31.0104 31.8353 31.281 31.6673 31.645C31.5087 32.009 31.4293 32.457 31.4293 32.989C31.4293 33.7824 31.6067 34.389 31.9613 34.809C32.316 35.229 32.7873 35.439 33.3753 35.439ZM39.3788 36.489C39.1548 36.489 38.9821 36.4237 38.8608 36.293C38.7395 36.153 38.6788 35.9617 38.6788 35.719V30.259C38.6788 30.0164 38.7395 29.8297 38.8608 29.699C38.9821 29.5684 39.1548 29.503 39.3788 29.503C39.6028 29.503 39.7755 29.5684 39.8968 29.699C40.0275 29.8297 40.0928 30.0164 40.0928 30.259V35.719C40.0928 35.9617 40.0321 36.153 39.9108 36.293C39.7895 36.4237 39.6121 36.489 39.3788 36.489ZM39.3788 28.047C39.0988 28.047 38.8795 27.977 38.7208 27.837C38.5715 27.697 38.4968 27.501 38.4968 27.249C38.4968 26.9877 38.5715 26.7917 38.7208 26.661C38.8795 26.521 39.0988 26.451 39.3788 26.451C39.6588 26.451 39.8735 26.521 40.0228 26.661C40.1815 26.7917 40.2608 26.9877 40.2608 27.249C40.2608 27.501 40.1815 27.697 40.0228 27.837C39.8735 27.977 39.6588 28.047 39.3788 28.047ZM43.2031 36.503C42.9791 36.503 42.8018 36.4424 42.6711 36.321C42.5498 36.1904 42.4891 36.013 42.4891 35.789V30.665H41.7051C41.5278 30.665 41.3878 30.6184 41.2851 30.525C41.1824 30.4224 41.1311 30.287 41.1311 30.119C41.1311 29.9417 41.1824 29.8064 41.2851 29.713C41.3878 29.6197 41.5278 29.573 41.7051 29.573H42.8951L42.4891 29.951V29.447C42.4891 28.523 42.7178 27.8277 43.1751 27.361C43.6324 26.885 44.2998 26.605 45.1771 26.521L45.6111 26.493C45.7698 26.4744 45.8958 26.4977 45.9891 26.563C46.0824 26.6284 46.1431 26.7124 46.1711 26.815C46.1991 26.9177 46.1991 27.025 46.1711 27.137C46.1524 27.2397 46.1058 27.333 46.0311 27.417C45.9564 27.501 45.8631 27.5477 45.7511 27.557L45.4851 27.571C44.9344 27.6177 44.5331 27.7764 44.2811 28.047C44.0291 28.3084 43.9031 28.7097 43.9031 29.251V29.797L43.7071 29.573H45.2611C45.4571 29.573 45.6018 29.6197 45.6951 29.713C45.7978 29.8064 45.8491 29.9417 45.8491 30.119C45.8491 30.287 45.7978 30.4224 45.6951 30.525C45.6018 30.6184 45.4571 30.665 45.2611 30.665H43.9031V35.789C43.9031 36.265 43.6698 36.503 43.2031 36.503ZM47.7969 36.503C47.5729 36.503 47.3955 36.4424 47.2649 36.321C47.1435 36.1904 47.0829 36.013 47.0829 35.789V30.665H46.2989C46.1215 30.665 45.9815 30.6184 45.8789 30.525C45.7762 30.4224 45.7249 30.287 45.7249 30.119C45.7249 29.9417 45.7762 29.8064 45.8789 29.713C45.9815 29.6197 46.1215 29.573 46.2989 29.573H47.4889L47.0829 29.951V29.447C47.0829 28.5417 47.3069 27.851 47.7549 27.375C48.2029 26.899 48.8609 26.619 49.7289 26.535L50.1489 26.507C50.3169 26.4884 50.4522 26.5117 50.5549 26.577C50.6575 26.633 50.7275 26.717 50.7649 26.829C50.8022 26.9317 50.8069 27.039 50.7789 27.151C50.7509 27.263 50.6995 27.361 50.6249 27.445C50.5595 27.5197 50.4755 27.5617 50.3729 27.571L49.9949 27.599C49.4722 27.6364 49.0895 27.7904 48.8469 28.061C48.6135 28.3317 48.4969 28.7284 48.4969 29.251V29.797L48.3009 29.573H52.1369C52.3702 29.573 52.5475 29.643 52.6689 29.783C52.7902 29.9137 52.8509 30.0957 52.8509 30.329V35.719C52.8509 35.9617 52.7902 36.153 52.6689 36.293C52.5569 36.4237 52.3795 36.489 52.1369 36.489C51.9129 36.489 51.7402 36.4237 51.6189 36.293C51.4975 36.153 51.4369 35.9617 51.4369 35.719V30.665H48.4969V35.789C48.4969 36.265 48.2635 36.503 47.7969 36.503ZM52.1649 28.047C51.8942 28.047 51.6842 27.977 51.5349 27.837C51.3855 27.697 51.3109 27.501 51.3109 27.249C51.3109 26.9877 51.3855 26.7917 51.5349 26.661C51.6842 26.521 51.8942 26.451 52.1649 26.451C52.4449 26.451 52.6549 26.521 52.7949 26.661C52.9442 26.7917 53.0189 26.9877 53.0189 27.249C53.0189 27.501 52.9442 27.697 52.7949 27.837C52.6549 27.977 52.4449 28.047 52.1649 28.047ZM57.8353 36.531C57.1353 36.531 56.5286 36.3864 56.0153 36.097C55.5113 35.7984 55.1193 35.383 54.8393 34.851C54.5593 34.3097 54.4193 33.675 54.4193 32.947C54.4193 32.4057 54.4986 31.9204 54.6573 31.491C54.816 31.0524 55.04 30.6837 55.3293 30.385C55.628 30.0864 55.9873 29.8577 56.4073 29.699C56.8366 29.531 57.3126 29.447 57.8353 29.447C58.162 29.447 58.5026 29.4984 58.8573 29.601C59.2213 29.6944 59.5573 29.853 59.8653 30.077C59.9866 30.1517 60.0613 30.245 60.0893 30.357C60.1266 30.4597 60.1313 30.567 60.1033 30.679C60.0846 30.791 60.0333 30.889 59.9493 30.973C59.8746 31.0477 59.7813 31.0944 59.6693 31.113C59.5573 31.1224 59.436 31.0897 59.3053 31.015C59.0813 30.8564 58.8526 30.7444 58.6193 30.679C58.386 30.6044 58.162 30.567 57.9473 30.567C57.6113 30.567 57.3126 30.623 57.0513 30.735C56.7993 30.8377 56.5846 30.9917 56.4073 31.197C56.23 31.393 56.0946 31.6404 56.0013 31.939C55.9173 32.2377 55.8753 32.5784 55.8753 32.961C55.8753 33.7264 56.0526 34.3284 56.4073 34.767C56.7713 35.1964 57.2846 35.411 57.9473 35.411C58.162 35.411 58.386 35.3784 58.6193 35.313C58.8526 35.2477 59.0813 35.1357 59.3053 34.977C59.436 34.9024 59.5573 34.8744 59.6693 34.893C59.7813 34.9117 59.87 34.963 59.9353 35.047C60.01 35.1217 60.0566 35.215 60.0753 35.327C60.1033 35.4297 60.0986 35.537 60.0613 35.649C60.024 35.761 59.9446 35.8544 59.8233 35.929C59.5246 36.1437 59.198 36.2977 58.8433 36.391C58.498 36.4844 58.162 36.531 57.8353 36.531ZM63.7965 36.531C63.2458 36.531 62.7838 36.4284 62.4105 36.223C62.0465 36.0177 61.7711 35.7144 61.5845 35.313C61.4071 34.9024 61.3185 34.389 61.3185 33.773V30.189C61.3185 29.9464 61.3791 29.769 61.5005 29.657C61.6218 29.5357 61.7945 29.475 62.0185 29.475C62.2425 29.475 62.4151 29.5357 62.5365 29.657C62.6671 29.769 62.7325 29.9464 62.7325 30.189V33.787C62.7325 34.3377 62.8445 34.7437 63.0685 35.005C63.2925 35.2664 63.6471 35.397 64.1325 35.397C64.6645 35.397 65.0938 35.2197 65.4205 34.865C65.7565 34.501 65.9245 34.025 65.9245 33.437V30.189C65.9245 29.9464 65.9851 29.769 66.1065 29.657C66.2278 29.5357 66.4051 29.475 66.6385 29.475C66.8625 29.475 67.0351 29.5357 67.1565 29.657C67.2778 29.769 67.3385 29.9464 67.3385 30.189V35.789C67.3385 36.265 67.1098 36.503 66.6525 36.503C66.4378 36.503 66.2698 36.4424 66.1485 36.321C66.0271 36.1904 65.9665 36.013 65.9665 35.789V34.599L66.1485 34.907C65.9618 35.4297 65.6631 35.831 65.2525 36.111C64.8418 36.391 64.3565 36.531 63.7965 36.531ZM71.5292 36.531C70.8012 36.531 70.2505 36.321 69.8772 35.901C69.5132 35.4717 69.3312 34.8557 69.3312 34.053V27.151C69.3312 26.9177 69.3918 26.7404 69.5132 26.619C69.6345 26.4977 69.8072 26.437 70.0312 26.437C70.2552 26.437 70.4278 26.4977 70.5492 26.619C70.6798 26.7404 70.7452 26.9177 70.7452 27.151V33.969C70.7452 34.4357 70.8385 34.7857 71.0252 35.019C71.2212 35.243 71.5012 35.355 71.8652 35.355C71.9492 35.355 72.0238 35.355 72.0892 35.355C72.1545 35.3457 72.2198 35.3364 72.2852 35.327C72.3972 35.3177 72.4765 35.3504 72.5232 35.425C72.5698 35.4904 72.5932 35.6304 72.5932 35.845C72.5932 36.041 72.5512 36.195 72.4672 36.307C72.3832 36.4097 72.2478 36.475 72.0612 36.503C71.9772 36.5124 71.8885 36.517 71.7952 36.517C71.7018 36.5264 71.6132 36.531 71.5292 36.531ZM76.3721 36.531C75.8121 36.531 75.3407 36.433 74.9581 36.237C74.5754 36.041 74.2907 35.7517 74.1041 35.369C73.9174 34.9864 73.8241 34.5197 73.8241 33.969V30.665H72.9841C72.7974 30.665 72.6527 30.6184 72.5501 30.525C72.4474 30.4224 72.3961 30.287 72.3961 30.119C72.3961 29.9417 72.4474 29.8064 72.5501 29.713C72.6527 29.6197 72.7974 29.573 72.9841 29.573H73.8241V28.131C73.8241 27.8977 73.8847 27.7204 74.0061 27.599C74.1367 27.4777 74.3141 27.417 74.5381 27.417C74.7621 27.417 74.9347 27.4777 75.0561 27.599C75.1774 27.7204 75.2381 27.8977 75.2381 28.131V29.573H76.8761C77.0627 29.573 77.2074 29.6197 77.3101 29.713C77.4127 29.8064 77.4641 29.9417 77.4641 30.119C77.4641 30.287 77.4127 30.4224 77.3101 30.525C77.2074 30.6184 77.0627 30.665 76.8761 30.665H75.2381V33.857C75.2381 34.3517 75.3407 34.725 75.5461 34.977C75.7607 35.229 76.1061 35.355 76.5821 35.355C76.7501 35.355 76.8947 35.341 77.0161 35.313C77.1467 35.2757 77.2541 35.2524 77.3381 35.243C77.4407 35.243 77.5247 35.2804 77.5901 35.355C77.6554 35.4204 77.6881 35.551 77.6881 35.747C77.6881 35.887 77.6601 36.0177 77.6041 36.139C77.5574 36.2604 77.4687 36.3397 77.3381 36.377C77.2261 36.4144 77.0721 36.447 76.8761 36.475C76.6894 36.5124 76.5214 36.531 76.3721 36.531Z" fill="white"/>
</svg>
