<svg width="36" height="51" viewBox="0 0 36 51" fill="none" xmlns="http://www.w3.org/2000/svg">
<path d="M4.28578 7.95919L1.81825 5.49166" stroke="white" stroke-width="2.46753" stroke-linecap="round" stroke-linejoin="round"/>
<path d="M16.1054 7.95919L18.5729 5.49166" stroke="white" stroke-width="2.46753" stroke-linecap="round" stroke-linejoin="round"/>
<path d="M10.1221 5.49156V2" stroke="white" stroke-width="2.46753" stroke-linecap="round" stroke-linejoin="round"/>
<path fill-rule="evenodd" clip-rule="evenodd" d="M10.1956 10.9574C9.16793 10.9574 8.03654 11.9902 8.03654 13.6593V32.9308C8.03654 32.9903 8.03233 33.0488 8.02419 33.106V33.4613C8.02419 34.1427 7.47181 34.6951 6.79042 34.6951C6.10903 34.6951 5.55665 34.1427 5.55665 33.4613V30.5268L4.63133 31.2158L4.62977 31.217C2.58049 32.7551 1.89004 35.5156 2.98348 37.8329L2.98355 37.833L4.8342 41.7564L4.83468 41.7574C6.50625 45.3095 10.0807 47.5756 14.008 47.5756H23.693C28.6499 47.5756 32.6625 43.563 32.6625 38.6061V33.4736C32.6625 33.4149 32.6666 33.3571 32.6746 33.3005V28.07C32.6746 26.4009 31.5432 25.368 30.5155 25.368C29.5527 25.368 28.499 26.2744 28.3696 27.7611V30.2782C28.3696 30.9596 27.8172 31.512 27.1359 31.512C26.4545 31.512 25.9021 30.9596 25.9021 30.2782V28.2514C25.8934 28.1922 25.8888 28.1316 25.8888 28.07C25.8888 27.9406 25.8933 27.8116 25.9021 27.6833V25.7133C25.9021 24.0442 24.7707 23.0113 23.743 23.0113C22.7765 23.0113 21.7184 23.9248 21.5957 25.4218V29.0074C21.5957 29.3408 21.4634 29.6434 21.2485 29.8654C21.0235 30.1043 20.7043 30.2535 20.3501 30.2535C19.6687 30.2535 19.1164 29.7012 19.1164 29.0198V25.7133C19.1164 25.5913 19.1203 25.4696 19.1282 25.3486V23.7886C19.1282 22.1195 17.9968 21.0866 16.9691 21.0866C16.0039 21.0866 14.9472 21.9977 14.8223 23.4912V27.6009C14.8223 28.2823 14.2699 28.8347 13.5885 28.8347L13.5845 28.8347L13.5762 28.8347C12.8948 28.8347 12.3424 28.2823 12.3424 27.6009V23.7886C12.3424 23.6641 12.3466 23.5399 12.3547 23.4164V13.6593C12.3547 11.9902 11.2233 10.9574 10.1956 10.9574ZM35.13 38.1626C35.138 38.106 35.1421 38.0482 35.1421 37.9894V28.07C35.1421 25.3962 33.2384 22.9005 30.5155 22.9005C29.5638 22.9005 28.7122 23.2053 28.007 23.7161C27.331 21.9163 25.7623 20.5438 23.743 20.5438C22.7288 20.5438 21.8283 20.89 21.0975 21.4627C20.3614 19.8271 18.8635 18.6191 16.9691 18.6191C16.1748 18.6191 15.4502 18.8315 14.8223 19.1987V13.6593C14.8223 10.9856 12.9186 8.48987 10.1956 8.48987C7.47268 8.48987 5.56901 10.9856 5.56901 13.6593V27.441L3.15418 29.2393L3.15081 29.2418C0.167575 31.4792 -0.843954 35.5036 0.751838 38.8857L0.751908 38.8858L2.60201 42.8081L2.60218 42.8084C4.68133 47.2262 9.12624 50.0431 14.008 50.0431H23.693C30.0127 50.0431 35.13 44.9258 35.13 38.6061V38.1626Z" fill="white"/>
</svg>
