<svg width="18" height="21" viewBox="0 0 18 21" fill="none" xmlns="http://www.w3.org/2000/svg">
<g clip-path="url(#clip0_408_10676)">
<path d="M10.0591 1.82581H7.01379V4.87108H10.0591V1.82581Z" fill="#A0A0A0"/>
<path d="M8.83268 21.0069C13.7108 21.0069 17.6654 17.0524 17.6654 12.1742C17.6654 7.29608 13.7108 3.34155 8.83268 3.34155C3.95452 3.34155 0 7.29608 0 12.1742C0 17.0524 3.95452 21.0069 8.83268 21.0069Z" fill="#E8E8E8"/>
<path d="M8.83266 18.5679C12.3638 18.5679 15.2264 15.7054 15.2264 12.1742C15.2264 8.64307 12.3638 5.78052 8.83266 5.78052C5.30152 5.78052 2.43896 8.64307 2.43896 12.1742C2.43896 15.7054 5.30152 18.5679 8.83266 18.5679Z" fill="white"/>
<path d="M10.0591 0H7.0138C6.3403 0 5.79431 0.545983 5.79431 1.21949C5.79431 1.89299 6.3403 2.43898 7.0138 2.43898H10.0591C10.7326 2.43898 11.2786 1.89299 11.2786 1.21949C11.2786 0.545983 10.7326 0 10.0591 0Z" fill="#FF4C4C"/>
<path d="M8.8327 13.1664C9.38064 13.1664 9.82483 12.7222 9.82483 12.1743C9.82483 11.6263 9.38064 11.1821 8.8327 11.1821C8.28477 11.1821 7.84058 11.6263 7.84058 12.1743C7.84058 12.7222 8.28477 13.1664 8.8327 13.1664Z" fill="#A0A0A0"/>
<path d="M6.47632 9.67322L8.98419 12.1811H10.6653" stroke="#383838" stroke-width="1.75" stroke-linecap="round" stroke-linejoin="round"/>
<path d="M3.98914 12.1742H4.53343" stroke="#E8E8E8" stroke-width="1.75" stroke-linecap="round" stroke-linejoin="round"/>
<path d="M13.125 12.1742H13.6693" stroke="#E8E8E8" stroke-width="1.75" stroke-linecap="round" stroke-linejoin="round"/>
<path d="M8.83264 7.33069V7.87498" stroke="#E8E8E8" stroke-width="1.75" stroke-linecap="round" stroke-linejoin="round"/>
<path d="M8.83264 16.4666V17.0108" stroke="#E8E8E8" stroke-width="1.75" stroke-linecap="round" stroke-linejoin="round"/>
</g>
<defs>
<clipPath id="clip0_408_10676">
<rect width="17.6654" height="21" fill="white"/>
</clipPath>
</defs>
</svg>
