<svg width="108" height="129" viewBox="0 0 108 129" fill="none" xmlns="http://www.w3.org/2000/svg">
<ellipse cx="53.1722" cy="8.66519" rx="53.1722" ry="8.66519" transform="matrix(-1 0 0 1 106.562 111.009)" fill="#CFCFCF"/>
<path d="M66.5085 73.7065V97.4176C66.5085 108.279 57.7538 117.114 46.9921 117.114C43.4191 117.114 40.5238 114.192 40.5238 110.586C40.5238 106.98 43.4191 104.058 46.9921 104.058C50.621 104.058 53.5721 101.08 53.5721 97.4176V73.7065" fill="#7000FF"/>
<path fill-rule="evenodd" clip-rule="evenodd" d="M66.5074 72.2837C65.7291 72.2837 65.0981 72.9205 65.0981 73.706V97.4171C65.0981 107.493 56.9743 115.691 46.9909 115.691C44.1963 115.691 41.932 113.406 41.932 110.586C41.932 107.765 44.1963 105.48 46.9909 105.48C51.3982 105.48 54.9803 101.865 54.9803 97.4171V73.706C54.9803 72.9205 54.3494 72.2837 53.571 72.2837C52.7927 72.2837 52.1617 72.9205 52.1617 73.706V97.4171C52.1617 100.294 49.8415 102.636 46.9909 102.636C42.6396 102.636 39.1134 106.194 39.1134 110.586C39.1134 114.977 42.6396 118.536 46.9909 118.536C58.531 118.536 67.9167 109.064 67.9167 97.4171V73.706C67.9167 72.9205 67.2858 72.2837 66.5074 72.2837Z" fill="#3C008A"/>
<path d="M48.923 0.272705C65.257 0.272705 78.5168 13.7536 78.5168 30.3597V82.7672H19.3259L19.3259 30.3631C19.3259 13.7569 32.5891 0.272705 48.923 0.272705Z" fill="#7000FF"/>
<path d="M33.8816 25.8829C35.4271 25.8829 36.6799 24.6184 36.6799 23.0587C36.6799 21.4989 35.4271 20.2345 33.8816 20.2345C32.3361 20.2345 31.0833 21.4989 31.0833 23.0587C31.0833 24.6184 32.3361 25.8829 33.8816 25.8829Z" fill="#FEE702"/>
<path d="M40.9456 23.3991C42.1031 23.3991 43.0415 22.452 43.0415 21.2838C43.0415 20.1155 42.1031 19.1685 40.9456 19.1685C39.788 19.1685 38.8496 20.1155 38.8496 21.2838C38.8496 22.452 39.788 23.3991 40.9456 23.3991Z" fill="#FEE702"/>
<path d="M37.1634 17.4785C37.9796 17.4785 38.6412 16.8107 38.6412 15.987C38.6412 15.1632 37.9796 14.4955 37.1634 14.4955C36.3472 14.4955 35.6855 15.1632 35.6855 15.987C35.6855 16.8107 36.3472 17.4785 37.1634 17.4785Z" fill="#FEE702"/>
<path fill-rule="evenodd" clip-rule="evenodd" d="M75.6982 30.3597C75.6982 15.3049 63.6808 3.11734 48.923 3.11734C34.1653 3.11734 22.1445 15.3083 22.1445 30.3631V79.9225H75.6982V30.3597ZM78.5168 30.3597C78.5168 13.7536 65.257 0.272705 48.923 0.272705C32.5891 0.272705 19.3259 13.7569 19.3259 30.3631V82.7672H78.5168V30.3597Z" fill="#3C008A"/>
<path d="M76.1098 60.8748C71.6445 60.8748 68.009 57.2095 68.009 52.703V44.7566C68.009 40.2501 71.6408 36.5811 76.1098 36.5811C80.5788 36.5811 84.2068 40.2463 84.2068 44.7566V52.703C84.2068 57.2095 80.5751 60.8748 76.1098 60.8748Z" fill="white"/>
<path fill-rule="evenodd" clip-rule="evenodd" d="M76.1095 62.7718C70.6075 62.7718 66.1296 58.2586 66.1296 52.7036V44.7571C66.1296 39.2038 70.6021 34.6852 76.1095 34.6852C81.6174 34.6852 86.0856 39.2006 86.0856 44.7571V52.7036C86.0856 58.2575 81.6125 62.7718 76.1095 62.7718ZM68.0087 52.7036C68.0087 57.2101 71.6442 60.8754 76.1095 60.8754C80.5747 60.8754 84.2065 57.2101 84.2065 52.7036V44.7571C84.2065 40.2469 80.5785 36.5816 76.1095 36.5816C71.6405 36.5816 68.0087 40.2506 68.0087 44.7571V52.7036Z" fill="#3C008A"/>
<path d="M76.1099 37.332C80.1659 37.332 83.4627 40.663 83.4627 44.7527V52.6991C83.4627 56.7925 80.1621 60.1198 76.1062 60.1198C72.0502 60.1198 68.7497 56.7888 68.7497 52.6991V44.7527C68.7497 40.6593 72.0502 37.332 76.1062 37.332M76.1062 35.8298C71.2242 35.8298 67.2612 39.8256 67.2612 44.7527V52.6991C67.2612 57.63 71.2204 61.622 76.1062 61.622C80.9882 61.622 84.9474 57.6262 84.9474 52.6991V44.7527C84.9474 39.8218 80.9882 35.8298 76.1062 35.8298Z" fill="#3C008A"/>
<path d="M79.384 43.5328C79.384 41.7076 77.918 40.228 76.1095 40.228C74.301 40.228 72.835 41.7076 72.835 43.5328V48.8805C72.835 50.7057 74.301 52.1853 76.1095 52.1853C77.918 52.1853 79.384 50.7057 79.384 48.8805V43.5328Z" fill="#1C1C1C"/>
<path d="M79.2061 41.5164C79.2061 40.5512 78.4284 39.7664 77.4721 39.7664C76.5157 39.7664 75.738 40.5512 75.738 41.5164C75.738 42.4815 76.5157 43.2664 77.4721 43.2664C78.4284 43.2664 79.2061 42.4815 79.2061 41.5164Z" fill="white"/>
<path d="M51.6684 60.8748C47.2031 60.8748 43.5676 57.2095 43.5676 52.703V44.7566C43.5676 40.2501 47.1994 36.5811 51.6684 36.5811C56.1374 36.5811 59.7654 40.2463 59.7654 44.7566V52.703C59.7654 57.2095 56.1336 60.8748 51.6684 60.8748Z" fill="white"/>
<path fill-rule="evenodd" clip-rule="evenodd" d="M51.6703 62.7718C46.1683 62.7718 41.6904 58.2586 41.6904 52.7036V44.7571C41.6904 39.2038 46.1629 34.6852 51.6703 34.6852C57.1782 34.6852 61.6464 39.2006 61.6464 44.7571V52.7036C61.6464 58.2575 57.1733 62.7718 51.6703 62.7718ZM43.5695 52.7036C43.5695 57.2101 47.205 60.8754 51.6703 60.8754C56.1355 60.8754 59.7673 57.2101 59.7673 52.7036V44.7571C59.7673 40.2469 56.1393 36.5816 51.6703 36.5816C47.2013 36.5816 43.5695 40.2506 43.5695 44.7571V52.7036Z" fill="#3C008A"/>
<path d="M51.6695 37.332C55.7254 37.332 59.0223 40.663 59.0223 44.7527V52.6991C59.0223 56.7925 55.7217 60.1198 51.6658 60.1198C47.6098 60.1198 44.3092 56.7888 44.3092 52.6991V44.7527C44.3092 40.6593 47.6098 37.332 51.6658 37.332M51.6658 35.8298C46.7837 35.8298 42.8208 39.8256 42.8208 44.7527V52.6991C42.8208 57.63 46.78 61.622 51.6658 61.622C56.5478 61.622 60.507 57.6262 60.507 52.6991V44.7527C60.507 39.8218 56.5478 35.8298 51.6658 35.8298Z" fill="#3C008A"/>
<path d="M54.9446 43.5328C54.9446 41.7076 53.4785 40.228 51.67 40.228C49.8616 40.228 48.3955 41.7076 48.3955 43.5328V48.8805C48.3955 50.7057 49.8616 52.1853 51.67 52.1853C53.4785 52.1853 54.9446 50.7057 54.9446 48.8805V43.5328Z" fill="#1C1C1C"/>
<path d="M54.7656 41.5164C54.7656 40.5512 53.9879 39.7664 53.0316 39.7664C52.0753 39.7664 51.2976 40.5512 51.2976 41.5164C51.2976 42.4815 52.0753 43.2664 53.0316 43.2664C53.9879 43.2664 54.7656 42.4815 54.7656 41.5164Z" fill="white"/>
<path fill-rule="evenodd" clip-rule="evenodd" d="M73.1019 27.6303C72.4403 28.0187 71.5895 27.8029 71.1897 27.1401C70.7851 26.4691 70.996 25.594 71.6609 25.1857L72.3936 26.4006C71.6609 25.1857 71.6616 25.1852 71.6622 25.1848L71.6636 25.184L71.6665 25.1822L71.6728 25.1785L71.6872 25.1698C71.6977 25.1636 71.71 25.1565 71.7239 25.1487C71.7518 25.1329 71.7866 25.114 71.8281 25.0927C71.9108 25.0503 72.0207 24.9983 72.1554 24.9442C72.4239 24.8363 72.7979 24.7172 73.2563 24.6515C74.1917 24.5175 75.4357 24.6142 76.774 25.4013M73.1019 27.6303C73.1028 27.6298 73.1039 27.6293 73.1052 27.6286C73.1183 27.6219 73.1499 27.6063 73.1979 27.5871C73.2949 27.5481 73.4512 27.4967 73.6524 27.4679C74.0359 27.413 74.6273 27.4311 75.3552 27.8593L75.3559 27.8596C76.2684 28.3959 76.5438 28.9157 76.6371 29.1773C76.6889 29.3224 76.7004 29.4329 76.7026 29.4894C76.7031 29.5042 76.703 29.5152 76.7028 29.5219C76.5954 30.2721 77.0926 30.9811 77.8378 31.1223C78.6027 31.2672 79.3393 30.7588 79.4829 29.9868L78.0978 29.7244C79.4829 29.9868 79.4831 29.9858 79.4833 29.9848L79.4837 29.9827L79.4845 29.9783L79.4861 29.9691L79.4895 29.9486C79.4919 29.9339 79.4944 29.9174 79.4969 29.899C79.5019 29.8623 79.507 29.8181 79.5113 29.767C79.5198 29.665 79.5249 29.5347 79.5191 29.381C79.5075 29.0733 79.4517 28.6695 79.2891 28.2138C78.9539 27.274 78.213 26.247 76.7746 25.4017" fill="#3C008A"/>
<path fill-rule="evenodd" clip-rule="evenodd" d="M50.6637 30.9717C50.6662 31.7441 50.0556 32.3798 49.287 32.3978C48.5089 32.416 47.8635 31.7941 47.8455 31.0088L49.2544 30.9759C47.8455 31.0088 47.8454 31.008 47.8454 31.0072L47.8454 31.0055L47.8453 31.0022L47.8452 30.9948L47.845 30.9779C47.845 30.9656 47.845 30.9513 47.8452 30.9352C47.8457 30.9029 47.8468 30.863 47.8493 30.8162C47.8542 30.7227 47.8646 30.6006 47.8855 30.4558C47.9271 30.1672 48.012 29.7807 48.1848 29.3473C48.5375 28.4627 49.2425 27.4238 50.5871 26.6476M50.6637 30.9717C50.6637 30.9706 50.6638 30.9694 50.6639 30.9679C50.6647 30.9531 50.6672 30.9177 50.6746 30.8661C50.6897 30.7618 50.7238 30.5995 50.7996 30.4093C50.9442 30.0467 51.2555 29.5388 51.9869 29.1166L51.9875 29.1163C52.9039 28.5868 53.4876 28.606 53.7588 28.6552C53.9092 28.6825 54.0098 28.7278 54.0594 28.7541C54.0723 28.7611 54.0817 28.7666 54.0874 28.7701C54.6774 29.2392 55.5344 29.159 56.0281 28.5784C56.535 27.9822 56.467 27.0843 55.8763 26.5727L54.9586 27.6521C55.8763 26.5727 55.8756 26.5721 55.8748 26.5714L55.8732 26.57L55.8698 26.5671L55.8628 26.5611L55.8469 26.5478C55.8355 26.5384 55.8225 26.528 55.808 26.5166C55.779 26.4938 55.7436 26.4673 55.7019 26.4381C55.6187 26.3797 55.5094 26.31 55.3746 26.2382C55.1048 26.0945 54.7303 25.9414 54.258 25.8556C53.284 25.6787 52.0322 25.8127 50.5877 26.6473" fill="#3C008A"/>
<path fill-rule="evenodd" clip-rule="evenodd" d="M66.0539 63.4869C66.4344 62.8167 67.2782 62.5743 67.9527 62.9466C68.6356 63.3235 68.8864 64.1877 68.5129 64.8769L67.2765 64.1945C68.5129 64.8769 68.5126 64.8776 68.5122 64.8783L68.5114 64.8797L68.5098 64.8827L68.5062 64.8891L68.498 64.9039C68.492 64.9146 68.4849 64.9269 68.4767 64.9408C68.4603 64.9685 68.4396 65.0025 68.4142 65.0418C68.3636 65.1202 68.2942 65.2207 68.2043 65.3356C68.0252 65.5645 67.7603 65.8564 67.3959 66.1446C66.6522 66.7327 65.527 67.2766 63.978 67.2703M66.0539 63.4869C66.0533 63.4878 66.0527 63.4888 66.0519 63.4901C66.0438 63.5025 66.0242 63.5319 65.9921 63.5728C65.9275 63.6555 65.8175 63.7789 65.6575 63.9054C65.3527 64.1465 64.8315 64.4292 63.989 64.4257L63.9882 64.4257C62.9323 64.4218 62.4363 64.1106 62.2258 63.9312C62.1091 63.8316 62.0444 63.7417 62.0145 63.6939C62.0067 63.6813 62.0014 63.6718 61.9982 63.6659C61.7196 62.962 60.9377 62.5989 60.2225 62.8526C59.4882 63.1131 59.1021 63.925 59.3603 64.6661L60.6898 64.1945C59.3603 64.6661 59.3606 64.6671 59.3609 64.6681L59.3616 64.6701L59.3631 64.6742L59.3663 64.683L59.3735 64.7026C59.3787 64.7164 59.3847 64.732 59.3916 64.7492C59.4055 64.7836 59.423 64.8244 59.4446 64.8708C59.4878 64.9634 59.5478 65.0788 59.629 65.209C59.7915 65.4696 60.0399 65.7912 60.4065 66.1038C61.1624 66.7486 62.3128 67.2641 63.9773 67.2703" fill="#3C008A"/>
<path d="M63.9832 74.845V98.556C63.9832 109.417 72.7379 118.253 83.4996 118.253C87.0726 118.253 89.9678 115.331 89.9678 111.725C89.9678 108.119 87.0726 105.197 83.4996 105.197C79.8707 105.197 76.9196 102.218 76.9196 98.556V74.845" fill="#7000FF"/>
<path fill-rule="evenodd" clip-rule="evenodd" d="M63.9833 73.4222C64.7616 73.4222 65.3926 74.059 65.3926 74.8446V98.5556C65.3926 108.631 73.5164 116.83 83.4998 116.83C86.2944 116.83 88.5587 114.545 88.5587 111.724C88.5587 108.904 86.2944 106.619 83.4998 106.619C79.0925 106.619 75.5104 103.004 75.5104 98.5556V74.8446C75.5104 74.059 76.1414 73.4222 76.9197 73.4222C77.698 73.4222 78.329 74.059 78.329 74.8446V98.5556C78.329 101.432 80.6492 103.774 83.4998 103.774C87.8511 103.774 91.3773 107.333 91.3773 111.724C91.3773 116.116 87.8511 119.675 83.4998 119.675C71.9597 119.675 62.574 110.202 62.574 98.5556V74.8446C62.574 74.059 63.2049 73.4222 63.9833 73.4222Z" fill="#3C008A"/>
<path d="M53.0725 73.0314L53.0725 96.7424C53.0725 107.603 61.8273 116.439 72.589 116.439C76.162 116.439 79.0572 113.517 79.0572 109.911C79.0572 106.305 76.162 103.383 72.589 103.383C68.9601 103.383 66.0089 100.405 66.0089 96.7424V73.0314" fill="#7000FF"/>
<path fill-rule="evenodd" clip-rule="evenodd" d="M53.0726 71.6088C53.851 71.6088 54.4819 72.2456 54.4819 73.0311L54.4819 96.7421C54.4819 106.818 62.6058 115.016 72.5891 115.016C75.3838 115.016 77.648 112.731 77.648 109.911C77.648 107.09 75.3838 104.805 72.5891 104.805C68.1819 104.805 64.5998 101.19 64.5998 96.7421V73.0311C64.5998 72.2456 65.2307 71.6088 66.0091 71.6088C66.7874 71.6088 67.4184 72.2456 67.4184 73.0311V96.7421C67.4184 99.619 69.7386 101.961 72.5891 101.961C76.9404 101.961 80.4666 105.519 80.4666 109.911C80.4666 114.302 76.9405 117.861 72.5891 117.861C61.0491 117.861 51.6633 108.389 51.6633 96.7421L51.6633 73.0311C51.6633 72.2456 52.2943 71.6088 53.0726 71.6088Z" fill="#3C008A"/>
<path d="M34.0187 74.2334V98.3528C34.0187 109.4 25.1126 118.388 14.1633 118.388C10.5278 118.388 7.58325 115.416 7.58325 111.747C7.58325 108.078 10.5278 105.107 14.1633 105.107C17.8547 105.107 20.8585 102.075 20.8585 98.3528V74.2334" fill="#7000FF"/>
<path fill-rule="evenodd" clip-rule="evenodd" d="M20.8579 72.8105C21.6363 72.8105 22.2673 73.4473 22.2673 74.2329V98.3523C22.2673 102.86 18.632 106.528 14.1627 106.528C11.3056 106.528 8.99196 108.863 8.99196 111.747C8.99196 114.63 11.3056 116.965 14.1627 116.965C24.3338 116.965 32.6088 108.614 32.6088 98.3523V74.2329H35.4274V98.3523C35.4274 110.185 25.8901 119.81 14.1627 119.81C9.74889 119.81 6.17334 116.201 6.17334 111.747C6.17334 107.292 9.74889 103.684 14.1627 103.684C17.0763 103.684 19.4486 101.289 19.4486 98.3523V74.2329C19.4486 73.4473 20.0796 72.8105 20.8579 72.8105Z" fill="#3C008A"/>
<path d="M39.3993 73.7065V97.826C39.3993 108.873 30.4932 117.861 19.5439 117.861C15.9084 117.861 12.9639 114.89 12.9639 111.221C12.9639 107.551 15.9084 104.58 19.5439 104.58C23.2354 104.58 26.2392 101.548 26.2392 97.826V73.7065" fill="#7000FF"/>
<path fill-rule="evenodd" clip-rule="evenodd" d="M26.2388 72.2837C27.0171 72.2837 27.6481 72.9205 27.6481 73.706V97.8255C27.6481 102.334 24.0129 106.001 19.5436 106.001C16.6864 106.001 14.3728 108.336 14.3728 111.22C14.3728 114.104 16.6864 116.438 19.5436 116.438C29.7146 116.438 37.9896 108.087 37.9896 97.8255V73.706C37.9896 72.9205 38.6206 72.2837 39.3989 72.2837C40.1773 72.2837 40.8082 72.9205 40.8082 73.706V97.8255C40.8082 109.658 31.271 119.283 19.5436 119.283C15.1297 119.283 11.5542 115.675 11.5542 111.22C11.5542 106.765 15.1297 103.157 19.5436 103.157C22.4571 103.157 24.8295 100.762 24.8295 97.8255V73.706C24.8295 72.9205 25.4605 72.2837 26.2388 72.2837Z" fill="#3C008A"/>
<path d="M53.1748 73.7065V97.4176C53.1748 108.279 44.42 117.114 33.6583 117.114C30.0853 117.114 27.1901 114.192 27.1901 110.586C27.1901 106.98 30.0853 104.058 33.6583 104.058C37.2872 104.058 40.2384 101.08 40.2384 97.4176V73.7065" fill="#7000FF"/>
<path fill-rule="evenodd" clip-rule="evenodd" d="M53.173 72.2837C52.3946 72.2837 51.7637 72.9205 51.7637 73.706V97.4171C51.7637 107.493 43.6398 115.691 33.6565 115.691C30.8618 115.691 28.5976 113.406 28.5976 110.586C28.5976 107.765 30.8618 105.48 33.6565 105.48C38.0637 105.48 41.6459 101.865 41.6459 97.4171V73.706C41.6459 72.9205 41.0149 72.2837 40.2365 72.2837C39.4582 72.2837 38.8272 72.9205 38.8272 73.706V97.4171C38.8272 100.294 36.507 102.636 33.6565 102.636C29.3052 102.636 25.779 106.194 25.779 110.586C25.779 114.977 29.3052 118.536 33.6565 118.536C45.1965 118.536 54.5823 109.064 54.5823 97.4171V73.706C54.5823 72.9205 53.9513 72.2837 53.173 72.2837Z" fill="#3C008A"/>
</svg>
