<svg width="114" height="134" viewBox="0 0 114 134" fill="none" xmlns="http://www.w3.org/2000/svg">
<ellipse cx="57.9306" cy="124.343" rx="55.884" ry="9.02382" fill="#CFCFCF"/>
<path d="M44.1435 76.4727V101.165C44.1435 112.476 53.3448 121.677 64.6554 121.677C68.4106 121.677 71.4535 118.634 71.4535 114.879C71.4535 111.124 68.4106 108.081 64.6554 108.081C60.8414 108.081 57.7397 104.979 57.7397 101.165V76.4727" fill="#D4D4D4"/>
<path fill-rule="evenodd" clip-rule="evenodd" d="M44.144 74.9912C44.962 74.9912 45.6252 75.6544 45.6252 76.4724V101.165C45.6252 111.657 54.1633 120.195 64.6558 120.195C67.593 120.195 69.9728 117.816 69.9728 114.879C69.9728 111.941 67.593 109.562 64.6558 109.562C60.0238 109.562 56.259 105.797 56.259 101.165V76.4724C56.259 75.6544 56.9221 74.9912 57.7402 74.9912C58.5582 74.9912 59.2214 75.6544 59.2214 76.4724V101.165C59.2214 104.161 61.6599 106.599 64.6558 106.599C69.2291 106.599 72.9351 110.305 72.9351 114.879C72.9351 119.452 69.2291 123.158 64.6558 123.158C52.5272 123.158 42.6628 113.293 42.6628 101.165V76.4724C42.6628 75.6544 43.3259 74.9912 44.144 74.9912Z" fill="#5F5F5F"/>
<path d="M62.6261 0C45.4592 0 31.523 14.0388 31.523 31.3322V85.9087H93.7328L93.7328 31.3357C93.7328 14.0423 79.7931 0 62.6261 0Z" fill="#D4D4D4"/>
<path fill-rule="evenodd" clip-rule="evenodd" d="M34.4854 31.3322C34.4854 15.6543 47.1157 2.96237 62.6261 2.96237C78.1366 2.96237 90.7704 15.6579 90.7704 31.3357V82.9463H34.4854V31.3322ZM31.523 31.3322C31.523 14.0388 45.4592 0 62.6261 0C79.7931 0 93.7328 14.0423 93.7328 31.3357V85.9087H31.523V31.3322Z" fill="#5F5F5F"/>
<path d="M78.435 26.6697C76.8107 26.6697 75.4939 25.353 75.4939 23.7287C75.4939 22.1044 76.8107 20.7876 78.435 20.7876C80.0593 20.7876 81.3761 22.1044 81.3761 23.7287C81.3761 25.353 80.0593 26.6697 78.435 26.6697Z" fill="#555555"/>
<path d="M71.0111 24.0829C69.7945 24.0829 68.8083 23.0967 68.8083 21.8801C68.8083 20.6635 69.7945 19.6772 71.0111 19.6772C72.2277 19.6772 73.214 20.6635 73.214 21.8801C73.214 23.0967 72.2277 24.0829 71.0111 24.0829Z" fill="#555555"/>
<path d="M74.9862 17.918C74.1284 17.918 73.433 17.2226 73.433 16.3647C73.433 15.5069 74.1284 14.8115 74.9862 14.8115C75.844 14.8115 76.5394 15.5069 76.5394 16.3647C76.5394 17.2226 75.844 17.918 74.9862 17.918Z" fill="#555555"/>
<path fill-rule="evenodd" clip-rule="evenodd" d="M35.3042 29.5796C35.9994 29.9841 36.8937 29.7593 37.3138 29.0691C37.7391 28.3703 37.5174 27.459 36.8186 27.0337L36.0485 28.299C36.8186 27.0337 36.8179 27.0333 36.8172 27.0329L36.8157 27.032L36.8127 27.0302L36.8061 27.0262L36.7909 27.0173C36.7799 27.0108 36.767 27.0034 36.7523 26.9952C36.723 26.9788 36.6865 26.9591 36.6429 26.9369C36.556 26.8928 36.4405 26.8386 36.2989 26.7822C36.0167 26.6699 35.6236 26.5459 35.1419 26.4775C34.1587 26.3379 32.8513 26.4387 31.4447 27.2583M35.3042 29.5796C35.3032 29.5791 35.302 29.5785 35.3007 29.5778C35.2869 29.5708 35.2537 29.5546 35.2032 29.5345C35.1013 29.4939 34.937 29.4405 34.7255 29.4104C34.3225 29.3532 33.7009 29.3721 32.9358 29.818L32.9352 29.8184C31.9761 30.3768 31.6866 30.9181 31.5886 31.1906C31.5342 31.3416 31.5221 31.4568 31.5198 31.5156C31.5192 31.531 31.5193 31.5425 31.5195 31.5494C31.6325 32.3307 31.1098 33.069 30.3267 33.216C29.5227 33.367 28.7486 32.8376 28.5976 32.0336L30.0534 31.7603C28.5976 32.0336 28.5974 32.0325 28.5972 32.0314L28.5968 32.0293L28.596 32.0248L28.5943 32.0152L28.5907 31.9938C28.5882 31.9785 28.5856 31.9613 28.5829 31.9422C28.5777 31.9039 28.5723 31.8579 28.5678 31.8047C28.5589 31.6985 28.5535 31.5628 28.5596 31.4028C28.5718 31.0823 28.6305 30.6617 28.8013 30.1872C29.1536 29.2085 29.9323 28.139 31.4441 27.2587" fill="#5F5F5F"/>
<path fill-rule="evenodd" clip-rule="evenodd" d="M64.3254 31.9684C64.3227 32.7728 64.9645 33.4349 65.7723 33.4536C66.5902 33.4725 67.2685 32.8249 67.2874 32.0071L65.8066 31.9728C67.2874 32.0071 67.2874 32.0062 67.2874 32.0054L67.2875 32.0037L67.2875 32.0002L67.2877 31.9925L67.2878 31.9749C67.2879 31.9621 67.2879 31.9472 67.2876 31.9304C67.2872 31.8968 67.286 31.8553 67.2834 31.8065C67.2782 31.7092 67.2673 31.5821 67.2453 31.4312C67.2015 31.1307 67.1124 30.7282 66.9308 30.2769C66.56 29.3556 65.8191 28.2737 64.406 27.4654M64.3254 31.9684C64.3254 31.9674 64.3253 31.9661 64.3252 31.9645C64.3244 31.9491 64.3218 31.9122 64.3139 31.8585C64.2981 31.7499 64.2623 31.5809 64.1826 31.3828C64.0306 31.0051 63.7035 30.4762 62.9347 30.0366L62.9341 30.0363C61.9709 29.4848 61.3575 29.5049 61.0725 29.5561C60.9144 29.5846 60.8086 29.6317 60.7566 29.6591C60.7429 29.6663 60.7331 29.6721 60.7271 29.6758C60.107 30.1642 59.2063 30.0808 58.6874 29.4761C58.1547 28.8553 58.2261 27.9202 58.8469 27.3874L59.8115 28.5115C58.8469 27.3874 58.8477 27.3867 58.8486 27.386L58.8503 27.3846L58.8537 27.3816L58.8612 27.3754L58.8779 27.3615C58.8899 27.3517 58.9035 27.3408 58.9187 27.329C58.9492 27.3053 58.9864 27.2776 59.0302 27.2472C59.1177 27.1864 59.2325 27.1138 59.3742 27.0391C59.6579 26.8894 60.0514 26.7299 60.5478 26.6406C61.5715 26.4564 62.8871 26.596 64.4053 27.4651" fill="#5F5F5F"/>
<path d="M50.4523 70.085C51.5568 70.085 52.4523 69.1895 52.4523 68.085C52.4523 66.9804 51.5568 66.085 50.4523 66.085L50.4523 70.085ZM42.4615 70.085L50.4523 70.085L50.4523 66.085L42.4615 66.085L42.4615 70.085Z" fill="#5F5F5F"/>
<path d="M46.7965 77.6582V102.351C46.7965 113.661 37.5952 122.862 26.2846 122.862C22.5294 122.862 19.4865 119.82 19.4865 116.064C19.4865 112.309 22.5294 109.266 26.2846 109.266C30.0986 109.266 33.2003 106.165 33.2003 102.351V77.6582" fill="#D4D4D4"/>
<path fill-rule="evenodd" clip-rule="evenodd" d="M46.7964 76.1768C45.9784 76.1768 45.3153 76.8399 45.3153 77.6579V102.35C45.3153 112.843 36.7771 121.381 26.2846 121.381C23.3474 121.381 20.9677 119.001 20.9677 116.064C20.9677 113.127 23.3474 110.747 26.2846 110.747C30.9166 110.747 34.6814 106.982 34.6814 102.35V77.6579C34.6814 76.8399 34.0183 76.1768 33.2002 76.1768C32.3822 76.1768 31.7191 76.8399 31.7191 77.6579V102.35C31.7191 105.346 29.2805 107.785 26.2846 107.785C21.7113 107.785 18.0053 111.491 18.0053 116.064C18.0053 120.637 21.7113 124.343 26.2846 124.343C38.4132 124.343 48.2776 114.479 48.2776 102.35V77.6579C48.2776 76.8399 47.6145 76.1768 46.7964 76.1768Z" fill="#5F5F5F"/>
<path d="M58.2661 75.7705L58.2661 100.463C58.2661 111.773 49.0648 120.975 37.7543 120.975C33.9991 120.975 30.9562 117.932 30.9562 114.177C30.9562 110.421 33.9991 107.379 37.7543 107.379C41.5683 107.379 44.6699 104.277 44.6699 100.463L44.6699 75.7705" fill="#D4D4D4"/>
<path fill-rule="evenodd" clip-rule="evenodd" d="M58.2648 74.2881C57.4468 74.2881 56.7836 74.9512 56.7836 75.7693L56.7836 100.462C56.7836 110.954 48.2455 119.492 37.7529 119.492C34.8158 119.492 32.436 117.113 32.436 114.175C32.436 111.238 34.8157 108.859 37.7529 108.859C42.3849 108.859 46.1498 105.094 46.1498 100.462L46.1498 75.7693C46.1498 74.9512 45.4866 74.2881 44.6686 74.2881C43.8505 74.2881 43.1874 74.9512 43.1874 75.7693L43.1874 100.462C43.1874 103.458 40.7489 105.896 37.7529 105.896C33.1797 105.896 29.4736 109.602 29.4736 114.175C29.4736 118.749 33.1797 122.455 37.7529 122.455C49.8815 122.455 59.746 112.59 59.746 100.462L59.746 75.7693C59.746 74.9512 59.0828 74.2881 58.2648 74.2881Z" fill="#5F5F5F"/>
<path d="M78.2901 77.022V102.14C78.2901 113.644 87.6504 123.004 99.1581 123.004C102.979 123.004 106.074 119.909 106.074 116.089C106.074 112.268 102.979 109.173 99.1581 109.173C95.2784 109.173 92.1214 106.016 92.1214 102.14V77.022" fill="#D4D4D4"/>
<path fill-rule="evenodd" clip-rule="evenodd" d="M92.1227 75.54C91.3047 75.54 90.6415 76.2032 90.6415 77.0212V102.139C90.6415 106.834 94.4622 110.653 99.1594 110.653C102.162 110.653 104.594 113.085 104.594 116.088C104.594 119.091 102.162 121.522 99.1594 121.522C88.4696 121.522 79.7726 112.825 79.7726 102.139V77.0212H76.8102V102.139C76.8102 114.461 86.8339 124.485 99.1594 124.485C103.798 124.485 107.556 120.727 107.556 116.088C107.556 111.449 103.798 107.691 99.1594 107.691C96.0973 107.691 93.6039 105.197 93.6039 102.139V77.0212C93.6039 76.2032 92.9408 75.54 92.1227 75.54Z" fill="#5F5F5F"/>
<path d="M72.6345 76.4727V101.59C72.6345 113.095 81.9949 122.455 93.5025 122.455C97.3234 122.455 100.418 119.36 100.418 115.539C100.418 111.718 97.3234 108.624 93.5025 108.624C89.6228 108.624 86.4658 105.467 86.4658 101.59V76.4727" fill="#D4D4D4"/>
<path fill-rule="evenodd" clip-rule="evenodd" d="M86.4676 74.9912C85.6496 74.9912 84.9864 75.6544 84.9864 76.4724V101.59C84.9864 106.285 88.807 110.105 93.5043 110.105C96.5072 110.105 98.9388 112.536 98.9388 115.539C98.9388 118.542 96.5072 120.973 93.5043 120.973C82.8145 120.973 74.1175 112.276 74.1175 101.59V76.4724C74.1175 75.6544 73.4543 74.9912 72.6363 74.9912C71.8182 74.9912 71.1551 75.6544 71.1551 76.4724V101.59C71.1551 113.912 81.1787 123.936 93.5043 123.936C98.1432 123.936 101.901 120.178 101.901 115.539C101.901 110.9 98.1432 107.142 93.5043 107.142C90.4422 107.142 87.9488 104.648 87.9488 101.59V76.4724C87.9488 75.6544 87.2856 74.9912 86.4676 74.9912Z" fill="#5F5F5F"/>
<path d="M58.1582 76.4727V101.165C58.1582 112.476 67.3595 121.677 78.6701 121.677C82.4253 121.677 85.4682 118.634 85.4682 114.879C85.4682 111.124 82.4253 108.081 78.6701 108.081C74.8561 108.081 71.7544 104.979 71.7544 101.165V76.4727" fill="#D4D4D4"/>
<path fill-rule="evenodd" clip-rule="evenodd" d="M58.1582 74.9912C58.9763 74.9912 59.6394 75.6544 59.6394 76.4724V101.165C59.6394 111.657 68.1776 120.195 78.6701 120.195C81.6073 120.195 83.987 117.816 83.987 114.879C83.987 111.941 81.6073 109.562 78.6701 109.562C74.0381 109.562 70.2733 105.797 70.2733 101.165V76.4724C70.2733 75.6544 70.9364 74.9912 71.7544 74.9912C72.5725 74.9912 73.2356 75.6544 73.2356 76.4724V101.165C73.2356 104.161 75.6742 106.599 78.6701 106.599C83.2434 106.599 86.9494 110.305 86.9494 114.879C86.9494 119.452 83.2434 123.158 78.6701 123.158C66.5415 123.158 56.6771 113.293 56.6771 101.165V76.4724C56.6771 75.6544 57.3402 74.9912 58.1582 74.9912Z" fill="#5F5F5F"/>
<g clip-path="url(#clip0_125_1992)">
<path d="M24.6877 44.501V53.064C24.6877 58.3765 28.9071 62.68 34.1077 62.68C39.3119 62.68 43.5277 58.3728 43.5277 53.064V44.501" fill="#D4D4D4"/>
<path d="M34.1077 63.7841C28.3177 63.7841 23.6095 58.9743 23.6095 53.0675V44.5045C23.6095 43.8954 24.0911 43.4038 24.6877 43.4038C25.2843 43.4038 25.7659 43.8954 25.7659 44.5045V53.0675C25.7659 57.7636 29.5073 61.5828 34.1077 61.5828C38.7081 61.5828 42.4495 57.7636 42.4495 53.0675V44.5045C42.4495 43.8954 42.9311 43.4038 43.5277 43.4038C44.1243 43.4038 44.6059 43.8954 44.6059 44.5045V53.0675C44.6059 58.978 39.8941 63.7841 34.1077 63.7841Z" fill="#5F5F5F"/>
<path d="M24.7129 47.1313C24.7273 47.3588 24.7488 47.5826 24.7812 47.8027C25.4209 52.4805 29.3528 56.0796 34.1113 56.0796C36.7098 56.0796 39.0675 55.001 40.7711 53.262C42.1835 51.8201 43.1503 49.9233 43.4378 47.8027C43.4702 47.5826 43.4918 47.3588 43.5061 47.1313" fill="#D4D4D4"/>
<path d="M34.1113 57.1802C28.9035 57.1802 24.4325 53.2142 23.7137 47.9567C23.6814 47.7256 23.6562 47.4761 23.6383 47.2046C23.5987 46.5993 24.0516 46.0746 24.6446 46.0343C25.2412 46.0049 25.7516 46.4562 25.7911 47.0616C25.8055 47.2743 25.8234 47.4615 25.8486 47.6412C26.42 51.831 29.9746 54.9789 34.1113 54.9789C36.3396 54.9789 38.4313 54.091 40.0091 52.4841C41.303 51.1633 42.1224 49.4903 42.3704 47.6522C42.3992 47.4651 42.4171 47.2743 42.4315 47.0616C42.471 46.4562 42.9922 45.9976 43.578 46.0343C44.171 46.0746 44.6239 46.5956 44.5843 47.2046C44.5664 47.4798 44.5412 47.7293 44.5053 47.9678C44.1926 50.2754 43.1647 52.3777 41.5366 54.0433C39.5527 56.0685 36.9182 57.1838 34.1149 57.1838L34.1113 57.1802Z" fill="#5F5F5F"/>
<path d="M43.5313 44.5008C43.5313 39.1883 39.3119 34.8848 34.1113 34.8848C28.9071 34.8848 24.6913 39.192 24.6913 44.5008" fill="#D4D4D4"/>
<path d="M43.5313 45.6015C42.9347 45.6015 42.4531 45.1098 42.4531 44.5008C42.4531 39.8047 38.7117 35.9855 34.1113 35.9855C29.5109 35.9855 25.7659 39.8047 25.7659 44.5008C25.7659 45.1098 25.2843 45.6015 24.6877 45.6015C24.0911 45.6015 23.6095 45.1098 23.6095 44.5008C23.6095 38.594 28.3213 33.7842 34.1077 33.7842C39.8941 33.7842 44.6059 38.594 44.6059 44.5008C44.6059 45.1098 44.1243 45.6015 43.5277 45.6015H43.5313Z" fill="#5F5F5F"/>
</g>
<path d="M24.6879 44.501V53.064C24.6879 58.3765 28.9073 62.68 34.1079 62.68C39.3121 62.68 43.5279 58.3728 43.5279 53.064V44.501" fill="#D4D4D4"/>
<path d="M34.1079 63.7841C28.3179 63.7841 23.6097 58.9743 23.6097 53.0675V44.5045C23.6097 43.8954 24.0913 43.4038 24.6879 43.4038C25.2845 43.4038 25.7661 43.8954 25.7661 44.5045V53.0675C25.7661 57.7636 29.5075 61.5828 34.1079 61.5828C38.7083 61.5828 42.4497 57.7636 42.4497 53.0675V44.5045C42.4497 43.8954 42.9313 43.4038 43.5279 43.4038C44.1245 43.4038 44.6061 43.8954 44.6061 44.5045V53.0675C44.6061 58.978 39.8943 63.7841 34.1079 63.7841Z" fill="#5F5F5F"/>
<path d="M24.7131 47.1313C24.7274 47.3588 24.749 47.5826 24.7814 47.8027C25.4211 52.4805 29.353 56.0796 34.1115 56.0796C36.71 56.0796 39.0677 55.001 40.7713 53.262C42.1837 51.8201 43.1505 49.9233 43.438 47.8027C43.4704 47.5826 43.492 47.3588 43.5063 47.1313" fill="#D4D4D4"/>
<path d="M34.1115 57.1802C28.9037 57.1802 24.4327 53.2142 23.7139 47.9567C23.6816 47.7256 23.6564 47.4761 23.6385 47.2046C23.5989 46.5993 24.0518 46.0746 24.6448 46.0343C25.2414 46.0049 25.7517 46.4562 25.7913 47.0616C25.8057 47.2743 25.8236 47.4615 25.8488 47.6412C26.4202 51.831 29.9748 54.9789 34.1115 54.9789C36.3398 54.9789 38.4315 54.091 40.0093 52.4841C41.3032 51.1633 42.1226 49.4903 42.3706 47.6522C42.3994 47.4651 42.4173 47.2743 42.4317 47.0616C42.4712 46.4562 42.9924 45.9976 43.5782 46.0343C44.1712 46.0746 44.6241 46.5956 44.5845 47.2046C44.5666 47.4798 44.5414 47.7293 44.5055 47.9678C44.1928 50.2754 43.1649 52.3777 41.5368 54.0433C39.5529 56.0685 36.9184 57.1838 34.1151 57.1838L34.1115 57.1802Z" fill="#5F5F5F"/>
<path d="M43.5315 44.5008C43.5315 39.1883 39.3121 34.8848 34.1115 34.8848C28.9073 34.8848 24.6915 39.192 24.6915 44.5008" fill="#D4D4D4"/>
<path d="M43.5315 45.6015C42.9349 45.6015 42.4533 45.1098 42.4533 44.5008C42.4533 39.8047 38.7119 35.9855 34.1115 35.9855C29.5111 35.9855 25.7661 39.8047 25.7661 44.5008C25.7661 45.1098 25.2845 45.6015 24.6879 45.6015C24.0913 45.6015 23.6097 45.1098 23.6097 44.5008C23.6097 38.594 28.3215 33.7842 34.1079 33.7842C39.8943 33.7842 44.6061 38.594 44.6061 44.5008C44.6061 45.1098 44.1245 45.6015 43.5279 45.6015H43.5315Z" fill="#5F5F5F"/>
<path d="M51.8334 44.501V53.064C51.8334 58.3765 56.0528 62.68 61.2534 62.68C66.4576 62.68 70.6734 58.3728 70.6734 53.064V44.501" fill="#D4D4D4"/>
<path d="M61.2534 63.7841C55.4634 63.7841 50.7552 58.9743 50.7552 53.0675V44.5045C50.7552 43.8954 51.2368 43.4038 51.8334 43.4038C52.43 43.4038 52.9116 43.8954 52.9116 44.5045V53.0675C52.9116 57.7636 56.653 61.5828 61.2534 61.5828C65.8538 61.5828 69.5952 57.7636 69.5952 53.0675V44.5045C69.5952 43.8954 70.0768 43.4038 70.6734 43.4038C71.27 43.4038 71.7516 43.8954 71.7516 44.5045V53.0675C71.7516 58.978 67.0398 63.7841 61.2534 63.7841Z" fill="#5F5F5F"/>
<path d="M51.8586 47.1313C51.873 47.3588 51.8945 47.5826 51.9269 47.8027C52.5666 52.4805 56.4985 56.0796 61.257 56.0796C63.8555 56.0796 66.2132 55.001 67.9168 53.262C69.3292 51.8201 70.296 49.9233 70.5836 47.8027C70.6159 47.5826 70.6375 47.3588 70.6518 47.1313" fill="#D4D4D4"/>
<path d="M61.257 57.1802C56.0492 57.1802 51.5782 53.2142 50.8594 47.9567C50.8271 47.7256 50.8019 47.4761 50.784 47.2046C50.7444 46.5993 51.1973 46.0746 51.7903 46.0343C52.3869 46.0049 52.8973 46.4562 52.9368 47.0616C52.9512 47.2743 52.9691 47.4615 52.9943 47.6412C53.5657 51.831 57.1203 54.9789 61.257 54.9789C63.4853 54.9789 65.577 54.091 67.1548 52.4841C68.4487 51.1633 69.2681 49.4903 69.5161 47.6522C69.5449 47.4651 69.5628 47.2743 69.5772 47.0616C69.6168 46.4562 70.1379 45.9976 70.7237 46.0343C71.3167 46.0746 71.7696 46.5956 71.73 47.2046C71.7121 47.4798 71.6869 47.7293 71.651 47.9678C71.3383 50.2754 70.3104 52.3777 68.6823 54.0433C66.6984 56.0685 64.064 57.1838 61.2606 57.1838L61.257 57.1802Z" fill="#5F5F5F"/>
<path d="M70.677 44.5008C70.677 39.1883 66.4576 34.8848 61.257 34.8848C56.0528 34.8848 51.837 39.192 51.837 44.5008" fill="#D4D4D4"/>
<path d="M70.677 45.6015C70.0804 45.6015 69.5988 45.1098 69.5988 44.5008C69.5988 39.8047 65.8574 35.9855 61.257 35.9855C56.6566 35.9855 52.9116 39.8047 52.9116 44.5008C52.9116 45.1098 52.43 45.6015 51.8334 45.6015C51.2368 45.6015 50.7552 45.1098 50.7552 44.5008C50.7552 38.594 55.467 33.7842 61.2534 33.7842C67.0398 33.7842 71.7516 38.594 71.7516 44.5008C71.7516 45.1098 71.27 45.6015 70.6734 45.6015H70.677Z" fill="#5F5F5F"/>
<path opacity="0.9" d="M3.47522 20.1329C3.71538 19.8009 3.99439 19.4548 4.31225 19.0945C4.6301 18.7272 4.91264 18.3953 5.15986 18.0986L5.09629 18.0138C4.87026 18.0421 4.59478 18.0668 4.26987 18.088C3.95201 18.1092 3.62356 18.1268 3.28451 18.141C2.94547 18.1551 2.6382 18.1622 2.36273 18.1622H0.370832C0.335515 18.028 0.310793 17.8867 0.296666 17.7384C0.282539 17.59 0.275475 17.4523 0.275475 17.3251C0.275475 17.1486 0.289602 16.9578 0.317856 16.753C0.34611 16.5482 0.381427 16.3504 0.423808 16.1597H7.62854C7.75569 16.5058 7.84751 16.7954 7.90402 17.0285C7.96759 17.2616 7.99938 17.4699 7.99938 17.6536C7.99938 17.7878 7.97465 17.9291 7.92521 18.0774C7.87576 18.2257 7.8016 18.367 7.70271 18.5012L4.59832 22.6651C4.35816 22.983 4.08975 23.322 3.79308 23.6823C3.50348 24.0425 3.228 24.3709 2.96666 24.6676L3.03023 24.7524C3.36221 24.7241 3.68713 24.6994 4.00499 24.6782C4.3299 24.657 4.62304 24.6464 4.88439 24.6464H5.78498C6.20172 24.6464 6.59728 24.6252 6.97164 24.5829C7.346 24.5405 7.66739 24.4592 7.9358 24.3392C8.11239 24.7488 8.20068 25.1232 8.20068 25.4623C8.20068 25.8296 8.0912 26.1227 7.87223 26.3417C7.65326 26.5606 7.25418 26.6701 6.67498 26.6701H0.328451C0.208372 26.324 0.123611 26.0521 0.0741664 25.8543C0.0247221 25.6494 0 25.4658 0 25.3033C0 25.155 0.0282539 24.9996 0.0847616 24.8371C0.141269 24.6676 0.24369 24.4875 0.392022 24.2968L3.47522 20.1329Z" fill="#5F5F5F"/>
<path opacity="0.7" d="M16.6138 41.5999C16.6415 41.3306 16.6868 41.0404 16.7497 40.7293C16.8102 40.4142 16.8622 40.1309 16.9056 39.8795L16.8413 39.852C16.7213 39.9428 16.5718 40.048 16.3929 40.1674C16.2181 40.2846 16.036 40.4032 15.8466 40.5232C15.6573 40.6433 15.4838 40.7489 15.3262 40.8399L14.1865 41.4979C14.122 41.4327 14.0612 41.3601 14.0041 41.2799C13.947 41.1997 13.8975 41.1232 13.8555 41.0504C13.7971 40.9494 13.7422 40.8356 13.6907 40.7091C13.6392 40.5826 13.5941 40.4577 13.5554 40.3346L17.6776 37.9546C17.8647 38.1106 18.0129 38.246 18.1223 38.3607C18.2356 38.4731 18.3226 38.5818 18.3833 38.6869C18.4276 38.7637 18.4602 38.8527 18.4809 38.9539C18.5016 39.0551 18.5058 39.1604 18.4936 39.2699L18.0929 42.6778C18.0604 42.939 18.0189 43.2216 17.9681 43.5258C17.9214 43.8275 17.8723 44.1065 17.8208 44.3625L17.8851 44.39C18.0658 44.2642 18.2435 44.1427 18.4184 44.0256C18.5973 43.9061 18.7615 43.8032 18.911 43.7169L19.4263 43.4194C19.6648 43.2817 19.8841 43.139 20.0843 42.991C20.2845 42.8431 20.4415 42.6905 20.5554 42.5331C20.7918 42.7092 20.966 42.8942 21.078 43.0882C21.1993 43.2984 21.2335 43.5022 21.1806 43.6999C21.1276 43.8975 20.9354 44.092 20.604 44.2833L16.9728 46.3798C16.7898 46.2214 16.6514 46.0938 16.5578 45.997C16.4618 45.8961 16.387 45.7992 16.3334 45.7063C16.2844 45.6214 16.2492 45.5232 16.2279 45.4115C16.2042 45.2959 16.2033 45.159 16.2252 45.0009L16.6138 41.5999Z" fill="#5F5F5F"/>
<path opacity="0.8" d="M15.3163 27.512C15.5898 27.2896 15.8987 27.0641 16.243 26.8355C16.589 26.6011 16.8977 26.3881 17.1692 26.1967L17.1352 26.1121C16.9411 26.0852 16.7067 26.0444 16.4319 25.9897C16.1631 25.9365 15.8862 25.8781 15.6013 25.8143C15.3164 25.7505 15.0595 25.688 14.8306 25.6267L13.1754 25.1831C13.1759 25.0638 13.1868 24.9409 13.2081 24.8144C13.2294 24.688 13.2542 24.572 13.2825 24.4664C13.3218 24.3196 13.376 24.1643 13.4451 24.0003C13.5142 23.8364 13.5876 23.6799 13.6653 23.5309L19.6523 25.1351C19.6809 25.451 19.6927 25.7121 19.6878 25.9184C19.6887 26.1263 19.6687 26.3065 19.6279 26.4591C19.598 26.5706 19.546 26.6825 19.4719 26.7948C19.3977 26.907 19.3047 27.0079 19.1926 27.0974L15.6857 29.8663C15.4154 30.077 15.1169 30.299 14.7901 30.5323C14.4692 30.7671 14.1672 30.9787 13.884 31.1671L13.9179 31.2517C14.2001 31.3021 14.4756 31.3539 14.7444 31.4071C15.0192 31.4618 15.2651 31.5183 15.4823 31.5765L16.2307 31.777C16.577 31.8698 16.9104 31.9403 17.2309 31.9884C17.5515 32.0365 17.8366 32.0406 18.0864 32.0006C18.1419 32.3803 18.1319 32.7111 18.0564 32.9928C17.9747 33.2981 17.8184 33.5173 17.5877 33.6505C17.357 33.7837 17.001 33.7858 16.5197 33.6568L11.2458 32.2437C11.2231 31.9293 11.2132 31.6845 11.2161 31.5091C11.2206 31.3279 11.241 31.1698 11.2772 31.0348C11.3102 30.9115 11.3683 30.7887 11.4514 30.6663C11.5361 30.538 11.6613 30.4111 11.827 30.2857L15.3163 27.512Z" fill="#5F5F5F"/>
<defs>
<clipPath id="clip0_125_1992">
<rect width="21" height="30" fill="white" transform="translate(23.6095 33.7842)"/>
</clipPath>
</defs>
</svg>
