<svg width="153" height="153" viewBox="0 0 153 153" fill="none" xmlns="http://www.w3.org/2000/svg">
<path d="M152.447 0.869629H0.316406V153H152.447V0.869629Z" fill="#FEE702"/>
<path d="M27.3018 147.919V60.4065C27.3018 33.2684 49.434 11.1362 76.5721 11.1362C103.71 11.1362 125.842 33.2684 125.842 60.4065V147.919H27.3018Z" fill="#7000FF"/>
<path d="M76.5722 12.7618C102.846 12.7618 124.165 34.1317 124.165 60.355V146.241H28.979V60.4058C28.979 34.1317 50.3489 12.8126 76.5722 12.8126M76.5722 9.50932C48.4686 9.50932 25.6249 32.3022 25.6249 60.4566V149.646H127.469V60.4058C127.469 32.3022 104.676 9.4585 76.5214 9.4585L76.5722 9.50932Z" fill="#3A179D"/>
<path d="M38.0251 114.478C39.5968 114.478 40.871 113.204 40.871 111.632C40.871 110.06 39.5968 108.786 38.0251 108.786C36.4533 108.786 35.1791 110.06 35.1791 111.632C35.1791 113.204 36.4533 114.478 38.0251 114.478Z" fill="#2B147F"/>
<path d="M45.0636 118.264C46.2424 118.264 47.198 117.308 47.198 116.129C47.198 114.95 46.2424 113.995 45.0636 113.995C43.8848 113.995 42.9291 114.95 42.9291 116.129C42.9291 117.308 43.8848 118.264 45.0636 118.264Z" fill="#2B147F"/>
<path d="M38.7874 120.602C39.6154 120.602 40.2866 119.931 40.2866 119.103C40.2866 118.275 39.6154 117.604 38.7874 117.604C37.9594 117.604 37.2882 118.275 37.2882 119.103C37.2882 119.931 37.9594 120.602 38.7874 120.602Z" fill="#2B147F"/>
<path d="M50.2219 142.683V172.006C50.2219 191.039 34.7726 206.539 15.6896 206.539C9.36244 206.539 4.255 201.431 4.255 195.104C4.255 188.777 9.36244 183.67 15.6896 183.67C22.0167 183.67 27.3274 178.435 27.3274 172.032V130.461" fill="#7000FF"/>
<path d="M15.7402 208.243C8.49832 208.243 2.57776 202.348 2.57776 195.08C2.57776 187.813 8.47291 181.918 15.7402 181.918C21.2288 181.918 25.6756 177.471 25.6756 171.982V130.411C25.6756 129.446 26.4379 128.684 27.4035 128.684C28.369 128.684 29.1313 129.446 29.1313 130.411V171.982C29.1313 179.351 23.1346 185.348 15.7656 185.348C10.4041 185.348 6.03354 189.693 6.03354 195.08C6.03354 200.467 10.3787 204.812 15.7656 204.812C33.8576 204.812 48.5701 190.1 48.5701 172.008V142.685C48.5701 141.719 49.3324 140.957 50.298 140.957C51.2636 140.957 52.0259 141.719 52.0259 142.685V172.008C52.0259 191.98 35.7634 208.243 15.791 208.243H15.7402Z" fill="#3A179D"/>
<path d="M103.304 136.409V171.297C103.304 189.973 118.524 205.245 137.252 205.245C143.452 205.245 148.483 200.214 148.483 194.014C148.483 187.814 143.452 182.782 137.252 182.782C131.052 182.782 125.817 177.675 125.817 171.348V130.488" fill="#7000FF"/>
<path d="M137.226 206.948C117.584 206.948 101.576 190.939 101.576 171.297V136.409C101.576 135.444 102.338 134.681 103.304 134.681C104.269 134.681 105.032 135.444 105.032 136.409V171.297C105.032 189.059 119.49 203.517 137.252 203.517C142.486 203.517 146.755 199.248 146.755 194.014C146.755 188.779 142.486 184.511 137.252 184.511C130.01 184.511 124.089 178.615 124.089 171.348V130.489C124.089 129.523 124.851 128.761 125.817 128.761C126.783 128.761 127.545 129.523 127.545 130.489V171.348C127.545 176.71 131.89 181.08 137.277 181.08C144.443 181.08 150.211 186.899 150.211 194.014C150.211 201.129 144.392 206.948 137.277 206.948H137.226Z" fill="#3A179D"/>
<path d="M91.996 136.409V171.297C91.996 189.973 107.217 205.245 125.944 205.245C132.144 205.245 137.175 200.214 137.175 194.014C137.175 187.814 132.144 182.782 125.944 182.782C119.744 182.782 114.509 177.675 114.509 171.348V130.488" fill="#7000FF"/>
<path d="M125.919 206.948C106.277 206.948 90.2681 190.939 90.2681 171.297V136.409C90.2681 135.444 91.0304 134.681 91.996 134.681C92.9616 134.681 93.7239 135.444 93.7239 136.409V171.297C93.7239 189.059 108.182 203.517 125.944 203.517C131.178 203.517 135.447 199.248 135.447 194.014C135.447 188.779 131.178 184.511 125.944 184.511C118.702 184.511 112.781 178.615 112.781 171.348V130.489C112.781 129.523 113.544 128.761 114.509 128.761C115.475 128.761 116.237 129.523 116.237 130.489V171.348C116.237 176.71 120.582 181.08 125.969 181.08C133.135 181.08 138.903 186.899 138.903 194.014C138.903 201.129 133.084 206.948 125.969 206.948H125.919Z" fill="#3A179D"/>
<path d="M62.2915 139.305V172.059C62.2915 191.091 46.8421 206.591 27.7591 206.591C21.432 206.591 16.3246 201.484 16.3246 195.157C16.3246 188.829 21.432 183.722 27.7591 183.722C34.0863 183.722 39.397 178.487 39.397 172.084V130.513" fill="#7000FF"/>
<path d="M27.7591 208.243C20.5172 208.243 14.5967 202.348 14.5967 195.08C14.5967 187.813 20.4918 181.918 27.7591 181.918C33.2477 181.918 37.6945 177.471 37.6945 171.982V130.411C37.6945 129.446 38.4568 128.684 39.4224 128.684C40.388 128.684 41.1503 129.446 41.1503 130.411V171.982C41.1503 179.351 35.1535 185.348 27.7845 185.348C22.423 185.348 18.0525 189.693 18.0525 195.08C18.0525 200.467 22.3976 204.812 27.7845 204.812C45.8765 204.812 60.589 190.1 60.589 172.008V139.254C60.589 138.289 61.3513 137.526 62.3169 137.526C63.2825 137.526 64.0448 138.289 64.0448 139.254V172.008C64.0448 191.98 47.7823 208.243 27.8099 208.243H27.7591Z" fill="#3A179D"/>
<path d="M94.5878 61.2968C94.2829 61.2968 94.0542 61.2206 93.7493 61.0935C92.9107 60.6361 92.6058 59.5943 93.0886 58.7558C93.1648 58.5779 95.1722 55.0205 100.305 55.0205H100.356C103.151 55.0205 104.955 55.9099 106.048 56.8755C107.064 57.714 106.759 59.3402 105.514 59.7976C104.93 60.0009 104.294 59.8738 103.837 59.4673C103.253 59.0099 102.211 58.4509 100.33 58.4509C97.2813 58.4509 96.1378 60.382 96.087 60.4075C95.7821 60.9919 95.1976 61.2968 94.5878 61.2968Z" fill="#3A179D"/>
<path d="M58.8867 61.5756C59.1916 61.5756 59.4203 61.4994 59.7252 61.3723C60.5637 60.915 60.8687 59.8731 60.3859 59.0346C60.3096 58.8567 58.3022 55.2993 53.1694 55.2993H53.1186C50.3235 55.2993 48.5193 56.1887 47.4267 57.1543C46.4103 57.9928 46.7152 59.619 47.9603 60.0764C48.5447 60.2797 49.18 60.1527 49.6374 59.7461C50.2218 59.2887 51.2636 58.7297 53.144 58.7297C56.1678 58.7297 57.3366 60.6609 57.3366 60.6863C57.6416 61.2707 58.226 61.5756 58.8358 61.5756H58.8867Z" fill="#3A179D"/>
<path d="M76.5976 118.011C72.2016 118.011 68.6442 114.454 68.6442 110.058C68.6442 109.092 69.4065 108.33 70.3721 108.33C71.3377 108.33 72.1 109.092 72.1 110.058C72.1 112.574 74.1582 114.632 76.6738 114.632C79.1894 114.632 81.2476 112.574 81.2476 110.058C81.2476 109.092 82.01 108.33 82.9755 108.33C83.9411 108.33 84.7034 109.092 84.7034 110.058C84.7034 114.454 81.146 118.011 76.7501 118.011H76.6738H76.5976Z" fill="#3A179D"/>
<path d="M37.8471 81.6499V95.0156C37.8471 103.299 44.5554 110.008 52.8391 110.008C61.1228 110.008 67.8311 103.299 67.8311 95.0156V81.6499" fill="white"/>
<path d="M52.8646 111.683C43.6407 111.683 36.1447 104.187 36.1447 94.9632V81.5975C36.1447 80.6319 36.907 79.8696 37.8726 79.8696C38.8382 79.8696 39.6005 80.6319 39.6005 81.5975V94.9632C39.6005 102.307 45.5465 108.253 52.89 108.253C60.2335 108.253 66.1795 102.307 66.1795 94.9632V81.5975C66.1795 80.6319 66.9418 79.8696 67.9074 79.8696C68.873 79.8696 69.6353 80.6319 69.6353 81.5975V94.9632C69.6353 104.187 62.1393 111.683 52.9154 111.683H52.8646Z" fill="#3A179D"/>
<path d="M67.8056 81.6482C67.8056 73.3645 61.0973 66.6562 52.8136 66.6562C44.5299 66.6562 37.8217 73.3645 37.8217 81.6482" fill="white"/>
<path d="M67.8056 83.3516C66.84 83.3516 66.0777 82.5893 66.0777 81.6237C66.0777 74.2801 60.1318 68.3342 52.7882 68.3342C45.4447 68.3342 39.4987 74.2801 39.4987 81.6237C39.4987 82.5893 38.7364 83.3516 37.7709 83.3516C36.8053 83.3516 36.043 82.5893 36.043 81.6237C36.043 72.3998 43.539 64.9038 52.7628 64.9038C61.9867 64.9038 69.4827 72.3998 69.4827 81.6237C69.4827 82.5893 68.7204 83.3516 67.7548 83.3516H67.8056Z" fill="#3A179D"/>
<path d="M54.4906 82.0557H54.0078C51.0748 82.0557 48.6971 84.4334 48.6971 87.3664V96.8189C48.6971 99.752 51.0748 102.13 54.0078 102.13H54.4906C57.4236 102.13 59.8013 99.752 59.8013 96.8189V87.3664C59.8013 84.4334 57.4236 82.0557 54.4906 82.0557Z" fill="#1C1C1C"/>
<path d="M56.5743 87.1109C58.1881 87.1109 59.4964 85.8026 59.4964 84.1888C59.4964 82.5749 58.1881 81.2666 56.5743 81.2666C54.9604 81.2666 53.6521 82.5749 53.6521 84.1888C53.6521 85.8026 54.9604 87.1109 56.5743 87.1109Z" fill="white"/>
<path d="M100.991 66.6582H99.6447C91.7297 66.6582 85.3134 73.0746 85.3134 80.9895V95.6512C85.3134 103.566 91.7297 109.982 99.6447 109.982H100.991C108.906 109.982 115.323 103.566 115.323 95.6512V80.9895C115.323 73.0746 108.906 66.6582 100.991 66.6582Z" fill="white"/>
<path d="M100.28 111.684C91.0559 111.684 83.5599 104.188 83.5599 94.9645V81.5988C83.5599 72.3749 91.0559 64.8789 100.28 64.8789C109.504 64.8789 117 72.3749 117 81.5988V94.9645C117 104.188 109.504 111.684 100.28 111.684ZM100.28 68.3601C92.9363 68.3601 86.9903 74.3061 86.9903 81.6496V95.0153C86.9903 102.359 92.9363 108.305 100.28 108.305C107.623 108.305 113.569 102.359 113.569 95.0153V81.6496C113.569 74.3061 107.623 68.3601 100.28 68.3601Z" fill="#3A179D"/>
<path d="M101.957 82.0557H101.474C98.541 82.0557 96.1633 84.4334 96.1633 87.3664V96.8189C96.1633 99.752 98.541 102.13 101.474 102.13H101.957C104.89 102.13 107.267 99.752 107.267 96.8189V87.3664C107.267 84.4334 104.89 82.0557 101.957 82.0557Z" fill="#1C1C1C"/>
<path d="M104.041 87.1129C105.654 87.1129 106.963 85.8046 106.963 84.1907C106.963 82.5769 105.654 81.2686 104.041 81.2686C102.427 81.2686 101.118 82.5769 101.118 84.1907C101.118 85.8046 102.427 87.1129 104.041 87.1129Z" fill="white"/>
<path d="M150.211 101.215L76.3433 143.854L2.50146 101.215H4.30558C32.2567 101.215 60.6144 118.266 74.5138 140.728C74.5138 140.804 74.59 140.855 74.6408 140.931C75.022 141.465 75.6572 141.846 76.3687 141.846C77.0802 141.846 77.7154 141.465 78.0966 140.931C78.1474 140.855 78.1728 140.804 78.2236 140.728C92.123 118.316 120.506 101.215 148.432 101.215C149.016 101.215 149.652 101.215 150.236 101.215H150.211Z" fill="#F7F7F7"/>
<path d="M156.208 102.586C156.208 103.603 155.674 104.518 154.836 105.026L150.237 107.669L77.7669 149.468C76.8776 149.976 75.8358 149.976 74.9718 149.468L2.50214 107.694L-2.09709 105.051C-2.98645 104.543 -3.46924 103.628 -3.46924 102.612C-3.46924 100.427 -1.13151 99.1053 0.774253 100.173L2.52755 101.214L74.9972 143.014C75.8866 143.522 76.9284 143.522 77.7924 143.014L150.262 101.214L152.015 100.173C153.896 99.0799 156.259 100.427 156.259 102.612L156.208 102.561V102.586Z" fill="#B23838"/>
<path d="M156.208 102.689V247.73C156.208 248.188 155.953 248.645 155.547 248.899L136.642 259.8L77.0296 294.231C76.623 294.485 76.1148 294.485 75.6828 294.231L16.0707 259.8L-2.83445 248.899C-3.24102 248.645 -3.49512 248.213 -3.49512 247.73V102.689L2.50167 106.171L72.4303 146.522C74.8697 147.945 77.8681 147.945 80.3583 146.522L150.287 106.171L156.284 102.689H156.233H156.208Z" fill="#FF4C4C"/>
</svg>
