<svg width="306" height="166" viewBox="0 0 306 166" fill="none" xmlns="http://www.w3.org/2000/svg">
<ellipse cx="242.097" cy="156.829" rx="63.0969" ry="8.67133" fill="#CDCDCD"/>
<path d="M223.239 96.3229V127.308C223.239 141.5 234.785 153.046 248.978 153.046C253.69 153.046 257.509 149.228 257.509 144.516C257.509 139.804 253.69 135.986 248.978 135.986C244.192 135.986 240.3 132.093 240.3 127.308V96.3229" fill="#7000FF"/>
<path fill-rule="evenodd" clip-rule="evenodd" d="M223.24 94.4634C224.267 94.4634 225.099 95.2955 225.099 96.322V127.307C225.099 140.473 235.813 151.187 248.979 151.187C252.665 151.187 255.651 148.201 255.651 144.515C255.651 140.829 252.665 137.843 248.979 137.843C243.167 137.843 238.443 133.119 238.443 127.307V96.322C238.443 95.2955 239.275 94.4634 240.301 94.4634C241.328 94.4634 242.16 95.2955 242.16 96.322V127.307C242.16 131.066 245.22 134.126 248.979 134.126C254.718 134.126 259.368 138.776 259.368 144.515C259.368 150.254 254.718 154.904 248.979 154.904C233.76 154.904 221.382 142.526 221.382 127.307V96.322C221.382 95.2955 222.214 94.4634 223.24 94.4634Z" fill="#3C008A"/>
<path d="M216.595 116.214L187.38 105.892C173.998 101.164 166.957 86.4316 171.685 73.0494C173.255 68.6063 178.127 66.2781 182.57 67.8478C187.013 69.4175 189.341 74.2896 187.771 78.7326C186.177 83.2452 188.55 88.2115 193.063 89.8057L222.278 100.127" fill="#7000FF"/>
<path fill-rule="evenodd" clip-rule="evenodd" d="M224.03 100.749C224.372 99.7807 223.864 98.7189 222.897 98.377L193.682 88.0554C190.137 86.8031 188.271 82.8986 189.523 79.3539C191.435 73.9431 188.599 68.0091 183.188 66.0974C177.778 64.1858 171.844 67.0215 169.932 72.4324C164.862 86.7824 172.41 102.577 186.76 107.647L215.975 117.968L217.213 114.463L187.998 104.142C175.584 99.756 169.051 86.085 173.437 73.6706C174.665 70.1955 178.475 68.3746 181.95 69.6024C185.425 70.8302 187.246 74.6405 186.018 78.1156C184.082 83.5961 186.963 89.6242 192.443 91.5604L221.658 101.882C222.626 102.224 223.688 101.716 224.03 100.749Z" fill="#3C008A"/>
<path d="M246.43 0.362305C224.889 0.362305 207.401 17.9786 207.401 39.6788V108.163H285.464L285.464 39.6832C285.464 17.983 267.972 0.362305 246.43 0.362305Z" fill="#7000FF"/>
<path d="M266.269 33.8283C264.231 33.8283 262.579 32.176 262.579 30.1378C262.579 28.0996 264.231 26.4473 266.269 26.4473C268.308 26.4473 269.96 28.0996 269.96 30.1378C269.96 32.176 268.308 33.8283 266.269 33.8283Z" fill="#FEE702"/>
<path d="M256.953 30.5834C255.426 30.5834 254.188 29.3459 254.188 27.8192C254.188 26.2926 255.426 25.0551 256.953 25.0551C258.479 25.0551 259.717 26.2926 259.717 27.8192C259.717 29.3459 258.479 30.5834 256.953 30.5834Z" fill="#FEE702"/>
<path d="M261.941 22.8463C260.864 22.8463 259.992 21.9737 259.992 20.8973C259.992 19.8208 260.864 18.9482 261.941 18.9482C263.017 18.9482 263.89 19.8208 263.89 20.8973C263.89 21.9737 263.017 22.8463 261.941 22.8463Z" fill="#FEE702"/>
<path fill-rule="evenodd" clip-rule="evenodd" d="M211.119 39.6788C211.119 20.0058 226.968 4.07957 246.43 4.07957C265.893 4.07957 281.747 20.0102 281.747 39.6832V104.446H211.119V39.6788ZM207.401 39.6788C207.401 17.9786 224.889 0.362305 246.43 0.362305C267.972 0.362305 285.464 17.983 285.464 39.6832V108.163H207.401V39.6788Z" fill="#3C008A"/>
<path d="M210.578 79.5552C216.467 79.5552 221.262 74.7656 221.262 68.8767V58.4926C221.262 52.6036 216.472 47.8091 210.578 47.8091C204.684 47.8091 199.9 52.5987 199.9 58.4926V68.8767C199.9 74.7656 204.689 79.5552 210.578 79.5552Z" fill="white"/>
<path fill-rule="evenodd" clip-rule="evenodd" d="M210.578 82.0337C217.834 82.0337 223.739 76.136 223.739 68.877V58.4928C223.739 51.236 217.841 45.3312 210.578 45.3312C203.314 45.3312 197.421 51.2318 197.421 58.4928V68.877C197.421 76.1345 203.32 82.0337 210.578 82.0337ZM221.261 68.877C221.261 74.7659 216.467 79.5555 210.578 79.5555C204.689 79.5555 199.899 74.7659 199.899 68.877V58.4928C199.899 52.599 204.684 47.8094 210.578 47.8094C216.471 47.8094 221.261 52.6039 221.261 58.4928V68.877Z" fill="#3C008A"/>
<path d="M210.577 48.7909C205.228 48.7909 200.88 53.1437 200.88 58.4879V68.8721C200.88 74.2212 205.233 78.5691 210.582 78.5691C215.931 78.5691 220.284 74.2163 220.284 68.8721V58.4879C220.284 53.1388 215.931 48.7909 210.582 48.7909M210.582 46.8279C217.021 46.8279 222.247 52.0494 222.247 58.4879V68.8721C222.247 75.3155 217.026 80.5321 210.582 80.5321C204.144 80.5321 198.922 75.3106 198.922 68.8721V58.4879C198.922 52.0445 204.144 46.8279 210.582 46.8279Z" fill="#3C008A"/>
<path d="M206.258 56.8937C206.258 54.5087 208.192 52.5752 210.577 52.5752C212.962 52.5752 214.896 54.5087 214.896 56.8937V63.8819C214.896 66.267 212.962 68.2005 210.577 68.2005C208.192 68.2005 206.258 66.267 206.258 63.8819V56.8937Z" fill="#1C1C1C"/>
<path d="M206.494 54.2587C206.494 52.9975 207.519 51.9718 208.781 51.9718C210.042 51.9718 211.067 52.9975 211.067 54.2587C211.067 55.5199 210.042 56.5455 208.781 56.5455C207.519 56.5455 206.494 55.5199 206.494 54.2587Z" fill="white"/>
<path d="M242.811 79.5552C248.7 79.5552 253.494 74.7656 253.494 68.8767V58.4926C253.494 52.6036 248.704 47.8091 242.811 47.8091C236.917 47.8091 232.132 52.5987 232.132 58.4926V68.8767C232.132 74.7656 236.922 79.5552 242.811 79.5552Z" fill="white"/>
<path fill-rule="evenodd" clip-rule="evenodd" d="M242.808 82.0337C250.064 82.0337 255.97 76.136 255.97 68.877V58.4928C255.97 51.236 250.071 45.3312 242.808 45.3312C235.544 45.3312 229.651 51.2318 229.651 58.4928V68.877C229.651 76.1345 235.551 82.0337 242.808 82.0337ZM253.492 68.877C253.492 74.7659 248.697 79.5555 242.808 79.5555C236.919 79.5555 232.13 74.7659 232.13 68.877V58.4928C232.13 52.599 236.914 47.8094 242.808 47.8094C248.702 47.8094 253.492 52.6039 253.492 58.4928V68.877Z" fill="#3C008A"/>
<path d="M242.809 48.7909C237.46 48.7909 233.112 53.1437 233.112 58.4879V68.8721C233.112 74.2212 237.464 78.5691 242.814 78.5691C248.163 78.5691 252.516 74.2163 252.516 68.8721V58.4879C252.516 53.1388 248.163 48.7909 242.814 48.7909M242.814 46.8279C249.252 46.8279 254.479 52.0494 254.479 58.4879V68.8721C254.479 75.3155 249.257 80.5321 242.814 80.5321C236.375 80.5321 231.153 75.3106 231.153 68.8721V58.4879C231.153 52.0445 236.375 46.8279 242.814 46.8279Z" fill="#3C008A"/>
<path d="M238.489 56.8937C238.489 54.5087 240.422 52.5752 242.807 52.5752C245.193 52.5752 247.126 54.5087 247.126 56.8937V63.8819C247.126 66.267 245.193 68.2005 242.807 68.2005C240.422 68.2005 238.489 66.267 238.489 63.8819V56.8937Z" fill="#1C1C1C"/>
<path d="M238.725 54.2587C238.725 52.9975 239.751 51.9718 241.012 51.9718C242.273 51.9718 243.299 52.9975 243.299 54.2587C243.299 55.5199 242.273 56.5455 241.012 56.5455C239.751 56.5455 238.725 55.5199 238.725 54.2587Z" fill="white"/>
<path fill-rule="evenodd" clip-rule="evenodd" d="M214.543 36.112C215.415 36.6196 216.538 36.3375 217.065 35.4714C217.598 34.5945 217.32 33.4511 216.443 32.9174L215.477 34.5051C216.443 32.9174 216.442 32.9169 216.442 32.9163L216.44 32.9152L216.436 32.9129L216.428 32.908L216.409 32.8967C216.395 32.8886 216.379 32.8794 216.36 32.8691C216.323 32.8485 216.277 32.8237 216.223 32.7959C216.114 32.7405 215.969 32.6725 215.791 32.6018C215.437 32.4608 214.944 32.3052 214.339 32.2194C213.106 32.0443 211.465 32.1707 209.7 33.1992M214.543 36.112C214.542 36.1114 214.54 36.1106 214.539 36.1097C214.521 36.1009 214.48 36.0807 214.416 36.0555C214.288 36.0045 214.082 35.9374 213.817 35.8998C213.311 35.828 212.531 35.8516 211.571 36.4112L211.57 36.4117C210.367 37.1124 210.004 37.7916 209.88 38.1335C209.812 38.3231 209.797 38.4676 209.794 38.5414C209.793 38.5607 209.794 38.5751 209.794 38.5838C209.936 39.5642 209.28 40.4906 208.297 40.6751C207.288 40.8645 206.317 40.2002 206.127 39.1914L207.954 38.8484C206.127 39.1914 206.127 39.19 206.127 39.1887L206.126 39.1859L206.125 39.1803L206.123 39.1683L206.119 39.1414C206.116 39.1223 206.112 39.1006 206.109 39.0766C206.102 39.0286 206.096 38.9709 206.09 38.9041C206.079 38.7709 206.072 38.6006 206.08 38.3998C206.095 37.9976 206.169 37.4699 206.383 36.8744C206.825 35.6463 207.802 34.3043 209.699 33.1997" fill="#3C008A"/>
<path fill-rule="evenodd" clip-rule="evenodd" d="M244.136 40.4788C244.133 41.4881 244.938 42.3189 245.952 42.3424C246.978 42.3661 247.829 41.5535 247.853 40.5272L245.995 40.4842C247.853 40.5272 247.853 40.5262 247.853 40.5252L247.853 40.523L247.853 40.5186L247.853 40.509L247.853 40.4869C247.853 40.4708 247.853 40.4522 247.853 40.4311C247.852 40.3889 247.851 40.3368 247.848 40.2756C247.841 40.1534 247.828 39.9939 247.8 39.8047C247.745 39.4275 247.633 38.9225 247.405 38.3561C246.94 37.2001 246.01 35.8425 244.237 34.8283M244.136 40.4788C244.136 40.4774 244.136 40.4758 244.136 40.4739C244.135 40.4545 244.131 40.4082 244.122 40.3408C244.102 40.2046 244.057 39.9925 243.957 39.7438C243.766 39.27 243.356 38.6063 242.391 38.0547L242.39 38.0542C241.181 37.3623 240.412 37.3874 240.054 37.4518C239.856 37.4874 239.723 37.5465 239.658 37.581C239.641 37.59 239.628 37.5973 239.621 37.6019C238.843 38.2148 237.712 38.1101 237.061 37.3513C236.393 36.5723 236.482 35.3989 237.261 34.7304L238.472 36.1409C237.261 34.7304 237.262 34.7295 237.263 34.7286L237.266 34.7268L237.27 34.7231L237.279 34.7152L237.3 34.6979C237.315 34.6856 237.332 34.6719 237.352 34.6571C237.39 34.6273 237.436 34.5926 237.491 34.5544C237.601 34.4781 237.745 34.3871 237.923 34.2933C238.279 34.1055 238.773 33.9053 239.396 33.7933C240.68 33.5621 242.331 33.7373 244.236 34.8278" fill="#3C008A"/>
<path fill-rule="evenodd" clip-rule="evenodd" d="M223.839 82.9683C223.338 82.0925 222.225 81.7756 221.335 82.2622C220.435 82.7547 220.104 83.8841 220.596 84.7847L222.227 83.8928C220.596 84.7847 220.597 84.7856 220.597 84.7865L220.598 84.7884L220.601 84.7922L220.605 84.8006L220.616 84.8199C220.624 84.8339 220.633 84.85 220.644 84.8681C220.666 84.9043 220.693 84.9487 220.727 85.0001C220.793 85.1026 220.885 85.234 221.003 85.3841C221.24 85.6832 221.589 86.0646 222.07 86.4412C223.05 87.2097 224.534 87.9205 226.577 87.9123M223.839 82.9683C223.84 82.9694 223.841 82.9708 223.842 82.9724C223.853 82.9887 223.879 83.0271 223.921 83.0806C224.006 83.1886 224.151 83.3498 224.362 83.5151C224.764 83.8301 225.452 84.1996 226.563 84.195L226.564 84.195C227.956 84.19 228.611 83.7833 228.888 83.5488C229.042 83.4187 229.127 83.3012 229.167 83.2387C229.177 83.2223 229.184 83.2098 229.188 83.2021C229.556 82.2823 230.587 81.8078 231.53 82.1394C232.499 82.4798 233.008 83.5408 232.667 84.5092L230.914 83.8928C232.667 84.5092 232.667 84.5105 232.666 84.5118L232.665 84.5144L232.663 84.5198L232.659 84.5313L232.65 84.5568C232.643 84.575 232.635 84.5953 232.626 84.6178C232.608 84.6627 232.585 84.7161 232.556 84.7766C232.499 84.8976 232.42 85.0485 232.313 85.2186C232.098 85.5592 231.771 85.9794 231.287 86.388C230.291 87.2305 228.773 87.9041 226.578 87.9123" fill="#3C008A"/>
<path d="M226.57 97.8108V128.795C226.57 142.988 215.024 154.534 200.831 154.534C196.119 154.534 192.301 150.716 192.301 146.004C192.301 141.292 196.119 137.473 200.831 137.473C205.617 137.473 209.509 133.581 209.509 128.795V97.8108" fill="#7000FF"/>
<path fill-rule="evenodd" clip-rule="evenodd" d="M226.569 95.9512C225.543 95.9512 224.71 96.7833 224.71 97.8098V128.794C224.71 141.961 213.997 152.675 200.83 152.675C197.145 152.675 194.158 149.689 194.158 146.003C194.158 142.317 197.145 139.331 200.83 139.331C206.643 139.331 211.367 134.607 211.367 128.794V97.8098C211.367 96.7833 210.535 95.9512 209.508 95.9512C208.482 95.9512 207.65 96.7833 207.65 97.8098V128.794C207.65 132.554 204.59 135.614 200.83 135.614C195.092 135.614 190.441 140.264 190.441 146.003C190.441 151.742 195.092 156.392 200.83 156.392C216.05 156.392 228.428 144.014 228.428 128.794V97.8098C228.428 96.7833 227.596 95.9512 226.569 95.9512Z" fill="#3C008A"/>
<path d="M240.959 95.4407V126.425C240.959 140.618 229.413 152.164 215.22 152.164C210.508 152.164 206.69 148.346 206.69 143.634C206.69 138.922 210.508 135.103 215.22 135.103C220.006 135.103 223.898 131.211 223.898 126.425V95.4407" fill="#7000FF"/>
<path fill-rule="evenodd" clip-rule="evenodd" d="M240.959 93.5814C239.932 93.5814 239.1 94.4136 239.1 95.4401V126.425C239.1 139.591 228.386 150.305 215.22 150.305C211.534 150.305 208.548 147.319 208.548 143.633C208.548 139.947 211.534 136.961 215.22 136.961C221.032 136.961 225.757 132.237 225.757 126.425V95.4401C225.757 94.4136 224.924 93.5814 223.898 93.5814C222.871 93.5814 222.039 94.4136 222.039 95.4401V126.425C222.039 130.184 218.979 133.244 215.22 133.244C209.481 133.244 204.831 137.895 204.831 143.633C204.831 149.372 209.481 154.022 215.22 154.022C230.439 154.022 242.817 141.644 242.817 126.425V95.4401C242.817 94.4136 241.985 93.5814 240.959 93.5814Z" fill="#3C008A"/>
<path d="M266.087 97.0116V128.53C266.087 142.966 277.833 154.711 292.273 154.711C297.068 154.711 300.951 150.828 300.951 146.033C300.951 141.239 297.068 137.355 292.273 137.355C287.405 137.355 283.443 133.394 283.443 128.53V97.0116" fill="#7000FF"/>
<path fill-rule="evenodd" clip-rule="evenodd" d="M283.444 95.1521C282.418 95.1521 281.585 95.9842 281.585 97.0107V128.529C281.585 134.42 286.38 139.213 292.274 139.213C296.042 139.213 299.093 142.264 299.093 146.033C299.093 149.801 296.042 152.852 292.274 152.852C278.86 152.852 267.947 141.938 267.947 128.529V97.0107H264.23V128.529C264.23 143.992 276.808 156.569 292.274 156.569C298.095 156.569 302.811 151.854 302.811 146.033C302.811 140.211 298.095 135.496 292.274 135.496C288.432 135.496 285.303 132.366 285.303 128.529V97.0107C285.303 95.9842 284.471 95.1521 283.444 95.1521Z" fill="#3C008A"/>
<path d="M258.992 96.3229V127.841C258.992 142.277 270.737 154.023 285.178 154.023C289.972 154.023 293.855 150.139 293.855 145.345C293.855 140.55 289.972 136.667 285.178 136.667C280.309 136.667 276.348 132.705 276.348 127.841V96.3229" fill="#7000FF"/>
<path fill-rule="evenodd" clip-rule="evenodd" d="M276.347 94.4634C275.321 94.4634 274.489 95.2955 274.489 96.322V127.84C274.489 133.731 279.283 138.525 285.177 138.525C288.945 138.525 291.997 141.576 291.997 145.344C291.997 149.112 288.945 152.163 285.177 152.163C271.763 152.163 260.85 141.249 260.85 127.84V96.322C260.85 95.2955 260.018 94.4634 258.992 94.4634C257.965 94.4634 257.133 95.2955 257.133 96.322V127.84C257.133 143.303 269.711 155.88 285.177 155.88C290.998 155.88 295.714 151.165 295.714 145.344C295.714 139.523 290.998 134.807 285.177 134.807C281.335 134.807 278.206 131.677 278.206 127.84V96.322C278.206 95.2955 277.374 94.4634 276.347 94.4634Z" fill="#3C008A"/>
<path d="M240.824 96.3229V127.308C240.824 141.5 252.37 153.046 266.563 153.046C271.275 153.046 275.094 149.228 275.094 144.516C275.094 139.804 271.275 135.986 266.563 135.986C261.777 135.986 257.885 132.093 257.885 127.308V96.3229" fill="#7000FF"/>
<path fill-rule="evenodd" clip-rule="evenodd" d="M240.826 94.4634C241.853 94.4634 242.685 95.2955 242.685 96.322V127.307C242.685 140.473 253.399 151.187 266.565 151.187C270.251 151.187 273.237 148.201 273.237 144.515C273.237 140.829 270.251 137.843 266.565 137.843C260.753 137.843 256.029 133.119 256.029 127.307V96.322C256.029 95.2955 256.861 94.4634 257.887 94.4634C258.914 94.4634 259.746 95.2955 259.746 96.322V127.307C259.746 131.066 262.806 134.126 266.565 134.126C272.304 134.126 276.954 138.776 276.954 144.515C276.954 150.254 272.304 154.904 266.565 154.904C251.346 154.904 238.968 142.526 238.968 127.307V96.322C238.968 95.2955 239.8 94.4634 240.826 94.4634Z" fill="#3C008A"/>
<rect x="170.219" y="42.9758" width="8.52068" height="8.52068" transform="rotate(-45 170.219 42.9758)" fill="white" stroke="#CDCDCD" stroke-width="2"/>
<rect x="1" y="13.0237" width="177" height="60" rx="15" fill="white"/>
<rect x="1" y="13.0237" width="177" height="60" rx="15" stroke="#CDCDCD" stroke-width="2"/>
<path d="M174.58 43.002L174.904 36.8501L181.056 43.002L174.58 49.4784L174.58 43.002Z" fill="white"/>
</svg>
