<svg width="92" height="110" viewBox="0 0 92 110" fill="none" xmlns="http://www.w3.org/2000/svg">
<ellipse cx="36.6552" cy="5.74219" rx="36.6552" ry="5.74219" transform="matrix(-1 0 0 1 82.0029 98.3765)" fill="#CFCFCF"/>
<path d="M54.3906 73.6567V89.3694C54.3906 96.5667 48.3553 102.422 40.9366 102.422C38.4735 102.422 36.4776 100.486 36.4776 98.096C36.4776 95.7064 38.4735 93.7701 40.9366 93.7701C43.4382 93.7701 45.4727 91.7964 45.4727 89.3694V73.6567" fill="#FF4C4C"/>
<path fill-rule="evenodd" clip-rule="evenodd" d="M54.3898 72.7139C53.8532 72.7139 53.4183 73.1359 53.4183 73.6564V89.3691C53.4183 96.0459 47.818 101.479 40.9357 101.479C39.0092 101.479 37.4483 99.9647 37.4483 98.0956C37.4483 96.2266 39.0092 94.7123 40.9357 94.7123C43.974 94.7123 46.4434 92.3166 46.4434 89.3691V73.6564C46.4434 73.1359 46.0084 72.7139 45.4718 72.7139C44.9353 72.7139 44.5003 73.1359 44.5003 73.6564V89.3691C44.5003 91.2755 42.9008 92.8272 40.9357 92.8272C37.9361 92.8272 35.5052 95.1855 35.5052 98.0956C35.5052 101.006 37.9361 103.364 40.9357 103.364C48.8911 103.364 55.3613 97.0869 55.3613 89.3691V73.6564C55.3613 73.1359 54.9264 72.7139 54.3898 72.7139Z" fill="#7A0000"/>
<path d="M57.7588 83.7437L73.0867 78.4416C80.1078 76.013 83.8441 68.5584 81.4159 61.8236C80.6097 59.5876 78.0676 58.4291 75.7365 59.2354C73.4054 60.0418 72.1698 62.507 72.976 64.743C73.7948 67.014 72.5353 69.5269 70.1678 70.3459L54.8399 75.6479" fill="#FF4C4C"/>
<path fill-rule="evenodd" clip-rule="evenodd" d="M53.9184 75.968C53.7428 75.4808 54.0121 74.9434 54.52 74.7677L69.8498 69.4647C71.7098 68.8213 72.7001 66.8453 72.0568 65.0611C71.0749 62.3374 72.58 59.3344 75.4192 58.3522C78.2584 57.37 81.3549 58.7813 82.3369 61.5049C84.9411 68.7282 80.935 76.7215 73.4051 79.3263L58.0753 84.6293L57.4393 82.865L72.7691 77.562C79.2832 75.3086 82.7507 68.39 80.4978 62.1411C79.8671 60.3918 77.8787 59.4857 76.0552 60.1165C74.2317 60.7473 73.2653 62.6756 73.8959 64.4248C74.8905 67.1835 73.3615 70.2342 70.4858 71.229L55.156 76.532C54.6482 76.7077 54.0941 76.4551 53.9184 75.968Z" fill="#7A0000"/>
<path d="M42.2676 24.9941C53.5277 24.9941 62.6686 33.9275 62.6686 44.932V79.661H21.8643L21.8643 44.9342C21.8643 33.9298 31.0075 24.9941 42.2676 24.9941Z" fill="#FF4C4C"/>
<path fill-rule="evenodd" clip-rule="evenodd" d="M60.7256 44.932C60.7256 34.9556 52.4411 26.8792 42.2676 26.8792C32.094 26.8792 23.8073 34.9578 23.8073 44.9342V77.7759H60.7256V44.932ZM62.6686 44.932C62.6686 33.9275 53.5277 24.9941 42.2676 24.9941C31.0075 24.9941 21.8643 33.9298 21.8643 44.9342V79.661H62.6686V44.932Z" fill="#7A0000"/>
<path d="M61.0092 65.1535C57.931 65.1535 55.4248 62.7246 55.4248 59.7383V54.4724C55.4248 51.4861 57.9284 49.0547 61.0092 49.0547C64.09 49.0547 66.5911 51.4836 66.5911 54.4724V59.7383C66.5911 62.7246 64.0874 65.1535 61.0092 65.1535Z" fill="white"/>
<path fill-rule="evenodd" clip-rule="evenodd" d="M61.0092 66.4106C57.2163 66.4106 54.1294 63.4198 54.1294 59.7387V54.4728C54.1294 50.7927 57.2126 47.7983 61.0092 47.7983C64.8061 47.7983 67.8864 50.7906 67.8864 54.4728V59.7387C67.8864 63.419 64.8028 66.4106 61.0092 66.4106ZM55.4248 59.7387C55.4248 62.725 57.931 65.1539 61.0092 65.1539C64.0874 65.1539 66.591 62.725 66.591 59.7387V54.4728C66.591 51.4839 64.09 49.055 61.0092 49.055C57.9284 49.055 55.4248 51.4864 55.4248 54.4728V59.7387Z" fill="#7A0000"/>
<path d="M61.0097 49.5521C63.8057 49.5521 66.0785 51.7595 66.0785 54.4696V59.7355C66.0785 62.4481 63.8032 64.653 61.0071 64.653C58.2111 64.653 55.9357 62.4456 55.9357 59.7355V54.4696C55.9357 51.757 58.2111 49.5521 61.0071 49.5521M61.0071 48.5566C57.6416 48.5566 54.9097 51.2045 54.9097 54.4696V59.7355C54.9097 63.003 57.639 65.6484 61.0071 65.6484C64.3726 65.6484 67.102 63.0005 67.102 59.7355V54.4696C67.102 51.202 64.3726 48.5566 61.0071 48.5566Z" fill="#7A0000"/>
<path d="M62.3594 54.1138C62.3594 52.9043 61.3488 51.9238 60.1021 51.9238C58.8554 51.9238 57.8447 52.9043 57.8447 54.1138V57.6576C57.8447 58.8671 58.8554 59.8476 60.1021 59.8476C61.3488 59.8476 62.3594 58.8671 62.3594 57.6576V54.1138Z" fill="#1C1C1C"/>
<path d="M62.2369 52.7779C62.2369 52.1383 61.7008 51.6182 61.0416 51.6182C60.3823 51.6182 59.8462 52.1383 59.8462 52.7779C59.8462 53.4174 60.3823 53.9376 61.0416 53.9376C61.7008 53.9376 62.2369 53.4174 62.2369 52.7779Z" fill="white"/>
<path d="M44.1601 65.1535C41.0819 65.1535 38.5757 62.7246 38.5757 59.7383V54.4724C38.5757 51.4861 41.0793 49.0547 44.1601 49.0547C47.2409 49.0547 49.7419 51.4836 49.7419 54.4724V59.7383C49.7419 62.7246 47.2383 65.1535 44.1601 65.1535Z" fill="white"/>
<path fill-rule="evenodd" clip-rule="evenodd" d="M44.1615 66.4106C40.3687 66.4106 37.2817 63.4198 37.2817 59.7387V54.4728C37.2817 50.7927 40.3649 47.7983 44.1615 47.7983C47.9585 47.7983 51.0387 50.7906 51.0387 54.4728V59.7387C51.0387 63.419 47.9552 66.4106 44.1615 66.4106ZM38.5771 59.7387C38.5771 62.725 41.0833 65.1539 44.1615 65.1539C47.2397 65.1539 49.7434 62.725 49.7434 59.7387V54.4728C49.7434 51.4839 47.2423 49.055 44.1615 49.055C41.0807 49.055 38.5771 51.4864 38.5771 54.4728V59.7387Z" fill="#7A0000"/>
<path d="M44.161 49.5521C46.9571 49.5521 49.2298 51.7595 49.2298 54.4696V59.7355C49.2298 62.4481 46.9545 64.653 44.1585 64.653C41.3624 64.653 39.0871 62.4456 39.0871 59.7355V54.4696C39.0871 51.757 41.3624 49.5521 44.1585 49.5521M44.1585 48.5566C40.793 48.5566 38.061 51.2045 38.061 54.4696V59.7355C38.061 63.003 40.7904 65.6484 44.1585 65.6484C47.524 65.6484 50.2534 63.0005 50.2534 59.7355V54.4696C50.2534 51.202 47.524 48.5566 44.1585 48.5566Z" fill="#7A0000"/>
<path d="M45.5118 54.1137C45.5118 52.9042 44.5011 51.9237 43.2544 51.9237C42.0077 51.9237 40.9971 52.9042 40.9971 54.1137V57.6575C40.9971 58.867 42.0077 59.8474 43.2544 59.8474C44.5011 59.8474 45.5118 58.867 45.5118 57.6575V54.1137Z" fill="#1C1C1C"/>
<path d="M45.3888 52.7777C45.3888 52.1382 44.8527 51.618 44.1934 51.618C43.5342 51.618 42.998 52.1382 42.998 52.7777C42.998 53.4173 43.5342 53.9374 44.1934 53.9374C44.8527 53.9374 45.3888 53.4173 45.3888 52.7777Z" fill="white"/>
<path fill-rule="evenodd" clip-rule="evenodd" d="M59.2686 40.5262C59.0063 40.9704 58.4247 41.131 57.9596 40.8843C57.4889 40.6345 57.316 40.0618 57.5734 39.6051L58.4258 40.0574C57.5734 39.6051 57.5737 39.6047 57.574 39.6042L57.5745 39.6033L57.5756 39.6013L57.578 39.597L57.5837 39.5872C57.5879 39.5802 57.5928 39.572 57.5984 39.5628C57.6097 39.5444 57.624 39.5219 57.6415 39.4959C57.6764 39.4439 57.7242 39.3773 57.7862 39.3012C57.9096 39.1495 58.0922 38.956 58.3434 38.7651C58.8562 38.3754 59.6319 38.0149 60.6997 38.0191M59.2686 40.5262C59.269 40.5257 59.2695 40.525 59.27 40.5242C59.2755 40.5159 59.2891 40.4964 59.3112 40.4693C59.3558 40.4145 59.4316 40.3328 59.5418 40.2489C59.752 40.0892 60.1113 39.9018 60.6921 39.9041L60.6926 39.9041C61.4206 39.9067 61.7625 40.1129 61.9076 40.2319C61.988 40.2978 62.0327 40.3574 62.0532 40.3891C62.0586 40.3974 62.0623 40.4038 62.0645 40.4077C62.2565 40.8741 62.7955 41.1147 63.2886 40.9466C63.7948 40.7739 64.0609 40.2359 63.883 39.7448L62.9664 40.0574C63.883 39.7448 63.8828 39.7442 63.8825 39.7435L63.882 39.7422L63.881 39.7394L63.8789 39.7336L63.8739 39.7207C63.8703 39.7115 63.8662 39.7011 63.8614 39.6897C63.8518 39.667 63.8398 39.6399 63.8249 39.6092C63.7951 39.5478 63.7537 39.4713 63.6977 39.3851C63.5857 39.2123 63.4144 38.9992 63.1618 38.7921C62.6407 38.3648 61.8476 38.0232 60.7001 38.0191" fill="#7A0000"/>
<path fill-rule="evenodd" clip-rule="evenodd" d="M42.752 44.7811C42.4897 45.2253 41.908 45.3859 41.443 45.1392C40.9723 44.8894 40.7994 44.3167 41.0568 43.86L41.9092 44.3123C41.0568 43.86 41.0571 43.8595 41.0574 43.8591L41.0579 43.8581L41.059 43.8562L41.0614 43.8519L41.0671 43.8421C41.0713 43.8351 41.0762 43.8269 41.0818 43.8177C41.0931 43.7993 41.1074 43.7768 41.1249 43.7508C41.1598 43.6988 41.2076 43.6322 41.2696 43.556C41.393 43.4044 41.5756 43.2109 41.8268 43.02C42.3396 42.6303 43.1153 42.2698 44.1831 42.274M42.752 44.7811C42.7524 44.7805 42.7529 44.7798 42.7534 44.779C42.7589 44.7708 42.7725 44.7513 42.7946 44.7242C42.8392 44.6694 42.915 44.5876 43.0252 44.5038C43.2354 44.3441 43.5947 44.1567 44.1755 44.159L44.176 44.159C44.904 44.1616 45.2459 44.3678 45.391 44.4867C45.4714 44.5527 45.5161 44.6123 45.5366 44.644C45.542 44.6523 45.5457 44.6586 45.5479 44.6625C45.7399 45.129 46.2789 45.3696 46.772 45.2015C47.2782 45.0288 47.5443 44.4908 47.3664 43.9997L46.4498 44.3123C47.3664 43.9997 47.3662 43.999 47.3659 43.9984L47.3654 43.9971L47.3644 43.9943L47.3623 43.9885L47.3573 43.9755C47.3537 43.9663 47.3496 43.956 47.3448 43.9446C47.3352 43.9219 47.3232 43.8948 47.3083 43.8641C47.2785 43.8027 47.2371 43.7262 47.1811 43.64C47.0691 43.4672 46.8979 43.2541 46.6452 43.047C46.1241 42.6197 45.331 42.2781 44.1835 42.274" fill="#7A0000"/>
<path d="M52.6494 74.4111V90.1238C52.6494 97.3211 58.6847 103.176 66.1035 103.176C68.5666 103.176 70.5625 101.24 70.5625 98.8504C70.5625 96.4608 68.5666 94.5245 66.1035 94.5245C63.6018 94.5245 61.5674 92.5508 61.5674 90.1238V74.4111" fill="#FF4C4C"/>
<path fill-rule="evenodd" clip-rule="evenodd" d="M52.6498 73.4683C53.1863 73.4683 53.6213 73.8902 53.6213 74.4108V90.1235C53.6213 96.8002 59.2216 102.233 66.1038 102.233C68.0304 102.233 69.5913 100.719 69.5913 98.85C69.5913 96.981 68.0304 95.4667 66.1038 95.4667C63.0656 95.4667 60.5962 93.071 60.5962 90.1235V74.4108C60.5962 73.8902 61.0312 73.4683 61.5677 73.4683C62.1043 73.4683 62.5393 73.8902 62.5393 74.4108V90.1235C62.5393 92.0299 64.1387 93.5816 66.1038 93.5816C69.1035 93.5816 71.5343 95.9399 71.5343 98.85C71.5343 101.76 69.1035 104.118 66.1038 104.118C58.1485 104.118 51.6782 97.8413 51.6782 90.1235V74.4108C51.6782 73.8902 52.1132 73.4683 52.6498 73.4683Z" fill="#7A0000"/>
<path d="M45.1284 73.2095L45.1284 88.9221C45.1284 96.1195 51.1637 101.975 58.5825 101.975C61.0456 101.975 63.0415 100.038 63.0415 97.6487C63.0415 95.2591 61.0456 93.3228 58.5825 93.3228C56.0808 93.3228 54.0464 91.3491 54.0464 88.9221V73.2095" fill="#FF4C4C"/>
<path fill-rule="evenodd" clip-rule="evenodd" d="M45.1283 72.2666C45.6648 72.2666 46.0998 72.6886 46.0998 73.2091L46.0998 88.9218C46.0998 95.5986 51.7001 101.032 58.5823 101.032C60.5089 101.032 62.0698 99.5174 62.0698 97.6484C62.0698 95.7793 60.5089 94.265 58.5823 94.265C55.5441 94.265 53.0747 91.8693 53.0747 88.9218L53.0747 73.2091C53.0747 72.6886 53.5097 72.2666 54.0462 72.2666C54.5828 72.2666 55.0178 72.6886 55.0178 73.2091L55.0178 88.9218C55.0178 90.8282 56.6172 92.38 58.5823 92.38C61.582 92.38 64.0128 94.7382 64.0128 97.6484C64.0128 100.558 61.582 102.917 58.5823 102.917C50.627 102.917 44.1567 96.6397 44.1567 88.9218L44.1567 73.2091C44.1567 72.6886 44.5917 72.2666 45.1283 72.2666Z" fill="#7A0000"/>
<path d="M31.9928 74.0059V89.9892C31.9928 97.3097 25.8532 103.266 18.3051 103.266C15.7989 103.266 13.769 101.297 13.769 98.8654C13.769 96.434 15.7989 94.4647 18.3051 94.4647C20.8499 94.4647 22.9206 92.4558 22.9206 89.9892V74.0059" fill="#FF4C4C"/>
<path fill-rule="evenodd" clip-rule="evenodd" d="M22.9205 73.063C23.457 73.063 23.892 73.485 23.892 74.0055V89.9888C23.892 92.9763 21.386 95.4069 18.305 95.4069C16.3354 95.4069 14.7404 96.9542 14.7404 98.865C14.7404 100.776 16.3354 102.323 18.305 102.323C25.3166 102.323 31.0211 96.7887 31.0211 89.9888V74.0055H32.9642V89.9888C32.9642 97.83 26.3895 104.208 18.305 104.208C15.2622 104.208 12.7974 101.817 12.7974 98.865C12.7974 95.9131 15.2622 93.5218 18.305 93.5218C20.3135 93.5218 21.9489 91.9346 21.9489 89.9888V74.0055C21.9489 73.485 22.3839 73.063 22.9205 73.063Z" fill="#7A0000"/>
<path d="M35.7023 73.6567V89.64C35.7023 96.9606 29.5627 102.917 22.0146 102.917C19.5084 102.917 17.4785 100.948 17.4785 98.5162C17.4785 96.0849 19.5084 94.1155 22.0146 94.1155C24.5594 94.1155 26.6301 92.1066 26.6301 89.64V73.6567" fill="#FF4C4C"/>
<path fill-rule="evenodd" clip-rule="evenodd" d="M26.6299 72.7139C27.1665 72.7139 27.6015 73.1359 27.6015 73.6564V89.6397C27.6015 92.6271 25.0955 95.0577 22.0145 95.0577C20.0448 95.0577 18.4499 96.6051 18.4499 98.5159C18.4499 100.427 20.0448 101.974 22.0145 101.974C29.0261 101.974 34.7306 96.4396 34.7306 89.6397V73.6564C34.7306 73.1359 35.1656 72.7139 35.7021 72.7139C36.2387 72.7139 36.6737 73.1359 36.6737 73.6564V89.6397C36.6737 97.4809 30.099 103.859 22.0145 103.859C18.9717 103.859 16.5068 101.468 16.5068 98.5159C16.5068 95.564 18.9717 93.1727 22.0145 93.1727C24.023 93.1727 25.6584 91.5854 25.6584 89.6397V73.6564C25.6584 73.1359 26.0934 72.7139 26.6299 72.7139Z" fill="#7A0000"/>
<path d="M45.1987 73.6567V89.3694C45.1987 96.5667 39.1635 102.422 31.7447 102.422C29.2816 102.422 27.2857 100.486 27.2857 98.096C27.2857 95.7064 29.2816 93.7701 31.7447 93.7701C34.2463 93.7701 36.2808 91.7964 36.2808 89.3694V73.6567" fill="#FF4C4C"/>
<path fill-rule="evenodd" clip-rule="evenodd" d="M45.1974 72.7139C44.6608 72.7139 44.2259 73.1359 44.2259 73.6564V89.3691C44.2259 96.0459 38.6256 101.479 31.7433 101.479C29.8168 101.479 28.2559 99.9647 28.2559 98.0956C28.2559 96.2266 29.8168 94.7123 31.7433 94.7123C34.7816 94.7123 37.251 92.3166 37.251 89.3691V73.6564C37.251 73.1359 36.816 72.7139 36.2794 72.7139C35.7429 72.7139 35.3079 73.1359 35.3079 73.6564V89.3691C35.3079 91.2755 33.7084 92.8272 31.7433 92.8272C28.7437 92.8272 26.3128 95.1855 26.3128 98.0956C26.3128 101.006 28.7437 103.364 31.7433 103.364C39.6987 103.364 46.1689 97.0869 46.1689 89.3691V73.6564C46.1689 73.1359 45.734 72.7139 45.1974 72.7139Z" fill="#7A0000"/>
<path d="M19.5501 13.3743H23.629L23.3818 21.4826L23.0851 25.4873H20.094L19.7973 21.4579L19.5501 13.3743ZM21.6019 31.173C20.9592 31.173 20.4071 30.9506 19.9456 30.5056C19.5007 30.0441 19.2782 29.4921 19.2782 28.8493C19.2782 28.2066 19.5007 27.6627 19.9456 27.2178C20.4071 26.7563 20.9592 26.5256 21.6019 26.5256C22.2446 26.5256 22.7885 26.7563 23.2335 27.2178C23.6949 27.6627 23.9256 28.2066 23.9256 28.8493C23.9256 29.4921 23.6949 30.0441 23.2335 30.5056C22.7885 30.9506 22.2446 31.173 21.6019 31.173Z" fill="#FF4C4C"/>
<ellipse cx="52.6499" cy="67.4963" rx="1.90425" ry="1.84741" fill="#7A0000"/>
</svg>
