<svg width="154" height="166" viewBox="0 0 154 166" fill="none" xmlns="http://www.w3.org/2000/svg">
<ellipse cx="90.0969" cy="156.829" rx="63.0969" ry="8.67133" fill="#CDCDCD"/>
<path d="M71.2383 96.3228V127.307C71.2383 141.5 82.7843 153.046 96.9771 153.046C101.689 153.046 105.508 149.228 105.508 144.516C105.508 139.804 101.689 135.985 96.9771 135.985C92.1912 135.985 88.2992 132.093 88.2992 127.307V96.3228" fill="#7000FF"/>
<path fill-rule="evenodd" clip-rule="evenodd" d="M71.2405 94.4634C72.267 94.4634 73.0991 95.2955 73.0991 96.322V127.307C73.0991 140.473 83.813 151.187 96.9793 151.187C100.665 151.187 103.651 148.201 103.651 144.515C103.651 140.829 100.665 137.843 96.9793 137.843C91.1669 137.843 86.4427 133.119 86.4427 127.307V96.322C86.4427 95.2955 87.2749 94.4634 88.3014 94.4634C89.3278 94.4634 90.16 95.2955 90.16 96.322V127.307C90.16 131.066 93.2199 134.126 96.9793 134.126C102.718 134.126 107.368 138.776 107.368 144.515C107.368 150.254 102.718 154.904 96.9793 154.904C81.76 154.904 69.3818 142.526 69.3818 127.307V96.322C69.3818 95.2955 70.214 94.4634 71.2405 94.4634Z" fill="#3C008A"/>
<path d="M64.5942 116.214L35.3792 105.892C21.997 101.164 14.9566 86.4314 19.6845 73.0492C21.2542 68.6062 26.1264 66.278 30.5694 67.8476C35.0124 69.4173 37.3407 74.2895 35.771 78.7325C34.1767 83.2451 36.55 88.2114 41.0625 89.8056L70.2775 100.127" fill="#7000FF"/>
<path fill-rule="evenodd" clip-rule="evenodd" d="M72.03 100.749C72.3719 99.7808 71.8645 98.719 70.8966 98.3771L41.6816 88.0555C38.1369 86.8032 36.2711 82.8987 37.5234 79.354C39.435 73.9432 36.5994 68.0092 31.1885 66.0976C25.7776 64.1859 19.8436 67.0216 17.932 72.4325C12.8622 86.7826 20.41 102.577 34.76 107.647L63.9751 117.969L65.2133 114.464L35.9983 104.142C23.584 99.7561 17.051 86.0851 21.437 73.6708C22.6647 70.1956 26.4751 68.3748 29.9502 69.6025C33.4253 70.8303 35.2462 74.6406 34.0184 78.1158C32.0822 83.5962 34.9629 89.6243 40.4433 91.5605L69.6583 101.882C70.6262 102.224 71.688 101.717 72.03 100.749Z" fill="#3C008A"/>
<path d="M94.4302 0.362305C72.8886 0.362305 55.4011 17.9786 55.4011 39.6788V108.163H133.464L133.464 39.6832C133.464 17.983 115.972 0.362305 94.4302 0.362305Z" fill="#7000FF"/>
<path d="M114.268 33.8283C112.23 33.8283 110.578 32.176 110.578 30.1378C110.578 28.0996 112.23 26.4473 114.268 26.4473C116.307 26.4473 117.959 28.0996 117.959 30.1378C117.959 32.176 116.307 33.8283 114.268 33.8283Z" fill="#FEE702"/>
<path d="M104.952 30.5836C103.425 30.5836 102.187 29.346 102.187 27.8194C102.187 26.2927 103.425 25.0552 104.952 25.0552C106.478 25.0552 107.716 26.2927 107.716 27.8194C107.716 29.346 106.478 30.5836 104.952 30.5836Z" fill="#FEE702"/>
<path d="M109.94 22.8463C108.863 22.8463 107.991 21.9737 107.991 20.8973C107.991 19.8208 108.863 18.9482 109.94 18.9482C111.016 18.9482 111.889 19.8208 111.889 20.8973C111.889 21.9737 111.016 22.8463 109.94 22.8463Z" fill="#FEE702"/>
<path fill-rule="evenodd" clip-rule="evenodd" d="M59.1184 39.6788C59.1184 20.0058 74.9673 4.07957 94.4302 4.07957C113.893 4.07957 129.746 20.0102 129.746 39.6832V104.446H59.1184V39.6788ZM55.4011 39.6788C55.4011 17.9786 72.8886 0.362305 94.4302 0.362305C115.972 0.362305 133.464 17.983 133.464 39.6832V108.163H55.4011V39.6788Z" fill="#3C008A"/>
<path d="M58.577 79.555C64.4659 79.555 69.2605 74.7653 69.2605 68.8764V58.4923C69.2605 52.6034 64.4709 47.8088 58.577 47.8088C52.6832 47.8088 47.8984 52.5985 47.8984 58.4923V68.8764C47.8984 74.7653 52.6881 79.555 58.577 79.555Z" fill="white"/>
<path fill-rule="evenodd" clip-rule="evenodd" d="M58.5766 82.0336C65.8327 82.0336 71.7383 76.1359 71.7383 68.8768V58.4927C71.7383 51.2359 65.8399 45.3311 58.5766 45.3311C51.3127 45.3311 45.4199 51.2317 45.4199 58.4927V68.8768C45.4199 76.1344 51.3191 82.0336 58.5766 82.0336ZM69.2601 68.8768C69.2601 74.7657 64.4656 79.5554 58.5766 79.5554C52.6877 79.5554 47.8981 74.7657 47.8981 68.8768V58.4927C47.8981 52.5989 52.6828 47.8092 58.5766 47.8092C64.4705 47.8092 69.2601 52.6038 69.2601 58.4927V68.8768Z" fill="#3C008A"/>
<path d="M58.5767 48.7906C53.2276 48.7906 48.8796 53.1435 48.8796 58.4877V68.8718C48.8796 74.2209 53.2325 78.5689 58.5816 78.5689C63.9307 78.5689 68.2836 74.216 68.2836 68.8718V58.4877C68.2836 53.1386 63.9307 48.7906 58.5816 48.7906M58.5816 46.8276C65.0202 46.8276 70.2466 52.0491 70.2466 58.4877V68.8718C70.2466 75.3153 65.0251 80.5319 58.5816 80.5319C52.1431 80.5319 46.9216 75.3104 46.9216 68.8718V58.4877C46.9216 52.0442 52.1431 46.8276 58.5816 46.8276Z" fill="#3C008A"/>
<path d="M54.2575 56.8937C54.2575 54.5087 56.1909 52.5752 58.576 52.5752C60.9611 52.5752 62.8945 54.5087 62.8945 56.8937V63.8819C62.8945 66.267 60.9611 68.2005 58.576 68.2005C56.1909 68.2005 54.2575 66.267 54.2575 63.8819V56.8937Z" fill="#1C1C1C"/>
<path d="M54.4929 54.2588C54.4929 52.9976 55.5186 51.9719 56.7798 51.9719C58.041 51.9719 59.0667 52.9976 59.0667 54.2588C59.0667 55.52 58.041 56.5457 56.7798 56.5457C55.5186 56.5457 54.4929 55.52 54.4929 54.2588Z" fill="white"/>
<path d="M90.8102 79.555C96.6991 79.555 101.494 74.7653 101.494 68.8764V58.4923C101.494 52.6034 96.704 47.8088 90.8102 47.8088C84.9164 47.8088 80.1316 52.5985 80.1316 58.4923V68.8764C80.1316 74.7653 84.9213 79.555 90.8102 79.555Z" fill="white"/>
<path fill-rule="evenodd" clip-rule="evenodd" d="M90.8078 82.0336C98.0639 82.0336 103.969 76.1359 103.969 68.8768V58.4927C103.969 51.2359 98.0711 45.3311 90.8078 45.3311C83.5439 45.3311 77.6511 51.2317 77.6511 58.4927V68.8768C77.6511 76.1344 83.5503 82.0336 90.8078 82.0336ZM101.491 68.8768C101.491 74.7657 96.6968 79.5554 90.8078 79.5554C84.9189 79.5554 80.1293 74.7657 80.1293 68.8768V58.4927C80.1293 52.5989 84.914 47.8092 90.8078 47.8092C96.7017 47.8092 101.491 52.6038 101.491 58.4927V68.8768Z" fill="#3C008A"/>
<path d="M90.8084 48.7906C85.4593 48.7906 81.1113 53.1435 81.1113 58.4877V68.8718C81.1113 74.2209 85.4642 78.5689 90.8133 78.5689C96.1624 78.5689 100.515 74.216 100.515 68.8718V58.4877C100.515 53.1386 96.1624 48.7906 90.8133 48.7906M90.8133 46.8276C97.2519 46.8276 102.478 52.0491 102.478 58.4877V68.8718C102.478 75.3153 97.2568 80.5319 90.8133 80.5319C84.3748 80.5319 79.1533 75.3104 79.1533 68.8718V58.4877C79.1533 52.0442 84.3748 46.8276 90.8133 46.8276Z" fill="#3C008A"/>
<path d="M86.4882 56.8937C86.4882 54.5087 88.4216 52.5752 90.8067 52.5752C93.1918 52.5752 95.1252 54.5087 95.1252 56.8937V63.8819C95.1252 66.267 93.1918 68.2005 90.8067 68.2005C88.4216 68.2005 86.4882 66.267 86.4882 63.8819V56.8937Z" fill="#1C1C1C"/>
<path d="M86.7246 54.2588C86.7246 52.9976 87.7503 51.9719 89.0115 51.9719C90.2727 51.9719 91.2983 52.9976 91.2983 54.2588C91.2983 55.52 90.2727 56.5457 89.0115 56.5457C87.7503 56.5457 86.7246 55.52 86.7246 54.2588Z" fill="white"/>
<path fill-rule="evenodd" clip-rule="evenodd" d="M62.5424 36.1121C63.4149 36.6197 64.537 36.3377 65.0642 35.4715C65.5979 34.5946 65.3196 33.4512 64.4428 32.9175L63.4765 34.5052C64.4428 32.9175 64.4419 32.917 64.441 32.9164L64.4392 32.9153L64.4354 32.913L64.4272 32.9081L64.4081 32.8968C64.3942 32.8887 64.3781 32.8795 64.3597 32.8692C64.3229 32.8486 64.277 32.8238 64.2224 32.7961C64.1133 32.7406 63.9683 32.6727 63.7906 32.6019C63.4365 32.461 62.9433 32.3053 62.3388 32.2195C61.1051 32.0444 59.4645 32.1708 57.6995 33.1993M62.5424 36.1121C62.5412 36.1115 62.5398 36.1107 62.5381 36.1099C62.5208 36.1011 62.4791 36.0808 62.4158 36.0556C62.2879 36.0047 62.0817 35.9375 61.8163 35.8999C61.3106 35.8281 60.5306 35.8518 59.5706 36.4113L59.5698 36.4118C58.3662 37.1125 58.0031 37.7917 57.88 38.1336C57.8118 38.3232 57.7966 38.4677 57.7937 38.5415C57.793 38.5609 57.7931 38.5752 57.7934 38.5839C57.9351 39.5643 57.2793 40.4908 56.2966 40.6752C55.2877 40.8647 54.3163 40.2003 54.1269 39.1915L55.9536 38.8485C54.1269 39.1915 54.1267 39.1901 54.1264 39.1888L54.1259 39.1861L54.1249 39.1804L54.1227 39.1684L54.1182 39.1415C54.1151 39.1224 54.1118 39.1008 54.1085 39.0767C54.1018 39.0287 54.0951 38.971 54.0895 38.9043C54.0783 38.771 54.0715 38.6007 54.0792 38.3999C54.0945 37.9977 54.1681 37.47 54.3825 36.8745C54.8246 35.6465 55.8017 34.3044 57.6987 33.1998" fill="#3C008A"/>
<path fill-rule="evenodd" clip-rule="evenodd" d="M92.1352 40.4787C92.1319 41.488 92.9372 42.3188 93.9509 42.3423C94.9771 42.366 95.8282 41.5533 95.852 40.5271L93.9938 40.4841C95.852 40.5271 95.852 40.5261 95.852 40.525L95.8521 40.5229L95.8522 40.5185L95.8523 40.5089L95.8525 40.4867C95.8526 40.4707 95.8526 40.452 95.8523 40.431C95.8517 40.3888 95.8502 40.3367 95.8469 40.2755C95.8404 40.1533 95.8268 39.9938 95.7992 39.8045C95.7442 39.4274 95.6324 38.9224 95.4045 38.356C94.9393 37.2 94.0095 35.8424 92.2363 34.8282M92.1352 40.4787C92.1352 40.4773 92.1351 40.4757 92.135 40.4738C92.1339 40.4544 92.1306 40.4081 92.1208 40.3407C92.101 40.2045 92.056 39.9923 91.956 39.7437C91.7653 39.2699 91.3548 38.6062 90.3902 38.0546L90.3894 38.0541C89.1808 37.3622 88.4109 37.3873 88.0533 37.4516C87.855 37.4873 87.7223 37.5464 87.6569 37.5809C87.6398 37.5899 87.6275 37.5972 87.62 37.6018C86.8419 38.2147 85.7116 38.11 85.0605 37.3512C84.392 36.5722 84.4816 35.3988 85.2606 34.7303L86.471 36.1408C85.2606 34.7303 85.2617 34.7294 85.2627 34.7285L85.2648 34.7267L85.2692 34.723L85.2785 34.7151L85.2995 34.6977C85.3145 34.6855 85.3316 34.6718 85.3508 34.6569C85.389 34.6272 85.4357 34.5925 85.4907 34.5543C85.6005 34.478 85.7445 34.3869 85.9223 34.2932C86.2782 34.1054 86.772 33.9052 87.3949 33.7931C88.6795 33.562 90.3303 33.7372 92.2355 34.8277" fill="#3C008A"/>
<path fill-rule="evenodd" clip-rule="evenodd" d="M71.8385 82.9683C71.3368 82.0925 70.2239 81.7756 69.3343 82.2622C68.4337 82.7547 68.1029 83.8841 68.5955 84.7847L70.2262 83.8928C68.5955 84.7847 68.596 84.7856 68.5965 84.7865L68.5975 84.7884L68.5996 84.7922L68.6043 84.8006L68.6152 84.8199C68.6231 84.8339 68.6325 84.85 68.6433 84.8681C68.6649 84.9043 68.6922 84.9487 68.7257 85.0001C68.7924 85.1026 68.8839 85.234 69.0025 85.3841C69.2387 85.6832 69.588 86.0646 70.0686 86.4412C71.0494 87.2097 72.5335 87.9205 74.5762 87.9123M71.8385 82.9683C71.8392 82.9694 71.8401 82.9708 71.8412 82.9724C71.8518 82.9887 71.8777 83.0271 71.92 83.0806C72.0053 83.1886 72.1503 83.3498 72.3612 83.5151C72.7633 83.8301 73.4506 84.1996 74.5618 84.195L74.5628 84.195C75.9554 84.19 76.6095 83.7833 76.8871 83.5488C77.041 83.4187 77.1264 83.3012 77.1657 83.2387C77.176 83.2223 77.1831 83.2098 77.1873 83.2021C77.5547 82.2823 78.5859 81.8078 79.5292 82.1394C80.4976 82.4798 81.0067 83.5408 80.6663 84.5092L78.9128 83.8928C80.6663 84.5092 80.6658 84.5105 80.6654 84.5118L80.6644 84.5144L80.6625 84.5198L80.6583 84.5313L80.6489 84.5568C80.642 84.575 80.634 84.5953 80.6249 84.6178C80.6066 84.6627 80.5836 84.7161 80.555 84.7766C80.4981 84.8976 80.4189 85.0485 80.3118 85.2186C80.0975 85.5592 79.7699 85.9794 79.2865 86.388C78.2896 87.2305 76.7723 87.9041 74.5772 87.9123" fill="#3C008A"/>
<path d="M74.5693 97.8108V128.795C74.5693 142.988 63.0233 154.534 48.8305 154.534C44.1183 154.534 40.3001 150.716 40.3001 146.004C40.3001 141.292 44.1183 137.473 48.8305 137.473C53.6164 137.473 57.5085 133.581 57.5085 128.795V97.8108" fill="#7000FF"/>
<path fill-rule="evenodd" clip-rule="evenodd" d="M74.5689 95.9512C73.5424 95.9512 72.7102 96.7833 72.7102 97.8098V128.794C72.7102 141.961 61.9963 152.675 48.83 152.675C45.1444 152.675 42.1582 149.689 42.1582 146.003C42.1582 142.317 45.1444 139.331 48.83 139.331C54.6424 139.331 59.3666 134.607 59.3666 128.794V97.8098C59.3666 96.7833 58.5345 95.9512 57.508 95.9512C56.4815 95.9512 55.6493 96.7833 55.6493 97.8098V128.794C55.6493 132.554 52.5894 135.614 48.83 135.614C43.0914 135.614 38.441 140.264 38.441 146.003C38.441 151.742 43.0914 156.392 48.83 156.392C64.0493 156.392 76.4275 144.014 76.4275 128.794V97.8098C76.4275 96.7833 75.5954 95.9512 74.5689 95.9512Z" fill="#3C008A"/>
<path d="M88.9587 95.4407L88.9587 126.425C88.9587 140.618 77.4127 152.164 63.2199 152.164C58.5078 152.164 54.6895 148.346 54.6895 143.634C54.6895 138.922 58.5078 135.103 63.2199 135.103C68.0058 135.103 71.8979 131.211 71.8979 126.425V95.4407" fill="#7000FF"/>
<path fill-rule="evenodd" clip-rule="evenodd" d="M88.9583 93.5813C87.9318 93.5813 87.0996 94.4134 87.0996 95.4399L87.0996 126.425C87.0996 139.591 76.3857 150.305 63.2194 150.305C59.5338 150.305 56.5476 147.319 56.5476 143.633C56.5476 139.947 59.5338 136.961 63.2194 136.961C69.0318 136.961 73.756 132.237 73.756 126.425V95.4399C73.756 94.4134 72.9239 93.5813 71.8974 93.5813C70.8709 93.5813 70.0387 94.4134 70.0387 95.4399V126.425C70.0387 130.184 66.9788 133.244 63.2194 133.244C57.4808 133.244 52.8304 137.894 52.8304 143.633C52.8304 149.372 57.4808 154.022 63.2194 154.022C78.4387 154.022 90.8169 141.644 90.8169 126.425L90.8169 95.4399C90.8169 94.4134 89.9848 93.5813 88.9583 93.5813Z" fill="#3C008A"/>
<path d="M114.087 97.0117V128.53C114.087 142.966 125.833 154.712 140.273 154.712C145.068 154.712 148.951 150.828 148.951 146.034C148.951 141.239 145.068 137.356 140.273 137.356C135.405 137.356 131.443 133.394 131.443 128.53V97.0117" fill="#7000FF"/>
<path fill-rule="evenodd" clip-rule="evenodd" d="M131.444 95.1521C130.417 95.1521 129.585 95.9842 129.585 97.0107V128.529C129.585 134.42 134.379 139.213 140.273 139.213C144.042 139.213 147.093 142.264 147.093 146.033C147.093 149.801 144.042 152.852 140.273 152.852C126.86 152.852 115.946 141.938 115.946 128.529V97.0107H112.229V128.529C112.229 143.992 124.807 156.569 140.273 156.569C146.095 156.569 150.81 151.854 150.81 146.033C150.81 140.211 146.095 135.496 140.273 135.496C136.431 135.496 133.302 132.366 133.302 128.529V97.0107C133.302 95.9842 132.47 95.1521 131.444 95.1521Z" fill="#3C008A"/>
<path d="M106.991 96.3228V127.841C106.991 142.277 118.736 154.023 133.177 154.023C137.971 154.023 141.854 150.139 141.854 145.345C141.854 140.55 137.971 136.667 133.177 136.667C128.308 136.667 124.347 132.705 124.347 127.841V96.3228" fill="#7000FF"/>
<path fill-rule="evenodd" clip-rule="evenodd" d="M124.347 94.4634C123.321 94.4634 122.489 95.2955 122.489 96.322V127.84C122.489 133.731 127.283 138.525 133.177 138.525C136.945 138.525 139.996 141.576 139.996 145.344C139.996 149.112 136.945 152.163 133.177 152.163C119.763 152.163 108.85 141.249 108.85 127.84V96.322C108.85 95.2955 108.018 94.4634 106.991 94.4634C105.965 94.4634 105.133 95.2955 105.133 96.322V127.84C105.133 143.303 117.711 155.88 133.177 155.88C138.998 155.88 143.714 151.165 143.714 145.344C143.714 139.523 138.998 134.807 133.177 134.807C129.335 134.807 126.206 131.677 126.206 127.84V96.322C126.206 95.2955 125.374 94.4634 124.347 94.4634Z" fill="#3C008A"/>
<path d="M88.8232 96.3228V127.307C88.8232 141.5 100.369 153.046 114.562 153.046C119.274 153.046 123.093 149.228 123.093 144.516C123.093 139.804 119.274 135.985 114.562 135.985C109.776 135.985 105.884 132.093 105.884 127.307V96.3228" fill="#7000FF"/>
<path fill-rule="evenodd" clip-rule="evenodd" d="M88.8262 94.4634C89.8527 94.4634 90.6848 95.2955 90.6848 96.322V127.307C90.6848 140.473 101.399 151.187 114.565 151.187C118.251 151.187 121.237 148.201 121.237 144.515C121.237 140.829 118.251 137.843 114.565 137.843C108.753 137.843 104.028 133.119 104.028 127.307V96.322C104.028 95.2955 104.861 94.4634 105.887 94.4634C106.914 94.4634 107.746 95.2955 107.746 96.322V127.307C107.746 131.066 110.806 134.126 114.565 134.126C120.304 134.126 124.954 138.776 124.954 144.515C124.954 150.254 120.304 154.904 114.565 154.904C99.3457 154.904 86.9675 142.526 86.9675 127.307V96.322C86.9675 95.2955 87.7997 94.4634 88.8262 94.4634Z" fill="#3C008A"/>
</svg>
