<svg width="82" height="106" viewBox="0 0 82 106" fill="none" xmlns="http://www.w3.org/2000/svg">
<ellipse cx="38.6539" cy="3.89084" rx="38.6539" ry="3.89084" transform="matrix(-1 0 0 1 78.0615 98.2183)" fill="#D9D9D9"/>
<path d="M48.9443 72.1952V88.7257C48.9443 96.2976 42.58 102.457 34.7567 102.457C32.1593 102.457 30.0545 100.42 30.0545 97.9065C30.0545 95.3925 32.1593 93.3554 34.7567 93.3554C37.3947 93.3554 39.5401 91.279 39.5401 88.7257V72.1952" fill="#7000FF"/>
<path fill-rule="evenodd" clip-rule="evenodd" d="M48.9438 71.2036C48.3779 71.2036 47.9192 71.6476 47.9192 72.1952V88.7257C47.9192 95.75 42.0136 101.466 34.7561 101.466C32.7245 101.466 31.0785 99.8728 31.0785 97.9065C31.0785 95.9402 32.7245 94.347 34.7561 94.347C37.96 94.347 40.564 91.8266 40.564 88.7257V72.1952C40.564 71.6476 40.1053 71.2036 39.5395 71.2036C38.9737 71.2036 38.515 71.6476 38.515 72.1952V88.7257C38.515 90.7314 36.8283 92.3639 34.7561 92.3639C31.5929 92.3639 29.0295 94.8449 29.0295 97.9065C29.0295 100.968 31.5929 103.449 34.7561 103.449C43.1452 103.449 49.9683 96.8453 49.9683 88.7257V72.1952C49.9683 71.6476 49.5096 71.2036 48.9438 71.2036Z" fill="#3C008A"/>
<path d="M46.4639 76.2576L56.1274 89.8876C60.5538 96.131 69.4025 97.7248 75.8531 93.4405C77.9948 92.0181 78.5393 89.1859 77.0697 87.113C75.6001 85.0402 72.6738 84.5131 70.5322 85.9355C68.357 87.3802 65.3742 86.8429 63.8815 84.7376L54.218 71.1076" fill="#7000FF"/>
<path fill-rule="evenodd" clip-rule="evenodd" d="M53.6372 70.2899C54.1038 69.9801 54.7415 70.095 55.0617 70.5465L64.7252 84.1766C65.8976 85.8303 68.2427 86.2527 69.9514 85.1179C72.5596 83.3856 76.1236 84.0276 77.9133 86.552C79.7031 89.0764 79.0399 92.5259 76.4317 94.2581C69.5145 98.8522 60.0281 97.1436 55.2815 90.4486L45.618 76.8186L47.3075 75.6965L56.971 89.3266C61.0773 95.1184 69.2882 96.5973 75.2723 92.6229C76.9474 91.5104 77.3733 89.2954 76.2238 87.6741C75.0744 86.0528 72.7858 85.6406 71.1107 86.7531C68.469 88.5076 64.8484 87.8555 63.0357 85.2987L53.3722 71.6686C53.052 71.217 53.1707 70.5998 53.6372 70.2899Z" fill="#3C008A"/>
<path d="M36.1599 21C48.034 21 57.6734 30.3984 57.6734 41.9756V78.5122H14.644L14.644 41.9779C14.644 30.4007 24.2858 21 36.1599 21Z" fill="#7000FF"/>
<path fill-rule="evenodd" clip-rule="evenodd" d="M55.6243 41.9756C55.6243 31.4799 46.8882 22.9832 36.1599 22.9832C25.4316 22.9832 16.6931 31.4823 16.6931 41.9779V76.529H55.6243V41.9756ZM57.6734 41.9756C57.6734 30.3984 48.034 21 36.1599 21C24.2858 21 14.644 30.4007 14.644 41.9779V78.5122H57.6734V41.9756Z" fill="#3C008A"/>
<path d="M55.9241 63.2501C52.678 63.2501 50.0352 60.6948 50.0352 57.553V52.013C50.0352 48.8713 52.6753 46.3134 55.9241 46.3134C59.1728 46.3134 61.8103 48.8687 61.8103 52.013V57.553C61.8103 60.6948 59.1701 63.2501 55.9241 63.2501Z" fill="white"/>
<path fill-rule="evenodd" clip-rule="evenodd" d="M55.9239 64.5722C51.9242 64.5722 48.6689 61.4258 48.6689 57.553V52.013C48.6689 48.1415 51.9203 44.9912 55.9239 44.9912C59.9279 44.9912 63.1761 48.1392 63.1761 52.013V57.553C63.1761 61.425 59.9244 64.5722 55.9239 64.5722ZM50.035 57.553C50.035 60.6948 52.6778 63.2501 55.9239 63.2501C59.1699 63.2501 61.8101 60.6948 61.8101 57.553V52.013C61.8101 48.8686 59.1726 46.3133 55.9239 46.3133C52.6751 46.3133 50.035 48.8713 50.035 52.013V57.553Z" fill="#3C008A"/>
<path d="M55.9243 46.8369C58.8728 46.8369 61.2695 49.1592 61.2695 52.0104V57.5504C61.2695 60.4041 58.8701 62.7238 55.9216 62.7238C52.9731 62.7238 50.5737 60.4015 50.5737 57.5504V52.0104C50.5737 49.1566 52.9731 46.8369 55.9216 46.8369M55.9216 45.7897C52.3726 45.7897 49.4917 48.5754 49.4917 52.0104V57.5504C49.4917 60.988 52.3699 63.7711 55.9216 63.7711C59.4706 63.7711 62.3488 60.9854 62.3488 57.5504V52.0104C62.3488 48.5728 59.4706 45.7897 55.9216 45.7897Z" fill="#3C008A"/>
<path d="M58.3046 51.1593C58.3046 49.8869 57.2388 48.8553 55.9241 48.8553C54.6095 48.8553 53.5437 49.8869 53.5437 51.1593V54.8875C53.5437 56.16 54.6095 57.1915 55.9241 57.1915C57.2388 57.1915 58.3046 56.16 58.3046 54.8875V51.1593Z" fill="#1C1C1C"/>
<path d="M58.1752 49.7535C58.1752 49.0806 57.6098 48.5334 56.9146 48.5334C56.2194 48.5334 55.6541 49.0806 55.6541 49.7535C55.6541 50.4264 56.2194 50.9736 56.9146 50.9736C57.6098 50.9736 58.1752 50.4264 58.1752 49.7535Z" fill="white"/>
<path d="M38.1557 63.2501C34.9097 63.2501 32.2668 60.6948 32.2668 57.553V52.013C32.2668 48.8713 34.907 46.3134 38.1557 46.3134C41.4045 46.3134 44.042 48.8687 44.042 52.013V57.553C44.042 60.6948 41.4018 63.2501 38.1557 63.2501Z" fill="white"/>
<path fill-rule="evenodd" clip-rule="evenodd" d="M38.1573 64.5722C34.1576 64.5722 30.9023 61.4258 30.9023 57.553V52.013C30.9023 48.1415 34.1536 44.9912 38.1573 44.9912C42.1613 44.9912 45.4095 48.1392 45.4095 52.013V57.553C45.4095 61.425 42.1577 64.5722 38.1573 64.5722ZM32.2684 57.553C32.2684 60.6948 34.9112 63.2501 38.1573 63.2501C41.4033 63.2501 44.0435 60.6948 44.0435 57.553V52.013C44.0435 48.8686 41.406 46.3133 38.1573 46.3133C34.9085 46.3133 32.2684 48.8713 32.2684 52.013V57.553Z" fill="#3C008A"/>
<path d="M38.1565 46.8369C41.105 46.8369 43.5017 49.1592 43.5017 52.0104V57.5504C43.5017 60.4041 41.1023 62.7238 38.1538 62.7238C35.2053 62.7238 32.8059 60.4015 32.8059 57.5504V52.0104C32.8059 49.1566 35.2053 46.8369 38.1538 46.8369M38.1538 45.7897C34.6048 45.7897 31.7239 48.5754 31.7239 52.0104V57.5504C31.7239 60.988 34.6021 63.7711 38.1538 63.7711C41.7028 63.7711 44.581 60.9854 44.581 57.5504V52.0104C44.581 48.5728 41.7028 45.7897 38.1538 45.7897Z" fill="#3C008A"/>
<path d="M40.5377 51.1593C40.5377 49.8869 39.472 48.8553 38.1573 48.8553C36.8426 48.8553 35.7769 49.8869 35.7769 51.1593V54.8875C35.7769 56.16 36.8426 57.1915 38.1573 57.1915C39.472 57.1915 40.5377 56.16 40.5377 54.8875V51.1593Z" fill="#1C1C1C"/>
<path d="M40.4076 49.7535C40.4076 49.0806 39.8422 48.5334 39.147 48.5334C38.4518 48.5334 37.8865 49.0806 37.8865 49.7535C37.8865 50.4264 38.4518 50.9736 39.147 50.9736C39.8422 50.9736 40.4076 50.4264 40.4076 49.7535Z" fill="white"/>
<path d="M25.2257 38.8548C26.3492 38.8548 27.26 37.9733 27.26 36.8859C27.26 35.7985 26.3492 34.917 25.2257 34.917C24.1022 34.917 23.1914 35.7985 23.1914 36.8859C23.1914 37.9733 24.1022 38.8548 25.2257 38.8548Z" fill="#FEE702"/>
<path d="M30.3606 37.1231C31.2021 37.1231 31.8842 36.4629 31.8842 35.6484C31.8842 34.834 31.2021 34.1737 30.3606 34.1737C29.5191 34.1737 28.8369 34.834 28.8369 35.6484C28.8369 36.4629 29.5191 37.1231 30.3606 37.1231Z" fill="#FEE702"/>
<path d="M27.6114 32.9954C28.2048 32.9954 28.6858 32.5299 28.6858 31.9556C28.6858 31.3813 28.2048 30.9158 27.6114 30.9158C27.0181 30.9158 26.5371 31.3813 26.5371 31.9556C26.5371 32.5299 27.0181 32.9954 27.6114 32.9954Z" fill="#FEE702"/>
<path fill-rule="evenodd" clip-rule="evenodd" d="M54.088 41.4864C53.8114 41.9537 53.198 42.1227 52.7077 41.8632C52.2112 41.6004 52.0289 40.9979 52.3004 40.5174L53.1993 40.9932C52.3004 40.5174 52.3007 40.5169 52.3009 40.5164L52.3015 40.5154L52.3027 40.5133L52.3053 40.5089L52.3113 40.4986C52.3156 40.4911 52.3208 40.4825 52.3268 40.4729C52.3386 40.4535 52.3537 40.4299 52.3722 40.4025C52.4089 40.3478 52.4594 40.2777 52.5247 40.1976C52.6549 40.038 52.8475 39.8345 53.1124 39.6336C53.6531 39.2236 54.4711 38.8444 55.5971 38.8488M54.088 41.4864C54.0884 41.4858 54.0889 41.4851 54.0895 41.4843C54.0953 41.4756 54.1096 41.4551 54.1329 41.4265C54.1799 41.3689 54.2599 41.2829 54.3761 41.1947C54.5978 41.0266 54.9766 40.8295 55.5891 40.832L55.5897 40.832C56.3573 40.8347 56.7179 41.0516 56.8709 41.1767C56.9557 41.2461 57.0028 41.3088 57.0245 41.3422C57.0301 41.3509 57.034 41.3576 57.0363 41.3617C57.2389 41.8524 57.8073 42.1056 58.3272 41.9287C58.861 41.747 59.1416 41.181 58.954 40.6643L57.9875 40.9932C58.954 40.6643 58.9538 40.6637 58.9535 40.663L58.953 40.6616L58.9519 40.6587L58.9496 40.6526L58.9444 40.6389C58.9406 40.6293 58.9362 40.6184 58.9312 40.6064C58.9211 40.5825 58.9084 40.554 58.8927 40.5217C58.8613 40.4571 58.8176 40.3766 58.7586 40.2859C58.6405 40.1042 58.4599 39.88 58.1935 39.662C57.6439 39.2126 56.8076 38.8531 55.5976 38.8488" fill="#3C008A"/>
<path fill-rule="evenodd" clip-rule="evenodd" d="M36.671 41.8169C36.3944 42.2841 35.781 42.4532 35.2907 42.1936C34.7942 41.9308 34.6119 41.3283 34.8834 40.8478L35.7823 41.3236C34.8834 40.8478 34.8837 40.8473 34.884 40.8469L34.8845 40.8459L34.8857 40.8438L34.8883 40.8393L34.8943 40.829C34.8987 40.8216 34.9038 40.813 34.9098 40.8033C34.9217 40.784 34.9367 40.7603 34.9552 40.7329C34.9919 40.6782 35.0424 40.6081 35.1077 40.5281C35.2379 40.3685 35.4305 40.165 35.6954 39.9641C36.2361 39.5541 37.0541 39.1749 38.1801 39.1792M36.671 41.8169C36.6714 41.8163 36.6719 41.8156 36.6725 41.8147C36.6783 41.806 36.6926 41.7855 36.7159 41.757C36.7629 41.6994 36.8429 41.6133 36.9592 41.5252C37.1808 41.3571 37.5596 41.16 38.1722 41.1624L38.1727 41.1624C38.9403 41.1651 39.3009 41.3821 39.4539 41.5072C39.5387 41.5766 39.5858 41.6393 39.6075 41.6726C39.6132 41.6814 39.617 41.688 39.6193 41.6921C39.8219 42.1829 40.3903 42.436 40.9102 42.2591C41.444 42.0775 41.7247 41.5114 41.537 40.9948L40.5705 41.3236C41.537 40.9948 41.5368 40.9941 41.5365 40.9934L41.536 40.992L41.5349 40.9891L41.5327 40.983L41.5274 40.9694C41.5236 40.9597 41.5193 40.9488 41.5142 40.9369C41.5041 40.9129 41.4914 40.8844 41.4757 40.8521C41.4443 40.7876 41.4007 40.7071 41.3416 40.6163C41.2235 40.4346 41.0429 40.2104 40.7765 39.9925C40.227 39.543 39.3906 39.1836 38.1806 39.1792" fill="#3C008A"/>
<path fill-rule="evenodd" clip-rule="evenodd" d="M48.2201 64.7977C48.4967 64.3305 49.1101 64.1615 49.6004 64.421C50.0969 64.6838 50.2792 65.2863 50.0077 65.7668L49.1088 65.291C50.0077 65.7668 50.0074 65.7673 50.0072 65.7678L50.0066 65.7688L50.0054 65.7708L50.0028 65.7753L49.9968 65.7856C49.9925 65.793 49.9873 65.8016 49.9814 65.8113C49.9695 65.8306 49.9544 65.8543 49.936 65.8817C49.8992 65.9364 49.8487 66.0065 49.7834 66.0866C49.6532 66.2462 49.4606 66.4497 49.1957 66.6505C48.655 67.0606 47.837 67.4398 46.711 67.4354M48.2201 64.7977C48.2197 64.7983 48.2192 64.7991 48.2186 64.7999C48.2128 64.8086 48.1985 64.8291 48.1752 64.8576C48.1282 64.9153 48.0482 65.0013 47.932 65.0895C47.7103 65.2575 47.3315 65.4547 46.719 65.4522L46.7185 65.4522C45.9508 65.4495 45.5902 65.2326 45.4372 65.1074C45.3524 65.0381 45.3053 64.9753 45.2837 64.942C45.278 64.9333 45.2741 64.9266 45.2718 64.9225C45.0692 64.4317 44.5008 64.1786 43.9809 64.3555C43.4471 64.5371 43.1665 65.1032 43.3541 65.6198L44.3206 65.291C43.3541 65.6198 43.3543 65.6205 43.3546 65.6212L43.3551 65.6226L43.3562 65.6255L43.3585 65.6316L43.3637 65.6452C43.3675 65.6549 43.3719 65.6658 43.3769 65.6778C43.387 65.7017 43.3997 65.7302 43.4154 65.7625C43.4468 65.8271 43.4905 65.9075 43.5495 65.9983C43.6676 66.18 43.8482 66.4042 44.1147 66.6222C44.6642 67.0716 45.5005 67.431 46.7105 67.4354" fill="#3C008A"/>
<path d="M47.1084 72.9893V89.5198C47.1084 97.0917 53.4728 103.252 61.2961 103.252C63.8935 103.252 65.9982 101.214 65.9982 98.7005C65.9982 96.1866 63.8935 94.1495 61.2961 94.1495C58.658 94.1495 56.5126 92.0731 56.5126 89.5198V72.9893" fill="#7000FF"/>
<path fill-rule="evenodd" clip-rule="evenodd" d="M47.1087 71.9976C47.6746 71.9976 48.1332 72.4415 48.1332 72.9891V89.5196C48.1332 96.5439 54.0389 102.26 61.2964 102.26C63.328 102.26 64.974 100.667 64.974 98.7004C64.974 96.7341 63.328 95.141 61.2964 95.141C58.0925 95.141 55.4885 92.6206 55.4885 89.5196V72.9891C55.4885 72.4415 55.9471 71.9976 56.513 71.9976C57.0788 71.9976 57.5375 72.4415 57.5375 72.9891V89.5196C57.5375 91.5253 59.2242 93.1578 61.2964 93.1578C64.4596 93.1578 67.023 95.6388 67.023 98.7004C67.023 101.762 64.4596 104.243 61.2964 104.243C52.9073 104.243 46.0842 97.6392 46.0842 89.5196V72.9891C46.0842 72.4415 46.5429 71.9976 47.1087 71.9976Z" fill="#3C008A"/>
<path d="M37.9771 74.9415L43.9982 90.4107C46.7563 97.4965 54.9557 101.089 62.2768 98.4198C64.7074 97.5335 65.935 94.9091 65.0193 92.5565C64.1036 90.204 61.392 89.0158 58.9614 89.9021C56.4927 90.8023 53.7287 89.5912 52.7987 87.2018L46.7775 71.7326" fill="#7000FF"/>
<path fill-rule="evenodd" clip-rule="evenodd" d="M37.6164 74.0135C38.1459 73.8204 38.7369 74.0793 38.9364 74.5918L44.9575 90.061C47.5161 96.6343 55.1246 99.9681 61.9162 97.4917C63.8173 96.7985 64.7773 94.746 64.0611 92.906C63.3449 91.0659 61.2243 90.1367 59.3231 90.8299C56.3249 91.9231 52.97 90.4531 51.8405 87.5512L45.8193 72.0821C45.6199 71.5696 45.8874 70.9976 46.4169 70.8046C46.9464 70.6115 47.5373 70.8704 47.7368 71.3829L53.758 86.8521C54.4885 88.729 56.6616 89.6811 58.6008 88.9741C61.5609 87.8947 64.8634 89.3418 65.9786 92.2068C67.0938 95.0718 65.5987 98.2682 62.6385 99.3476C54.788 102.21 45.9976 98.3584 43.0401 90.7601L37.0189 75.291C36.8194 74.7785 37.087 74.2065 37.6164 74.0135Z" fill="#3C008A"/>
<path d="M25.3256 72.5626V89.3778C25.3256 97.0794 18.8512 103.346 10.8916 103.346C8.24874 103.346 6.10815 101.274 6.10815 98.716C6.10815 96.1581 8.24874 94.0863 10.8916 94.0863C13.5751 94.0863 15.7587 91.9728 15.7587 89.3778V72.5626" fill="#7000FF"/>
<path fill-rule="evenodd" clip-rule="evenodd" d="M15.7581 71.571C16.3239 71.571 16.7826 72.015 16.7826 72.5626V89.3779C16.7826 92.5208 14.1399 95.0779 10.8909 95.0779C8.81392 95.0779 7.13202 96.7058 7.13202 98.716C7.13202 100.726 8.81392 102.354 10.8909 102.354C18.2849 102.354 24.3005 96.5317 24.3005 89.3779V72.5626H26.3495V89.3779C26.3495 97.6272 19.4163 104.337 10.8909 104.337C7.68228 104.337 5.08301 101.822 5.08301 98.716C5.08301 95.6105 7.68228 93.0947 10.8909 93.0947C13.009 93.0947 14.7336 91.4249 14.7336 89.3779V72.5626C14.7336 72.015 15.1923 71.571 15.7581 71.571Z" fill="#3C008A"/>
<path d="M29.2372 72.1952V89.0104C29.2372 96.712 22.7628 102.978 14.8032 102.978C12.1604 102.978 10.0198 100.907 10.0198 98.3486C10.0198 95.7907 12.1604 93.7189 14.8032 93.7189C17.4867 93.7189 19.6703 91.6054 19.6703 89.0104V72.1952" fill="#7000FF"/>
<path fill-rule="evenodd" clip-rule="evenodd" d="M19.67 71.2036C20.2358 71.2036 20.6945 71.6476 20.6945 72.1952V89.0104C20.6945 92.1533 18.0518 94.7105 14.8028 94.7105C12.7258 94.7105 11.0439 96.3383 11.0439 98.3486C11.0439 100.359 12.7258 101.987 14.8028 101.987C22.1967 101.987 28.2123 96.1643 28.2123 89.0104V72.1952C28.2123 71.6476 28.671 71.2036 29.2368 71.2036C29.8026 71.2036 30.2613 71.6476 30.2613 72.1952V89.0104C30.2613 97.2597 23.3282 103.97 14.8028 103.97C11.5941 103.97 8.99487 101.454 8.99487 98.3486C8.99487 95.243 11.5941 92.7273 14.8028 92.7273C16.9208 92.7273 18.6454 91.0574 18.6454 89.0104V72.1952C18.6454 71.6476 19.1041 71.2036 19.67 71.2036Z" fill="#3C008A"/>
<path d="M39.2507 72.1952V88.7257C39.2507 96.2976 32.8864 102.457 25.0631 102.457C22.4657 102.457 20.3609 100.42 20.3609 97.9065C20.3609 95.3925 22.4657 93.3554 25.0631 93.3554C27.7011 93.3554 29.8465 91.279 29.8465 88.7257V72.1952" fill="#7000FF"/>
<path fill-rule="evenodd" clip-rule="evenodd" d="M39.2502 71.2036C38.6843 71.2036 38.2256 71.6476 38.2256 72.1952V88.7257C38.2256 95.75 32.32 101.466 25.0625 101.466C23.0309 101.466 21.3849 99.8728 21.3849 97.9065C21.3849 95.9402 23.0309 94.347 25.0625 94.347C28.2664 94.347 30.8704 91.8266 30.8704 88.7257V72.1952C30.8704 71.6476 30.4117 71.2036 29.8459 71.2036C29.2801 71.2036 28.8214 71.6476 28.8214 72.1952V88.7257C28.8214 90.7314 27.1347 92.3639 25.0625 92.3639C21.8993 92.3639 19.3359 94.8449 19.3359 97.9065C19.3359 100.968 21.8993 103.449 25.0625 103.449C33.4516 103.449 40.2747 96.8453 40.2747 88.7257V72.1952C40.2747 71.6476 39.816 71.2036 39.2502 71.2036Z" fill="#3C008A"/>
</svg>
