<svg width="152" height="95" viewBox="0 0 152 95" fill="none" xmlns="http://www.w3.org/2000/svg">
<path d="M60.2547 109.328L94.9028 98.4644C110.774 93.4883 119.526 76.6245 114.415 60.8709C112.718 55.6406 107.073 52.7411 101.803 54.3932C96.5342 56.0453 93.6397 61.6222 95.3368 66.8525C97.0604 72.1647 94.1099 77.8494 88.7582 79.5274L54.1101 90.3908" fill="#7000FF"/>
<path fill-rule="evenodd" clip-rule="evenodd" d="M52.0328 91.0435C51.6632 89.9042 52.2939 88.6889 53.4417 88.3291L88.088 77.4666C92.2917 76.1486 94.6112 71.6797 93.2573 67.5073C91.1906 61.1381 94.7158 54.3464 101.133 52.3346C107.549 50.3228 114.424 53.8538 116.491 60.223C121.972 77.1145 112.589 95.1922 95.571 100.528L60.9247 111.39L59.586 107.264L94.2322 96.402C108.954 91.7862 117.076 76.1391 112.334 61.5262C111.007 57.4356 106.593 55.1682 102.471 56.4603C98.3501 57.7524 96.0865 62.1135 97.4138 66.2041C99.5071 72.6551 95.926 79.5546 89.4267 81.5923L54.7805 92.4547C53.6327 92.8146 52.4025 92.1828 52.0328 91.0435Z" fill="#3C008A"/>
<rect width="5.14646" height="18.8172" rx="2.57323" transform="matrix(-0.981163 0.20926 0.215446 0.973188 103.137 44.0914)" fill="#CDCDCD"/>
<path d="M95.2864 62.9766C95.4573 65.2687 96.9574 69.7743 104.184 67.347C108.192 66.0009 107.819 60.5601 101.97 62.0625" stroke="#3C008A" stroke-width="4" stroke-linecap="round"/>
<path d="M70.5699 32.9697C69.8648 35.7234 70.6981 38.6481 72.7561 40.6422L85.6381 53.125C87.6963 55.1193 90.6665 55.88 93.43 55.1204L110.725 50.3665C113.488 49.607 115.625 47.4425 116.33 44.6887L120.744 27.4518C121.449 24.6982 120.616 21.7734 118.558 19.7793L105.676 7.29652C103.618 5.30219 100.647 4.54154 97.884 5.30113L80.589 10.055C77.8256 10.8146 75.6888 12.979 74.9836 15.7329L70.5699 32.9697Z" fill="#3C008A"/>
<path d="M75.6998 32.5936C75.171 34.6588 75.796 36.8523 77.3395 38.3479L87.8515 48.5341C89.3951 50.0298 91.6227 50.6003 93.6953 50.0306L107.808 46.1514C109.881 45.5817 111.484 43.9584 112.012 41.893L115.614 27.8274C116.143 25.7622 115.518 23.5687 113.974 22.073L103.462 11.8869C101.919 10.3911 99.6912 9.82067 97.6186 10.3904L83.5056 14.2696C81.433 14.8393 79.8304 16.4626 79.3015 18.528L75.6998 32.5936Z" fill="white"/>
<path d="M15.0115 -9.49994C40.3355 -9.49994 60.8936 10.9554 60.8936 36.1528V115.674H-30.8757L-30.8757 36.1579C-30.8757 10.9605 -10.3125 -9.49994 15.0115 -9.49994Z" fill="#7000FF"/>
<path fill-rule="evenodd" clip-rule="evenodd" d="M56.5236 36.1528C56.5236 13.3093 37.8919 -5.18361 15.0115 -5.18361C-7.86883 -5.18361 -26.5057 13.3144 -26.5057 36.1579V111.357H56.5236V36.1528ZM60.8936 36.1528C60.8936 10.9554 40.3356 -9.49994 15.0115 -9.49994C-10.3125 -9.49994 -30.8757 10.9605 -30.8757 36.1579V115.674H60.8936V36.1528Z" fill="#3C008A"/>
<path d="M57.1628 82.4559C50.2399 82.4559 44.6035 76.8944 44.6035 70.0564V57.9988C44.6035 51.1608 50.2341 45.5936 57.1628 45.5936C64.0915 45.5936 69.7164 51.1551 69.7164 57.9988V70.0564C69.7164 76.8944 64.0857 82.4559 57.1628 82.4559Z" fill="white"/>
<path fill-rule="evenodd" clip-rule="evenodd" d="M57.1622 85.3335C48.6321 85.3335 41.6896 78.4854 41.6896 70.0564V57.9988C41.6896 49.5725 48.6237 42.7161 57.1622 42.7161C65.7017 42.7161 72.6291 49.5676 72.6291 57.9988V70.0564C72.6291 78.4836 65.6942 85.3335 57.1622 85.3335ZM44.6029 70.0564C44.6029 76.8944 50.2393 82.456 57.1622 82.456C64.0852 82.456 69.7158 76.8944 69.7158 70.0564V57.9988C69.7158 51.1552 64.0909 45.5936 57.1622 45.5936C50.2335 45.5936 44.6029 51.1609 44.6029 57.9988V70.0564Z" fill="#3C008A"/>
<path d="M57.1632 46.7332C63.4515 46.7332 68.5629 51.7876 68.5629 57.9931V70.0507C68.5629 76.2619 63.4457 81.3106 57.1574 81.3106C50.8691 81.3106 45.7519 76.2562 45.7519 70.0507V57.9931C45.7519 51.7819 50.8691 46.7332 57.1574 46.7332M57.1574 44.4539C49.5883 44.4539 43.4442 50.5169 43.4442 57.9931V70.0507C43.4442 77.5326 49.5825 83.5899 57.1574 83.5899C64.7265 83.5899 70.8648 77.5269 70.8648 70.0507V57.9931C70.8648 50.5112 64.7265 44.4539 57.1574 44.4539Z" fill="#3C008A"/>
<path d="M62.2398 56.1407C62.2398 53.3713 59.9668 51.1262 57.163 51.1262C54.3591 51.1262 52.0862 53.3713 52.0862 56.1407V64.2551C52.0862 67.0246 54.3591 69.2696 57.163 69.2696C59.9668 69.2696 62.2398 67.0246 62.2398 64.2551V56.1407Z" fill="#1C1C1C"/>
<path d="M61.9636 53.081C61.9636 51.6165 60.7579 50.4255 59.2752 50.4255C57.7925 50.4255 56.5868 51.6165 56.5868 53.081C56.5868 54.5454 57.7925 55.7364 59.2752 55.7364C60.7579 55.7364 61.9636 54.5454 61.9636 53.081Z" fill="white"/>
<path d="M19.2682 82.4559C12.3452 82.4559 6.7088 76.8944 6.7088 70.0564V57.9988C6.7088 51.1608 12.3394 45.5936 19.2682 45.5936C26.1969 45.5936 31.8217 51.1551 31.8217 57.9988V70.0564C31.8217 76.8944 26.1911 82.4559 19.2682 82.4559Z" fill="white"/>
<path fill-rule="evenodd" clip-rule="evenodd" d="M19.2711 85.3335C10.741 85.3335 3.79846 78.4854 3.79846 70.0564V57.9988C3.79846 49.5725 10.7326 42.7161 19.2711 42.7161C27.8105 42.7161 34.738 49.5676 34.738 57.9988V70.0564C34.738 78.4836 27.803 85.3335 19.2711 85.3335ZM6.71177 70.0564C6.71177 76.8944 12.3482 82.456 19.2711 82.456C26.1941 82.456 31.8247 76.8944 31.8247 70.0564V57.9988C31.8247 51.1552 26.1998 45.5936 19.2711 45.5936C12.3424 45.5936 6.71177 51.1609 6.71177 57.9988V70.0564Z" fill="#3C008A"/>
<path d="M19.2697 46.7332C25.5581 46.7332 30.6695 51.7876 30.6695 57.9931V70.0507C30.6695 76.2619 25.5523 81.3106 19.264 81.3106C12.9756 81.3106 7.85843 76.2562 7.85843 70.0507V57.9931C7.85843 51.7819 12.9756 46.7332 19.264 46.7332M19.264 44.4539C11.6949 44.4539 5.55078 50.5169 5.55078 57.9931V70.0507C5.55078 77.5326 11.6891 83.5899 19.264 83.5899C26.833 83.5899 32.9714 77.5269 32.9714 70.0507V57.9931C32.9714 50.5112 26.833 44.4539 19.264 44.4539Z" fill="#3C008A"/>
<path d="M24.348 56.1407C24.348 53.3713 22.075 51.1262 19.2712 51.1262C16.4673 51.1262 14.1944 53.3713 14.1944 56.1407V64.2551C14.1944 67.0246 16.4673 69.2696 19.2712 69.2696C22.075 69.2696 24.348 67.0246 24.348 64.2551V56.1407Z" fill="#1C1C1C"/>
<path d="M24.0705 53.081C24.0705 51.6165 22.8647 50.4255 21.3821 50.4255C19.8994 50.4255 18.6937 51.6165 18.6937 53.081C18.6937 54.5454 19.8994 55.7364 21.3821 55.7364C22.8647 55.7364 24.0705 54.5454 24.0705 53.081Z" fill="white"/>
<path d="M2.64348 25.5915C4.43815 25.5915 5.89301 24.1544 5.89301 22.3818C5.89301 20.6091 4.43815 19.1721 2.64348 19.1721C0.848802 19.1721 -0.606079 20.6091 -0.606079 22.3818C-0.606079 24.1544 0.848802 25.5915 2.64348 25.5915Z" fill="#FEE702"/>
<path fill-rule="evenodd" clip-rule="evenodd" d="M53.2472 35.0882C52.6573 36.1051 51.3491 36.473 50.3033 35.9081C49.2445 35.3361 48.8557 34.0248 49.4347 32.979L51.3517 34.0146C49.4347 32.979 49.4353 32.978 49.4359 32.9769L49.4371 32.9747L49.4396 32.9702L49.4451 32.9605L49.4579 32.9381C49.4672 32.9219 49.4782 32.9032 49.4909 32.8821C49.5163 32.8401 49.5484 32.7885 49.5877 32.7289C49.6662 32.6098 49.7738 32.4573 49.9131 32.283C50.1908 31.9357 50.6015 31.4928 51.1665 31.0556C52.3196 30.1632 54.0641 29.3378 56.4656 29.3474M53.2472 35.0882C53.248 35.0868 53.2491 35.0852 53.2503 35.0834C53.2628 35.0645 53.2933 35.0199 53.3429 34.9578C53.4432 34.8323 53.6137 34.6451 53.8617 34.4532C54.3343 34.0874 55.1424 33.6583 56.4487 33.6637L56.4497 33.6637C58.0869 33.6695 58.8559 34.1417 59.1822 34.4141C59.3631 34.5651 59.4635 34.7016 59.5098 34.7742C59.5219 34.7932 59.5302 34.8077 59.5351 34.8166C59.967 35.8847 61.1793 36.4356 62.2882 36.0506C63.4266 35.6553 64.0251 34.4234 63.625 33.2989L61.5636 34.0146C63.625 33.2989 63.6244 33.2974 63.6239 33.2959L63.6228 33.2928L63.6205 33.2866L63.6156 33.2732L63.6045 33.2436C63.5964 33.2225 63.5871 33.1989 63.5763 33.1728C63.5548 33.1207 63.5277 33.0587 63.4942 32.9884C63.4273 32.8479 63.3341 32.6727 63.2083 32.4752C62.9563 32.0797 62.5712 31.5917 62.0029 31.1174C60.831 30.1391 59.0473 29.3568 56.4667 29.3474" fill="#3C008A"/>
<path fill-rule="evenodd" clip-rule="evenodd" d="M16.1019 35.8073C15.512 36.8242 14.2038 37.1921 13.158 36.6272C12.0992 36.0552 11.7103 34.7439 12.2894 33.6981L14.2064 34.7337C12.2894 33.6981 12.29 33.6971 12.2905 33.696L12.2917 33.6939L12.2943 33.6894L12.2997 33.6796L12.3125 33.6572C12.3219 33.641 12.3329 33.6223 12.3456 33.6013C12.3709 33.5592 12.4031 33.5076 12.4424 33.448C12.5209 33.3289 12.6285 33.1765 12.7678 33.0022C13.0455 32.6548 13.4562 32.2119 14.0211 31.7747C15.1742 30.8823 16.9188 30.057 19.3203 30.0665M16.1019 35.8073C16.1027 35.8059 16.1037 35.8044 16.105 35.8025C16.1174 35.7836 16.148 35.739 16.1976 35.6769C16.2979 35.5514 16.4684 35.3642 16.7164 35.1723C17.189 34.8065 17.997 34.3775 19.3033 34.3828L19.3044 34.3828C20.9416 34.3887 21.7106 34.8609 22.0369 35.1332C22.2178 35.2842 22.3182 35.4207 22.3644 35.4933C22.3766 35.5123 22.3849 35.5268 22.3898 35.5357C22.8217 36.6038 24.0339 37.1547 25.1429 36.7697C26.2813 36.3745 26.8798 35.1425 26.4796 34.018L24.4183 34.7337C26.4796 34.018 26.4791 34.0165 26.4786 34.015L26.4775 34.012L26.4752 34.0057L26.4703 33.9923L26.4592 33.9627C26.4511 33.9416 26.4417 33.918 26.431 33.8919C26.4095 33.8398 26.3824 33.7778 26.3489 33.7075C26.2819 33.567 26.1888 33.3918 26.063 33.1943C25.811 32.7988 25.4259 32.3108 24.8576 31.8365C23.6856 30.8582 21.902 30.076 19.3214 30.0665" fill="#3C008A"/>
<path fill-rule="evenodd" clip-rule="evenodd" d="M40.7324 85.8244C41.3223 84.8075 42.6305 84.4396 43.6763 85.0045C44.735 85.5765 45.1239 86.8878 44.5449 87.9336L42.6278 86.898C44.5449 87.9336 44.5443 87.9346 44.5437 87.9357L44.5425 87.9379L44.54 87.9424L44.5345 87.9521L44.5217 87.9745C44.5123 87.9907 44.5013 88.0094 44.4886 88.0305C44.4633 88.0725 44.4311 88.1241 44.3918 88.1837C44.3134 88.3028 44.2057 88.4553 44.0664 88.6296C43.7888 88.9769 43.378 89.4198 42.8131 89.857C41.66 90.7494 39.9154 91.5748 37.514 91.5652M40.7324 85.8244C40.7315 85.8258 40.7305 85.8274 40.7293 85.8292C40.7168 85.8481 40.6863 85.8927 40.6366 85.9548C40.5363 86.0803 40.3659 86.2675 40.1179 86.4594C39.6452 86.8252 38.8372 87.2543 37.5309 87.2489L37.5298 87.2489C35.8926 87.2431 35.1236 86.7709 34.7974 86.4985C34.6164 86.3475 34.516 86.211 34.4698 86.1384C34.4577 86.1194 34.4494 86.1049 34.4445 86.096C34.0125 85.0279 32.8003 84.477 31.6914 84.862C30.5529 85.2573 29.9544 86.4892 30.3546 87.6137L32.4159 86.898C30.3546 87.6137 30.3551 87.6152 30.3557 87.6167L30.3567 87.6197L30.359 87.626L30.3639 87.6394L30.3751 87.669C30.3831 87.6901 30.3925 87.7137 30.4032 87.7398C30.4247 87.7919 30.4518 87.8539 30.4853 87.9242C30.5523 88.0647 30.6454 88.2399 30.7713 88.4374C31.0233 88.8329 31.4084 89.3209 31.9766 89.7952C33.1486 90.7735 34.9322 91.5558 37.5129 91.5652" fill="#3C008A"/>
</svg>
