<svg width="145" height="181" viewBox="0 0 145 181" fill="none" xmlns="http://www.w3.org/2000/svg">
<ellipse cx="58.1908" cy="9.39631" rx="58.1908" ry="9.39631" transform="matrix(-1 0 0 1 135.701 161.343)" fill="#CFCFCF"/>
<path d="M91.8665 120.893V146.604C91.8665 158.382 82.2853 167.963 70.5079 167.963C66.5977 167.963 63.4292 164.795 63.4292 160.884C63.4292 156.974 66.5977 153.806 70.5079 153.806C74.4793 153.806 77.709 150.576 77.709 146.604V120.893" fill="#7000FF"/>
<path fill-rule="evenodd" clip-rule="evenodd" d="M91.8655 119.35C91.0137 119.35 90.3232 120.04 90.3232 120.892V146.604C90.3232 157.529 81.4326 166.42 70.507 166.42C67.4485 166.42 64.9706 163.942 64.9706 160.884C64.9706 157.825 67.4485 155.347 70.507 155.347C75.3302 155.347 79.2504 151.427 79.2504 146.604V120.892C79.2504 120.04 78.5599 119.35 77.7081 119.35C76.8563 119.35 76.1658 120.04 76.1658 120.892V146.604C76.1658 149.723 73.6266 152.263 70.507 152.263C65.7449 152.263 61.8859 156.122 61.8859 160.884C61.8859 165.646 65.7449 169.505 70.507 169.505C83.1362 169.505 93.4078 159.233 93.4078 146.604V120.892C93.4078 120.04 92.7173 119.35 91.8655 119.35Z" fill="#3C008A"/>
<path d="M97.3788 137.399L121.622 128.834C132.727 124.91 138.569 112.685 134.646 101.58C133.343 97.8932 129.3 95.9612 125.613 97.2638C121.926 98.5663 119.994 102.609 121.297 106.296C122.62 110.041 120.65 114.162 116.906 115.485L92.6627 124.05" fill="#7000FF"/>
<path fill-rule="evenodd" clip-rule="evenodd" d="M91.2083 124.565C90.9245 123.762 91.3456 122.881 92.1487 122.597L116.392 114.032C119.333 112.993 120.882 109.753 119.842 106.812C118.256 102.322 120.609 97.3975 125.099 95.8112C129.589 94.2249 134.513 96.578 136.1 101.068C140.307 112.976 134.043 126.083 122.135 130.29L97.8923 138.855L96.8648 135.946L121.108 127.381C131.41 123.742 136.831 112.397 133.191 102.096C132.172 99.2119 129.011 97.7009 126.127 98.7197C123.243 99.7385 121.732 102.9 122.751 105.784C124.358 110.332 121.967 115.334 117.419 116.941L93.1763 125.506C92.3731 125.79 91.492 125.369 91.2083 124.565Z" fill="#3C008A"/>
<path d="M72.6213 41.2631C90.4969 41.2631 105.008 55.8814 105.008 73.8886V130.718H40.2307L40.2307 73.8923C40.2307 55.885 54.7458 41.2631 72.6213 41.2631Z" fill="#7000FF"/>
<path d="M56.1601 69.0341C57.8515 69.0341 59.2226 67.663 59.2226 65.9716C59.2226 64.2803 57.8515 62.9092 56.1601 62.9092C54.4688 62.9092 53.0977 64.2803 53.0977 65.9716C53.0977 67.663 54.4688 69.0341 56.1601 69.0341Z" fill="#FEE702"/>
<path d="M63.8907 66.3411C65.1575 66.3411 66.1845 65.3141 66.1845 64.0473C66.1845 62.7805 65.1575 61.7535 63.8907 61.7535C62.6239 61.7535 61.5969 62.7805 61.5969 64.0473C61.5969 65.3141 62.6239 66.3411 63.8907 66.3411Z" fill="#FEE702"/>
<path d="M59.7517 59.9206C60.645 59.9206 61.3691 59.1965 61.3691 58.3032C61.3691 57.41 60.645 56.6859 59.7517 56.6859C58.8585 56.6859 58.1344 57.41 58.1344 58.3032C58.1344 59.1965 58.8585 59.9206 59.7517 59.9206Z" fill="#FEE702"/>
<path fill-rule="evenodd" clip-rule="evenodd" d="M101.924 73.8886C101.924 57.5636 88.772 44.3477 72.6213 44.3477C56.4707 44.3477 43.3154 57.5672 43.3154 73.8923V127.633H101.924V73.8886ZM105.008 73.8886C105.008 55.8814 90.4969 41.2631 72.6213 41.2631C54.7458 41.2631 40.2307 55.885 40.2307 73.8923V130.718H105.008V73.8886Z" fill="#3C008A"/>
<path d="M102.374 106.978C97.4873 106.978 93.5087 103.004 93.5087 98.117V89.5001C93.5087 84.6134 97.4832 80.6348 102.374 80.6348C107.265 80.6348 111.235 84.6093 111.235 89.5001V98.117C111.235 103.004 107.261 106.978 102.374 106.978Z" fill="white"/>
<path fill-rule="evenodd" clip-rule="evenodd" d="M102.374 109.035C96.3523 109.035 91.4518 104.141 91.4518 98.1177V89.5007C91.4518 83.4789 96.3464 78.579 102.374 78.579C108.401 78.579 113.291 83.4754 113.291 89.5007V98.1177C113.291 104.14 108.396 109.035 102.374 109.035ZM93.5082 98.1177C93.5082 103.004 97.4868 106.979 102.374 106.979C107.26 106.979 111.235 103.004 111.235 98.1177V89.5007C111.235 84.6099 107.264 80.6354 102.374 80.6354C97.4827 80.6354 93.5082 84.614 93.5082 89.5007V98.1177Z" fill="#3C008A"/>
<path d="M102.374 81.4496C106.813 81.4496 110.421 85.0617 110.421 89.4964V98.1133C110.421 102.552 106.809 106.16 102.37 106.16C97.9312 106.16 94.3191 102.548 94.3191 98.1133V89.4964C94.3191 85.0576 97.9312 81.4496 102.37 81.4496M102.37 79.8207C97.0272 79.8207 92.6902 84.1536 92.6902 89.4964V98.1133C92.6902 103.46 97.0231 107.789 102.37 107.789C107.713 107.789 112.046 103.456 112.046 98.1133V89.4964C112.046 84.1495 107.713 79.8207 102.37 79.8207Z" fill="#3C008A"/>
<path d="M105.957 88.1734C105.957 86.1943 104.353 84.5898 102.374 84.5898C100.394 84.5898 98.79 86.1943 98.79 88.1734V93.9724C98.79 95.9515 100.394 97.556 102.374 97.556C104.353 97.556 105.957 95.9515 105.957 93.9724V88.1734Z" fill="#1C1C1C"/>
<path d="M105.763 85.9869C105.763 84.9403 104.911 84.0892 103.865 84.0892C102.818 84.0892 101.967 84.9403 101.967 85.9869C101.967 87.0335 102.818 87.8846 103.865 87.8846C104.911 87.8846 105.763 87.0335 105.763 85.9869Z" fill="white"/>
<path d="M75.6257 106.978C70.739 106.978 66.7604 103.004 66.7604 98.117V89.5001C66.7604 84.6134 70.7349 80.6348 75.6257 80.6348C80.5165 80.6348 84.487 84.6093 84.487 89.5001V98.117C84.487 103.004 80.5124 106.978 75.6257 106.978Z" fill="white"/>
<path fill-rule="evenodd" clip-rule="evenodd" d="M75.6277 109.035C69.6065 109.035 64.7059 104.141 64.7059 98.1177V89.5007C64.7059 83.4789 69.6005 78.579 75.6277 78.579C81.6555 78.579 86.5454 83.4754 86.5454 89.5007V98.1177C86.5454 104.14 81.6502 109.035 75.6277 109.035ZM66.7624 98.1177C66.7624 103.004 70.741 106.979 75.6277 106.979C80.5144 106.979 84.489 103.004 84.489 98.1177V89.5007C84.489 84.6099 80.5185 80.6354 75.6277 80.6354C70.7369 80.6354 66.7624 84.614 66.7624 89.5007V98.1177Z" fill="#3C008A"/>
<path d="M75.6269 81.4496C80.0656 81.4496 83.6737 85.0617 83.6737 89.4964V98.1133C83.6737 102.552 80.0616 106.16 75.6228 106.16C71.184 106.16 67.5719 102.548 67.5719 98.1133V89.4964C67.5719 85.0576 71.184 81.4496 75.6228 81.4496M75.6228 79.8207C70.28 79.8207 65.943 84.1536 65.943 89.4964V98.1133C65.943 103.46 70.2759 107.789 75.6228 107.789C80.9656 107.789 85.2985 103.456 85.2985 98.1133V89.4964C85.2985 84.1495 80.9656 79.8207 75.6228 79.8207Z" fill="#3C008A"/>
<path d="M79.211 88.1734C79.211 86.1943 77.6066 84.5898 75.6274 84.5898C73.6483 84.5898 72.0438 86.1943 72.0438 88.1734V93.9724C72.0438 95.9515 73.6483 97.556 75.6274 97.556C77.6066 97.556 79.211 95.9515 79.211 93.9724V88.1734Z" fill="#1C1C1C"/>
<path d="M79.0153 85.9869C79.0153 84.9403 78.1642 84.0892 77.1177 84.0892C76.0711 84.0892 75.22 84.9403 75.22 85.9869C75.22 87.0335 76.0711 87.8846 77.1177 87.8846C78.1642 87.8846 79.0153 87.0335 79.0153 85.9869Z" fill="white"/>
<path fill-rule="evenodd" clip-rule="evenodd" d="M99.0822 70.9289C98.3582 71.3501 97.4271 71.116 96.9896 70.3973C96.5468 69.6697 96.7776 68.7208 97.5053 68.2779L98.3071 69.5954C97.5053 68.2779 97.506 68.2775 97.5067 68.2771L97.5083 68.2761L97.5114 68.2742L97.5182 68.2701L97.5341 68.2608C97.5456 68.2541 97.559 68.2464 97.5743 68.2378C97.6048 68.2207 97.6429 68.2002 97.6882 68.1772C97.7787 68.1312 97.899 68.0748 98.0464 68.0161C98.3403 67.8991 98.7496 67.7699 99.2512 67.6987C100.275 67.5534 101.636 67.6583 103.101 68.5118M99.0822 70.9289C99.0832 70.9284 99.0844 70.9277 99.0858 70.927C99.1002 70.9197 99.1348 70.9029 99.1873 70.882C99.2935 70.8397 99.4646 70.784 99.6848 70.7528C100.104 70.6932 100.752 70.7128 101.548 71.1772L101.549 71.1776C102.548 71.759 102.849 72.3227 102.951 72.6064C103.008 72.7637 103.02 72.8836 103.023 72.9448C103.023 72.9609 103.023 72.9728 103.023 72.9801C102.905 73.7936 103.45 74.5624 104.265 74.7155C105.102 74.8726 105.908 74.3214 106.066 73.4842L104.55 73.1996C106.066 73.4842 106.066 73.4831 106.066 73.482L106.066 73.4797L106.067 73.475L106.069 73.465L106.073 73.4427C106.075 73.4269 106.078 73.4089 106.081 73.389C106.086 73.3491 106.092 73.3012 106.097 73.2459C106.106 73.1353 106.112 72.994 106.105 72.8273C106.092 72.4936 106.031 72.0557 105.854 71.5616C105.487 70.5425 104.676 69.4288 103.102 68.5122" fill="#3C008A"/>
<path fill-rule="evenodd" clip-rule="evenodd" d="M74.5261 74.5522C74.5289 75.3898 73.8606 76.0792 73.0194 76.0986C72.1679 76.1184 71.4616 75.444 71.4419 74.5924L72.9838 74.5567C71.4419 74.5924 71.4418 74.5916 71.4418 74.5907L71.4418 74.5889L71.4417 74.5853L71.4416 74.5773L71.4414 74.5589C71.4413 74.5456 71.4414 74.5301 71.4416 74.5126C71.4421 74.4776 71.4433 74.4344 71.446 74.3836C71.4515 74.2822 71.4628 74.1499 71.4856 73.9928C71.5313 73.6798 71.6241 73.2608 71.8132 72.7908C72.1992 71.8315 72.9708 70.705 74.4422 69.8633M74.5261 74.5522C74.5261 74.5511 74.5262 74.5497 74.5263 74.5481C74.5272 74.532 74.5299 74.4937 74.538 74.4377C74.5545 74.3247 74.5918 74.1486 74.6749 73.9423C74.8331 73.5491 75.1737 72.9984 75.9742 72.5407L75.9748 72.5403C76.9778 71.9661 77.6166 71.9869 77.9133 72.0403C78.0779 72.0699 78.1881 72.119 78.2423 72.1476C78.2565 72.1551 78.2667 72.1611 78.2729 72.1649C78.9186 72.6735 79.8565 72.5866 80.3968 71.9569C80.9515 71.3105 80.8772 70.3368 80.2307 69.7821L79.2264 70.9526C80.2307 69.7821 80.2299 69.7814 80.229 69.7806L80.2273 69.7791L80.2236 69.776L80.2159 69.7695L80.1985 69.7551C80.186 69.7449 80.1718 69.7336 80.156 69.7212C80.1242 69.6966 80.0855 69.6678 80.0399 69.6361C79.9487 69.5727 79.8292 69.4972 79.6817 69.4194C79.3863 69.2635 78.9765 69.0975 78.4597 69.0044C77.3937 68.8126 76.0238 68.958 74.4429 69.8629" fill="#3C008A"/>
<path fill-rule="evenodd" clip-rule="evenodd" d="M91.3691 109.811C91.7854 109.084 92.7089 108.821 93.4471 109.225C94.1944 109.634 94.4689 110.571 94.0602 111.318L92.707 110.578C94.0602 111.318 94.0598 111.319 94.0594 111.32L94.0585 111.321L94.0567 111.325L94.0529 111.332L94.0438 111.348C94.0372 111.359 94.0295 111.372 94.0205 111.388C94.0026 111.418 93.9799 111.454 93.9522 111.497C93.8968 111.582 93.8208 111.691 93.7225 111.816C93.5265 112.064 93.2366 112.38 92.8378 112.693C92.0238 113.331 90.7924 113.92 89.0973 113.914M91.3691 109.811C91.3685 109.812 91.3677 109.813 91.3669 109.814C91.3581 109.828 91.3365 109.86 91.3015 109.904C91.2307 109.994 91.1104 110.128 90.9353 110.265C90.6017 110.526 90.0313 110.833 89.1092 110.829L89.1084 110.829C87.9528 110.825 87.41 110.487 87.1797 110.293C87.052 110.185 86.9811 110.087 86.9485 110.035C86.9399 110.022 86.934 110.011 86.9306 110.005C86.6257 109.242 85.77 108.848 84.9872 109.123C84.1836 109.406 83.7612 110.286 84.0436 111.09L85.4987 110.578C84.0436 111.09 84.044 111.091 84.0444 111.092L84.0452 111.094L84.0468 111.099L84.0502 111.108L84.0581 111.129C84.0638 111.144 84.0704 111.161 84.078 111.18C84.0931 111.217 84.1123 111.261 84.1359 111.312C84.1832 111.412 84.2489 111.537 84.3378 111.678C84.5156 111.961 84.7875 112.31 85.1886 112.649C86.0159 113.348 87.2749 113.907 89.0965 113.914" fill="#3C008A"/>
<path d="M89.1028 122.127V147.839C89.1028 159.616 98.6839 169.197 110.461 169.197C114.372 169.197 117.54 166.029 117.54 162.119C117.54 158.208 114.372 155.04 110.461 155.04C106.49 155.04 103.26 151.81 103.26 147.839V122.127" fill="#7000FF"/>
<path fill-rule="evenodd" clip-rule="evenodd" d="M89.103 120.584C89.9548 120.584 90.6453 121.275 90.6453 122.127V147.838C90.6453 158.764 99.5359 167.655 110.462 167.655C113.52 167.655 115.998 165.177 115.998 162.118C115.998 159.06 113.52 156.582 110.462 156.582C105.638 156.582 101.718 152.662 101.718 147.838V122.127C101.718 121.275 102.409 120.584 103.26 120.584C104.112 120.584 104.803 121.275 104.803 122.127V147.838C104.803 150.958 107.342 153.497 110.462 153.497C115.224 153.497 119.083 157.356 119.083 162.118C119.083 166.88 115.224 170.739 110.462 170.739C97.8323 170.739 87.5607 160.468 87.5607 147.838V122.127C87.5607 121.275 88.2512 120.584 89.103 120.584Z" fill="#3C008A"/>
<path d="M77.1624 120.161V145.873C77.1624 157.65 86.7435 167.231 98.5209 167.231C102.431 167.231 105.6 164.063 105.6 160.152C105.6 156.242 102.431 153.074 98.5209 153.074C94.5495 153.074 91.3198 149.844 91.3198 145.873V120.161" fill="#7000FF"/>
<path fill-rule="evenodd" clip-rule="evenodd" d="M77.1627 118.618C78.0145 118.618 78.705 119.309 78.705 120.16V145.872C78.705 156.798 87.5956 165.688 98.5212 165.688C101.58 165.688 104.058 163.21 104.058 160.152C104.058 157.093 101.58 154.615 98.5212 154.615C93.698 154.615 89.7778 150.695 89.7778 145.872V120.16C89.7778 119.309 90.4683 118.618 91.3201 118.618C92.1719 118.618 92.8624 119.309 92.8624 120.16V145.872C92.8624 148.992 95.4016 151.531 98.5212 151.531C103.283 151.531 107.142 155.39 107.142 160.152C107.142 164.914 103.283 168.773 98.5212 168.773C85.892 168.773 75.6204 158.501 75.6204 145.872L75.6204 120.16C75.6204 119.309 76.3109 118.618 77.1627 118.618Z" fill="#3C008A"/>
<path d="M56.3101 121.464V147.619C56.3101 159.598 46.5633 169.344 34.5806 169.344C30.602 169.344 27.3795 166.122 27.3795 162.143C27.3795 158.165 30.602 154.942 34.5806 154.942C38.6205 154.942 41.9078 151.655 41.9078 147.619V121.464" fill="#7000FF"/>
<path fill-rule="evenodd" clip-rule="evenodd" d="M41.9073 119.921C42.7591 119.921 43.4496 120.612 43.4496 121.463V147.618C43.4496 152.506 39.4713 156.484 34.5801 156.484C31.4533 156.484 28.9213 159.016 28.9213 162.143C28.9213 165.269 31.4533 167.801 34.5801 167.801C45.7112 167.801 54.7672 158.745 54.7672 147.618V121.463H57.8519V147.618C57.8519 160.449 47.4144 170.886 34.5801 170.886C29.7497 170.886 25.8367 166.973 25.8367 162.143C25.8367 157.312 29.7497 153.399 34.5801 153.399C37.7686 153.399 40.3649 150.802 40.3649 147.618V121.463C40.3649 120.612 41.0555 119.921 41.9073 119.921Z" fill="#3C008A"/>
<path d="M62.1987 120.893V147.047C62.1987 159.026 52.452 168.773 40.4693 168.773C36.4907 168.773 33.2682 165.551 33.2682 161.572C33.2682 157.593 36.4907 154.371 40.4693 154.371C44.5091 154.371 47.7965 151.084 47.7965 147.047V120.893" fill="#7000FF"/>
<path fill-rule="evenodd" clip-rule="evenodd" d="M47.7959 119.35C48.6477 119.35 49.3383 120.04 49.3383 120.892V147.047C49.3383 151.935 45.3599 155.913 40.4688 155.913C37.342 155.913 34.81 158.445 34.81 161.571C34.81 164.698 37.342 167.23 40.4688 167.23C51.5998 167.23 60.6559 158.174 60.6559 147.047V120.892C60.6559 120.04 61.3464 119.35 62.1982 119.35C63.05 119.35 63.7405 120.04 63.7405 120.892V147.047C63.7405 159.878 53.3031 170.315 40.4688 170.315C35.6384 170.315 31.7253 166.402 31.7253 161.571C31.7253 156.741 35.6384 152.828 40.4688 152.828C43.6573 152.828 46.2536 150.231 46.2536 147.047V120.892C46.2536 120.04 46.9441 119.35 47.7959 119.35Z" fill="#3C008A"/>
<path d="M77.2743 120.893V146.604C77.2743 158.382 67.6932 167.963 55.9157 167.963C52.0055 167.963 48.837 164.795 48.837 160.884C48.837 156.974 52.0055 153.806 55.9157 153.806C59.8872 153.806 63.1169 150.576 63.1169 146.604V120.893" fill="#7000FF"/>
<path fill-rule="evenodd" clip-rule="evenodd" d="M77.2724 119.35C76.4206 119.35 75.73 120.04 75.73 120.892V146.604C75.73 157.529 66.8395 166.42 55.9138 166.42C52.8554 166.42 50.3774 163.942 50.3774 160.884C50.3774 157.825 52.8554 155.347 55.9138 155.347C60.737 155.347 64.6573 151.427 64.6573 146.604V120.892C64.6573 120.04 63.9668 119.35 63.115 119.35C62.2632 119.35 61.5726 120.04 61.5726 120.892V146.604C61.5726 149.723 59.0334 152.263 55.9138 152.263C51.1518 152.263 47.2928 156.122 47.2928 160.884C47.2928 165.646 51.1518 169.505 55.9138 169.505C68.5431 169.505 78.8147 159.233 78.8147 146.604V120.892C78.8147 120.04 78.1242 119.35 77.2724 119.35Z" fill="#3C008A"/>
<path d="M27.2531 47.553C25.8058 50.0599 22.6002 50.9189 20.0933 49.4715C17.5864 48.0242 16.7275 44.8186 18.1748 42.3117C19.6222 39.8048 22.8278 38.9459 25.3347 40.3932C27.8415 41.8406 28.7005 45.0462 27.2531 47.553Z" stroke="#D9D9D9" stroke-width="1.5"/>
<rect x="10.5416" y="6.86951" width="39.0857" height="38.853" rx="3.25" fill="white" stroke="#D9D9D9" stroke-width="1.5"/>
<g clip-path="url(#clip0_185_6986)">
<path d="M37.6492 28.7034L22.0923 28.7034C21.3436 28.7034 20.7391 28.0816 20.7391 27.3114C20.7391 26.5411 21.3436 25.9193 22.0923 25.9193L37.6492 25.9193C38.398 25.9193 39.0024 26.5411 39.0024 27.3114C39.0024 28.0816 38.398 28.7034 37.6492 28.7034Z" fill="#D3D3D3"/>
<path d="M22.3133 36.4804C21.0683 36.4804 20.058 35.441 20.058 34.1603L20.058 20.4672C20.058 19.1865 21.0684 18.1471 22.3133 18.1471C23.5582 18.1471 24.5685 19.1865 24.5685 20.4672L24.5685 34.1603C24.5685 35.441 23.5582 36.4804 22.3133 36.4804Z" fill="#7000FF"/>
<path d="M18.7049 33.6962C17.46 33.6962 16.4496 32.6568 16.4496 31.3761L16.4496 23.2512C16.4496 21.9705 17.46 20.9312 18.7049 20.9312C19.9498 20.9312 20.9602 21.9705 20.9602 23.2512L20.9602 31.3761C20.9601 32.6568 19.9498 33.6962 18.7049 33.6962Z" fill="#7000FF"/>
<path d="M37.6492 36.4804C36.4043 36.4804 35.3939 35.441 35.3939 34.1603L35.3939 20.4672C35.3939 19.1865 36.4043 18.1471 37.6492 18.1471C38.8941 18.1471 39.9045 19.1865 39.9045 20.4672L39.9045 34.1603C39.9045 35.441 38.8941 36.4804 37.6492 36.4804Z" fill="#7000FF"/>
<path d="M41.2577 33.6962C40.0128 33.6962 39.0024 32.6568 39.0024 31.3761L39.0024 23.2512C39.0024 21.9705 40.0128 20.9312 41.2577 20.9312C42.5026 20.9312 43.513 21.9705 43.513 23.2512L43.513 31.3761C43.513 32.6568 42.5026 33.6962 41.2577 33.6962Z" fill="#7000FF"/>
<g opacity="0.6">
<path d="M22.3134 23.7153C21.8172 23.7153 21.4113 23.2977 21.4113 22.7873L21.4113 20.4672C21.4113 19.9568 21.8172 19.5392 22.3134 19.5392C22.8095 19.5392 23.2155 19.9568 23.2155 20.4672L23.2155 22.7873C23.2155 23.2977 22.8095 23.7153 22.3134 23.7153Z" fill="white"/>
</g>
<g opacity="0.6">
<path d="M37.6492 23.7153C37.153 23.7153 36.7471 23.2977 36.7471 22.7873L36.7471 20.4672C36.7471 19.9568 37.153 19.5392 37.6492 19.5392C38.1453 19.5392 38.5513 19.9568 38.5513 20.4672L38.5513 22.7873C38.5513 23.2977 38.1453 23.7153 37.6492 23.7153Z" fill="white"/>
</g>
<g opacity="0.6">
<path d="M41.2577 26.4994C40.7615 26.4994 40.3556 26.0818 40.3556 25.5714L40.3556 23.2513C40.3556 22.7409 40.7615 22.3232 41.2577 22.3232C41.7539 22.3232 42.1598 22.7409 42.1598 23.2513L42.1598 25.5714C42.1598 26.0818 41.7539 26.4994 41.2577 26.4994Z" fill="white"/>
</g>
<g opacity="0.6">
<path d="M18.7048 26.4994C18.2087 26.4994 17.8027 26.0818 17.8027 25.5714L17.8027 23.2513C17.8027 22.7409 18.2087 22.3232 18.7048 22.3232C19.201 22.3232 19.607 22.7409 19.607 23.2513L19.607 25.5714C19.607 26.0818 19.201 26.4994 18.7048 26.4994Z" fill="white"/>
</g>
</g>
<path d="M25.3554 61.9264C25.3554 64.4759 23.2886 66.5427 20.7391 66.5427C18.1896 66.5427 16.1228 64.4759 16.1228 61.9264C16.1228 59.3769 18.1896 57.3101 20.7391 57.3101C23.2886 57.3101 25.3554 59.3769 25.3554 61.9264Z" stroke="#D9D9D9" stroke-width="1.5"/>
<path d="M35.0964 71.9779C35.0964 73.9018 33.5368 75.4614 31.6129 75.4614C29.6891 75.4614 28.1295 73.9018 28.1295 71.9779C28.1295 70.0541 29.6891 68.4945 31.6129 68.4945C33.5368 68.4945 35.0964 70.0541 35.0964 71.9779Z" stroke="#D9D9D9" stroke-width="1.5"/>
<defs>
<clipPath id="clip0_185_6986">
<rect width="27.0634" height="18.3333" fill="white" transform="translate(16.4496 18.1471)"/>
</clipPath>
</defs>
</svg>
