<svg width="152" height="95" viewBox="0 0 152 95" fill="none" xmlns="http://www.w3.org/2000/svg">
<path d="M60.2548 107.828L94.9029 96.9644C110.774 91.9883 119.526 75.1245 114.415 59.3709C112.718 54.1406 107.073 51.2411 101.804 52.8932C96.5343 54.5453 93.6398 60.1222 95.3369 65.3525C97.0605 70.6647 94.11 76.3494 88.7583 78.0274L54.1102 88.8908" fill="#7000FF"/>
<path fill-rule="evenodd" clip-rule="evenodd" d="M52.0329 89.5435C51.6632 88.4042 52.294 87.1889 53.4418 86.8291L88.088 75.9666C92.2917 74.6486 94.6112 70.1797 93.2574 66.0073C91.1907 59.6381 94.7159 52.8464 101.133 50.8346C107.549 48.8228 114.424 52.3538 116.491 58.723C121.972 75.6145 112.589 93.6922 95.571 99.0277L60.9248 109.89L59.586 105.764L94.2323 94.902C108.955 90.2862 117.076 74.6391 112.334 60.0262C111.007 55.9356 106.593 53.6682 102.471 54.9603C98.3502 56.2524 96.0866 60.6135 97.4139 64.7041C99.5071 71.1551 95.926 78.0546 89.4268 80.0923L54.7805 90.9547C53.6327 91.3146 52.4026 90.6828 52.0329 89.5435Z" fill="#3C008A"/>
<rect width="5.14646" height="18.8172" rx="2.57323" transform="matrix(-0.981163 0.20926 0.215446 0.973188 103.137 42.5914)" fill="#CDCDCD"/>
<path d="M95.2864 61.4766C95.4573 63.7687 96.9574 68.2743 104.184 65.847C108.193 64.5009 107.819 59.0601 101.97 60.5625" stroke="#3C008A" stroke-width="4" stroke-linecap="round"/>
<path d="M70.5699 31.4697C69.8648 34.2234 70.6981 37.1481 72.7561 39.1422L85.6382 51.625C87.6963 53.6193 90.6665 54.38 93.43 53.6204L110.725 48.8665C113.488 48.107 115.625 45.9425 116.33 43.1887L120.744 25.9518C121.449 23.1982 120.616 20.2734 118.558 18.2793L105.676 5.79652C103.618 3.80219 100.647 3.04154 97.884 3.80113L80.589 8.55499C77.8256 9.31457 75.6888 11.479 74.9836 14.2329L70.5699 31.4697Z" fill="#3C008A"/>
<path d="M75.6998 31.0936C75.171 33.1588 75.796 35.3523 77.3395 36.8479L87.8515 47.0341C89.3951 48.5298 91.6228 49.1003 93.6953 48.5306L107.808 44.6514C109.881 44.0817 111.484 42.4584 112.012 40.393L115.614 26.3274C116.143 24.2622 115.518 22.0687 113.974 20.573L103.462 10.3869C101.919 8.89115 99.6912 8.32067 97.6186 8.89035L83.5056 12.7696C81.433 13.3393 79.8304 14.9626 79.3015 17.028L75.6998 31.0936Z" fill="white"/>
<path d="M85.6427 38.8475L81.9231 25.7836L86.9122 24.4133C88.137 24.0769 89.1375 23.9537 89.9138 24.0439C90.69 24.134 91.2983 24.4151 91.7385 24.8871C92.175 25.3463 92.5062 25.9724 92.7319 26.7653C92.9031 27.3664 92.9382 27.929 92.8372 28.4531C92.7326 28.9645 92.504 29.4065 92.1514 29.7791C91.7988 30.1517 91.3324 30.4177 90.7523 30.5771L90.6594 30.251C91.4071 30.0456 92.042 30.0298 92.5641 30.2035C93.0826 30.3645 93.504 30.6486 93.8285 31.0559C94.1529 31.4632 94.388 31.9226 94.5337 32.4342C94.8869 33.6747 94.7705 34.7063 94.1847 35.5291C93.5952 36.3391 92.5334 36.9548 90.9993 37.3762L85.6427 38.8475ZM85.882 26.4336L88.6458 36.1404L87.0183 34.8914L89.9383 34.0893C90.2735 33.9973 90.5242 33.8526 90.6904 33.6552C90.8695 33.4544 90.9154 33.2004 90.828 32.8935C90.7406 32.5866 90.5738 32.3911 90.3274 32.3071C90.0811 32.2231 89.7968 32.2253 89.4745 32.3138L86.5158 33.1265L85.691 30.2298L88.3983 29.4862C88.7851 29.38 89.0487 29.2317 89.1891 29.0415C89.3425 28.8477 89.3754 28.5973 89.288 28.2904C89.2006 27.9835 89.0402 27.7862 88.8068 27.6987C88.5863 27.6076 88.2826 27.6151 87.8958 27.7213L85.2465 28.449L85.882 26.4336ZM100.348 33.0088L97.5791 23.2829L101.099 22.3162L103.868 32.0421L100.348 33.0088ZM96.3917 30.6828L95.425 27.2873L105.075 24.6369L106.041 28.0323L96.3917 30.6828Z" fill="#3A179D"/>
<path d="M15.0116 -10.9999C40.3356 -10.9999 60.8936 9.45535 60.8936 34.6528V114.174H-30.8757L-30.8757 34.6579C-30.8757 9.46048 -10.3125 -10.9999 15.0116 -10.9999Z" fill="#7000FF"/>
<path fill-rule="evenodd" clip-rule="evenodd" d="M56.5237 34.6528C56.5237 11.8093 37.8919 -6.68361 15.0116 -6.68361C-7.86881 -6.68361 -26.5057 11.8144 -26.5057 34.6579V109.857H56.5237V34.6528ZM60.8936 34.6528C60.8936 9.45535 40.3356 -10.9999 15.0116 -10.9999C-10.3125 -10.9999 -30.8757 9.46048 -30.8757 34.6579V114.174H60.8936V34.6528Z" fill="#3C008A"/>
<path d="M57.1628 80.9559C50.2399 80.9559 44.6035 75.3944 44.6035 68.5564V56.4988C44.6035 49.6608 50.2341 44.0936 57.1628 44.0936C64.0915 44.0936 69.7164 49.6551 69.7164 56.4988V68.5564C69.7164 75.3944 64.0858 80.9559 57.1628 80.9559Z" fill="white"/>
<path fill-rule="evenodd" clip-rule="evenodd" d="M57.1623 83.8335C48.6321 83.8335 41.6896 76.9854 41.6896 68.5564V56.4988C41.6896 48.0725 48.6237 41.2161 57.1623 41.2161C65.7017 41.2161 72.6292 48.0676 72.6292 56.4988V68.5564C72.6292 76.9836 65.6942 83.8335 57.1623 83.8335ZM44.6029 68.5564C44.6029 75.3944 50.2393 80.956 57.1623 80.956C64.0852 80.956 69.7159 75.3944 69.7159 68.5564V56.4988C69.7159 49.6552 64.091 44.0936 57.1623 44.0936C50.2336 44.0936 44.6029 49.6609 44.6029 56.4988V68.5564Z" fill="#3C008A"/>
<path d="M57.1632 45.2332C63.4515 45.2332 68.5629 50.2876 68.5629 56.4931V68.5507C68.5629 74.7619 63.4457 79.8106 57.1574 79.8106C50.8691 79.8106 45.7519 74.7562 45.7519 68.5507V56.4931C45.7519 50.2819 50.8691 45.2332 57.1574 45.2332M57.1574 42.9539C49.5883 42.9539 43.4442 49.0169 43.4442 56.4931V68.5507C43.4442 76.0326 49.5825 82.0899 57.1574 82.0899C64.7265 82.0899 70.8648 76.0269 70.8648 68.5507V56.4931C70.8648 49.0112 64.7265 42.9539 57.1574 42.9539Z" fill="#3C008A"/>
<path d="M62.2398 54.6407C62.2398 51.8713 59.9669 49.6262 57.163 49.6262C54.3592 49.6262 52.0862 51.8713 52.0862 54.6407V62.7551C52.0862 65.5246 54.3592 67.7696 57.163 67.7696C59.9669 67.7696 62.2398 65.5246 62.2398 62.7551V54.6407Z" fill="#1C1C1C"/>
<path d="M61.9636 51.581C61.9636 50.1165 60.7579 48.9255 59.2752 48.9255C57.7926 48.9255 56.5868 50.1165 56.5868 51.581C56.5868 53.0454 57.7926 54.2364 59.2752 54.2364C60.7579 54.2364 61.9636 53.0454 61.9636 51.581Z" fill="white"/>
<path d="M19.2681 80.9559C12.3452 80.9559 6.70879 75.3944 6.70879 68.5564V56.4988C6.70879 49.6608 12.3394 44.0936 19.2681 44.0936C26.1968 44.0936 31.8217 49.6551 31.8217 56.4988V68.5564C31.8217 75.3944 26.1911 80.9559 19.2681 80.9559Z" fill="white"/>
<path fill-rule="evenodd" clip-rule="evenodd" d="M19.2711 83.8335C10.741 83.8335 3.79846 76.9854 3.79846 68.5564V56.4988C3.79846 48.0725 10.7326 41.2161 19.2711 41.2161C27.8105 41.2161 34.738 48.0676 34.738 56.4988V68.5564C34.738 76.9836 27.803 83.8335 19.2711 83.8335ZM6.71177 68.5564C6.71177 75.3944 12.3482 80.956 19.2711 80.956C26.1941 80.956 31.8247 75.3944 31.8247 68.5564V56.4988C31.8247 49.6552 26.1998 44.0936 19.2711 44.0936C12.3424 44.0936 6.71177 49.6609 6.71177 56.4988V68.5564Z" fill="#3C008A"/>
<path d="M19.2697 45.2332C25.5581 45.2332 30.6695 50.2876 30.6695 56.4931V68.5507C30.6695 74.7619 25.5523 79.8106 19.264 79.8106C12.9756 79.8106 7.85843 74.7562 7.85843 68.5507V56.4931C7.85843 50.2819 12.9756 45.2332 19.264 45.2332M19.264 42.9539C11.6949 42.9539 5.55078 49.0169 5.55078 56.4931V68.5507C5.55078 76.0326 11.6891 82.0899 19.264 82.0899C26.833 82.0899 32.9714 76.0269 32.9714 68.5507V56.4931C32.9714 49.0112 26.833 42.9539 19.264 42.9539Z" fill="#3C008A"/>
<path d="M24.348 54.6407C24.348 51.8713 22.075 49.6262 19.2712 49.6262C16.4673 49.6262 14.1944 51.8713 14.1944 54.6407V62.7551C14.1944 65.5246 16.4673 67.7696 19.2712 67.7696C22.075 67.7696 24.348 65.5246 24.348 62.7551V54.6407Z" fill="#1C1C1C"/>
<path d="M24.0705 51.581C24.0705 50.1165 22.8647 48.9255 21.3821 48.9255C19.8994 48.9255 18.6937 50.1165 18.6937 51.581C18.6937 53.0454 19.8994 54.2364 21.3821 54.2364C22.8647 54.2364 24.0705 53.0454 24.0705 51.581Z" fill="white"/>
<path d="M2.64349 24.0915C4.43817 24.0915 5.89302 22.6544 5.89302 20.8818C5.89302 19.1091 4.43817 17.6721 2.64349 17.6721C0.848817 17.6721 -0.606064 19.1091 -0.606064 20.8818C-0.606064 22.6544 0.848817 24.0915 2.64349 24.0915Z" fill="#FEE702"/>
<path fill-rule="evenodd" clip-rule="evenodd" d="M53.2472 33.5882C52.6573 34.6051 51.3491 34.973 50.3033 34.4081C49.2445 33.8361 48.8557 32.5248 49.4347 31.479L51.3517 32.5146C49.4347 31.479 49.4353 31.478 49.4359 31.4769L49.4371 31.4747L49.4396 31.4702L49.4451 31.4605L49.4579 31.4381C49.4672 31.4219 49.4782 31.4032 49.4909 31.3821C49.5163 31.3401 49.5484 31.2885 49.5877 31.2289C49.6662 31.1098 49.7738 30.9573 49.9131 30.783C50.1908 30.4357 50.6015 29.9928 51.1665 29.5556C52.3196 28.6632 54.0641 27.8378 56.4656 27.8474M53.2472 33.5882C53.248 33.5868 53.2491 33.5852 53.2503 33.5834C53.2628 33.5645 53.2933 33.5199 53.3429 33.4578C53.4432 33.3323 53.6137 33.1451 53.8617 32.9532C54.3343 32.5874 55.1424 32.1583 56.4487 32.1637L56.4497 32.1637C58.0869 32.1695 58.8559 32.6417 59.1822 32.9141C59.3631 33.0651 59.4635 33.2016 59.5098 33.2742C59.5219 33.2932 59.5302 33.3077 59.5351 33.3166C59.967 34.3847 61.1793 34.9356 62.2882 34.5506C63.4266 34.1553 64.0251 32.9234 63.625 31.7989L61.5636 32.5146C63.625 31.7989 63.6244 31.7974 63.6239 31.7959L63.6228 31.7928L63.6205 31.7866L63.6156 31.7732L63.6045 31.7436C63.5964 31.7225 63.5871 31.6989 63.5763 31.6728C63.5548 31.6207 63.5277 31.5587 63.4942 31.4884C63.4273 31.3479 63.3341 31.1727 63.2083 30.9752C62.9563 30.5797 62.5712 30.0917 62.0029 29.6174C60.831 28.6391 59.0473 27.8568 56.4667 27.8474" fill="#3C008A"/>
<path fill-rule="evenodd" clip-rule="evenodd" d="M16.1019 34.3073C15.512 35.3242 14.2038 35.6921 13.158 35.1272C12.0992 34.5552 11.7103 33.2439 12.2894 32.1981L14.2064 33.2337C12.2894 32.1981 12.29 32.1971 12.2905 32.196L12.2917 32.1939L12.2943 32.1894L12.2997 32.1796L12.3125 32.1572C12.3219 32.141 12.3329 32.1223 12.3456 32.1013C12.3709 32.0592 12.4031 32.0076 12.4424 31.948C12.5209 31.8289 12.6285 31.6765 12.7678 31.5022C13.0455 31.1548 13.4562 30.7119 14.0211 30.2747C15.1742 29.3823 16.9188 28.557 19.3203 28.5665M16.1019 34.3073C16.1027 34.3059 16.1037 34.3044 16.105 34.3025C16.1174 34.2836 16.148 34.239 16.1976 34.1769C16.2979 34.0514 16.4684 33.8642 16.7164 33.6723C17.189 33.3065 17.997 32.8775 19.3033 32.8828L19.3044 32.8828C20.9416 32.8887 21.7106 33.3609 22.0369 33.6332C22.2178 33.7842 22.3182 33.9207 22.3644 33.9933C22.3766 34.0123 22.3849 34.0268 22.3898 34.0357C22.8217 35.1038 24.0339 35.6547 25.1429 35.2697C26.2813 34.8745 26.8798 33.6425 26.4796 32.518L24.4183 33.2337C26.4796 32.518 26.4791 32.5165 26.4786 32.515L26.4775 32.512L26.4752 32.5057L26.4703 32.4923L26.4592 32.4627C26.4511 32.4416 26.4417 32.418 26.431 32.3919C26.4095 32.3398 26.3824 32.2778 26.3489 32.2075C26.2819 32.067 26.1888 31.8918 26.063 31.6943C25.811 31.2988 25.4259 30.8108 24.8576 30.3365C23.6856 29.3582 21.902 28.576 19.3214 28.5665" fill="#3C008A"/>
<path fill-rule="evenodd" clip-rule="evenodd" d="M40.7324 84.3244C41.3222 83.3075 42.6304 82.9396 43.6763 83.5045C44.735 84.0765 45.1239 85.3878 44.5448 86.4336L42.6278 85.398C44.5448 86.4336 44.5443 86.4346 44.5437 86.4357L44.5425 86.4379L44.54 86.4424L44.5345 86.4521L44.5217 86.4745C44.5123 86.4907 44.5013 86.5094 44.4886 86.5305C44.4633 86.5725 44.4311 86.6241 44.3918 86.6837C44.3134 86.8028 44.2057 86.9553 44.0664 87.1296C43.7887 87.4769 43.378 87.9198 42.8131 88.357C41.66 89.2494 39.9154 90.0748 37.5139 90.0652M40.7324 84.3244C40.7315 84.3258 40.7305 84.3274 40.7292 84.3292C40.7168 84.3481 40.6862 84.3927 40.6366 84.4548C40.5363 84.5803 40.3659 84.7675 40.1179 84.9594C39.6452 85.3252 38.8372 85.7543 37.5309 85.7489L37.5298 85.7489C35.8926 85.7431 35.1236 85.2709 34.7973 84.9985C34.6164 84.8475 34.516 84.711 34.4698 84.6384C34.4576 84.6194 34.4493 84.6049 34.4445 84.596C34.0125 83.5279 32.8003 82.977 31.6913 83.362C30.5529 83.7573 29.9544 84.9892 30.3546 86.1137L32.4159 85.398C30.3546 86.1137 30.3551 86.1152 30.3556 86.1167L30.3567 86.1197L30.359 86.126L30.3639 86.1394L30.375 86.169C30.3831 86.1901 30.3925 86.2137 30.4032 86.2398C30.4247 86.2919 30.4518 86.3539 30.4853 86.4242C30.5523 86.5647 30.6454 86.7399 30.7713 86.9374C31.0232 87.3329 31.4084 87.8209 31.9766 88.2952C33.1486 89.2735 34.9322 90.0558 37.5128 90.0652" fill="#3C008A"/>
</svg>
