<svg width="335" height="95" viewBox="0 0 335 95" fill="none" xmlns="http://www.w3.org/2000/svg">
<g clip-path="url(#clip0_469_11027)">
<path d="M176.711 37.5115H182.804V40.0819H176.711V37.5115ZM173.874 42.5L178.482 29.5338H181.547L185.926 42.5H183.108L179.567 31.4378H180.481L176.673 42.5H173.874ZM194.7 33.1894L191.348 42.5H188.664L185.141 33.1894H187.997L190.377 40.2533H189.616L191.901 33.1894H194.7ZM199.592 42.6714C198.666 42.6714 197.847 42.4746 197.136 42.0811C196.438 41.6876 195.892 41.1291 195.499 40.4056C195.118 39.6821 194.928 38.8316 194.928 37.8542C194.928 36.8895 195.118 36.0391 195.499 35.3029C195.892 34.5667 196.438 33.9955 197.136 33.5893C197.847 33.1704 198.666 32.961 199.592 32.961C200.544 32.961 201.369 33.1767 202.068 33.6083C202.766 34.0399 203.305 34.6238 203.686 35.36C204.067 36.0835 204.257 36.9022 204.257 37.8162C204.257 37.9812 204.251 38.1398 204.238 38.2922C204.225 38.4445 204.213 38.5651 204.2 38.6539H197.098V36.6738H202.068L201.744 37.4925C201.744 36.7943 201.566 36.2231 201.211 35.7789C200.868 35.3346 200.335 35.1125 199.611 35.1125C198.964 35.1125 198.444 35.3092 198.05 35.7027C197.669 36.0962 197.479 36.6166 197.479 37.264V38.3112C197.479 39.0093 197.676 39.5551 198.069 39.9486C198.475 40.3294 199.034 40.5198 199.745 40.5198C200.341 40.5198 200.811 40.3993 201.154 40.1581C201.509 39.9169 201.807 39.6186 202.049 39.2632L203.933 40.3104C203.527 41.0593 202.956 41.6432 202.22 42.0621C201.484 42.4683 200.608 42.6714 199.592 42.6714ZM207.707 33.1894L208.43 35.7598V42.5H205.65V33.1894H207.707ZM207.821 37.3021L207.345 37.0926V34.9411L207.516 34.7126C207.669 34.4969 207.885 34.2493 208.164 33.9701C208.456 33.6908 208.792 33.456 209.173 33.2656C209.566 33.0625 209.966 32.961 210.372 32.961C210.576 32.961 210.76 32.9737 210.925 32.999C211.09 33.0244 211.223 33.0689 211.324 33.1323V35.6646H210.696C209.884 35.6646 209.243 35.7979 208.773 36.0645C208.316 36.3183 207.999 36.7309 207.821 37.3021ZM215.014 42.7475C214.341 42.7475 213.745 42.6206 213.224 42.3667C212.716 42.1002 212.323 41.7321 212.044 41.2624C211.764 40.7927 211.625 40.2469 211.625 39.625C211.625 38.9649 211.777 38.4064 212.082 37.9494C212.386 37.4798 212.793 37.118 213.3 36.8642C213.821 36.6103 214.398 36.4834 215.033 36.4834C215.96 36.4834 216.708 36.6928 217.28 37.1117C217.851 37.5306 218.232 38.1335 218.422 38.9205L217.223 38.711V36.5405C217.223 36.1978 217.102 35.8995 216.861 35.6456C216.62 35.3917 216.232 35.2648 215.699 35.2648C215.357 35.2648 214.963 35.3092 214.519 35.3981C214.075 35.4742 213.618 35.6266 213.148 35.855L212.329 33.8749C212.888 33.5956 213.484 33.3735 214.119 33.2085C214.766 33.0435 215.426 32.961 216.099 32.961C216.962 32.961 217.686 33.1133 218.27 33.4179C218.854 33.7226 219.285 34.1541 219.564 34.7126C219.856 35.2711 220.002 35.9185 220.002 36.6547V42.5H217.737L217.184 40.6912L218.422 40.3104C218.219 41.072 217.832 41.6686 217.261 42.1002C216.689 42.5317 215.94 42.7475 215.014 42.7475ZM215.871 40.7674C216.29 40.7674 216.62 40.6595 216.861 40.4437C217.115 40.2279 217.242 39.955 217.242 39.625C217.242 39.2695 217.115 38.9903 216.861 38.7872C216.62 38.5841 216.29 38.4826 215.871 38.4826C215.452 38.4826 215.122 38.5841 214.881 38.7872C214.639 38.9903 214.519 39.2695 214.519 39.625C214.519 39.955 214.639 40.2279 214.881 40.4437C215.122 40.6595 215.452 40.7674 215.871 40.7674ZM225.996 46.308C225.501 46.308 224.994 46.2318 224.473 46.0795C223.965 45.9399 223.496 45.6924 223.064 45.337C222.633 44.9942 222.271 44.5373 221.979 43.9661L221.827 43.6424L223.826 42.6142C224.143 43.1093 224.46 43.4647 224.778 43.6805C225.108 43.8963 225.527 44.0042 226.034 44.0042C226.618 44.0042 227.094 43.8138 227.462 43.433C227.831 43.0649 228.015 42.5063 228.015 41.7574V39.2442H228.205V35.5314H228.015L228.719 33.1894H230.794V41.1672C230.794 42.2588 230.604 43.1918 230.223 43.9661C229.842 44.7404 229.29 45.3243 228.567 45.7178C227.856 46.1113 226.999 46.308 225.996 46.308ZM225.635 42.005C224.797 42.005 224.054 41.8146 223.407 41.4338C222.772 41.053 222.265 40.5198 221.884 39.8344C221.516 39.149 221.332 38.3683 221.332 37.4925C221.332 36.6039 221.509 35.8233 221.865 35.1506C222.233 34.4651 222.741 33.932 223.388 33.5512C224.035 33.1577 224.771 32.961 225.597 32.961C226.371 32.961 227.05 33.1514 227.634 33.5322C228.218 33.913 228.675 34.4397 229.005 35.1125C229.335 35.7852 229.5 36.5786 229.5 37.4925C229.5 38.4318 229.341 39.2378 229.024 39.9106C228.706 40.5833 228.256 41.1037 227.672 41.4718C227.101 41.8273 226.422 42.005 225.635 42.005ZM226.168 39.5678C226.752 39.5678 227.228 39.3711 227.596 38.9776C227.977 38.5841 228.167 38.0891 228.167 37.4925C228.167 36.8705 227.977 36.3628 227.596 35.9693C227.228 35.5758 226.752 35.379 226.168 35.379C225.584 35.379 225.101 35.5758 224.721 35.9693C224.353 36.3628 224.169 36.8705 224.169 37.4925C224.169 38.0891 224.353 38.5841 224.721 38.9776C225.101 39.3711 225.584 39.5678 226.168 39.5678ZM236.798 42.6714C235.872 42.6714 235.053 42.4746 234.342 42.0811C233.644 41.6876 233.098 41.1291 232.705 40.4056C232.324 39.6821 232.134 38.8316 232.134 37.8542C232.134 36.8895 232.324 36.0391 232.705 35.3029C233.098 34.5667 233.644 33.9955 234.342 33.5893C235.053 33.1704 235.872 32.961 236.798 32.961C237.75 32.961 238.576 33.1767 239.274 33.6083C239.972 34.0399 240.511 34.6238 240.892 35.36C241.273 36.0835 241.463 36.9022 241.463 37.8162C241.463 37.9812 241.457 38.1398 241.444 38.2922C241.432 38.4445 241.419 38.5651 241.406 38.6539H234.304V36.6738H239.274L238.95 37.4925C238.95 36.7943 238.772 36.2231 238.417 35.7789C238.074 35.3346 237.541 35.1125 236.817 35.1125C236.17 35.1125 235.65 35.3092 235.256 35.7027C234.875 36.0962 234.685 36.6166 234.685 37.264V38.3112C234.685 39.0093 234.882 39.5551 235.275 39.9486C235.681 40.3294 236.24 40.5198 236.951 40.5198C237.547 40.5198 238.017 40.3993 238.36 40.1581C238.715 39.9169 239.013 39.6186 239.255 39.2632L241.14 40.3104C240.733 41.0593 240.162 41.6432 239.426 42.0621C238.69 42.4683 237.814 42.6714 236.798 42.6714ZM252.429 42.8237C251.68 42.8237 250.976 42.7158 250.316 42.5C249.668 42.2715 249.085 41.9351 248.564 41.4909C248.056 41.0339 247.625 40.45 247.269 39.7392L249.44 38.3874C249.808 38.9966 250.259 39.4599 250.792 39.7773C251.325 40.0946 251.922 40.2533 252.582 40.2533C253.153 40.2533 253.584 40.1327 253.876 39.8915C254.168 39.6503 254.314 39.333 254.314 38.9395C254.314 38.6857 254.244 38.4699 254.105 38.2922C253.978 38.1018 253.743 37.9241 253.4 37.759C253.058 37.594 252.563 37.4354 251.915 37.283C250.862 37.0292 250.024 36.7118 249.402 36.331C248.793 35.9502 248.361 35.4996 248.107 34.9792C247.853 34.4461 247.726 33.8558 247.726 33.2085C247.726 32.4469 247.91 31.7741 248.279 31.1902C248.659 30.5937 249.199 30.124 249.897 29.7813C250.595 29.4386 251.426 29.2672 252.391 29.2672C253.483 29.2672 254.403 29.483 255.152 29.9146C255.914 30.3461 256.523 30.911 256.98 31.6091L254.809 33.1133C254.479 32.6817 254.079 32.3707 253.61 32.1803C253.153 31.9899 252.696 31.8947 252.239 31.8947C251.693 31.8947 251.268 32.0026 250.963 32.2184C250.671 32.4215 250.525 32.7134 250.525 33.0942C250.525 33.4497 250.678 33.7479 250.982 33.9891C251.287 34.2176 251.883 34.4334 252.772 34.6365C253.838 34.8903 254.695 35.2013 255.342 35.5694C255.99 35.9375 256.459 36.3882 256.751 36.9213C257.043 37.4544 257.189 38.0954 257.189 38.8443C257.189 39.6059 256.993 40.285 256.599 40.8816C256.218 41.4782 255.672 41.9542 254.962 42.3096C254.251 42.6523 253.407 42.8237 252.429 42.8237ZM262.702 42.7285C261.75 42.7285 260.912 42.519 260.189 42.1002C259.478 41.6813 258.926 41.1037 258.532 40.3675C258.139 39.6313 257.942 38.7872 257.942 37.8352C257.942 36.8832 258.139 36.0454 258.532 35.3219C258.926 34.5857 259.478 34.0082 260.189 33.5893C260.912 33.1704 261.75 32.961 262.702 32.961C263.743 32.961 264.644 33.2148 265.405 33.7226C266.167 34.2303 266.713 34.9157 267.043 35.7789L264.53 36.9022C264.352 36.5087 264.117 36.2041 263.825 35.9883C263.533 35.7598 263.165 35.6456 262.721 35.6456C262.162 35.6456 261.693 35.8423 261.312 36.2358C260.931 36.6166 260.741 37.1498 260.741 37.8352C260.741 38.5206 260.931 39.0601 261.312 39.4536C261.693 39.8344 262.162 40.0248 262.721 40.0248C263.165 40.0248 263.533 39.9169 263.825 39.7011C264.117 39.4853 264.352 39.1807 264.53 38.7872L267.043 39.8915C266.713 40.7547 266.161 41.4465 265.386 41.9669C264.612 42.4746 263.717 42.7285 262.702 42.7285ZM272.411 42.7285C271.446 42.7285 270.596 42.5254 269.859 42.1192C269.123 41.7003 268.552 41.1228 268.146 40.3866C267.74 39.6503 267.537 38.8062 267.537 37.8542C267.537 36.8895 267.74 36.0391 268.146 35.3029C268.552 34.5667 269.123 33.9955 269.859 33.5893C270.596 33.1704 271.446 32.961 272.411 32.961C273.388 32.961 274.245 33.1704 274.981 33.5893C275.717 33.9955 276.289 34.5667 276.695 35.3029C277.114 36.0391 277.323 36.8895 277.323 37.8542C277.323 38.8062 277.114 39.6503 276.695 40.3866C276.289 41.1228 275.717 41.7003 274.981 42.1192C274.245 42.5254 273.388 42.7285 272.411 42.7285ZM272.411 40.0248C273.033 40.0248 273.534 39.8281 273.915 39.4346C274.308 39.0284 274.505 38.5016 274.505 37.8542C274.505 37.1942 274.308 36.6611 273.915 36.2549C273.534 35.8487 273.033 35.6456 272.411 35.6456C271.814 35.6456 271.319 35.8487 270.926 36.2549C270.545 36.6484 270.355 37.1751 270.355 37.8352C270.355 38.4953 270.545 39.0284 270.926 39.4346C271.319 39.8281 271.814 40.0248 272.411 40.0248ZM280.724 33.1894L281.448 35.7598V42.5H278.668V33.1894H280.724ZM280.839 37.3021L280.363 37.0926V34.9411L280.534 34.7126C280.686 34.4969 280.902 34.2493 281.181 33.9701C281.473 33.6908 281.81 33.456 282.191 33.2656C282.584 33.0625 282.984 32.961 283.39 32.961C283.593 32.961 283.777 32.9737 283.942 32.999C284.107 33.0244 284.241 33.0689 284.342 33.1323V35.6646H283.714C282.901 35.6646 282.26 35.7979 281.791 36.0645C281.334 36.3183 281.016 36.7309 280.839 37.3021ZM289.382 42.6714C288.455 42.6714 287.636 42.4746 286.925 42.0811C286.227 41.6876 285.681 41.1291 285.288 40.4056C284.907 39.6821 284.717 38.8316 284.717 37.8542C284.717 36.8895 284.907 36.0391 285.288 35.3029C285.681 34.5667 286.227 33.9955 286.925 33.5893C287.636 33.1704 288.455 32.961 289.382 32.961C290.334 32.961 291.159 33.1767 291.857 33.6083C292.555 34.0399 293.094 34.6238 293.475 35.36C293.856 36.0835 294.046 36.9022 294.046 37.8162C294.046 37.9812 294.04 38.1398 294.027 38.2922C294.015 38.4445 294.002 38.5651 293.989 38.6539H286.887V36.6738H291.857L291.533 37.4925C291.533 36.7943 291.355 36.2231 291 35.7789C290.657 35.3346 290.124 35.1125 289.401 35.1125C288.753 35.1125 288.233 35.3092 287.839 35.7027C287.459 36.0962 287.268 36.6166 287.268 37.264V38.3112C287.268 39.0093 287.465 39.5551 287.858 39.9486C288.265 40.3294 288.823 40.5198 289.534 40.5198C290.13 40.5198 290.6 40.3993 290.943 40.1581C291.298 39.9169 291.597 39.6186 291.838 39.2632L293.723 40.3104C293.317 41.0593 292.745 41.6432 292.009 42.0621C291.273 42.4683 290.397 42.6714 289.382 42.6714ZM303.204 42.5H300.424V33.1894H303.204V42.5ZM300.176 30.2573C300.176 29.7622 300.322 29.3624 300.614 29.0578C300.919 28.7531 301.319 28.6008 301.814 28.6008C302.309 28.6008 302.702 28.7531 302.994 29.0578C303.299 29.3624 303.451 29.7622 303.451 30.2573C303.451 30.7396 303.299 31.1331 302.994 31.4378C302.702 31.7297 302.309 31.8757 301.814 31.8757C301.319 31.8757 300.919 31.7297 300.614 31.4378C300.322 31.1331 300.176 30.7396 300.176 30.2573ZM310.951 32.961C311.573 32.961 312.081 33.0689 312.474 33.2846C312.868 33.4877 313.166 33.7733 313.369 34.1414C313.585 34.5095 313.725 34.9284 313.788 35.3981C313.864 35.855 313.902 36.331 313.902 36.8261V42.5H311.122V36.9784C311.122 36.4453 311.027 36.0962 310.837 35.9312C310.646 35.7535 310.393 35.6646 310.075 35.6646C309.809 35.6646 309.529 35.7218 309.237 35.836C308.958 35.9375 308.685 36.0835 308.419 36.2739C308.152 36.4643 307.917 36.6801 307.714 36.9213L307.219 35.5123H308V42.5H305.22V33.1894H307.276L307.848 35.0363L306.896 34.9602C307.226 34.5921 307.6 34.2557 308.019 33.951C308.438 33.6464 308.895 33.4052 309.39 33.2275C309.885 33.0498 310.405 32.961 310.951 32.961ZM174.537 64.7955L170.805 56.1894H173.623L177.165 64.3766L174.537 64.7955ZM172.538 69.1176L178.155 56.1894H180.973L175.375 69.1176H172.538ZM185.82 65.7285C184.855 65.7285 184.005 65.5254 183.268 65.1192C182.532 64.7003 181.961 64.1228 181.555 63.3866C181.149 62.6503 180.946 61.8062 180.946 60.8542C180.946 59.8895 181.149 59.0391 181.555 58.3029C181.961 57.5667 182.532 56.9955 183.268 56.5893C184.005 56.1704 184.855 55.961 185.82 55.961C186.797 55.961 187.654 56.1704 188.39 56.5893C189.126 56.9955 189.698 57.5667 190.104 58.3029C190.523 59.0391 190.732 59.8895 190.732 60.8542C190.732 61.8062 190.523 62.6503 190.104 63.3866C189.698 64.1228 189.126 64.7003 188.39 65.1192C187.654 65.5254 186.797 65.7285 185.82 65.7285ZM185.82 63.0248C186.442 63.0248 186.943 62.8281 187.324 62.4346C187.717 62.0284 187.914 61.5016 187.914 60.8542C187.914 60.1942 187.717 59.6611 187.324 59.2549C186.943 58.8487 186.442 58.6456 185.82 58.6456C185.223 58.6456 184.728 58.8487 184.335 59.2549C183.954 59.6484 183.763 60.1751 183.763 60.8352C183.763 61.4953 183.954 62.0284 184.335 62.4346C184.728 62.8281 185.223 63.0248 185.82 63.0248ZM195.181 65.7285C194.496 65.7285 193.938 65.6269 193.506 65.4238C193.087 65.2207 192.757 64.9415 192.516 64.5861C192.287 64.218 192.129 63.8054 192.04 63.3485C191.964 62.8788 191.926 62.3838 191.926 61.8634V56.1894H194.705V61.711C194.705 62.2315 194.813 62.5805 195.029 62.7582C195.245 62.9233 195.512 63.0058 195.829 63.0058C196.108 63.0058 196.381 62.9613 196.648 62.8725C196.914 62.7709 197.174 62.6313 197.428 62.4536C197.682 62.2632 197.911 62.0347 198.114 61.7682L198.59 63.1771H197.809V56.1894H200.608V65.5H198.533L197.961 63.6531L198.913 63.7293C198.609 64.0847 198.253 64.4211 197.847 64.7384C197.454 65.043 197.035 65.2842 196.59 65.4619C196.146 65.6396 195.677 65.7285 195.181 65.7285ZM204.639 56.1894L205.362 58.7598V65.5H202.583V56.1894H204.639ZM204.753 60.3021L204.277 60.0926V57.9411L204.448 57.7126C204.601 57.4969 204.817 57.2493 205.096 56.9701C205.388 56.6908 205.724 56.456 206.105 56.2656C206.498 56.0625 206.898 55.961 207.304 55.961C207.508 55.961 207.692 55.9737 207.857 55.999C208.022 56.0244 208.155 56.0689 208.256 56.1323V58.6646H207.628C206.816 58.6646 206.175 58.7979 205.705 59.0645C205.248 59.3183 204.931 59.7309 204.753 60.3021ZM219.661 65.7285C218.835 65.7285 218.118 65.5444 217.509 65.1763C216.912 64.7955 216.449 64.2434 216.119 63.5198C215.789 62.7963 215.624 61.9078 215.624 60.8542C215.624 59.8388 215.789 58.9693 216.119 58.2458C216.462 57.5095 216.938 56.9447 217.547 56.5512C218.156 56.1577 218.867 55.961 219.68 55.961C220.53 55.961 221.273 56.1704 221.907 56.5893C222.555 56.9955 223.056 57.5667 223.411 58.3029C223.78 59.0391 223.964 59.8895 223.964 60.8542C223.964 61.8062 223.78 62.6503 223.411 63.3866C223.043 64.1228 222.536 64.7003 221.888 65.1192C221.241 65.5254 220.498 65.7285 219.661 65.7285ZM214.52 69.1176V56.1894H216.595L217.3 58.5694H217.128V62.9106H217.3V69.1176H214.52ZM219.146 63.12C219.718 63.12 220.187 62.9106 220.555 62.4917C220.936 62.0601 221.127 61.5143 221.127 60.8542C221.127 60.1815 220.936 59.6357 220.555 59.2168C220.187 58.7852 219.718 58.5694 219.146 58.5694C218.588 58.5694 218.118 58.7852 217.737 59.2168C217.357 59.6357 217.166 60.1751 217.166 60.8352C217.166 61.5079 217.357 62.0601 217.737 62.4917C218.118 62.9106 218.588 63.12 219.146 63.12ZM228.011 65.7475C227.338 65.7475 226.742 65.6206 226.221 65.3667C225.713 65.1002 225.32 64.7321 225.041 64.2624C224.761 63.7927 224.622 63.2469 224.622 62.625C224.622 61.9649 224.774 61.4064 225.079 60.9494C225.383 60.4798 225.79 60.118 226.297 59.8642C226.818 59.6103 227.395 59.4834 228.03 59.4834C228.957 59.4834 229.705 59.6928 230.277 60.1117C230.848 60.5306 231.229 61.1335 231.419 61.9205L230.22 61.711V59.5405C230.22 59.1978 230.099 58.8995 229.858 58.6456C229.617 58.3917 229.229 58.2648 228.696 58.2648C228.354 58.2648 227.96 58.3092 227.516 58.3981C227.072 58.4742 226.615 58.6266 226.145 58.855L225.326 56.8749C225.885 56.5956 226.481 56.3735 227.116 56.2085C227.763 56.0435 228.423 55.961 229.096 55.961C229.959 55.961 230.683 56.1133 231.267 56.4179C231.851 56.7226 232.282 57.1541 232.561 57.7126C232.853 58.2711 232.999 58.9185 232.999 59.6547V65.5H230.734L230.181 63.6912L231.419 63.3104C231.216 64.072 230.829 64.6686 230.258 65.1002C229.686 65.5317 228.938 65.7475 228.011 65.7475ZM228.868 63.7674C229.287 63.7674 229.617 63.6595 229.858 63.4437C230.112 63.2279 230.239 62.955 230.239 62.625C230.239 62.2695 230.112 61.9903 229.858 61.7872C229.617 61.5841 229.287 61.4826 228.868 61.4826C228.449 61.4826 228.119 61.5841 227.878 61.7872C227.636 61.9903 227.516 62.2695 227.516 62.625C227.516 62.955 227.636 63.2279 227.878 63.4437C228.119 63.6595 228.449 63.7674 228.868 63.7674ZM238.214 65.7856C237.465 65.7856 236.76 65.6396 236.1 65.3477C235.453 65.0557 234.863 64.5543 234.33 63.8435L235.91 62.3203C236.341 62.7646 236.754 63.0819 237.147 63.2723C237.541 63.4627 237.972 63.5579 238.442 63.5579C238.721 63.5579 238.944 63.5008 239.109 63.3866C239.286 63.2596 239.375 63.1073 239.375 62.9296C239.375 62.7773 239.324 62.6503 239.223 62.5488C239.121 62.4473 238.931 62.3457 238.652 62.2442C238.372 62.1426 237.966 62.022 237.433 61.8824C236.456 61.6412 235.726 61.2922 235.243 60.8352C234.774 60.3655 234.539 59.7436 234.539 58.9693C234.539 58.4108 234.685 57.903 234.977 57.4461C235.269 56.9764 235.688 56.602 236.234 56.3227C236.779 56.0435 237.427 55.9038 238.176 55.9038C239.064 55.9038 239.819 56.0752 240.441 56.4179C241.063 56.7479 241.577 57.1541 241.984 57.6365L240.27 59.1026C239.991 58.8487 239.654 58.6329 239.261 58.4552C238.867 58.2775 238.423 58.1886 237.928 58.1886C237.662 58.1886 237.433 58.2394 237.243 58.341C237.052 58.4425 236.957 58.5948 236.957 58.7979C236.957 58.9883 237.071 59.147 237.3 59.2739C237.528 59.4009 237.985 59.5468 238.671 59.7118C239.826 59.9911 240.651 60.3655 241.146 60.8352C241.654 61.3049 241.907 61.9332 241.907 62.7202C241.907 63.3294 241.749 63.8689 241.431 64.3386C241.114 64.7955 240.676 65.1509 240.118 65.4048C239.559 65.6587 238.924 65.7856 238.214 65.7856ZM247.566 65.6523C246.537 65.6523 245.725 65.3985 245.128 64.8907C244.545 64.383 244.253 63.5516 244.253 62.3965V56.3037L244.215 56.1894L244.786 53.9427H247.032V61.7872C247.032 62.2188 247.134 62.5298 247.337 62.7202C247.54 62.8979 247.807 62.9867 248.137 62.9867C248.327 62.9867 248.505 62.974 248.67 62.9486C248.848 62.9106 248.994 62.8725 249.108 62.8344V65.4429C248.892 65.5063 248.657 65.5571 248.403 65.5952C248.162 65.6333 247.883 65.6523 247.566 65.6523ZM242.806 58.7408V56.1894H249.108V58.7408H242.806ZM259.66 65.7285C258.823 65.7285 258.08 65.5254 257.433 65.1192C256.785 64.7003 256.278 64.1228 255.909 63.3866C255.541 62.6503 255.357 61.8062 255.357 60.8542C255.357 59.8895 255.535 59.0391 255.89 58.3029C256.258 57.5667 256.766 56.9955 257.414 56.5893C258.061 56.1704 258.803 55.961 259.641 55.961C260.454 55.961 261.164 56.1577 261.774 56.5512C262.383 56.9447 262.859 57.5095 263.202 58.2458C263.544 58.9693 263.716 59.8388 263.716 60.8542C263.716 61.9078 263.544 62.7963 263.202 63.5198C262.872 64.2434 262.402 64.7955 261.793 65.1763C261.196 65.5444 260.485 65.7285 259.66 65.7285ZM260.174 63.12C260.746 63.12 261.215 62.9106 261.583 62.4917C261.964 62.0601 262.155 61.5079 262.155 60.8352C262.155 60.1751 261.964 59.6357 261.583 59.2168C261.215 58.7852 260.746 58.5694 260.174 58.5694C259.603 58.5694 259.127 58.7852 258.746 59.2168C258.378 59.6357 258.194 60.1815 258.194 60.8542C258.194 61.5143 258.378 62.0601 258.746 62.4917C259.127 62.9106 259.603 63.12 260.174 63.12ZM262.021 69.1176V62.9106H262.193V58.5694H262.021L262.726 56.1894H264.801V69.1176H262.021ZM269.928 65.7285C269.243 65.7285 268.684 65.6269 268.253 65.4238C267.834 65.2207 267.504 64.9415 267.263 64.5861C267.034 64.218 266.876 63.8054 266.787 63.3485C266.711 62.8788 266.673 62.3838 266.673 61.8634V56.1894H269.452V61.711C269.452 62.2315 269.56 62.5805 269.776 62.7582C269.992 62.9233 270.258 63.0058 270.576 63.0058C270.855 63.0058 271.128 62.9613 271.394 62.8725C271.661 62.7709 271.921 62.6313 272.175 62.4536C272.429 62.2632 272.657 62.0347 272.861 61.7682L273.337 63.1771H272.556V56.1894H275.355V65.5H273.279L272.708 63.6531L273.66 63.7293C273.356 64.0847 273 64.4211 272.594 64.7384C272.2 65.043 271.782 65.2842 271.337 65.4619C270.893 65.6396 270.423 65.7285 269.928 65.7285ZM280.147 65.5H277.367V56.1894H280.147V65.5ZM277.12 53.2573C277.12 52.7622 277.266 52.3624 277.558 52.0578C277.863 51.7531 278.262 51.6008 278.757 51.6008C279.252 51.6008 279.646 51.7531 279.938 52.0578C280.243 52.3624 280.395 52.7622 280.395 53.2573C280.395 53.7396 280.243 54.1331 279.938 54.4378C279.646 54.7297 279.252 54.8757 278.757 54.8757C278.262 54.8757 277.863 54.7297 277.558 54.4378C277.266 54.1331 277.12 53.7396 277.12 53.2573ZM289.589 63.0438V65.5H281.878V63.3485L287.247 57.3699L288.295 58.6456H281.973V56.1894H289.513V58.341L284.125 64.3386L283.268 63.0438H289.589ZM298.7 63.0438V65.5H290.989V63.3485L296.358 57.3699L297.406 58.6456H291.084V56.1894H298.624V58.341L293.236 64.3386L292.379 63.0438H298.7ZM304.201 65.6714C303.274 65.6714 302.455 65.4746 301.745 65.0811C301.047 64.6876 300.501 64.1291 300.107 63.4056C299.726 62.6821 299.536 61.8316 299.536 60.8542C299.536 59.8895 299.726 59.0391 300.107 58.3029C300.501 57.5667 301.047 56.9955 301.745 56.5893C302.455 56.1704 303.274 55.961 304.201 55.961C305.153 55.961 305.978 56.1767 306.676 56.6083C307.374 57.0399 307.914 57.6238 308.294 58.36C308.675 59.0835 308.866 59.9022 308.866 60.8162C308.866 60.9812 308.859 61.1398 308.847 61.2922C308.834 61.4445 308.821 61.5651 308.808 61.6539H301.707V59.6738H306.676L306.352 60.4925C306.352 59.7943 306.175 59.2231 305.819 58.7789C305.476 58.3346 304.943 58.1125 304.22 58.1125C303.572 58.1125 303.052 58.3092 302.659 58.7027C302.278 59.0962 302.087 59.6166 302.087 60.264V61.3112C302.087 62.0093 302.284 62.5551 302.678 62.9486C303.084 63.3294 303.642 63.5198 304.353 63.5198C304.95 63.5198 305.419 63.3993 305.762 63.1581C306.117 62.9169 306.416 62.6186 306.657 62.2632L308.542 63.3104C308.136 64.0593 307.565 64.6432 306.828 65.0621C306.092 65.4683 305.216 65.6714 304.201 65.6714ZM313.593 65.7856C312.844 65.7856 312.139 65.6396 311.479 65.3477C310.832 65.0557 310.242 64.5543 309.709 63.8435L311.289 62.3203C311.72 62.7646 312.133 63.0819 312.526 63.2723C312.92 63.4627 313.352 63.5579 313.821 63.5579C314.1 63.5579 314.323 63.5008 314.488 63.3866C314.665 63.2596 314.754 63.1073 314.754 62.9296C314.754 62.7773 314.703 62.6503 314.602 62.5488C314.5 62.4473 314.31 62.3457 314.031 62.2442C313.751 62.1426 313.345 62.022 312.812 61.8824C311.835 61.6412 311.105 61.2922 310.622 60.8352C310.153 60.3655 309.918 59.7436 309.918 58.9693C309.918 58.4108 310.064 57.903 310.356 57.4461C310.648 56.9764 311.067 56.602 311.613 56.3227C312.158 56.0435 312.806 55.9038 313.555 55.9038C314.443 55.9038 315.198 56.0752 315.82 56.4179C316.442 56.7479 316.956 57.1541 317.363 57.6365L315.649 59.1026C315.37 58.8487 315.033 58.6329 314.64 58.4552C314.246 58.2775 313.802 58.1886 313.307 58.1886C313.041 58.1886 312.812 58.2394 312.622 58.341C312.431 58.4425 312.336 58.5948 312.336 58.7979C312.336 58.9883 312.45 59.147 312.679 59.2739C312.907 59.4009 313.364 59.5468 314.05 59.7118C315.205 59.9911 316.03 60.3655 316.525 60.8352C317.033 61.3049 317.286 61.9332 317.286 62.7202C317.286 63.3294 317.128 63.8689 316.81 64.3386C316.493 64.7955 316.055 65.1509 315.497 65.4048C314.938 65.6587 314.304 65.7856 313.593 65.7856Z" fill="#262626"/>
<path d="M60.2548 107.828L94.9029 96.9644C110.774 91.9883 119.526 75.1245 114.415 59.3709C112.718 54.1406 107.073 51.2411 101.804 52.8932C96.5343 54.5453 93.6398 60.1222 95.3369 65.3525C97.0605 70.6647 94.11 76.3494 88.7583 78.0274L54.1102 88.8908" fill="#7000FF"/>
<path fill-rule="evenodd" clip-rule="evenodd" d="M52.0329 89.5435C51.6632 88.4042 52.294 87.1889 53.4418 86.8291L88.088 75.9666C92.2917 74.6486 94.6112 70.1797 93.2574 66.0073C91.1907 59.6381 94.7159 52.8464 101.133 50.8346C107.549 48.8228 114.424 52.3538 116.491 58.723C121.972 75.6145 112.589 93.6922 95.571 99.0277L60.9248 109.89L59.586 105.764L94.2323 94.902C108.955 90.2862 117.076 74.6391 112.334 60.0262C111.007 55.9356 106.593 53.6682 102.471 54.9603C98.3502 56.2524 96.0866 60.6135 97.4139 64.7041C99.5071 71.1551 95.926 78.0546 89.4268 80.0923L54.7805 90.9547C53.6327 91.3146 52.4026 90.6828 52.0329 89.5435Z" fill="#3C008A"/>
<rect width="5.14646" height="18.8172" rx="2.57323" transform="matrix(-0.981163 0.20926 0.215446 0.973188 103.137 42.5914)" fill="#CDCDCD"/>
<path d="M95.2864 61.4766C95.4573 63.7687 96.9574 68.2743 104.184 65.847C108.193 64.5009 107.819 59.0601 101.97 60.5625" stroke="#3C008A" stroke-width="4" stroke-linecap="round"/>
<path d="M70.5699 31.4697C69.8648 34.2234 70.6981 37.1481 72.7561 39.1422L85.6382 51.625C87.6963 53.6193 90.6665 54.38 93.43 53.6204L110.725 48.8665C113.488 48.107 115.625 45.9425 116.33 43.1887L120.744 25.9518C121.449 23.1982 120.616 20.2734 118.558 18.2793L105.676 5.79652C103.618 3.80219 100.647 3.04154 97.884 3.80113L80.589 8.55499C77.8256 9.31457 75.6888 11.479 74.9836 14.2329L70.5699 31.4697Z" fill="#3C008A"/>
<path d="M75.6998 31.0936C75.171 33.1588 75.796 35.3523 77.3395 36.8479L87.8515 47.0341C89.3951 48.5298 91.6228 49.1003 93.6953 48.5306L107.808 44.6514C109.881 44.0817 111.484 42.4584 112.012 40.393L115.614 26.3274C116.143 24.2622 115.518 22.0687 113.974 20.573L103.462 10.3869C101.919 8.89115 99.6912 8.32067 97.6186 8.89035L83.5056 12.7696C81.433 13.3393 79.8304 14.9626 79.3015 17.028L75.6998 31.0936Z" fill="white"/>
<path d="M106.207 31.5309L103.563 21.7715L100.031 22.6938L102.675 32.4532L106.207 31.5309ZM108.413 27.5541L107.489 24.147L97.806 26.6757L98.7291 30.0828L108.413 27.5541ZM93.7129 31.0423L88.1823 32.4866L89.0532 35.7012L94.5838 34.257L93.7129 31.0423ZM98.3177 35.3843L90.0894 23.4967L86.577 24.4139L85.8787 38.6326L89.4105 37.7103L89.6636 26.1431L88.2663 26.508L94.8053 36.3015L98.3177 35.3843Z" fill="#3A179D"/>
<path d="M15.0116 -10.9999C40.3356 -10.9999 60.8936 9.45535 60.8936 34.6528V114.174H-30.8757L-30.8757 34.6579C-30.8757 9.46048 -10.3125 -10.9999 15.0116 -10.9999Z" fill="#7000FF"/>
<path fill-rule="evenodd" clip-rule="evenodd" d="M56.5237 34.6528C56.5237 11.8093 37.8919 -6.68361 15.0116 -6.68361C-7.86881 -6.68361 -26.5057 11.8144 -26.5057 34.6579V109.857H56.5237V34.6528ZM60.8936 34.6528C60.8936 9.45535 40.3356 -10.9999 15.0116 -10.9999C-10.3125 -10.9999 -30.8757 9.46048 -30.8757 34.6579V114.174H60.8936V34.6528Z" fill="#3C008A"/>
<path d="M57.1628 80.9559C50.2399 80.9559 44.6035 75.3944 44.6035 68.5564V56.4988C44.6035 49.6608 50.2341 44.0936 57.1628 44.0936C64.0915 44.0936 69.7164 49.6551 69.7164 56.4988V68.5564C69.7164 75.3944 64.0858 80.9559 57.1628 80.9559Z" fill="white"/>
<path fill-rule="evenodd" clip-rule="evenodd" d="M57.1623 83.8335C48.6321 83.8335 41.6896 76.9854 41.6896 68.5564V56.4988C41.6896 48.0725 48.6237 41.2161 57.1623 41.2161C65.7017 41.2161 72.6292 48.0676 72.6292 56.4988V68.5564C72.6292 76.9836 65.6942 83.8335 57.1623 83.8335ZM44.6029 68.5564C44.6029 75.3944 50.2393 80.956 57.1623 80.956C64.0852 80.956 69.7159 75.3944 69.7159 68.5564V56.4988C69.7159 49.6552 64.091 44.0936 57.1623 44.0936C50.2336 44.0936 44.6029 49.6609 44.6029 56.4988V68.5564Z" fill="#3C008A"/>
<path d="M57.1632 45.2332C63.4515 45.2332 68.5629 50.2876 68.5629 56.4931V68.5507C68.5629 74.7619 63.4457 79.8106 57.1574 79.8106C50.8691 79.8106 45.7519 74.7562 45.7519 68.5507V56.4931C45.7519 50.2819 50.8691 45.2332 57.1574 45.2332M57.1574 42.9539C49.5883 42.9539 43.4442 49.0169 43.4442 56.4931V68.5507C43.4442 76.0326 49.5825 82.0899 57.1574 82.0899C64.7265 82.0899 70.8648 76.0269 70.8648 68.5507V56.4931C70.8648 49.0112 64.7265 42.9539 57.1574 42.9539Z" fill="#3C008A"/>
<path d="M62.2398 54.6407C62.2398 51.8713 59.9669 49.6262 57.163 49.6262C54.3592 49.6262 52.0862 51.8713 52.0862 54.6407V62.7551C52.0862 65.5246 54.3592 67.7696 57.163 67.7696C59.9669 67.7696 62.2398 65.5246 62.2398 62.7551V54.6407Z" fill="#1C1C1C"/>
<path d="M61.9636 51.581C61.9636 50.1165 60.7579 48.9255 59.2752 48.9255C57.7926 48.9255 56.5868 50.1165 56.5868 51.581C56.5868 53.0454 57.7926 54.2364 59.2752 54.2364C60.7579 54.2364 61.9636 53.0454 61.9636 51.581Z" fill="white"/>
<path d="M19.2681 80.9559C12.3452 80.9559 6.70879 75.3944 6.70879 68.5564V56.4988C6.70879 49.6608 12.3394 44.0936 19.2681 44.0936C26.1968 44.0936 31.8217 49.6551 31.8217 56.4988V68.5564C31.8217 75.3944 26.1911 80.9559 19.2681 80.9559Z" fill="white"/>
<path fill-rule="evenodd" clip-rule="evenodd" d="M19.2711 83.8335C10.741 83.8335 3.79846 76.9854 3.79846 68.5564V56.4988C3.79846 48.0725 10.7326 41.2161 19.2711 41.2161C27.8105 41.2161 34.738 48.0676 34.738 56.4988V68.5564C34.738 76.9836 27.803 83.8335 19.2711 83.8335ZM6.71177 68.5564C6.71177 75.3944 12.3482 80.956 19.2711 80.956C26.1941 80.956 31.8247 75.3944 31.8247 68.5564V56.4988C31.8247 49.6552 26.1998 44.0936 19.2711 44.0936C12.3424 44.0936 6.71177 49.6609 6.71177 56.4988V68.5564Z" fill="#3C008A"/>
<path d="M19.2697 45.2332C25.5581 45.2332 30.6695 50.2876 30.6695 56.4931V68.5507C30.6695 74.7619 25.5523 79.8106 19.264 79.8106C12.9756 79.8106 7.85843 74.7562 7.85843 68.5507V56.4931C7.85843 50.2819 12.9756 45.2332 19.264 45.2332M19.264 42.9539C11.6949 42.9539 5.55078 49.0169 5.55078 56.4931V68.5507C5.55078 76.0326 11.6891 82.0899 19.264 82.0899C26.833 82.0899 32.9714 76.0269 32.9714 68.5507V56.4931C32.9714 49.0112 26.833 42.9539 19.264 42.9539Z" fill="#3C008A"/>
<path d="M24.348 54.6407C24.348 51.8713 22.075 49.6262 19.2712 49.6262C16.4673 49.6262 14.1944 51.8713 14.1944 54.6407V62.7551C14.1944 65.5246 16.4673 67.7696 19.2712 67.7696C22.075 67.7696 24.348 65.5246 24.348 62.7551V54.6407Z" fill="#1C1C1C"/>
<path d="M24.0705 51.581C24.0705 50.1165 22.8647 48.9255 21.3821 48.9255C19.8994 48.9255 18.6937 50.1165 18.6937 51.581C18.6937 53.0454 19.8994 54.2364 21.3821 54.2364C22.8647 54.2364 24.0705 53.0454 24.0705 51.581Z" fill="white"/>
<path d="M2.64349 24.0915C4.43817 24.0915 5.89302 22.6544 5.89302 20.8818C5.89302 19.1091 4.43817 17.6721 2.64349 17.6721C0.848817 17.6721 -0.606064 19.1091 -0.606064 20.8818C-0.606064 22.6544 0.848817 24.0915 2.64349 24.0915Z" fill="#FEE702"/>
<path fill-rule="evenodd" clip-rule="evenodd" d="M53.2472 33.5882C52.6573 34.6051 51.3491 34.973 50.3033 34.4081C49.2445 33.8361 48.8557 32.5248 49.4347 31.479L51.3517 32.5146C49.4347 31.479 49.4353 31.478 49.4359 31.4769L49.4371 31.4747L49.4396 31.4702L49.4451 31.4605L49.4579 31.4381C49.4672 31.4219 49.4782 31.4032 49.4909 31.3821C49.5163 31.3401 49.5484 31.2885 49.5877 31.2289C49.6662 31.1098 49.7738 30.9573 49.9131 30.783C50.1908 30.4357 50.6015 29.9928 51.1665 29.5556C52.3196 28.6632 54.0641 27.8378 56.4656 27.8474M53.2472 33.5882C53.248 33.5868 53.2491 33.5852 53.2503 33.5834C53.2628 33.5645 53.2933 33.5199 53.3429 33.4578C53.4432 33.3323 53.6137 33.1451 53.8617 32.9532C54.3343 32.5874 55.1424 32.1583 56.4487 32.1637L56.4497 32.1637C58.0869 32.1695 58.8559 32.6417 59.1822 32.9141C59.3631 33.0651 59.4635 33.2016 59.5098 33.2742C59.5219 33.2932 59.5302 33.3077 59.5351 33.3166C59.967 34.3847 61.1793 34.9356 62.2882 34.5506C63.4266 34.1553 64.0251 32.9234 63.625 31.7989L61.5636 32.5146C63.625 31.7989 63.6244 31.7974 63.6239 31.7959L63.6228 31.7928L63.6205 31.7866L63.6156 31.7732L63.6045 31.7436C63.5964 31.7225 63.5871 31.6989 63.5763 31.6728C63.5548 31.6207 63.5277 31.5587 63.4942 31.4884C63.4273 31.3479 63.3341 31.1727 63.2083 30.9752C62.9563 30.5797 62.5712 30.0917 62.0029 29.6174C60.831 28.6391 59.0473 27.8568 56.4667 27.8474" fill="#3C008A"/>
<path fill-rule="evenodd" clip-rule="evenodd" d="M16.1019 34.3073C15.512 35.3242 14.2038 35.6921 13.158 35.1272C12.0992 34.5552 11.7103 33.2439 12.2894 32.1981L14.2064 33.2337C12.2894 32.1981 12.29 32.1971 12.2905 32.196L12.2917 32.1939L12.2943 32.1894L12.2997 32.1796L12.3125 32.1572C12.3219 32.141 12.3329 32.1223 12.3456 32.1013C12.3709 32.0592 12.4031 32.0076 12.4424 31.948C12.5209 31.8289 12.6285 31.6765 12.7678 31.5022C13.0455 31.1548 13.4562 30.7119 14.0211 30.2747C15.1742 29.3823 16.9188 28.557 19.3203 28.5665M16.1019 34.3073C16.1027 34.3059 16.1037 34.3044 16.105 34.3025C16.1174 34.2836 16.148 34.239 16.1976 34.1769C16.2979 34.0514 16.4684 33.8642 16.7164 33.6723C17.189 33.3065 17.997 32.8775 19.3033 32.8828L19.3044 32.8828C20.9416 32.8887 21.7106 33.3609 22.0369 33.6332C22.2178 33.7842 22.3182 33.9207 22.3644 33.9933C22.3766 34.0123 22.3849 34.0268 22.3898 34.0357C22.8217 35.1038 24.0339 35.6547 25.1429 35.2697C26.2813 34.8745 26.8798 33.6425 26.4796 32.518L24.4183 33.2337C26.4796 32.518 26.4791 32.5165 26.4786 32.515L26.4775 32.512L26.4752 32.5057L26.4703 32.4923L26.4592 32.4627C26.4511 32.4416 26.4417 32.418 26.431 32.3919C26.4095 32.3398 26.3824 32.2778 26.3489 32.2075C26.2819 32.067 26.1888 31.8918 26.063 31.6943C25.811 31.2988 25.4259 30.8108 24.8576 30.3365C23.6856 29.3582 21.902 28.576 19.3214 28.5665" fill="#3C008A"/>
<path fill-rule="evenodd" clip-rule="evenodd" d="M40.7324 84.3244C41.3222 83.3075 42.6304 82.9396 43.6763 83.5045C44.735 84.0765 45.1239 85.3878 44.5448 86.4336L42.6278 85.398C44.5448 86.4336 44.5443 86.4346 44.5437 86.4357L44.5425 86.4379L44.54 86.4424L44.5345 86.4521L44.5217 86.4745C44.5123 86.4907 44.5013 86.5094 44.4886 86.5305C44.4633 86.5725 44.4311 86.6241 44.3918 86.6837C44.3134 86.8028 44.2057 86.9553 44.0664 87.1296C43.7887 87.4769 43.378 87.9198 42.8131 88.357C41.66 89.2494 39.9154 90.0748 37.5139 90.0652M40.7324 84.3244C40.7315 84.3258 40.7305 84.3274 40.7292 84.3292C40.7168 84.3481 40.6862 84.3927 40.6366 84.4548C40.5363 84.5803 40.3659 84.7675 40.1179 84.9594C39.6452 85.3252 38.8372 85.7543 37.5309 85.7489L37.5298 85.7489C35.8926 85.7431 35.1236 85.2709 34.7973 84.9985C34.6164 84.8475 34.516 84.711 34.4698 84.6384C34.4576 84.6194 34.4493 84.6049 34.4445 84.596C34.0125 83.5279 32.8003 82.977 31.6913 83.362C30.5529 83.7573 29.9544 84.9892 30.3546 86.1137L32.4159 85.398C30.3546 86.1137 30.3551 86.1152 30.3556 86.1167L30.3567 86.1197L30.359 86.126L30.3639 86.1394L30.375 86.169C30.3831 86.1901 30.3925 86.2137 30.4032 86.2398C30.4247 86.2919 30.4518 86.3539 30.4853 86.4242C30.5523 86.5647 30.6454 86.7399 30.7713 86.9374C31.0232 87.3329 31.4084 87.8209 31.9766 88.2952C33.1486 89.2735 34.9322 90.0558 37.5128 90.0652" fill="#3C008A"/>
</g>
<defs>
<clipPath id="clip0_469_11027">
<path d="M0 16C0 7.16344 7.16344 0 16 0H319C327.837 0 335 7.16344 335 16V79C335 87.8366 327.837 95 319 95H16C7.16345 95 0 87.8366 0 79V16Z" fill="white"/>
</clipPath>
</defs>
</svg>
