<svg width="88" height="110" viewBox="0 0 88 110" fill="none" xmlns="http://www.w3.org/2000/svg">
<ellipse cx="35.561" cy="5.74219" rx="35.561" ry="5.74219" transform="matrix(-1 0 0 1 79.1221 98.3765)" fill="#CFCFCF"/>
<path d="M52.3344 73.6567V89.3694C52.3344 96.5667 46.4792 102.422 39.2819 102.422C36.8923 102.422 34.956 100.486 34.956 98.096C34.956 95.7064 36.8923 93.7701 39.2819 93.7701C41.7089 93.7701 43.6826 91.7964 43.6826 89.3694V73.6567" fill="#FF4C4C"/>
<path fill-rule="evenodd" clip-rule="evenodd" d="M52.3337 72.7139C51.8132 72.7139 51.3912 73.1359 51.3912 73.6564V89.3691C51.3912 96.0458 45.958 101.479 39.2813 101.479C37.4122 101.479 35.8979 99.9647 35.8979 98.0956C35.8979 96.2266 37.4122 94.7123 39.2813 94.7123C42.2288 94.7123 44.6245 92.3166 44.6245 89.3691V73.6564C44.6245 73.1359 44.2025 72.7139 43.682 72.7139C43.1614 72.7139 42.7394 73.1359 42.7394 73.6564V89.3691C42.7394 91.2755 41.1877 92.8272 39.2813 92.8272C36.3711 92.8272 34.0129 95.1855 34.0129 98.0956C34.0129 101.006 36.3711 103.364 39.2813 103.364C46.9991 103.364 53.2762 97.0869 53.2762 89.3691V73.6564C53.2762 73.1359 52.8543 72.7139 52.3337 72.7139Z" fill="#7A0000"/>
<path d="M55.703 83.7437L70.5182 78.5095C77.3045 76.1119 80.8748 68.6408 78.4772 61.8545C77.6812 59.6014 75.2105 58.4207 72.9574 59.2168C70.7043 60.0128 69.5236 62.4835 70.3196 64.7366C71.1281 67.0249 69.9246 69.5434 67.6362 70.3519L52.821 75.586" fill="#FF4C4C"/>
<path fill-rule="evenodd" clip-rule="evenodd" d="M51.9323 75.901C51.7589 75.4101 52.0162 74.8717 52.507 74.6983L67.3222 69.4641C69.1198 68.829 70.066 66.849 69.4309 65.0515C68.4615 62.3076 69.8995 59.2984 72.6434 58.329C75.3873 57.3596 78.3965 58.7976 79.3659 61.5415C81.9369 68.8186 78.1093 76.8282 70.8322 79.3991L56.017 84.6333L55.389 82.8559L70.2043 77.6217C76.4997 75.3976 79.8127 68.4649 77.5885 62.1694C76.9659 60.4072 75.0336 59.4838 73.2714 60.1064C71.5091 60.729 70.5857 62.6613 71.2083 64.4235C72.1902 67.2027 70.7294 70.2596 67.9502 71.2415L53.1349 76.4757C52.6441 76.6491 52.1057 76.3918 51.9323 75.901Z" fill="#7A0000"/>
<path d="M40.5735 24.9941C51.4974 24.9941 60.3655 33.9275 60.3655 44.932V79.661H20.7792L20.7792 44.9342C20.7792 33.9298 29.6495 24.9941 40.5735 24.9941Z" fill="#FF4C4C"/>
<path fill-rule="evenodd" clip-rule="evenodd" d="M58.4804 44.932C58.4804 34.9556 50.4433 26.8792 40.5735 26.8792C30.7036 26.8792 22.6642 34.9578 22.6642 44.9342V77.7759H58.4804V44.932ZM60.3655 44.932C60.3655 33.9275 51.4974 24.9941 40.5735 24.9941C29.6495 24.9941 20.7792 33.9298 20.7792 44.9342V79.661H60.3655V44.932Z" fill="#7A0000"/>
<path d="M58.7556 65.1535C55.7693 65.1535 53.3379 62.7246 53.3379 59.7383V54.4724C53.3379 51.4861 55.7668 49.0547 58.7556 49.0547C61.7444 49.0547 64.1708 51.4836 64.1708 54.4724V59.7383C64.1708 62.7246 61.7419 65.1535 58.7556 65.1535Z" fill="white"/>
<path fill-rule="evenodd" clip-rule="evenodd" d="M58.7553 66.4106C55.0757 66.4106 52.0809 63.4198 52.0809 59.7387V54.4728C52.0809 50.7927 55.0721 47.7983 58.7553 47.7983C62.439 47.7983 65.4273 50.7906 65.4273 54.4728V59.7387C65.4273 63.419 62.4357 66.4106 58.7553 66.4106ZM53.3376 59.7387C53.3376 62.725 55.769 65.1539 58.7553 65.1539C61.7417 65.1539 64.1706 62.725 64.1706 59.7387V54.4728C64.1706 51.4839 61.7442 49.055 58.7553 49.055C55.7665 49.055 53.3376 51.4864 53.3376 54.4728V59.7387Z" fill="#7A0000"/>
<path d="M58.7557 49.5521C61.4683 49.5521 63.6732 51.7595 63.6732 54.4696V59.7355C63.6732 62.4481 61.4658 64.653 58.7532 64.653C56.0406 64.653 53.8332 62.4456 53.8332 59.7355V54.4696C53.8332 51.757 56.0406 49.5521 58.7532 49.5521M58.7532 48.5566C55.4881 48.5566 52.8378 51.2045 52.8378 54.4696V59.7355C52.8378 63.003 55.4856 65.6484 58.7532 65.6484C62.0183 65.6484 64.6661 63.0005 64.6661 59.7355V54.4696C64.6661 51.202 62.0183 48.5566 58.7532 48.5566Z" fill="#7A0000"/>
<path d="M60.0653 54.1138C60.0653 52.9043 59.0849 51.9238 57.8754 51.9238C56.6659 51.9238 55.6854 52.9043 55.6854 54.1138V57.6576C55.6854 58.8671 56.6659 59.8476 57.8754 59.8476C59.0849 59.8476 60.0653 58.8671 60.0653 57.6576V54.1138Z" fill="#1C1C1C"/>
<path d="M59.9464 52.7779C59.9464 52.1383 59.4263 51.6182 58.7867 51.6182C58.1471 51.6182 57.627 52.1383 57.627 52.7779C57.627 53.4174 58.1471 53.9376 58.7867 53.9376C59.4263 53.9376 59.9464 53.4174 59.9464 52.7779Z" fill="white"/>
<path d="M42.4094 65.1535C39.4231 65.1535 36.9917 62.7246 36.9917 59.7383V54.4724C36.9917 51.4861 39.4206 49.0547 42.4094 49.0547C45.3982 49.0547 47.8246 51.4836 47.8246 54.4724V59.7383C47.8246 62.7246 45.3957 65.1535 42.4094 65.1535Z" fill="white"/>
<path fill-rule="evenodd" clip-rule="evenodd" d="M42.4106 66.4106C38.731 66.4106 35.7362 63.4198 35.7362 59.7387V54.4728C35.7362 50.7927 38.7274 47.7983 42.4106 47.7983C46.0943 47.7983 49.0825 50.7906 49.0825 54.4728V59.7387C49.0825 63.419 46.091 66.4106 42.4106 66.4106ZM36.9929 59.7387C36.9929 62.725 39.4243 65.1539 42.4106 65.1539C45.397 65.1539 47.8258 62.725 47.8258 59.7387V54.4728C47.8258 51.4839 45.3994 49.055 42.4106 49.055C39.4218 49.055 36.9929 51.4864 36.9929 54.4728V59.7387Z" fill="#7A0000"/>
<path d="M42.4101 49.5521C45.1227 49.5521 47.3276 51.7595 47.3276 54.4696V59.7355C47.3276 62.4481 45.1202 64.653 42.4076 64.653C39.695 64.653 37.4876 62.4456 37.4876 59.7355V54.4696C37.4876 51.757 39.695 49.5521 42.4076 49.5521M42.4076 48.5566C39.1426 48.5566 36.4922 51.2045 36.4922 54.4696V59.7355C36.4922 63.003 39.1401 65.6484 42.4076 65.6484C45.6727 65.6484 48.3206 63.0005 48.3206 59.7355V54.4696C48.3206 51.202 45.6727 48.5566 42.4076 48.5566Z" fill="#7A0000"/>
<path d="M43.7206 54.1138C43.7206 52.9043 42.7401 51.9238 41.5306 51.9238C40.3212 51.9238 39.3407 52.9043 39.3407 54.1138V57.6576C39.3407 58.8671 40.3212 59.8476 41.5306 59.8476C42.7401 59.8476 43.7206 58.8671 43.7206 57.6576V54.1138Z" fill="#1C1C1C"/>
<path d="M43.6011 52.7779C43.6011 52.1383 43.0809 51.6182 42.4414 51.6182C41.8018 51.6182 41.2817 52.1383 41.2817 52.7779C41.2817 53.4174 41.8018 53.9376 42.4414 53.9376C43.0809 53.9376 43.6011 53.4174 43.6011 52.7779Z" fill="white"/>
<path fill-rule="evenodd" clip-rule="evenodd" d="M57.0669 40.5262C56.8124 40.9704 56.2481 41.131 55.797 40.8843C55.3403 40.6345 55.1725 40.0618 55.4223 39.6051L56.2492 40.0574C55.4223 39.6051 55.4225 39.6047 55.4228 39.6042L55.4233 39.6033L55.4244 39.6013L55.4268 39.597L55.4323 39.5872C55.4363 39.5802 55.4411 39.572 55.4465 39.5628C55.4575 39.5444 55.4714 39.5219 55.4883 39.4959C55.5221 39.4439 55.5686 39.3773 55.6287 39.3012C55.7484 39.1495 55.9256 38.956 56.1693 38.7651C56.6667 38.3754 57.4193 38.0149 58.4552 38.0191M57.0669 40.5262C57.0672 40.5257 57.0677 40.525 57.0682 40.5242C57.0736 40.5159 57.0868 40.4964 57.1082 40.4693C57.1514 40.4145 57.225 40.3328 57.3319 40.2489C57.5358 40.0892 57.8844 39.9018 58.4479 39.9041L58.4484 39.9041C59.1546 39.9067 59.4863 40.1129 59.627 40.2319C59.7051 40.2978 59.7484 40.3574 59.7684 40.3891C59.7736 40.3974 59.7772 40.4038 59.7793 40.4077C59.9656 40.8741 60.4885 41.1147 60.9669 40.9466C61.458 40.7739 61.7161 40.2359 61.5435 39.7448L60.6543 40.0574C61.5435 39.7448 61.5433 39.7442 61.5431 39.7435L61.5426 39.7422L61.5416 39.7394L61.5395 39.7336L61.5347 39.7207C61.5312 39.7115 61.5272 39.7011 61.5225 39.6897C61.5133 39.667 61.5016 39.6399 61.4871 39.6092C61.4582 39.5478 61.4181 39.4713 61.3638 39.3851C61.2551 39.2123 61.0889 38.9992 60.8438 38.7921C60.3383 38.3648 59.5689 38.0232 58.4557 38.0191" fill="#7A0000"/>
<path fill-rule="evenodd" clip-rule="evenodd" d="M41.0434 44.7811C40.789 45.2253 40.2247 45.3859 39.7735 45.1392C39.3168 44.8894 39.1491 44.3167 39.3989 43.86L40.2258 44.3123C39.3989 43.86 39.3991 43.8595 39.3994 43.8591L39.3999 43.8581L39.401 43.8562L39.4033 43.8519L39.4088 43.8421C39.4129 43.8351 39.4176 43.8269 39.4231 43.8177C39.434 43.7993 39.4479 43.7768 39.4649 43.7508C39.4987 43.6988 39.5451 43.6322 39.6052 43.556C39.725 43.4044 39.9022 43.2109 40.1459 43.02C40.6433 42.6303 41.3958 42.2698 42.4318 42.274M41.0434 44.7811C41.0438 44.7805 41.0442 44.7798 41.0448 44.779C41.0502 44.7708 41.0633 44.7513 41.0847 44.7242C41.128 44.6694 41.2015 44.5876 41.3085 44.5038C41.5124 44.3441 41.861 44.1567 42.4244 44.159L42.4249 44.159C43.1311 44.1616 43.4629 44.3678 43.6036 44.4867C43.6816 44.5527 43.725 44.6123 43.7449 44.644C43.7501 44.6523 43.7537 44.6586 43.7558 44.6625C43.9422 45.129 44.4651 45.3696 44.9434 45.2015C45.4345 45.0288 45.6927 44.4908 45.5201 43.9997L44.6309 44.3123C45.5201 43.9997 45.5198 43.999 45.5196 43.9984L45.5191 43.9971L45.5182 43.9943L45.5161 43.9885L45.5112 43.9755C45.5078 43.9663 45.5037 43.956 45.4991 43.9446C45.4898 43.9219 45.4781 43.8948 45.4637 43.8641C45.4348 43.8027 45.3946 43.7262 45.3403 43.64C45.2316 43.4672 45.0655 43.2541 44.8204 43.047C44.3148 42.6197 43.5454 42.2781 42.4322 42.274" fill="#7A0000"/>
<path d="M50.6454 74.4111V90.1238C50.6454 97.3211 56.5005 103.176 63.6978 103.176C66.0874 103.176 68.0237 101.24 68.0237 98.8504C68.0237 96.4608 66.0874 94.5245 63.6978 94.5245C61.2709 94.5245 59.2971 92.5508 59.2971 90.1238V74.4111" fill="#FF4C4C"/>
<path fill-rule="evenodd" clip-rule="evenodd" d="M50.6455 73.4683C51.1661 73.4683 51.5881 73.8902 51.5881 74.4108V90.1235C51.5881 96.8002 57.0212 102.233 63.698 102.233C65.567 102.233 67.0813 100.719 67.0813 98.85C67.0813 96.981 65.567 95.4667 63.698 95.4667C60.7505 95.4667 58.3548 93.071 58.3548 90.1235V74.4108C58.3548 73.8902 58.7767 73.4683 59.2973 73.4683C59.8178 73.4683 60.2398 73.8902 60.2398 74.4108V90.1235C60.2398 92.0299 61.7915 93.5816 63.698 93.5816C66.6081 93.5816 68.9664 95.9399 68.9664 98.85C68.9664 101.76 66.6081 104.118 63.698 104.118C55.9801 104.118 49.703 97.8413 49.703 90.1235V74.4108C49.703 73.8902 50.125 73.4683 50.6455 73.4683Z" fill="#7A0000"/>
<path d="M43.3485 73.2095L43.3485 88.9221C43.3485 96.1195 49.2036 101.975 56.401 101.975C58.7905 101.975 60.7268 100.038 60.7268 97.6487C60.7268 95.2591 58.7905 93.3228 56.401 93.3228C53.974 93.3228 52.0003 91.3491 52.0003 88.9221V73.2095" fill="#FF4C4C"/>
<path fill-rule="evenodd" clip-rule="evenodd" d="M43.3487 72.2666C43.8692 72.2666 44.2912 72.6886 44.2912 73.2091L44.2912 88.9218C44.2912 95.5986 49.7243 101.032 56.4011 101.032C58.2701 101.032 59.7844 99.5174 59.7844 97.6484C59.7844 95.7793 58.2701 94.265 56.4011 94.265C53.4536 94.265 51.0579 91.8693 51.0579 88.9218V73.2091C51.0579 72.6886 51.4799 72.2666 52.0004 72.2666C52.521 72.2666 52.943 72.6886 52.943 73.2091V88.9218C52.943 90.8282 54.4947 92.38 56.4011 92.38C59.3112 92.38 61.6695 94.7382 61.6695 97.6484C61.6695 100.558 59.3112 102.917 56.4011 102.917C48.6832 102.917 42.4061 96.6397 42.4061 88.9218L42.4061 73.2091C42.4061 72.6886 42.8281 72.2666 43.3487 72.2666Z" fill="#7A0000"/>
<path d="M30.6054 74.0059V89.9892C30.6054 97.3097 24.6491 103.266 17.3263 103.266C14.895 103.266 12.9257 101.297 12.9257 98.8654C12.9257 96.434 14.895 94.4647 17.3263 94.4647C19.7951 94.4647 21.8041 92.4558 21.8041 89.9892V74.0059" fill="#FF4C4C"/>
<path fill-rule="evenodd" clip-rule="evenodd" d="M21.8037 73.063C22.3243 73.063 22.7462 73.485 22.7462 74.0055V89.9888C22.7462 92.9763 20.315 95.4069 17.326 95.4069C15.4152 95.4069 13.8679 96.9542 13.8679 98.865C13.8679 100.776 15.4152 102.323 17.326 102.323C24.1283 102.323 29.6626 96.7887 29.6626 89.9888V74.0055H31.5476V89.9888C31.5476 97.83 25.1692 104.208 17.326 104.208C14.3741 104.208 11.9828 101.817 11.9828 98.865C11.9828 95.9131 14.3741 93.5218 17.326 93.5218C19.2746 93.5218 20.8612 91.9346 20.8612 89.9888V74.0055C20.8612 73.485 21.2832 73.063 21.8037 73.063Z" fill="#7A0000"/>
<path d="M34.2041 73.6567V89.64C34.2041 96.9606 28.2477 102.917 20.925 102.917C18.4936 102.917 16.5243 100.948 16.5243 98.5162C16.5243 96.0849 18.4936 94.1155 20.925 94.1155C23.3938 94.1155 25.4027 92.1066 25.4027 89.64V73.6567" fill="#FF4C4C"/>
<path fill-rule="evenodd" clip-rule="evenodd" d="M25.4023 72.7139C25.9229 72.7139 26.3449 73.1359 26.3449 73.6564V89.6397C26.3449 92.6271 23.9137 95.0577 20.9246 95.0577C19.0138 95.0577 17.4665 96.6051 17.4665 98.5159C17.4665 100.427 19.0138 101.974 20.9246 101.974C27.7269 101.974 33.2612 96.4396 33.2612 89.6397V73.6564C33.2612 73.1359 33.6832 72.7139 34.2037 72.7139C34.7243 72.7139 35.1463 73.1359 35.1463 73.6564V89.6397C35.1463 97.4809 28.7678 103.859 20.9246 103.859C17.9727 103.859 15.5814 101.468 15.5814 98.5159C15.5814 95.564 17.9727 93.1727 20.9246 93.1727C22.8732 93.1727 24.4598 91.5854 24.4598 89.6397V73.6564C24.4598 73.1359 24.8818 72.7139 25.4023 72.7139Z" fill="#7A0000"/>
<path d="M43.4169 73.6567V89.3694C43.4169 96.5667 37.5618 102.422 30.3644 102.422C27.9748 102.422 26.0385 100.486 26.0385 98.096C26.0385 95.7064 27.9748 93.7701 30.3644 93.7701C32.7914 93.7701 34.7651 91.7964 34.7651 89.3694V73.6567" fill="#FF4C4C"/>
<path fill-rule="evenodd" clip-rule="evenodd" d="M43.4157 72.7139C42.8952 72.7139 42.4732 73.1359 42.4732 73.6564V89.3691C42.4732 96.0458 37.0401 101.479 30.3633 101.479C28.4943 101.479 26.9799 99.9647 26.9799 98.0956C26.9799 96.2266 28.4943 94.7123 30.3633 94.7123C33.3108 94.7123 35.7065 92.3166 35.7065 89.3691V73.6564C35.7065 73.1359 35.2845 72.7139 34.764 72.7139C34.2434 72.7139 33.8215 73.1359 33.8215 73.6564V89.3691C33.8215 91.2755 32.2697 92.8272 30.3633 92.8272C27.4532 92.8272 25.0949 95.1855 25.0949 98.0956C25.0949 101.006 27.4532 103.364 30.3633 103.364C38.0812 103.364 44.3583 97.0869 44.3583 89.3691V73.6564C44.3583 73.1359 43.9363 72.7139 43.4157 72.7139Z" fill="#7A0000"/>
<path d="M18.5784 13.3743H22.6573L22.4101 21.4826L22.1135 25.4873H19.1223L18.8256 21.4579L18.5784 13.3743ZM20.6302 31.173C19.9875 31.173 19.4354 30.9506 18.974 30.5056C18.529 30.0441 18.3065 29.4921 18.3065 28.8493C18.3065 28.2066 18.529 27.6627 18.974 27.2178C19.4354 26.7563 19.9875 26.5256 20.6302 26.5256C21.273 26.5256 21.8168 26.7563 22.2618 27.2178C22.7232 27.6627 22.954 28.2066 22.954 28.8493C22.954 29.4921 22.7232 30.0441 22.2618 30.5056C21.8168 30.9506 21.273 31.173 20.6302 31.173Z" fill="#FF4C4C"/>
<path d="M35.479 37.9012C35.0882 38.1438 34.6534 38.307 34.1994 38.3815C33.7455 38.456 33.2813 38.4404 32.8334 38.3356C32.3855 38.2307 31.9626 38.0387 31.5889 37.7704C31.2152 37.5021 30.8981 37.1629 30.6555 36.772" stroke="#FEE702" stroke-width="1.5" stroke-linecap="round" stroke-linejoin="round"/>
<path d="M35.4591 44.5103C35.2165 44.1194 35.0533 43.6846 34.9788 43.2306C34.9042 42.7767 34.9199 42.3125 35.0247 41.8646C35.1296 41.4167 35.3216 40.9938 35.5899 40.6202C35.8582 40.2465 36.1974 39.9293 36.5883 39.6867" stroke="#FEE702" stroke-width="1.5" stroke-linecap="round" stroke-linejoin="round"/>
<path d="M28.8494 44.4894C29.2403 44.2469 29.6751 44.0837 30.129 44.0091C30.583 43.9346 31.0471 43.9502 31.4951 44.055C31.943 44.1599 32.3658 44.352 32.7395 44.6202C33.1132 44.8885 33.4304 45.2278 33.673 45.6186" stroke="#FEE702" stroke-width="1.5" stroke-linecap="round" stroke-linejoin="round"/>
<path d="M28.8706 37.8799C29.1132 38.2707 29.2764 38.7055 29.3509 39.1595C29.4255 39.6134 29.4099 40.0776 29.305 40.5255C29.2001 40.9734 29.0081 41.3963 28.7398 41.77C28.4715 42.1437 28.1323 42.4609 27.7414 42.7034" stroke="#FEE702" stroke-width="1.5" stroke-linecap="round" stroke-linejoin="round"/>
<circle cx="50.6453" cy="67.4963" r="1.84741" fill="#7A0000"/>
</svg>
