<svg width="114" height="134" viewBox="0 0 114 134" fill="none" xmlns="http://www.w3.org/2000/svg">
<ellipse cx="57.8841" cy="124.343" rx="55.884" ry="9.02382" fill="#CFCFCF"/>
<path d="M44.0966 76.4727V101.165C44.0966 112.476 53.2979 121.677 64.6085 121.677C68.3637 121.677 71.4066 118.634 71.4066 114.879C71.4066 111.124 68.3637 108.081 64.6085 108.081C60.7945 108.081 57.6928 104.979 57.6928 101.165V76.4727" fill="#7000FF"/>
<path fill-rule="evenodd" clip-rule="evenodd" d="M44.0974 74.9912C44.9154 74.9912 45.5786 75.6544 45.5786 76.4724V101.165C45.5786 111.657 54.1167 120.195 64.6093 120.195C67.5464 120.195 69.9262 117.816 69.9262 114.879C69.9262 111.941 67.5464 109.562 64.6093 109.562C59.9772 109.562 56.2124 105.797 56.2124 101.165V76.4724C56.2124 75.6544 56.8756 74.9912 57.6936 74.9912C58.5116 74.9912 59.1748 75.6544 59.1748 76.4724V101.165C59.1748 104.161 61.6133 106.599 64.6093 106.599C69.1825 106.599 72.8885 110.305 72.8885 114.879C72.8885 119.452 69.1825 123.158 64.6093 123.158C52.4807 123.158 42.6162 113.293 42.6162 101.165V76.4724C42.6162 75.6544 43.2794 74.9912 44.0974 74.9912Z" fill="#3C008A"/>
<path d="M62.5798 0C45.4129 0 31.4767 14.0388 31.4767 31.3322V85.9087H93.6864L93.6864 31.3357C93.6864 14.0423 79.7468 0 62.5798 0Z" fill="#7000FF"/>
<path fill-rule="evenodd" clip-rule="evenodd" d="M34.4391 31.3322C34.4391 15.6543 47.0694 2.96237 62.5798 2.96237C78.0903 2.96237 90.7241 15.6579 90.7241 31.3357V82.9463H34.4391V31.3322ZM31.4767 31.3322C31.4767 14.0388 45.4129 0 62.5798 0C79.7468 0 93.6864 14.0423 93.6864 31.3357V85.9087H31.4767V31.3322Z" fill="#3C008A"/>
<path d="M34.0056 63.1103C38.6986 63.1103 42.5195 59.2933 42.5195 54.6003V46.3249C42.5195 41.6319 38.7025 37.811 34.0056 37.811C29.3087 37.811 25.4956 41.628 25.4956 46.3249V54.6003C25.4956 59.2933 29.3126 63.1103 34.0056 63.1103Z" fill="white"/>
<path fill-rule="evenodd" clip-rule="evenodd" d="M34.0053 65.086C39.7878 65.086 44.4941 60.386 44.4941 54.6011V46.3257C44.4941 40.5426 39.7935 35.8369 34.0053 35.8369C28.2165 35.8369 23.5204 40.5393 23.5204 46.3257V54.6011C23.5204 60.3848 28.2216 65.086 34.0053 65.086ZM42.5192 54.6011C42.5192 59.2941 38.6983 63.1111 34.0053 63.1111C29.3123 63.1111 25.4953 59.2941 25.4953 54.6011V46.3257C25.4953 41.6288 29.3084 37.8118 34.0053 37.8118C38.7022 37.8118 42.5192 41.6327 42.5192 46.3257V54.6011Z" fill="#3C008A"/>
<path d="M34.0047 38.5936C29.7418 38.5936 26.2768 42.0625 26.2768 46.3215V54.5968C26.2768 58.8596 29.7457 62.3246 34.0086 62.3246C38.2714 62.3246 41.7403 58.8557 41.7403 54.5968V46.3215C41.7403 42.0586 38.2714 38.5936 34.0086 38.5936M34.0086 37.0293C39.1396 37.0293 43.3046 41.1904 43.3046 46.3215V54.5968C43.3046 59.7317 39.1435 63.889 34.0086 63.889C28.8775 63.889 24.7164 59.7278 24.7164 54.5968V46.3215C24.7164 41.1865 28.8775 37.0293 34.0086 37.0293Z" fill="#3C008A"/>
<path d="M30.5641 49.2843C30.5641 47.3836 32.105 45.8428 34.0057 45.8428C35.9064 45.8428 37.4472 47.3836 37.4472 49.2843V54.8534C37.4472 56.7541 35.9064 58.2949 34.0057 58.2949C32.105 58.2949 30.5641 56.7541 30.5641 54.8534V49.2843Z" fill="#1C1C1C"/>
<path d="M30.7515 47.1838C30.7515 46.1787 31.5689 45.3613 32.574 45.3613C33.5791 45.3613 34.3964 46.1787 34.3964 47.1838C34.3964 48.1889 33.5791 49.0062 32.574 49.0062C31.5689 49.0062 30.7515 48.1889 30.7515 47.1838Z" fill="white"/>
<path d="M59.6944 63.1103C64.3874 63.1103 68.2083 59.2933 68.2083 54.6003V46.3249C68.2083 41.6319 64.3913 37.811 59.6944 37.811C54.9974 37.811 51.1844 41.628 51.1844 46.3249V54.6003C51.1844 59.2933 55.0013 63.1103 59.6944 63.1103Z" fill="white"/>
<path fill-rule="evenodd" clip-rule="evenodd" d="M59.693 65.086C65.4755 65.086 70.1818 60.386 70.1818 54.6011V46.3257C70.1818 40.5426 65.4812 35.8369 59.693 35.8369C53.9041 35.8369 49.208 40.5393 49.208 46.3257V54.6011C49.208 60.3848 53.9092 65.086 59.693 65.086ZM68.2069 54.6011C68.2069 59.2941 64.386 63.1111 59.693 63.1111C54.9999 63.1111 51.183 59.2941 51.183 54.6011V46.3257C51.183 41.6288 54.996 37.8118 59.693 37.8118C64.3899 37.8118 68.2069 41.6327 68.2069 46.3257V54.6011Z" fill="#3C008A"/>
<path d="M59.6941 38.5936C55.4313 38.5936 51.9663 42.0625 51.9663 46.3215V54.5968C51.9663 58.8596 55.4352 62.3246 59.698 62.3246C63.9608 62.3246 67.4297 58.8557 67.4297 54.5968V46.3215C67.4297 42.0586 63.9608 38.5936 59.698 38.5936M59.698 37.0293C64.829 37.0293 68.9941 41.1904 68.9941 46.3215V54.5968C68.9941 59.7317 64.8329 63.889 59.698 63.889C54.567 63.889 50.4058 59.7278 50.4058 54.5968V46.3215C50.4058 41.1865 54.567 37.0293 59.698 37.0293Z" fill="#3C008A"/>
<path d="M56.2508 49.2843C56.2508 47.3836 57.7917 45.8428 59.6924 45.8428C61.5931 45.8428 63.1339 47.3836 63.1339 49.2843V54.8534C63.1339 56.7541 61.5931 58.2949 59.6924 58.2949C57.7917 58.2949 56.2508 56.7541 56.2508 54.8534V49.2843Z" fill="#1C1C1C"/>
<path d="M56.4382 47.1838C56.4382 46.1787 57.2556 45.3613 58.2607 45.3613C59.2658 45.3613 60.0831 46.1787 60.0831 47.1838C60.0831 48.1889 59.2658 49.0062 58.2607 49.0062C57.2556 49.0062 56.4382 48.1889 56.4382 47.1838Z" fill="white"/>
<path d="M78.3879 26.6697C76.7636 26.6697 75.4469 25.353 75.4469 23.7287C75.4469 22.1044 76.7636 20.7876 78.3879 20.7876C80.0122 20.7876 81.329 22.1044 81.329 23.7287C81.329 25.353 80.0122 26.6697 78.3879 26.6697Z" fill="#FEE702"/>
<path d="M70.964 24.0829C69.7474 24.0829 68.7612 23.0967 68.7612 21.8801C68.7612 20.6635 69.7474 19.6772 70.964 19.6772C72.1806 19.6772 73.1669 20.6635 73.1669 21.8801C73.1669 23.0967 72.1806 24.0829 70.964 24.0829Z" fill="#FEE702"/>
<path d="M74.9389 17.918C74.0811 17.918 73.3857 17.2226 73.3857 16.3647C73.3857 15.5069 74.0811 14.8115 74.9389 14.8115C75.7967 14.8115 76.4921 15.5069 76.4921 16.3647C76.4921 17.2226 75.7967 17.918 74.9389 17.918Z" fill="#FEE702"/>
<path fill-rule="evenodd" clip-rule="evenodd" d="M36.6593 31.8795C37.0592 32.5775 37.946 32.8299 38.655 32.4422C39.3727 32.0497 39.6363 31.1497 39.2438 30.432L37.9443 31.1427C39.2438 30.432 39.2434 30.4312 39.243 30.4305L39.2422 30.429L39.2405 30.4259L39.2368 30.4192L39.2281 30.4039C39.2217 30.3928 39.2143 30.3799 39.2057 30.3655C39.1885 30.3366 39.1667 30.3012 39.1401 30.2603C39.0869 30.1786 39.0139 30.0739 38.9195 29.9543C38.7312 29.7159 38.4528 29.412 38.0698 29.1119C37.2882 28.4994 36.1055 27.933 34.4776 27.9395M36.6593 31.8795C36.6588 31.8786 36.6581 31.8775 36.6572 31.8762C36.6488 31.8632 36.6281 31.8326 36.5944 31.79C36.5264 31.7039 36.4109 31.5754 36.2428 31.4437C35.9224 31.1927 35.3746 30.8982 34.4891 30.9019L34.4883 30.9019C33.3785 30.9059 32.8572 31.23 32.636 31.4169C32.5134 31.5205 32.4453 31.6142 32.414 31.664C32.4057 31.6771 32.4001 31.687 32.3968 31.6931C32.104 32.4262 31.2822 32.8043 30.5305 32.5401C29.7587 32.2688 29.353 31.4232 29.6243 30.6515L31.0217 31.1427C29.6243 30.6515 29.6247 30.6505 29.625 30.6494L29.6258 30.6474L29.6273 30.643L29.6306 30.6339L29.6382 30.6135C29.6437 30.5991 29.65 30.5829 29.6573 30.565C29.6718 30.5292 29.6902 30.4866 29.7129 30.4384C29.7583 30.342 29.8215 30.2217 29.9068 30.0862C30.0776 29.8147 30.3387 29.4798 30.7239 29.1543C31.5183 28.4829 32.7275 27.946 34.4769 27.9395" fill="#3C008A"/>
<path fill-rule="evenodd" clip-rule="evenodd" d="M61.8409 29.5372C62.2407 30.2352 63.1276 30.4877 63.8365 30.0999C64.5542 29.7074 64.8178 28.8074 64.4253 28.0897L63.1258 28.8004C64.4253 28.0897 64.4249 28.089 64.4245 28.0882L64.4237 28.0868L64.422 28.0837L64.4183 28.077L64.4096 28.0616C64.4033 28.0505 64.3958 28.0376 64.3872 28.0232C64.37 27.9943 64.3482 27.959 64.3216 27.918C64.2684 27.8363 64.1954 27.7316 64.101 27.612C63.9128 27.3736 63.6343 27.0697 63.2514 26.7696C62.4697 26.1571 61.287 25.5907 59.6591 25.5972M61.8409 29.5372C61.8403 29.5363 61.8396 29.5352 61.8387 29.5339C61.8303 29.521 61.8096 29.4904 61.7759 29.4477C61.708 29.3616 61.5924 29.2332 61.4243 29.1014C61.1039 28.8504 60.5561 28.5559 59.6706 28.5596L59.6699 28.5596C58.56 28.5636 58.0387 28.8877 57.8176 29.0746C57.6949 29.1782 57.6268 29.2719 57.5955 29.3217C57.5873 29.3348 57.5816 29.3447 57.5783 29.3509C57.2855 30.0839 56.4637 30.462 55.712 30.1978C54.9403 29.9265 54.5346 29.081 54.8058 28.3092L56.2032 28.8004C54.8058 28.3092 54.8062 28.3082 54.8066 28.3072L54.8073 28.3051L54.8088 28.3008L54.8121 28.2916L54.8197 28.2713C54.8252 28.2568 54.8315 28.2406 54.8388 28.2227C54.8534 28.1869 54.8717 28.1444 54.8945 28.0961C54.9398 27.9997 55.003 27.8794 55.0883 27.7439C55.2591 27.4724 55.5202 27.1376 55.9054 26.812C56.6999 26.1406 57.909 25.6037 59.6584 25.5972" fill="#3C008A"/>
<path fill-rule="evenodd" clip-rule="evenodd" d="M44.5739 66.9779C44.1741 66.28 43.2872 66.0275 42.5783 66.4152C41.8606 66.8077 41.597 67.7077 41.9895 68.4255L43.289 67.7147C41.9895 68.4255 41.9899 68.4262 41.9903 68.4269L41.9911 68.4284L41.9928 68.4315L41.9965 68.4382L42.0052 68.4535C42.0115 68.4647 42.019 68.4775 42.0276 68.4919C42.0448 68.5208 42.0666 68.5562 42.0932 68.5971C42.1464 68.6788 42.2194 68.7835 42.3138 68.9031C42.502 69.1415 42.7804 69.4455 43.1634 69.7455C43.9451 70.358 45.1277 70.9245 46.7557 70.9179M44.5739 66.9779C44.5745 66.9788 44.5752 66.9799 44.576 66.9812C44.5845 66.9942 44.6052 67.0248 44.6388 67.0674C44.7068 67.1535 44.8224 67.282 44.9905 67.4137C45.3109 67.6648 45.8587 67.9592 46.7442 67.9556L46.7449 67.9556C47.8548 67.9515 48.3761 67.6275 48.5972 67.4405C48.7199 67.3369 48.7879 67.2432 48.8193 67.1934C48.8275 67.1804 48.8331 67.1704 48.8365 67.1643C49.1293 66.4312 49.951 66.0531 50.7028 66.3174C51.4745 66.5886 51.8802 67.4342 51.609 68.2059L50.2116 67.7147C51.609 68.2059 51.6086 68.2069 51.6082 68.208L51.6075 68.2101L51.606 68.2144L51.6026 68.2235L51.5951 68.2439C51.5896 68.2583 51.5833 68.2746 51.576 68.2925C51.5614 68.3282 51.543 68.3708 51.5203 68.419C51.4749 68.5155 51.4118 68.6357 51.3265 68.7713C51.1557 69.0427 50.8946 69.3776 50.5094 69.7031C49.7149 70.3745 48.5058 70.9114 46.7564 70.9179" fill="#3C008A"/>
<path d="M46.7499 77.6582V102.351C46.7499 113.661 37.5486 122.862 26.238 122.862C22.4828 122.862 19.4399 119.82 19.4399 116.064C19.4399 112.309 22.4828 109.266 26.238 109.266C30.052 109.266 33.1537 106.165 33.1537 102.351V77.6582" fill="#7000FF"/>
<path fill-rule="evenodd" clip-rule="evenodd" d="M46.7502 76.1768C45.9321 76.1768 45.269 76.8399 45.269 77.6579V102.35C45.269 112.843 36.7309 121.381 26.2383 121.381C23.3011 121.381 20.9214 119.001 20.9214 116.064C20.9214 113.127 23.3011 110.747 26.2383 110.747C30.8703 110.747 34.6352 106.982 34.6352 102.35V77.6579C34.6352 76.8399 33.972 76.1768 33.154 76.1768C32.3359 76.1768 31.6728 76.8399 31.6728 77.6579V102.35C31.6728 105.346 29.2343 107.785 26.2383 107.785C21.6651 107.785 17.959 111.491 17.959 116.064C17.959 120.637 21.6651 124.343 26.2383 124.343C38.3669 124.343 48.2314 114.479 48.2314 102.35V77.6579C48.2314 76.8399 47.5682 76.1768 46.7502 76.1768Z" fill="#3C008A"/>
<path d="M58.2195 75.7705L58.2195 100.463C58.2195 111.773 49.0182 120.975 37.7077 120.975C33.9525 120.975 30.9096 117.932 30.9096 114.177C30.9096 110.421 33.9525 107.379 37.7077 107.379C41.5217 107.379 44.6233 104.277 44.6233 100.463L44.6233 75.7705" fill="#7000FF"/>
<path fill-rule="evenodd" clip-rule="evenodd" d="M58.2182 74.2881C57.4002 74.2881 56.737 74.9512 56.737 75.7693L56.737 100.462C56.737 110.954 48.1989 119.492 37.7063 119.492C34.7691 119.492 32.3894 117.113 32.3894 114.175C32.3894 111.238 34.7691 108.859 37.7063 108.859C42.3383 108.859 46.1032 105.094 46.1032 100.462L46.1032 75.7693C46.1032 74.9512 45.44 74.2881 44.622 74.2881C43.8039 74.2881 43.1408 74.9512 43.1408 75.7693L43.1408 100.462C43.1408 103.458 40.7023 105.896 37.7063 105.896C33.1331 105.896 29.427 109.602 29.427 114.175C29.427 118.749 33.1331 122.455 37.7063 122.455C49.8349 122.455 59.6994 112.59 59.6994 100.462L59.6994 75.7693C59.6994 74.9512 59.0362 74.2881 58.2182 74.2881Z" fill="#3C008A"/>
<path d="M78.2435 77.022V102.14C78.2435 113.644 87.6038 123.004 99.1115 123.004C102.932 123.004 106.027 119.909 106.027 116.089C106.027 112.268 102.932 109.173 99.1115 109.173C95.2318 109.173 92.0748 106.016 92.0748 102.14V77.022" fill="#7000FF"/>
<path fill-rule="evenodd" clip-rule="evenodd" d="M91.941 76C91.1428 76 90.4957 76.6504 90.4957 77.4526V102.086C90.4957 106.69 94.2236 110.436 98.8069 110.436C101.737 110.436 104.11 112.82 104.11 115.765C104.11 118.71 101.737 121.095 98.8069 121.095C88.3765 121.095 79.8905 112.565 79.8905 102.086V77.4526H77V102.086C77 114.17 86.7804 124 98.8069 124C103.333 124 107 120.315 107 115.765C107 111.216 103.333 107.53 98.8069 107.53C95.8191 107.53 93.3862 105.084 93.3862 102.086V77.4526C93.3862 76.6504 92.7391 76 91.941 76Z" fill="#3C008A"/>
<path d="M72.5883 76.4727V101.59C72.5883 113.095 81.9487 122.455 93.4563 122.455C97.2772 122.455 100.372 119.36 100.372 115.539C100.372 111.718 97.2772 108.624 93.4563 108.624C89.5766 108.624 86.4197 105.467 86.4197 101.59V76.4727" fill="#7000FF"/>
<path fill-rule="evenodd" clip-rule="evenodd" d="M86.421 74.9912C85.603 74.9912 84.9398 75.6544 84.9398 76.4724V101.59C84.9398 106.285 88.7604 110.105 93.4577 110.105C96.4606 110.105 98.8922 112.536 98.8922 115.539C98.8922 118.542 96.4606 120.973 93.4577 120.973C82.7679 120.973 74.0709 112.276 74.0709 101.59V76.4724C74.0709 75.6544 73.4077 74.9912 72.5897 74.9912C71.7717 74.9912 71.1085 75.6544 71.1085 76.4724V101.59C71.1085 113.912 81.1322 123.936 93.4577 123.936C98.0966 123.936 101.855 120.178 101.855 115.539C101.855 110.9 98.0966 107.142 93.4577 107.142C90.3956 107.142 87.9022 104.648 87.9022 101.59V76.4724C87.9022 75.6544 87.2391 74.9912 86.421 74.9912Z" fill="#3C008A"/>
<path d="M58.1113 76.4727V101.165C58.1113 112.476 67.3125 121.677 78.6231 121.677C82.3783 121.677 85.4212 118.634 85.4212 114.879C85.4212 111.124 82.3783 108.081 78.6231 108.081C74.8091 108.081 71.7075 104.979 71.7075 101.165V76.4727" fill="#7000FF"/>
<path fill-rule="evenodd" clip-rule="evenodd" d="M58.112 74.9912C58.93 74.9912 59.5932 75.6544 59.5932 76.4724V101.165C59.5932 111.657 68.1313 120.195 78.6238 120.195C81.561 120.195 83.9408 117.816 83.9408 114.879C83.9408 111.941 81.561 109.562 78.6238 109.562C73.9918 109.562 70.227 105.797 70.227 101.165V76.4724C70.227 75.6544 70.8901 74.9912 71.7082 74.9912C72.5262 74.9912 73.1894 75.6544 73.1894 76.4724V101.165C73.1894 104.161 75.6279 106.599 78.6238 106.599C83.1971 106.599 86.9031 110.305 86.9031 114.879C86.9031 119.452 83.1971 123.158 78.6238 123.158C66.4952 123.158 56.6308 113.293 56.6308 101.165V76.4724C56.6308 75.6544 57.2939 74.9912 58.112 74.9912Z" fill="#3C008A"/>
<path d="M89.8495 59.7773C89.2108 59.8676 88.6222 59.4249 88.5319 58.7862C88.2118 56.5237 86.1079 54.9413 83.8453 55.2614L63.3901 58.1552C62.7514 58.2455 62.1628 57.8029 62.0724 57.1641C61.9821 56.5254 62.4247 55.9368 63.0635 55.8465L83.5187 52.9526C87.0549 52.4524 90.3403 54.9234 90.8406 58.4596C90.9309 59.0983 90.4883 59.6869 89.8495 59.7773Z" fill="#3C008A"/>
<g opacity="0.43">
<path d="M55.3783 67.4404L55.3821 67.4399C60.4314 66.7256 63.9456 62.0532 63.2312 57.004L63.2307 57.0001C62.5164 51.9508 57.8441 48.4367 52.7948 49.151L52.7909 49.1515C47.7417 49.8659 44.2275 54.5382 44.9418 59.5875L44.9424 59.5913C45.6567 64.6406 50.329 68.1547 55.3783 67.4404Z" fill="#FEE702"/>
</g>
<path d="M52.6316 47.9964C46.9522 48.7998 42.9847 54.0749 43.7876 59.7505C44.5905 65.4261 49.8661 69.3975 55.5456 68.594C61.225 67.7905 65.1925 62.5154 64.389 56.836C63.5856 51.1566 58.3072 47.1934 52.6316 47.9964ZM55.219 66.2853C50.8131 66.9086 46.7196 63.8297 46.0963 59.4239C45.473 55.0181 48.5524 50.9284 52.9582 50.3051C57.364 49.6818 61.457 52.7568 62.0803 57.1626C62.7036 61.5684 59.6248 65.662 55.219 66.2853Z" fill="#3C008A"/>
<g opacity="0.43">
<path d="M31.3804 67.4404L31.3843 67.4399C36.4335 66.7256 39.9477 62.0532 39.2334 57.004L39.2328 57.0001C38.5185 51.9508 33.8462 48.4367 28.7969 49.151L28.7931 49.1515C23.7438 49.8659 20.2296 54.5382 20.944 59.5875L20.9445 59.5913C21.6588 64.6406 26.3311 68.1547 31.3804 67.4404Z" fill="#FDC500"/>
</g>
<path d="M39.233 57C38.5199 51.9593 33.8378 48.4378 28.7932 49.1514C23.7487 49.8651 20.231 54.5466 20.9441 59.5873C20.231 54.5466 23.7525 49.8645 28.7971 49.1509C33.8416 48.4372 38.5237 51.9588 39.2368 56.9995L39.233 57Z" fill="#7000FF"/>
<path d="M28.6337 47.9964C22.9543 48.7998 18.9867 54.0749 19.7897 59.7505C20.5926 65.4261 25.8682 69.3975 31.5477 68.594C37.2271 67.7905 41.1946 62.5154 40.3911 56.836C39.5877 51.1566 34.3093 47.1934 28.6337 47.9964ZM31.221 66.2853C26.8152 66.9086 22.7217 63.8297 22.0984 59.4239C21.4751 55.0181 24.5545 50.9284 28.9603 50.3051C33.3661 49.6818 37.4591 52.7568 38.0824 57.1626C38.7057 61.5684 35.6268 65.662 31.221 66.2853Z" fill="#3C008A"/>
<g opacity="0.7">
<path d="M25.7488 56.9843C25.4526 57.0262 25.1405 56.9565 24.8852 56.7611C24.3713 56.3746 24.2679 55.6435 24.6544 55.1296L25.4902 54.0184C25.8767 53.5045 26.6078 53.4011 27.1217 53.7876C27.6356 54.1741 27.739 54.9052 27.3525 55.4191L26.5167 56.5303C26.3218 56.7894 26.0451 56.9424 25.7488 56.9843Z" fill="white"/>
</g>
<g opacity="0.7">
<path d="M49.7468 56.9843C49.4505 57.0262 49.1384 56.9565 48.8831 56.7611C48.3692 56.3746 48.2658 55.6435 48.6523 55.1296L49.4881 54.0184C49.8746 53.5045 50.6057 53.4011 51.1196 53.7876C51.6335 54.1741 51.7369 54.9052 51.3504 55.4191L50.5146 56.5303C50.3197 56.7894 50.0431 56.9424 49.7468 56.9843Z" fill="white"/>
</g>
</svg>
