<svg width="88" height="111" viewBox="0 0 88 111" fill="none" xmlns="http://www.w3.org/2000/svg">
<ellipse cx="35.561" cy="5.74219" rx="35.561" ry="5.74219" transform="matrix(-1 0 0 1 82.6229 98.5986)" fill="#CFCFCF"/>
<path d="M55.8351 73.8789V89.5916C55.8351 96.7889 49.98 102.644 42.7827 102.644C40.3931 102.644 38.4568 100.708 38.4568 98.3181C38.4568 95.9286 40.3931 93.9923 42.7827 93.9923C45.2096 93.9923 47.1834 92.0186 47.1834 89.5916V73.8789" fill="#7000FF"/>
<path fill-rule="evenodd" clip-rule="evenodd" d="M55.8345 72.936C55.3139 72.936 54.8919 73.358 54.8919 73.8786V89.5912C54.8919 96.268 49.4588 101.701 42.782 101.701C40.913 101.701 39.3987 100.187 39.3987 98.3178C39.3987 96.4488 40.913 94.9345 42.782 94.9345C45.7296 94.9345 48.1252 92.5388 48.1252 89.5912V73.8786C48.1252 73.358 47.7033 72.936 47.1827 72.936C46.6622 72.936 46.2402 73.358 46.2402 73.8786V89.5912C46.2402 91.4977 44.6885 93.0494 42.782 93.0494C39.8719 93.0494 37.5136 95.4077 37.5136 98.3178C37.5136 101.228 39.8719 103.586 42.782 103.586C50.4999 103.586 56.777 97.3091 56.777 89.5912V73.8786C56.777 73.358 56.355 72.936 55.8345 72.936Z" fill="#3C008A"/>
<path d="M59.2038 83.9658L74.019 78.7317C80.8053 76.3341 84.3755 68.863 81.978 62.0767C81.182 59.8236 78.7112 58.6429 76.4581 59.4389C74.205 60.2349 73.0243 62.7057 73.8204 64.9587C74.6288 67.2471 73.4253 69.7656 71.137 70.574L56.3217 75.8082" fill="#7000FF"/>
<path fill-rule="evenodd" clip-rule="evenodd" d="M55.4329 76.1231C55.2595 75.6323 55.5168 75.0938 56.0076 74.9204L70.8229 69.6863C72.6204 69.0512 73.5666 67.0712 72.9316 65.2737C71.9621 62.5298 73.4001 59.5206 76.1441 58.5512C78.888 57.5818 81.8972 59.0198 82.8666 61.7637C85.4375 69.0407 81.61 77.0503 74.3329 79.6213L59.5176 84.8555L58.8897 83.0781L73.7049 77.8439C80.0004 75.6197 83.3133 68.6871 81.0892 62.3916C80.4666 60.6293 78.5343 59.706 76.772 60.3286C75.0097 60.9512 74.0863 62.8834 74.709 64.6457C75.6908 67.4249 74.23 70.4818 71.4508 71.4637L56.6356 76.6978C56.1448 76.8712 55.6063 76.6139 55.4329 76.1231Z" fill="#3C008A"/>
<path d="M44.0742 25.2163C54.9982 25.2163 63.8663 34.1497 63.8663 45.1541V79.8831H24.2799L24.2799 45.1564C24.2799 34.1519 33.1502 25.2163 44.0742 25.2163Z" fill="#7000FF"/>
<path d="M34.0145 42.1874C35.0482 42.1874 35.886 41.3494 35.886 40.3158C35.886 39.2822 35.0482 38.4443 34.0145 38.4443C32.9809 38.4443 32.143 39.2822 32.143 40.3158C32.143 41.3494 32.9809 42.1874 34.0145 42.1874Z" fill="#FEE702"/>
<path d="M38.7388 40.5418C39.513 40.5418 40.1406 39.9142 40.1406 39.14C40.1406 38.3659 39.513 37.7383 38.7388 37.7383C37.9647 37.7383 37.3371 38.3659 37.3371 39.14C37.3371 39.9142 37.9647 40.5418 38.7388 40.5418Z" fill="#FEE702"/>
<path d="M36.2094 36.6183C36.7553 36.6183 37.1978 36.1758 37.1978 35.63C37.1978 35.0841 36.7553 34.6416 36.2094 34.6416C35.6635 34.6416 35.221 35.0841 35.221 35.63C35.221 36.1758 35.6635 36.6183 36.2094 36.6183Z" fill="#FEE702"/>
<path fill-rule="evenodd" clip-rule="evenodd" d="M61.9812 45.1541C61.9812 35.1777 53.9441 27.1014 44.0742 27.1014C34.2044 27.1014 26.165 35.18 26.165 45.1564V77.9981H61.9812V45.1541ZM63.8663 45.1541C63.8663 34.1497 54.9982 25.2163 44.0742 25.2163C33.1502 25.2163 24.2799 34.1519 24.2799 45.1564V79.8831H63.8663V45.1541Z" fill="#3C008A"/>
<path d="M62.2564 65.3757C59.27 65.3757 56.8387 62.9468 56.8387 59.9605V54.6946C56.8387 51.7082 59.2675 49.2769 62.2564 49.2769C65.2452 49.2769 67.6716 51.7057 67.6716 54.6946V59.9605C67.6716 62.9468 65.2427 65.3757 62.2564 65.3757Z" fill="white"/>
<path fill-rule="evenodd" clip-rule="evenodd" d="M62.2561 66.6328C58.5765 66.6328 55.5817 63.642 55.5817 59.9608V54.6949C55.5817 51.0149 58.5728 48.0205 62.2561 48.0205C65.9397 48.0205 68.928 51.0128 68.928 54.6949V59.9608C68.928 63.6412 65.9365 66.6328 62.2561 66.6328ZM56.8384 59.9608C56.8384 62.9472 59.2698 65.376 62.2561 65.376C65.2424 65.376 67.6713 62.9472 67.6713 59.9608V54.6949C67.6713 51.7061 65.2449 49.2772 62.2561 49.2772C59.2673 49.2772 56.8384 51.7086 56.8384 54.6949V59.9608Z" fill="#3C008A"/>
<path d="M62.2564 49.7747C64.969 49.7747 67.1739 51.9821 67.1739 54.6922V59.9581C67.1739 62.6707 64.9665 64.8756 62.254 64.8756C59.5414 64.8756 57.334 62.6682 57.334 59.9581V54.6922C57.334 51.9796 59.5414 49.7747 62.254 49.7747M62.254 48.7793C58.9889 48.7793 56.3385 51.4272 56.3385 54.6922V59.9581C56.3385 63.2257 58.9864 65.8711 62.254 65.8711C65.519 65.8711 68.1669 63.2232 68.1669 59.9581V54.6922C68.1669 51.4247 65.519 48.7793 62.254 48.7793Z" fill="#3C008A"/>
<path d="M64.4461 53.8838C64.4461 52.6743 63.4657 51.6938 62.2562 51.6938C61.0467 51.6938 60.0662 52.6743 60.0662 53.8838V57.4276C60.0662 58.6371 61.0467 59.6176 62.2562 59.6176C63.4657 59.6176 64.4461 58.6371 64.4461 57.4276V53.8838Z" fill="#1C1C1C"/>
<path d="M64.3271 52.5474C64.3271 51.9078 63.807 51.3877 63.1674 51.3877C62.5279 51.3877 62.0077 51.9078 62.0077 52.5474C62.0077 53.187 62.5279 53.7071 63.1674 53.7071C63.807 53.7071 64.3271 53.187 64.3271 52.5474Z" fill="white"/>
<path d="M45.9102 65.3757C42.9238 65.3757 40.4925 62.9468 40.4925 59.9605V54.6946C40.4925 51.7082 42.9213 49.2769 45.9102 49.2769C48.899 49.2769 51.3254 51.7057 51.3254 54.6946V59.9605C51.3254 62.9468 48.8965 65.3757 45.9102 65.3757Z" fill="white"/>
<path fill-rule="evenodd" clip-rule="evenodd" d="M45.9114 66.6328C42.2317 66.6328 39.237 63.642 39.237 59.9608V54.6949C39.237 51.0149 42.2281 48.0205 45.9114 48.0205C49.595 48.0205 52.5833 51.0128 52.5833 54.6949V59.9608C52.5833 63.6412 49.5918 66.6328 45.9114 66.6328ZM40.4937 59.9608C40.4937 62.9472 42.925 65.376 45.9114 65.376C48.8977 65.376 51.3266 62.9472 51.3266 59.9608V54.6949C51.3266 51.7061 48.9002 49.2772 45.9114 49.2772C42.9226 49.2772 40.4937 51.7086 40.4937 54.6949V59.9608Z" fill="#3C008A"/>
<path d="M45.9109 49.7747C48.6235 49.7747 50.8284 51.9821 50.8284 54.6922V59.9581C50.8284 62.6707 48.621 64.8756 45.9084 64.8756C43.1958 64.8756 40.9884 62.6682 40.9884 59.9581V54.6922C40.9884 51.9796 43.1958 49.7747 45.9084 49.7747M45.9084 48.7793C42.6433 48.7793 39.993 51.4272 39.993 54.6922V59.9581C39.993 63.2257 42.6408 65.8711 45.9084 65.8711C49.1734 65.8711 51.8213 63.2232 51.8213 59.9581V54.6922C51.8213 51.4247 49.1734 48.7793 45.9084 48.7793Z" fill="#3C008A"/>
<path d="M48.1012 53.8838C48.1012 52.6743 47.1207 51.6938 45.9112 51.6938C44.7017 51.6938 43.7212 52.6743 43.7212 53.8838V57.4276C43.7212 58.6371 44.7017 59.6176 45.9112 59.6176C47.1207 59.6176 48.1012 58.6371 48.1012 57.4276V53.8838Z" fill="#1C1C1C"/>
<path d="M47.9816 52.5474C47.9816 51.9078 47.4614 51.3877 46.8219 51.3877C46.1823 51.3877 45.6622 51.9078 45.6622 52.5474C45.6622 53.187 46.1823 53.7071 46.8219 53.7071C47.4614 53.7071 47.9816 53.187 47.9816 52.5474Z" fill="white"/>
<path fill-rule="evenodd" clip-rule="evenodd" d="M60.2447 43.3454C59.8023 43.6028 59.2332 43.4598 58.9659 43.0206C58.6953 42.5759 58.8363 41.996 59.281 41.7254L59.771 42.5305C59.281 41.7254 59.2815 41.7251 59.2819 41.7249L59.2828 41.7243L59.2847 41.7231L59.2889 41.7206L59.2986 41.7149C59.3056 41.7108 59.3138 41.7061 59.3232 41.7009C59.3418 41.6905 59.3651 41.6779 59.3928 41.6638C59.4481 41.6357 59.5216 41.6012 59.6117 41.5654C59.7913 41.4939 60.0414 41.415 60.348 41.3714C60.9736 41.2826 61.8056 41.3468 62.7006 41.8683M60.2447 43.3454C60.2453 43.3451 60.246 43.3447 60.2469 43.3443C60.2557 43.3398 60.2768 43.3295 60.3089 43.3168C60.3738 43.2909 60.4784 43.2569 60.6129 43.2378C60.8694 43.2014 61.2649 43.2134 61.7517 43.4972L61.7522 43.4974C62.3625 43.8527 62.5467 44.1972 62.6091 44.3706C62.6437 44.4667 62.6514 44.54 62.6528 44.5774C62.6532 44.5872 62.6531 44.5945 62.653 44.5989C62.5811 45.0961 62.9137 45.5659 63.412 45.6594C63.9236 45.7555 64.4162 45.4186 64.5123 44.907L63.5859 44.7331C64.5123 44.907 64.5124 44.9063 64.5125 44.9056L64.5128 44.9043L64.5133 44.9014L64.5144 44.8953L64.5167 44.8817C64.5183 44.872 64.52 44.861 64.5217 44.8488C64.525 44.8245 64.5284 44.7952 64.5313 44.7614C64.5369 44.6938 64.5404 44.6074 64.5365 44.5056C64.5287 44.3016 64.4914 44.034 64.3827 43.7321C64.1585 43.1093 63.663 42.4287 62.701 41.8686" fill="#3C008A"/>
<path fill-rule="evenodd" clip-rule="evenodd" d="M45.2382 45.5597C45.2399 46.0715 44.8315 46.4928 44.3175 46.5047C43.7971 46.5168 43.3655 46.1047 43.3534 45.5842L44.2957 45.5624C43.3534 45.5843 43.3534 45.5837 43.3534 45.5832L43.3534 45.5821L43.3533 45.5799L43.3532 45.575L43.3531 45.5638C43.3531 45.5556 43.3531 45.5462 43.3533 45.5355C43.3535 45.5141 43.3543 45.4877 43.356 45.4566C43.3593 45.3947 43.3662 45.3138 43.3802 45.2178C43.408 45.0266 43.4648 44.7705 43.5803 44.4833C43.8162 43.897 44.2878 43.2086 45.187 42.6942M45.2382 45.5597C45.2383 45.559 45.2383 45.5582 45.2383 45.5572C45.2389 45.5474 45.2405 45.5239 45.2455 45.4897C45.2556 45.4206 45.2784 45.3131 45.3291 45.187C45.4258 44.9467 45.634 44.6101 46.1232 44.3304L46.1236 44.3302C46.7365 43.9793 47.1269 43.992 47.3082 44.0246C47.4088 44.0427 47.4761 44.0727 47.5092 44.0902C47.5179 44.0948 47.5242 44.0985 47.5279 44.1008C47.9225 44.4116 48.4957 44.3585 48.8259 43.9737C49.1649 43.5786 49.1194 42.9836 48.7244 42.6446L48.1106 43.3599C48.7244 42.6446 48.7239 42.6442 48.7233 42.6437L48.7223 42.6428L48.7201 42.6409L48.7153 42.6369L48.7047 42.6281C48.6971 42.6219 48.6884 42.615 48.6787 42.6074C48.6593 42.5923 48.6356 42.5747 48.6077 42.5554C48.5521 42.5167 48.479 42.4705 48.3889 42.4229C48.2084 42.3277 47.9579 42.2262 47.6421 42.1694C46.9906 42.0522 46.1535 42.141 45.1874 42.694" fill="#3C008A"/>
<path fill-rule="evenodd" clip-rule="evenodd" d="M55.5311 67.1066C55.7856 66.6624 56.3499 66.5018 56.801 66.7485C57.2577 66.9983 57.4255 67.571 57.1757 68.0277L56.3488 67.5754C57.1757 68.0277 57.1755 68.0282 57.1752 68.0286L57.1747 68.0296L57.1736 68.0315L57.1712 68.0358L57.1657 68.0456C57.1617 68.0526 57.1569 68.0608 57.1515 68.07C57.1405 68.0884 57.1266 68.1109 57.1097 68.1369C57.0758 68.1889 57.0294 68.2555 56.9693 68.3316C56.8495 68.4833 56.6724 68.6768 56.4287 68.8677C55.9313 69.2574 55.1787 69.6179 54.1428 69.6137M55.5311 67.1066C55.5308 67.1071 55.5303 67.1078 55.5298 67.1087C55.5244 67.1169 55.5112 67.1364 55.4898 67.1635C55.4466 67.2183 55.373 67.3001 55.266 67.3839C55.0622 67.5436 54.7136 67.731 54.1501 67.7287L54.1496 67.7287C53.4434 67.7261 53.1117 67.5199 52.9709 67.401C52.8929 67.335 52.8496 67.2754 52.8296 67.2437C52.8244 67.2354 52.8208 67.2291 52.8187 67.2252C52.6324 66.7587 52.1095 66.5181 51.6311 66.6862C51.14 66.8589 50.8819 67.3969 51.0545 67.888L51.9437 67.5754C51.0545 67.888 51.0547 67.8886 51.0549 67.8893L51.0554 67.8906L51.0564 67.8934L51.0585 67.8992L51.0633 67.9121C51.0668 67.9213 51.0708 67.9317 51.0755 67.9431C51.0847 67.9658 51.0964 67.9929 51.1109 68.0236C51.1398 68.085 51.1799 68.1615 51.2342 68.2477C51.3429 68.4205 51.509 68.6336 51.7542 68.8407C52.2597 69.268 53.0291 69.6096 54.1423 69.6137" fill="#3C008A"/>
<path d="M54.1461 74.6333V90.346C54.1461 97.5433 60.0013 103.398 67.1986 103.398C69.5882 103.398 71.5245 101.462 71.5245 99.0725C71.5245 96.683 69.5882 94.7467 67.1986 94.7467C64.7716 94.7467 62.7979 92.7729 62.7979 90.346V74.6333" fill="#7000FF"/>
<path fill-rule="evenodd" clip-rule="evenodd" d="M54.1463 73.6904C54.6668 73.6904 55.0888 74.1124 55.0888 74.633V90.3456C55.0888 97.0224 60.522 102.456 67.1987 102.456C69.0678 102.456 70.5821 100.941 70.5821 99.0722C70.5821 97.2032 69.0678 95.6889 67.1987 95.6889C64.2512 95.6889 61.8555 93.2932 61.8555 90.3456V74.633C61.8555 74.1124 62.2775 73.6904 62.7981 73.6904C63.3186 73.6904 63.7406 74.1124 63.7406 74.633V90.3456C63.7406 92.2521 65.2923 93.8038 67.1987 93.8038C70.1089 93.8038 72.4671 96.1621 72.4671 99.0722C72.4671 101.982 70.1089 104.341 67.1987 104.341C59.4809 104.341 53.2038 98.0635 53.2038 90.3456V74.633C53.2038 74.1124 53.6258 73.6904 54.1463 73.6904Z" fill="#3C008A"/>
<path d="M46.8493 73.4316L46.8493 89.1443C46.8493 96.3416 52.7044 102.197 59.9017 102.197C62.2913 102.197 64.2276 100.26 64.2276 97.8709C64.2276 95.4813 62.2913 93.545 59.9017 93.545C57.4747 93.545 55.501 91.5713 55.501 89.1443V73.4316" fill="#7000FF"/>
<path fill-rule="evenodd" clip-rule="evenodd" d="M46.8494 72.4888C47.37 72.4888 47.792 72.9108 47.792 73.4313L47.792 89.144C47.792 95.8207 53.2251 101.254 59.9019 101.254C61.7709 101.254 63.2852 99.7396 63.2852 97.8705C63.2852 96.0015 61.7709 94.4872 59.9019 94.4872C56.9543 94.4872 54.5586 92.0915 54.5586 89.144V73.4313C54.5586 72.9108 54.9806 72.4888 55.5012 72.4888C56.0217 72.4888 56.4437 72.9108 56.4437 73.4313V89.144C56.4437 91.0504 57.9954 92.6021 59.9019 92.6021C62.812 92.6021 65.1703 94.9604 65.1703 97.8705C65.1703 100.781 62.812 103.139 59.9019 103.139C52.184 103.139 45.9069 96.8618 45.9069 89.144L45.9069 73.4313C45.9069 72.9108 46.3289 72.4888 46.8494 72.4888Z" fill="#3C008A"/>
<path d="M34.1062 74.228V90.2113C34.1062 97.5319 28.1499 103.488 20.8271 103.488C18.3957 103.488 16.4264 101.519 16.4264 99.0875C16.4264 96.6561 18.3957 94.6868 20.8271 94.6868C23.2959 94.6868 25.3048 92.6779 25.3048 90.2113V74.228" fill="#7000FF"/>
<path fill-rule="evenodd" clip-rule="evenodd" d="M25.3045 73.2852C25.825 73.2852 26.247 73.7071 26.247 74.2277V90.211C26.247 93.1984 23.8158 95.629 20.8268 95.629C18.9159 95.629 17.3686 97.1763 17.3686 99.0872C17.3686 100.998 18.9159 102.545 20.8268 102.545C27.6291 102.545 33.1633 97.0109 33.1633 90.211V74.2277H35.0484V90.211C35.0484 98.0522 28.67 104.43 20.8268 104.43C17.8748 104.43 15.4836 102.039 15.4836 99.0872C15.4836 96.1353 17.8748 93.744 20.8268 93.744C22.7753 93.744 24.3619 92.1567 24.3619 90.211V74.2277C24.3619 73.7071 24.7839 73.2852 25.3045 73.2852Z" fill="#3C008A"/>
<path d="M37.7048 73.8789V89.8622C37.7048 97.1828 31.7485 103.139 24.4257 103.139C21.9944 103.139 20.0251 101.17 20.0251 98.7384C20.0251 96.307 21.9944 94.3377 24.4257 94.3377C26.8945 94.3377 28.9034 92.3288 28.9034 89.8622V73.8789" fill="#7000FF"/>
<path fill-rule="evenodd" clip-rule="evenodd" d="M28.9031 72.936C29.4236 72.936 29.8456 73.358 29.8456 73.8786V89.8619C29.8456 92.8493 27.4144 95.2799 24.4254 95.2799C22.5146 95.2799 20.9672 96.8272 20.9672 98.7381C20.9672 100.649 22.5146 102.196 24.4254 102.196C31.2277 102.196 36.7619 96.6618 36.7619 89.8619V73.8786C36.7619 73.358 37.1839 72.936 37.7045 72.936C38.225 72.936 38.647 73.358 38.647 73.8786V89.8619C38.647 97.7031 32.2686 104.081 24.4254 104.081C21.4735 104.081 19.0822 101.69 19.0822 98.7381C19.0822 95.7861 21.4735 93.3948 24.4254 93.3948C26.3739 93.3948 27.9606 91.8076 27.9606 89.8619V73.8786C27.9606 73.358 28.3826 72.936 28.9031 72.936Z" fill="#3C008A"/>
<path d="M46.9176 73.8789V89.5916C46.9176 96.7889 41.0625 102.644 33.8652 102.644C31.4756 102.644 29.5393 100.708 29.5393 98.3181C29.5393 95.9286 31.4756 93.9923 33.8652 93.9923C36.2922 93.9923 38.2659 92.0186 38.2659 89.5916V73.8789" fill="#7000FF"/>
<path fill-rule="evenodd" clip-rule="evenodd" d="M46.9165 72.936C46.396 72.936 45.974 73.358 45.974 73.8786V89.5912C45.974 96.268 40.5408 101.701 33.8641 101.701C31.995 101.701 30.4807 100.187 30.4807 98.3178C30.4807 96.4488 31.995 94.9345 33.8641 94.9345C36.8116 94.9345 39.2073 92.5388 39.2073 89.5912V73.8786C39.2073 73.358 38.7853 72.936 38.2647 72.936C37.7442 72.936 37.3222 73.358 37.3222 73.8786V89.5912C37.3222 91.4977 35.7705 93.0494 33.8641 93.0494C30.9539 93.0494 28.5956 95.4077 28.5956 98.3178C28.5956 101.228 30.9539 103.586 33.8641 103.586C41.5819 103.586 47.859 97.3091 47.859 89.5912V73.8786C47.859 73.358 47.4371 72.936 46.9165 72.936Z" fill="#3C008A"/>
<circle cx="13.5752" cy="27.4586" r="2.91138" transform="rotate(30 13.5752 27.4586)" stroke="#D9D9D9" stroke-width="1.5"/>
<rect x="6.42816" y="4.48975" width="23.3024" height="23.1602" rx="3.25" fill="white" stroke="#D9D9D9" stroke-width="1.5"/>
<g clip-path="url(#clip0_125_1886)">
<path d="M22.7023 17.5407H13.1952C12.7377 17.5407 12.3683 17.1608 12.3683 16.6901C12.3683 16.2193 12.7377 15.8394 13.1952 15.8394H22.7023C23.1598 15.8394 23.5292 16.2193 23.5292 16.6901C23.5292 17.1608 23.1598 17.5407 22.7023 17.5407Z" fill="#D3D3D3"/>
<path d="M13.3303 22.2935C12.5695 22.2935 11.9521 21.6583 11.9521 20.8757V12.5077C11.9521 11.725 12.5695 11.0898 13.3303 11.0898C14.0911 11.0898 14.7085 11.725 14.7085 12.5077V20.8757C14.7085 21.6583 14.0911 22.2935 13.3303 22.2935Z" fill="#7000FF"/>
<path d="M11.1251 20.5919C10.3644 20.5919 9.74692 19.9567 9.74692 19.1741V14.2088C9.74692 13.4262 10.3644 12.791 11.1251 12.791C11.8859 12.791 12.5034 13.4262 12.5034 14.2088V19.1741C12.5034 19.9567 11.8859 20.5919 11.1251 20.5919Z" fill="#7000FF"/>
<path d="M22.7023 22.2935C21.9415 22.2935 21.324 21.6583 21.324 20.8757V12.5077C21.324 11.725 21.9415 11.0898 22.7023 11.0898C23.463 11.0898 24.0805 11.725 24.0805 12.5077V20.8757C24.0805 21.6583 23.463 22.2935 22.7023 22.2935Z" fill="#7000FF"/>
<path d="M24.9074 20.5919C24.1467 20.5919 23.5292 19.9567 23.5292 19.1741V14.2088C23.5292 13.4262 24.1467 12.791 24.9074 12.791C25.6682 12.791 26.2857 13.4262 26.2857 14.2088V19.1741C26.2857 19.9567 25.6682 20.5919 24.9074 20.5919Z" fill="#7000FF"/>
<g opacity="0.6">
<path d="M13.3303 14.4925C13.0271 14.4925 12.779 14.2373 12.779 13.9254V12.5076C12.779 12.1956 13.0271 11.9404 13.3303 11.9404C13.6335 11.9404 13.8816 12.1956 13.8816 12.5076V13.9254C13.8816 14.2373 13.6335 14.4925 13.3303 14.4925Z" fill="white"/>
</g>
<g opacity="0.6">
<path d="M22.7023 14.4925C22.3991 14.4925 22.151 14.2373 22.151 13.9254V12.5076C22.151 12.1956 22.3991 11.9404 22.7023 11.9404C23.0055 11.9404 23.2536 12.1956 23.2536 12.5076V13.9254C23.2536 14.2373 23.0055 14.4925 22.7023 14.4925Z" fill="white"/>
</g>
<g opacity="0.6">
<path d="M24.9074 16.1942C24.6042 16.1942 24.3561 15.939 24.3561 15.627V14.2092C24.3561 13.8973 24.6042 13.6421 24.9074 13.6421C25.2106 13.6421 25.4587 13.8973 25.4587 14.2092V15.627C25.4587 15.939 25.2106 16.1942 24.9074 16.1942Z" fill="white"/>
</g>
<g opacity="0.6">
<path d="M11.1251 16.1942C10.8219 16.1942 10.5739 15.939 10.5739 15.627V14.2092C10.5739 13.8973 10.8219 13.6421 11.1251 13.6421C11.4284 13.6421 11.6764 13.8973 11.6764 14.2092V15.627C11.6764 15.939 11.4284 16.1942 11.1251 16.1942Z" fill="white"/>
</g>
</g>
<circle cx="12.3684" cy="37.8439" r="2.52942" stroke="#D9D9D9" stroke-width="1.5"/>
<circle cx="19.0135" cy="43.9865" r="1.8371" stroke="#D9D9D9" stroke-width="1.5"/>
<defs>
<clipPath id="clip0_125_1886">
<rect width="16.5387" height="11.2037" fill="white" transform="translate(9.74692 11.0898)"/>
</clipPath>
</defs>
</svg>
