<svg width="114" height="134" viewBox="0 0 114 134" fill="none" xmlns="http://www.w3.org/2000/svg">
<ellipse cx="57.8841" cy="124.343" rx="55.884" ry="9.02382" fill="#CFCFCF"/>
<path d="M44.0967 76.4727V101.165C44.0967 112.476 53.298 121.677 64.6085 121.677C68.3638 121.677 71.4066 118.634 71.4066 114.879C71.4066 111.124 68.3638 108.081 64.6085 108.081C60.7946 108.081 57.6929 104.979 57.6929 101.165V76.4727" fill="#7000FF"/>
<path fill-rule="evenodd" clip-rule="evenodd" d="M44.0975 74.9912C44.9155 74.9912 45.5787 75.6544 45.5787 76.4724V101.165C45.5787 111.657 54.1168 120.195 64.6093 120.195C67.5465 120.195 69.9263 117.816 69.9263 114.879C69.9263 111.941 67.5465 109.562 64.6093 109.562C59.9773 109.562 56.2125 105.797 56.2125 101.165V76.4724C56.2125 75.6544 56.8756 74.9912 57.6937 74.9912C58.5117 74.9912 59.1749 75.6544 59.1749 76.4724V101.165C59.1749 104.161 61.6134 106.599 64.6093 106.599C69.1826 106.599 72.8886 110.305 72.8886 114.879C72.8886 119.452 69.1826 123.158 64.6093 123.158C52.4807 123.158 42.6163 113.293 42.6163 101.165V76.4724C42.6163 75.6544 43.2794 74.9912 44.0975 74.9912Z" fill="#3C008A"/>
<path d="M62.5799 0C45.4129 0 31.4768 14.0388 31.4768 31.3322V85.9087H93.6865L93.6865 31.3357C93.6865 14.0423 79.7469 0 62.5799 0Z" fill="#7000FF"/>
<path fill-rule="evenodd" clip-rule="evenodd" d="M34.4391 31.3322C34.4391 15.6543 47.0695 2.96237 62.5799 2.96237C78.0903 2.96237 90.7242 15.6579 90.7242 31.3357V82.9463H34.4391V31.3322ZM31.4768 31.3322C31.4768 14.0388 45.4129 0 62.5799 0C79.7469 0 93.6865 14.0423 93.6865 31.3357V85.9087H31.4768V31.3322Z" fill="#3C008A"/>
<path d="M34.0057 63.1103C38.6987 63.1103 42.5196 59.2933 42.5196 54.6003V46.3249C42.5196 41.6319 38.7026 37.811 34.0057 37.811C29.3087 37.811 25.4957 41.628 25.4957 46.3249V54.6003C25.4957 59.2933 29.3126 63.1103 34.0057 63.1103Z" fill="white"/>
<path fill-rule="evenodd" clip-rule="evenodd" d="M34.0054 65.086C39.7879 65.086 44.4942 60.386 44.4942 54.6011V46.3257C44.4942 40.5426 39.7936 35.8369 34.0054 35.8369C28.2165 35.8369 23.5204 40.5393 23.5204 46.3257V54.6011C23.5204 60.3848 28.2216 65.086 34.0054 65.086ZM42.5193 54.6011C42.5193 59.2941 38.6984 63.1111 34.0054 63.1111C29.3123 63.1111 25.4954 59.2941 25.4954 54.6011V46.3257C25.4954 41.6288 29.3084 37.8118 34.0054 37.8118C38.7023 37.8118 42.5193 41.6327 42.5193 46.3257V54.6011Z" fill="#3C008A"/>
<path d="M34.0047 38.5936C29.7419 38.5936 26.2769 42.0625 26.2769 46.3215V54.5968C26.2769 58.8596 29.7458 62.3246 34.0086 62.3246C38.2715 62.3246 41.7404 58.8557 41.7404 54.5968V46.3215C41.7404 42.0586 38.2715 38.5936 34.0086 38.5936M34.0086 37.0293C39.1397 37.0293 43.3047 41.1904 43.3047 46.3215V54.5968C43.3047 59.7317 39.1436 63.889 34.0086 63.889C28.8776 63.889 24.7165 59.7278 24.7165 54.5968V46.3215C24.7165 41.1865 28.8776 37.0293 34.0086 37.0293Z" fill="#3C008A"/>
<path d="M30.5645 45.0499C30.5645 43.1492 32.1053 41.6084 34.006 41.6084C35.9068 41.6084 37.4476 43.1492 37.4476 45.0499V50.619C37.4476 52.5197 35.9068 54.0605 34.006 54.0605C32.1053 54.0605 30.5645 52.5197 30.5645 50.619V45.0499Z" fill="#1C1C1C"/>
<path d="M30.7517 42.9494C30.7517 41.9443 31.569 41.127 32.5741 41.127C33.5792 41.127 34.3966 41.9443 34.3966 42.9494C34.3966 43.9545 33.5792 44.7719 32.5741 44.7719C31.569 44.7719 30.7517 43.9545 30.7517 42.9494Z" fill="white"/>
<path d="M59.6944 63.1103C64.3874 63.1103 68.2083 59.2933 68.2083 54.6003V46.3249C68.2083 41.6319 64.3913 37.811 59.6944 37.811C54.9975 37.811 51.1844 41.628 51.1844 46.3249V54.6003C51.1844 59.2933 55.0014 63.1103 59.6944 63.1103Z" fill="white"/>
<path fill-rule="evenodd" clip-rule="evenodd" d="M59.693 65.086C65.4756 65.086 70.1818 60.386 70.1818 54.6011V46.3257C70.1818 40.5426 65.4812 35.8369 59.693 35.8369C53.9042 35.8369 49.2081 40.5393 49.2081 46.3257V54.6011C49.2081 60.3848 53.9093 65.086 59.693 65.086ZM68.2069 54.6011C68.2069 59.2941 64.386 63.1111 59.693 63.1111C55 63.1111 51.183 59.2941 51.183 54.6011V46.3257C51.183 41.6288 54.9961 37.8118 59.693 37.8118C64.3899 37.8118 68.2069 41.6327 68.2069 46.3257V54.6011Z" fill="#3C008A"/>
<path d="M59.6941 38.5936C55.4313 38.5936 51.9663 42.0625 51.9663 46.3215V54.5968C51.9663 58.8596 55.4352 62.3246 59.6981 62.3246C63.9609 62.3246 67.4298 58.8557 67.4298 54.5968V46.3215C67.4298 42.0586 63.9609 38.5936 59.6981 38.5936M59.6981 37.0293C64.8291 37.0293 68.9941 41.1904 68.9941 46.3215V54.5968C68.9941 59.7317 64.833 63.889 59.6981 63.889C54.567 63.889 50.4059 59.7278 50.4059 54.5968V46.3215C50.4059 41.1865 54.567 37.0293 59.6981 37.0293Z" fill="#3C008A"/>
<path d="M56.2508 45.0499C56.2508 43.1492 57.7916 41.6084 59.6923 41.6084C61.5931 41.6084 63.1339 43.1492 63.1339 45.0499V50.619C63.1339 52.5197 61.5931 54.0605 59.6923 54.0605C57.7916 54.0605 56.2508 52.5197 56.2508 50.619V45.0499Z" fill="#1C1C1C"/>
<path d="M56.4384 42.9494C56.4384 41.9443 57.2558 41.127 58.2609 41.127C59.266 41.127 60.0833 41.9443 60.0833 42.9494C60.0833 43.9545 59.266 44.7719 58.2609 44.7719C57.2558 44.7719 56.4384 43.9545 56.4384 42.9494Z" fill="white"/>
<path d="M78.388 26.6697C76.7637 26.6697 75.447 25.353 75.447 23.7287C75.447 22.1044 76.7637 20.7876 78.388 20.7876C80.0123 20.7876 81.3291 22.1044 81.3291 23.7287C81.3291 25.353 80.0123 26.6697 78.388 26.6697Z" fill="#FEE702"/>
<path d="M70.9641 24.0829C69.7475 24.0829 68.7613 23.0967 68.7613 21.8801C68.7613 20.6635 69.7475 19.6772 70.9641 19.6772C72.1807 19.6772 73.167 20.6635 73.167 21.8801C73.167 23.0967 72.1807 24.0829 70.9641 24.0829Z" fill="#FEE702"/>
<path d="M74.939 17.918C74.0812 17.918 73.3858 17.2226 73.3858 16.3647C73.3858 15.5069 74.0812 14.8115 74.939 14.8115C75.7968 14.8115 76.4922 15.5069 76.4922 16.3647C76.4922 17.2226 75.7968 17.918 74.939 17.918Z" fill="#FEE702"/>
<path fill-rule="evenodd" clip-rule="evenodd" d="M36.6594 31.0943C37.0593 31.7923 37.9461 32.0448 38.655 31.6571C39.3728 31.2645 39.6364 30.3645 39.2438 29.6468L37.9443 30.3575C39.2438 29.6468 39.2435 29.6461 39.2431 29.6454L39.2422 29.6439L39.2405 29.6408L39.2368 29.6341L39.2281 29.6187C39.2218 29.6076 39.2143 29.5948 39.2057 29.5803C39.1886 29.5515 39.1667 29.5161 39.1401 29.4752C39.0869 29.3934 39.014 29.2888 38.9195 29.1691C38.7313 28.9308 38.4529 28.6268 38.0699 28.3267C37.2882 27.7143 36.1056 27.1478 34.4777 27.1544M36.6594 31.0943C36.6588 31.0934 36.6581 31.0923 36.6573 31.0911C36.6488 31.0781 36.6281 31.0475 36.5945 31.0049C36.5265 30.9188 36.4109 30.7903 36.2428 30.6586C35.9224 30.4075 35.3747 30.113 34.4891 30.1167L34.4884 30.1167C33.3786 30.1207 32.8573 30.4448 32.6361 30.6317C32.5135 30.7354 32.4454 30.829 32.414 30.8788C32.4058 30.8919 32.4002 30.9019 32.3969 30.908C32.104 31.641 31.2823 32.0191 30.5306 31.7549C29.7588 31.4836 29.3531 30.6381 29.6244 29.8663L31.0217 30.3575C29.6244 29.8663 29.6247 29.8653 29.6251 29.8643L29.6258 29.8622L29.6274 29.8579L29.6307 29.8487L29.6382 29.8284C29.6437 29.8139 29.6501 29.7977 29.6573 29.7798C29.6719 29.744 29.6903 29.7015 29.713 29.6532C29.7584 29.5568 29.8215 29.4366 29.9068 29.301C30.0777 29.0296 30.3387 28.6947 30.724 28.3691C31.5184 27.6977 32.7275 27.1609 34.4769 27.1544" fill="#3C008A"/>
<path fill-rule="evenodd" clip-rule="evenodd" d="M61.8409 31.0943C62.2408 31.7923 63.1276 32.0448 63.8366 31.6571C64.5543 31.2645 64.8179 30.3645 64.4254 29.6468L63.1258 30.3575C64.4254 29.6468 64.425 29.6461 64.4246 29.6454L64.4238 29.6439L64.422 29.6408L64.4183 29.6341L64.4097 29.6187C64.4033 29.6076 64.3959 29.5948 64.3873 29.5803C64.3701 29.5515 64.3483 29.5161 64.3216 29.4752C64.2684 29.3934 64.1955 29.2888 64.101 29.1691C63.9128 28.9308 63.6344 28.6268 63.2514 28.3267C62.4697 27.7143 61.2871 27.1478 59.6592 27.1544M61.8409 31.0943C61.8403 31.0934 61.8396 31.0923 61.8388 31.0911C61.8303 31.0781 61.8096 31.0475 61.776 31.0049C61.708 30.9188 61.5925 30.7903 61.4243 30.6586C61.1039 30.4075 60.5562 30.113 59.6706 30.1167L59.6699 30.1167C58.5601 30.1207 58.0388 30.4448 57.8176 30.6317C57.695 30.7354 57.6269 30.829 57.5955 30.8788C57.5873 30.8919 57.5817 30.9019 57.5784 30.908C57.2856 31.641 56.4638 32.0191 55.7121 31.7549C54.9403 31.4836 54.5346 30.6381 54.8059 29.8663L56.2033 30.3575C54.8059 29.8663 54.8062 29.8653 54.8066 29.8643L54.8073 29.8622L54.8089 29.8579L54.8122 29.8487L54.8198 29.8284C54.8252 29.8139 54.8316 29.7977 54.8389 29.7798C54.8534 29.744 54.8718 29.7015 54.8945 29.6532C54.9399 29.5568 55.003 29.4366 55.0883 29.301C55.2592 29.0296 55.5202 28.6947 55.9055 28.3691C56.6999 27.6977 57.909 27.1609 59.6584 27.1544" fill="#3C008A"/>
<path fill-rule="evenodd" clip-rule="evenodd" d="M44.574 66.9779C44.1741 66.28 43.2873 66.0275 42.5784 66.4152C41.8606 66.8077 41.597 67.7077 41.9896 68.4255L43.2891 67.7147C41.9896 68.4255 41.9899 68.4262 41.9903 68.4269L41.9912 68.4284L41.9929 68.4315L41.9966 68.4382L42.0053 68.4535C42.0116 68.4647 42.0191 68.4775 42.0277 68.4919C42.0448 68.5208 42.0667 68.5562 42.0933 68.5971C42.1465 68.6788 42.2194 68.7835 42.3139 68.9031C42.5021 69.1415 42.7805 69.4455 43.1635 69.7455C43.9452 70.358 45.1278 70.9245 46.7557 70.9179M44.574 66.9779C44.5746 66.9788 44.5753 66.9799 44.5761 66.9812C44.5846 66.9942 44.6053 67.0248 44.6389 67.0674C44.7069 67.1535 44.8225 67.282 44.9906 67.4137C45.311 67.6648 45.8587 67.9592 46.7443 67.9556L46.745 67.9556C47.8548 67.9515 48.3761 67.6275 48.5973 67.4405C48.7199 67.3369 48.788 67.2432 48.8194 67.1934C48.8276 67.1804 48.8332 67.1704 48.8365 67.1643C49.1294 66.4312 49.9511 66.0531 50.7028 66.3174C51.4746 66.5886 51.8803 67.4342 51.609 68.2059L50.2117 67.7147C51.609 68.2059 51.6087 68.2069 51.6083 68.208L51.6076 68.2101L51.606 68.2144L51.6027 68.2235L51.5952 68.2439C51.5897 68.2583 51.5833 68.2746 51.5761 68.2925C51.5615 68.3282 51.5431 68.3708 51.5204 68.419C51.475 68.5155 51.4119 68.6357 51.3266 68.7713C51.1557 69.0427 50.8947 69.3776 50.5094 69.7031C49.715 70.3745 48.5059 70.9114 46.7565 70.9179" fill="#3C008A"/>
<path d="M46.75 77.6582V102.351C46.75 113.661 37.5487 122.862 26.2381 122.862C22.4829 122.862 19.44 119.82 19.44 116.064C19.44 112.309 22.4829 109.266 26.2381 109.266C30.0521 109.266 33.1538 106.165 33.1538 102.351V77.6582" fill="#7000FF"/>
<path fill-rule="evenodd" clip-rule="evenodd" d="M46.7503 76.1768C45.9322 76.1768 45.2691 76.8399 45.2691 77.6579V102.35C45.2691 112.843 36.7309 121.381 26.2384 121.381C23.3012 121.381 20.9215 119.001 20.9215 116.064C20.9215 113.127 23.3012 110.747 26.2384 110.747C30.8704 110.747 34.6352 106.982 34.6352 102.35V77.6579C34.6352 76.8399 33.9721 76.1768 33.1541 76.1768C32.336 76.1768 31.6729 76.8399 31.6729 77.6579V102.35C31.6729 105.346 29.2343 107.785 26.2384 107.785C21.6651 107.785 17.9591 111.491 17.9591 116.064C17.9591 120.637 21.6651 124.343 26.2384 124.343C38.367 124.343 48.2314 114.479 48.2314 102.35V77.6579C48.2314 76.8399 47.5683 76.1768 46.7503 76.1768Z" fill="#3C008A"/>
<path d="M58.2196 75.7705L58.2196 100.463C58.2196 111.773 49.0183 120.975 37.7078 120.975C33.9526 120.975 30.9097 117.932 30.9097 114.177C30.9097 110.421 33.9526 107.379 37.7078 107.379C41.5217 107.379 44.6234 104.277 44.6234 100.463L44.6234 75.7705" fill="#7000FF"/>
<path fill-rule="evenodd" clip-rule="evenodd" d="M58.2183 74.2881C57.4002 74.2881 56.7371 74.9512 56.7371 75.7693L56.7371 100.462C56.7371 110.954 48.1989 119.492 37.7064 119.492C34.7692 119.492 32.3895 117.113 32.3895 114.175C32.3895 111.238 34.7692 108.859 37.7064 108.859C42.3384 108.859 46.1033 105.094 46.1033 100.462L46.1033 75.7693C46.1033 74.9512 45.4401 74.2881 44.6221 74.2881C43.804 74.2881 43.1409 74.9512 43.1409 75.7693L43.1409 100.462C43.1409 103.458 40.7024 105.896 37.7064 105.896C33.1332 105.896 29.4271 109.602 29.4271 114.175C29.4271 118.749 33.1332 122.455 37.7064 122.455C49.835 122.455 59.6995 112.59 59.6995 100.462L59.6995 75.7693C59.6995 74.9512 59.0363 74.2881 58.2183 74.2881Z" fill="#3C008A"/>
<path d="M78.2436 77.022V102.14C78.2436 113.644 87.6039 123.004 99.1116 123.004C102.932 123.004 106.027 119.909 106.027 116.089C106.027 112.268 102.932 109.173 99.1116 109.173C95.2319 109.173 92.0749 106.016 92.0749 102.14V77.022" fill="#7000FF"/>
<path fill-rule="evenodd" clip-rule="evenodd" d="M92.0762 75.54C91.2582 75.54 90.595 76.2032 90.595 77.0212V102.139C90.595 106.834 94.4157 110.653 99.1129 110.653C102.116 110.653 104.547 113.085 104.547 116.088C104.547 119.091 102.116 121.522 99.1129 121.522C88.4231 121.522 79.7261 112.825 79.7261 102.139V77.0212H76.7637V102.139C76.7637 114.461 86.7874 124.485 99.1129 124.485C103.752 124.485 107.51 120.727 107.51 116.088C107.51 111.449 103.752 107.691 99.1129 107.691C96.0508 107.691 93.5574 105.197 93.5574 102.139V77.0212C93.5574 76.2032 92.8943 75.54 92.0762 75.54Z" fill="#3C008A"/>
<path d="M72.5884 76.4727V101.59C72.5884 113.095 81.9487 122.455 93.4564 122.455C97.2773 122.455 100.372 119.36 100.372 115.539C100.372 111.718 97.2773 108.624 93.4564 108.624C89.5767 108.624 86.4197 105.467 86.4197 101.59V76.4727" fill="#7000FF"/>
<path fill-rule="evenodd" clip-rule="evenodd" d="M86.4211 74.9912C85.6031 74.9912 84.9399 75.6544 84.9399 76.4724V101.59C84.9399 106.285 88.7605 110.105 93.4578 110.105C96.4606 110.105 98.8923 112.536 98.8923 115.539C98.8923 118.542 96.4606 120.973 93.4578 120.973C82.768 120.973 74.0709 112.276 74.0709 101.59V76.4724C74.0709 75.6544 73.4078 74.9912 72.5898 74.9912C71.7717 74.9912 71.1086 75.6544 71.1086 76.4724V101.59C71.1086 113.912 81.1322 123.936 93.4578 123.936C98.0967 123.936 101.855 120.178 101.855 115.539C101.855 110.9 98.0967 107.142 93.4578 107.142C90.3957 107.142 87.9023 104.648 87.9023 101.59V76.4724C87.9023 75.6544 87.2391 74.9912 86.4211 74.9912Z" fill="#3C008A"/>
<path d="M58.1113 76.4727V101.165C58.1113 112.476 67.3126 121.677 78.6232 121.677C82.3784 121.677 85.4213 118.634 85.4213 114.879C85.4213 111.124 82.3784 108.081 78.6232 108.081C74.8092 108.081 71.7075 104.979 71.7075 101.165V76.4727" fill="#7000FF"/>
<path fill-rule="evenodd" clip-rule="evenodd" d="M58.112 74.9912C58.9301 74.9912 59.5932 75.6544 59.5932 76.4724V101.165C59.5932 111.657 68.1314 120.195 78.6239 120.195C81.5611 120.195 83.9408 117.816 83.9408 114.879C83.9408 111.941 81.5611 109.562 78.6239 109.562C73.9919 109.562 70.2271 105.797 70.2271 101.165V76.4724C70.2271 75.6544 70.8902 74.9912 71.7082 74.9912C72.5263 74.9912 73.1894 75.6544 73.1894 76.4724V101.165C73.1894 104.161 75.628 106.599 78.6239 106.599C83.1972 106.599 86.9032 110.305 86.9032 114.879C86.9032 119.452 83.1972 123.158 78.6239 123.158C66.4953 123.158 56.6309 113.293 56.6309 101.165V76.4724C56.6309 75.6544 57.294 74.9912 58.112 74.9912Z" fill="#3C008A"/>
</svg>
