<svg width="156" height="147" viewBox="0 0 156 147" fill="none" xmlns="http://www.w3.org/2000/svg">
<ellipse cx="51.0825" cy="8.32237" rx="51.0825" ry="8.32237" transform="matrix(-1 0 0 1 102.515 129.73)" fill="#CDCDCD"/>
<path d="M64.0361 93.9053V116.678C64.0361 127.11 55.6254 135.596 45.2866 135.596C41.8541 135.596 39.0726 132.789 39.0726 129.326C39.0726 125.863 41.8541 123.056 45.2866 123.056C48.7729 123.056 51.6081 120.196 51.6081 116.678V93.9053" fill="#7000FF"/>
<path fill-rule="evenodd" clip-rule="evenodd" d="M64.035 92.5381C63.2872 92.5381 62.6811 93.1497 62.6811 93.9041V116.677C62.6811 126.354 54.8765 134.228 45.2855 134.228C42.6007 134.228 40.4254 132.034 40.4254 129.325C40.4254 126.616 42.6007 124.421 45.2855 124.421C49.5195 124.421 52.9609 120.949 52.9609 116.677V93.9041C52.9609 93.1497 52.3547 92.5381 51.607 92.5381C50.8592 92.5381 50.253 93.1497 50.253 93.9041V116.677C50.253 119.44 48.024 121.689 45.2855 121.689C41.1052 121.689 37.7176 125.107 37.7176 129.325C37.7176 133.543 41.1052 136.961 45.2855 136.961C56.372 136.961 65.3889 127.863 65.3889 116.677V93.9041C65.3889 93.1497 64.7827 92.5381 64.035 92.5381Z" fill="#3A179D"/>
<path d="M68.9849 108.523L90.2063 101.016C99.9269 97.5775 104.996 86.73 101.506 76.8347C100.347 73.5493 96.7935 71.8123 93.5661 72.9539C90.3388 74.0956 88.6625 77.6829 89.8211 80.9683C90.9979 84.3051 89.2892 87.9617 86.0113 89.1212L64.7899 96.6284" fill="#7000FF"/>
<path fill-rule="evenodd" clip-rule="evenodd" d="M63.519 97.0787C63.2666 96.3631 63.6319 95.5814 64.3349 95.3327L85.5544 87.8267C88.1289 86.916 89.4722 84.0416 88.5479 81.4209C87.137 77.4205 89.1784 73.0521 93.1085 71.6619C97.0385 70.2717 101.367 72.387 102.778 76.3874C106.519 86.9969 101.086 98.6244 90.6628 102.311L69.4434 109.817L68.5295 107.226L89.7489 99.7199C98.7657 96.5304 103.469 86.4662 100.232 77.2879C99.3257 74.7186 96.5464 73.3604 94.0224 74.2532C91.4983 75.146 90.1875 77.9511 91.0936 80.5204C92.5226 84.5723 90.4488 89.01 86.4683 90.418L65.2488 97.9241C64.5459 98.1727 63.7714 97.7942 63.519 97.0787Z" fill="#3A179D"/>
<path d="M47.1423 23.376C62.8343 23.376 75.5731 36.3235 75.5731 52.2726V102.607H18.7084L18.7084 52.2759C18.7084 36.3267 31.4503 23.376 47.1423 23.376Z" fill="#7000FF"/>
<path fill-rule="evenodd" clip-rule="evenodd" d="M72.8653 52.2726C72.8653 37.8135 61.3201 26.1081 47.1423 26.1081C32.9645 26.1081 21.4162 37.8167 21.4162 52.2759V99.8746H72.8653V52.2726ZM75.5731 52.2726C75.5731 36.3235 62.8343 23.376 47.1423 23.376C31.4503 23.376 18.7084 36.3267 18.7084 52.2759V102.607H75.5731V52.2726Z" fill="#3A179D"/>
<path d="M73.2594 81.5826C68.9697 81.5826 65.4771 78.0624 65.4771 73.7341V66.1021C65.4771 61.7739 68.9661 58.25 73.2594 58.25C77.5528 58.25 81.0383 61.7703 81.0383 66.1021V73.7341C81.0383 78.0624 77.5492 81.5826 73.2594 81.5826Z" fill="#F5F5F5"/>
<path fill-rule="evenodd" clip-rule="evenodd" d="M73.2602 83.4051C67.9745 83.4051 63.6726 79.0705 63.6726 73.7352V66.1032C63.6726 60.7696 67.9693 56.4297 73.2602 56.4297C78.5517 56.4297 82.8443 60.7665 82.8443 66.1032V73.7352C82.8443 79.0694 78.547 83.4051 73.2602 83.4051ZM65.4778 73.7352C65.4778 78.0634 68.9704 81.5837 73.2602 81.5837C77.55 81.5837 81.039 78.0634 81.039 73.7352V66.1032C81.039 61.7714 77.5536 58.2511 73.2602 58.2511C68.9669 58.2511 65.4778 61.775 65.4778 66.1032V73.7352Z" fill="#3A179D"/>
<path d="M73.26 58.9711C77.1565 58.9711 80.3238 62.1703 80.3238 66.0982V73.7302C80.3238 77.6617 77.1529 80.8573 73.2564 80.8573C69.3598 80.8573 66.189 77.6581 66.189 73.7302V66.0982C66.189 62.1667 69.3598 58.9711 73.2564 58.9711M73.2564 57.5283C68.5662 57.5283 64.759 61.366 64.759 66.0982V73.7302C64.759 78.466 68.5626 82.3001 73.2564 82.3001C77.9466 82.3001 81.7502 78.4624 81.7502 73.7302V66.0982C81.7502 61.3624 77.9466 57.5283 73.2564 57.5283Z" fill="#3A179D"/>
<path d="M76.4055 64.926C76.4055 63.173 74.997 61.752 73.2596 61.752C71.5222 61.752 70.1138 63.173 70.1138 64.926V70.0621C70.1138 71.8151 71.5222 73.2361 73.2596 73.2361C74.997 73.2361 76.4055 71.8151 76.4055 70.0621V64.926Z" fill="#262626"/>
<path d="M76.2342 62.9894C76.2342 62.0624 75.4871 61.3086 74.5683 61.3086C73.6496 61.3086 72.9025 62.0624 72.9025 62.9894C72.9025 63.9163 73.6496 64.6702 74.5683 64.6702C75.4871 64.6702 76.2342 63.9163 76.2342 62.9894Z" fill="#F5F5F5"/>
<path d="M49.7796 81.5826C45.4898 81.5826 41.9972 78.0624 41.9972 73.7341V66.1021C41.9972 61.7739 45.4862 58.25 49.7796 58.25C54.0729 58.25 57.5584 61.7703 57.5584 66.1021V73.7341C57.5584 78.0624 54.0694 81.5826 49.7796 81.5826Z" fill="#F5F5F5"/>
<path fill-rule="evenodd" clip-rule="evenodd" d="M49.7813 83.4051C44.4956 83.4051 40.1937 79.0705 40.1937 73.7352V66.1032C40.1937 60.7696 44.4904 56.4297 49.7813 56.4297C55.0728 56.4297 59.3654 60.7665 59.3654 66.1032V73.7352C59.3654 79.0694 55.0681 83.4051 49.7813 83.4051ZM41.999 73.7352C41.999 78.0634 45.4916 81.5837 49.7813 81.5837C54.0711 81.5837 57.5602 78.0634 57.5602 73.7352V66.1032C57.5602 61.7714 54.0747 58.2511 49.7813 58.2511C45.488 58.2511 41.999 61.775 41.999 66.1032V73.7352Z" fill="#3A179D"/>
<path d="M49.7796 58.9711C53.6762 58.9711 56.8435 62.1703 56.8435 66.0982V73.7302C56.8435 77.6617 53.6726 80.8573 49.776 80.8573C45.8795 80.8573 42.7086 77.6581 42.7086 73.7302V66.0982C42.7086 62.1667 45.8795 58.9711 49.776 58.9711M49.776 57.5283C45.0859 57.5283 41.2787 61.366 41.2787 66.0982V73.7302C41.2787 78.466 45.0823 82.3001 49.776 82.3001C54.4662 82.3001 58.2698 78.4624 58.2698 73.7302V66.0982C58.2698 61.3624 54.4662 57.5283 49.776 57.5283Z" fill="#3A179D"/>
<path d="M52.9266 64.926C52.9266 63.173 51.5181 61.752 49.7807 61.752C48.0433 61.752 46.6349 63.173 46.6349 64.926V70.0621C46.6349 71.8151 48.0433 73.2361 49.7807 73.2361C51.5181 73.2361 52.9266 71.8151 52.9266 70.0621V64.926Z" fill="#262626"/>
<path d="M52.7548 62.9894C52.7548 62.0624 52.0077 61.3086 51.089 61.3086C50.1702 61.3086 49.4231 62.0624 49.4231 62.9894C49.4231 63.9163 50.1702 64.6702 51.089 64.6702C52.0077 64.6702 52.7548 63.9163 52.7548 62.9894Z" fill="#F5F5F5"/>
<path d="M32.6916 47.9698C34.1763 47.9698 35.3799 46.7554 35.3799 45.2574C35.3799 43.7593 34.1763 42.5449 32.6916 42.5449C31.2068 42.5449 30.0032 43.7593 30.0032 45.2574C30.0032 46.7554 31.2068 47.9698 32.6916 47.9698Z" fill="#FEE702"/>
<path d="M39.4775 45.5837C40.5895 45.5837 41.491 44.6741 41.491 43.5521C41.491 42.4301 40.5895 41.5205 39.4775 41.5205C38.3654 41.5205 37.4639 42.4301 37.4639 43.5521C37.4639 44.6741 38.3654 45.5837 39.4775 45.5837Z" fill="#FEE702"/>
<path d="M35.8453 39.8991C36.6294 39.8991 37.2651 39.2578 37.2651 38.4667C37.2651 37.6755 36.6294 37.0342 35.8453 37.0342C35.0612 37.0342 34.4255 37.6755 34.4255 38.4667C34.4255 39.2578 35.0612 39.8991 35.8453 39.8991Z" fill="#FEE702"/>
<path fill-rule="evenodd" clip-rule="evenodd" d="M70.8351 45.8867C70.4696 46.5304 69.6589 46.7633 69.0109 46.4057C68.3549 46.0437 68.1139 45.2136 68.4727 44.5517L69.6606 45.2072C68.4727 44.5517 68.4731 44.551 68.4734 44.5504L68.4742 44.549L68.4757 44.5461L68.4791 44.54L68.4871 44.5258C68.4929 44.5155 68.4997 44.5037 68.5075 44.4904C68.5232 44.4638 68.5432 44.4311 68.5675 44.3934C68.6161 44.318 68.6828 44.2215 68.7692 44.1112C68.9412 43.8913 69.1957 43.611 69.5458 43.3342C70.2603 42.7694 71.3413 42.2469 72.8294 42.253M70.8351 45.8867C70.8356 45.8859 70.8363 45.8849 70.837 45.8837C70.8447 45.8717 70.8637 45.8435 70.8944 45.8042C70.9566 45.7248 71.0622 45.6063 71.2159 45.4848C71.5087 45.2533 72.0094 44.9817 72.8189 44.9851L72.8196 44.9851C73.834 44.9888 74.3106 45.2877 74.5127 45.46C74.6248 45.5556 74.687 45.642 74.7157 45.688C74.7232 45.7 74.7284 45.7092 74.7314 45.7148C74.999 46.3909 75.7502 46.7396 76.4374 46.4959C77.1428 46.2457 77.5136 45.4659 77.2657 44.7542L75.9884 45.2072C77.2657 44.7542 77.2653 44.7532 77.265 44.7523L77.2643 44.7503L77.2629 44.7464L77.2599 44.7379L77.253 44.7192C77.248 44.7058 77.2422 44.6908 77.2355 44.6743C77.2222 44.6413 77.2054 44.6021 77.1847 44.5576C77.1432 44.4687 77.0855 44.3578 77.0075 44.2328C76.8513 43.9824 76.6127 43.6736 76.2606 43.3733C75.5344 42.7541 74.4291 42.259 72.8301 42.253" fill="#3A179D"/>
<path fill-rule="evenodd" clip-rule="evenodd" d="M47.8171 52.0547C47.4516 52.6984 46.641 52.9312 45.993 52.5736C45.3369 52.2116 45.096 51.3816 45.4548 50.7197L46.6426 51.3751C45.4548 50.7197 45.4551 50.719 45.4555 50.7183L45.4562 50.717L45.4578 50.7141L45.4612 50.7079L45.4691 50.6937C45.4749 50.6835 45.4817 50.6717 45.4896 50.6583C45.5053 50.6317 45.5252 50.5991 45.5496 50.5613C45.5982 50.486 45.6649 50.3895 45.7512 50.2791C45.9233 50.0593 46.1778 49.7789 46.5278 49.5022C47.2423 48.9373 48.3234 48.4149 49.8114 48.421M47.8171 52.0547C47.8177 52.0538 47.8183 52.0528 47.8191 52.0517C47.8268 52.0397 47.8457 52.0115 47.8765 51.9721C47.9386 51.8927 48.0443 51.7742 48.1979 51.6528C48.4908 51.4212 48.9915 51.1497 49.8009 51.153L49.8016 51.153C50.8161 51.1567 51.2926 51.4556 51.4948 51.628C51.6069 51.7236 51.6691 51.81 51.6978 51.8559C51.7053 51.868 51.7104 51.8771 51.7134 51.8828C51.9811 52.5589 52.7323 52.9076 53.4194 52.6639C54.1248 52.4137 54.4957 51.6339 54.2477 50.9221L52.9704 51.3751C54.2477 50.9221 54.2474 50.9212 54.2471 50.9202L54.2464 50.9183L54.245 50.9143L54.242 50.9059L54.2351 50.8871C54.2301 50.8738 54.2243 50.8588 54.2176 50.8423C54.2043 50.8093 54.1875 50.7701 54.1667 50.7256C54.1252 50.6366 54.0675 50.5258 53.9895 50.4007C53.8334 50.1504 53.5948 49.8415 53.2426 49.5413C52.5164 48.9221 51.4112 48.4269 49.8121 48.421" fill="#3A179D"/>
<path fill-rule="evenodd" clip-rule="evenodd" d="M63.0733 83.7148C63.4362 83.0715 64.2463 82.8388 64.8963 83.1962C65.5544 83.558 65.7992 84.3875 65.4431 85.0491L64.2516 84.394C65.4431 85.0491 65.4428 85.0497 65.4424 85.0504L65.4417 85.0518L65.4401 85.0546L65.4367 85.0608L65.4289 85.075C65.4231 85.0852 65.4163 85.097 65.4085 85.1103C65.3929 85.1369 65.3731 85.1696 65.3489 85.2073C65.3006 85.2826 65.2343 85.3791 65.1484 85.4893C64.9773 85.7091 64.7238 85.9892 64.3748 86.2658C63.6624 86.8303 62.583 87.3524 61.094 87.3464M63.0733 83.7148C63.0728 83.7157 63.0722 83.7167 63.0714 83.7179C63.0637 83.7298 63.0449 83.758 63.0143 83.7973C62.9525 83.8767 62.8473 83.9951 62.6941 84.1165C62.4021 84.3479 61.9023 84.6193 61.0924 84.616L61.0917 84.616C60.0766 84.6122 59.5985 84.3135 59.3954 84.1413C59.2828 84.0457 59.2202 83.9594 59.1913 83.9135C59.1837 83.9014 59.1785 83.8923 59.1755 83.8866C58.9046 83.211 58.1515 82.8625 57.465 83.106C56.7602 83.356 56.3926 84.1354 56.6439 84.8467L57.92 84.394C56.6439 84.8467 56.6443 84.8477 56.6446 84.8486L56.6453 84.8505L56.6467 84.8545L56.6498 84.8629L56.6568 84.8817C56.6618 84.895 56.6677 84.91 56.6744 84.9265C56.6879 84.9595 56.7049 84.9987 56.7259 85.0432C56.7678 85.132 56.826 85.2428 56.9046 85.3678C57.062 85.618 57.3021 85.9266 57.6558 86.2267C58.3852 86.8456 59.4933 87.3404 61.0934 87.3464" fill="#3A179D"/>
<path d="M61.6099 94.998V117.771C61.6099 128.202 70.0206 136.688 80.3594 136.688C83.7919 136.688 86.5734 133.882 86.5734 130.419C86.5734 126.955 83.7919 124.149 80.3594 124.149C76.8731 124.149 74.0379 121.289 74.0379 117.771V94.998" fill="#7000FF"/>
<path fill-rule="evenodd" clip-rule="evenodd" d="M61.6101 93.6309C62.3579 93.6309 62.9641 94.2425 62.9641 94.9969V117.77C62.9641 127.447 70.7686 135.321 80.3596 135.321C83.0445 135.321 85.2197 133.126 85.2197 130.418C85.2197 127.709 83.0445 125.514 80.3596 125.514C76.1256 125.514 72.6842 122.042 72.6842 117.77V94.9969C72.6842 94.2425 73.2904 93.6309 74.0382 93.6309C74.7859 93.6309 75.3921 94.2425 75.3921 94.9969V117.77C75.3921 120.533 77.6211 122.782 80.3596 122.782C84.54 122.782 87.9276 126.2 87.9276 130.418C87.9276 134.635 84.54 138.053 80.3596 138.053C69.2731 138.053 60.2562 128.956 60.2562 117.77V94.9969C60.2562 94.2425 60.8624 93.6309 61.6101 93.6309Z" fill="#3A179D"/>
<path d="M51.1287 93.2578L51.1287 116.031C51.1287 126.462 59.5394 134.948 69.8782 134.948C73.3107 134.948 76.0922 132.142 76.0922 128.679C76.0922 125.215 73.3107 122.409 69.8782 122.409C66.3919 122.409 63.5567 119.548 63.5567 116.031L63.5567 93.2578" fill="#7000FF"/>
<path fill-rule="evenodd" clip-rule="evenodd" d="M51.1285 91.8916C51.8762 91.8916 52.4824 92.5032 52.4824 93.2576L52.4824 116.031C52.4824 125.708 60.2869 133.582 69.878 133.582C72.5628 133.582 74.738 131.387 74.738 128.678C74.738 125.969 72.5628 123.775 69.878 123.775C65.6439 123.775 62.2026 120.303 62.2026 116.031L62.2026 93.2576C62.2026 92.5032 62.8087 91.8916 63.5565 91.8916C64.3042 91.8916 64.9104 92.5032 64.9104 93.2576V116.031C64.9104 118.794 67.1394 121.043 69.878 121.043C74.0583 121.043 77.4459 124.461 77.4459 128.678C77.4459 132.896 74.0583 136.314 69.878 136.314C58.7914 136.314 49.7745 127.216 49.7745 116.031L49.7745 93.2576C49.7745 92.5032 50.3807 91.8916 51.1285 91.8916Z" fill="#3A179D"/>
<path d="M32.823 94.4102V117.575C32.823 128.185 24.2669 136.818 13.748 136.818C10.2554 136.818 7.42651 133.964 7.42651 130.44C7.42651 126.916 10.2554 124.062 13.748 124.062C17.2943 124.062 20.1801 121.15 20.1801 117.575V94.4102" fill="#7000FF"/>
<path fill-rule="evenodd" clip-rule="evenodd" d="M20.1792 93.0457C20.9269 93.0457 21.5331 93.6573 21.5331 94.4117V117.577C21.5331 121.907 18.0407 125.429 13.7471 125.429C11.0022 125.429 8.7795 127.672 8.7795 130.442C8.7795 133.211 11.0022 135.454 13.7471 135.454C23.5184 135.454 31.4682 127.432 31.4682 117.577V94.4117H34.176V117.577C34.176 128.941 25.0136 138.186 13.7471 138.186C9.50669 138.186 6.07166 134.72 6.07166 130.442C6.07166 126.163 9.50669 122.697 13.7471 122.697C16.5461 122.697 18.8252 120.397 18.8252 117.577V94.4117C18.8252 93.6573 19.4314 93.0457 20.1792 93.0457Z" fill="#3A179D"/>
<path d="M37.9932 93.9053V117.07C37.9932 127.68 29.4371 136.313 18.9182 136.313C15.4255 136.313 12.5967 133.459 12.5967 129.935C12.5967 126.411 15.4255 123.557 18.9182 123.557C22.4645 123.557 25.3502 120.645 25.3502 117.07V93.9053" fill="#7000FF"/>
<path fill-rule="evenodd" clip-rule="evenodd" d="M25.3489 92.5381C26.0967 92.5381 26.7029 93.1497 26.7029 93.9041V117.069C26.7029 121.399 23.2105 124.922 18.9169 124.922C16.172 124.922 13.9493 127.164 13.9493 129.934C13.9493 132.703 16.172 134.946 18.9169 134.946C28.6882 134.946 36.638 126.925 36.638 117.069V93.9041C36.638 93.1497 37.2442 92.5381 37.9919 92.5381C38.7397 92.5381 39.3458 93.1497 39.3458 93.9041V117.069C39.3458 128.434 30.1834 137.678 18.9169 137.678C14.6765 137.678 11.2415 134.212 11.2415 129.934C11.2415 125.656 14.6765 122.19 18.9169 122.19C21.7159 122.19 23.995 119.889 23.995 117.069V93.9041C23.995 93.1497 24.6012 92.5381 25.3489 92.5381Z" fill="#3A179D"/>
<path d="M51.2266 93.9053V116.678C51.2266 127.11 42.8158 135.596 32.4771 135.596C29.0445 135.596 26.263 132.789 26.263 129.326C26.263 125.863 29.0445 123.056 32.4771 123.056C35.9634 123.056 38.7985 120.196 38.7985 116.678V93.9053" fill="#7000FF"/>
<path fill-rule="evenodd" clip-rule="evenodd" d="M51.2248 92.5381C50.4771 92.5381 49.8709 93.1497 49.8709 93.9041V116.677C49.8709 126.354 42.0663 134.228 32.4753 134.228C29.7905 134.228 27.6152 132.034 27.6152 129.325C27.6152 126.616 29.7905 124.421 32.4753 124.421C36.7094 124.421 40.1507 120.949 40.1507 116.677V93.9041C40.1507 93.1497 39.5445 92.5381 38.7968 92.5381C38.049 92.5381 37.4429 93.1497 37.4429 93.9041V116.677C37.4429 119.44 35.2139 121.689 32.4753 121.689C28.295 121.689 24.9074 125.107 24.9074 129.325C24.9074 133.543 28.295 136.961 32.4753 136.961C43.5618 136.961 52.5787 127.863 52.5787 116.677V93.9041C52.5787 93.1497 51.9726 92.5381 51.2248 92.5381Z" fill="#3A179D"/>
<rect width="5.54512" height="17.4458" rx="2.77256" transform="matrix(0.98182 0.202765 -0.200141 0.97711 98.8954 65.759)" fill="#CDCDCD"/>
<path d="M133.94 52.6868C134.423 54.4288 133.924 56.2921 132.637 57.5591L116.371 73.5695C115.108 74.8128 113.276 75.2934 111.558 74.8323L89.0711 68.7964C87.3531 68.3353 86.0065 67.0015 85.533 65.292L79.4348 43.2785C78.9523 41.5364 79.4505 39.6732 80.7378 38.4062L97.004 22.3957C98.2672 21.1524 100.099 20.6718 101.817 21.133L124.304 27.1688C126.022 27.63 127.368 28.9638 127.842 30.6732L133.94 52.6868Z" fill="#3A179D"/>
<path d="M128.153 51.1319C128.635 52.874 128.137 54.7372 126.85 56.0042L114.793 67.8711C113.53 69.1144 111.698 69.595 109.98 69.1339L93.2815 64.6516C91.5635 64.1904 90.2169 62.8567 89.7433 61.1472L85.2234 44.8309C84.7409 43.0888 85.2391 41.2256 86.5264 39.9586L98.5829 28.0917C99.846 26.8484 101.678 26.3678 103.396 26.8289L120.095 31.3112C121.813 31.7723 123.159 33.1061 123.633 34.8156L128.153 51.1319Z" fill="#F5F5F5"/>
<path d="M99.9922 47.7004L107.189 49.5343L106.124 53.7337L98.928 51.8998L99.9922 47.7004ZM94.1117 53.4029L104.537 37.8293L109.107 38.994L110.297 57.5276L105.702 56.3565L105.142 41.2762L106.96 41.7395L98.6821 54.5676L94.1117 53.4029ZM120.42 54.7534L112.265 52.675L113.303 48.5762L121.459 50.6546L120.42 54.7534Z" fill="#7000FF"/>
</svg>
