<svg width="156" height="147" viewBox="0 0 156 147" fill="none" xmlns="http://www.w3.org/2000/svg">
<ellipse cx="51.0825" cy="8.32237" rx="51.0825" ry="8.32237" transform="matrix(-1 0 0 1 102.515 129.542)" fill="#CDCDCD"/>
<path d="M64.0361 93.7173V116.49C64.0361 126.922 55.6254 135.408 45.2866 135.408C41.8541 135.408 39.0726 132.601 39.0726 129.138C39.0726 125.675 41.8541 122.868 45.2866 122.868C48.7729 122.868 51.6081 120.008 51.6081 116.49V93.7173" fill="#7000FF"/>
<path fill-rule="evenodd" clip-rule="evenodd" d="M64.035 92.3501C63.2872 92.3501 62.6811 92.9617 62.6811 93.7161V116.489C62.6811 126.166 54.8765 134.04 45.2855 134.04C42.6007 134.04 40.4254 131.846 40.4254 129.137C40.4254 126.428 42.6007 124.233 45.2855 124.233C49.5195 124.233 52.9609 120.761 52.9609 116.489V93.7161C52.9609 92.9617 52.3547 92.3501 51.607 92.3501C50.8592 92.3501 50.253 92.9617 50.253 93.7161V116.489C50.253 119.252 48.024 121.501 45.2855 121.501C41.1052 121.501 37.7176 124.919 37.7176 129.137C37.7176 133.355 41.1052 136.773 45.2855 136.773C56.372 136.773 65.3889 127.675 65.3889 116.489V93.7161C65.3889 92.9617 64.7827 92.3501 64.035 92.3501Z" fill="#3A179D"/>
<path d="M68.9849 108.335L90.2063 100.828C99.9269 97.3895 104.996 86.5421 101.506 76.6467C100.347 73.3613 96.7935 71.6243 93.5661 72.766C90.3388 73.9076 88.6625 77.4949 89.8211 80.7803C90.9979 84.1171 89.2892 87.7737 86.0113 88.9332L64.7899 96.4404" fill="#7000FF"/>
<path fill-rule="evenodd" clip-rule="evenodd" d="M63.519 96.8907C63.2666 96.1751 63.6319 95.3934 64.3349 95.1448L85.5544 87.6387C88.1289 86.728 89.4722 83.8536 88.5479 81.2329C87.137 77.2325 89.1784 72.8641 93.1085 71.4739C97.0385 70.0837 101.367 72.199 102.778 76.1994C106.519 86.8089 101.086 98.4364 90.6628 102.123L69.4434 109.629L68.5295 107.038L89.7489 99.532C98.7657 96.3424 103.469 86.2782 100.232 77.0999C99.3257 74.5306 96.5464 73.1724 94.0224 74.0652C91.4983 74.9581 90.1875 77.7631 91.0936 80.3324C92.5226 84.3843 90.4488 88.822 86.4683 90.23L65.2488 97.7361C64.5459 97.9848 63.7714 97.6062 63.519 96.8907Z" fill="#3A179D"/>
<path d="M47.1423 23.188C62.8343 23.188 75.5731 36.1355 75.5731 52.0846V102.419H18.7084L18.7084 52.0879C18.7084 36.1388 31.4503 23.188 47.1423 23.188Z" fill="#7000FF"/>
<path fill-rule="evenodd" clip-rule="evenodd" d="M72.8653 52.0846C72.8653 37.6255 61.3201 25.9201 47.1423 25.9201C32.9645 25.9201 21.4162 37.6287 21.4162 52.0879V99.6866H72.8653V52.0846ZM75.5731 52.0846C75.5731 36.1355 62.8343 23.188 47.1423 23.188C31.4503 23.188 18.7084 36.1388 18.7084 52.0879V102.419H75.5731V52.0846Z" fill="#3A179D"/>
<path d="M73.2594 81.3946C68.9697 81.3946 65.4771 77.8744 65.4771 73.5462V65.9141C65.4771 61.5859 68.9661 58.062 73.2594 58.062C77.5528 58.062 81.0383 61.5823 81.0383 65.9141V73.5462C81.0383 77.8744 77.5492 81.3946 73.2594 81.3946Z" fill="#F5F5F5"/>
<path fill-rule="evenodd" clip-rule="evenodd" d="M73.2602 83.2171C67.9745 83.2171 63.6726 78.8825 63.6726 73.5472V65.9152C63.6726 60.5816 67.9693 56.2417 73.2602 56.2417C78.5517 56.2417 82.8443 60.5785 82.8443 65.9152V73.5472C82.8443 78.8814 78.547 83.2171 73.2602 83.2171ZM65.4778 73.5472C65.4778 77.8755 68.9704 81.3957 73.2602 81.3957C77.55 81.3957 81.039 77.8755 81.039 73.5472V65.9152C81.039 61.5834 77.5536 58.0631 73.2602 58.0631C68.9669 58.0631 65.4778 61.587 65.4778 65.9152V73.5472Z" fill="#3A179D"/>
<path d="M73.26 58.7831C77.1565 58.7831 80.3238 61.9823 80.3238 65.9102V73.5422C80.3238 77.4737 77.1529 80.6694 73.2564 80.6694C69.3598 80.6694 66.189 77.4701 66.189 73.5422V65.9102C66.189 61.9787 69.3598 58.7831 73.2564 58.7831M73.2564 57.3403C68.5662 57.3403 64.759 61.178 64.759 65.9102V73.5422C64.759 78.278 68.5626 82.1121 73.2564 82.1121C77.9466 82.1121 81.7502 78.2744 81.7502 73.5422V65.9102C81.7502 61.1744 77.9466 57.3403 73.2564 57.3403Z" fill="#3A179D"/>
<path d="M76.4055 64.738C76.4055 62.985 74.997 61.564 73.2596 61.564C71.5222 61.564 70.1138 62.985 70.1138 64.738V69.8741C70.1138 71.6271 71.5222 73.0481 73.2596 73.0481C74.997 73.0481 76.4055 71.6271 76.4055 69.8741V64.738Z" fill="#262626"/>
<path d="M76.2342 62.8014C76.2342 61.8744 75.4871 61.1206 74.5683 61.1206C73.6496 61.1206 72.9025 61.8744 72.9025 62.8014C72.9025 63.7284 73.6496 64.4822 74.5683 64.4822C75.4871 64.4822 76.2342 63.7284 76.2342 62.8014Z" fill="#F5F5F5"/>
<path d="M49.7796 81.3946C45.4898 81.3946 41.9972 77.8744 41.9972 73.5462V65.9141C41.9972 61.5859 45.4862 58.062 49.7796 58.062C54.0729 58.062 57.5584 61.5823 57.5584 65.9141V73.5462C57.5584 77.8744 54.0694 81.3946 49.7796 81.3946Z" fill="#F5F5F5"/>
<path fill-rule="evenodd" clip-rule="evenodd" d="M49.7813 83.2171C44.4956 83.2171 40.1937 78.8825 40.1937 73.5472V65.9152C40.1937 60.5816 44.4904 56.2417 49.7813 56.2417C55.0728 56.2417 59.3654 60.5785 59.3654 65.9152V73.5472C59.3654 78.8814 55.0681 83.2171 49.7813 83.2171ZM41.999 73.5472C41.999 77.8755 45.4916 81.3957 49.7813 81.3957C54.0711 81.3957 57.5602 77.8755 57.5602 73.5472V65.9152C57.5602 61.5834 54.0747 58.0631 49.7813 58.0631C45.488 58.0631 41.999 61.587 41.999 65.9152V73.5472Z" fill="#3A179D"/>
<path d="M49.7796 58.7831C53.6762 58.7831 56.8435 61.9823 56.8435 65.9102V73.5422C56.8435 77.4737 53.6726 80.6694 49.776 80.6694C45.8795 80.6694 42.7086 77.4701 42.7086 73.5422V65.9102C42.7086 61.9787 45.8795 58.7831 49.776 58.7831M49.776 57.3403C45.0859 57.3403 41.2787 61.178 41.2787 65.9102V73.5422C41.2787 78.278 45.0823 82.1121 49.776 82.1121C54.4662 82.1121 58.2698 78.2744 58.2698 73.5422V65.9102C58.2698 61.1744 54.4662 57.3403 49.776 57.3403Z" fill="#3A179D"/>
<path d="M52.9266 64.738C52.9266 62.985 51.5181 61.564 49.7807 61.564C48.0433 61.564 46.6349 62.985 46.6349 64.738V69.8741C46.6349 71.6271 48.0433 73.0481 49.7807 73.0481C51.5181 73.0481 52.9266 71.6271 52.9266 69.8741V64.738Z" fill="#262626"/>
<path d="M52.7548 62.8014C52.7548 61.8744 52.0077 61.1206 51.089 61.1206C50.1702 61.1206 49.4231 61.8744 49.4231 62.8014C49.4231 63.7284 50.1702 64.4822 51.089 64.4822C52.0077 64.4822 52.7548 63.7284 52.7548 62.8014Z" fill="#F5F5F5"/>
<path d="M32.6916 47.7818C34.1763 47.7818 35.3799 46.5674 35.3799 45.0694C35.3799 43.5713 34.1763 42.3569 32.6916 42.3569C31.2068 42.3569 30.0032 43.5713 30.0032 45.0694C30.0032 46.5674 31.2068 47.7818 32.6916 47.7818Z" fill="#FEE702"/>
<path d="M39.4775 45.3957C40.5895 45.3957 41.491 44.4862 41.491 43.3641C41.491 42.2421 40.5895 41.3325 39.4775 41.3325C38.3654 41.3325 37.4639 42.2421 37.4639 43.3641C37.4639 44.4862 38.3654 45.3957 39.4775 45.3957Z" fill="#FEE702"/>
<path d="M35.8453 39.7111C36.6294 39.7111 37.2651 39.0698 37.2651 38.2787C37.2651 37.4875 36.6294 36.8462 35.8453 36.8462C35.0612 36.8462 34.4255 37.4875 34.4255 38.2787C34.4255 39.0698 35.0612 39.7111 35.8453 39.7111Z" fill="#FEE702"/>
<path fill-rule="evenodd" clip-rule="evenodd" d="M70.8351 45.6987C70.4696 46.3424 69.6589 46.5753 69.0109 46.2177C68.3549 45.8557 68.1139 45.0256 68.4727 44.3637L69.6606 45.0192C68.4727 44.3637 68.4731 44.363 68.4734 44.3624L68.4742 44.361L68.4757 44.3581L68.4791 44.352L68.4871 44.3378C68.4929 44.3275 68.4997 44.3157 68.5075 44.3024C68.5232 44.2758 68.5432 44.2431 68.5675 44.2054C68.6161 44.13 68.6828 44.0335 68.7692 43.9232C68.9412 43.7033 69.1957 43.423 69.5458 43.1462C70.2603 42.5814 71.3413 42.059 72.8294 42.065M70.8351 45.6987C70.8356 45.6979 70.8363 45.6969 70.837 45.6957C70.8447 45.6837 70.8637 45.6555 70.8944 45.6162C70.9566 45.5368 71.0622 45.4183 71.2159 45.2968C71.5087 45.0653 72.0094 44.7937 72.8189 44.7971L72.8196 44.7971C73.834 44.8008 74.3106 45.0997 74.5127 45.272C74.6248 45.3676 74.687 45.454 74.7157 45.5C74.7232 45.512 74.7284 45.5212 74.7314 45.5268C74.999 46.2029 75.7502 46.5516 76.4374 46.3079C77.1428 46.0577 77.5136 45.2779 77.2657 44.5662L75.9884 45.0192C77.2657 44.5662 77.2653 44.5652 77.265 44.5643L77.2643 44.5623L77.2629 44.5584L77.2599 44.5499L77.253 44.5312C77.248 44.5178 77.2422 44.5029 77.2355 44.4864C77.2222 44.4534 77.2054 44.4141 77.1847 44.3696C77.1432 44.2807 77.0855 44.1698 77.0075 44.0448C76.8513 43.7944 76.6127 43.4856 76.2606 43.1853C75.5344 42.5661 74.4291 42.071 72.8301 42.065" fill="#3A179D"/>
<path fill-rule="evenodd" clip-rule="evenodd" d="M47.8171 51.8667C47.4516 52.5104 46.641 52.7432 45.993 52.3857C45.3369 52.0236 45.096 51.1936 45.4548 50.5317L46.6426 51.1871C45.4548 50.5317 45.4551 50.531 45.4555 50.5303L45.4562 50.529L45.4578 50.5261L45.4612 50.5199L45.4691 50.5058C45.4749 50.4955 45.4817 50.4837 45.4896 50.4704C45.5053 50.4437 45.5252 50.4111 45.5496 50.3734C45.5982 50.298 45.6649 50.2015 45.7512 50.0911C45.9233 49.8713 46.1778 49.5909 46.5278 49.3142C47.2423 48.7493 48.3234 48.2269 49.8114 48.233M47.8171 51.8667C47.8177 51.8658 47.8183 51.8648 47.8191 51.8637C47.8268 51.8517 47.8457 51.8235 47.8765 51.7842C47.9386 51.7048 48.0443 51.5863 48.1979 51.4648C48.4908 51.2332 48.9915 50.9617 49.8009 50.965L49.8016 50.965C50.8161 50.9688 51.2926 51.2676 51.4948 51.44C51.6069 51.5356 51.6691 51.622 51.6978 51.6679C51.7053 51.68 51.7104 51.6892 51.7134 51.6948C51.9811 52.3709 52.7323 52.7196 53.4194 52.4759C54.1248 52.2257 54.4957 51.4459 54.2477 50.7341L52.9704 51.1871C54.2477 50.7341 54.2474 50.7332 54.2471 50.7322L54.2464 50.7303L54.245 50.7263L54.242 50.7179L54.2351 50.6991C54.2301 50.6858 54.2243 50.6708 54.2176 50.6543C54.2043 50.6213 54.1875 50.5821 54.1667 50.5376C54.1252 50.4487 54.0675 50.3378 53.9895 50.2127C53.8334 49.9624 53.5948 49.6536 53.2426 49.3533C52.5164 48.7341 51.4112 48.239 49.8121 48.233" fill="#3A179D"/>
<path fill-rule="evenodd" clip-rule="evenodd" d="M63.0733 83.5269C63.4362 82.8835 64.2463 82.6508 64.8963 83.0082C65.5544 83.37 65.7992 84.1996 65.4431 84.8611L64.2516 84.206C65.4431 84.8611 65.4428 84.8617 65.4424 84.8624L65.4417 84.8638L65.4401 84.8666L65.4367 84.8728L65.4289 84.887C65.4231 84.8972 65.4163 84.909 65.4085 84.9223C65.3929 84.949 65.3731 84.9816 65.3489 85.0193C65.3006 85.0946 65.2343 85.1911 65.1484 85.3013C64.9773 85.5211 64.7238 85.8012 64.3748 86.0778C63.6624 86.6423 62.583 87.1644 61.094 87.1584M63.0733 83.5269C63.0728 83.5277 63.0722 83.5287 63.0714 83.5299C63.0637 83.5418 63.0449 83.57 63.0143 83.6093C62.9525 83.6887 62.8473 83.8071 62.6941 83.9285C62.4021 84.1599 61.9023 84.4313 61.0924 84.428C60.0773 84.4243 59.5985 84.1255 59.3954 83.9533C59.2828 83.8577 59.2202 83.7714 59.1913 83.7255C59.1837 83.7134 59.1785 83.7043 59.1755 83.6986C58.9046 83.023 58.1515 82.6745 57.465 82.918C56.7602 83.1681 56.3926 83.9474 56.6439 84.6587L57.92 84.206C56.6439 84.6587 56.6443 84.6597 56.6446 84.6606L56.6453 84.6625L56.6467 84.6665L56.6498 84.675L56.6568 84.6937C56.6618 84.707 56.6677 84.722 56.6744 84.7385C56.6879 84.7715 56.7049 84.8107 56.7259 84.8552C56.7678 84.944 56.826 85.0549 56.9046 85.1798C57.062 85.43 57.3021 85.7387 57.6558 86.0387C58.3852 86.6576 59.494 87.1524 61.094 87.1584" fill="#3A179D"/>
<path d="M61.6099 94.8101V117.583C61.6099 128.014 70.0206 136.5 80.3594 136.5C83.7919 136.5 86.5734 133.694 86.5734 130.231C86.5734 126.767 83.7919 123.961 80.3594 123.961C76.8731 123.961 74.0379 121.101 74.0379 117.583V94.8101" fill="#7000FF"/>
<path fill-rule="evenodd" clip-rule="evenodd" d="M61.6101 93.4429C62.3579 93.4429 62.9641 94.0545 62.9641 94.8089V117.582C62.9641 127.259 70.7686 135.133 80.3596 135.133C83.0445 135.133 85.2197 132.938 85.2197 130.23C85.2197 127.521 83.0445 125.326 80.3596 125.326C76.1256 125.326 72.6842 121.854 72.6842 117.582V94.8089C72.6842 94.0545 73.2904 93.4429 74.0382 93.4429C74.7859 93.4429 75.3921 94.0545 75.3921 94.8089V117.582C75.3921 120.345 77.6211 122.594 80.3596 122.594C84.54 122.594 87.9276 126.012 87.9276 130.23C87.9276 134.447 84.54 137.865 80.3596 137.865C69.2731 137.865 60.2562 128.768 60.2562 117.582V94.8089C60.2562 94.0545 60.8624 93.4429 61.6101 93.4429Z" fill="#3A179D"/>
<path d="M51.1287 93.0698L51.1287 115.843C51.1287 126.274 59.5394 134.76 69.8782 134.76C73.3107 134.76 76.0922 131.954 76.0922 128.491C76.0922 125.027 73.3107 122.221 69.8782 122.221C66.3919 122.221 63.5567 119.36 63.5567 115.843L63.5567 93.0698" fill="#7000FF"/>
<path fill-rule="evenodd" clip-rule="evenodd" d="M51.1285 91.7036C51.8762 91.7036 52.4824 92.3152 52.4824 93.0697L52.4824 115.843C52.4824 125.52 60.2869 133.394 69.878 133.394C72.5628 133.394 74.738 131.199 74.738 128.49C74.738 125.782 72.5628 123.587 69.878 123.587C65.6439 123.587 62.2026 120.115 62.2026 115.843L62.2026 93.0697C62.2026 92.3152 62.8087 91.7036 63.5565 91.7036C64.3042 91.7036 64.9104 92.3152 64.9104 93.0697V115.843C64.9104 118.606 67.1394 120.855 69.878 120.855C74.0583 120.855 77.4459 124.273 77.4459 128.49C77.4459 132.708 74.0583 136.126 69.878 136.126C58.7914 136.126 49.7745 127.028 49.7745 115.843L49.7745 93.0697C49.7745 92.3152 50.3807 91.7036 51.1285 91.7036Z" fill="#3A179D"/>
<path d="M32.823 94.2222V117.387C32.823 127.997 24.2669 136.63 13.748 136.63C10.2554 136.63 7.42651 133.776 7.42651 130.252C7.42651 126.728 10.2554 123.874 13.748 123.874C17.2943 123.874 20.1801 120.962 20.1801 117.387V94.2222" fill="#7000FF"/>
<path fill-rule="evenodd" clip-rule="evenodd" d="M20.1792 92.8577C20.9269 92.8577 21.5331 93.4693 21.5331 94.2237V117.389C21.5331 121.719 18.0407 125.241 13.7471 125.241C11.0022 125.241 8.7795 127.484 8.7795 130.254C8.7795 133.023 11.0022 135.266 13.7471 135.266C23.5184 135.266 31.4682 127.244 31.4682 117.389V94.2237H34.176V117.389C34.176 128.753 25.0136 137.998 13.7471 137.998C9.50669 137.998 6.07166 134.532 6.07166 130.254C6.07166 125.975 9.50669 122.509 13.7471 122.509C16.5461 122.509 18.8252 120.209 18.8252 117.389V94.2237C18.8252 93.4693 19.4314 92.8577 20.1792 92.8577Z" fill="#3A179D"/>
<path d="M37.9932 93.7173V116.882C37.9932 127.492 29.4371 136.125 18.9182 136.125C15.4255 136.125 12.5967 133.271 12.5967 129.747C12.5967 126.223 15.4255 123.369 18.9182 123.369C22.4645 123.369 25.3502 120.457 25.3502 116.882V93.7173" fill="#7000FF"/>
<path fill-rule="evenodd" clip-rule="evenodd" d="M25.3489 92.3501C26.0967 92.3501 26.7029 92.9617 26.7029 93.7161V116.881C26.7029 121.211 23.2105 124.734 18.9169 124.734C16.172 124.734 13.9493 126.977 13.9493 129.746C13.9493 132.515 16.172 134.758 18.9169 134.758C28.6882 134.758 36.638 126.737 36.638 116.881V93.7161C36.638 92.9617 37.2442 92.3501 37.9919 92.3501C38.7397 92.3501 39.3458 92.9617 39.3458 93.7161V116.881C39.3458 128.246 30.1834 137.49 18.9169 137.49C14.6765 137.49 11.2415 134.024 11.2415 129.746C11.2415 125.468 14.6765 122.002 18.9169 122.002C21.7159 122.002 23.995 119.701 23.995 116.881V93.7161C23.995 92.9617 24.6012 92.3501 25.3489 92.3501Z" fill="#3A179D"/>
<path d="M51.2266 93.7173V116.49C51.2266 126.922 42.8158 135.408 32.4771 135.408C29.0445 135.408 26.263 132.601 26.263 129.138C26.263 125.675 29.0445 122.868 32.4771 122.868C35.9634 122.868 38.7985 120.008 38.7985 116.49V93.7173" fill="#7000FF"/>
<path fill-rule="evenodd" clip-rule="evenodd" d="M51.2248 92.3501C50.4771 92.3501 49.8709 92.9617 49.8709 93.7161V116.489C49.8709 126.166 42.0663 134.04 32.4753 134.04C29.7905 134.04 27.6152 131.846 27.6152 129.137C27.6152 126.428 29.7905 124.233 32.4753 124.233C36.7094 124.233 40.1507 120.761 40.1507 116.489V93.7161C40.1507 92.9617 39.5445 92.3501 38.7968 92.3501C38.049 92.3501 37.4429 92.9617 37.4429 93.7161V116.489C37.4429 119.252 35.2139 121.501 32.4753 121.501C28.295 121.501 24.9074 124.919 24.9074 129.137C24.9074 133.355 28.295 136.773 32.4753 136.773C43.5618 136.773 52.5787 127.675 52.5787 116.489V93.7161C52.5787 92.9617 51.9726 92.3501 51.2248 92.3501Z" fill="#3A179D"/>
<rect width="5.54512" height="17.4458" rx="2.77256" transform="matrix(0.98182 0.202765 -0.200141 0.97711 98.8954 65.571)" fill="#CDCDCD"/>
<path d="M133.94 52.4988C134.423 54.2408 133.924 56.1041 132.637 57.3711L116.371 73.3815C115.108 74.6248 113.276 75.1055 111.558 74.6443L89.0711 68.6084C87.3531 68.1473 86.0065 66.8135 85.533 65.104L79.4348 43.0905C78.9523 41.3484 79.4505 39.4852 80.7378 38.2182L97.004 22.2077C98.2672 20.9644 100.099 20.4838 101.817 20.945L124.304 26.9809C126.022 27.442 127.368 28.7758 127.842 30.4853L133.94 52.4988Z" fill="#3A179D"/>
<path d="M128.153 50.9439C128.635 52.686 128.137 54.5492 126.85 55.8162L114.793 67.6831C113.53 68.9264 111.698 69.407 109.98 68.9459L93.2815 64.4636C91.5635 64.0024 90.2169 62.6687 89.7433 60.9592L85.2234 44.6429C84.7409 42.9008 85.2391 41.0376 86.5264 39.7706L98.5829 27.9037C99.846 26.6604 101.678 26.1798 103.396 26.6409L120.095 31.1232C121.813 31.5843 123.159 32.9181 123.633 34.6276L128.153 50.9439Z" fill="#F5F5F5"/>
<path d="M96.2071 46.7358L103.403 48.5697L102.339 52.7691L95.1429 50.9352L96.2071 46.7358ZM90.3266 52.4383L100.752 36.8647L105.322 38.0294L106.512 56.563L101.917 55.3919L101.357 40.3116L103.175 40.7749L94.897 53.603L90.3266 52.4383ZM113.314 55.9675L116.545 43.2185L121.141 44.3896L117.91 57.1386L113.314 55.9675ZM110.376 50.8017L111.504 46.3509L124.104 49.5618L122.976 54.0127L110.376 50.8017Z" fill="#7000FF"/>
</svg>
