<svg width="155" height="147" viewBox="0 0 155 147" fill="none" xmlns="http://www.w3.org/2000/svg">
<ellipse cx="51.0825" cy="8.32237" rx="51.0825" ry="8.32237" transform="matrix(-1 0 0 1 102.165 129.542)" fill="#CDCDCD"/>
<path d="M63.6859 93.7173V116.49C63.6859 126.922 55.2752 135.408 44.9364 135.408C41.5038 135.408 38.7224 132.601 38.7224 129.138C38.7224 125.675 41.5038 122.868 44.9364 122.868C48.4227 122.868 51.2579 120.008 51.2579 116.49V93.7173" fill="#7000FF"/>
<path fill-rule="evenodd" clip-rule="evenodd" d="M63.6848 92.3501C62.937 92.3501 62.3309 92.9617 62.3309 93.7161V116.489C62.3309 126.166 54.5263 134.04 44.9353 134.04C42.2505 134.04 40.0752 131.846 40.0752 129.137C40.0752 126.428 42.2505 124.233 44.9353 124.233C49.1693 124.233 52.6107 120.761 52.6107 116.489V93.7161C52.6107 92.9617 52.0045 92.3501 51.2567 92.3501C50.509 92.3501 49.9028 92.9617 49.9028 93.7161V116.489C49.9028 119.252 47.6738 121.501 44.9353 121.501C40.755 121.501 37.3673 124.919 37.3673 129.137C37.3673 133.355 40.755 136.773 44.9353 136.773C56.0218 136.773 65.0387 127.675 65.0387 116.489V93.7161C65.0387 92.9617 64.4325 92.3501 63.6848 92.3501Z" fill="#3A179D"/>
<path d="M68.6346 108.335L89.8561 100.828C99.5767 97.3895 104.646 86.5421 101.156 76.6467C99.9973 73.3613 96.4433 71.6243 93.2159 72.766C89.9886 73.9076 88.3123 77.4949 89.4709 80.7803C90.6477 84.1171 88.939 87.7737 85.6611 88.9332L64.4397 96.4404" fill="#7000FF"/>
<path fill-rule="evenodd" clip-rule="evenodd" d="M63.1688 96.8907C62.9164 96.1751 63.2817 95.3934 63.9847 95.1448L85.2041 87.6387C87.7787 86.728 89.122 83.8536 88.1977 81.2329C86.7868 77.2325 88.8282 72.8641 92.7582 71.4739C96.6883 70.0837 101.016 72.199 102.427 76.1994C106.169 86.8089 100.735 98.4364 90.3126 102.123L69.0932 109.629L68.1793 107.038L89.3987 99.532C98.4155 96.3424 103.119 86.2782 99.8816 77.0999C98.9754 74.5306 96.1962 73.1724 93.6722 74.0652C91.1481 74.9581 89.8372 77.7631 90.7434 80.3324C92.1724 84.3843 90.0986 88.822 86.1181 90.23L64.8986 97.7361C64.1956 97.9848 63.4212 97.6062 63.1688 96.8907Z" fill="#3A179D"/>
<path d="M46.7921 23.188C62.4841 23.188 75.2229 36.1355 75.2229 52.0846V102.419H18.3582L18.3582 52.0879C18.3582 36.1388 31.1001 23.188 46.7921 23.188Z" fill="#7000FF"/>
<path fill-rule="evenodd" clip-rule="evenodd" d="M72.515 52.0846C72.515 37.6255 60.9699 25.9201 46.7921 25.9201C32.6143 25.9201 21.066 37.6287 21.066 52.0879V99.6866H72.515V52.0846ZM75.2229 52.0846C75.2229 36.1355 62.4841 23.188 46.7921 23.188C31.1001 23.188 18.3582 36.1388 18.3582 52.0879V102.419H75.2229V52.0846Z" fill="#3A179D"/>
<path d="M72.9092 81.3946C68.6194 81.3946 65.1268 77.8744 65.1268 73.5462V65.9141C65.1268 61.5859 68.6159 58.062 72.9092 58.062C77.2026 58.062 80.688 61.5823 80.688 65.9141V73.5462C80.688 77.8744 77.199 81.3946 72.9092 81.3946Z" fill="#F5F5F5"/>
<path fill-rule="evenodd" clip-rule="evenodd" d="M72.91 83.2171C67.6243 83.2171 63.3224 78.8825 63.3224 73.5472V65.9152C63.3224 60.5816 67.6191 56.2417 72.91 56.2417C78.2014 56.2417 82.4941 60.5785 82.4941 65.9152V73.5472C82.4941 78.8814 78.1968 83.2171 72.91 83.2171ZM65.1276 73.5472C65.1276 77.8755 68.6202 81.3957 72.91 81.3957C77.1998 81.3957 80.6888 77.8755 80.6888 73.5472V65.9152C80.6888 61.5834 77.2034 58.0631 72.91 58.0631C68.6166 58.0631 65.1276 61.587 65.1276 65.9152V73.5472Z" fill="#3A179D"/>
<path d="M72.9097 58.7831C76.8063 58.7831 79.9736 61.9823 79.9736 65.9102V73.5422C79.9736 77.4737 76.8027 80.6694 72.9062 80.6694C69.0096 80.6694 65.8387 77.4701 65.8387 73.5422V65.9102C65.8387 61.9787 69.0096 58.7831 72.9062 58.7831M72.9062 57.3403C68.216 57.3403 64.4088 61.178 64.4088 65.9102V73.5422C64.4088 78.278 68.2124 82.1121 72.9062 82.1121C77.5963 82.1121 81.4 78.2744 81.4 73.5422V65.9102C81.4 61.1744 77.5963 57.3403 72.9062 57.3403Z" fill="#3A179D"/>
<path d="M76.0552 64.738C76.0552 62.985 74.6468 61.564 72.9094 61.564C71.172 61.564 69.7635 62.985 69.7635 64.738V69.8741C69.7635 71.6271 71.172 73.0481 72.9094 73.0481C74.6468 73.0481 76.0552 71.6271 76.0552 69.8741V64.738Z" fill="#262626"/>
<path d="M75.884 62.8014C75.884 61.8744 75.1368 61.1206 74.2181 61.1206C73.2994 61.1206 72.5522 61.8744 72.5522 62.8014C72.5522 63.7284 73.2994 64.4822 74.2181 64.4822C75.1368 64.4822 75.884 63.7284 75.884 62.8014Z" fill="#F5F5F5"/>
<path d="M49.4294 81.3946C45.1396 81.3946 41.647 77.8744 41.647 73.5462V65.9141C41.647 61.5859 45.136 58.062 49.4294 58.062C53.7227 58.062 57.2082 61.5823 57.2082 65.9141V73.5462C57.2082 77.8744 53.7192 81.3946 49.4294 81.3946Z" fill="#F5F5F5"/>
<path fill-rule="evenodd" clip-rule="evenodd" d="M49.4311 83.2171C44.1454 83.2171 39.8435 78.8825 39.8435 73.5472V65.9152C39.8435 60.5816 44.1402 56.2417 49.4311 56.2417C54.7226 56.2417 59.0152 60.5785 59.0152 65.9152V73.5472C59.0152 78.8814 54.7179 83.2171 49.4311 83.2171ZM41.6487 73.5472C41.6487 77.8755 45.1413 81.3957 49.4311 81.3957C53.7209 81.3957 57.2099 77.8755 57.2099 73.5472V65.9152C57.2099 61.5834 53.7245 58.0631 49.4311 58.0631C45.1378 58.0631 41.6487 61.587 41.6487 65.9152V73.5472Z" fill="#3A179D"/>
<path d="M49.4294 58.7831C53.326 58.7831 56.4933 61.9823 56.4933 65.9102V73.5422C56.4933 77.4737 53.3224 80.6694 49.4258 80.6694C45.5293 80.6694 42.3584 77.4701 42.3584 73.5422V65.9102C42.3584 61.9787 45.5293 58.7831 49.4258 58.7831M49.4258 57.3403C44.7357 57.3403 40.9285 61.178 40.9285 65.9102V73.5422C40.9285 78.278 44.7321 82.1121 49.4258 82.1121C54.116 82.1121 57.9196 78.2744 57.9196 73.5422V65.9102C57.9196 61.1744 54.116 57.3403 49.4258 57.3403Z" fill="#3A179D"/>
<path d="M52.5764 64.738C52.5764 62.985 51.1679 61.564 49.4305 61.564C47.6931 61.564 46.2847 62.985 46.2847 64.738V69.8741C46.2847 71.6271 47.6931 73.0481 49.4305 73.0481C51.1679 73.0481 52.5764 71.6271 52.5764 69.8741V64.738Z" fill="#262626"/>
<path d="M52.4046 62.8014C52.4046 61.8744 51.6575 61.1206 50.7387 61.1206C49.82 61.1206 49.0729 61.8744 49.0729 62.8014C49.0729 63.7284 49.82 64.4822 50.7387 64.4822C51.6575 64.4822 52.4046 63.7284 52.4046 62.8014Z" fill="#F5F5F5"/>
<path d="M32.3413 47.7818C33.8261 47.7818 35.0297 46.5674 35.0297 45.0694C35.0297 43.5713 33.8261 42.3569 32.3413 42.3569C30.8566 42.3569 29.653 43.5713 29.653 45.0694C29.653 46.5674 30.8566 47.7818 32.3413 47.7818Z" fill="#FEE702"/>
<path d="M39.1272 45.3957C40.2393 45.3957 41.1408 44.4862 41.1408 43.3641C41.1408 42.2421 40.2393 41.3325 39.1272 41.3325C38.0152 41.3325 37.1136 42.2421 37.1136 43.3641C37.1136 44.4862 38.0152 45.3957 39.1272 45.3957Z" fill="#FEE702"/>
<path d="M35.4951 39.7111C36.2792 39.7111 36.9148 39.0698 36.9148 38.2787C36.9148 37.4875 36.2792 36.8462 35.4951 36.8462C34.711 36.8462 34.0753 37.4875 34.0753 38.2787C34.0753 39.0698 34.711 39.7111 35.4951 39.7111Z" fill="#FEE702"/>
<path fill-rule="evenodd" clip-rule="evenodd" d="M70.4849 45.6987C70.1194 46.3424 69.3087 46.5753 68.6607 46.2177C68.0046 45.8557 67.7637 45.0256 68.1225 44.3637L69.3104 45.0192C68.1225 44.3637 68.1228 44.363 68.1232 44.3624L68.1239 44.361L68.1255 44.3581L68.1289 44.352L68.1368 44.3378C68.1426 44.3275 68.1494 44.3157 68.1573 44.3024C68.173 44.2758 68.193 44.2431 68.2173 44.2054C68.2659 44.13 68.3326 44.0335 68.4189 43.9232C68.591 43.7033 68.8455 43.423 69.1956 43.1462C69.9101 42.5814 70.9911 42.059 72.4792 42.065M70.4849 45.6987C70.4854 45.6979 70.486 45.6969 70.4868 45.6957C70.4945 45.6837 70.5134 45.6555 70.5442 45.6162C70.6064 45.5368 70.712 45.4183 70.8656 45.2968C71.1585 45.0653 71.6592 44.7937 72.4687 44.7971L72.4693 44.7971C73.4838 44.8008 73.9603 45.0997 74.1625 45.272C74.2746 45.3676 74.3368 45.454 74.3655 45.5C74.373 45.512 74.3781 45.5212 74.3812 45.5268C74.6488 46.2029 75.4 46.5516 76.0871 46.3079C76.7926 46.0577 77.1634 45.2779 76.9155 44.5662L75.6381 45.0192C76.9155 44.5662 76.9151 44.5652 76.9148 44.5643L76.9141 44.5623L76.9127 44.5584L76.9097 44.5499L76.9028 44.5312C76.8978 44.5178 76.892 44.5029 76.8853 44.4864C76.872 44.4534 76.8552 44.4141 76.8344 44.3696C76.793 44.2807 76.7352 44.1698 76.6573 44.0448C76.5011 43.7944 76.2625 43.4856 75.9104 43.1853C75.1842 42.5661 74.0789 42.071 72.4798 42.065" fill="#3A179D"/>
<path fill-rule="evenodd" clip-rule="evenodd" d="M47.4669 51.8667C47.1014 52.5104 46.2908 52.7432 45.6428 52.3857C44.9867 52.0236 44.7457 51.1936 45.1045 50.5317L46.2924 51.1871C45.1045 50.5317 45.1049 50.531 45.1053 50.5303L45.106 50.529L45.1076 50.5261L45.111 50.5199L45.1189 50.5058C45.1247 50.4955 45.1315 50.4837 45.1394 50.4704C45.1551 50.4437 45.175 50.4111 45.1994 50.3734C45.248 50.298 45.3147 50.2015 45.401 50.0911C45.5731 49.8713 45.8275 49.5909 46.1776 49.3142C46.8921 48.7493 47.9732 48.2269 49.4612 48.233M47.4669 51.8667C47.4675 51.8658 47.4681 51.8648 47.4689 51.8637C47.4766 51.8517 47.4955 51.8235 47.5263 51.7842C47.5884 51.7048 47.694 51.5863 47.8477 51.4648C48.1406 51.2332 48.6413 50.9617 49.4507 50.965L49.4514 50.965C50.4659 50.9688 50.9424 51.2676 51.1446 51.44C51.2567 51.5356 51.3189 51.622 51.3475 51.6679C51.3551 51.68 51.3602 51.6892 51.3632 51.6948C51.6309 52.3709 52.382 52.7196 53.0692 52.4759C53.7746 52.2257 54.1455 51.4459 53.8975 50.7341L52.6202 51.1871C53.8975 50.7341 53.8972 50.7332 53.8969 50.7322L53.8962 50.7303L53.8948 50.7263L53.8917 50.7179L53.8848 50.6991C53.8798 50.6858 53.874 50.6708 53.8674 50.6543C53.8541 50.6213 53.8373 50.5821 53.8165 50.5376C53.775 50.4487 53.7173 50.3378 53.6393 50.2127C53.4832 49.9624 53.2445 49.6536 52.8924 49.3533C52.1662 48.7341 51.061 48.239 49.4619 48.233" fill="#3A179D"/>
<path fill-rule="evenodd" clip-rule="evenodd" d="M62.7231 83.5269C63.086 82.8835 63.8961 82.6508 64.5461 83.0082C65.2041 83.37 65.449 84.1996 65.0929 84.8611L63.9014 84.206C65.0929 84.8611 65.0925 84.8617 65.0922 84.8624L65.0914 84.8638L65.0899 84.8666L65.0865 84.8728L65.0786 84.887C65.0729 84.8972 65.0661 84.909 65.0583 84.9223C65.0427 84.949 65.0229 84.9816 64.9987 85.0193C64.9504 85.0946 64.8841 85.1911 64.7982 85.3013C64.627 85.5211 64.3736 85.8012 64.0246 86.0778C63.3122 86.6423 62.2328 87.1644 60.7438 87.1584M62.7231 83.5269C62.7226 83.5277 62.722 83.5287 62.7212 83.5299C62.7135 83.5418 62.6947 83.57 62.6641 83.6093C62.6023 83.6887 62.4971 83.8071 62.3439 83.9285C62.0519 84.1599 61.5521 84.4313 60.7422 84.428L60.7415 84.428C59.7264 84.4243 59.2482 84.1255 59.0452 83.9533C58.9326 83.8577 58.8699 83.7714 58.8411 83.7255C58.8335 83.7134 58.8283 83.7043 58.8252 83.6986C58.5544 83.023 57.8013 82.6745 57.1148 82.918C56.41 83.1681 56.0424 83.9474 56.2937 84.6587L57.5698 84.206C56.2937 84.6587 56.294 84.6597 56.2944 84.6606L56.2951 84.6625L56.2965 84.6665L56.2996 84.675L56.3066 84.6937C56.3116 84.707 56.3175 84.722 56.3242 84.7385C56.3377 84.7715 56.3547 84.8107 56.3757 84.8552C56.4176 84.944 56.4758 85.0549 56.5544 85.1798C56.7117 85.43 56.9519 85.7387 57.3056 86.0387C58.035 86.6576 59.1431 87.1524 60.7431 87.1584" fill="#3A179D"/>
<path d="M61.2596 94.8101V117.583C61.2596 128.014 69.6704 136.5 80.0091 136.5C83.4417 136.5 86.2231 133.694 86.2231 130.231C86.2231 126.767 83.4417 123.961 80.0091 123.961C76.5229 123.961 73.6877 121.101 73.6877 117.583V94.8101" fill="#7000FF"/>
<path fill-rule="evenodd" clip-rule="evenodd" d="M61.2599 93.4429C62.0077 93.4429 62.6138 94.0545 62.6138 94.8089V117.582C62.6138 127.259 70.4184 135.133 80.0094 135.133C82.6942 135.133 84.8695 132.938 84.8695 130.23C84.8695 127.521 82.6942 125.326 80.0094 125.326C75.7754 125.326 72.334 121.854 72.334 117.582V94.8089C72.334 94.0545 72.9402 93.4429 73.688 93.4429C74.4357 93.4429 75.0419 94.0545 75.0419 94.8089V117.582C75.0419 120.345 77.2709 122.594 80.0094 122.594C84.1897 122.594 87.5773 126.012 87.5773 130.23C87.5773 134.447 84.1897 137.865 80.0094 137.865C68.9229 137.865 59.906 128.768 59.906 117.582V94.8089C59.906 94.0545 60.5122 93.4429 61.2599 93.4429Z" fill="#3A179D"/>
<path d="M50.7784 93.0698L50.7784 115.843C50.7784 126.274 59.1892 134.76 69.5279 134.76C72.9605 134.76 75.7419 131.954 75.7419 128.491C75.7419 125.027 72.9605 122.221 69.5279 122.221C66.0416 122.221 63.2065 119.36 63.2065 115.843L63.2065 93.0698" fill="#7000FF"/>
<path fill-rule="evenodd" clip-rule="evenodd" d="M50.7782 91.7036C51.526 91.7036 52.1322 92.3152 52.1322 93.0697L52.1322 115.843C52.1322 125.52 59.9367 133.394 69.5277 133.394C72.2125 133.394 74.3878 131.199 74.3878 128.49C74.3878 125.782 72.2125 123.587 69.5277 123.587C65.2937 123.587 61.8523 120.115 61.8523 115.843L61.8523 93.0697C61.8523 92.3152 62.4585 91.7036 63.2063 91.7036C63.954 91.7036 64.5602 92.3152 64.5602 93.0697V115.843C64.5602 118.606 66.7892 120.855 69.5277 120.855C73.708 120.855 77.0957 124.273 77.0957 128.49C77.0957 132.708 73.708 136.126 69.5277 136.126C58.4412 136.126 49.4243 127.028 49.4243 115.843L49.4243 93.0697C49.4243 92.3152 50.0305 91.7036 50.7782 91.7036Z" fill="#3A179D"/>
<path d="M32.4728 94.2222V117.387C32.4728 127.997 23.9167 136.63 13.3978 136.63C9.90515 136.63 7.07629 133.776 7.07629 130.252C7.07629 126.728 9.90515 123.874 13.3978 123.874C16.9441 123.874 19.8299 120.962 19.8299 117.387V94.2222" fill="#7000FF"/>
<path fill-rule="evenodd" clip-rule="evenodd" d="M19.8289 92.8577C20.5767 92.8577 21.1829 93.4693 21.1829 94.2237V117.389C21.1829 121.719 17.6905 125.241 13.3968 125.241C10.652 125.241 8.42928 127.484 8.42928 130.254C8.42928 133.023 10.652 135.266 13.3968 135.266C23.1682 135.266 31.118 127.244 31.118 117.389V94.2237H33.8258V117.389C33.8258 128.753 24.6634 137.998 13.3968 137.998C9.15647 137.998 5.72144 134.532 5.72144 130.254C5.72144 125.975 9.15647 122.509 13.3968 122.509C16.1959 122.509 18.475 120.209 18.475 117.389V94.2237C18.475 93.4693 19.0812 92.8577 19.8289 92.8577Z" fill="#3A179D"/>
<path d="M37.643 93.7173V116.882C37.643 127.492 29.0869 136.125 18.5679 136.125C15.0753 136.125 12.2465 133.271 12.2465 129.747C12.2465 126.223 15.0753 123.369 18.5679 123.369C22.1143 123.369 25 120.457 25 116.882V93.7173" fill="#7000FF"/>
<path fill-rule="evenodd" clip-rule="evenodd" d="M24.9987 92.3501C25.7465 92.3501 26.3526 92.9617 26.3526 93.7161V116.881C26.3526 121.211 22.8603 124.734 18.5666 124.734C15.8218 124.734 13.5991 126.977 13.5991 129.746C13.5991 132.515 15.8218 134.758 18.5666 134.758C28.338 134.758 36.2878 126.737 36.2878 116.881V93.7161C36.2878 92.9617 36.8939 92.3501 37.6417 92.3501C38.3894 92.3501 38.9956 92.9617 38.9956 93.7161V116.881C38.9956 128.246 29.8332 137.49 18.5666 137.49C14.3263 137.49 10.8912 134.024 10.8912 129.746C10.8912 125.468 14.3263 122.002 18.5666 122.002C21.3657 122.002 23.6448 119.701 23.6448 116.881V93.7161C23.6448 92.9617 24.251 92.3501 24.9987 92.3501Z" fill="#3A179D"/>
<path d="M50.8763 93.7173V116.49C50.8763 126.922 42.4656 135.408 32.1268 135.408C28.6943 135.408 25.9128 132.601 25.9128 129.138C25.9128 125.675 28.6943 122.868 32.1268 122.868C35.6131 122.868 38.4483 120.008 38.4483 116.49V93.7173" fill="#7000FF"/>
<path fill-rule="evenodd" clip-rule="evenodd" d="M50.8746 92.3501C50.1268 92.3501 49.5207 92.9617 49.5207 93.7161V116.489C49.5207 126.166 41.7161 134.04 32.1251 134.04C29.4403 134.04 27.265 131.846 27.265 129.137C27.265 126.428 29.4403 124.233 32.1251 124.233C36.3591 124.233 39.8005 120.761 39.8005 116.489V93.7161C39.8005 92.9617 39.1943 92.3501 38.4466 92.3501C37.6988 92.3501 37.0926 92.9617 37.0926 93.7161V116.489C37.0926 119.252 34.8636 121.501 32.1251 121.501C27.9448 121.501 24.5572 124.919 24.5572 129.137C24.5572 133.355 27.9448 136.773 32.1251 136.773C43.2116 136.773 52.2285 127.675 52.2285 116.489V93.7161C52.2285 92.9617 51.6223 92.3501 50.8746 92.3501Z" fill="#3A179D"/>
<rect width="5.54512" height="17.4458" rx="2.77256" transform="matrix(0.98182 0.202765 -0.200141 0.97711 98.5452 65.571)" fill="#CDCDCD"/>
<path d="M133.59 52.4988C134.072 54.2408 133.574 56.1041 132.287 57.3711L116.021 73.3815C114.757 74.6248 112.926 75.1055 111.208 74.6443L88.7209 68.6084C87.0029 68.1473 85.6563 66.8135 85.1827 65.104L79.0846 43.0905C78.602 41.3484 79.1003 39.4852 80.3875 38.2182L96.6538 22.2077C97.917 20.9644 99.7488 20.4838 101.467 20.945L123.954 26.9809C125.672 27.442 127.018 28.7758 127.492 30.4853L133.59 52.4988Z" fill="#3A179D"/>
<path d="M127.802 50.9439C128.285 52.686 127.787 54.5492 126.5 55.8162L114.443 67.6831C113.18 68.9264 111.348 69.407 109.63 68.9459L92.9313 64.4636C91.2133 64.0024 89.8667 62.6687 89.3931 60.9592L84.8732 44.6429C84.3906 42.9008 84.8889 41.0376 86.1761 39.7706L98.2326 27.9037C99.4958 26.6604 101.328 26.1798 103.046 26.6409L119.744 31.1232C121.462 31.5843 122.809 32.9181 123.283 34.6276L127.802 50.9439Z" fill="#F5F5F5"/>
<path d="M90.9985 53.7506L95.338 36.6262L101.853 38.2864C103.452 38.6939 104.659 39.1979 105.475 39.7984C106.29 40.3988 106.792 41.1067 106.98 41.9219C107.171 42.7204 107.136 43.6393 106.872 44.6787C106.673 45.4666 106.345 46.1237 105.889 46.6499C105.437 47.1595 104.891 47.5111 104.251 47.7048C103.61 47.8985 102.911 47.8988 102.154 47.7058L102.262 47.2783C103.238 47.5271 103.964 47.9172 104.439 48.4487C104.917 48.9633 105.207 49.5546 105.306 50.2224C105.406 50.8903 105.371 51.5595 105.201 52.23C104.789 53.8561 103.984 54.945 102.787 55.4966C101.594 56.0314 99.996 56.0435 97.9928 55.533L90.9985 53.7506ZM99.3731 39.9032L96.1487 52.627L95.1309 50.1725L98.9437 51.1442C99.3814 51.2557 99.7583 51.2536 100.074 51.1378C100.407 51.0264 100.625 50.7694 100.727 50.3671C100.829 49.9648 100.768 49.6371 100.546 49.384C100.323 49.131 100.001 48.9509 99.5805 48.8436L95.7172 47.8591L96.6794 44.0621L100.214 44.9629C100.719 45.0916 101.113 45.0938 101.396 44.9695C101.695 44.8494 101.895 44.5882 101.997 44.1859C102.099 43.7835 102.047 43.458 101.842 43.2092C101.653 42.9648 101.306 42.7782 100.801 42.6495L97.3414 41.7679L99.3731 39.9032ZM111.375 56.6144L114.606 43.8654L119.202 45.0365L115.971 57.7855L111.375 56.6144ZM108.437 51.4486L109.565 46.9978L122.165 50.2087L121.037 54.6596L108.437 51.4486Z" fill="#7000FF"/>
</svg>
