<svg width="162" height="154" viewBox="0 0 162 154" fill="none" xmlns="http://www.w3.org/2000/svg">
<ellipse cx="52.3024" cy="8.32237" rx="52.3024" ry="8.32237" transform="matrix(-1 0 0 1 104.605 137.354)" fill="#CFCFCF"/>
<path d="M65.2068 101.529V124.302C65.2068 134.734 56.5952 143.22 46.0096 143.22C42.495 143.22 39.6472 140.413 39.6472 136.95C39.6472 133.487 42.495 130.68 46.0096 130.68C49.5791 130.68 52.482 127.82 52.482 124.302V101.529" fill="#7000FF"/>
<path fill-rule="evenodd" clip-rule="evenodd" d="M65.2056 100.162C64.44 100.162 63.8193 100.774 63.8193 101.528V124.301C63.8193 133.978 55.8284 141.852 46.0083 141.852C43.2594 141.852 41.0322 139.658 41.0322 136.949C41.0322 134.24 43.2594 132.045 46.0083 132.045C50.3435 132.045 53.867 128.573 53.867 124.301V101.528C53.867 100.774 53.2464 100.162 52.4808 100.162C51.7152 100.162 51.0945 100.774 51.0945 101.528V124.301C51.0945 127.064 48.8123 129.313 46.0083 129.313C41.7282 129.313 38.2597 132.731 38.2597 136.949C38.2597 141.167 41.7282 144.585 46.0083 144.585C57.3596 144.585 66.5918 135.487 66.5918 124.301V101.528C66.5918 100.774 65.9712 100.162 65.2056 100.162Z" fill="#3A179D"/>
<path d="M70.1607 116.147L91.9506 108.561C101.932 105.087 107.183 94.2583 103.656 84.4227C102.486 81.1572 98.8518 79.446 95.538 80.5997C92.2242 81.7534 90.4877 85.3343 91.6585 88.5998C92.8475 91.9164 91.0774 95.5665 87.7118 96.7382L65.9218 104.324" fill="#7000FF"/>
<path fill-rule="evenodd" clip-rule="evenodd" d="M64.6148 104.78C64.3597 104.069 64.7382 103.289 65.4601 103.037L87.25 95.4513C89.8938 94.5309 91.2854 91.6612 90.3514 89.0559C88.9256 85.0791 91.0406 80.7177 95.0763 79.3127C99.112 77.9077 103.538 79.9919 104.964 83.9687C108.745 94.5157 103.115 106.124 92.4124 109.85L70.6225 117.437L69.6989 114.86L91.4889 107.274C100.748 104.051 105.621 94.0031 102.349 84.8788C101.434 82.3247 98.5918 80.9864 95.9999 81.8888C93.4079 82.7911 92.0499 85.5917 92.9656 88.1458C94.4097 92.1738 92.2611 96.6043 88.1736 98.0273L66.3837 105.613C65.6618 105.865 64.8698 105.492 64.6148 104.78Z" fill="#3A179D"/>
<path d="M47.9095 31C63.9763 31 77.0193 43.9475 77.0193 59.8967V110.231H18.7966L18.7966 59.8999C18.7966 43.9508 31.8428 31 47.9095 31Z" fill="#7000FF"/>
<path fill-rule="evenodd" clip-rule="evenodd" d="M74.2467 59.8967C74.2467 45.4375 62.4259 33.7321 47.9095 33.7321C33.3932 33.7321 21.5691 45.4407 21.5691 59.8999V107.499H74.2467V59.8967ZM77.0193 59.8967C77.0193 43.9475 63.9763 31 47.9095 31C31.8428 31 18.7966 43.9508 18.7966 59.8999V110.231H77.0193V59.8967Z" fill="#3A179D"/>
<path d="M74.6504 89.2067C70.2581 89.2067 66.6821 85.6864 66.6821 81.3582V73.7261C66.6821 69.3979 70.2545 65.874 74.6504 65.874C79.0462 65.874 82.6149 69.3943 82.6149 73.7261V81.3582C82.6149 85.6864 79.0426 89.2067 74.6504 89.2067Z" fill="white"/>
<path fill-rule="evenodd" clip-rule="evenodd" d="M74.6511 91.0291C69.2392 91.0291 64.8345 86.6945 64.8345 81.3593V73.7272C64.8345 68.3936 69.2339 64.0537 74.6511 64.0537C80.0689 64.0537 84.464 68.3905 84.464 73.7272V81.3593C84.464 86.6934 80.0642 91.0291 74.6511 91.0291ZM66.6829 81.3593C66.6829 85.6875 70.2589 89.2077 74.6511 89.2077C79.0433 89.2077 82.6157 85.6875 82.6157 81.3593V73.7272C82.6157 69.3954 79.047 65.8751 74.6511 65.8751C70.2552 65.8751 66.6829 69.399 66.6829 73.7272V81.3593Z" fill="#3A179D"/>
<path d="M74.6508 66.5951C78.6404 66.5951 81.8834 69.7943 81.8834 73.7222V81.3543C81.8834 85.2857 78.6368 88.4814 74.6471 88.4814C70.6575 88.4814 67.4109 85.2821 67.4109 81.3543V73.7222C67.4109 69.7907 70.6575 66.5951 74.6471 66.5951M74.6471 65.1523C69.845 65.1523 65.9469 68.99 65.9469 73.7222V81.3543C65.9469 86.09 69.8413 89.9241 74.6471 89.9241C79.4493 89.9241 83.3438 86.0864 83.3438 81.3543V73.7222C83.3438 68.9864 79.4493 65.1523 74.6471 65.1523Z" fill="#3A179D"/>
<path d="M77.8714 72.55C77.8714 70.797 76.4294 69.376 74.6505 69.376C72.8716 69.376 71.4295 70.797 71.4295 72.55V77.6861C71.4295 79.4391 72.8716 80.8601 74.6505 80.8601C76.4294 80.8601 77.8714 79.4391 77.8714 77.6861V72.55Z" fill="#262626"/>
<path d="M77.6961 70.6134C77.6961 69.6864 76.9311 68.9326 75.9905 68.9326C75.0498 68.9326 74.2848 69.6864 74.2848 70.6134C74.2848 71.5404 75.0498 72.2942 75.9905 72.2942C76.9311 72.2942 77.6961 71.5404 77.6961 70.6134Z" fill="white"/>
<path d="M50.6097 89.2067C46.2175 89.2067 42.6415 85.6864 42.6415 81.3582V73.7261C42.6415 69.3979 46.2138 65.874 50.6097 65.874C55.0056 65.874 58.5743 69.3943 58.5743 73.7261V81.3582C58.5743 85.6864 55.002 89.2067 50.6097 89.2067Z" fill="white"/>
<path fill-rule="evenodd" clip-rule="evenodd" d="M50.6115 91.0291C45.1996 91.0291 40.7949 86.6945 40.7949 81.3593V73.7272C40.7949 68.3936 45.1943 64.0537 50.6115 64.0537C56.0293 64.0537 60.4244 68.3905 60.4244 73.7272V81.3593C60.4244 86.6934 56.0246 91.0291 50.6115 91.0291ZM42.6433 81.3593C42.6433 85.6875 46.2193 89.2077 50.6115 89.2077C55.0037 89.2077 58.5761 85.6875 58.5761 81.3593V73.7272C58.5761 69.3954 55.0074 65.8751 50.6115 65.8751C46.2156 65.8751 42.6433 69.399 42.6433 73.7272V81.3593Z" fill="#3A179D"/>
<path d="M50.6097 66.5951C54.5993 66.5951 57.8422 69.7943 57.8422 73.7222V81.3543C57.8422 85.2857 54.5956 88.4814 50.606 88.4814C46.6164 88.4814 43.3698 85.2821 43.3698 81.3543V73.7222C43.3698 69.7907 46.6164 66.5951 50.606 66.5951M50.606 65.1523C45.8039 65.1523 41.9058 68.99 41.9058 73.7222V81.3543C41.9058 86.09 45.8002 89.9241 50.606 89.9241C55.4082 89.9241 59.3027 86.0864 59.3027 81.3543V73.7222C59.3027 68.9864 55.4082 65.1523 50.606 65.1523Z" fill="#3A179D"/>
<path d="M53.8318 72.55C53.8318 70.797 52.3897 69.376 50.6108 69.376C48.8319 69.376 47.3899 70.797 47.3899 72.55V77.6861C47.3899 79.4391 48.8319 80.8601 50.6108 80.8601C52.3897 80.8601 53.8318 79.4391 53.8318 77.6861V72.55Z" fill="#262626"/>
<path d="M53.6559 70.6134C53.6559 69.6864 52.891 68.9326 51.9503 68.9326C51.0096 68.9326 50.2446 69.6864 50.2446 70.6134C50.2446 71.5404 51.0096 72.2942 51.9503 72.2942C52.891 72.2942 53.6559 71.5404 53.6559 70.6134Z" fill="white"/>
<path d="M33.1136 55.5938C34.6338 55.5938 35.8662 54.3794 35.8662 52.8814C35.8662 51.3833 34.6338 50.1689 33.1136 50.1689C31.5934 50.1689 30.361 51.3833 30.361 52.8814C30.361 54.3794 31.5934 55.5938 33.1136 55.5938Z" fill="#FEE702"/>
<path d="M40.0615 53.2078C41.2002 53.2078 42.1232 52.2982 42.1232 51.1761C42.1232 50.0541 41.2002 49.1445 40.0615 49.1445C38.9229 49.1445 37.9999 50.0541 37.9999 51.1761C37.9999 52.2982 38.9229 53.2078 40.0615 53.2078Z" fill="#FEE702"/>
<path d="M36.3426 47.5232C37.1455 47.5232 37.7963 46.8818 37.7963 46.0907C37.7963 45.2995 37.1455 44.6582 36.3426 44.6582C35.5398 44.6582 34.889 45.2995 34.889 46.0907C34.889 46.8818 35.5398 47.5232 36.3426 47.5232Z" fill="#FEE702"/>
<path fill-rule="evenodd" clip-rule="evenodd" d="M72.1681 53.5107C71.7938 54.1544 70.9638 54.3873 70.3003 54.0297C69.6286 53.6677 69.3819 52.8376 69.7493 52.1757L70.9655 52.8312C69.7493 52.1757 69.7496 52.175 69.75 52.1744L69.7508 52.173L69.7524 52.1702L69.7558 52.164L69.764 52.1498C69.7699 52.1396 69.7769 52.1277 69.7849 52.1144C69.801 52.0878 69.8214 52.0551 69.8464 52.0174C69.8961 51.942 69.9644 51.8455 70.0528 51.7352C70.229 51.5153 70.4895 51.235 70.848 50.9582C71.5796 50.3934 72.6864 49.871 74.21 49.877M72.1681 53.5107C72.1686 53.5099 72.1693 53.5089 72.1701 53.5077C72.178 53.4957 72.1973 53.4675 72.2288 53.4282C72.2925 53.3488 72.4006 53.2303 72.5579 53.1088C72.8578 52.8773 73.3705 52.6057 74.1992 52.6091L74.1999 52.6091C75.2386 52.6128 75.7265 52.9117 75.9335 53.0841C76.0483 53.1796 76.112 53.266 76.1414 53.312C76.1491 53.324 76.1543 53.3332 76.1574 53.3389C76.4315 54.0149 77.2006 54.3636 77.9041 54.1199C78.6264 53.8697 79.0061 53.0899 78.7522 52.3782L77.4444 52.8312C78.7522 52.3782 78.7519 52.3772 78.7516 52.3763L78.7509 52.3744L78.7494 52.3704L78.7463 52.3619L78.7392 52.3432C78.7341 52.3298 78.7282 52.3149 78.7214 52.2984C78.7077 52.2654 78.6905 52.2261 78.6693 52.1816C78.6268 52.0927 78.5677 51.9818 78.4879 51.8568C78.328 51.6064 78.0837 51.2976 77.7231 50.9973C76.9796 50.3781 75.848 49.883 74.2107 49.877" fill="#3A179D"/>
<path fill-rule="evenodd" clip-rule="evenodd" d="M48.6005 59.6787C48.2262 60.3224 47.3962 60.5553 46.7327 60.1977C46.061 59.8357 45.8143 59.0056 46.1817 58.3437L47.3979 58.9992C46.1817 58.3437 46.182 58.343 46.1824 58.3423L46.1832 58.341L46.1848 58.3381L46.1883 58.3319L46.1964 58.3178C46.2023 58.3075 46.2093 58.2957 46.2173 58.2824C46.2334 58.2557 46.2538 58.2231 46.2788 58.1854C46.3285 58.11 46.3968 58.0135 46.4852 57.9032C46.6614 57.6833 46.922 57.403 47.2804 57.1262C48.012 56.5614 49.1188 56.0389 50.6424 56.045M48.6005 59.6787C48.601 59.6779 48.6017 59.6769 48.6025 59.6757C48.6104 59.6637 48.6297 59.6355 48.6612 59.5962C48.7249 59.5168 48.833 59.3983 48.9904 59.2768C49.2902 59.0453 49.8029 58.7737 50.6317 58.777L50.6323 58.777C51.6711 58.7808 52.1589 59.0796 52.3659 59.252C52.4807 59.3476 52.5444 59.434 52.5738 59.48C52.5815 59.492 52.5867 59.5012 52.5898 59.5068C52.8639 60.1829 53.633 60.5316 54.3365 60.2879C55.0588 60.0377 55.4385 59.2579 55.1846 58.5461L53.8768 58.9992C55.1846 58.5461 55.1843 58.5452 55.184 58.5443L55.1833 58.5423L55.1818 58.5383L55.1787 58.5299L55.1716 58.5111C55.1665 58.4978 55.1606 58.4828 55.1538 58.4663C55.1401 58.4333 55.1229 58.3941 55.1017 58.3496C55.0592 58.2607 55.0001 58.1498 54.9203 58.0248C54.7604 57.7744 54.5161 57.4656 54.1555 57.1653C53.412 56.5461 52.2804 56.051 50.6431 56.045" fill="#3A179D"/>
<path fill-rule="evenodd" clip-rule="evenodd" d="M59.835 93.7152C59.3044 94.2415 58.4416 94.2548 57.8946 93.7401C57.3409 93.2192 57.3206 92.3544 57.8493 91.8088L58.8519 92.7521C57.8493 91.8088 57.8498 91.8082 57.8503 91.8077L57.8514 91.8066L57.8537 91.8042L57.8587 91.7991L57.8703 91.7875C57.8787 91.7791 57.8885 91.7695 57.8998 91.7587C57.9223 91.737 57.9506 91.7107 57.9846 91.6806C58.0525 91.6205 58.1438 91.5447 58.2582 91.4607C58.4861 91.2932 58.8114 91.0889 59.2303 90.913C60.0853 90.554 61.2916 90.3317 62.7617 90.7261M59.835 93.7152C59.8357 93.7145 59.8367 93.7137 59.8377 93.7128C59.8485 93.7033 59.8746 93.6809 59.9154 93.651C59.9977 93.5905 60.1333 93.5036 60.3171 93.4264C60.6676 93.2793 61.2341 93.1477 62.0338 93.3623L62.0344 93.3625C63.0368 93.631 63.4295 94.0441 63.5842 94.2635C63.67 94.3851 63.7088 94.4848 63.7251 94.5366C63.7294 94.5502 63.732 94.5604 63.7336 94.5667C63.8207 95.2896 64.472 95.8226 65.2156 95.7666C65.979 95.7092 66.5506 95.0528 66.4923 94.3005L65.11 94.4045C66.4923 94.3005 66.4922 94.2995 66.4921 94.2985L66.4919 94.2965L66.4916 94.2923L66.4908 94.2833L66.4889 94.2634C66.4875 94.2492 66.4857 94.2332 66.4834 94.2156C66.4789 94.1802 66.4726 94.1379 66.4638 94.0895C66.4461 93.9928 66.4181 93.8706 66.3739 93.7295C66.2852 93.4469 66.1303 93.0862 65.8609 92.7043C65.3053 91.9165 64.3423 91.1496 62.7624 90.7263" fill="#3A179D"/>
<path d="M62.7226 102.622V125.395C62.7226 135.826 71.3342 144.312 81.9199 144.312C85.4344 144.312 88.2823 141.506 88.2823 138.043C88.2823 134.579 85.4344 131.773 81.9199 131.773C78.3503 131.773 75.4474 128.913 75.4474 125.395V102.622" fill="#7000FF"/>
<path fill-rule="evenodd" clip-rule="evenodd" d="M62.7228 101.255C63.4885 101.255 64.1091 101.866 64.1091 102.621V125.394C64.1091 135.071 72.1 142.945 81.9201 142.945C84.669 142.945 86.8962 140.75 86.8962 138.042C86.8962 135.333 84.669 133.138 81.9201 133.138C77.5849 133.138 74.0614 129.666 74.0614 125.394V102.621C74.0614 101.866 74.6821 101.255 75.4477 101.255C76.2133 101.255 76.8339 101.866 76.8339 102.621V125.394C76.8339 128.157 79.1162 130.406 81.9201 130.406C86.2002 130.406 89.6687 133.824 89.6687 138.042C89.6687 142.259 86.2002 145.677 81.9201 145.677C70.5688 145.677 61.3366 136.58 61.3366 125.394V102.621C61.3366 101.866 61.9572 101.255 62.7228 101.255Z" fill="#3A179D"/>
<path d="M51.9911 100.882L51.9911 123.655C51.9911 134.086 60.6027 142.572 71.1883 142.572C74.7029 142.572 77.5507 139.766 77.5507 136.303C77.5507 132.839 74.7029 130.033 71.1883 130.033C67.6188 130.033 64.7159 127.172 64.7159 123.655V100.882" fill="#7000FF"/>
<path fill-rule="evenodd" clip-rule="evenodd" d="M51.9908 99.5156C52.7564 99.5156 53.3771 100.127 53.3771 100.882L53.3771 123.655C53.3771 133.332 61.368 141.206 71.1881 141.206C73.937 141.206 76.1642 139.011 76.1642 136.302C76.1642 133.594 73.937 131.399 71.1881 131.399C66.8529 131.399 63.3294 127.927 63.3294 123.655L63.3294 100.882C63.3294 100.127 63.95 99.5156 64.7156 99.5156C65.4813 99.5156 66.1019 100.127 66.1019 100.882V123.655C66.1019 126.418 68.3841 128.667 71.1881 128.667C75.4682 128.667 78.9367 132.085 78.9367 136.302C78.9367 140.52 75.4682 143.938 71.1881 143.938C59.8368 143.938 50.6046 134.84 50.6046 123.655L50.6046 100.882C50.6046 100.127 51.2252 99.5156 51.9908 99.5156Z" fill="#3A179D"/>
<path d="M33.2483 102.034V125.199C33.2483 135.809 24.4879 144.442 13.7178 144.442C10.1417 144.442 7.24532 141.588 7.24532 138.064C7.24532 134.54 10.1417 131.686 13.7178 131.686C17.3488 131.686 20.3035 128.774 20.3035 125.199V102.034" fill="#7000FF"/>
<path fill-rule="evenodd" clip-rule="evenodd" d="M20.3025 100.67C21.0681 100.67 21.6887 101.281 21.6887 102.036V125.201C21.6887 129.531 18.113 133.054 13.7168 133.054C10.9064 133.054 8.6306 135.296 8.6306 138.066C8.6306 140.835 10.9064 143.078 13.7168 143.078C23.7215 143.078 31.8611 135.056 31.8611 125.201V102.036H34.6336V125.201C34.6336 136.566 25.2524 145.81 13.7168 145.81C9.37515 145.81 5.85809 142.344 5.85809 138.066C5.85809 133.787 9.37515 130.322 13.7168 130.322C16.5827 130.322 18.9162 128.021 18.9162 125.201V102.036C18.9162 101.281 19.5369 100.67 20.3025 100.67Z" fill="#3A179D"/>
<path d="M38.5419 101.529V124.695C38.5419 135.304 29.7814 143.937 19.0113 143.937C15.4353 143.937 12.5389 141.083 12.5389 137.559C12.5389 134.035 15.4353 131.181 19.0113 131.181C22.6423 131.181 25.597 128.269 25.597 124.695V101.529" fill="#7000FF"/>
<path fill-rule="evenodd" clip-rule="evenodd" d="M25.5958 100.162C26.3614 100.162 26.982 100.774 26.982 101.528V124.693C26.982 129.023 23.4063 132.546 19.0101 132.546C16.1997 132.546 13.9239 134.789 13.9239 137.558C13.9239 140.327 16.1997 142.57 19.0101 142.57C29.0148 142.57 37.1544 134.549 37.1544 124.693V101.528C37.1544 100.774 37.775 100.162 38.5407 100.162C39.3063 100.162 39.9269 100.774 39.9269 101.528V124.693C39.9269 136.058 30.5457 145.302 19.0101 145.302C14.6685 145.302 11.1514 141.836 11.1514 137.558C11.1514 133.28 14.6685 129.814 19.0101 129.814C21.876 129.814 24.2095 127.513 24.2095 124.693V101.528C24.2095 100.774 24.8302 100.162 25.5958 100.162Z" fill="#3A179D"/>
<path d="M52.0913 101.529V124.302C52.0913 134.734 43.4797 143.22 32.894 143.22C29.3795 143.22 26.5316 140.413 26.5316 136.95C26.5316 133.487 29.3795 130.68 32.894 130.68C36.4636 130.68 39.3665 127.82 39.3665 124.302V101.529" fill="#7000FF"/>
<path fill-rule="evenodd" clip-rule="evenodd" d="M52.0896 100.162C51.324 100.162 50.7033 100.774 50.7033 101.528V124.301C50.7033 133.978 42.7124 141.852 32.8923 141.852C30.1434 141.852 27.9162 139.658 27.9162 136.949C27.9162 134.24 30.1434 132.045 32.8923 132.045C37.2275 132.045 40.751 128.573 40.751 124.301V101.528C40.751 100.774 40.1304 100.162 39.3647 100.162C38.5991 100.162 37.9785 100.774 37.9785 101.528V124.301C37.9785 127.064 35.6962 129.313 32.8923 129.313C28.6122 129.313 25.1436 132.731 25.1436 136.949C25.1436 141.167 28.6122 144.585 32.8923 144.585C44.2436 144.585 53.4758 135.487 53.4758 124.301V101.528C53.4758 100.774 52.8552 100.162 52.0896 100.162Z" fill="#3A179D"/>
<rect x="103.955" y="67.8846" width="5.63281" height="18.025" rx="2.81641" transform="rotate(11.6247 103.955 67.8846)" fill="#CDCDCD"/>
<path d="M139.71 54.3718C140.172 56.0972 139.679 57.9383 138.416 59.2014L121.576 76.041C120.313 77.3041 118.472 77.7974 116.746 77.3351L93.7431 71.1713C92.0176 70.709 90.6699 69.3613 90.2075 67.6358L84.0438 44.6325C83.5815 42.9071 84.0748 41.066 85.3379 39.8029L102.177 22.9633C103.441 21.7002 105.282 21.2069 107.007 21.6692L130.01 27.8329C131.736 28.2953 133.084 29.643 133.546 31.3685L139.71 54.3718Z" fill="#3A179D"/>
<path d="M133.809 52.7895C134.272 54.5149 133.778 56.356 132.515 57.6191L119.995 70.139C118.732 71.4022 116.891 71.8955 115.166 71.4331L98.0632 66.8505C96.3378 66.3882 94.99 65.0404 94.5277 63.315L89.9451 46.2124C89.4827 44.487 89.9761 42.6459 91.2392 41.3828L103.759 28.8629C105.022 27.5998 106.863 27.1065 108.589 27.5688L125.691 32.1514C127.417 32.6137 128.764 33.9615 129.227 35.6869L133.809 52.7895Z" fill="white"/>
<path d="M96.9558 55.969L101.299 38.8812L107.421 40.4373C108.826 40.7944 109.911 41.257 110.675 41.8252C111.439 42.3933 111.924 43.0775 112.13 43.8779C112.357 44.6658 112.339 45.5783 112.075 46.6155C111.867 47.4351 111.498 48.116 110.968 48.6582C110.46 49.1878 109.851 49.5497 109.143 49.7436C108.435 49.9376 107.688 49.9347 106.901 49.7349L107.181 48.951C108.168 49.2019 108.941 49.5942 109.5 50.1281C110.058 50.6619 110.424 51.2892 110.597 52.0099C110.77 52.7306 110.755 53.4924 110.551 54.2954C110.143 55.9013 109.343 56.9803 108.152 57.5324C106.978 58.0887 105.437 58.1246 103.53 57.6399L96.9558 55.969ZM104.484 41.6942L101.142 54.8425L100.207 53.0556L104.373 54.1142C105.025 54.28 105.576 54.2508 106.024 54.0265C106.49 53.8064 106.793 53.4204 106.933 52.8684C107.086 52.2661 107.017 51.7677 106.725 51.3731C106.451 50.9827 105.987 50.7046 105.335 50.5388L101.119 49.4674L101.923 46.3057L105.762 47.2815C106.431 47.4516 106.967 47.4453 107.369 47.2627C107.772 47.08 108.046 46.7044 108.19 46.1356C108.322 45.617 108.248 45.1709 107.969 44.7972C107.711 44.4111 107.256 44.1351 106.604 43.9693L102.865 43.0191L104.484 41.6942ZM117.393 58.679L120.55 46.2583L124.138 47.1703L120.981 59.5909L117.393 58.679ZM114.268 53.21L115.161 49.6971L127.381 52.8029L126.488 56.3158L114.268 53.21Z" fill="#7000FF"/>
</svg>
