<svg width="212" height="192" viewBox="0 0 212 192" fill="none" xmlns="http://www.w3.org/2000/svg">
<path d="M120.755 118.828L155.403 107.964C171.274 102.988 180.027 86.1244 174.915 70.3708C173.218 65.1405 167.573 62.241 162.304 63.8931C157.034 65.5452 154.14 71.1222 155.837 76.3525C157.561 81.6647 154.61 87.3493 149.258 89.0273L114.61 99.8907" fill="#7000FF"/>
<path fill-rule="evenodd" clip-rule="evenodd" d="M112.533 100.543C112.163 99.4042 112.794 98.1889 113.942 97.8291L148.588 86.9666C152.792 85.6486 155.111 81.1797 153.757 77.0073C151.691 70.6381 155.216 63.8464 161.633 61.8346C168.049 59.8228 174.924 63.3538 176.991 69.723C182.472 86.6145 173.089 104.692 156.071 110.028L121.425 120.89L120.086 116.764L154.732 105.902C169.455 101.286 177.576 85.6391 172.834 71.0262C171.507 66.9356 167.093 64.6682 162.971 65.9603C158.85 67.2524 156.587 71.6135 157.914 75.7041C160.007 82.1551 156.426 89.0546 149.927 91.0923L115.281 101.955C114.133 102.315 112.903 101.683 112.533 100.543Z" fill="#3C008A"/>
<rect width="5.14646" height="18.8172" rx="2.57323" transform="matrix(-0.981163 0.20926 0.215446 0.973188 163.637 53.5913)" fill="#CDCDCD"/>
<path d="M155.786 72.4766C155.957 74.7687 157.457 79.2743 164.684 76.847C168.693 75.5009 168.319 70.0601 162.47 71.5625" stroke="#3C008A" stroke-width="4" stroke-linecap="round"/>
<path d="M131.07 42.4696C130.365 45.2232 131.198 48.148 133.256 50.1421L146.138 62.6249C148.196 64.6192 151.167 65.3799 153.93 64.6203L171.225 59.8664C173.988 59.1068 176.125 56.9424 176.83 54.1885L181.244 36.9517C181.949 34.198 181.116 31.2733 179.058 29.2792L166.176 16.7964C164.118 14.8021 161.147 14.0414 158.384 14.801L141.089 19.5549C138.326 20.3144 136.189 22.4789 135.484 25.2327L131.07 42.4696Z" fill="#3C008A"/>
<path d="M136.2 42.0935C135.671 44.1587 136.296 46.3523 137.839 47.8479L148.351 58.034C149.895 59.5298 152.123 60.1003 154.195 59.5306L168.308 55.6513C170.381 55.0816 171.984 53.4583 172.512 51.3929L176.114 37.3274C176.643 35.2621 176.018 33.0686 174.474 31.573L163.962 21.3868C162.419 19.8911 160.191 19.3206 158.119 19.8903L144.006 23.7695C141.933 24.3392 140.33 25.9625 139.802 28.0279L136.2 42.0935Z" fill="white"/>
<path d="M152.984 42.4044L158.495 40.8906L159.407 44.0942L153.896 45.608L152.984 42.4044ZM151.263 48.4411L152.203 34.0972L155.704 33.1358L163.658 45.0364L160.139 46.0031L153.939 36.1646L155.331 35.7822L154.763 47.4797L151.263 48.4411Z" fill="#3A179D"/>
<ellipse cx="82.4378" cy="8.4683" rx="82.4378" ry="8.4683" transform="matrix(-1 0 0 1 164.876 174.866)" fill="#D9D9D9"/>
<path d="M102.777 111.425V147.403C102.777 163.883 89.2036 177.29 72.5187 177.29C66.9792 177.29 62.4904 172.856 62.4904 167.385C62.4904 161.913 66.9792 157.48 72.5187 157.48C78.1449 157.48 82.7204 152.96 82.7204 147.403V111.425" fill="#7000FF"/>
<path fill-rule="evenodd" clip-rule="evenodd" d="M102.776 109.267C101.569 109.267 100.591 110.233 100.591 111.425V147.403C100.591 162.691 87.9958 175.132 72.5177 175.132C68.1849 175.132 64.6744 171.665 64.6744 167.385C64.6744 163.105 68.1849 159.638 72.5177 159.638C79.3507 159.638 84.9044 154.152 84.9044 147.403V111.425C84.9044 110.233 83.9261 109.267 82.7194 109.267C81.5127 109.267 80.5344 110.233 80.5344 111.425V147.403C80.5344 151.769 76.9372 155.322 72.5177 155.322C65.7714 155.322 60.3044 160.721 60.3044 167.385C60.3044 174.048 65.7714 179.448 72.5177 179.448C90.4093 179.448 104.961 165.075 104.961 147.403V111.425C104.961 110.233 103.983 109.267 102.776 109.267Z" fill="#3C008A"/>
<path d="M75.5115 0C100.835 0 121.394 20.4553 121.394 45.6527V125.174H29.6243L29.6243 45.6578C29.6243 20.4604 50.1875 0 75.5115 0Z" fill="#7000FF"/>
<path fill-rule="evenodd" clip-rule="evenodd" d="M117.024 45.6527C117.024 22.8092 98.3918 4.31633 75.5115 4.31633C52.6311 4.31633 33.9942 22.8143 33.9942 45.6578V120.857H117.024V45.6527ZM121.394 45.6527C121.394 20.4553 100.835 0 75.5115 0C50.1875 0 29.6243 20.4604 29.6243 45.6578V125.174H121.394V45.6527Z" fill="#3C008A"/>
<path d="M117.663 91.9558C110.74 91.9558 105.104 86.3943 105.104 79.5563V67.4987C105.104 60.6607 110.734 55.0935 117.663 55.0935C124.592 55.0935 130.216 60.655 130.216 67.4987V79.5563C130.216 86.3943 124.586 91.9558 117.663 91.9558Z" fill="white"/>
<path fill-rule="evenodd" clip-rule="evenodd" d="M117.662 94.8335C109.132 94.8335 102.19 87.9854 102.19 79.5564V67.4988C102.19 59.0725 109.124 52.2161 117.662 52.2161C126.202 52.2161 133.129 59.0676 133.129 67.4988V79.5564C133.129 87.9836 126.194 94.8335 117.662 94.8335ZM105.103 79.5564C105.103 86.3944 110.739 91.956 117.662 91.956C124.585 91.956 130.216 86.3944 130.216 79.5564V67.4988C130.216 60.6552 124.591 55.0936 117.662 55.0936C110.734 55.0936 105.103 60.6609 105.103 67.4988V79.5564Z" fill="#3C008A"/>
<path d="M117.663 56.2332C123.951 56.2332 129.063 61.2876 129.063 67.493V79.5506C129.063 85.7618 123.946 90.8105 117.657 90.8105C111.369 90.8105 106.252 85.7561 106.252 79.5506V67.493C106.252 61.2819 111.369 56.2332 117.657 56.2332M117.657 53.9539C110.088 53.9539 103.944 60.0169 103.944 67.493V79.5506C103.944 87.0325 110.083 93.0898 117.657 93.0898C125.226 93.0898 131.365 87.0268 131.365 79.5506V67.493C131.365 60.0112 125.226 53.9539 117.657 53.9539Z" fill="#3C008A"/>
<path d="M122.74 65.6407C122.74 62.8713 120.467 60.6262 117.663 60.6262C114.859 60.6262 112.586 62.8713 112.586 65.6407V73.7551C112.586 76.5246 114.859 78.7696 117.663 78.7696C120.467 78.7696 122.74 76.5246 122.74 73.7551V65.6407Z" fill="#1C1C1C"/>
<path d="M122.464 62.581C122.464 61.1165 121.258 59.9255 119.775 59.9255C118.293 59.9255 117.087 61.1165 117.087 62.581C117.087 64.0454 118.293 65.2364 119.775 65.2364C121.258 65.2364 122.464 64.0454 122.464 62.581Z" fill="white"/>
<path d="M79.7683 91.9558C72.8454 91.9558 67.209 86.3943 67.209 79.5563V67.4987C67.209 60.6607 72.8396 55.0935 79.7683 55.0935C86.697 55.0935 92.3219 60.655 92.3219 67.4987V79.5563C92.3219 86.3943 86.6913 91.9558 79.7683 91.9558Z" fill="white"/>
<path fill-rule="evenodd" clip-rule="evenodd" d="M79.7712 94.8335C71.2411 94.8335 64.2986 87.9854 64.2986 79.5564V67.4988C64.2986 59.0725 71.2327 52.2161 79.7712 52.2161C88.3107 52.2161 95.2382 59.0676 95.2382 67.4988V79.5564C95.2382 87.9836 88.3032 94.8335 79.7712 94.8335ZM67.2119 79.5564C67.2119 86.3944 72.8483 91.956 79.7712 91.956C86.6942 91.956 92.3248 86.3944 92.3248 79.5564V67.4988C92.3248 60.6552 86.7 55.0936 79.7712 55.0936C72.8425 55.0936 67.2119 60.6609 67.2119 67.4988V79.5564Z" fill="#3C008A"/>
<path d="M79.7697 56.2332C86.0581 56.2332 91.1695 61.2876 91.1695 67.493V79.5506C91.1695 85.7618 86.0523 90.8105 79.764 90.8105C73.4756 90.8105 68.3584 85.7561 68.3584 79.5506V67.493C68.3584 61.2819 73.4756 56.2332 79.764 56.2332M79.764 53.9539C72.1949 53.9539 66.0508 60.0169 66.0508 67.493V79.5506C66.0508 87.0325 72.1891 93.0898 79.764 93.0898C87.333 93.0898 93.4714 87.0268 93.4714 79.5506V67.493C93.4714 60.0112 87.333 53.9539 79.764 53.9539Z" fill="#3C008A"/>
<path d="M84.848 65.6407C84.848 62.8713 82.575 60.6262 79.7711 60.6262C76.9673 60.6262 74.6943 62.8713 74.6943 65.6407V73.7551C74.6943 76.5246 76.9673 78.7696 79.7711 78.7696C82.575 78.7696 84.848 76.5246 84.848 73.7551V65.6407Z" fill="#1C1C1C"/>
<path d="M84.5707 62.581C84.5707 61.1165 83.3649 59.9255 81.8823 59.9255C80.3996 59.9255 79.1938 61.1165 79.1938 62.581C79.1938 64.0454 80.3996 65.2364 81.8823 65.2364C83.3649 65.2364 84.5707 64.0454 84.5707 62.581Z" fill="white"/>
<path d="M52.1921 38.8604C54.5882 38.8604 56.5306 36.9418 56.5306 34.5751C56.5306 32.2084 54.5882 30.2898 52.1921 30.2898C49.796 30.2898 47.8535 32.2084 47.8535 34.5751C47.8535 36.9418 49.796 38.8604 52.1921 38.8604Z" fill="#FEE702"/>
<path d="M63.1436 35.0915C64.9383 35.0915 66.3931 33.6544 66.3931 31.8818C66.3931 30.1091 64.9383 28.6721 63.1436 28.6721C61.3489 28.6721 59.894 30.1091 59.894 31.8818C59.894 33.6544 61.3489 35.0915 63.1436 35.0915Z" fill="#FEE702"/>
<path d="M57.2803 26.1077C58.5457 26.1077 59.5715 25.0944 59.5715 23.8445C59.5715 22.5947 58.5457 21.5814 57.2803 21.5814C56.0148 21.5814 54.989 22.5947 54.989 23.8445C54.989 25.0944 56.0148 26.1077 57.2803 26.1077Z" fill="#FEE702"/>
<path fill-rule="evenodd" clip-rule="evenodd" d="M113.747 44.5882C113.157 45.6051 111.849 45.973 110.803 45.4081C109.745 44.8361 109.356 43.5248 109.935 42.479L111.852 43.5146C109.935 42.479 109.935 42.478 109.936 42.4769L109.937 42.4747L109.94 42.4702L109.945 42.4605L109.958 42.4381C109.967 42.4219 109.978 42.4032 109.991 42.3821C110.016 42.3401 110.048 42.2885 110.088 42.2289C110.166 42.1098 110.274 41.9573 110.413 41.783C110.691 41.4357 111.102 40.9928 111.667 40.5556C112.82 39.6632 114.564 38.8378 116.966 38.8474M113.747 44.5882C113.748 44.5868 113.749 44.5852 113.75 44.5834C113.763 44.5645 113.793 44.5199 113.843 44.4578C113.943 44.3323 114.114 44.1451 114.362 43.9532C114.834 43.5874 115.642 43.1583 116.949 43.1637L116.95 43.1637C118.587 43.1695 119.356 43.6417 119.682 43.9141C119.863 44.0651 119.964 44.2016 120.01 44.2742C120.022 44.2932 120.03 44.3077 120.035 44.3166C120.467 45.3847 121.679 45.9356 122.788 45.5506C123.927 45.1553 124.525 43.9234 124.125 42.7989L122.064 43.5146C124.125 42.7989 124.124 42.7974 124.124 42.7959L124.123 42.7928L124.121 42.7866L124.116 42.7732L124.105 42.7436C124.096 42.7225 124.087 42.6989 124.076 42.6728C124.055 42.6207 124.028 42.5587 123.994 42.4884C123.927 42.3479 123.834 42.1727 123.708 41.9752C123.456 41.5797 123.071 41.0917 122.503 40.6174C121.331 39.6391 119.547 38.8568 116.967 38.8474" fill="#3C008A"/>
<path fill-rule="evenodd" clip-rule="evenodd" d="M76.6019 45.3073C76.012 46.3242 74.7038 46.6921 73.658 46.1272C72.5992 45.5552 72.2103 44.2439 72.7894 43.1981L74.7064 44.2337C72.7894 43.1981 72.79 43.1971 72.7905 43.196L72.7917 43.1939L72.7943 43.1894L72.7997 43.1796L72.8125 43.1572C72.8219 43.141 72.8329 43.1223 72.8456 43.1013C72.8709 43.0592 72.9031 43.0076 72.9424 42.948C73.0209 42.8289 73.1285 42.6765 73.2678 42.5022C73.5455 42.1548 73.9562 41.7119 74.5211 41.2747C75.6742 40.3823 77.4188 39.557 79.8203 39.5665M76.6019 45.3073C76.6027 45.3059 76.6037 45.3044 76.605 45.3025C76.6174 45.2836 76.648 45.239 76.6976 45.1769C76.7979 45.0514 76.9684 44.8642 77.2164 44.6723C77.689 44.3065 78.497 43.8775 79.8033 43.8828L79.8044 43.8828C81.4416 43.8887 82.2106 44.3609 82.5369 44.6332C82.7178 44.7842 82.8182 44.9207 82.8644 44.9933C82.8766 45.0123 82.8849 45.0268 82.8898 45.0357C83.3217 46.1038 84.5339 46.6547 85.6429 46.2697C86.7813 45.8745 87.3798 44.6425 86.9796 43.518L84.9183 44.2337C86.9796 43.518 86.9791 43.5165 86.9786 43.515L86.9775 43.512L86.9752 43.5057L86.9703 43.4923L86.9592 43.4627C86.9511 43.4416 86.9417 43.418 86.931 43.3919C86.9095 43.3398 86.8824 43.2778 86.8489 43.2075C86.7819 43.067 86.6888 42.8918 86.563 42.6943C86.311 42.2988 85.9259 41.8108 85.3576 41.3365C84.1856 40.3582 82.402 39.576 79.8214 39.5665" fill="#3C008A"/>
<path fill-rule="evenodd" clip-rule="evenodd" d="M101.232 95.3244C101.822 94.3075 103.13 93.9396 104.176 94.5045C105.235 95.0765 105.624 96.3878 105.045 97.4336L103.128 96.398C105.045 97.4336 105.044 97.4346 105.044 97.4357L105.042 97.4379L105.04 97.4424L105.034 97.4521L105.022 97.4745C105.012 97.4907 105.001 97.5094 104.989 97.5305C104.963 97.5725 104.931 97.6241 104.892 97.6837C104.813 97.8028 104.706 97.9553 104.566 98.1296C104.289 98.4769 103.878 98.9198 103.313 99.357C102.16 100.249 100.415 101.075 98.014 101.065M101.232 95.3244C101.232 95.3258 101.23 95.3274 101.229 95.3292C101.217 95.3481 101.186 95.3927 101.137 95.4548C101.036 95.5803 100.866 95.7675 100.618 95.9594C100.145 96.3252 99.3372 96.7543 98.0309 96.7489L98.0298 96.7489C96.3926 96.7431 95.6236 96.2709 95.2974 95.9985C95.1164 95.8475 95.016 95.711 94.9698 95.6384C94.9577 95.6194 94.9494 95.6049 94.9445 95.596C94.5125 94.5279 93.3003 93.977 92.1914 94.362C91.0529 94.7573 90.4544 95.9892 90.8546 97.1137L92.9159 96.398C90.8546 97.1137 90.8551 97.1152 90.8557 97.1167L90.8567 97.1197L90.859 97.126L90.8639 97.1394L90.8751 97.169C90.8831 97.1901 90.8925 97.2137 90.9032 97.2398C90.9247 97.2919 90.9518 97.3539 90.9853 97.4242C91.0523 97.5647 91.1454 97.7399 91.2713 97.9374C91.5233 98.3329 91.9084 98.8209 92.4766 99.2952C93.6486 100.274 95.4322 101.056 98.0129 101.065" fill="#3C008A"/>
<path d="M98.8617 115.311V151.29C98.8617 167.77 112.435 181.176 129.12 181.176C134.659 181.176 139.148 176.743 139.148 171.271C139.148 165.8 134.659 161.366 129.12 161.366C123.494 161.366 118.918 156.847 118.918 151.29V115.311" fill="#7000FF"/>
<path fill-rule="evenodd" clip-rule="evenodd" d="M98.8622 113.153C100.069 113.153 101.047 114.119 101.047 115.311V151.29C101.047 166.578 113.642 179.018 129.12 179.018C133.453 179.018 136.964 175.551 136.964 171.271C136.964 166.992 133.453 163.524 129.12 163.524C122.288 163.524 116.734 158.039 116.734 151.29V115.311C116.734 114.119 117.712 113.153 118.919 113.153C120.126 113.153 121.104 114.119 121.104 115.311V151.29C121.104 155.655 124.701 159.208 129.12 159.208C135.867 159.208 141.334 164.608 141.334 171.271C141.334 177.935 135.867 183.335 129.12 183.335C111.229 183.335 96.6772 168.962 96.6772 151.29V115.311C96.6772 114.119 97.6555 113.153 98.8622 113.153Z" fill="#3C008A"/>
<path d="M81.9448 110.401V146.379C81.9448 162.859 95.5182 176.266 112.203 176.266C117.743 176.266 122.231 171.832 122.231 166.36C122.231 160.889 117.743 156.455 112.203 156.455C106.577 156.455 102.001 151.936 102.001 146.379V110.401" fill="#7000FF"/>
<path fill-rule="evenodd" clip-rule="evenodd" d="M81.946 108.242C83.1527 108.242 84.131 109.208 84.131 110.4V146.378C84.131 161.667 96.7261 174.107 112.204 174.107C116.537 174.107 120.048 170.64 120.048 166.36C120.048 162.08 116.537 158.613 112.204 158.613C105.371 158.613 99.8175 153.127 99.8175 146.378V110.4C99.8175 109.208 100.796 108.242 102.003 108.242C103.209 108.242 104.188 109.208 104.188 110.4V146.378C104.188 150.744 107.785 154.297 112.204 154.297C118.95 154.297 124.417 159.697 124.417 166.36C124.417 173.024 118.951 178.423 112.204 178.423C94.3126 178.423 79.761 164.05 79.761 146.378V110.4C79.761 109.208 80.7392 108.242 81.946 108.242Z" fill="#3C008A"/>
<path d="M52.405 112.224V148.822C52.405 165.585 38.597 179.223 21.6214 179.223C15.9849 179.223 11.4197 174.714 11.4197 169.147C11.4197 163.579 15.9849 159.07 21.6214 159.07C27.3445 159.07 32.0016 154.47 32.0016 148.822V112.224" fill="#7000FF"/>
<path fill-rule="evenodd" clip-rule="evenodd" d="M32.0001 110.066C33.2068 110.066 34.1851 111.033 34.1851 112.225V148.822C34.1851 155.663 28.549 161.228 21.6198 161.228C17.1901 161.228 13.6031 164.771 13.6031 169.147C13.6031 173.522 17.1901 177.065 21.6198 177.065C37.389 177.065 50.2185 164.393 50.2185 148.822V112.225H54.5885V148.822C54.5885 166.777 39.802 181.381 21.6198 181.381C14.7767 181.381 9.23315 175.906 9.23315 169.147C9.23315 162.388 14.7767 156.912 21.6198 156.912C26.137 156.912 29.8151 153.278 29.8151 148.822V112.225C29.8151 111.033 30.7933 110.066 32.0001 110.066Z" fill="#3C008A"/>
<path d="M60.7475 111.425V148.023C60.7475 164.785 46.9395 178.424 29.9639 178.424C24.3275 178.424 19.7622 173.914 19.7622 168.347C19.7622 162.78 24.3275 158.271 29.9639 158.271C35.6871 158.271 40.3441 153.671 40.3441 148.023V111.425" fill="#7000FF"/>
<path fill-rule="evenodd" clip-rule="evenodd" d="M40.3431 109.267C41.5498 109.267 42.5281 110.233 42.5281 111.425V148.023C42.5281 154.863 36.8921 160.429 29.9629 160.429C25.5332 160.429 21.9461 163.972 21.9461 168.347C21.9461 172.722 25.5332 176.265 29.9629 176.265C45.732 176.265 58.5615 163.593 58.5615 148.023V111.425C58.5615 110.233 59.5398 109.267 60.7465 109.267C61.9532 109.267 62.9315 110.233 62.9315 111.425V148.023C62.9315 165.977 48.145 180.582 29.9629 180.582C23.1197 180.582 17.5762 175.106 17.5762 168.347C17.5762 161.588 23.1197 156.112 29.9629 156.112C34.48 156.112 38.1581 152.478 38.1581 148.023V111.425C38.1581 110.233 39.1364 109.267 40.3431 109.267Z" fill="#3C008A"/>
<path d="M82.1033 111.425V147.403C82.1033 163.883 68.5299 177.29 51.845 177.29C46.3055 177.29 41.8167 172.856 41.8167 167.385C41.8167 161.913 46.3055 157.48 51.845 157.48C57.4712 157.48 62.0467 152.96 62.0467 147.403V111.425" fill="#7000FF"/>
<path fill-rule="evenodd" clip-rule="evenodd" d="M82.1024 109.267C80.8956 109.267 79.9174 110.233 79.9174 111.425V147.403C79.9174 162.691 67.3223 175.132 51.8441 175.132C47.5113 175.132 44.0008 171.665 44.0008 167.385C44.0008 163.105 47.5113 159.638 51.8441 159.638C58.6771 159.638 64.2308 154.152 64.2308 147.403V111.425C64.2308 110.233 63.2525 109.267 62.0458 109.267C60.8391 109.267 59.8608 110.233 59.8608 111.425V147.403C59.8608 151.769 56.2636 155.322 51.8441 155.322C45.0979 155.322 39.6309 160.721 39.6309 167.385C39.6309 174.048 45.0979 179.448 51.8441 179.448C69.7357 179.448 84.2874 165.075 84.2874 147.403V111.425C84.2874 110.233 83.3091 109.267 82.1024 109.267Z" fill="#3C008A"/>
</svg>
