<svg width="138" height="79" viewBox="0 0 138 79" fill="none" xmlns="http://www.w3.org/2000/svg">
<path d="M56.6509 90.9816L87.5416 81.2904C101.691 76.8513 109.496 61.8111 104.941 47.7623C103.428 43.0979 98.3956 40.5126 93.6977 41.9865C88.9999 43.4603 86.4188 48.4341 87.9314 53.0984C89.4676 57.8358 86.8366 62.9057 82.0653 64.4026L51.1745 74.0938" fill="#7000FF"/>
<path fill-rule="evenodd" clip-rule="evenodd" d="M49.3225 74.6761C48.993 73.6601 49.5555 72.5762 50.5788 72.2552L81.468 62.5648C85.2158 61.3891 87.2841 57.4035 86.0775 53.6825C84.2355 48.0025 87.3789 41.9453 93.0999 40.1505C98.8208 38.3558 104.95 41.5043 106.792 47.1842C111.677 62.2479 103.31 78.3707 88.1372 83.1305L57.248 92.8208L56.0549 89.1416L86.9441 79.4512C100.07 75.3335 107.312 61.3785 103.086 48.3468C101.903 44.6988 97.9673 42.6771 94.293 43.8298C90.6187 44.9825 88.6003 48.872 89.7833 52.5199C91.6489 58.2729 88.4556 64.4263 82.6611 66.2441L51.7719 75.9344C50.7486 76.2554 49.6519 75.6921 49.3225 74.6761Z" fill="#3C008A"/>
<rect width="4.58964" height="16.7801" rx="2.29482" transform="matrix(-0.981026 0.209367 0.215338 0.973328 94.8848 32.7977)" fill="#CDCDCD"/>
<path d="M87.885 49.6418C88.0372 51.686 89.3742 55.7043 95.8175 53.5389C99.3909 52.338 99.058 47.4856 93.8439 48.8261" stroke="#3C008A" stroke-width="4" stroke-linecap="round"/>
<path d="M65.9722 22.3982C65.2669 25.1524 66.0999 28.0775 68.1573 30.0718L78.9212 40.5054C80.9788 42.4999 83.9485 43.2604 86.7115 42.5004L101.164 38.5253C103.927 37.7654 106.064 35.6004 106.769 32.846L110.459 18.4372C111.164 15.683 110.331 12.7578 108.274 10.7635L97.5098 0.329956C95.4522 -1.66453 92.4825 -2.42503 89.7194 -1.66508L75.2668 2.31001C72.5037 3.06996 70.3671 5.23492 69.6618 7.98932L65.9722 22.3982Z" fill="#3C008A"/>
<path d="M70.5149 22.1829C69.986 24.2485 70.6107 26.4423 72.1538 27.9381L80.9848 36.4981C82.528 37.994 84.7553 38.5644 86.8276 37.9944L98.6851 34.7331C100.757 34.1631 102.36 32.5394 102.889 30.4736L105.916 18.6521C106.445 16.5864 105.82 14.3926 104.277 12.8969L95.446 4.33681C93.9028 2.84095 91.6755 2.27057 89.6032 2.84054L77.7458 6.10184C75.6735 6.67181 74.071 8.29553 73.542 10.3613L70.5149 22.1829Z" fill="white"/>
<path d="M78.4275 24.7499L83.9381 23.2354L84.8498 26.4394L79.3393 27.9539L78.4275 24.7499ZM76.7058 30.7877L77.6478 16.4414L81.1475 15.4795L89.0997 27.3814L85.5807 28.3486L79.3827 18.509L80.7749 18.1264L80.2055 29.8259L76.7058 30.7877ZM93.409 24.3973L90.6411 14.67L94.1601 13.7028L96.928 23.4302L93.409 24.3973ZM89.4532 22.0713L88.4869 18.6753L98.1352 16.0236L99.1015 19.4195L89.4532 22.0713Z" fill="#3A179D"/>
<path d="M16.3193 -15C38.8959 -15 57.2236 3.24394 57.2236 25.7173V96.6414H-24.5896L-24.5896 25.7219C-24.5896 3.24851 -6.25731 -15 16.3193 -15Z" fill="#7000FF"/>
<path fill-rule="evenodd" clip-rule="evenodd" d="M53.3277 25.7173C53.3277 5.34339 36.7174 -11.1503 16.3193 -11.1503C-4.07878 -11.1503 -20.6937 5.34796 -20.6937 25.7219V92.7917H53.3277V25.7173ZM57.2236 25.7173C57.2236 3.24394 38.8959 -15 16.3193 -15C-6.25731 -15 -24.5896 3.24851 -24.5896 25.7219V96.6414H57.2236V25.7173Z" fill="#3C008A"/>
<path d="M53.8976 67.0147C47.7257 67.0147 42.7008 62.0544 42.7008 55.9557V45.2016C42.7008 39.1029 47.7206 34.1375 53.8976 34.1375C60.0746 34.1375 65.0892 39.0978 65.0892 45.2016V55.9557C65.0892 62.0544 60.0695 67.0147 53.8976 67.0147Z" fill="white"/>
<path fill-rule="evenodd" clip-rule="evenodd" d="M53.8971 69.5813C46.2923 69.5813 40.103 63.4734 40.103 55.9558V45.2017C40.103 37.6863 46.2849 31.5711 53.8971 31.5711C61.51 31.5711 67.686 37.682 67.686 45.2017V55.9558C67.686 63.4719 61.5033 69.5813 53.8971 69.5813ZM42.7003 55.9558C42.7003 62.0545 47.7252 67.0148 53.8971 67.0148C60.0689 67.0148 65.0887 62.0545 65.0887 55.9558V45.2017C65.0887 39.0979 60.0741 34.1376 53.8971 34.1376C47.72 34.1376 42.7003 39.1029 42.7003 45.2017V55.9558Z" fill="#3C008A"/>
<path d="M53.8978 35.154C59.5039 35.154 64.0608 39.6619 64.0608 45.1965V55.9506C64.0608 61.4903 59.4988 65.9932 53.8927 65.9932C48.2866 65.9932 43.7245 61.4852 43.7245 55.9506V45.1965C43.7245 39.6569 48.2866 35.154 53.8927 35.154M53.8927 33.1211C47.1448 33.1211 41.6672 38.5286 41.6672 45.1965V55.9506C41.6672 62.6237 47.1396 68.0261 53.8927 68.0261C60.6406 68.0261 66.113 62.6186 66.113 55.9506V45.1965C66.113 38.5235 60.6406 33.1211 53.8927 33.1211Z" fill="#3C008A"/>
<path d="M58.4239 43.5445C58.4239 41.0744 56.3975 39.0721 53.8979 39.0721C51.3982 39.0721 49.3718 41.0744 49.3718 43.5445V50.7816C49.3718 53.2517 51.3982 55.254 53.8979 55.254C56.3975 55.254 58.4239 53.2517 58.4239 50.7816V43.5445Z" fill="#1C1C1C"/>
<path d="M58.1775 40.8155C58.1775 39.5093 57.1026 38.4471 55.7808 38.4471C54.459 38.4471 53.384 39.5093 53.384 40.8155C53.384 42.1216 54.459 43.1838 55.7808 43.1838C57.1026 43.1838 58.1775 42.1216 58.1775 40.8155Z" fill="white"/>
<path d="M20.1141 67.0147C13.9423 67.0147 8.91736 62.0544 8.91736 55.9557V45.2016C8.91736 39.1029 13.9371 34.1375 20.1141 34.1375C26.2911 34.1375 31.3058 39.0978 31.3058 45.2016V55.9557C31.3058 62.0544 26.286 67.0147 20.1141 67.0147Z" fill="white"/>
<path fill-rule="evenodd" clip-rule="evenodd" d="M20.1168 69.5813C12.5121 69.5813 6.32275 63.4734 6.32275 55.9558V45.2017C6.32275 37.6863 12.5046 31.5711 20.1168 31.5711C27.7298 31.5711 33.9057 37.682 33.9057 45.2017V55.9558C33.9057 63.4719 27.7231 69.5813 20.1168 69.5813ZM8.92 55.9558C8.92 62.0545 13.9449 67.0148 20.1168 67.0148C26.2887 67.0148 31.3084 62.0545 31.3084 55.9558V45.2017C31.3084 39.0979 26.2938 34.1376 20.1168 34.1376C13.9398 34.1376 8.92 39.1029 8.92 45.2017V55.9558Z" fill="#3C008A"/>
<path d="M20.1156 35.154C25.7217 35.154 30.2786 39.6619 30.2786 45.1965V55.9506C30.2786 61.4903 25.7165 65.9932 20.1104 65.9932C14.5043 65.9932 9.9423 61.4852 9.9423 55.9506V45.1965C9.9423 39.6569 14.5043 35.154 20.1104 35.154M20.1104 33.1211C13.3625 33.1211 7.88501 38.5286 7.88501 45.1965V55.9506C7.88501 62.6237 13.3574 68.0261 20.1104 68.0261C26.8583 68.0261 32.3307 62.6186 32.3307 55.9506V45.1965C32.3307 38.5235 26.8583 33.1211 20.1104 33.1211Z" fill="#3C008A"/>
<path d="M24.6429 43.5445C24.6429 41.0744 22.6165 39.0721 20.1168 39.0721C17.6172 39.0721 15.5908 41.0744 15.5908 43.5445V50.7816C15.5908 53.2517 17.6172 55.254 20.1168 55.254C22.6165 55.254 24.6429 53.2517 24.6429 50.7816V43.5445Z" fill="#1C1C1C"/>
<path d="M24.3954 40.8155C24.3954 39.5093 23.3205 38.4471 21.9987 38.4471C20.6769 38.4471 19.6019 39.5093 19.6019 40.8155C19.6019 42.1216 20.6769 43.1838 21.9987 43.1838C23.3205 43.1838 24.3954 42.1216 24.3954 40.8155Z" fill="white"/>
<path d="M5.29313 16.2978C6.89311 16.2978 8.19012 15.0162 8.19012 13.4351C8.19012 11.8541 6.89311 10.5725 5.29313 10.5725C3.69316 10.5725 2.39612 11.8541 2.39612 13.4351C2.39612 15.0162 3.69316 16.2978 5.29313 16.2978Z" fill="#FEE702"/>
<path d="M0.0658569 8.28519C1.19399 8.28519 2.10852 7.38149 2.10852 6.26673C2.10852 5.15197 1.19399 4.24828 0.0658569 4.24828C-1.06227 4.24828 -1.97681 5.15197 -1.97681 6.26673C-1.97681 7.38149 -1.06227 8.28519 0.0658569 8.28519Z" fill="#FEE702"/>
<path fill-rule="evenodd" clip-rule="evenodd" d="M50.4067 24.7678C49.8808 25.6748 48.7145 26.0029 47.7822 25.499C46.8383 24.989 46.4916 23.8193 47.0078 22.8867L48.7169 23.8103C47.0078 22.8867 47.0083 22.8857 47.0089 22.8848L47.0099 22.8829L47.0122 22.8788L47.0171 22.8701L47.0285 22.8501C47.0368 22.8357 47.0466 22.819 47.0579 22.8003C47.0805 22.7627 47.1092 22.7168 47.1442 22.6636C47.2142 22.5574 47.3101 22.4214 47.4344 22.2659C47.6819 21.9561 48.048 21.5611 48.5517 21.1712C49.5797 20.3752 51.135 19.6391 53.2759 19.6476M50.4067 24.7678C50.4074 24.7666 50.4084 24.7652 50.4095 24.7635C50.4206 24.7467 50.4478 24.7069 50.492 24.6515C50.5814 24.5396 50.7334 24.3726 50.9545 24.2015C51.3759 23.8752 52.0963 23.4925 53.2608 23.4973L53.2618 23.4973C54.7214 23.5025 55.4069 23.9237 55.6978 24.1666C55.8591 24.3013 55.9486 24.423 55.9898 24.4877C56.0007 24.5047 56.0081 24.5176 56.0124 24.5256C56.3975 25.4782 57.4782 25.9696 58.4668 25.6262C59.4818 25.2737 60.0153 24.1749 59.6586 23.1719L57.8209 23.8103C59.6586 23.1719 59.6581 23.1706 59.6576 23.1693L59.6567 23.1666L59.6546 23.161L59.6503 23.1491L59.6403 23.1226C59.6331 23.1038 59.6248 23.0827 59.6152 23.0595C59.5961 23.013 59.5719 22.9577 59.542 22.895C59.4823 22.7697 59.3993 22.6134 59.2871 22.4373C59.0625 22.0845 58.7191 21.6493 58.2125 21.2263C57.1677 20.3537 55.5776 19.6561 53.2769 19.6476" fill="#3C008A"/>
<path fill-rule="evenodd" clip-rule="evenodd" d="M17.2913 25.4092C16.7654 26.3162 15.5992 26.6443 14.6668 26.1405C13.7229 25.6304 13.3762 24.4608 13.8925 23.5281L15.6015 24.4517C13.8925 23.5281 13.893 23.5271 13.8935 23.5262L13.8946 23.5243L13.8968 23.5202L13.9017 23.5115L13.9131 23.4916C13.9215 23.4771 13.9313 23.4604 13.9426 23.4417C13.9652 23.4042 13.9939 23.3582 14.0289 23.305C14.0988 23.1988 14.1948 23.0628 14.319 22.9073C14.5665 22.5975 14.9327 22.2025 15.4364 21.8126C16.4643 21.0167 18.0197 20.2805 20.1606 20.289M17.2913 25.4092C17.2921 25.408 17.293 25.4066 17.2941 25.4049C17.3052 25.3881 17.3324 25.3483 17.3767 25.2929C17.4661 25.181 17.6181 25.0141 17.8392 24.8429C18.2605 24.5166 18.9809 24.134 20.1455 24.1387L20.1464 24.1387C21.606 24.144 22.2916 24.5651 22.5824 24.808C22.7437 24.9427 22.8333 25.0644 22.8745 25.1292C22.8853 25.1461 22.8927 25.1591 22.897 25.167C23.2821 26.1197 24.3628 26.611 25.3515 26.2676C26.3664 25.9151 26.9 24.8163 26.5432 23.8134L24.7055 24.4517C26.5432 23.8134 26.5427 23.812 26.5423 23.8107L26.5413 23.808L26.5393 23.8024L26.5349 23.7905L26.525 23.764C26.5178 23.7453 26.5094 23.7242 26.4998 23.7009C26.4807 23.6544 26.4565 23.5991 26.4266 23.5364C26.367 23.4111 26.2839 23.2549 26.1717 23.0787C25.9471 22.7259 25.6038 22.2908 25.0971 21.8677C24.0523 20.9952 22.4622 20.2975 20.1615 20.289" fill="#3C008A"/>
<path fill-rule="evenodd" clip-rule="evenodd" d="M39.2497 70.0191C39.7756 69.1121 40.9419 68.784 41.8742 69.2878C42.8181 69.7979 43.1648 70.9676 42.6486 71.9002L40.9395 70.9766C42.6486 71.9002 42.648 71.9012 42.6475 71.9021L42.6464 71.904L42.6442 71.9081L42.6393 71.9168L42.6279 71.9367C42.6196 71.9512 42.6098 71.9679 42.5984 71.9866C42.5758 72.0241 42.5472 72.0701 42.5121 72.1233C42.4422 72.2295 42.3462 72.3655 42.222 72.521C41.9745 72.8308 41.6083 73.2258 41.1047 73.6157C40.0767 74.4117 38.5214 75.1478 36.3804 75.1393M39.2497 70.0191C39.2489 70.0203 39.248 70.0217 39.2469 70.0234C39.2358 70.0402 39.2086 70.08 39.1643 70.1354C39.0749 70.2473 38.923 70.4143 38.7019 70.5854C38.2805 70.9117 37.5601 71.2943 36.3955 71.2896L36.3946 71.2896C34.935 71.2844 34.2494 70.8632 33.9586 70.6203C33.7973 70.4856 33.7078 70.3639 33.6665 70.2992C33.6557 70.2822 33.6483 70.2693 33.644 70.2613C33.2589 69.3087 32.1782 68.8173 31.1895 69.1607C30.1746 69.5132 29.641 70.612 29.9978 71.6149L31.8355 70.9766C29.9978 71.6149 29.9983 71.6163 29.9988 71.6176L29.9997 71.6203L30.0018 71.6259L30.0061 71.6378L30.016 71.6643C30.0232 71.6831 30.0316 71.7042 30.0412 71.7274C30.0603 71.7739 30.0845 71.8292 30.1144 71.8919C30.174 72.0172 30.2571 72.1735 30.3693 72.3496C30.5939 72.7024 30.9373 73.1376 31.4439 73.5606C32.4887 74.4331 34.0788 75.1308 36.3795 75.1393" fill="#3C008A"/>
</svg>
