<svg width="213" height="192" viewBox="0 0 213 192" fill="none" xmlns="http://www.w3.org/2000/svg">
<path d="M121.255 118.828L155.903 107.964C171.774 102.988 180.527 86.1244 175.415 70.3708C173.718 65.1405 168.073 62.241 162.804 63.8931C157.534 65.5452 154.64 71.1222 156.337 76.3525C158.061 81.6647 155.11 87.3493 149.758 89.0273L115.11 99.8907" fill="#7000FF"/>
<path fill-rule="evenodd" clip-rule="evenodd" d="M113.033 100.543C112.663 99.4042 113.294 98.1889 114.442 97.8291L149.088 86.9666C153.292 85.6486 155.611 81.1797 154.257 77.0073C152.191 70.6381 155.716 63.8464 162.133 61.8346C168.549 59.8228 175.424 63.3538 177.491 69.723C182.972 86.6145 173.589 104.692 156.571 110.028L121.925 120.89L120.586 116.764L155.232 105.902C169.955 101.286 178.076 85.6391 173.334 71.0262C172.007 66.9356 167.593 64.6682 163.471 65.9603C159.35 67.2524 157.087 71.6135 158.414 75.7041C160.507 82.1551 156.926 89.0546 150.427 91.0923L115.781 101.955C114.633 102.315 113.403 101.683 113.033 100.543Z" fill="#3C008A"/>
<rect width="5.14646" height="18.8172" rx="2.57323" transform="matrix(-0.981163 0.20926 0.215446 0.973188 164.137 53.5913)" fill="#CDCDCD"/>
<path d="M156.286 72.4766C156.457 74.7687 157.957 79.2743 165.184 76.847C169.193 75.5009 168.819 70.0601 162.97 71.5625" stroke="#3C008A" stroke-width="4" stroke-linecap="round"/>
<path d="M131.57 42.4696C130.865 45.2232 131.698 48.148 133.756 50.1421L146.638 62.6249C148.696 64.6192 151.667 65.3799 154.43 64.6203L171.725 59.8664C174.488 59.1068 176.625 56.9424 177.33 54.1885L181.744 36.9517C182.449 34.198 181.616 31.2733 179.558 29.2792L166.676 16.7964C164.618 14.8021 161.647 14.0414 158.884 14.801L141.589 19.5549C138.826 20.3144 136.689 22.4789 135.984 25.2327L131.57 42.4696Z" fill="#3C008A"/>
<path d="M136.7 42.0935C136.171 44.1587 136.796 46.3523 138.339 47.8479L148.851 58.034C150.395 59.5298 152.623 60.1003 154.695 59.5306L168.808 55.6513C170.881 55.0816 172.484 53.4583 173.012 51.3929L176.614 37.3274C177.143 35.2621 176.518 33.0686 174.974 31.573L164.462 21.3868C162.919 19.8911 160.691 19.3206 158.619 19.8903L144.506 23.7695C142.433 24.3392 140.83 25.9625 140.302 28.0279L136.7 42.0935Z" fill="white"/>
<path d="M149.541 49.0511L145.822 35.9873L150.811 34.6169C152.036 34.2805 153.036 34.1574 153.813 34.2475C154.589 34.3377 155.197 34.6188 155.637 35.0908C156.074 35.55 156.405 36.1761 156.631 36.969C156.802 37.5701 156.837 38.1327 156.736 38.6568C156.631 39.1682 156.403 39.6102 156.05 39.9828C155.698 40.3554 155.231 40.6214 154.651 40.7808L154.558 40.4546C155.306 40.2493 155.941 40.2334 156.463 40.4072C156.981 40.5682 157.403 40.8523 157.727 41.2596C158.052 41.6668 158.287 42.1263 158.432 42.6378C158.786 43.8783 158.669 44.91 158.083 45.7328C157.494 46.5428 156.432 47.1585 154.898 47.5798L149.541 49.0511ZM149.781 36.6373L152.545 46.3441L150.917 45.095L153.837 44.293C154.172 44.2009 154.423 44.0562 154.589 43.8589C154.768 43.658 154.814 43.4041 154.727 43.0972C154.639 42.7903 154.473 42.5948 154.226 42.5108C153.98 42.4267 153.696 42.429 153.373 42.5175L150.415 43.3302L149.59 40.4335L152.297 39.6899C152.684 39.5837 152.947 39.4354 153.088 39.2452C153.241 39.0514 153.274 38.801 153.187 38.4941C153.099 38.1871 152.939 37.9899 152.706 37.9023C152.485 37.8112 152.181 37.8188 151.795 37.925L149.145 38.6527L149.781 36.6373ZM165.622 40.4977L159.376 42.2133L158.485 39.0864L164.731 37.3708L165.622 40.4977Z" fill="#3A179D"/>
<ellipse cx="82.4378" cy="8.4683" rx="82.4378" ry="8.4683" transform="matrix(-1 0 0 1 165.376 174.866)" fill="#D9D9D9"/>
<path d="M103.277 111.425V147.403C103.277 163.883 89.7036 177.29 73.0187 177.29C67.4792 177.29 62.9904 172.856 62.9904 167.385C62.9904 161.913 67.4792 157.48 73.0187 157.48C78.6449 157.48 83.2204 152.96 83.2204 147.403V111.425" fill="#7000FF"/>
<path fill-rule="evenodd" clip-rule="evenodd" d="M103.276 109.267C102.069 109.267 101.091 110.233 101.091 111.425V147.403C101.091 162.691 88.4958 175.132 73.0177 175.132C68.6849 175.132 65.1744 171.665 65.1744 167.385C65.1744 163.105 68.6849 159.638 73.0177 159.638C79.8507 159.638 85.4044 154.152 85.4044 147.403V111.425C85.4044 110.233 84.4261 109.267 83.2194 109.267C82.0127 109.267 81.0344 110.233 81.0344 111.425V147.403C81.0344 151.769 77.4372 155.322 73.0177 155.322C66.2714 155.322 60.8044 160.721 60.8044 167.385C60.8044 174.048 66.2714 179.448 73.0177 179.448C90.9093 179.448 105.461 165.075 105.461 147.403V111.425C105.461 110.233 104.483 109.267 103.276 109.267Z" fill="#3C008A"/>
<path d="M76.0116 0C101.336 0 121.894 20.4553 121.894 45.6527V125.174H30.1244L30.1244 45.6578C30.1244 20.4604 50.6876 0 76.0116 0Z" fill="#7000FF"/>
<path fill-rule="evenodd" clip-rule="evenodd" d="M117.524 45.6527C117.524 22.8092 98.892 4.31633 76.0116 4.31633C53.1312 4.31633 34.4944 22.8143 34.4944 45.6578V120.857H117.524V45.6527ZM121.894 45.6527C121.894 20.4553 101.336 0 76.0116 0C50.6876 0 30.1244 20.4604 30.1244 45.6578V125.174H121.894V45.6527Z" fill="#3C008A"/>
<path d="M118.163 91.9558C111.24 91.9558 105.604 86.3943 105.604 79.5563V67.4987C105.604 60.6607 111.234 55.0935 118.163 55.0935C125.092 55.0935 130.716 60.655 130.716 67.4987V79.5563C130.716 86.3943 125.086 91.9558 118.163 91.9558Z" fill="white"/>
<path fill-rule="evenodd" clip-rule="evenodd" d="M118.162 94.8335C109.632 94.8335 102.69 87.9854 102.69 79.5564V67.4988C102.69 59.0725 109.624 52.2161 118.162 52.2161C126.702 52.2161 133.629 59.0676 133.629 67.4988V79.5564C133.629 87.9836 126.694 94.8335 118.162 94.8335ZM105.603 79.5564C105.603 86.3944 111.239 91.956 118.162 91.956C125.085 91.956 130.716 86.3944 130.716 79.5564V67.4988C130.716 60.6552 125.091 55.0936 118.162 55.0936C111.234 55.0936 105.603 60.6609 105.603 67.4988V79.5564Z" fill="#3C008A"/>
<path d="M118.163 56.2332C124.451 56.2332 129.563 61.2876 129.563 67.493V79.5506C129.563 85.7618 124.446 90.8105 118.157 90.8105C111.869 90.8105 106.752 85.7561 106.752 79.5506V67.493C106.752 61.2819 111.869 56.2332 118.157 56.2332M118.157 53.9539C110.588 53.9539 104.444 60.0169 104.444 67.493V79.5506C104.444 87.0325 110.583 93.0898 118.157 93.0898C125.726 93.0898 131.865 87.0268 131.865 79.5506V67.493C131.865 60.0112 125.726 53.9539 118.157 53.9539Z" fill="#3C008A"/>
<path d="M123.24 65.6407C123.24 62.8713 120.967 60.6262 118.163 60.6262C115.359 60.6262 113.086 62.8713 113.086 65.6407V73.7551C113.086 76.5246 115.359 78.7696 118.163 78.7696C120.967 78.7696 123.24 76.5246 123.24 73.7551V65.6407Z" fill="#1C1C1C"/>
<path d="M122.964 62.581C122.964 61.1165 121.758 59.9255 120.275 59.9255C118.793 59.9255 117.587 61.1165 117.587 62.581C117.587 64.0454 118.793 65.2364 120.275 65.2364C121.758 65.2364 122.964 64.0454 122.964 62.581Z" fill="white"/>
<path d="M80.2681 91.9558C73.3452 91.9558 67.7087 86.3943 67.7087 79.5563V67.4987C67.7087 60.6607 73.3394 55.0935 80.2681 55.0935C87.1968 55.0935 92.8217 60.655 92.8217 67.4987V79.5563C92.8217 86.3943 87.191 91.9558 80.2681 91.9558Z" fill="white"/>
<path fill-rule="evenodd" clip-rule="evenodd" d="M80.2711 94.8335C71.741 94.8335 64.7985 87.9854 64.7985 79.5564V67.4988C64.7985 59.0725 71.7326 52.2161 80.2711 52.2161C88.8105 52.2161 95.738 59.0676 95.738 67.4988V79.5564C95.738 87.9836 88.803 94.8335 80.2711 94.8335ZM67.7118 79.5564C67.7118 86.3944 73.3482 91.956 80.2711 91.956C87.1941 91.956 92.8247 86.3944 92.8247 79.5564V67.4988C92.8247 60.6552 87.1998 55.0936 80.2711 55.0936C73.3424 55.0936 67.7118 60.6609 67.7118 67.4988V79.5564Z" fill="#3C008A"/>
<path d="M80.2697 56.2332C86.5581 56.2332 91.6695 61.2876 91.6695 67.493V79.5506C91.6695 85.7618 86.5523 90.8105 80.264 90.8105C73.9756 90.8105 68.8584 85.7561 68.8584 79.5506V67.493C68.8584 61.2819 73.9756 56.2332 80.264 56.2332M80.264 53.9539C72.6949 53.9539 66.5508 60.0169 66.5508 67.493V79.5506C66.5508 87.0325 72.6891 93.0898 80.264 93.0898C87.833 93.0898 93.9714 87.0268 93.9714 79.5506V67.493C93.9714 60.0112 87.833 53.9539 80.264 53.9539Z" fill="#3C008A"/>
<path d="M85.3481 65.6407C85.3481 62.8713 83.0751 60.6262 80.2713 60.6262C77.4674 60.6262 75.1945 62.8713 75.1945 65.6407V73.7551C75.1945 76.5246 77.4674 78.7696 80.2713 78.7696C83.0751 78.7696 85.3481 76.5246 85.3481 73.7551V65.6407Z" fill="#1C1C1C"/>
<path d="M85.0705 62.581C85.0705 61.1165 83.8648 59.9255 82.3821 59.9255C80.8995 59.9255 79.6937 61.1165 79.6937 62.581C79.6937 64.0454 80.8995 65.2364 82.3821 65.2364C83.8648 65.2364 85.0705 64.0454 85.0705 62.581Z" fill="white"/>
<path d="M52.6921 38.8604C55.0882 38.8604 57.0306 36.9418 57.0306 34.5751C57.0306 32.2084 55.0882 30.2898 52.6921 30.2898C50.296 30.2898 48.3535 32.2084 48.3535 34.5751C48.3535 36.9418 50.296 38.8604 52.6921 38.8604Z" fill="#FEE702"/>
<path d="M63.6435 35.0915C65.4382 35.0915 66.893 33.6544 66.893 31.8818C66.893 30.1091 65.4382 28.6721 63.6435 28.6721C61.8488 28.6721 60.3939 30.1091 60.3939 31.8818C60.3939 33.6544 61.8488 35.0915 63.6435 35.0915Z" fill="#FEE702"/>
<path d="M57.7801 26.1077C59.0456 26.1077 60.0714 25.0944 60.0714 23.8445C60.0714 22.5947 59.0456 21.5814 57.7801 21.5814C56.5147 21.5814 55.4889 22.5947 55.4889 23.8445C55.4889 25.0944 56.5147 26.1077 57.7801 26.1077Z" fill="#FEE702"/>
<path fill-rule="evenodd" clip-rule="evenodd" d="M114.247 44.5882C113.657 45.6051 112.349 45.973 111.303 45.4081C110.245 44.8361 109.856 43.5248 110.435 42.479L112.352 43.5146C110.435 42.479 110.435 42.478 110.436 42.4769L110.437 42.4747L110.44 42.4702L110.445 42.4605L110.458 42.4381C110.467 42.4219 110.478 42.4032 110.491 42.3821C110.516 42.3401 110.548 42.2885 110.588 42.2289C110.666 42.1098 110.774 41.9573 110.913 41.783C111.191 41.4357 111.602 40.9928 112.167 40.5556C113.32 39.6632 115.064 38.8378 117.466 38.8474M114.247 44.5882C114.248 44.5868 114.249 44.5852 114.25 44.5834C114.263 44.5645 114.293 44.5199 114.343 44.4578C114.443 44.3323 114.614 44.1451 114.862 43.9532C115.334 43.5874 116.142 43.1583 117.449 43.1637L117.45 43.1637C119.087 43.1695 119.856 43.6417 120.182 43.9141C120.363 44.0651 120.464 44.2016 120.51 44.2742C120.522 44.2932 120.53 44.3077 120.535 44.3166C120.967 45.3847 122.179 45.9356 123.288 45.5506C124.427 45.1553 125.025 43.9234 124.625 42.7989L122.564 43.5146C124.625 42.7989 124.624 42.7974 124.624 42.7959L124.623 42.7928L124.621 42.7866L124.616 42.7732L124.605 42.7436C124.596 42.7225 124.587 42.6989 124.576 42.6728C124.555 42.6207 124.528 42.5587 124.494 42.4884C124.427 42.3479 124.334 42.1727 124.208 41.9752C123.956 41.5797 123.571 41.0917 123.003 40.6174C121.831 39.6391 120.047 38.8568 117.467 38.8474" fill="#3C008A"/>
<path fill-rule="evenodd" clip-rule="evenodd" d="M77.1019 45.3073C76.512 46.3242 75.2038 46.6921 74.158 46.1272C73.0992 45.5552 72.7103 44.2439 73.2894 43.1981L75.2064 44.2337C73.2894 43.1981 73.29 43.1971 73.2905 43.196L73.2917 43.1939L73.2943 43.1894L73.2997 43.1796L73.3125 43.1572C73.3219 43.141 73.3329 43.1223 73.3456 43.1013C73.3709 43.0592 73.4031 43.0076 73.4424 42.948C73.5209 42.8289 73.6285 42.6765 73.7678 42.5022C74.0455 42.1548 74.4562 41.7119 75.0211 41.2747C76.1742 40.3823 77.9188 39.557 80.3203 39.5665M77.1019 45.3073C77.1027 45.3059 77.1037 45.3044 77.105 45.3025C77.1174 45.2836 77.148 45.239 77.1976 45.1769C77.2979 45.0514 77.4684 44.8642 77.7164 44.6723C78.189 44.3065 78.997 43.8775 80.3033 43.8828L80.3044 43.8828C81.9416 43.8887 82.7106 44.3609 83.0369 44.6332C83.2178 44.7842 83.3182 44.9207 83.3644 44.9933C83.3766 45.0123 83.3849 45.0268 83.3898 45.0357C83.8217 46.1038 85.0339 46.6547 86.1429 46.2697C87.2813 45.8745 87.8798 44.6425 87.4796 43.518L85.4183 44.2337C87.4796 43.518 87.4791 43.5165 87.4786 43.515L87.4775 43.512L87.4752 43.5057L87.4703 43.4923L87.4592 43.4627C87.4511 43.4416 87.4417 43.418 87.431 43.3919C87.4095 43.3398 87.3824 43.2778 87.3489 43.2075C87.2819 43.067 87.1888 42.8918 87.063 42.6943C86.811 42.2988 86.4259 41.8108 85.8576 41.3365C84.6856 40.3582 82.902 39.576 80.3214 39.5665" fill="#3C008A"/>
<path fill-rule="evenodd" clip-rule="evenodd" d="M101.732 95.3244C102.322 94.3075 103.63 93.9396 104.676 94.5045C105.735 95.0765 106.124 96.3878 105.545 97.4336L103.628 96.398C105.545 97.4336 105.544 97.4346 105.544 97.4357L105.542 97.4379L105.54 97.4424L105.534 97.4521L105.522 97.4745C105.512 97.4907 105.501 97.5094 105.489 97.5305C105.463 97.5725 105.431 97.6241 105.392 97.6837C105.313 97.8028 105.206 97.9553 105.066 98.1296C104.789 98.4769 104.378 98.9198 103.813 99.357C102.66 100.249 100.915 101.075 98.514 101.065M101.732 95.3244C101.732 95.3258 101.73 95.3274 101.729 95.3292C101.717 95.3481 101.686 95.3927 101.637 95.4548C101.536 95.5803 101.366 95.7675 101.118 95.9594C100.645 96.3252 99.8372 96.7543 98.5309 96.7489L98.5298 96.7489C96.8926 96.7431 96.1236 96.2709 95.7974 95.9985C95.6164 95.8475 95.516 95.711 95.4698 95.6384C95.4577 95.6194 95.4494 95.6049 95.4445 95.596C95.0125 94.5279 93.8003 93.977 92.6914 94.362C91.5529 94.7573 90.9544 95.9892 91.3546 97.1137L93.4159 96.398C91.3546 97.1137 91.3551 97.1152 91.3557 97.1167L91.3567 97.1197L91.359 97.126L91.3639 97.1394L91.3751 97.169C91.3831 97.1901 91.3925 97.2137 91.4032 97.2398C91.4247 97.2919 91.4518 97.3539 91.4853 97.4242C91.5523 97.5647 91.6454 97.7399 91.7713 97.9374C92.0233 98.3329 92.4084 98.8209 92.9766 99.2952C94.1486 100.274 95.9322 101.056 98.5129 101.065" fill="#3C008A"/>
<path d="M99.3617 115.311V151.29C99.3617 167.77 112.935 181.176 129.62 181.176C135.159 181.176 139.648 176.743 139.648 171.271C139.648 165.8 135.159 161.366 129.62 161.366C123.994 161.366 119.418 156.847 119.418 151.29V115.311" fill="#7000FF"/>
<path fill-rule="evenodd" clip-rule="evenodd" d="M99.3621 113.153C100.569 113.153 101.547 114.119 101.547 115.311V151.29C101.547 166.578 114.142 179.018 129.62 179.018C133.953 179.018 137.464 175.551 137.464 171.271C137.464 166.992 133.953 163.524 129.62 163.524C122.787 163.524 117.234 158.039 117.234 151.29V115.311C117.234 114.119 118.212 113.153 119.419 113.153C120.625 113.153 121.604 114.119 121.604 115.311V151.29C121.604 155.655 125.201 159.208 129.62 159.208C136.367 159.208 141.834 164.608 141.834 171.271C141.834 177.935 136.367 183.335 129.62 183.335C111.729 183.335 97.1771 168.962 97.1771 151.29V115.311C97.1771 114.119 98.1554 113.153 99.3621 113.153Z" fill="#3C008A"/>
<path d="M82.4448 110.401V146.379C82.4448 162.859 96.0182 176.266 112.703 176.266C118.243 176.266 122.731 171.832 122.731 166.36C122.731 160.889 118.243 156.455 112.703 156.455C107.077 156.455 102.501 151.936 102.501 146.379V110.401" fill="#7000FF"/>
<path fill-rule="evenodd" clip-rule="evenodd" d="M82.4461 108.242C83.6528 108.242 84.6311 109.208 84.6311 110.4V146.378C84.6311 161.667 97.2262 174.107 112.704 174.107C117.037 174.107 120.548 170.64 120.548 166.36C120.548 162.08 117.037 158.613 112.704 158.613C105.871 158.613 100.318 153.127 100.318 146.378V110.4C100.318 109.208 101.296 108.242 102.503 108.242C103.709 108.242 104.688 109.208 104.688 110.4V146.378C104.688 150.744 108.285 154.297 112.704 154.297C119.451 154.297 124.918 159.697 124.918 166.36C124.918 173.024 119.451 178.423 112.704 178.423C94.8127 178.423 80.2611 164.05 80.2611 146.378V110.4C80.2611 109.208 81.2394 108.242 82.4461 108.242Z" fill="#3C008A"/>
<path d="M52.9052 112.224V148.822C52.9052 165.585 39.0972 179.223 22.1215 179.223C16.4851 179.223 11.9198 174.714 11.9198 169.147C11.9198 163.579 16.4851 159.07 22.1215 159.07C27.8447 159.07 32.5018 154.47 32.5018 148.822V112.224" fill="#7000FF"/>
<path fill-rule="evenodd" clip-rule="evenodd" d="M32.5002 110.066C33.7069 110.066 34.6852 111.033 34.6852 112.225V148.822C34.6852 155.663 29.0492 161.228 22.12 161.228C17.6903 161.228 14.1032 164.771 14.1032 169.147C14.1032 173.522 17.6903 177.065 22.12 177.065C37.8891 177.065 50.7186 164.393 50.7186 148.822V112.225H55.0886V148.822C55.0886 166.777 40.3021 181.381 22.12 181.381C15.2768 181.381 9.73328 175.906 9.73328 169.147C9.73328 162.388 15.2768 156.912 22.12 156.912C26.6371 156.912 30.3152 153.278 30.3152 148.822V112.225C30.3152 111.033 31.2935 110.066 32.5002 110.066Z" fill="#3C008A"/>
<path d="M61.2474 111.425V148.023C61.2474 164.785 47.4394 178.424 30.4638 178.424C24.8273 178.424 20.2621 173.914 20.2621 168.347C20.2621 162.78 24.8273 158.271 30.4638 158.271C36.1869 158.271 40.844 153.671 40.844 148.023V111.425" fill="#7000FF"/>
<path fill-rule="evenodd" clip-rule="evenodd" d="M40.8431 109.267C42.0498 109.267 43.0281 110.233 43.0281 111.425V148.023C43.0281 154.863 37.3921 160.429 30.4629 160.429C26.0332 160.429 22.4461 163.972 22.4461 168.347C22.4461 172.722 26.0332 176.265 30.4629 176.265C46.232 176.265 59.0615 163.593 59.0615 148.023V111.425C59.0615 110.233 60.0398 109.267 61.2465 109.267C62.4532 109.267 63.4315 110.233 63.4315 111.425V148.023C63.4315 165.977 48.645 180.582 30.4629 180.582C23.6197 180.582 18.0762 175.106 18.0762 168.347C18.0762 161.588 23.6197 156.112 30.4629 156.112C34.98 156.112 38.6581 152.478 38.6581 148.023V111.425C38.6581 110.233 39.6364 109.267 40.8431 109.267Z" fill="#3C008A"/>
<path d="M82.6033 111.425V147.403C82.6033 163.883 69.0299 177.29 52.345 177.29C46.8055 177.29 42.3167 172.856 42.3167 167.385C42.3167 161.913 46.8055 157.48 52.345 157.48C57.9712 157.48 62.5467 152.96 62.5467 147.403V111.425" fill="#7000FF"/>
<path fill-rule="evenodd" clip-rule="evenodd" d="M82.6022 109.267C81.3955 109.267 80.4173 110.233 80.4173 111.425V147.403C80.4173 162.691 67.8221 175.132 52.344 175.132C48.0112 175.132 44.5007 171.665 44.5007 167.385C44.5007 163.105 48.0112 159.638 52.344 159.638C59.177 159.638 64.7307 154.152 64.7307 147.403V111.425C64.7307 110.233 63.7524 109.267 62.5457 109.267C61.339 109.267 60.3607 110.233 60.3607 111.425V147.403C60.3607 151.769 56.7635 155.322 52.344 155.322C45.5977 155.322 40.1307 160.721 40.1307 167.385C40.1307 174.048 45.5977 179.448 52.344 179.448C70.2356 179.448 84.7872 165.075 84.7872 147.403V111.425C84.7872 110.233 83.809 109.267 82.6022 109.267Z" fill="#3C008A"/>
</svg>
