<svg width="146" height="127" viewBox="0 0 146 127" fill="none" xmlns="http://www.w3.org/2000/svg">
<path d="M62.8756 81.5737L39.1665 74.1019C28.3063 70.6793 22.3087 59.106 25.7964 48.3022C26.9544 44.7152 30.8144 42.7295 34.4201 43.8658C38.0257 45.0021 40.0092 48.8294 38.8512 52.4164C37.6751 56.0595 39.6969 59.9607 43.359 61.1148L67.0681 68.5867" fill="#7000FF"/>
<path fill-rule="evenodd" clip-rule="evenodd" d="M68.49 69.0358C68.7422 68.2545 68.31 67.4204 67.5246 67.1729L43.8163 59.7015C40.9398 58.795 39.3503 55.728 40.2741 52.8664C41.6843 48.4984 39.2687 43.8372 34.8777 42.4535C30.4868 41.0697 25.7857 43.4881 24.3755 47.8562C20.6357 59.4406 27.0653 71.8473 38.7105 75.5172L62.4188 82.9886L63.3322 80.1591L39.624 72.6877C29.5496 69.5129 23.9845 58.7743 27.2198 48.7525C28.1255 45.9471 31.1442 44.3942 33.9643 45.2829C36.7844 46.1717 38.3355 49.1647 37.4298 51.9701C36.0016 56.3943 38.4555 61.1294 42.9029 62.5309L66.6111 70.0024C67.3966 70.2499 68.2378 69.8171 68.49 69.0358Z" fill="#3C008A"/>
<rect width="3.53005" height="12.8992" rx="1.76502" transform="matrix(0.979983 0.21018 -0.21452 0.974387 33.5198 36.7898)" fill="#D9D9D9"/>
<path d="M38.8947 49.7577C38.7791 51.3306 37.7554 54.422 32.8105 52.7524C30.068 51.8264 30.3208 48.0927 34.3222 49.1269" stroke="#3C008A" stroke-width="2.5" stroke-linecap="round"/>
<path d="M55.4499 27.7642C56.1562 30.5223 55.3263 33.4506 53.2727 35.4461L46.5541 41.9746C44.5004 43.9701 41.5349 44.7296 38.7748 43.9668L29.746 41.4717C26.9859 40.7089 24.8504 38.5398 24.144 35.7815L21.8333 26.7577C21.1269 23.9996 21.9569 21.0713 24.0105 19.0758L30.7291 12.5473C32.7828 10.5518 35.7482 9.79232 38.5084 10.5551L47.5372 13.0502C50.2973 13.813 52.4328 15.9821 53.1391 18.7404L55.4499 27.7642Z" fill="#3C008A"/>
<path d="M52.0293 27.8542C52.559 29.9228 51.9365 32.119 50.3964 33.6156L44.7759 39.077C43.2357 40.5737 41.0116 41.1433 38.9414 40.5712L31.3884 38.4839C29.3183 37.9118 27.7167 36.285 27.1869 34.2162L25.2538 26.6674C24.7241 24.5988 25.3466 22.4026 26.8867 20.906L32.5072 15.4446C34.0474 13.9479 36.2715 13.3783 38.3417 13.9504L45.8947 16.0377C47.9648 16.6098 49.5664 18.2366 50.0962 20.3054L52.0293 27.8542Z" fill="white"/>
<path d="M40.3446 28.9498L36.4913 27.8857L35.8554 30.131L39.7088 31.1951L40.3446 28.9498ZM41.5513 33.1825L40.8858 23.1269L38.4386 22.4511L32.8846 30.7892L35.3454 31.4687L39.6739 24.5752L38.7004 24.3064L39.1041 32.5067L41.5513 33.1825Z" fill="#3C008A"/>
<path d="M75.1514 76.4919V101.19C75.1514 112.504 84.435 121.707 95.8469 121.707C99.6357 121.707 102.706 118.664 102.706 114.908C102.706 111.151 99.6357 108.108 95.8469 108.108C91.9987 108.108 88.8693 105.005 88.8693 101.19V76.4919" fill="#7000FF"/>
<path fill-rule="evenodd" clip-rule="evenodd" d="M75.1522 75.0103C75.9775 75.0103 76.6466 75.6736 76.6466 76.4918V101.19C76.6466 111.685 85.2612 120.226 95.8477 120.226C98.8111 120.226 101.212 117.845 101.212 114.907C101.212 111.97 98.8111 109.589 95.8477 109.589C91.1742 109.589 87.3756 105.823 87.3756 101.19V76.4918C87.3756 75.6736 88.0447 75.0103 88.8701 75.0103C89.6954 75.0103 90.3645 75.6736 90.3645 76.4918V101.19C90.3645 104.187 92.8249 106.626 95.8477 106.626C100.462 106.626 104.201 110.333 104.201 114.907C104.201 119.482 100.462 123.189 95.8477 123.189C83.6105 123.189 73.6577 113.322 73.6577 101.19V76.4918C73.6577 75.6736 74.3268 75.0103 75.1522 75.0103Z" fill="#3C008A"/>
<path d="M93.7999 0C76.4793 0 62.4183 14.0423 62.4183 31.34V85.93H125.185L125.185 31.3435C125.185 14.0458 111.121 0 93.7999 0Z" fill="#7000FF"/>
<path fill-rule="evenodd" clip-rule="evenodd" d="M65.4072 31.34C65.4072 15.6582 78.1506 2.9631 93.7999 2.9631C109.449 2.9631 122.196 15.6617 122.196 31.3435V82.9669H65.4072V31.34ZM62.4183 31.34C62.4183 14.0423 76.4793 0 93.7999 0C111.121 0 125.185 14.0458 125.185 31.3435V85.93H62.4183V31.34Z" fill="#3C008A"/>
<path d="M64.9701 63.1265C69.7051 63.1265 73.5602 59.3086 73.5602 54.6144V46.3371C73.5602 41.6429 69.709 37.821 64.9701 37.821C60.2311 37.821 56.3839 41.639 56.3839 46.3371V54.6144C56.3839 59.3086 60.235 63.1265 64.9701 63.1265Z" fill="white"/>
<path fill-rule="evenodd" clip-rule="evenodd" d="M64.9705 65.102C70.8048 65.102 75.5532 60.4008 75.5532 54.6145V46.3371C75.5532 40.5525 70.8106 35.8457 64.9705 35.8457C59.1299 35.8457 54.3917 40.5492 54.3917 46.3371V54.6145C54.3917 60.3997 59.135 65.102 64.9705 65.102ZM73.5606 54.6145C73.5606 59.3087 69.7055 63.1266 64.9705 63.1266C60.2355 63.1266 56.3843 59.3087 56.3843 54.6145V46.3371C56.3843 41.639 60.2315 37.8211 64.9705 37.8211C69.7095 37.8211 73.5606 41.6429 73.5606 46.3371V54.6145Z" fill="#3C008A"/>
<path d="M64.9699 38.6035C60.6689 38.6035 57.1729 42.0733 57.1729 46.3333V54.6107C57.1729 58.8745 60.6729 62.3404 64.9739 62.3404C69.2748 62.3404 72.7748 58.8706 72.7748 54.6107V46.3333C72.7748 42.0694 69.2748 38.6035 64.9739 38.6035M64.9739 37.0388C70.1508 37.0388 74.3531 41.201 74.3531 46.3333V54.6107C74.3531 59.7469 70.1548 63.9051 64.9739 63.9051C59.7969 63.9051 55.5985 59.743 55.5985 54.6107V46.3333C55.5985 41.1971 59.7969 37.0388 64.9739 37.0388Z" fill="#3C008A"/>
<path d="M61.4977 45.0615C61.4977 43.1604 63.0523 41.6191 64.97 41.6191C66.8878 41.6191 68.4424 43.1604 68.4424 45.0615V50.632C68.4424 52.5331 66.8878 54.0743 64.97 54.0743C63.0523 54.0743 61.4977 52.5331 61.4977 50.632V45.0615Z" fill="#1C1C1C"/>
<path d="M61.6866 42.9611C61.6866 41.9558 62.5113 41.1382 63.5254 41.1382C64.5395 41.1382 65.3641 41.9558 65.3641 42.9611C65.3641 43.9664 64.5395 44.784 63.5254 44.784C62.5113 44.784 61.6866 43.9664 61.6866 42.9611Z" fill="white"/>
<path d="M90.8885 63.1265C95.6235 63.1265 99.4786 59.3086 99.4786 54.6144V46.3371C99.4786 41.6429 95.6275 37.821 90.8885 37.821C86.1495 37.821 82.3023 41.639 82.3023 46.3371V54.6144C82.3023 59.3086 86.1535 63.1265 90.8885 63.1265Z" fill="white"/>
<path fill-rule="evenodd" clip-rule="evenodd" d="M90.8865 65.102C96.7208 65.102 101.469 60.4008 101.469 54.6145V46.3371C101.469 40.5525 96.7266 35.8457 90.8865 35.8457C85.0459 35.8457 80.3077 40.5492 80.3077 46.3371V54.6145C80.3077 60.3997 85.051 65.102 90.8865 65.102ZM99.4766 54.6145C99.4766 59.3087 95.6215 63.1266 90.8865 63.1266C86.1515 63.1266 82.3003 59.3087 82.3003 54.6145V46.3371C82.3003 41.639 86.1475 37.8211 90.8865 37.8211C95.6255 37.8211 99.4766 41.6429 99.4766 46.3371V54.6145Z" fill="#3C008A"/>
<path d="M90.8875 38.6035C86.5865 38.6035 83.0905 42.0733 83.0905 46.3333V54.6107C83.0905 58.8745 86.5905 62.3404 90.8915 62.3404C95.1924 62.3404 98.6924 58.8706 98.6924 54.6107V46.3333C98.6924 42.0694 95.1924 38.6035 90.8915 38.6035M90.8915 37.0388C96.0684 37.0388 100.271 41.201 100.271 46.3333V54.6107C100.271 59.7469 96.0724 63.9051 90.8915 63.9051C85.7145 63.9051 81.5161 59.743 81.5161 54.6107V46.3333C81.5161 41.1971 85.7145 37.0388 90.8915 37.0388Z" fill="#3C008A"/>
<path d="M87.4142 45.0615C87.4142 43.1604 88.9688 41.6191 90.8865 41.6191C92.8043 41.6191 94.3589 43.1604 94.3589 45.0615V50.632C94.3589 52.5331 92.8043 54.0743 90.8865 54.0743C88.9688 54.0743 87.4142 52.5331 87.4142 50.632V45.0615Z" fill="#1C1C1C"/>
<path d="M87.604 42.9611C87.604 41.9558 88.4286 41.1382 89.4427 41.1382C90.4568 41.1382 91.2815 41.9558 91.2815 42.9611C91.2815 43.9664 90.4568 44.784 89.4427 44.784C88.4286 44.784 87.604 43.9664 87.604 42.9611Z" fill="white"/>
<path d="M109.75 26.6772C108.111 26.6772 106.782 25.3601 106.782 23.7354C106.782 22.1107 108.111 20.7936 109.75 20.7936C111.388 20.7936 112.717 22.1107 112.717 23.7354C112.717 25.3601 111.388 26.6772 109.75 26.6772Z" fill="#FEE702"/>
<path d="M102.259 24.0899C101.032 24.0899 100.037 23.1034 100.037 21.8865C100.037 20.6696 101.032 19.6831 102.259 19.6831C103.487 19.6831 104.482 20.6696 104.482 21.8865C104.482 23.1034 103.487 24.0899 102.259 24.0899Z" fill="#FEE702"/>
<path d="M106.27 17.9226C105.404 17.9226 104.702 17.2271 104.702 16.369C104.702 15.511 105.404 14.8154 106.27 14.8154C107.135 14.8154 107.837 15.511 107.837 16.369C107.837 17.2271 107.135 17.9226 106.27 17.9226Z" fill="#FEE702"/>
<path fill-rule="evenodd" clip-rule="evenodd" d="M67.6482 30.6091C68.0516 31.3072 68.9464 31.5598 69.6617 31.172C70.3858 30.7794 70.6518 29.8791 70.2558 29.1612L68.9446 29.8721C70.2558 29.1612 70.2554 29.1605 70.255 29.1598L70.2542 29.1583L70.2524 29.1552L70.2487 29.1485L70.2399 29.1331C70.2335 29.122 70.226 29.1092 70.2173 29.0947C70.2 29.0658 70.178 29.0305 70.1511 28.9895C70.0974 28.9078 70.0238 28.8031 69.9285 28.6834C69.7386 28.445 69.4577 28.141 69.0713 27.8408C68.2826 27.2282 67.0894 26.6616 65.4469 26.6681M67.6482 30.6091C67.6476 30.6082 67.6469 30.6071 67.646 30.6058C67.6375 30.5929 67.6166 30.5623 67.5827 30.5196C67.5141 30.4335 67.3975 30.305 67.2279 30.1732C66.9046 29.9221 66.3519 29.6276 65.4585 29.6312L65.4577 29.6312C64.338 29.6353 63.812 29.9594 63.5889 30.1464C63.4651 30.25 63.3964 30.3437 63.3648 30.3936C63.3565 30.4066 63.3508 30.4166 63.3475 30.4227C63.052 31.1559 62.2229 31.5341 61.4645 31.2698C60.6858 30.9985 60.2765 30.1527 60.5502 29.3808L61.96 29.8721C60.5502 29.3808 60.5505 29.3798 60.5509 29.3788L60.5516 29.3767L60.5532 29.3723L60.5565 29.3632L60.5642 29.3428C60.5697 29.3284 60.5761 29.3121 60.5834 29.2942C60.5981 29.2585 60.6167 29.2159 60.6396 29.1676C60.6854 29.0712 60.7491 28.9509 60.8352 28.8153C61.0075 28.5438 61.2709 28.2089 61.6596 27.8832C62.4612 27.2116 63.6811 26.6746 65.4462 26.6681" fill="#3C008A"/>
<path fill-rule="evenodd" clip-rule="evenodd" d="M93.0542 31.1029C93.4576 31.801 94.3524 32.0536 95.0677 31.6657C95.7918 31.2731 96.0578 30.3729 95.6618 29.655L94.3506 30.3659C95.6618 29.655 95.6614 29.6543 95.661 29.6535L95.6602 29.6521L95.6584 29.649L95.6547 29.6423L95.6459 29.6269C95.6395 29.6158 95.632 29.6029 95.6233 29.5885C95.606 29.5596 95.584 29.5242 95.5571 29.4833C95.5034 29.4016 95.4298 29.2969 95.3345 29.1772C95.1446 28.9388 94.8637 28.6347 94.4773 28.3346C93.6886 27.722 92.4954 27.1554 90.8529 27.1619M93.0542 31.1029C93.0536 31.102 93.0529 31.1009 93.0521 31.0996C93.0435 31.0866 93.0226 31.056 92.9887 31.0134C92.9201 30.9273 92.8035 30.7987 92.6339 30.667C92.3106 30.4159 91.758 30.1213 90.8645 30.125L90.8637 30.125C89.744 30.129 89.218 30.4532 88.9949 30.6401C88.8711 30.7438 88.8024 30.8375 88.7708 30.8873C88.7625 30.9004 88.7568 30.9104 88.7535 30.9165C88.4581 31.6497 87.6289 32.0279 86.8705 31.7636C86.0918 31.4923 85.6825 30.6465 85.9562 29.8746L87.3661 30.3659C85.9562 29.8746 85.9565 29.8736 85.9569 29.8725L85.9576 29.8704L85.9592 29.8661L85.9625 29.857L85.9702 29.8366C85.9757 29.8222 85.9821 29.8059 85.9894 29.788C86.0041 29.7522 86.0227 29.7097 86.0456 29.6614C86.0914 29.565 86.1551 29.4447 86.2412 29.3091C86.4135 29.0376 86.6769 28.7026 87.0656 28.377C87.8672 27.7054 89.0871 27.1684 90.8522 27.1619" fill="#3C008A"/>
<path fill-rule="evenodd" clip-rule="evenodd" d="M76.2079 65.4389C75.8044 64.7407 74.9097 64.4882 74.1944 64.876C73.4703 65.2686 73.2043 66.1689 73.6003 66.8868L74.9115 66.1759C73.6003 66.8868 73.6007 66.8875 73.6011 66.8882L73.6019 66.8897L73.6037 66.8928L73.6074 66.8995L73.6162 66.9149C73.6226 66.926 73.6301 66.9388 73.6388 66.9533C73.6561 66.9821 73.6781 67.0175 73.705 67.0585C73.7586 67.1402 73.8323 67.2449 73.9275 67.3645C74.1175 67.603 74.3984 67.907 74.7848 68.2072C75.5734 68.8198 76.7667 69.3864 78.4092 69.3798M76.2079 65.4389C76.2085 65.4398 76.2092 65.4409 76.21 65.4421C76.2186 65.4551 76.2394 65.4857 76.2734 65.5284C76.342 65.6145 76.4586 65.743 76.6282 65.8748C76.9515 66.1259 77.5041 66.4204 78.3976 66.4167L78.3983 66.4167C79.5181 66.4127 80.0441 66.0886 80.2672 65.9016C80.391 65.7979 80.4596 65.7042 80.4913 65.6544C80.4996 65.6413 80.5052 65.6314 80.5086 65.6253C80.804 64.892 81.6331 64.5138 82.3916 64.7781C83.1703 65.0495 83.5796 65.8952 83.3059 66.6672L81.896 66.1759C83.3059 66.6672 83.3055 66.6682 83.3052 66.6692L83.3044 66.6713L83.3029 66.6756L83.2995 66.6848L83.2919 66.7051C83.2864 66.7196 83.28 66.7358 83.2726 66.7537C83.2579 66.7895 83.2394 66.8321 83.2165 66.8803C83.1707 66.9768 83.107 67.097 83.0209 67.2326C82.8486 67.5042 82.5852 67.8391 82.1965 68.1648C81.3949 68.8363 80.175 69.3733 78.4099 69.3798" fill="#3C008A"/>
<path d="M77.8293 79.1597V103.858C77.8293 115.172 68.5457 124.375 57.1338 124.375C53.345 124.375 50.2749 121.331 50.2749 117.575C50.2749 113.819 53.345 110.776 57.1338 110.776C60.982 110.776 64.1114 107.673 64.1114 103.858V79.1597" fill="#7000FF"/>
<path fill-rule="evenodd" clip-rule="evenodd" d="M77.829 77.6782C77.0037 77.6782 76.3346 78.3415 76.3346 79.1598V103.858C76.3346 114.353 67.72 122.894 57.1335 122.894C54.1701 122.894 51.769 120.513 51.769 117.575C51.769 114.638 54.1701 112.257 57.1335 112.257C61.807 112.257 65.6056 108.491 65.6056 103.858V79.1598C65.6056 78.3415 64.9365 77.6782 64.1111 77.6782C63.2858 77.6782 62.6167 78.3415 62.6167 79.1598V103.858C62.6167 106.855 60.1563 109.294 57.1335 109.294C52.5193 109.294 48.7801 113.001 48.7801 117.575C48.7801 122.15 52.5193 125.857 57.1335 125.857C69.3707 125.857 79.3235 115.99 79.3235 103.858V79.1598C79.3235 78.3415 78.6544 77.6782 77.829 77.6782Z" fill="#3C008A"/>
<path d="M89.3999 75.7886V100.487C89.3999 111.8 80.1162 121.004 68.7044 121.004C64.9156 121.004 61.8454 117.96 61.8454 114.204C61.8454 110.448 64.9156 107.404 68.7044 107.404C72.5525 107.404 75.682 104.302 75.682 100.487V75.7886" fill="#7000FF"/>
<path fill-rule="evenodd" clip-rule="evenodd" d="M89.399 74.3066C88.5736 74.3066 87.9045 74.97 87.9045 75.7882V100.487C87.9045 110.982 79.29 119.522 68.7035 119.522C65.74 119.522 63.339 117.142 63.339 114.204C63.339 111.266 65.74 108.886 68.7035 108.886C73.377 108.886 77.1755 105.12 77.1755 100.487V75.7882C77.1755 74.97 76.5064 74.3066 75.6811 74.3066C74.8557 74.3066 74.1866 74.97 74.1866 75.7882V100.487C74.1866 103.483 71.7262 105.923 68.7035 105.923C64.0893 105.923 60.3501 109.629 60.3501 114.204C60.3501 118.778 64.0893 122.485 68.7035 122.485C80.9407 122.485 90.8934 112.618 90.8934 100.487V75.7882C90.8934 74.97 90.2243 74.3066 89.399 74.3066Z" fill="#3C008A"/>
<path d="M109.604 77.0405V102.164C109.604 113.672 119.048 123.034 130.659 123.034C134.514 123.034 137.636 119.939 137.636 116.117C137.636 112.295 134.514 109.199 130.659 109.199C126.744 109.199 123.559 106.042 123.559 102.164V77.0405" fill="#7000FF"/>
<path fill-rule="evenodd" clip-rule="evenodd" d="M123.56 75.5591C122.735 75.5591 122.066 76.2224 122.066 77.0406V102.165C122.066 106.86 125.921 110.681 130.66 110.681C133.69 110.681 136.143 113.113 136.143 116.117C136.143 119.121 133.69 121.553 130.66 121.553C119.874 121.553 111.099 112.853 111.099 102.165V77.0406H108.111V102.165C108.111 114.49 118.224 124.516 130.66 124.516C135.34 124.516 139.132 120.757 139.132 116.117C139.132 111.477 135.34 107.718 130.66 107.718C127.57 107.718 125.055 105.223 125.055 102.165V77.0406C125.055 76.2224 124.385 75.5591 123.56 75.5591Z" fill="#3C008A"/>
<path d="M103.898 76.4917V101.616C103.898 113.123 113.342 122.485 124.953 122.485C128.808 122.485 131.93 119.39 131.93 115.568C131.93 111.746 128.808 108.651 124.953 108.651C121.038 108.651 117.853 105.493 117.853 101.616V76.4917" fill="#7000FF"/>
<path fill-rule="evenodd" clip-rule="evenodd" d="M117.854 75.0103C117.028 75.0103 116.359 75.6736 116.359 76.4918V101.616C116.359 106.312 120.214 110.132 124.954 110.132C127.983 110.132 130.437 112.564 130.437 115.568C130.437 118.572 127.983 121.004 124.954 121.004C114.168 121.004 105.393 112.304 105.393 101.616V76.4918C105.393 75.6736 104.724 75.0103 103.899 75.0103C103.073 75.0103 102.404 75.6736 102.404 76.4918V101.616C102.404 113.941 112.518 123.967 124.954 123.967C129.634 123.967 133.426 120.208 133.426 115.568C133.426 110.928 129.634 107.169 124.954 107.169C121.864 107.169 119.348 104.674 119.348 101.616V76.4918C119.348 75.6736 118.679 75.0103 117.854 75.0103Z" fill="#3C008A"/>
<path d="M89.2915 76.4919V101.19C89.2915 112.504 98.5752 121.707 109.987 121.707C113.776 121.707 116.846 118.664 116.846 114.908C116.846 111.151 113.776 108.108 109.987 108.108C106.139 108.108 103.009 105.005 103.009 101.19V76.4919" fill="#7000FF"/>
<path fill-rule="evenodd" clip-rule="evenodd" d="M89.2922 75.0103C90.1175 75.0103 90.7866 75.6736 90.7866 76.4918V101.19C90.7866 111.685 99.4012 120.226 109.988 120.226C112.951 120.226 115.352 117.845 115.352 114.907C115.352 111.97 112.951 109.589 109.988 109.589C105.314 109.589 101.516 105.823 101.516 101.19V76.4918C101.516 75.6736 102.185 75.0103 103.01 75.0103C103.835 75.0103 104.505 75.6736 104.505 76.4918V101.19C104.505 104.187 106.965 106.626 109.988 106.626C114.602 106.626 118.341 110.333 118.341 114.907C118.341 119.482 114.602 123.189 109.988 123.189C97.7505 123.189 87.7977 113.322 87.7977 101.19V76.4918C87.7977 75.6736 88.4668 75.0103 89.2922 75.0103Z" fill="#3C008A"/>
</svg>
