<svg width="122" height="82" viewBox="0 0 122 82" fill="none" xmlns="http://www.w3.org/2000/svg">
<path d="M76.5679 85.6152L52.2993 91.132C41.1828 93.659 30.0526 86.7353 27.4874 75.6974C26.6357 72.0328 28.9362 68.3834 32.627 67.5444C36.3178 66.7054 39.9985 68.9951 40.8502 72.6598C41.7152 76.3818 45.4671 78.7157 49.2157 77.8636L73.4843 72.3468" fill="#7000FF"/>
<path fill-rule="evenodd" clip-rule="evenodd" d="M74.9408 72.0168C74.7553 71.2185 73.9531 70.7195 73.1491 70.9023L48.881 76.4189C45.9365 77.0882 42.9868 75.2534 42.3073 72.3298C41.2701 67.8669 36.7873 65.0783 32.2926 66.1C27.7979 67.1218 24.996 71.5663 26.0332 76.0292C28.7839 87.865 40.7161 95.2874 52.6364 92.5777L76.9046 87.0611L76.2327 84.1703L51.9645 89.6869C41.6522 92.0311 31.3244 85.6066 28.9447 75.3673C28.2786 72.5011 30.0777 69.6471 32.9644 68.9909C35.8511 68.3347 38.7297 70.1253 39.3958 72.9916C40.4464 77.5118 45.0004 80.3446 49.5528 79.3098L73.821 73.7932C74.625 73.6104 75.1263 72.8151 74.9408 72.0168Z" fill="#3C008A"/>
<rect width="3.55089" height="12.8669" rx="1.77544" transform="matrix(0.949823 -0.312787 0.317707 0.948189 28.2372 61.9136)" fill="#D9D9D9"/>
<path d="M39.5427 70.3567C40.2535 71.766 40.9643 74.9369 35.8436 75.9939C33.0036 76.5801 31.2977 73.2458 35.278 72.1183" stroke="#3C008A" stroke-width="2.5" stroke-linecap="round"/>
<path d="M42.4788 43.0481C44.5256 45.0773 45.3271 48.0427 44.5779 50.8145L42.1565 59.7734C41.4146 62.5183 39.2643 64.657 36.511 65.3884L27.3733 67.8157C24.62 68.5471 21.6791 67.7608 19.6522 65.7514L13.0368 59.193C10.99 57.1639 10.1885 54.1985 10.9377 51.4266L13.3591 42.4678C14.101 39.7228 16.2513 37.5841 19.0046 36.8527L28.1423 34.4254C30.8956 33.6941 33.8365 34.4803 35.8634 36.4898L42.4788 43.0481Z" fill="#3C008A"/>
<path d="M39.5836 44.8576C41.1187 46.3794 41.7198 48.6035 41.1579 50.6824L39.1315 58.1798C38.5751 60.2385 36.9623 61.8425 34.8973 62.3911L27.259 64.4201C25.194 64.9686 22.9884 64.3789 21.4682 62.8718L15.9319 57.3833C14.3968 55.8615 13.7957 53.6374 14.3576 51.5585L16.384 44.0611C16.9404 42.0024 18.5532 40.3984 20.6182 39.8498L28.2564 37.8208C30.3214 37.2723 32.5271 37.862 34.0473 39.3691L39.5836 44.8576Z" fill="white"/>
<path d="M20.76 53.8324L24.6028 52.7587L25.2422 55.0076L21.3993 56.0813L20.76 53.8324ZM19.565 58.0765L20.2075 47.998L22.648 47.3161L28.208 55.6616L25.754 56.3473L21.42 49.4471L22.3908 49.1759L22.0056 57.3946L19.565 58.0765ZM31.2113 53.5579L29.2703 46.7304L31.7243 46.0448L33.6653 52.8722L31.2113 53.5579ZM28.4492 51.9312L27.7716 49.5476L34.4999 47.6677L35.1775 50.0513L28.4492 51.9312Z" fill="#3C008A"/>
<path d="M74.8005 76.5291V101.228C74.8005 112.541 84.0842 121.744 95.496 121.744C99.2848 121.744 102.355 118.701 102.355 114.945C102.355 111.189 99.2848 108.145 95.496 108.145C91.6479 108.145 88.5184 105.042 88.5184 101.228V76.5291" fill="#7000FF"/>
<path fill-rule="evenodd" clip-rule="evenodd" d="M74.8011 75.0474C75.6265 75.0474 76.2956 75.7107 76.2956 76.5289V101.227C76.2956 111.723 84.9102 120.263 95.4967 120.263C98.4601 120.263 100.861 117.882 100.861 114.945C100.861 112.007 98.4601 109.626 95.4967 109.626C90.8232 109.626 87.0246 105.861 87.0246 101.227V76.5289C87.0246 75.7107 87.6937 75.0474 88.5191 75.0474C89.3444 75.0474 90.0135 75.7107 90.0135 76.5289V101.227C90.0135 104.224 92.4739 106.663 95.4967 106.663C100.111 106.663 103.85 110.37 103.85 114.945C103.85 119.519 100.111 123.226 95.4967 123.226C83.2595 123.226 73.3067 113.359 73.3067 101.227V76.5289C73.3067 75.7107 73.9758 75.0474 74.8011 75.0474Z" fill="#3C008A"/>
<path d="M93.449 0.0371094C76.1283 0.0371094 62.0674 14.0794 62.0674 31.3771V85.9671H124.834L124.834 31.3806C124.834 14.0829 110.77 0.0371094 93.449 0.0371094Z" fill="#7000FF"/>
<path fill-rule="evenodd" clip-rule="evenodd" d="M65.0563 31.3771C65.0563 15.6953 77.7997 3.00021 93.449 3.00021C109.098 3.00021 121.845 15.6988 121.845 31.3806V83.004H65.0563V31.3771ZM62.0674 31.3771C62.0674 14.0794 76.1283 0.0371094 93.449 0.0371094C110.77 0.0371094 124.834 14.0829 124.834 31.3806V85.9671H62.0674V31.3771Z" fill="#3C008A"/>
<path d="M64.6191 63.1637C69.3541 63.1637 73.2092 59.3457 73.2092 54.6515V46.3742C73.2092 41.68 69.3581 37.8582 64.6191 37.8582C59.8801 37.8582 56.0329 41.6761 56.0329 46.3742V54.6515C56.0329 59.3457 59.8841 63.1637 64.6191 63.1637Z" fill="white"/>
<path fill-rule="evenodd" clip-rule="evenodd" d="M64.6195 65.1391C70.4538 65.1391 75.2022 60.4379 75.2022 54.6516V46.3742C75.2022 40.5897 70.4595 35.8828 64.6195 35.8828C58.7788 35.8828 54.0407 40.5863 54.0407 46.3742V54.6516C54.0407 60.4368 58.784 65.1391 64.6195 65.1391ZM73.2096 54.6516C73.2096 59.3458 69.3545 63.1637 64.6195 63.1637C59.8845 63.1637 56.0333 59.3458 56.0333 54.6516V46.3742C56.0333 41.6761 59.8805 37.8582 64.6195 37.8582C69.3585 37.8582 73.2096 41.68 73.2096 46.3742V54.6516Z" fill="#3C008A"/>
<path d="M64.6189 38.6407C60.3179 38.6407 56.8219 42.1104 56.8219 46.3704V54.6478C56.8219 58.9117 60.3219 62.3775 64.6228 62.3775C68.9238 62.3775 72.4238 58.9077 72.4238 54.6478V46.3704C72.4238 42.1065 68.9238 38.6407 64.6228 38.6407M64.6228 37.0759C69.7998 37.0759 74.0021 41.2381 74.0021 46.3704V54.6478C74.0021 59.784 69.8037 63.9422 64.6228 63.9422C59.4459 63.9422 55.2475 59.7801 55.2475 54.6478V46.3704C55.2475 41.2342 59.4459 37.0759 64.6228 37.0759Z" fill="#3C008A"/>
<path d="M61.1466 45.0986C61.1466 43.1975 62.7012 41.6562 64.619 41.6562C66.5367 41.6562 68.0913 43.1975 68.0913 45.0986V50.6691C68.0913 52.5702 66.5367 54.1115 64.619 54.1115C62.7012 54.1115 61.1466 52.5702 61.1466 50.6691V45.0986Z" fill="#1C1C1C"/>
<path d="M61.3355 42.9982C61.3355 41.9929 62.1602 41.1753 63.1743 41.1753C64.1884 41.1753 65.0131 41.9929 65.0131 42.9982C65.0131 44.0035 64.1884 44.8211 63.1743 44.8211C62.1602 44.8211 61.3355 44.0035 61.3355 42.9982Z" fill="white"/>
<path d="M90.5376 63.1637C95.2726 63.1637 99.1277 59.3457 99.1277 54.6515V46.3742C99.1277 41.68 95.2766 37.8582 90.5376 37.8582C85.7986 37.8582 81.9514 41.6761 81.9514 46.3742V54.6515C81.9514 59.3457 85.8026 63.1637 90.5376 63.1637Z" fill="white"/>
<path fill-rule="evenodd" clip-rule="evenodd" d="M90.5356 65.1391C96.3699 65.1391 101.118 60.4379 101.118 54.6516V46.3742C101.118 40.5897 96.3756 35.8828 90.5356 35.8828C84.6949 35.8828 79.9568 40.5863 79.9568 46.3742V54.6516C79.9568 60.4368 84.7001 65.1391 90.5356 65.1391ZM99.1257 54.6516C99.1257 59.3458 95.2706 63.1637 90.5356 63.1637C85.8005 63.1637 81.9494 59.3458 81.9494 54.6516V46.3742C81.9494 41.6761 85.7966 37.8582 90.5356 37.8582C95.2745 37.8582 99.1257 41.68 99.1257 46.3742V54.6516Z" fill="#3C008A"/>
<path d="M90.5365 38.6407C86.2355 38.6407 82.7395 42.1104 82.7395 46.3704V54.6478C82.7395 58.9117 86.2395 62.3775 90.5404 62.3775C94.8414 62.3775 98.3414 58.9077 98.3414 54.6478V46.3704C98.3414 42.1065 94.8414 38.6407 90.5404 38.6407M90.5404 37.0759C95.7174 37.0759 99.9197 41.2381 99.9197 46.3704V54.6478C99.9197 59.784 95.7214 63.9422 90.5404 63.9422C85.3635 63.9422 81.1651 59.7801 81.1651 54.6478V46.3704C81.1651 41.2342 85.3635 37.0759 90.5404 37.0759Z" fill="#3C008A"/>
<path d="M87.0632 45.0986C87.0632 43.1975 88.6178 41.6562 90.5355 41.6562C92.4533 41.6562 94.0079 43.1975 94.0079 45.0986V50.6691C94.0079 52.5702 92.4533 54.1115 90.5355 54.1115C88.6178 54.1115 87.0632 52.5702 87.0632 50.6691V45.0986Z" fill="#1C1C1C"/>
<path d="M87.2529 42.9982C87.2529 41.9929 88.0776 41.1753 89.0917 41.1753C90.1058 41.1753 90.9305 41.9929 90.9305 42.9982C90.9305 44.0035 90.1058 44.8211 89.0917 44.8211C88.0776 44.8211 87.2529 44.0035 87.2529 42.9982Z" fill="white"/>
<path d="M109.399 26.7144C107.76 26.7144 106.431 25.3973 106.431 23.7726C106.431 22.1479 107.76 20.8308 109.399 20.8308C111.037 20.8308 112.366 22.1479 112.366 23.7726C112.366 25.3973 111.037 26.7144 109.399 26.7144Z" fill="#FEE702"/>
<path d="M101.908 24.127C100.681 24.127 99.6857 23.1405 99.6857 21.9236C99.6857 20.7067 100.681 19.7202 101.908 19.7202C103.136 19.7202 104.131 20.7067 104.131 21.9236C104.131 23.1405 103.136 24.127 101.908 24.127Z" fill="#FEE702"/>
<path d="M105.919 17.9597C105.053 17.9597 104.351 17.2642 104.351 16.4061C104.351 15.5481 105.053 14.8525 105.919 14.8525C106.784 14.8525 107.486 15.5481 107.486 16.4061C107.486 17.2642 106.784 17.9597 105.919 17.9597Z" fill="#FEE702"/>
<path fill-rule="evenodd" clip-rule="evenodd" d="M67.2973 30.6464C67.7007 31.3445 68.5955 31.597 69.3108 31.2092C70.0349 30.8166 70.3009 29.9163 69.9049 29.1984L68.5937 29.9093C69.9049 29.1984 69.9045 29.1977 69.9041 29.197L69.9033 29.1955L69.9015 29.1924L69.8978 29.1857L69.889 29.1704C69.8826 29.1592 69.8751 29.1464 69.8664 29.132C69.8491 29.1031 69.8271 29.0677 69.8002 29.0268C69.7466 28.945 69.6729 28.8403 69.5776 28.7207C69.3877 28.4822 69.1068 28.1782 68.7204 27.878C67.9317 27.2654 66.7385 26.6988 65.096 26.7054M67.2973 30.6464C67.2967 30.6454 67.296 30.6443 67.2952 30.6431C67.2866 30.6301 67.2657 30.5995 67.2318 30.5568C67.1632 30.4707 67.0466 30.3422 66.877 30.2105C66.5537 29.9593 66.0011 29.6648 65.1076 29.6685L65.1068 29.6685C63.9871 29.6725 63.4611 29.9966 63.238 30.1836C63.1142 30.2873 63.0455 30.381 63.0139 30.4308C63.0056 30.4439 62.9999 30.4538 62.9966 30.4599C62.7012 31.1932 61.872 31.5714 61.1136 31.3071C60.3349 31.0357 59.9256 30.19 60.1993 29.418L61.6092 29.9093C60.1993 29.418 60.1996 29.417 60.2 29.416L60.2007 29.4139L60.2023 29.4096L60.2056 29.4004L60.2133 29.3801C60.2188 29.3656 60.2252 29.3494 60.2325 29.3315C60.2472 29.2957 60.2658 29.2531 60.2887 29.2049C60.3345 29.1084 60.3982 28.9882 60.4843 28.8526C60.6566 28.5811 60.92 28.2461 61.3087 27.9204C62.1103 27.2489 63.3302 26.7119 65.0953 26.7054" fill="#3C008A"/>
<path fill-rule="evenodd" clip-rule="evenodd" d="M92.7032 31.14C93.1067 31.8381 94.0015 32.0907 94.7167 31.7029C95.4409 31.3102 95.7069 30.41 95.3108 29.6921L93.9997 30.403C95.3108 29.6921 95.3104 29.6914 95.31 29.6907L95.3092 29.6892L95.3075 29.6861L95.3037 29.6794L95.295 29.664C95.2886 29.6529 95.2811 29.64 95.2724 29.6256C95.255 29.5967 95.233 29.5613 95.2062 29.5204C95.1525 29.4387 95.0789 29.334 94.9836 29.2143C94.7937 28.9759 94.5128 28.6718 94.1264 28.3717C93.3377 27.7591 92.1445 27.1925 90.502 27.199M92.7032 31.14C92.7026 31.1391 92.7019 31.138 92.7011 31.1367C92.6926 31.1237 92.6717 31.0931 92.6377 31.0505C92.5691 30.9644 92.4526 30.8359 92.2829 30.7041C91.9597 30.453 91.407 30.1585 90.5135 30.1621L90.5128 30.1621C89.393 30.1661 88.8671 30.4903 88.6439 30.6773C88.5202 30.7809 88.4515 30.8746 88.4199 30.9244C88.4116 30.9375 88.4059 30.9475 88.4025 30.9536C88.1071 31.6868 87.278 32.065 86.5195 31.8007C85.7409 31.5294 85.3315 30.6836 85.6052 29.9117L87.0151 30.403C85.6052 29.9117 85.6056 29.9107 85.606 29.9096L85.6067 29.9075L85.6082 29.9032L85.6116 29.8941L85.6192 29.8737C85.6247 29.8593 85.6311 29.843 85.6385 29.8251C85.6532 29.7893 85.6717 29.7468 85.6946 29.6985C85.7404 29.6021 85.8041 29.4818 85.8902 29.3462C86.0626 29.0747 86.326 28.7397 86.7146 28.4141C87.5162 27.7425 88.7362 27.2055 90.5012 27.199" fill="#3C008A"/>
<path fill-rule="evenodd" clip-rule="evenodd" d="M75.8569 65.476C75.4535 64.7778 74.5587 64.5253 73.8434 64.9131C73.1193 65.3057 72.8533 66.206 73.2494 66.9239L74.5605 66.213C73.2494 66.9239 73.2498 66.9246 73.2502 66.9253L73.251 66.9268L73.2527 66.9299L73.2565 66.9366L73.2652 66.952C73.2716 66.9631 73.2791 66.9759 73.2878 66.9904C73.3051 67.0192 73.3271 67.0546 73.354 67.0956C73.4077 67.1773 73.4813 67.282 73.5766 67.4016C73.7665 67.6401 74.0474 67.9441 74.4338 68.2443C75.2225 68.8569 76.4157 69.4235 78.0582 69.4169M75.8569 65.476C75.8575 65.4769 75.8582 65.478 75.8591 65.4792C75.8676 65.4922 75.8885 65.5228 75.9224 65.5655C75.991 65.6516 76.1076 65.7801 76.2772 65.9119C76.6005 66.163 77.1532 66.4575 78.0466 66.4539L78.0474 66.4539C79.1672 66.4498 79.6931 66.1257 79.9163 65.9387C80.04 65.835 80.1087 65.7413 80.1403 65.6915C80.1486 65.6784 80.1543 65.6685 80.1576 65.6624C80.4531 64.9291 81.2822 64.5509 82.0407 64.8153C82.8193 65.0866 83.2287 65.9323 82.955 66.7043L81.5451 66.213C82.955 66.7043 82.9546 66.7053 82.9542 66.7063L82.9535 66.7084L82.9519 66.7127L82.9486 66.7219L82.941 66.7422C82.9354 66.7567 82.929 66.7729 82.9217 66.7908C82.907 66.8266 82.8885 66.8692 82.8655 66.9175C82.8197 67.0139 82.756 67.1342 82.67 67.2698C82.4976 67.5413 82.2342 67.8762 81.8455 68.2019C81.044 68.8734 79.824 69.4104 78.059 69.4169" fill="#3C008A"/>
<path d="M77.4784 79.1968V103.895C77.4784 115.209 68.1947 124.412 56.7829 124.412C52.994 124.412 49.9239 121.369 49.9239 117.612C49.9239 113.856 52.994 110.813 56.7829 110.813C60.631 110.813 63.7605 107.71 63.7605 103.895V79.1968" fill="#7000FF"/>
<path fill-rule="evenodd" clip-rule="evenodd" d="M77.4781 77.7153C76.6527 77.7153 75.9836 78.3786 75.9836 79.1969V103.895C75.9836 114.391 67.3691 122.931 56.7826 122.931C53.8191 122.931 51.4181 120.55 51.4181 117.613C51.4181 114.675 53.8191 112.294 56.7826 112.294C61.4561 112.294 65.2546 108.529 65.2546 103.895V79.1969C65.2546 78.3786 64.5855 77.7153 63.7602 77.7153C62.9348 77.7153 62.2657 78.3786 62.2657 79.1969V103.895C62.2657 106.892 59.8054 109.331 56.7826 109.331C52.1684 109.331 48.4292 113.038 48.4292 117.613C48.4292 122.187 52.1684 125.894 56.7826 125.894C69.0198 125.894 78.9725 116.027 78.9725 103.895V79.1969C78.9725 78.3786 78.3034 77.7153 77.4781 77.7153Z" fill="#3C008A"/>
<path d="M89.049 75.8257V100.524C89.049 111.838 79.7653 121.041 68.3534 121.041C64.5646 121.041 61.4945 117.997 61.4945 114.241C61.4945 110.485 64.5646 107.442 68.3534 107.442C72.2016 107.442 75.331 104.339 75.331 100.524V75.8257" fill="#7000FF"/>
<path fill-rule="evenodd" clip-rule="evenodd" d="M89.048 74.3438C88.2227 74.3438 87.5536 75.0071 87.5536 75.8253V100.524C87.5536 111.019 78.939 119.559 68.3525 119.559C65.3891 119.559 62.988 117.179 62.988 114.241C62.988 111.303 65.3891 108.923 68.3525 108.923C73.026 108.923 76.8245 105.157 76.8245 100.524V75.8253C76.8245 75.0071 76.1555 74.3438 75.3301 74.3438C74.5047 74.3438 73.8357 75.0071 73.8357 75.8253V100.524C73.8357 103.521 71.3753 105.96 68.3525 105.96C63.7383 105.96 59.9991 109.667 59.9991 114.241C59.9991 118.815 63.7383 122.522 68.3525 122.522C80.5897 122.522 90.5425 112.655 90.5425 100.524V75.8253C90.5425 75.0071 89.8734 74.3438 89.048 74.3438Z" fill="#3C008A"/>
<path d="M109.253 77.0776V102.202C109.253 113.709 118.697 123.071 130.308 123.071C134.163 123.071 137.285 119.976 137.285 116.154C137.285 112.332 134.163 109.237 130.308 109.237C126.393 109.237 123.208 106.079 123.208 102.202V77.0776" fill="#7000FF"/>
<path fill-rule="evenodd" clip-rule="evenodd" d="M123.209 75.5962C122.384 75.5962 121.715 76.2595 121.715 77.0777V102.202C121.715 106.898 125.57 110.718 130.309 110.718C133.339 110.718 135.792 113.15 135.792 116.154C135.792 119.158 133.339 121.59 130.309 121.59C119.523 121.59 110.748 112.89 110.748 102.202V77.0777H107.76V102.202C107.76 114.527 117.873 124.553 130.309 124.553C134.989 124.553 138.781 120.794 138.781 116.154C138.781 111.514 134.989 107.755 130.309 107.755C127.219 107.755 124.704 105.26 124.704 102.202V77.0777C124.704 76.2595 124.035 75.5962 123.209 75.5962Z" fill="#3C008A"/>
<path d="M103.547 76.5288V101.653C103.547 113.16 112.991 122.522 124.602 122.522C128.457 122.522 131.58 119.427 131.58 115.605C131.58 111.783 128.457 108.688 124.602 108.688C120.688 108.688 117.502 105.53 117.502 101.653V76.5288" fill="#7000FF"/>
<path fill-rule="evenodd" clip-rule="evenodd" d="M117.503 75.0474C116.678 75.0474 116.008 75.7107 116.008 76.5289V101.653C116.008 106.349 119.863 110.169 124.603 110.169C127.632 110.169 130.086 112.602 130.086 115.605C130.086 118.609 127.632 121.041 124.603 121.041C113.817 121.041 105.042 112.341 105.042 101.653V76.5289C105.042 75.7107 104.373 75.0474 103.548 75.0474C102.722 75.0474 102.053 75.7107 102.053 76.5289V101.653C102.053 113.978 112.167 124.004 124.603 124.004C129.283 124.004 133.075 120.245 133.075 115.605C133.075 110.965 129.283 107.206 124.603 107.206C121.513 107.206 118.997 104.711 118.997 101.653V76.5289C118.997 75.7107 118.328 75.0474 117.503 75.0474Z" fill="#3C008A"/>
<path d="M88.9405 76.5291V101.228C88.9405 112.541 98.2242 121.744 109.636 121.744C113.425 121.744 116.495 118.701 116.495 114.945C116.495 111.189 113.425 108.145 109.636 108.145C105.788 108.145 102.658 105.042 102.658 101.228V76.5291" fill="#7000FF"/>
<path fill-rule="evenodd" clip-rule="evenodd" d="M88.9412 75.0474C89.7666 75.0474 90.4357 75.7107 90.4357 76.5289V101.227C90.4357 111.723 99.0503 120.263 109.637 120.263C112.6 120.263 115.001 117.882 115.001 114.945C115.001 112.007 112.6 109.626 109.637 109.626C104.963 109.626 101.165 105.861 101.165 101.227V76.5289C101.165 75.7107 101.834 75.0474 102.659 75.0474C103.485 75.0474 104.154 75.7107 104.154 76.5289V101.227C104.154 104.224 106.614 106.663 109.637 106.663C114.251 106.663 117.99 110.37 117.99 114.945C117.99 119.519 114.251 123.226 109.637 123.226C97.3995 123.226 87.4468 113.359 87.4468 101.227V76.5289C87.4468 75.7107 88.1159 75.0474 88.9412 75.0474Z" fill="#3C008A"/>
</svg>
