<svg width="146" height="127" viewBox="0 0 146 127" fill="none" xmlns="http://www.w3.org/2000/svg">
<path d="M62.7788 81.5735L39.0697 74.1016C28.2095 70.6791 22.2119 59.1058 25.6996 48.302C26.8576 44.715 30.7176 42.7292 34.3233 43.8655C37.9289 45.0019 39.9124 48.8292 38.7544 52.4161C37.5783 56.0592 39.6001 59.9605 43.2622 61.1146L66.9713 68.5865" fill="#7000FF"/>
<path fill-rule="evenodd" clip-rule="evenodd" d="M68.3932 69.0356C68.6454 68.2542 68.2132 67.4202 67.4278 67.1726L43.7195 59.7012C40.843 58.7947 39.2535 55.7277 40.1773 52.8662C41.5875 48.4981 39.1719 43.837 34.7809 42.4532C30.39 41.0695 25.6889 43.4878 24.2787 47.8559C20.5389 59.4404 26.9685 71.8471 38.6137 75.5169L62.322 82.9883L63.2354 80.1589L39.5272 72.6875C29.4528 69.5126 23.8877 58.7741 27.123 48.7523C28.0287 45.9469 31.0474 44.394 33.8675 45.2827C36.6876 46.1714 38.2387 49.1644 37.333 51.9698C35.9048 56.3941 38.3587 61.1291 42.8061 62.5307L66.5143 70.0021C67.2998 70.2496 68.141 69.8169 68.3932 69.0356Z" fill="#3C008A"/>
<rect width="3.53005" height="12.8992" rx="1.76502" transform="matrix(0.979983 0.21018 -0.21452 0.974387 33.423 36.7896)" fill="#D9D9D9"/>
<path d="M38.7979 49.7574C38.6823 51.3304 37.6586 54.4217 32.7136 52.7521C29.9712 51.8262 30.224 48.0925 34.2254 49.1266" stroke="#3C008A" stroke-width="2.5" stroke-linecap="round"/>
<path d="M55.3531 27.764C56.0594 30.5222 55.2295 33.4505 53.1759 35.446L46.4573 41.9744C44.4036 43.97 41.4381 44.7295 38.678 43.9667L29.6492 41.4716C26.8891 40.7088 24.7536 38.5397 24.0472 35.7814L21.7365 26.7576C21.0301 23.9994 21.8601 21.0711 23.9137 19.0757L30.6322 12.5472C32.686 10.5516 35.6514 9.79219 38.4116 10.555L47.4404 13.0501C50.2005 13.8129 52.336 15.982 53.0423 18.7403L55.3531 27.764Z" fill="#3C008A"/>
<path d="M51.9325 27.8539C52.4622 29.9226 51.8397 32.1188 50.2995 33.6154L44.6791 39.0767C43.1389 40.5734 40.9148 41.143 38.8446 40.5709L31.2916 38.4836C29.2215 37.9115 27.6199 36.2847 27.0901 34.216L25.157 26.6672C24.6273 24.5986 25.2498 22.4023 26.7899 20.9057L32.4104 15.4444C33.9506 13.9477 36.1747 13.3781 38.2449 13.9502L45.7979 16.0375C47.868 16.6096 49.4696 18.2364 49.9994 20.3051L51.9325 27.8539Z" fill="white"/>
<path d="M29.9039 30.1981L32.4968 21.0424L35.9851 22.0057C36.8414 22.2421 37.485 22.5262 37.9159 22.8578C38.3468 23.1894 38.6068 23.5752 38.696 24.0154C38.7877 24.4466 38.7548 24.9401 38.5974 25.4958C38.4781 25.9171 38.2917 26.2666 38.038 26.5445C37.787 26.8134 37.4873 26.9964 37.1391 27.0935C36.7909 27.1906 36.4139 27.1832 36.0083 27.0712L36.0731 26.8426C36.5958 26.987 36.9813 27.2046 37.2294 27.4954C37.48 27.7772 37.6272 28.0981 37.671 28.4581C37.7149 28.8181 37.686 29.1774 37.5845 29.5359C37.3382 30.4053 36.8883 30.9817 36.2347 31.2651C35.5835 31.5395 34.7217 31.5286 33.649 31.2324L29.9039 30.1981ZM34.6242 22.8475L32.6976 29.6505L32.185 28.3203L34.2266 28.884C34.461 28.9488 34.6642 28.9517 34.8364 28.893C35.0175 28.8367 35.1386 28.701 35.1995 28.4859C35.2604 28.2708 35.2327 28.094 35.1164 27.9556C35.0001 27.8172 34.8293 27.7168 34.604 27.6546L32.5353 27.0834L33.1103 25.0532L35.0032 25.5759C35.2736 25.6506 35.4858 25.6561 35.6399 25.5923C35.8031 25.5311 35.9151 25.3929 35.976 25.1778C36.0369 24.9627 36.0138 24.7871 35.9065 24.6512C35.8082 24.5178 35.6239 24.4137 35.3535 24.339L33.5011 23.8275L34.6242 22.8475ZM40.8492 31.9595L42.7796 25.1431L45.2403 25.8226L43.3099 32.639L40.8492 31.9595ZM39.3412 29.1512L40.0151 26.7715L46.7619 28.6346L46.0879 31.0143L39.3412 29.1512Z" fill="#3C008A"/>
<path d="M75.0547 76.4919V101.19C75.0547 112.504 84.3384 121.707 95.7502 121.707C99.539 121.707 102.609 118.664 102.609 114.908C102.609 111.151 99.539 108.108 95.7502 108.108C91.9021 108.108 88.7726 105.005 88.7726 101.19V76.4919" fill="#7000FF"/>
<path fill-rule="evenodd" clip-rule="evenodd" d="M75.0554 75.0103C75.8807 75.0103 76.5498 75.6736 76.5498 76.4918V101.19C76.5498 111.685 85.1644 120.226 95.7509 120.226C98.7143 120.226 101.115 117.845 101.115 114.907C101.115 111.97 98.7143 109.589 95.7509 109.589C91.0774 109.589 87.2788 105.823 87.2788 101.19V76.4918C87.2788 75.6736 87.9479 75.0103 88.7733 75.0103C89.5986 75.0103 90.2677 75.6736 90.2677 76.4918V101.19C90.2677 104.187 92.7281 106.626 95.7509 106.626C100.365 106.626 104.104 110.333 104.104 114.907C104.104 119.482 100.365 123.189 95.7509 123.189C83.5137 123.189 73.5609 113.322 73.5609 101.19V76.4918C73.5609 75.6736 74.23 75.0103 75.0554 75.0103Z" fill="#3C008A"/>
<path d="M93.7031 0C76.3825 0 62.3215 14.0423 62.3215 31.34V85.93H125.088L125.088 31.3435C125.088 14.0458 111.024 0 93.7031 0Z" fill="#7000FF"/>
<path fill-rule="evenodd" clip-rule="evenodd" d="M65.3104 31.34C65.3104 15.6582 78.0538 2.9631 93.7031 2.9631C109.352 2.9631 122.099 15.6617 122.099 31.3435V82.9669H65.3104V31.34ZM62.3215 31.34C62.3215 14.0423 76.3825 0 93.7031 0C111.024 0 125.088 14.0458 125.088 31.3435V85.93H62.3215V31.34Z" fill="#3C008A"/>
<path d="M64.8733 63.1265C69.6083 63.1265 73.4634 59.3086 73.4634 54.6144V46.3371C73.4634 41.6429 69.6122 37.821 64.8733 37.821C60.1343 37.821 56.2871 41.639 56.2871 46.3371V54.6144C56.2871 59.3086 60.1382 63.1265 64.8733 63.1265Z" fill="white"/>
<path fill-rule="evenodd" clip-rule="evenodd" d="M64.8737 65.102C70.708 65.102 75.4564 60.4008 75.4564 54.6145V46.3371C75.4564 40.5525 70.7137 35.8457 64.8737 35.8457C59.0331 35.8457 54.2949 40.5492 54.2949 46.3371V54.6145C54.2949 60.3997 59.0382 65.102 64.8737 65.102ZM73.4638 54.6145C73.4638 59.3087 69.6087 63.1266 64.8737 63.1266C60.1387 63.1266 56.2875 59.3087 56.2875 54.6145V46.3371C56.2875 41.639 60.1347 37.8211 64.8737 37.8211C69.6127 37.8211 73.4638 41.6429 73.4638 46.3371V54.6145Z" fill="#3C008A"/>
<path d="M64.8731 38.6035C60.5721 38.6035 57.0761 42.0733 57.0761 46.3333V54.6107C57.0761 58.8745 60.5761 62.3404 64.8771 62.3404C69.178 62.3404 72.678 58.8706 72.678 54.6107V46.3333C72.678 42.0694 69.178 38.6035 64.8771 38.6035M64.8771 37.0388C70.054 37.0388 74.2563 41.201 74.2563 46.3333V54.6107C74.2563 59.7469 70.058 63.9051 64.8771 63.9051C59.7001 63.9051 55.5017 59.743 55.5017 54.6107V46.3333C55.5017 41.1971 59.7001 37.0388 64.8771 37.0388Z" fill="#3C008A"/>
<path d="M61.4009 45.0615C61.4009 43.1604 62.9555 41.6191 64.8732 41.6191C66.791 41.6191 68.3456 43.1604 68.3456 45.0615V50.632C68.3456 52.5331 66.791 54.0743 64.8732 54.0743C62.9555 54.0743 61.4009 52.5331 61.4009 50.632V45.0615Z" fill="#1C1C1C"/>
<path d="M61.5898 42.9611C61.5898 41.9558 62.4145 41.1382 63.4286 41.1382C64.4426 41.1382 65.2673 41.9558 65.2673 42.9611C65.2673 43.9664 64.4426 44.784 63.4286 44.784C62.4145 44.784 61.5898 43.9664 61.5898 42.9611Z" fill="white"/>
<path d="M90.7917 63.1265C95.5267 63.1265 99.3818 59.3086 99.3818 54.6144V46.3371C99.3818 41.6429 95.5307 37.821 90.7917 37.821C86.0527 37.821 82.2055 41.639 82.2055 46.3371V54.6144C82.2055 59.3086 86.0567 63.1265 90.7917 63.1265Z" fill="white"/>
<path fill-rule="evenodd" clip-rule="evenodd" d="M90.7897 65.102C96.624 65.102 101.372 60.4008 101.372 54.6145V46.3371C101.372 40.5525 96.6298 35.8457 90.7897 35.8457C84.9491 35.8457 80.2109 40.5492 80.2109 46.3371V54.6145C80.2109 60.3997 84.9542 65.102 90.7897 65.102ZM99.3798 54.6145C99.3798 59.3087 95.5247 63.1266 90.7897 63.1266C86.0547 63.1266 82.2035 59.3087 82.2035 54.6145V46.3371C82.2035 41.639 86.0507 37.8211 90.7897 37.8211C95.5287 37.8211 99.3798 41.6429 99.3798 46.3371V54.6145Z" fill="#3C008A"/>
<path d="M90.7907 38.6035C86.4897 38.6035 82.9937 42.0733 82.9937 46.3333V54.6107C82.9937 58.8745 86.4937 62.3404 90.7947 62.3404C95.0956 62.3404 98.5956 58.8706 98.5956 54.6107V46.3333C98.5956 42.0694 95.0956 38.6035 90.7947 38.6035M90.7947 37.0388C95.9716 37.0388 100.174 41.201 100.174 46.3333V54.6107C100.174 59.7469 95.9756 63.9051 90.7947 63.9051C85.6177 63.9051 81.4193 59.743 81.4193 54.6107V46.3333C81.4193 41.1971 85.6177 37.0388 90.7947 37.0388Z" fill="#3C008A"/>
<path d="M87.3174 45.0615C87.3174 43.1604 88.872 41.6191 90.7897 41.6191C92.7075 41.6191 94.2621 43.1604 94.2621 45.0615V50.632C94.2621 52.5331 92.7075 54.0743 90.7897 54.0743C88.872 54.0743 87.3174 52.5331 87.3174 50.632V45.0615Z" fill="#1C1C1C"/>
<path d="M87.5071 42.9611C87.5071 41.9558 88.3318 41.1382 89.3459 41.1382C90.36 41.1382 91.1847 41.9558 91.1847 42.9611C91.1847 43.9664 90.36 44.784 89.3459 44.784C88.3318 44.784 87.5071 43.9664 87.5071 42.9611Z" fill="white"/>
<path d="M109.653 26.6773C108.014 26.6773 106.685 25.3602 106.685 23.7355C106.685 22.1108 108.014 20.7937 109.653 20.7937C111.292 20.7937 112.62 22.1108 112.62 23.7355C112.62 25.3602 111.292 26.6773 109.653 26.6773Z" fill="#FEE702"/>
<path d="M102.162 24.0899C100.935 24.0899 99.9399 23.1034 99.9399 21.8865C99.9399 20.6696 100.935 19.6831 102.162 19.6831C103.39 19.6831 104.385 20.6696 104.385 21.8865C104.385 23.1034 103.39 24.0899 102.162 24.0899Z" fill="#FEE702"/>
<path d="M106.173 17.9226C105.307 17.9226 104.606 17.2271 104.606 16.369C104.606 15.511 105.307 14.8154 106.173 14.8154C107.038 14.8154 107.74 15.511 107.74 16.369C107.74 17.2271 107.038 17.9226 106.173 17.9226Z" fill="#FEE702"/>
<path fill-rule="evenodd" clip-rule="evenodd" d="M67.5514 30.6092C67.9548 31.3074 68.8496 31.5599 69.5649 31.1721C70.289 30.7795 70.555 29.8792 70.159 29.1613L68.8478 29.8722C70.159 29.1613 70.1586 29.1606 70.1582 29.1599L70.1573 29.1584L70.1556 29.1553L70.1519 29.1486L70.1431 29.1332C70.1367 29.1221 70.1292 29.1093 70.1205 29.0948C70.1032 29.066 70.0812 29.0306 70.0543 28.9896C70.0006 28.9079 69.927 28.8032 69.8317 28.6836C69.6418 28.4451 69.3609 28.1411 68.9745 27.8409C68.1858 27.2283 66.9926 26.6617 65.3501 26.6683M67.5514 30.6092C67.5508 30.6083 67.5501 30.6072 67.5492 30.606C67.5407 30.593 67.5198 30.5624 67.4859 30.5197C67.4173 30.4336 67.3007 30.3051 67.1311 30.1733C66.8078 29.9222 66.2551 29.6277 65.3617 29.6314L65.3609 29.6314C64.2412 29.6354 63.7152 29.9595 63.492 30.1465C63.3683 30.2502 63.2996 30.3439 63.268 30.3937C63.2597 30.4068 63.254 30.4167 63.2507 30.4228C62.9552 31.1561 62.1261 31.5343 61.3677 31.27C60.589 30.9986 60.1797 30.1529 60.4534 29.3809L61.8632 29.8722C60.4534 29.3809 60.4537 29.3799 60.4541 29.3789L60.4548 29.3768L60.4564 29.3725L60.4597 29.3633L60.4674 29.343C60.4729 29.3285 60.4793 29.3123 60.4866 29.2944C60.5013 29.2586 60.5199 29.216 60.5428 29.1678C60.5886 29.0713 60.6523 28.9511 60.7384 28.8155C60.9107 28.5439 61.1741 28.209 61.5628 27.8833C62.3644 27.2118 63.5843 26.6748 65.3494 26.6683" fill="#3C008A"/>
<path fill-rule="evenodd" clip-rule="evenodd" d="M92.9574 31.1029C93.3608 31.801 94.2556 32.0536 94.9709 31.6657C95.695 31.2731 95.961 30.3729 95.565 29.655L94.2538 30.3659C95.565 29.655 95.5646 29.6543 95.5642 29.6535L95.5634 29.6521L95.5616 29.649L95.5579 29.6423L95.5491 29.6269C95.5427 29.6158 95.5352 29.6029 95.5265 29.5885C95.5092 29.5596 95.4872 29.5242 95.4603 29.4833C95.4066 29.4016 95.333 29.2969 95.2377 29.1772C95.0478 28.9388 94.7669 28.6347 94.3805 28.3346C93.5918 27.722 92.3986 27.1554 90.7561 27.1619M92.9574 31.1029C92.9568 31.102 92.9561 31.1009 92.9552 31.0996C92.9467 31.0866 92.9258 31.056 92.8919 31.0134C92.8233 30.9273 92.7067 30.7987 92.5371 30.667C92.2138 30.4159 91.6612 30.1213 90.7677 30.125L90.7669 30.125C89.6472 30.129 89.1212 30.4532 88.8981 30.6401C88.7743 30.7438 88.7056 30.8375 88.674 30.8873C88.6657 30.9004 88.66 30.9104 88.6567 30.9165C88.3613 31.6497 87.5321 32.0279 86.7737 31.7636C85.995 31.4923 85.5857 30.6465 85.8594 29.8746L87.2693 30.3659C85.8594 29.8746 85.8597 29.8736 85.8601 29.8725L85.8608 29.8704L85.8624 29.8661L85.8657 29.857L85.8734 29.8366C85.8789 29.8222 85.8853 29.8059 85.8926 29.788C85.9073 29.7522 85.9259 29.7097 85.9488 29.6614C85.9946 29.565 86.0583 29.4447 86.1444 29.3091C86.3167 29.0376 86.5801 28.7026 86.9688 28.377C87.7704 27.7054 88.9903 27.1684 90.7554 27.1619" fill="#3C008A"/>
<path fill-rule="evenodd" clip-rule="evenodd" d="M76.1111 65.4389C75.7076 64.7407 74.8129 64.4882 74.0976 64.876C73.3734 65.2686 73.1075 66.1689 73.5035 66.8868L74.8147 66.1759C73.5035 66.8868 73.5039 66.8875 73.5043 66.8882L73.5051 66.8897L73.5068 66.8928L73.5106 66.8995L73.5194 66.9149C73.5258 66.926 73.5333 66.9388 73.542 66.9533C73.5593 66.9821 73.5813 67.0175 73.6082 67.0585C73.6618 67.1402 73.7355 67.2449 73.8307 67.3645C74.0207 67.603 74.3016 67.907 74.688 68.2072C75.4766 68.8198 76.6699 69.3864 78.3124 69.3798M76.1111 65.4389C76.1117 65.4398 76.1124 65.4409 76.1132 65.4421C76.1218 65.4551 76.1426 65.4857 76.1766 65.5284C76.2452 65.6145 76.3618 65.743 76.5314 65.8748C76.8547 66.1259 77.4073 66.4204 78.3008 66.4167L78.3015 66.4167C79.4213 66.4127 79.9473 66.0886 80.1704 65.9016C80.2942 65.7979 80.3628 65.7042 80.3945 65.6544C80.4028 65.6413 80.4084 65.6314 80.4118 65.6253C80.7072 64.892 81.5363 64.5138 82.2948 64.7781C83.0735 65.0495 83.4828 65.8952 83.2091 66.6672L81.7992 66.1759C83.2091 66.6672 83.2087 66.6682 83.2084 66.6692L83.2076 66.6713L83.2061 66.6756L83.2027 66.6848L83.1951 66.7051C83.1896 66.7196 83.1832 66.7358 83.1758 66.7537C83.1611 66.7895 83.1426 66.8321 83.1197 66.8803C83.0739 66.9768 83.0102 67.097 82.9241 67.2326C82.7518 67.5042 82.4884 67.8391 82.0997 68.1648C81.2981 68.8363 80.0782 69.3733 78.3131 69.3798" fill="#3C008A"/>
<path d="M77.7325 79.1597V103.858C77.7325 115.172 68.4489 124.375 57.037 124.375C53.2482 124.375 50.1781 121.331 50.1781 117.575C50.1781 113.819 53.2482 110.776 57.037 110.776C60.8852 110.776 64.0146 107.673 64.0146 103.858V79.1597" fill="#7000FF"/>
<path fill-rule="evenodd" clip-rule="evenodd" d="M77.7322 77.6782C76.9069 77.6782 76.2378 78.3415 76.2378 79.1598V103.858C76.2378 114.353 67.6232 122.894 57.0367 122.894C54.0733 122.894 51.6722 120.513 51.6722 117.575C51.6722 114.638 54.0733 112.257 57.0367 112.257C61.7102 112.257 65.5088 108.491 65.5088 103.858V79.1598C65.5088 78.3415 64.8397 77.6782 64.0143 77.6782C63.1889 77.6782 62.5199 78.3415 62.5199 79.1598V103.858C62.5199 106.855 60.0595 109.294 57.0367 109.294C52.4225 109.294 48.6833 113.001 48.6833 117.575C48.6833 122.15 52.4225 125.857 57.0367 125.857C69.2739 125.857 79.2267 115.99 79.2267 103.858V79.1598C79.2267 78.3415 78.5576 77.6782 77.7322 77.6782Z" fill="#3C008A"/>
<path d="M89.3031 75.7886V100.487C89.3031 111.8 80.0194 121.004 68.6076 121.004C64.8188 121.004 61.7486 117.96 61.7486 114.204C61.7486 110.448 64.8188 107.404 68.6076 107.404C72.4557 107.404 75.5852 104.302 75.5852 100.487V75.7886" fill="#7000FF"/>
<path fill-rule="evenodd" clip-rule="evenodd" d="M89.3022 74.3066C88.4768 74.3066 87.8077 74.97 87.8077 75.7882V100.487C87.8077 110.982 79.1931 119.522 68.6067 119.522C65.6432 119.522 63.2422 117.142 63.2422 114.204C63.2422 111.266 65.6432 108.886 68.6067 108.886C73.2802 108.886 77.0787 105.12 77.0787 100.487V75.7882C77.0787 74.97 76.4096 74.3066 75.5843 74.3066C74.7589 74.3066 74.0898 74.97 74.0898 75.7882V100.487C74.0898 103.483 71.6294 105.923 68.6067 105.923C63.9925 105.923 60.2533 109.629 60.2533 114.204C60.2533 118.778 63.9925 122.485 68.6067 122.485C80.8439 122.485 90.7966 112.618 90.7966 100.487V75.7882C90.7966 74.97 90.1275 74.3066 89.3022 74.3066Z" fill="#3C008A"/>
<path d="M109.507 77.0405V102.164C109.507 113.672 118.951 123.034 130.562 123.034C134.417 123.034 137.54 119.939 137.54 116.117C137.54 112.295 134.417 109.199 130.562 109.199C126.648 109.199 123.462 106.042 123.462 102.164V77.0405" fill="#7000FF"/>
<path fill-rule="evenodd" clip-rule="evenodd" d="M123.463 75.5591C122.638 75.5591 121.969 76.2224 121.969 77.0406V102.165C121.969 106.86 125.824 110.681 130.563 110.681C133.593 110.681 136.046 113.113 136.046 116.117C136.046 119.121 133.593 121.553 130.563 121.553C119.778 121.553 111.003 112.853 111.003 102.165V77.0406H108.014V102.165C108.014 114.49 118.127 124.516 130.563 124.516C135.243 124.516 139.035 120.757 139.035 116.117C139.035 111.477 135.243 107.718 130.563 107.718C127.473 107.718 124.958 105.223 124.958 102.165V77.0406C124.958 76.2224 124.289 75.5591 123.463 75.5591Z" fill="#3C008A"/>
<path d="M103.801 76.4917V101.616C103.801 113.123 113.245 122.485 124.856 122.485C128.711 122.485 131.834 119.39 131.834 115.568C131.834 111.746 128.711 108.651 124.856 108.651C120.942 108.651 117.756 105.493 117.756 101.616V76.4917" fill="#7000FF"/>
<path fill-rule="evenodd" clip-rule="evenodd" d="M117.757 75.0103C116.932 75.0103 116.263 75.6736 116.263 76.4918V101.616C116.263 106.312 120.117 110.132 124.857 110.132C127.886 110.132 130.34 112.564 130.34 115.568C130.34 118.572 127.886 121.004 124.857 121.004C114.071 121.004 105.296 112.304 105.296 101.616V76.4918C105.296 75.6736 104.627 75.0103 103.802 75.0103C102.976 75.0103 102.307 75.6736 102.307 76.4918V101.616C102.307 113.941 112.421 123.967 124.857 123.967C129.537 123.967 133.329 120.208 133.329 115.568C133.329 110.928 129.537 107.169 124.857 107.169C121.767 107.169 119.251 104.674 119.251 101.616V76.4918C119.251 75.6736 118.582 75.0103 117.757 75.0103Z" fill="#3C008A"/>
<path d="M89.1947 76.4919V101.19C89.1947 112.504 98.4784 121.707 109.89 121.707C113.679 121.707 116.749 118.664 116.749 114.908C116.749 111.151 113.679 108.108 109.89 108.108C106.042 108.108 102.913 105.005 102.913 101.19V76.4919" fill="#7000FF"/>
<path fill-rule="evenodd" clip-rule="evenodd" d="M89.1954 75.0103C90.0207 75.0103 90.6898 75.6736 90.6898 76.4918V101.19C90.6898 111.685 99.3044 120.226 109.891 120.226C112.854 120.226 115.255 117.845 115.255 114.907C115.255 111.97 112.854 109.589 109.891 109.589C105.217 109.589 101.419 105.823 101.419 101.19V76.4918C101.419 75.6736 102.088 75.0103 102.913 75.0103C103.739 75.0103 104.408 75.6736 104.408 76.4918V101.19C104.408 104.187 106.868 106.626 109.891 106.626C114.505 106.626 118.244 110.333 118.244 114.907C118.244 119.482 114.505 123.189 109.891 123.189C97.6537 123.189 87.7009 113.322 87.7009 101.19V76.4918C87.7009 75.6736 88.37 75.0103 89.1954 75.0103Z" fill="#3C008A"/>
</svg>
