<svg width="118" height="82" viewBox="0 0 118 82" fill="none" xmlns="http://www.w3.org/2000/svg">
<path d="M62.5248 81.6108L38.8157 74.139C27.9555 70.7164 21.9579 59.1431 25.4456 48.3393C26.6035 44.7524 30.4636 42.7666 34.0692 43.9029C37.6749 45.0392 39.6583 48.8665 38.5004 52.4535C37.3243 56.0966 39.346 59.9979 43.0082 61.152L66.7173 68.6238" fill="#FF4C4C"/>
<path fill-rule="evenodd" clip-rule="evenodd" d="M68.1391 69.073C68.3913 68.2917 67.9591 67.4576 67.1737 67.2101L43.4654 59.7387C40.5889 58.8322 38.9995 55.7652 39.9232 52.9037C41.3334 48.5356 38.9178 43.8745 34.5268 42.4907C30.1359 41.1069 25.4348 43.5253 24.0247 47.8934C20.2848 59.4779 26.7145 71.8845 38.3597 75.5544L62.0679 83.0258L62.9813 80.1964L39.2731 72.7249C29.1988 69.5501 23.6336 58.8116 26.8689 48.7897C27.7746 45.9843 30.7933 44.4314 33.6134 45.3202C36.4335 46.2089 37.9846 49.2019 37.0789 52.0073C35.6507 56.4315 38.1046 61.1666 42.552 62.5682L66.2602 70.0396C67.0457 70.2871 67.8869 69.8544 68.1391 69.073Z" fill="#7A0000"/>
<rect width="3.53005" height="12.8992" rx="1.76502" transform="matrix(0.979983 0.21018 -0.21452 0.974387 33.1688 36.8269)" fill="#D9D9D9"/>
<path d="M38.5438 49.7948C38.4281 51.3677 37.4044 54.4591 32.4595 52.7895C29.7171 51.8636 29.9699 48.1298 33.9713 49.164" stroke="#7A0000" stroke-width="2.5" stroke-linecap="round"/>
<path d="M55.0989 27.8013C55.8052 30.5594 54.9753 33.4878 52.9217 35.4832L46.2031 42.0117C44.1494 44.0073 41.1839 44.7667 38.4238 44.0039L29.395 41.5088C26.6348 40.746 24.4994 38.5769 23.793 35.8186L21.4822 26.7948C20.7759 24.0367 21.6059 21.1084 23.6595 19.1129L30.378 12.5845C32.4317 10.5889 35.3972 9.82942 38.1574 10.5922L47.1861 13.0873C49.9463 13.8501 52.0818 16.0192 52.7881 18.7775L55.0989 27.8013Z" fill="#7A0000"/>
<path d="M51.6783 27.8913C52.208 29.9599 51.5856 32.1561 50.0454 33.6527L44.425 39.1141C42.8847 40.6108 40.6606 41.1804 38.5905 40.6083L31.0374 38.521C28.9673 37.9489 27.3657 36.3221 26.836 34.2533L24.9029 26.7045C24.3732 24.6359 24.9956 22.4397 26.5358 20.9431L32.1562 15.4817C33.6965 13.985 35.9206 13.4155 37.9907 13.9875L45.5437 16.0748C47.6139 16.6469 49.2155 18.2738 49.7452 20.3425L51.6783 27.8913Z" fill="white"/>
<path d="M32.4981 30.5743C31.5212 30.3178 30.7345 29.8946 30.138 29.3046C29.5416 28.7146 29.1491 28.0145 28.9606 27.2042C28.7746 26.3849 28.8088 25.5031 29.0633 24.5587C29.2523 23.8572 29.5387 23.2438 29.9223 22.7186C30.306 22.1933 30.7628 21.774 31.2928 21.4605C31.8252 21.1381 32.4111 20.9404 33.0506 20.8676C33.6925 20.7857 34.3662 20.8374 35.0717 21.0227C36.1753 21.3125 37.021 21.8042 37.6089 22.4978C38.1992 23.1825 38.5251 24.0578 38.5866 25.1236L36.1685 25.471C36.0914 24.9307 35.9161 24.485 35.6426 24.1339C35.3692 23.7829 34.9656 23.5373 34.432 23.3971C33.9978 23.2831 33.5879 23.2766 33.2024 23.3776C32.8168 23.4786 32.4806 23.684 32.1937 23.9939C31.9158 24.3062 31.7091 24.7142 31.5733 25.2178C31.4376 25.7215 31.4118 26.1769 31.4957 26.5842C31.5887 26.9938 31.7771 27.337 32.0609 27.6138C32.3471 27.8816 32.7073 28.0724 33.1415 28.1864C33.6751 28.3266 34.1478 28.3158 34.5593 28.1543C34.9733 27.9837 35.3498 27.6829 35.6887 27.2518L37.6124 28.7392C37.0226 29.6341 36.298 30.2383 35.4387 30.552C34.5818 30.8567 33.6016 30.8641 32.4981 30.5743ZM40.5523 31.2302L42.3953 24.3903L44.8647 25.0387L43.0217 31.8786L40.5523 31.2302ZM39.0084 28.4413L39.6518 26.0534L46.4222 27.8312L45.7787 30.2191L39.0084 28.4413Z" fill="#7A0000"/>
<path d="M74.8005 76.5289V101.227C74.8005 112.541 84.0842 121.744 95.496 121.744C99.2848 121.744 102.355 118.701 102.355 114.945C102.355 111.188 99.2848 108.145 95.496 108.145C91.6479 108.145 88.5184 105.042 88.5184 101.227V76.5289" fill="#FF4C4C"/>
<path fill-rule="evenodd" clip-rule="evenodd" d="M74.8011 75.0474C75.6265 75.0474 76.2956 75.7107 76.2956 76.5289V101.227C76.2956 111.723 84.9102 120.263 95.4967 120.263C98.4601 120.263 100.861 117.882 100.861 114.945C100.861 112.007 98.4601 109.626 95.4967 109.626C90.8232 109.626 87.0246 105.861 87.0246 101.227V76.5289C87.0246 75.7107 87.6937 75.0474 88.5191 75.0474C89.3444 75.0474 90.0135 75.7107 90.0135 76.5289V101.227C90.0135 104.224 92.4739 106.663 95.4967 106.663C100.111 106.663 103.85 110.37 103.85 114.945C103.85 119.519 100.111 123.226 95.4967 123.226C83.2595 123.226 73.3067 113.359 73.3067 101.227V76.5289C73.3067 75.7107 73.9758 75.0474 74.8011 75.0474Z" fill="#7A0000"/>
<path d="M93.449 0.0371094C76.1283 0.0371094 62.0674 14.0794 62.0674 31.3771V85.9671H124.834L124.834 31.3806C124.834 14.0829 110.77 0.0371094 93.449 0.0371094Z" fill="#FF4C4C"/>
<path fill-rule="evenodd" clip-rule="evenodd" d="M65.0563 31.3771C65.0563 15.6953 77.7997 3.00021 93.449 3.00021C109.098 3.00021 121.845 15.6988 121.845 31.3806V83.004H65.0563V31.3771ZM62.0674 31.3771C62.0674 14.0794 76.1283 0.0371094 93.449 0.0371094C110.77 0.0371094 124.834 14.0829 124.834 31.3806V85.9671H62.0674V31.3771Z" fill="#7A0000"/>
<path d="M64.6191 63.1635C69.3541 63.1635 73.2092 59.3456 73.2092 54.6514V46.374C73.2092 41.6799 69.3581 37.858 64.6191 37.858C59.8801 37.858 56.0329 41.676 56.0329 46.374V54.6514C56.0329 59.3456 59.8841 63.1635 64.6191 63.1635Z" fill="white"/>
<path fill-rule="evenodd" clip-rule="evenodd" d="M64.6195 65.139C70.4538 65.139 75.2022 60.4378 75.2022 54.6515V46.3741C75.2022 40.5895 70.4595 35.8827 64.6195 35.8827C58.7788 35.8827 54.0407 40.5862 54.0407 46.3741V54.6515C54.0407 60.4366 58.784 65.139 64.6195 65.139ZM73.2096 54.6515C73.2096 59.3457 69.3545 63.1636 64.6195 63.1636C59.8845 63.1636 56.0333 59.3457 56.0333 54.6515V46.3741C56.0333 41.676 59.8805 37.8581 64.6195 37.8581C69.3585 37.8581 73.2096 41.6799 73.2096 46.3741V54.6515Z" fill="#7A0000"/>
<path d="M64.6189 38.6404C60.3179 38.6404 56.8219 42.1102 56.8219 46.3701V54.6475C56.8219 58.9114 60.3219 62.3773 64.6228 62.3773C68.9238 62.3773 72.4238 58.9075 72.4238 54.6475V46.3701C72.4238 42.1063 68.9238 38.6404 64.6228 38.6404M64.6228 37.0757C69.7998 37.0757 74.0021 41.2378 74.0021 46.3701V54.6475C74.0021 59.7837 69.8037 63.942 64.6228 63.942C59.4459 63.942 55.2475 59.7798 55.2475 54.6475V46.3701C55.2475 41.2339 59.4459 37.0757 64.6228 37.0757Z" fill="#7A0000"/>
<path d="M61.1466 45.0986C61.1466 43.1975 62.7012 41.6562 64.619 41.6562C66.5367 41.6562 68.0913 43.1975 68.0913 45.0986V50.6691C68.0913 52.5702 66.5367 54.1115 64.619 54.1115C62.7012 54.1115 61.1466 52.5702 61.1466 50.6691V45.0986Z" fill="#1C1C1C"/>
<path d="M61.3355 42.9981C61.3355 41.9927 62.1602 41.1752 63.1743 41.1752C64.1884 41.1752 65.0131 41.9927 65.0131 42.9981C65.0131 44.0034 64.1884 44.821 63.1743 44.821C62.1602 44.821 61.3355 44.0034 61.3355 42.9981Z" fill="white"/>
<path d="M90.5376 63.1635C95.2726 63.1635 99.1277 59.3456 99.1277 54.6514V46.374C99.1277 41.6799 95.2766 37.858 90.5376 37.858C85.7986 37.858 81.9514 41.676 81.9514 46.374V54.6514C81.9514 59.3456 85.8026 63.1635 90.5376 63.1635Z" fill="white"/>
<path fill-rule="evenodd" clip-rule="evenodd" d="M90.5356 65.139C96.3699 65.139 101.118 60.4378 101.118 54.6515V46.3741C101.118 40.5895 96.3756 35.8827 90.5356 35.8827C84.6949 35.8827 79.9568 40.5862 79.9568 46.3741V54.6515C79.9568 60.4366 84.7001 65.139 90.5356 65.139ZM99.1257 54.6515C99.1257 59.3457 95.2706 63.1636 90.5356 63.1636C85.8005 63.1636 81.9494 59.3457 81.9494 54.6515V46.3741C81.9494 41.676 85.7966 37.8581 90.5356 37.8581C95.2745 37.8581 99.1257 41.6799 99.1257 46.3741V54.6515Z" fill="#7A0000"/>
<path d="M90.5365 38.6404C86.2355 38.6404 82.7395 42.1102 82.7395 46.3701V54.6475C82.7395 58.9114 86.2395 62.3773 90.5404 62.3773C94.8414 62.3773 98.3414 58.9075 98.3414 54.6475V46.3701C98.3414 42.1063 94.8414 38.6404 90.5404 38.6404M90.5404 37.0757C95.7174 37.0757 99.9197 41.2378 99.9197 46.3701V54.6475C99.9197 59.7837 95.7214 63.942 90.5404 63.942C85.3635 63.942 81.1651 59.7798 81.1651 54.6475V46.3701C81.1651 41.2339 85.3635 37.0757 90.5404 37.0757Z" fill="#7A0000"/>
<path d="M87.0632 45.0986C87.0632 43.1975 88.6178 41.6562 90.5355 41.6562C92.4533 41.6562 94.0079 43.1975 94.0079 45.0986V50.6691C94.0079 52.5702 92.4533 54.1115 90.5355 54.1115C88.6178 54.1115 87.0632 52.5702 87.0632 50.6691V45.0986Z" fill="#1C1C1C"/>
<path d="M87.2529 42.9981C87.2529 41.9927 88.0776 41.1752 89.0917 41.1752C90.1058 41.1752 90.9305 41.9927 90.9305 42.9981C90.9305 44.0034 90.1058 44.821 89.0917 44.821C88.0776 44.821 87.2529 44.0034 87.2529 42.9981Z" fill="white"/>
<path d="M109.399 26.7143C107.76 26.7143 106.431 25.3972 106.431 23.7725C106.431 22.1478 107.76 20.8307 109.399 20.8307C111.037 20.8307 112.366 22.1478 112.366 23.7725C112.366 25.3972 111.037 26.7143 109.399 26.7143Z" fill="#FEE702"/>
<path d="M101.908 24.127C100.681 24.127 99.6857 23.1405 99.6857 21.9236C99.6857 20.7067 100.681 19.7202 101.908 19.7202C103.136 19.7202 104.131 20.7067 104.131 21.9236C104.131 23.1405 103.136 24.127 101.908 24.127Z" fill="#FEE702"/>
<path d="M105.919 17.9597C105.053 17.9597 104.351 17.2642 104.351 16.4061C104.351 15.5481 105.053 14.8525 105.919 14.8525C106.784 14.8525 107.486 15.5481 107.486 16.4061C107.486 17.2642 106.784 17.9597 105.919 17.9597Z" fill="#FEE702"/>
<path fill-rule="evenodd" clip-rule="evenodd" d="M67.2973 30.6462C67.7007 31.3444 68.5955 31.5969 69.3108 31.2091C70.0349 30.8165 70.3009 29.9162 69.9049 29.1983L68.5937 29.9092C69.9049 29.1983 69.9045 29.1976 69.9041 29.1969L69.9033 29.1954L69.9015 29.1923L69.8978 29.1856L69.889 29.1702C69.8826 29.1591 69.8751 29.1463 69.8664 29.1318C69.8491 29.103 69.8271 29.0676 69.8002 29.0266C69.7466 28.9449 69.6729 28.8402 69.5776 28.7206C69.3877 28.4821 69.1068 28.1781 68.7204 27.8779C67.9317 27.2653 66.7385 26.6987 65.096 26.7053M67.2973 30.6462C67.2967 30.6453 67.296 30.6442 67.2952 30.6429C67.2866 30.63 67.2657 30.5994 67.2318 30.5567C67.1632 30.4706 67.0466 30.3421 66.877 30.2103C66.5537 29.9592 66.0011 29.6647 65.1076 29.6683L65.1068 29.6683C63.9871 29.6724 63.4611 29.9965 63.238 30.1835C63.1142 30.2872 63.0455 30.3808 63.0139 30.4307C63.0056 30.4437 62.9999 30.4537 62.9966 30.4598C62.7012 31.1931 61.872 31.5713 61.1136 31.3069C60.3349 31.0356 59.9256 30.1899 60.1993 29.4179L61.6092 29.9092C60.1993 29.4179 60.1996 29.4169 60.2 29.4159L60.2007 29.4138L60.2023 29.4095L60.2056 29.4003L60.2133 29.38C60.2188 29.3655 60.2252 29.3493 60.2325 29.3314C60.2472 29.2956 60.2658 29.253 60.2887 29.2047C60.3345 29.1083 60.3982 28.988 60.4843 28.8524C60.6566 28.5809 60.92 28.246 61.3087 27.9203C62.1103 27.2488 63.3302 26.7118 65.0953 26.7053" fill="#7A0000"/>
<path fill-rule="evenodd" clip-rule="evenodd" d="M92.7032 31.14C93.1067 31.8381 94.0015 32.0907 94.7167 31.7029C95.4409 31.3102 95.7069 30.41 95.3108 29.6921L93.9997 30.403C95.3108 29.6921 95.3104 29.6914 95.31 29.6907L95.3092 29.6892L95.3075 29.6861L95.3037 29.6794L95.295 29.664C95.2886 29.6529 95.2811 29.64 95.2724 29.6256C95.255 29.5967 95.233 29.5613 95.2062 29.5204C95.1525 29.4387 95.0789 29.334 94.9836 29.2143C94.7937 28.9759 94.5128 28.6718 94.1264 28.3717C93.3377 27.7591 92.1445 27.1925 90.502 27.199M92.7032 31.14C92.7026 31.1391 92.7019 31.138 92.7011 31.1367C92.6926 31.1237 92.6717 31.0931 92.6377 31.0505C92.5691 30.9644 92.4526 30.8359 92.2829 30.7041C91.9597 30.453 91.407 30.1585 90.5135 30.1621L90.5128 30.1621C89.393 30.1661 88.8671 30.4903 88.6439 30.6773C88.5202 30.7809 88.4515 30.8746 88.4199 30.9244C88.4116 30.9375 88.4059 30.9475 88.4025 30.9536C88.1071 31.6868 87.278 32.065 86.5195 31.8007C85.7409 31.5294 85.3315 30.6836 85.6052 29.9117L87.0151 30.403C85.6052 29.9117 85.6056 29.9107 85.606 29.9096L85.6067 29.9075L85.6082 29.9032L85.6116 29.8941L85.6192 29.8737C85.6247 29.8593 85.6311 29.843 85.6385 29.8251C85.6532 29.7893 85.6717 29.7468 85.6946 29.6985C85.7404 29.6021 85.8041 29.4818 85.8902 29.3462C86.0626 29.0747 86.326 28.7397 86.7146 28.4141C87.5162 27.7425 88.7362 27.2055 90.5012 27.199" fill="#7A0000"/>
<path fill-rule="evenodd" clip-rule="evenodd" d="M75.8569 65.4761C75.4535 64.778 74.5587 64.5254 73.8434 64.9132C73.1193 65.3059 72.8533 66.2061 73.2494 66.924L74.5605 66.2131C73.2494 66.924 73.2498 66.9247 73.2502 66.9254L73.251 66.9269L73.2527 66.93L73.2565 66.9367L73.2652 66.9521C73.2716 66.9632 73.2791 66.976 73.2878 66.9905C73.3051 67.0194 73.3271 67.0547 73.354 67.0957C73.4077 67.1774 73.4813 67.2821 73.5766 67.4018C73.7665 67.6402 74.0474 67.9443 74.4338 68.2444C75.2225 68.857 76.4157 69.4236 78.0582 69.4171M75.8569 65.4761C75.8575 65.477 75.8582 65.4781 75.8591 65.4794C75.8676 65.4923 75.8885 65.523 75.9224 65.5656C75.991 65.6517 76.1076 65.7802 76.2772 65.912C76.6005 66.1631 77.1532 66.4576 78.0466 66.454L78.0474 66.454C79.1672 66.4499 79.6931 66.1258 79.9163 65.9388C80.04 65.8352 80.1087 65.7415 80.1403 65.6916C80.1486 65.6786 80.1543 65.6686 80.1576 65.6625C80.4531 64.9293 81.2822 64.5511 82.0407 64.8154C82.8193 65.0867 83.2287 65.9325 82.955 66.7044L81.5451 66.2131C82.955 66.7044 82.9546 66.7054 82.9542 66.7064L82.9535 66.7085L82.9519 66.7129L82.9486 66.722L82.941 66.7424C82.9354 66.7568 82.929 66.7731 82.9217 66.791C82.907 66.8267 82.8885 66.8693 82.8655 66.9176C82.8197 67.014 82.756 67.1343 82.67 67.2699C82.4976 67.5414 82.2342 67.8763 81.8455 68.202C81.044 68.8736 79.824 69.4106 78.059 69.4171" fill="#7A0000"/>
<path d="M77.4784 79.1969V103.895C77.4784 115.209 68.1947 124.412 56.7829 124.412C52.994 124.412 49.9239 121.369 49.9239 117.613C49.9239 113.856 52.994 110.813 56.7829 110.813C60.631 110.813 63.7605 107.71 63.7605 103.895V79.1969" fill="#FF4C4C"/>
<path fill-rule="evenodd" clip-rule="evenodd" d="M77.4781 77.7153C76.6527 77.7153 75.9836 78.3786 75.9836 79.1969V103.895C75.9836 114.391 67.3691 122.931 56.7826 122.931C53.8191 122.931 51.4181 120.55 51.4181 117.613C51.4181 114.675 53.8191 112.294 56.7826 112.294C61.4561 112.294 65.2546 108.529 65.2546 103.895V79.1969C65.2546 78.3786 64.5855 77.7153 63.7602 77.7153C62.9348 77.7153 62.2657 78.3786 62.2657 79.1969V103.895C62.2657 106.892 59.8054 109.331 56.7826 109.331C52.1684 109.331 48.4292 113.038 48.4292 117.613C48.4292 122.187 52.1684 125.894 56.7826 125.894C69.0198 125.894 78.9725 116.027 78.9725 103.895V79.1969C78.9725 78.3786 78.3034 77.7153 77.4781 77.7153Z" fill="#7A0000"/>
<path d="M89.049 75.8256V100.524C89.049 111.837 79.7653 121.041 68.3534 121.041C64.5646 121.041 61.4945 117.997 61.4945 114.241C61.4945 110.485 64.5646 107.441 68.3534 107.441C72.2016 107.441 75.331 104.339 75.331 100.524V75.8256" fill="#FF4C4C"/>
<path fill-rule="evenodd" clip-rule="evenodd" d="M89.048 74.3439C88.2227 74.3439 87.5536 75.0072 87.5536 75.8254V100.524C87.5536 111.019 78.939 119.559 68.3525 119.559C65.3891 119.559 62.988 117.179 62.988 114.241C62.988 111.303 65.3891 108.923 68.3525 108.923C73.026 108.923 76.8245 105.157 76.8245 100.524V75.8254C76.8245 75.0072 76.1555 74.3439 75.3301 74.3439C74.5047 74.3439 73.8357 75.0072 73.8357 75.8254V100.524C73.8357 103.521 71.3753 105.96 68.3525 105.96C63.7383 105.96 59.9991 109.667 59.9991 114.241C59.9991 118.815 63.7383 122.522 68.3525 122.522C80.5897 122.522 90.5425 112.656 90.5425 100.524V75.8254C90.5425 75.0072 89.8734 74.3439 89.048 74.3439Z" fill="#7A0000"/>
<path d="M109.253 77.0778V102.202C109.253 113.709 118.697 123.071 130.308 123.071C134.163 123.071 137.285 119.976 137.285 116.154C137.285 112.332 134.163 109.237 130.308 109.237C126.393 109.237 123.208 106.079 123.208 102.202V77.0778" fill="#FF4C4C"/>
<path fill-rule="evenodd" clip-rule="evenodd" d="M123.209 75.5962C122.384 75.5962 121.715 76.2595 121.715 77.0777V102.202C121.715 106.898 125.57 110.718 130.309 110.718C133.339 110.718 135.792 113.15 135.792 116.154C135.792 119.158 133.339 121.59 130.309 121.59C119.523 121.59 110.748 112.89 110.748 102.202V77.0777H107.76V102.202C107.76 114.527 117.873 124.553 130.309 124.553C134.989 124.553 138.781 120.794 138.781 116.154C138.781 111.514 134.989 107.755 130.309 107.755C127.219 107.755 124.704 105.26 124.704 102.202V77.0777C124.704 76.2595 124.035 75.5962 123.209 75.5962Z" fill="#7A0000"/>
<path d="M103.547 76.5288V101.653C103.547 113.16 112.991 122.522 124.602 122.522C128.457 122.522 131.58 119.427 131.58 115.605C131.58 111.783 128.457 108.688 124.602 108.688C120.688 108.688 117.502 105.53 117.502 101.653V76.5288" fill="#FF4C4C"/>
<path fill-rule="evenodd" clip-rule="evenodd" d="M117.503 75.0472C116.678 75.0472 116.008 75.7106 116.008 76.5288V101.653C116.008 106.349 119.863 110.169 124.603 110.169C127.632 110.169 130.086 112.601 130.086 115.605C130.086 118.609 127.632 121.041 124.603 121.041C113.817 121.041 105.042 112.341 105.042 101.653V76.5288C105.042 75.7106 104.373 75.0472 103.548 75.0472C102.722 75.0472 102.053 75.7106 102.053 76.5288V101.653C102.053 113.978 112.167 124.004 124.603 124.004C129.283 124.004 133.075 120.245 133.075 115.605C133.075 110.965 129.283 107.206 124.603 107.206C121.513 107.206 118.997 104.711 118.997 101.653V76.5288C118.997 75.7106 118.328 75.0472 117.503 75.0472Z" fill="#7A0000"/>
<path d="M88.9405 76.5289V101.227C88.9405 112.541 98.2242 121.744 109.636 121.744C113.425 121.744 116.495 118.701 116.495 114.945C116.495 111.188 113.425 108.145 109.636 108.145C105.788 108.145 102.658 105.042 102.658 101.227V76.5289" fill="#FF4C4C"/>
<path fill-rule="evenodd" clip-rule="evenodd" d="M88.9412 75.0474C89.7666 75.0474 90.4357 75.7107 90.4357 76.5289V101.227C90.4357 111.723 99.0503 120.263 109.637 120.263C112.6 120.263 115.001 117.882 115.001 114.945C115.001 112.007 112.6 109.626 109.637 109.626C104.963 109.626 101.165 105.861 101.165 101.227V76.5289C101.165 75.7107 101.834 75.0474 102.659 75.0474C103.485 75.0474 104.154 75.7107 104.154 76.5289V101.227C104.154 104.224 106.614 106.663 109.637 106.663C114.251 106.663 117.99 110.37 117.99 114.945C117.99 119.519 114.251 123.226 109.637 123.226C97.3995 123.226 87.4468 113.359 87.4468 101.227V76.5289C87.4468 75.7107 88.1159 75.0474 88.9412 75.0474Z" fill="#7A0000"/>
</svg>
