<svg width="89" height="84" viewBox="0 0 89 84" fill="none" xmlns="http://www.w3.org/2000/svg">
<path d="M44.1428 77.01V101.702C44.1428 113.013 53.3441 122.214 64.6546 122.214C68.4098 122.214 71.4527 119.171 71.4527 115.416C71.4527 111.661 68.4098 108.618 64.6546 108.618C60.8406 108.618 57.739 105.516 57.739 101.702V77.01" fill="#D4D4D4"/>
<path fill-rule="evenodd" clip-rule="evenodd" d="M44.1432 75.5283C44.9613 75.5283 45.6244 76.1915 45.6244 77.0095V101.702C45.6244 112.194 54.1626 120.733 64.6551 120.733C67.5923 120.733 69.972 118.353 69.972 115.416C69.972 112.478 67.5923 110.099 64.6551 110.099C60.0231 110.099 56.2582 106.334 56.2582 101.702V77.0095C56.2582 76.1915 56.9214 75.5283 57.7394 75.5283C58.5575 75.5283 59.2206 76.1915 59.2206 77.0095V101.702C59.2206 104.698 61.6591 107.136 64.6551 107.136C69.2283 107.136 72.9344 110.842 72.9344 115.416C72.9344 119.989 69.2283 123.695 64.6551 123.695C52.5265 123.695 42.662 113.831 42.662 101.702V77.0095C42.662 76.1915 43.3252 75.5283 44.1432 75.5283Z" fill="#5F5F5F"/>
<path d="M62.6254 0.537109C45.4584 0.537109 31.5222 14.5759 31.5222 31.8693V86.4458H93.732L93.732 31.8728C93.732 14.5794 79.7923 0.537109 62.6254 0.537109Z" fill="#D4D4D4"/>
<path fill-rule="evenodd" clip-rule="evenodd" d="M34.4846 31.8693C34.4846 16.1915 47.1149 3.49948 62.6254 3.49948C78.1358 3.49948 90.7696 16.195 90.7696 31.8728V83.4835H34.4846V31.8693ZM31.5222 31.8693C31.5222 14.5759 45.4584 0.537109 62.6254 0.537109C79.7923 0.537109 93.732 14.5794 93.732 31.8728V86.4458H31.5222V31.8693Z" fill="#5F5F5F"/>
<path d="M78.4343 27.207C76.81 27.207 75.4932 25.8902 75.4932 24.2659C75.4932 22.6416 76.81 21.3248 78.4343 21.3248C80.0586 21.3248 81.3754 22.6416 81.3754 24.2659C81.3754 25.8902 80.0586 27.207 78.4343 27.207Z" fill="#555555"/>
<path d="M71.0104 24.6205C69.7938 24.6205 68.8076 23.6343 68.8076 22.4177C68.8076 21.2011 69.7938 20.2148 71.0104 20.2148C72.227 20.2148 73.2133 21.2011 73.2133 22.4177C73.2133 23.6343 72.227 24.6205 71.0104 24.6205Z" fill="#555555"/>
<path d="M74.9855 18.4556C74.1277 18.4556 73.4323 17.7601 73.4323 16.9023C73.4323 16.0445 74.1277 15.3491 74.9855 15.3491C75.8433 15.3491 76.5387 16.0445 76.5387 16.9023C76.5387 17.7601 75.8433 18.4556 74.9855 18.4556Z" fill="#555555"/>
<path fill-rule="evenodd" clip-rule="evenodd" d="M35.3034 30.1167C35.9987 30.5212 36.8929 30.2964 37.313 29.6062C37.7383 28.9074 37.5166 27.9961 36.8178 27.5708L36.0478 28.8361C36.8178 27.5708 36.8171 27.5704 36.8164 27.57L36.815 27.5691L36.8119 27.5673L36.8054 27.5633L36.7902 27.5544C36.7791 27.5479 36.7663 27.5405 36.7516 27.5323C36.7223 27.5159 36.6857 27.4962 36.6422 27.474C36.5552 27.4299 36.4397 27.3757 36.2981 27.3193C36.0159 27.207 35.6228 27.083 35.1411 27.0146C34.1579 26.875 32.8505 26.9758 31.4439 27.7954M35.3034 30.1167C35.3024 30.1162 35.3013 30.1156 35.2999 30.1149C35.2861 30.1079 35.2529 30.0917 35.2024 30.0716C35.1005 30.0311 34.9362 29.9776 34.7247 29.9475C34.3217 29.8903 33.7001 29.9092 32.9351 30.3551L32.9344 30.3555C31.9753 30.9139 31.6859 31.4552 31.5878 31.7277C31.5334 31.8787 31.5213 31.9939 31.519 32.0527C31.5185 32.0681 31.5186 32.0796 31.5188 32.0865C31.6317 32.8678 31.1091 33.6061 30.3259 33.7531C29.5219 33.9041 28.7478 33.3747 28.5969 32.5707L30.0526 32.2974C28.5969 32.5707 28.5967 32.5696 28.5965 32.5686L28.5961 32.5664L28.5952 32.5619L28.5935 32.5523L28.5899 32.5309C28.5874 32.5156 28.5848 32.4984 28.5822 32.4793C28.5769 32.441 28.5715 32.395 28.5671 32.3418C28.5582 32.2356 28.5527 32.0999 28.5588 31.9399C28.571 31.6194 28.6297 31.1988 28.8005 30.7243C29.1528 29.7456 29.9315 28.6761 31.4433 27.7958" fill="#5F5F5F"/>
<path fill-rule="evenodd" clip-rule="evenodd" d="M64.3247 32.5056C64.322 33.3099 64.9638 33.972 65.7716 33.9907C66.5894 34.0096 67.2678 33.362 67.2867 32.5442L65.8059 32.5099C67.2867 32.5442 67.2867 32.5434 67.2867 32.5425L67.2868 32.5408L67.2868 32.5373L67.2869 32.5296L67.2871 32.512C67.2872 32.4992 67.2871 32.4844 67.2869 32.4675C67.2865 32.434 67.2853 32.3924 67.2827 32.3436C67.2775 32.2463 67.2666 32.1192 67.2446 31.9683C67.2008 31.6678 67.1117 31.2653 66.93 30.814C66.5593 29.8927 65.8184 28.8108 64.4053 28.0025M64.3247 32.5056C64.3247 32.5045 64.3246 32.5032 64.3245 32.5017C64.3237 32.4862 64.3211 32.4493 64.3132 32.3956C64.2974 32.287 64.2616 32.118 64.1818 31.9199C64.0299 31.5423 63.7027 31.0134 62.934 30.5738L62.9334 30.5734C61.9702 30.022 61.3567 30.042 61.0717 30.0933C60.9137 30.1217 60.8079 30.1688 60.7559 30.1962C60.7422 30.2034 60.7324 30.2092 60.7264 30.2129C60.1063 30.7013 59.2056 30.6179 58.6867 30.0132C58.154 29.3924 58.2254 28.4573 58.8462 27.9246L59.8108 29.0486C58.8462 27.9246 58.847 27.9239 58.8478 27.9231L58.8495 27.9217L58.853 27.9187L58.8605 27.9125L58.8772 27.8986C58.8892 27.8888 58.9028 27.878 58.918 27.8661C58.9485 27.8424 58.9857 27.8147 59.0295 27.7843C59.117 27.7235 59.2318 27.6509 59.3735 27.5762C59.6571 27.4265 60.0507 27.267 60.5471 27.1777C61.5708 26.9935 62.8864 27.1331 64.4046 28.0022" fill="#5F5F5F"/>
<path d="M50.4515 70.6223C51.5561 70.6223 52.4515 69.7269 52.4515 68.6223C52.4515 67.5177 51.5561 66.6223 50.4515 66.6223L50.4515 70.6223ZM42.4608 70.6223L50.4515 70.6223L50.4515 66.6223L42.4608 66.6223L42.4608 70.6223Z" fill="#5F5F5F"/>
<path d="M46.7957 78.1951V102.887C46.7957 114.198 37.5944 123.399 26.2838 123.399C22.5286 123.399 19.4858 120.356 19.4858 116.601C19.4858 112.846 22.5286 109.803 26.2838 109.803C30.0978 109.803 33.1995 106.701 33.1995 102.887V78.1951" fill="#D4D4D4"/>
<path fill-rule="evenodd" clip-rule="evenodd" d="M46.7957 76.7141C45.9777 76.7141 45.3145 77.3773 45.3145 78.1953V102.888C45.3145 113.38 36.7764 121.918 26.2839 121.918C23.3467 121.918 20.967 119.539 20.967 116.601C20.967 113.664 23.3467 111.285 26.2839 111.285C30.9159 111.285 34.6807 107.52 34.6807 102.888V78.1953C34.6807 77.3773 34.0176 76.7141 33.1995 76.7141C32.3815 76.7141 31.7183 77.3773 31.7183 78.1953V102.888C31.7183 105.884 29.2798 108.322 26.2839 108.322C21.7106 108.322 18.0046 112.028 18.0046 116.601C18.0046 121.175 21.7106 124.881 26.2839 124.881C38.4125 124.881 48.2769 115.016 48.2769 102.888V78.1953C48.2769 77.3773 47.6138 76.7141 46.7957 76.7141Z" fill="#5F5F5F"/>
<path d="M58.2654 76.3074L58.2654 101C58.2654 112.31 49.0641 121.512 37.7535 121.512C33.9983 121.512 30.9554 118.469 30.9554 114.714C30.9554 110.958 33.9983 107.915 37.7535 107.915C41.5675 107.915 44.6692 104.814 44.6692 101L44.6692 76.3074" fill="#D4D4D4"/>
<path fill-rule="evenodd" clip-rule="evenodd" d="M58.2641 74.8253C57.446 74.8253 56.7829 75.4885 56.7829 76.3065L56.7829 100.999C56.7829 111.491 48.2447 120.03 37.7522 120.03C34.815 120.03 32.4353 117.65 32.4353 114.713C32.4353 111.775 34.815 109.396 37.7522 109.396C42.3842 109.396 46.149 105.631 46.149 100.999L46.149 76.3065C46.149 75.4885 45.4859 74.8253 44.6679 74.8253C43.8498 74.8253 43.1867 75.4885 43.1867 76.3065L43.1867 100.999C43.1867 103.995 40.7481 106.433 37.7522 106.433C33.1789 106.433 29.4729 110.139 29.4729 114.713C29.4729 119.286 33.1789 122.992 37.7522 122.992C49.8808 122.992 59.7452 113.128 59.7452 100.999L59.7452 76.3065C59.7452 75.4885 59.0821 74.8253 58.2641 74.8253Z" fill="#5F5F5F"/>
<path d="M78.2893 77.5588V102.677C78.2893 114.181 87.6497 123.541 99.1573 123.541C102.978 123.541 106.073 120.446 106.073 116.625C106.073 112.805 102.978 109.71 99.1573 109.71C95.2776 109.71 92.1206 106.553 92.1206 102.677V77.5588" fill="#D4D4D4"/>
<path fill-rule="evenodd" clip-rule="evenodd" d="M92.122 76.0774C91.304 76.0774 90.6408 76.7405 90.6408 77.5586V102.676C90.6408 107.371 94.4614 111.191 99.1587 111.191C102.162 111.191 104.593 113.622 104.593 116.625C104.593 119.628 102.162 122.06 99.1587 122.06C88.4689 122.06 79.7719 113.362 79.7719 102.676V77.5586H76.8095V102.676C76.8095 114.999 86.8332 125.022 99.1587 125.022C103.798 125.022 107.556 121.264 107.556 116.625C107.556 111.986 103.798 108.228 99.1587 108.228C96.0966 108.228 93.6032 105.734 93.6032 102.676V77.5586C93.6032 76.7405 92.94 76.0774 92.122 76.0774Z" fill="#5F5F5F"/>
<path d="M72.6338 77.01V102.128C72.6338 113.632 81.9941 122.992 93.5018 122.992C97.3227 122.992 100.417 119.898 100.417 116.077C100.417 112.256 97.3227 109.161 93.5018 109.161C89.6221 109.161 86.4651 106.004 86.4651 102.128V77.01" fill="#D4D4D4"/>
<path fill-rule="evenodd" clip-rule="evenodd" d="M86.4669 75.5283C85.6488 75.5283 84.9857 76.1915 84.9857 77.0095V102.127C84.9857 106.822 88.8063 110.642 93.5035 110.642C96.5064 110.642 98.938 113.073 98.938 116.076C98.938 119.079 96.5064 121.511 93.5035 121.511C82.8137 121.511 74.1167 112.813 74.1167 102.127V77.0095C74.1167 76.1915 73.4536 75.5283 72.6355 75.5283C71.8175 75.5283 71.1543 76.1915 71.1543 77.0095V102.127C71.1543 114.45 81.178 124.473 93.5035 124.473C98.1425 124.473 101.9 120.715 101.9 116.076C101.9 111.437 98.1425 107.679 93.5035 107.679C90.4414 107.679 87.948 105.185 87.948 102.127V77.0095C87.948 76.1915 87.2849 75.5283 86.4669 75.5283Z" fill="#5F5F5F"/>
<path d="M58.1575 77.01V101.702C58.1575 113.013 67.3588 122.214 78.6693 122.214C82.4245 122.214 85.4674 119.171 85.4674 115.416C85.4674 111.661 82.4245 108.618 78.6693 108.618C74.8553 108.618 71.7537 105.516 71.7537 101.702V77.01" fill="#D4D4D4"/>
<path fill-rule="evenodd" clip-rule="evenodd" d="M58.1575 75.5283C58.9756 75.5283 59.6387 76.1915 59.6387 77.0095V101.702C59.6387 112.194 68.1768 120.733 78.6694 120.733C81.6066 120.733 83.9863 118.353 83.9863 115.416C83.9863 112.478 81.6066 110.099 78.6694 110.099C74.0374 110.099 70.2725 106.334 70.2725 101.702V77.0095C70.2725 76.1915 70.9357 75.5283 71.7537 75.5283C72.5718 75.5283 73.2349 76.1915 73.2349 77.0095V101.702C73.2349 104.698 75.6734 107.136 78.6694 107.136C83.2426 107.136 86.9487 110.842 86.9487 115.416C86.9487 119.989 83.2426 123.695 78.6694 123.695C66.5408 123.695 56.6763 113.831 56.6763 101.702V77.0095C56.6763 76.1915 57.3395 75.5283 58.1575 75.5283Z" fill="#5F5F5F"/>
<g clip-path="url(#clip0_423_7419)">
<path d="M24.687 45.0378V53.6009C24.687 58.9133 28.9064 63.2169 34.1069 63.2169C39.3111 63.2169 43.5269 58.9097 43.5269 53.6009V45.0378" fill="#D4D4D4"/>
<path d="M34.107 64.3213C28.317 64.3213 23.6088 59.5114 23.6088 53.6046V45.0416C23.6088 44.4325 24.0904 43.9409 24.687 43.9409C25.2836 43.9409 25.7652 44.4325 25.7652 45.0416V53.6046C25.7652 58.3007 29.5066 62.12 34.107 62.12C38.7073 62.12 42.4487 58.3007 42.4487 53.6046V45.0416C42.4487 44.4325 42.9303 43.9409 43.527 43.9409C44.1236 43.9409 44.6052 44.4325 44.6052 45.0416V53.6046C44.6052 59.5151 39.8934 64.3213 34.107 64.3213Z" fill="#5F5F5F"/>
<path d="M24.7122 47.6685C24.7265 47.8959 24.7481 48.1197 24.7804 48.3399C25.4202 53.0176 29.3521 56.6167 34.1106 56.6167C36.7091 56.6167 39.0668 55.5381 40.7703 53.7991C42.1828 52.3572 43.1496 50.4604 43.4371 48.3399C43.4695 48.1197 43.491 47.8959 43.5054 47.6685" fill="#D4D4D4"/>
<path d="M34.1106 57.7174C28.9028 57.7174 24.4318 53.7514 23.713 48.494C23.6807 48.2628 23.6555 48.0134 23.6375 47.7419C23.598 47.1365 24.0509 46.6119 24.6439 46.5715C25.2405 46.5422 25.7508 46.9934 25.7904 47.5988C25.8047 47.8116 25.8227 47.9987 25.8479 48.1785C26.4193 52.3683 29.9738 55.5161 34.1106 55.5161C36.3389 55.5161 38.4306 54.6283 40.0084 53.0213C41.3023 51.7005 42.1217 50.0275 42.3697 48.1895C42.3984 48.0024 42.4164 47.8116 42.4308 47.5988C42.4703 46.9934 42.9915 46.5348 43.5773 46.5715C44.1703 46.6119 44.6232 47.1328 44.5836 47.7419C44.5657 48.017 44.5405 48.2665 44.5046 48.505C44.1919 50.8127 43.164 52.9149 41.5359 54.5806C39.552 56.6058 36.9175 57.7211 34.1142 57.7211L34.1106 57.7174Z" fill="#5F5F5F"/>
<path d="M43.5305 45.038C43.5305 39.7255 39.3111 35.422 34.1105 35.422C28.9064 35.422 24.6906 39.7292 24.6906 45.038" fill="#D4D4D4"/>
<path d="M43.5306 46.1386C42.9339 46.1386 42.4523 45.647 42.4523 45.0379C42.4523 40.3418 38.7109 36.5226 34.1106 36.5226C29.5102 36.5226 25.7652 40.3418 25.7652 45.0379C25.7652 45.647 25.2836 46.1386 24.687 46.1386C24.0904 46.1386 23.6088 45.647 23.6088 45.0379C23.6088 39.1311 28.3206 34.3213 34.107 34.3213C39.8934 34.3213 44.6052 39.1311 44.6052 45.0379C44.6052 45.647 44.1236 46.1386 43.527 46.1386H43.5306Z" fill="#5F5F5F"/>
</g>
<path d="M24.6871 45.0378V53.6009C24.6871 58.9133 28.9065 63.2169 34.1071 63.2169C39.3113 63.2169 43.5271 58.9097 43.5271 53.6009V45.0378" fill="#D4D4D4"/>
<path d="M34.1072 64.3213C28.3171 64.3213 23.6089 59.5114 23.6089 53.6046V45.0416C23.6089 44.4325 24.0905 43.9409 24.6872 43.9409C25.2838 43.9409 25.7654 44.4325 25.7654 45.0416V53.6046C25.7654 58.3007 29.5068 62.12 34.1072 62.12C38.7075 62.12 42.4489 58.3007 42.4489 53.6046V45.0416C42.4489 44.4325 42.9305 43.9409 43.5271 43.9409C44.1238 43.9409 44.6054 44.4325 44.6054 45.0416V53.6046C44.6054 59.5151 39.8936 64.3213 34.1072 64.3213Z" fill="#5F5F5F"/>
<path d="M24.7123 47.6683C24.7267 47.8958 24.7483 48.1196 24.7806 48.3397C25.4204 53.0175 29.3523 56.6166 34.1108 56.6166C36.7093 56.6166 39.067 55.538 40.7705 53.7989C42.183 52.3571 43.1498 50.4603 43.4373 48.3397C43.4697 48.1196 43.4912 47.8958 43.5056 47.6683" fill="#D4D4D4"/>
<path d="M34.1108 57.7173C28.903 57.7173 24.432 53.7513 23.7132 48.4939C23.6808 48.2627 23.6557 48.0132 23.6377 47.7417C23.5982 47.1364 24.051 46.6117 24.6441 46.5714C25.2407 46.542 25.751 46.9933 25.7906 47.5987C25.8049 47.8115 25.8229 47.9986 25.8481 48.1783C26.4195 52.3681 29.974 55.516 34.1108 55.516C36.3391 55.516 38.4308 54.6281 40.0086 53.0212C41.3024 51.7004 42.1219 50.0274 42.3699 48.1893C42.3986 48.0022 42.4166 47.8115 42.431 47.5987C42.4705 46.9933 42.9916 46.5347 43.5775 46.5714C44.1705 46.6117 44.6233 47.1327 44.5838 47.7417C44.5658 48.0169 44.5407 48.2664 44.5047 48.5049C44.1921 50.8126 43.1642 52.9148 41.5361 54.5804C39.5521 56.6056 36.9177 57.721 34.1144 57.721L34.1108 57.7173Z" fill="#5F5F5F"/>
<path d="M43.5307 45.038C43.5307 39.7255 39.3113 35.422 34.1107 35.422C28.9065 35.422 24.6907 39.7292 24.6907 45.038" fill="#D4D4D4"/>
<path d="M43.5307 46.1386C42.9341 46.1386 42.4525 45.647 42.4525 45.0379C42.4525 40.3418 38.7111 36.5226 34.1107 36.5226C29.5104 36.5226 25.7654 40.3418 25.7654 45.0379C25.7654 45.647 25.2838 46.1386 24.6872 46.1386C24.0905 46.1386 23.6089 45.647 23.6089 45.0379C23.6089 39.1311 28.3207 34.3213 34.1072 34.3213C39.8936 34.3213 44.6054 39.1311 44.6054 45.0379C44.6054 45.647 44.1238 46.1386 43.5271 46.1386H43.5307Z" fill="#5F5F5F"/>
<path d="M51.8326 45.0378V53.6009C51.8326 58.9133 56.052 63.2169 61.2526 63.2169C66.4568 63.2169 70.6726 58.9097 70.6726 53.6009V45.0378" fill="#D4D4D4"/>
<path d="M61.2527 64.3213C55.4627 64.3213 50.7545 59.5114 50.7545 53.6046V45.0416C50.7545 44.4325 51.2361 43.9409 51.8327 43.9409C52.4293 43.9409 52.9109 44.4325 52.9109 45.0416V53.6046C52.9109 58.3007 56.6523 62.12 61.2527 62.12C65.853 62.12 69.5944 58.3007 69.5944 53.6046V45.0416C69.5944 44.4325 70.076 43.9409 70.6726 43.9409C71.2693 43.9409 71.7509 44.4325 71.7509 45.0416V53.6046C71.7509 59.5151 67.0391 64.3213 61.2527 64.3213Z" fill="#5F5F5F"/>
<path d="M51.8578 47.6683C51.8722 47.8958 51.8938 48.1196 51.9261 48.3397C52.5659 53.0175 56.4978 56.6166 61.2563 56.6166C63.8548 56.6166 66.2125 55.538 67.916 53.7989C69.3285 52.3571 70.2953 50.4603 70.5828 48.3397C70.6152 48.1196 70.6367 47.8958 70.6511 47.6683" fill="#D4D4D4"/>
<path d="M61.2563 57.7173C56.0485 57.7173 51.5775 53.7513 50.8587 48.4939C50.8264 48.2627 50.8012 48.0132 50.7832 47.7417C50.7437 47.1364 51.1965 46.6117 51.7896 46.5714C52.3862 46.542 52.8965 46.9933 52.9361 47.5987C52.9504 47.8115 52.9684 47.9986 52.9936 48.1783C53.565 52.3681 57.1195 55.516 61.2563 55.516C63.4846 55.516 65.5763 54.6281 67.1541 53.0212C68.448 51.7004 69.2674 50.0274 69.5154 48.1893C69.5441 48.0022 69.5621 47.8115 69.5765 47.5987C69.616 46.9933 70.1372 46.5347 70.723 46.5714C71.316 46.6117 71.7689 47.1327 71.7293 47.7417C71.7113 48.0169 71.6862 48.2664 71.6502 48.5049C71.3376 50.8126 70.3097 52.9148 68.6816 54.5804C66.6977 56.6056 64.0632 57.721 61.2599 57.721L61.2563 57.7173Z" fill="#5F5F5F"/>
<path d="M70.6762 45.038C70.6762 39.7255 66.4568 35.422 61.2562 35.422C56.0521 35.422 51.8362 39.7292 51.8362 45.038" fill="#D4D4D4"/>
<path d="M70.6762 46.1386C70.0796 46.1386 69.598 45.647 69.598 45.0379C69.598 40.3418 65.8566 36.5226 61.2563 36.5226C56.6559 36.5226 52.9109 40.3418 52.9109 45.0379C52.9109 45.647 52.4293 46.1386 51.8327 46.1386C51.2361 46.1386 50.7545 45.647 50.7545 45.0379C50.7545 39.1311 55.4662 34.3213 61.2527 34.3213C67.0391 34.3213 71.7509 39.1311 71.7509 45.0379C71.7509 45.647 71.2693 46.1386 70.6726 46.1386H70.6762Z" fill="#5F5F5F"/>
<path opacity="0.9" d="M3.47449 20.67C3.71465 20.338 3.99366 19.9919 4.31151 19.6316C4.62937 19.2643 4.91191 18.9324 5.15913 18.6357L5.09556 18.5509C4.86953 18.5792 4.59405 18.6039 4.26913 18.6251C3.95128 18.6463 3.62283 18.664 3.28378 18.6781C2.94473 18.6922 2.63747 18.6993 2.362 18.6993H0.3701C0.334782 18.5651 0.31006 18.4238 0.295933 18.2755C0.281806 18.1271 0.274743 17.9894 0.274743 17.8622C0.274743 17.6857 0.28887 17.4949 0.317124 17.2901C0.345377 17.0853 0.380695 16.8875 0.423076 16.6968H7.62781C7.75495 17.0429 7.84678 17.3325 7.90329 17.5656C7.96686 17.7987 7.99864 18.0071 7.99864 18.1907C7.99864 18.3249 7.97392 18.4662 7.92448 18.6145C7.87503 18.7628 7.80087 18.9041 7.70198 19.0383L4.59758 23.2022C4.35743 23.5201 4.08901 23.8591 3.79235 24.2194C3.50275 24.5796 3.22727 24.9081 2.96592 25.2047L3.02949 25.2895C3.36148 25.2612 3.6864 25.2365 4.00425 25.2153C4.32917 25.1941 4.62231 25.1835 4.88365 25.1835H5.78425C6.20099 25.1835 6.59654 25.1623 6.97091 25.12C7.34527 25.0776 7.66666 24.9963 7.93507 24.8763C8.11166 25.286 8.19995 25.6603 8.19995 25.9994C8.19995 26.3667 8.09047 26.6598 7.8715 26.8788C7.65253 27.0977 7.25345 27.2072 6.67424 27.2072H0.327719C0.20764 26.8611 0.122878 26.5892 0.073434 26.3914C0.0239897 26.1865 -0.000732422 26.0029 -0.000732422 25.8404C-0.000732422 25.6921 0.0275214 25.5367 0.0840291 25.3742C0.140537 25.2047 0.242957 25.0246 0.39129 24.8339L3.47449 20.67Z" fill="#5F5F5F"/>
<path opacity="0.7" d="M16.613 42.137C16.6408 41.8678 16.6861 41.5776 16.7489 41.2664C16.8095 40.9513 16.8615 40.668 16.9049 40.4166L16.8405 40.3891C16.7205 40.4799 16.5711 40.5851 16.3922 40.7045C16.2173 40.8217 16.0352 40.9403 15.8459 41.0603C15.6566 41.1804 15.4831 41.286 15.3255 41.377L14.1858 42.035C14.1213 41.9698 14.0605 41.8972 14.0034 41.817C13.9463 41.7368 13.8968 41.6603 13.8548 41.5876C13.7964 41.4865 13.7415 41.3727 13.69 41.2462C13.6385 41.1197 13.5934 40.9948 13.5546 40.8717L17.6769 38.4917C17.864 38.6477 18.0122 38.7831 18.1215 38.8978C18.2349 39.0102 18.3219 39.1189 18.3826 39.224C18.4269 39.3008 18.4594 39.3898 18.4801 39.491C18.5009 39.5922 18.5051 39.6975 18.4928 39.807L18.0921 43.2149C18.0597 43.4761 18.0181 43.7588 17.9674 44.0629C17.9207 44.3646 17.8716 44.6436 17.82 44.8996L17.8844 44.9271C18.065 44.8013 18.2428 44.6798 18.4176 44.5627C18.5965 44.4433 18.7608 44.3404 18.9103 44.254L19.4256 43.9565C19.664 43.8189 19.8833 43.6761 20.0835 43.5282C20.2837 43.3802 20.4408 43.2276 20.5547 43.0702C20.7911 43.2463 20.9653 43.4313 21.0773 43.6253C21.1986 43.8355 21.2328 44.0394 21.1798 44.237C21.1269 44.4346 20.9347 44.6291 20.6033 44.8204L16.9721 46.9169C16.789 46.7585 16.6507 46.6309 16.5571 46.5341C16.4611 46.4332 16.3863 46.3363 16.3326 46.2434C16.2836 46.1585 16.2485 46.0603 16.2271 45.9486C16.2035 45.833 16.2026 45.6961 16.2244 45.538L16.613 42.137Z" fill="#5F5F5F"/>
<path opacity="0.8" d="M15.3156 28.0491C15.5891 27.8267 15.898 27.6012 16.2423 27.3726C16.5882 27.1382 16.8969 26.9252 17.1684 26.7338L17.1345 26.6492C16.9404 26.6223 16.7059 26.5815 16.4312 26.5268C16.1624 26.4736 15.8855 26.4152 15.6006 26.3514C15.3157 26.2877 15.0588 26.2251 14.8299 26.1638L13.1747 25.7202C13.1752 25.6009 13.1861 25.478 13.2074 25.3516C13.2287 25.2251 13.2535 25.1091 13.2818 25.0035C13.3211 24.8567 13.3753 24.7014 13.4444 24.5375C13.5135 24.3735 13.5869 24.217 13.6646 24.068L19.6516 25.6722C19.6802 25.9881 19.692 26.2492 19.6871 26.4555C19.688 26.6634 19.668 26.8436 19.6271 26.9962C19.5972 27.1077 19.5452 27.2196 19.4711 27.3319C19.397 27.4441 19.3039 27.545 19.1919 27.6345L15.685 30.4035C15.4147 30.6141 15.1161 30.8361 14.7894 31.0694C14.4685 31.3043 14.1665 31.5159 13.8832 31.7042L13.9172 31.7888C14.1994 31.8392 14.4749 31.891 14.7437 31.9442C15.0184 31.9989 15.2644 32.0554 15.4816 32.1136L16.2299 32.3141C16.5763 32.4069 16.9097 32.4774 17.2302 32.5255C17.5507 32.5737 17.8359 32.5777 18.0857 32.5377C18.1412 32.9175 18.1312 33.2482 18.0557 33.5299C17.9739 33.8352 17.8177 34.0544 17.587 34.1876C17.3562 34.3208 17.0002 34.3229 16.5189 34.1939L11.245 32.7808C11.2223 32.4665 11.2124 32.2216 11.2154 32.0462C11.2199 31.865 11.2403 31.7069 11.2764 31.5719C11.3095 31.4486 11.3675 31.3258 11.4507 31.2034C11.5354 31.0751 11.6606 30.9482 11.8263 30.8228L15.3156 28.0491Z" fill="#5F5F5F"/>
<defs>
<clipPath id="clip0_423_7419">
<rect width="21" height="30" fill="white" transform="translate(23.6088 34.3213)"/>
</clipPath>
</defs>
</svg>
