<svg width="415" height="557" viewBox="0 0 415 557" fill="none" xmlns="http://www.w3.org/2000/svg">
<path d="M283.314 182.491C288.271 180.305 293.725 184.336 293.091 189.716L287.406 237.889C287.005 241.287 289.12 244.477 292.405 245.432L338.987 258.965C344.189 260.477 345.777 267.071 341.832 270.784L306.512 304.033C304.021 306.379 303.59 310.181 305.493 313.024L332.478 353.334C335.492 357.836 332.469 363.907 327.061 364.216L278.632 366.984C275.216 367.179 272.441 369.815 272.072 373.216L266.833 421.441C266.248 426.826 260.03 429.535 255.688 426.295L216.81 397.285C214.068 395.239 210.248 395.475 207.779 397.843L172.768 431.418C168.858 435.167 162.353 433.245 161.11 427.972L149.975 380.759C149.189 377.429 146.112 375.155 142.698 375.382L94.2965 378.596C88.8911 378.955 85.144 373.302 87.5806 368.463L109.399 325.139C110.937 322.083 110.042 318.363 107.281 316.342L68.1369 287.693C63.7653 284.493 64.5289 277.754 69.5056 275.613L114.067 256.449C117.211 255.098 118.916 251.672 118.1 248.349L106.529 201.241C105.237 195.98 110.154 191.308 115.342 192.868L161.797 206.831C165.074 207.816 168.582 206.288 170.093 203.218L191.509 159.694C193.901 154.833 200.671 154.415 203.643 158.944L230.254 199.501C232.131 202.362 235.801 203.446 238.931 202.066L283.314 182.491Z" fill="#FEE702"/>
<ellipse cx="192.567" cy="544.304" rx="118.059" ry="12.2782" fill="#D9D9D9" style="mix-blend-mode:multiply"/>
<path d="M172.544 445.58V497.745C172.544 521.639 191.982 541.078 215.877 541.078C223.81 541.078 230.238 534.649 230.238 526.716C230.238 518.783 223.81 512.355 215.877 512.355C207.82 512.355 201.267 505.802 201.267 497.745V445.58" fill="#7000FF"/>
<path fill-rule="evenodd" clip-rule="evenodd" d="M172.545 442.451C174.274 442.451 175.675 443.852 175.675 445.58V497.744C175.675 519.911 193.712 537.948 215.878 537.948C222.083 537.948 227.111 532.921 227.111 526.716C227.111 520.511 222.083 515.483 215.878 515.483C206.093 515.483 198.139 507.53 198.139 497.744V445.58C198.139 443.852 199.54 442.451 201.268 442.451C202.997 442.451 204.398 443.852 204.398 445.58V497.744C204.398 504.074 209.549 509.225 215.878 509.225C225.54 509.225 233.369 517.054 233.369 526.716C233.369 536.377 225.54 544.206 215.878 544.206C190.256 544.206 169.416 523.367 169.416 497.744V445.58C169.416 443.852 170.817 442.451 172.545 442.451Z" fill="#3C008A"/>
<path d="M180.12 458.399L150.605 501.411C137.085 521.113 110.059 526.143 90.3572 512.623C83.816 508.134 82.1528 499.197 86.6414 492.656C91.13 486.114 100.068 484.451 106.609 488.94C113.252 493.499 122.363 491.803 126.922 485.16L156.436 442.148" fill="#7000FF"/>
<path fill-rule="evenodd" clip-rule="evenodd" d="M158.21 439.568C156.785 438.59 154.837 438.952 153.859 440.377L124.345 483.389C120.763 488.608 113.601 489.941 108.382 486.36C100.416 480.893 89.5308 482.919 84.0643 490.885C78.5979 498.851 80.6236 509.737 88.5898 515.203C109.717 529.701 138.691 524.309 153.188 503.182L182.703 460.17L177.543 456.629L148.028 499.641C135.486 517.918 110.408 522.585 92.1307 510.043C87.0145 506.532 85.7137 499.542 89.2245 494.426C92.7353 489.31 99.7251 488.009 104.841 491.52C112.91 497.057 123.968 494.999 129.505 486.93L159.02 443.918C159.997 442.493 159.635 440.546 158.21 439.568Z" fill="#3C008A"/>
<path d="M211.591 284.025C175.324 284.025 145.883 313.683 145.883 350.217V465.514H277.306L277.306 350.225C277.306 313.691 247.857 284.025 211.591 284.025Z" fill="#7000FF"/>
<path fill-rule="evenodd" clip-rule="evenodd" d="M152.141 350.217C152.141 317.096 178.824 290.284 211.591 290.284C244.358 290.284 271.048 317.104 271.048 350.225V459.256H152.141V350.217ZM145.883 350.217C145.883 313.683 175.324 284.025 211.591 284.025C247.857 284.025 277.306 313.691 277.306 350.225V465.514H145.883V350.217Z" fill="#3C008A"/>
<path d="M151.226 417.352C161.141 417.352 169.213 409.288 169.213 399.374V381.892C169.213 371.977 161.149 363.905 151.226 363.905C141.304 363.905 133.248 371.969 133.248 381.892V399.374C133.248 409.288 141.312 417.352 151.226 417.352Z" fill="white"/>
<path fill-rule="evenodd" clip-rule="evenodd" d="M151.227 421.524C163.443 421.524 173.386 411.595 173.386 399.374V381.892C173.386 369.675 163.455 359.733 151.227 359.733C138.998 359.733 129.077 369.667 129.077 381.892V399.374C129.077 411.593 139.009 421.524 151.227 421.524ZM169.213 399.374C169.213 409.288 161.141 417.352 151.227 417.352C141.313 417.352 133.249 409.288 133.249 399.374V381.892C133.249 371.969 141.304 363.906 151.227 363.906C161.15 363.906 169.213 371.977 169.213 381.892V399.374Z" fill="#3C008A"/>
<path d="M151.226 365.558C142.22 365.558 134.9 372.887 134.9 381.884V399.366C134.9 408.372 142.228 415.692 151.234 415.692C160.239 415.692 167.568 408.363 167.568 399.366V381.884C167.568 372.878 160.239 365.558 151.234 365.558M151.234 362.253C162.073 362.253 170.872 371.044 170.872 381.884V399.366C170.872 410.214 162.082 418.997 151.234 418.997C140.394 418.997 131.603 410.206 131.603 399.366V381.884C131.603 371.036 140.394 362.253 151.234 362.253Z" fill="#3C008A"/>
<path d="M143.956 379.198C143.956 375.182 147.211 371.927 151.226 371.927C155.242 371.927 158.497 375.182 158.497 379.198V390.963C158.497 394.978 155.242 398.233 151.226 398.233C147.211 398.233 143.956 394.978 143.956 390.963V379.198Z" fill="#1C1C1C"/>
<path d="M144.351 374.762C144.351 372.638 146.078 370.912 148.201 370.912C150.325 370.912 152.051 372.638 152.051 374.762C152.051 376.885 150.325 378.612 148.201 378.612C146.078 378.612 144.351 376.885 144.351 374.762Z" fill="white"/>
<path d="M205.495 417.352C215.41 417.352 223.481 409.288 223.481 399.374V381.892C223.481 371.977 215.418 363.905 205.495 363.905C195.573 363.905 187.517 371.969 187.517 381.892V399.374C187.517 409.288 195.581 417.352 205.495 417.352Z" fill="white"/>
<path fill-rule="evenodd" clip-rule="evenodd" d="M205.491 421.524C217.707 421.524 227.649 411.595 227.649 399.374V381.892C227.649 369.675 217.719 359.733 205.491 359.733C193.261 359.733 183.34 369.667 183.34 381.892V399.374C183.34 411.593 193.272 421.524 205.491 421.524ZM223.477 399.374C223.477 409.288 215.405 417.352 205.491 417.352C195.576 417.352 187.512 409.288 187.512 399.374V381.892C187.512 371.969 195.568 363.906 205.491 363.906C215.413 363.906 223.477 371.977 223.477 381.892V399.374Z" fill="#3C008A"/>
<path d="M205.493 365.558C196.487 365.558 189.167 372.887 189.167 381.884V399.366C189.167 408.372 196.496 415.692 205.501 415.692C214.507 415.692 221.835 408.363 221.835 399.366V381.884C221.835 372.878 214.507 365.558 205.501 365.558M205.501 362.253C216.341 362.253 225.14 371.044 225.14 381.884V399.366C225.14 410.214 216.349 418.997 205.501 418.997C194.661 418.997 185.871 410.206 185.871 399.366V381.884C185.871 371.036 194.661 362.253 205.501 362.253Z" fill="#3C008A"/>
<path d="M198.219 379.198C198.219 375.182 201.475 371.927 205.49 371.927C209.505 371.927 212.76 375.182 212.76 379.198V390.963C212.76 394.978 209.505 398.233 205.49 398.233C201.475 398.233 198.219 394.978 198.219 390.963V379.198Z" fill="#1C1C1C"/>
<path d="M198.617 374.762C198.617 372.638 200.344 370.912 202.467 370.912C204.59 370.912 206.317 372.638 206.317 374.762C206.317 376.885 204.59 378.612 202.467 378.612C200.344 378.612 198.617 376.885 198.617 374.762Z" fill="white"/>
<path d="M244.987 340.369C241.556 340.369 238.774 337.587 238.774 334.156C238.774 330.724 241.556 327.942 244.987 327.942C248.419 327.942 251.2 330.724 251.2 334.156C251.2 337.587 248.419 340.369 244.987 340.369Z" fill="#FEE702"/>
<path d="M229.304 334.905C226.734 334.905 224.65 332.821 224.65 330.251C224.65 327.681 226.734 325.597 229.304 325.597C231.874 325.597 233.958 327.681 233.958 330.251C233.958 332.821 231.874 334.905 229.304 334.905Z" fill="#FEE702"/>
<path d="M237.7 321.879C235.888 321.879 234.419 320.41 234.419 318.598C234.419 316.785 235.888 315.316 237.7 315.316C239.513 315.316 240.982 316.785 240.982 318.598C240.982 320.41 239.513 321.879 237.7 321.879Z" fill="#FEE702"/>
<path fill-rule="evenodd" clip-rule="evenodd" d="M156.834 348.674C157.678 350.148 159.552 350.682 161.049 349.863C162.566 349.033 163.123 347.132 162.293 345.616L159.548 347.117C162.293 345.616 162.293 345.614 162.292 345.613L162.29 345.61L162.286 345.603L162.279 345.589L162.26 345.556C162.247 345.533 162.231 345.506 162.213 345.475C162.177 345.414 162.131 345.34 162.074 345.253C161.962 345.08 161.808 344.859 161.608 344.607C161.211 344.103 160.622 343.461 159.813 342.827C158.162 341.533 155.664 340.336 152.224 340.35M156.834 348.674C156.832 348.672 156.831 348.67 156.829 348.667C156.811 348.639 156.767 348.575 156.696 348.485C156.553 348.303 156.309 348.031 155.954 347.753C155.277 347.223 154.119 346.601 152.249 346.608L152.247 346.608C149.903 346.617 148.801 347.302 148.334 347.696C148.075 347.915 147.931 348.113 147.865 348.219C147.847 348.246 147.836 348.267 147.829 348.28C147.21 349.829 145.474 350.627 143.886 350.069C142.255 349.496 141.398 347.71 141.971 346.079L144.924 347.117C141.971 346.079 141.972 346.077 141.973 346.075L141.975 346.071L141.978 346.062L141.985 346.042L142.001 345.999C142.012 345.969 142.026 345.934 142.041 345.897C142.072 345.821 142.111 345.731 142.159 345.629C142.255 345.426 142.388 345.172 142.568 344.885C142.929 344.312 143.481 343.604 144.294 342.917C145.973 341.498 148.527 340.364 152.223 340.35" fill="#3C008A"/>
<path fill-rule="evenodd" clip-rule="evenodd" d="M210.029 349.716C210.874 351.191 212.748 351.724 214.245 350.905C215.762 350.076 216.319 348.174 215.489 346.658L212.744 348.16C215.489 346.658 215.488 346.657 215.488 346.655L215.486 346.652L215.482 346.645L215.474 346.631L215.456 346.599C215.443 346.575 215.427 346.548 215.409 346.518C215.373 346.457 215.326 346.382 215.27 346.296C215.158 346.123 215.004 345.902 214.804 345.649C214.406 345.145 213.818 344.503 213.009 343.869C211.358 342.576 208.859 341.379 205.42 341.393M210.029 349.716C210.028 349.714 210.027 349.712 210.025 349.709C210.007 349.682 209.963 349.617 209.892 349.527C209.749 349.345 209.505 349.074 209.149 348.796C208.473 348.265 207.315 347.643 205.445 347.651L205.443 347.651C203.098 347.659 201.997 348.344 201.53 348.739C201.271 348.958 201.127 349.156 201.061 349.261C201.043 349.289 201.032 349.31 201.025 349.323C200.406 350.871 198.67 351.67 197.082 351.112C195.451 350.539 194.594 348.752 195.167 347.122L198.119 348.16C195.167 347.122 195.168 347.12 195.169 347.118L195.171 347.113L195.174 347.104L195.181 347.085L195.197 347.042C195.208 347.011 195.222 346.977 195.237 346.939C195.268 346.864 195.307 346.774 195.355 346.672C195.451 346.468 195.584 346.214 195.764 345.928C196.125 345.354 196.677 344.647 197.49 343.959C199.169 342.541 201.723 341.406 205.419 341.393" fill="#3C008A"/>
<path fill-rule="evenodd" clip-rule="evenodd" d="M174.756 422.236C173.911 420.761 172.038 420.228 170.54 421.047C169.024 421.876 168.467 423.778 169.296 425.294L172.042 423.792C169.296 425.294 169.297 425.295 169.298 425.297L169.3 425.3L169.303 425.307L169.311 425.321L169.33 425.353C169.343 425.377 169.359 425.404 169.377 425.434C169.413 425.495 169.459 425.57 169.515 425.657C169.628 425.829 169.782 426.05 169.982 426.303C170.379 426.807 170.967 427.449 171.776 428.083C173.428 429.377 175.926 430.573 179.365 430.559M174.756 422.236C174.757 422.238 174.759 422.24 174.761 422.243C174.779 422.27 174.822 422.335 174.893 422.425C175.037 422.607 175.281 422.878 175.636 423.157C176.313 423.687 177.47 424.309 179.341 424.301L179.343 424.301C181.687 424.293 182.789 423.608 183.256 423.213C183.515 422.994 183.659 422.796 183.725 422.691C183.742 422.664 183.754 422.643 183.761 422.63C184.38 421.081 186.116 420.282 187.704 420.84C189.334 421.414 190.191 423.2 189.618 424.83L186.666 423.792C189.618 424.83 189.617 424.832 189.617 424.834L189.615 424.839L189.612 424.848L189.605 424.867L189.589 424.91C189.577 424.941 189.564 424.975 189.549 425.013C189.518 425.089 189.479 425.178 189.431 425.28C189.335 425.484 189.202 425.738 189.022 426.024C188.661 426.598 188.109 427.305 187.295 427.993C185.617 429.412 183.063 430.546 179.367 430.559" fill="#3C008A"/>
<path d="M178.151 448.085V500.25C178.151 524.145 158.713 543.583 134.818 543.583C126.885 543.583 120.457 537.155 120.457 529.221C120.457 521.288 126.885 514.86 134.818 514.86C142.876 514.86 149.428 508.307 149.428 500.25V448.085" fill="#7000FF"/>
<path fill-rule="evenodd" clip-rule="evenodd" d="M178.15 444.956C176.422 444.956 175.021 446.357 175.021 448.085V500.25C175.021 522.416 156.984 540.454 134.818 540.454C128.613 540.454 123.585 535.426 123.585 529.221C123.585 523.016 128.613 517.989 134.818 517.989C144.603 517.989 152.557 510.035 152.557 500.25V448.085C152.557 446.357 151.156 444.956 149.427 444.956C147.699 444.956 146.298 446.357 146.298 448.085V500.25C146.298 506.579 141.147 511.731 134.818 511.731C125.156 511.731 117.327 519.56 117.327 529.221C117.327 538.882 125.156 546.712 134.818 546.712C160.44 546.712 181.28 525.872 181.28 500.25V448.085C181.28 446.357 179.879 444.956 178.15 444.956Z" fill="#3C008A"/>
<path d="M201.393 444.095V496.259C201.393 520.154 181.955 539.592 158.06 539.592C150.127 539.592 143.699 533.164 143.699 525.231C143.699 517.298 150.127 510.869 158.06 510.869C166.117 510.869 172.67 504.317 172.67 496.259V444.095" fill="#7000FF"/>
<path fill-rule="evenodd" clip-rule="evenodd" d="M201.391 440.965C199.663 440.965 198.262 442.366 198.262 444.094V496.259C198.262 518.425 180.225 536.463 158.058 536.463C151.853 536.463 146.826 531.435 146.826 525.23C146.826 519.025 151.853 513.998 158.058 513.998C167.844 513.998 175.797 506.045 175.797 496.259V444.094C175.797 442.366 174.396 440.965 172.668 440.965C170.94 440.965 169.539 442.366 169.539 444.094V496.259C169.539 502.588 164.388 507.74 158.058 507.74C148.397 507.74 140.568 515.569 140.568 525.23C140.568 534.892 148.397 542.721 158.058 542.721C183.681 542.721 204.52 521.882 204.52 496.259V444.094C204.52 442.366 203.119 440.965 201.391 440.965Z" fill="#3C008A"/>
<path d="M244.681 446.739V499.802C244.681 524.106 264.456 543.88 288.767 543.88C296.839 543.88 303.377 537.342 303.377 529.27C303.377 521.199 296.839 514.661 288.767 514.661C280.571 514.661 273.901 507.991 273.901 499.802V446.739" fill="#7000FF"/>
<path fill-rule="evenodd" clip-rule="evenodd" d="M273.903 443.61C272.175 443.61 270.774 445.011 270.774 446.739V499.803C270.774 509.721 278.846 517.79 288.769 517.79C295.113 517.79 300.25 522.927 300.25 529.271C300.25 535.614 295.113 540.751 288.769 540.751C266.186 540.751 247.813 522.378 247.813 499.803V446.739H241.555V499.803C241.555 525.835 262.73 547.01 288.769 547.01C298.569 547.01 306.508 539.071 306.508 529.271C306.508 519.471 298.569 511.532 288.769 511.532C282.3 511.532 277.033 506.262 277.033 499.803V446.739C277.033 445.011 275.632 443.61 273.903 443.61Z" fill="#3C008A"/>
<path d="M232.735 445.58V498.643C232.735 522.947 252.509 542.721 276.82 542.721C284.892 542.721 291.43 536.183 291.43 528.111C291.43 520.039 284.892 513.501 276.82 513.501C268.624 513.501 261.954 506.832 261.954 498.643V445.58" fill="#7000FF"/>
<path fill-rule="evenodd" clip-rule="evenodd" d="M261.956 442.451C260.228 442.451 258.827 443.852 258.827 445.58V498.643C258.827 508.561 266.898 516.63 276.821 516.63C283.165 516.63 288.302 521.767 288.302 528.111C288.302 534.455 283.165 539.592 276.821 539.592C254.238 539.592 235.865 521.218 235.865 498.643V445.58C235.865 443.852 234.464 442.451 232.736 442.451C231.008 442.451 229.607 443.852 229.607 445.58V498.643C229.607 524.675 250.783 545.85 276.821 545.85C286.622 545.85 294.56 537.911 294.56 528.111C294.56 518.311 286.622 510.372 276.821 510.372C270.352 510.372 265.085 505.103 265.085 498.643V445.58C265.085 443.852 263.684 442.451 261.956 442.451Z" fill="#3C008A"/>
<path d="M202.151 445.58V497.745C202.151 521.639 221.589 541.078 245.484 541.078C253.417 541.078 259.845 534.649 259.845 526.716C259.845 518.783 253.417 512.355 245.484 512.355C237.426 512.355 230.874 505.802 230.874 497.745V445.58" fill="#7000FF"/>
<path fill-rule="evenodd" clip-rule="evenodd" d="M202.152 442.451C203.88 442.451 205.281 443.852 205.281 445.58V497.744C205.281 519.911 223.319 537.948 245.485 537.948C251.69 537.948 256.718 532.921 256.718 526.716C256.718 520.511 251.69 515.483 245.485 515.483C235.7 515.483 227.746 507.53 227.746 497.744V445.58C227.746 443.852 229.147 442.451 230.875 442.451C232.603 442.451 234.004 443.852 234.004 445.58V497.744C234.004 504.074 239.156 509.225 245.485 509.225C255.147 509.225 262.976 517.054 262.976 526.716C262.976 536.377 255.147 544.206 245.485 544.206C219.863 544.206 199.023 523.367 199.023 497.744V445.58C199.023 443.852 200.424 442.451 202.152 442.451Z" fill="#3C008A"/>
<path d="M266.927 126.753C269.516 125.434 272.281 128.199 270.962 130.788L268.677 135.273C268.087 136.431 268.31 137.837 269.229 138.756L272.787 142.315C274.842 144.37 273.067 147.854 270.197 147.399L265.226 146.612C263.942 146.408 262.674 147.055 262.084 148.213L259.799 152.697C258.479 155.286 254.617 154.675 254.163 151.804L253.375 146.833C253.172 145.55 252.165 144.543 250.882 144.34L245.911 143.552C243.041 143.098 242.429 139.236 245.018 137.916L249.502 135.632C250.66 135.041 251.307 133.773 251.104 132.489L250.316 127.518C249.862 124.648 253.346 122.873 255.401 124.928L258.959 128.486C259.878 129.405 261.285 129.628 262.443 129.038L266.927 126.753Z" fill="#FEE702"/>
<path d="M83.9329 157.153C86.0926 155.209 89.479 157.164 88.8747 160.007L87.8284 164.929C87.5581 166.201 88.1373 167.501 89.2628 168.151L93.6213 170.668C96.1381 172.121 95.3251 175.945 92.4349 176.249L87.4297 176.775C86.1371 176.911 85.0791 177.864 84.8088 179.135L83.7625 184.058C83.1582 186.901 79.2694 187.309 78.0874 184.654L76.0404 180.057C75.5118 178.869 74.2787 178.157 72.9862 178.293L67.981 178.819C65.0907 179.123 63.5003 175.551 65.66 173.606L69.4001 170.239C70.3659 169.369 70.6619 167.977 70.1333 166.789L68.0863 162.192C66.9043 159.537 69.8101 156.92 72.327 158.373L76.6854 160.89C77.811 161.539 79.227 161.391 80.1928 160.521L83.9329 157.153Z" fill="#FEE702"/>
<path d="M67.4354 318.155C69.5951 316.21 72.9814 318.165 72.3772 321.008L72.0895 322.362C71.8193 323.633 72.3984 324.934 73.5239 325.584L74.7224 326.275C77.2392 327.729 76.4262 331.553 73.5359 331.857L72.1597 332.002C70.8671 332.138 69.8091 333.09 69.5388 334.362L69.2511 335.715C68.6469 338.558 64.7581 338.967 63.5761 336.312L63.0132 335.047C62.4846 333.86 61.2515 333.148 59.959 333.284L58.5827 333.429C55.6925 333.732 54.1021 330.16 56.2618 328.216L57.2901 327.29C58.256 326.42 58.552 325.027 58.0234 323.84L57.4605 322.576C56.2785 319.921 59.1844 317.305 61.7012 318.758L62.8996 319.45C64.0252 320.099 65.4411 319.951 66.407 319.081L67.4354 318.155Z" fill="#FEE702"/>
<path d="M336.36 208.863C338.52 206.918 341.906 208.873 341.302 211.716L341.014 213.07C340.744 214.341 341.323 215.642 342.449 216.292L343.647 216.983C346.164 218.437 345.351 222.261 342.461 222.565L341.085 222.71C339.792 222.846 338.734 223.798 338.464 225.07L338.176 226.423C337.572 229.266 333.683 229.675 332.501 227.02L331.938 225.755C331.41 224.568 330.176 223.856 328.884 223.992L327.508 224.137C324.617 224.441 323.027 220.868 325.187 218.924L326.215 217.998C327.181 217.128 327.477 215.735 326.948 214.548L326.385 213.284C325.203 210.629 328.109 208.013 330.626 209.466L331.825 210.158C332.95 210.807 334.366 210.659 335.332 209.789L336.36 208.863Z" fill="#FEE702"/>
<path d="M356.928 378.89C359.087 376.945 362.474 378.9 361.869 381.743L361.582 383.097C361.311 384.368 361.891 385.669 363.016 386.318L364.215 387.01C366.731 388.463 365.918 392.288 363.028 392.592L361.652 392.737C360.359 392.872 359.301 393.825 359.031 395.096L358.743 396.45C358.139 399.293 354.25 399.701 353.068 397.046L352.505 395.782C351.977 394.595 350.744 393.883 349.451 394.019L348.075 394.164C345.185 394.467 343.594 390.895 345.754 388.951L346.782 388.025C347.748 387.155 348.044 385.762 347.516 384.575L346.953 383.311C345.771 380.656 348.677 378.039 351.193 379.493L352.392 380.184C353.517 380.834 354.933 380.685 355.899 379.816L356.928 378.89Z" fill="#FEE702"/>
<path d="M49.6149 257.146C49.9819 255.419 47.925 254.232 46.6132 255.413C46.0265 255.941 45.1665 256.031 44.4828 255.637C42.9541 254.754 41.1891 256.343 41.9071 257.956C42.2282 258.677 42.0484 259.523 41.4617 260.051C40.1499 261.232 41.1159 263.402 42.8715 263.217C43.6566 263.135 44.4055 263.567 44.7266 264.289C45.4446 265.901 47.8066 265.653 48.1736 263.926C48.3377 263.154 48.9804 262.575 49.7655 262.493C51.521 262.308 52.0148 259.985 50.4861 259.103C49.8025 258.708 49.4507 257.918 49.6149 257.146Z" fill="#FEE702"/>
<path d="M89.6623 128.7C90.0293 126.974 87.9725 125.786 86.6607 126.967C86.074 127.496 85.214 127.586 84.5303 127.191C83.0016 126.309 81.2366 127.898 81.9546 129.51C82.2757 130.232 82.0959 131.078 81.5092 131.606C80.1974 132.787 81.1634 134.957 82.919 134.772C83.704 134.69 84.453 135.122 84.7741 135.843C85.492 137.456 87.8541 137.208 88.2211 135.481C88.3852 134.709 89.0279 134.13 89.813 134.048C91.5685 133.863 92.0623 131.54 90.5336 130.657C89.85 130.263 89.4982 129.473 89.6623 128.7Z" fill="#FEE702"/>
<path d="M361.002 10.256C361.369 8.52941 359.312 7.34188 358 8.52303C357.413 9.05125 356.553 9.14165 355.87 8.74694C354.341 7.86434 352.576 9.45357 353.294 11.0662C353.615 11.7873 353.435 12.6332 352.849 13.1614C351.537 14.3426 352.503 16.5123 354.258 16.3278C355.043 16.2453 355.792 16.6777 356.113 17.3989C356.831 19.0114 359.193 18.7632 359.56 17.0366C359.725 16.2644 360.367 15.6857 361.152 15.6032C362.908 15.4187 363.402 13.0955 361.873 12.2129C361.189 11.8182 360.838 11.0282 361.002 10.256Z" fill="#FEE702"/>
<path d="M169.655 123.847C170.022 122.12 167.965 120.933 166.653 122.114C166.066 122.642 165.206 122.732 164.522 122.338C162.994 121.455 161.229 123.044 161.947 124.657C162.268 125.378 162.088 126.224 161.501 126.752C160.19 127.933 161.156 130.103 162.911 129.919C163.696 129.836 164.445 130.269 164.766 130.99C165.484 132.602 167.846 132.354 168.213 130.627C168.377 129.855 169.02 129.277 169.805 129.194C171.561 129.01 172.054 126.686 170.526 125.804C169.842 125.409 169.49 124.619 169.655 123.847Z" fill="#FEE702"/>
<path d="M39.1278 75.7404C39.4948 74.0138 37.4379 72.8263 36.1261 74.0074C35.5395 74.5356 34.6794 74.626 33.9958 74.2313C32.4671 73.3487 30.7021 74.9379 31.42 76.5505C31.7411 77.2717 31.5613 78.1176 30.9747 78.6458C29.6629 79.827 30.6289 81.9967 32.3844 81.8122C33.1695 81.7297 33.9184 82.1621 34.2395 82.8832C34.9575 84.4958 37.3195 84.2476 37.6865 82.5209C37.8507 81.7488 38.4933 81.1701 39.2784 81.0876C41.034 80.9031 41.5278 78.5799 39.9991 77.6973C39.3154 77.3026 38.9637 76.5126 39.1278 75.7404Z" fill="#FEE702"/>
<path d="M36.5815 364.62C36.9485 362.894 34.8917 361.706 33.5799 362.887C32.9932 363.416 32.1332 363.506 31.4495 363.111C29.9208 362.229 28.1558 363.818 28.8738 365.43C29.1948 366.152 29.015 366.997 28.4284 367.526C27.1166 368.707 28.0826 370.877 29.8381 370.692C30.6232 370.61 31.3722 371.042 31.6933 371.763C32.4112 373.376 34.7733 373.127 35.1403 371.401C35.3044 370.629 35.9471 370.05 36.7322 369.967C38.4877 369.783 38.9815 367.46 37.4528 366.577C36.7691 366.182 36.4174 365.392 36.5815 364.62Z" fill="#FEE702"/>
<path d="M349.968 437.341C350.335 435.614 348.278 434.427 346.967 435.608C346.38 436.136 345.52 436.227 344.836 435.832C343.308 434.949 341.543 436.539 342.26 438.151C342.582 438.872 342.402 439.718 341.815 440.246C340.503 441.428 341.469 443.597 343.225 443.413C344.01 443.33 344.759 443.763 345.08 444.484C345.798 446.096 348.16 445.848 348.527 444.122C348.691 443.349 349.334 442.771 350.119 442.688C351.874 442.504 352.368 440.181 350.84 439.298C350.156 438.903 349.804 438.113 349.968 437.341Z" fill="#FEE702"/>
<path d="M115.713 414.393C116.08 412.667 114.023 411.479 112.711 412.66C112.124 413.188 111.264 413.279 110.581 412.884C109.052 412.002 107.287 413.591 108.005 415.203C108.326 415.925 108.146 416.77 107.559 417.299C106.248 418.48 107.214 420.65 108.969 420.465C109.754 420.382 110.503 420.815 110.824 421.536C111.542 423.149 113.904 422.9 114.271 421.174C114.436 420.402 115.078 419.823 115.863 419.74C117.619 419.556 118.113 417.233 116.584 416.35C115.9 415.955 115.548 415.165 115.713 414.393Z" fill="#FEE702"/>
<path d="M358.587 313.426C358.954 311.7 356.897 310.512 355.585 311.693C354.999 312.222 354.139 312.312 353.455 311.917C351.926 311.035 350.161 312.624 350.879 314.237C351.2 314.958 351.021 315.804 350.434 316.332C349.122 317.513 350.088 319.683 351.844 319.498C352.629 319.416 353.378 319.848 353.699 320.569C354.417 322.182 356.779 321.934 357.146 320.207C357.31 319.435 357.953 318.856 358.738 318.774C360.493 318.589 360.987 316.266 359.458 315.383C358.775 314.989 358.423 314.199 358.587 313.426Z" fill="#FEE702"/>
<path d="M351.053 154.767C351.42 153.041 349.363 151.853 348.052 153.034C347.465 153.562 346.605 153.653 345.921 153.258C344.392 152.376 342.627 153.965 343.345 155.577C343.667 156.299 343.487 157.144 342.9 157.673C341.588 158.854 342.554 161.024 344.31 160.839C345.095 160.757 345.844 161.189 346.165 161.91C346.883 163.523 349.245 163.274 349.612 161.548C349.776 160.776 350.419 160.197 351.204 160.114C352.959 159.93 353.453 157.607 351.924 156.724C351.241 156.329 350.889 155.539 351.053 154.767Z" fill="#FEE702"/>
</svg>
