<svg width="280" height="279" viewBox="0 0 280 279" fill="none" xmlns="http://www.w3.org/2000/svg">
<path d="M218.417 27.3779C223.374 25.1917 228.829 29.2228 228.194 34.6029L222.51 82.7766C222.109 86.1745 224.223 89.3644 227.508 90.319L274.09 103.852C279.292 105.364 280.88 111.958 276.935 115.671L241.615 148.921C239.124 151.266 238.693 155.068 240.597 157.912L267.581 198.221C270.595 202.723 267.572 208.795 262.164 209.104L213.735 211.871C210.319 212.066 207.545 214.702 207.175 218.104L201.936 266.328C201.351 271.714 195.133 274.422 190.791 271.182L151.913 242.172C149.171 240.126 145.352 240.362 142.882 242.73L107.871 276.305C103.961 280.054 97.4564 278.132 96.2129 272.859L85.078 225.647C84.2926 222.316 81.215 220.042 77.801 220.269L29.3997 223.484C23.9942 223.843 20.2472 218.189 22.6838 213.351L44.5018 170.026C46.0407 166.97 45.145 163.25 42.384 161.229L3.24008 132.58C-1.13153 129.38 -0.367868 122.641 4.60882 120.501L49.1707 101.336C52.3138 99.9847 54.0193 96.5589 53.2031 93.2362L41.6324 46.1284C40.3402 40.8674 45.2572 36.1956 50.4453 37.755L96.9001 51.7183C100.177 52.7031 103.685 51.175 105.196 48.1051L126.613 4.58095C129.004 -0.279845 135.774 -0.698071 138.746 3.83136L165.357 44.3884C167.234 47.2491 170.904 48.3337 174.034 46.953L218.417 27.3779Z" fill="#FEE702"/>
</svg>
