<svg width="154" height="184" viewBox="0 0 154 184" fill="none" xmlns="http://www.w3.org/2000/svg">
<path d="M86.3228 114.189L53.5283 103.729C38.5064 98.9376 30.1839 82.8193 34.9753 67.7975C36.5661 62.8101 41.8965 60.0578 46.8839 61.6486C51.8712 63.2394 54.6235 68.5698 53.0327 73.5571C51.417 78.6226 54.2225 84.0559 59.2879 85.6716L92.0824 96.1319" fill="#7000FF"/>
<path fill-rule="evenodd" clip-rule="evenodd" d="M94.0502 96.7613C94.3968 95.6748 93.797 94.5132 92.7105 94.1666L59.916 83.7063C55.937 82.4372 53.7314 78.1655 55.0005 74.1865C56.9379 68.1127 53.5858 61.6207 47.5119 59.6833C41.4381 57.746 34.9461 61.0981 33.0087 67.1719C27.8708 83.2802 36.7931 100.56 52.9014 105.698L85.6959 116.158L86.9508 112.224L54.1563 101.764C40.221 97.3189 32.4982 82.3622 36.9431 68.4268C38.1874 64.5259 42.3561 62.3734 46.257 63.6177C50.1579 64.862 52.3104 69.0307 51.0661 72.9316C49.1039 79.0835 52.5092 85.6785 58.6611 87.6407L91.4556 98.101C92.542 98.4476 93.7037 97.8477 94.0502 96.7613Z" fill="#3A179D"/>
<rect x="45.6772" y="51.7739" width="4.91037" height="17.9171" rx="2.45518" transform="rotate(12.2599 45.6772 51.7739)" fill="#CDCDCD"/>
<path d="M53.122 69.8584C52.9661 72.0488 51.5592 76.3518 44.7208 74.014C40.9283 72.7175 41.2682 67.5179 46.8009 68.9683" stroke="#3A179D" stroke-width="4" stroke-linecap="round"/>
<path d="M76.466 40.9707C77.175 43.7395 76.3531 46.6762 74.3099 48.6747L62.4741 60.2509C60.4308 62.2494 57.4766 63.0059 54.7242 62.2356L38.7811 57.7737C36.0287 57.0034 33.8964 54.8232 33.1873 52.0545L29.0799 36.0163C28.3708 33.2475 29.1927 30.3108 31.236 28.3123L43.0717 16.7361C45.115 14.7377 48.0693 13.9811 50.8216 14.7514L66.7648 19.2134C69.5171 19.9837 71.6495 22.1638 72.3586 24.9326L76.466 40.9707Z" fill="#3A179D"/>
<path d="M71.6237 40.6539C72.1555 42.7304 71.5391 44.933 70.0067 46.4318L60.327 55.8992C58.7946 57.398 56.5789 57.9655 54.5146 57.3877L41.4759 53.7386C39.4116 53.1609 37.8123 51.5258 37.2805 49.4492L33.9214 36.3327C33.3896 34.2562 34.006 32.0536 35.5385 30.5548L45.2181 21.0874C46.7505 19.5886 48.9662 19.0211 51.0305 19.5989L64.0692 23.248C66.1335 23.8257 67.7328 25.4608 68.2646 27.5374L71.6237 40.6539Z" fill="#F5F5F5"/>
<path d="M42.4836 37.4074L47.9921 38.8726L47.1335 42.1004L41.6251 40.6351L42.4836 37.4074ZM37.9116 41.7583L46.0707 29.835L49.5691 30.7655L50.3008 45.0538L46.7831 44.1181L46.5014 32.4951L47.893 32.8653L41.4099 42.6888L37.9116 41.7583ZM55.5305 44.6444L58.1371 34.8451L61.6547 35.7808L59.0482 45.5801L55.5305 44.6444ZM53.325 40.643L54.235 37.2219L63.8796 39.7874L62.9696 43.2084L53.325 40.643Z" fill="#3A179D"/>
<ellipse cx="122.438" cy="175.907" rx="77.9049" ry="8.10211" fill="#CDCDCD"/>
<path d="M103.217 107.107V141.529C103.217 157.296 116.044 170.123 131.812 170.123C137.047 170.123 141.289 165.882 141.289 160.647C141.289 155.412 137.047 151.17 131.812 151.17C126.495 151.17 122.171 146.846 122.171 141.529V107.107" fill="#7000FF"/>
<path fill-rule="evenodd" clip-rule="evenodd" d="M103.218 105.042C104.359 105.042 105.283 105.966 105.283 107.107V141.529C105.283 156.156 117.186 168.059 131.813 168.059C135.907 168.059 139.225 164.741 139.225 160.647C139.225 156.552 135.907 153.235 131.813 153.235C125.355 153.235 120.107 147.986 120.107 141.529V107.107C120.107 105.966 121.032 105.042 122.172 105.042C123.312 105.042 124.237 105.966 124.237 107.107V141.529C124.237 145.706 127.636 149.105 131.813 149.105C138.188 149.105 143.354 154.271 143.354 160.647C143.354 167.022 138.188 172.188 131.813 172.188C114.905 172.188 101.153 158.437 101.153 141.529V107.107C101.153 105.966 102.078 105.042 103.218 105.042Z" fill="#3A179D"/>
<path d="M128.984 0.5C105.052 0.5 85.6244 20.0707 85.6244 44.1785V120.261H172.348L172.348 44.1834C172.348 20.0756 152.915 0.5 128.984 0.5Z" fill="#7000FF"/>
<path fill-rule="evenodd" clip-rule="evenodd" d="M89.7541 44.1785C89.7541 22.3229 107.361 4.62968 128.984 4.62968C150.606 4.62968 168.218 22.3278 168.218 44.1834V116.131H89.7541V44.1785ZM85.6244 44.1785C85.6244 20.0707 105.052 0.5 128.984 0.5C152.915 0.5 172.348 20.0756 172.348 44.1834V120.261H85.6244V44.1785Z" fill="#3A179D"/>
<path d="M89.1498 88.4795C95.6921 88.4795 101.019 83.1584 101.019 76.6161V65.0799C101.019 58.5377 95.6975 53.2112 89.1498 53.2112C82.6021 53.2112 77.2865 58.5322 77.2865 65.0799V76.6161C77.2865 83.1584 82.6075 88.4795 89.1498 88.4795Z" fill="#F5F5F5"/>
<path fill-rule="evenodd" clip-rule="evenodd" d="M89.1506 91.2327C97.2117 91.2327 103.772 84.6806 103.772 76.6162V65.08C103.772 57.0181 97.2196 50.4581 89.1506 50.4581C81.0807 50.4581 74.5341 57.0134 74.5341 65.08V76.6162C74.5341 84.679 81.0878 91.2327 89.1506 91.2327ZM101.019 76.6162C101.019 83.1585 95.6928 88.4796 89.1506 88.4796C82.6083 88.4796 77.2872 83.1585 77.2872 76.6162V65.08C77.2872 58.5323 82.6028 53.2112 89.1506 53.2112C95.6983 53.2112 101.019 58.5377 101.019 65.08V76.6162Z" fill="#3A179D"/>
<path d="M89.1497 54.3016C83.2071 54.3016 78.3767 59.1374 78.3767 65.0745V76.6108C78.3767 82.5533 83.2126 87.3837 89.1551 87.3837C95.0977 87.3837 99.9335 82.5479 99.9335 76.6108V65.0745C99.9335 59.132 95.0977 54.3016 89.1551 54.3016M89.1551 52.1208C96.308 52.1208 102.114 57.9217 102.114 65.0745V76.6108C102.114 83.7691 96.3134 89.5644 89.1551 89.5644C82.0022 89.5644 76.2014 83.7636 76.2014 76.6108V65.0745C76.2014 57.9162 82.0022 52.1208 89.1551 52.1208Z" fill="#3A179D"/>
<path d="M84.3524 63.3023C84.3524 60.6526 86.5004 58.5046 89.1501 58.5046C91.7998 58.5046 93.9478 60.6526 93.9478 63.3023V71.0658C93.9478 73.7155 91.7998 75.8635 89.1501 75.8635C86.5004 75.8635 84.3524 73.7155 84.3524 71.0658V63.3023Z" fill="#262626"/>
<path d="M84.6132 60.3748C84.6132 58.9737 85.7526 57.8342 87.1538 57.8342C88.5549 57.8342 89.6943 58.9737 89.6943 60.3748C89.6943 61.7759 88.5549 62.9154 87.1538 62.9154C85.7526 62.9154 84.6132 61.7759 84.6132 60.3748Z" fill="#F5F5F5"/>
<path d="M124.961 88.4795C131.503 88.4795 136.83 83.1584 136.83 76.6161V65.0799C136.83 58.5377 131.509 53.2112 124.961 53.2112C118.413 53.2112 113.097 58.5322 113.097 65.0799V76.6161C113.097 83.1584 118.419 88.4795 124.961 88.4795Z" fill="#F5F5F5"/>
<path fill-rule="evenodd" clip-rule="evenodd" d="M124.958 91.2327C133.019 91.2327 139.58 84.6806 139.58 76.6162V65.08C139.58 57.0181 133.027 50.4581 124.958 50.4581C116.888 50.4581 110.342 57.0134 110.342 65.08V76.6162C110.342 84.679 116.895 91.2327 124.958 91.2327ZM136.827 76.6162C136.827 83.1585 131.5 88.4796 124.958 88.4796C118.416 88.4796 113.095 83.1585 113.095 76.6162V65.08C113.095 58.5323 118.41 53.2112 124.958 53.2112C131.506 53.2112 136.827 58.5377 136.827 65.08V76.6162Z" fill="#3A179D"/>
<path d="M124.96 54.3016C119.017 54.3016 114.187 59.1374 114.187 65.0745V76.6108C114.187 82.5533 119.023 87.3837 124.965 87.3837C130.908 87.3837 135.744 82.5479 135.744 76.6108V65.0745C135.744 59.132 130.908 54.3016 124.965 54.3016M124.965 52.1208C132.118 52.1208 137.924 57.9217 137.924 65.0745V76.6108C137.924 83.7691 132.124 89.5644 124.965 89.5644C117.812 89.5644 112.011 83.7636 112.011 76.6108V65.0745C112.011 57.9162 117.812 52.1208 124.965 52.1208Z" fill="#3A179D"/>
<path d="M120.161 63.3023C120.161 60.6526 122.309 58.5046 124.958 58.5046C127.608 58.5046 129.756 60.6526 129.756 63.3023V71.0658C129.756 73.7155 127.608 75.8635 124.958 75.8635C122.309 75.8635 120.161 73.7155 120.161 71.0658V63.3023Z" fill="#262626"/>
<path d="M120.423 60.3748C120.423 58.9737 121.562 57.8342 122.963 57.8342C124.364 57.8342 125.504 58.9737 125.504 60.3748C125.504 61.7759 124.364 62.9154 122.963 62.9154C121.562 62.9154 120.423 61.7759 120.423 60.3748Z" fill="#F5F5F5"/>
<path d="M151.021 37.6799C148.756 37.6799 146.921 35.8443 146.921 33.58C146.921 31.3156 148.756 29.48 151.021 29.48C153.285 29.48 155.121 31.3156 155.121 33.58C155.121 35.8443 153.285 37.6799 151.021 37.6799Z" fill="#FEE702"/>
<path d="M140.671 34.074C138.975 34.074 137.6 32.6991 137.6 31.0031C137.6 29.3071 138.975 27.9323 140.671 27.9323C142.367 27.9323 143.742 29.3071 143.742 31.0031C143.742 32.6991 142.367 34.074 140.671 34.074Z" fill="#FEE702"/>
<path d="M146.212 25.4787C145.016 25.4787 144.047 24.5093 144.047 23.3134C144.047 22.1176 145.016 21.1482 146.212 21.1482C147.408 21.1482 148.377 22.1176 148.377 23.3134C148.377 24.5093 147.408 25.4787 146.212 25.4787Z" fill="#FEE702"/>
<path fill-rule="evenodd" clip-rule="evenodd" d="M92.8501 43.16C93.4075 44.133 94.6438 44.4849 95.6321 43.9444C96.6326 43.3972 97.0001 42.1426 96.4529 41.142L94.6413 42.1328C96.4529 41.142 96.4524 41.141 96.4518 41.14L96.4507 41.138L96.4483 41.1336L96.4431 41.1243L96.431 41.1029C96.4222 41.0874 96.4118 41.0695 96.3998 41.0494C96.3758 41.0091 96.3454 40.9598 96.3083 40.9027C96.2342 40.7888 96.1325 40.6429 96.0008 40.4762C95.7384 40.1438 95.3503 39.7201 94.8164 39.3018C93.7267 38.448 92.078 37.6583 89.8086 37.6674M92.8501 43.16C92.8493 43.1587 92.8483 43.1572 92.8471 43.1554C92.8354 43.1373 92.8065 43.0947 92.7596 43.0352C92.6648 42.9152 92.5037 42.7361 92.2694 42.5525C91.8227 42.2025 91.0591 41.792 89.8246 41.7971L89.8236 41.7971C88.2764 41.8027 87.5497 42.2545 87.2414 42.515C87.0704 42.6595 86.9755 42.7901 86.9318 42.8596C86.9204 42.8778 86.9125 42.8916 86.9079 42.9002C86.4997 43.9221 85.3541 44.4492 84.3062 44.0808C83.2303 43.7026 82.6648 42.5239 83.0429 41.4481L84.9909 42.1328C83.0429 41.4481 83.0434 41.4466 83.0439 41.4452L83.045 41.4423L83.0471 41.4363L83.0517 41.4235L83.0623 41.3952C83.0699 41.375 83.0787 41.3524 83.0889 41.3274C83.1092 41.2776 83.1348 41.2183 83.1665 41.151C83.2297 41.0166 83.3178 40.849 83.4367 40.66C83.6748 40.2816 84.0388 39.8147 84.5758 39.3609C85.6833 38.4249 87.3689 37.6765 89.8076 37.6674" fill="#3A179D"/>
<path fill-rule="evenodd" clip-rule="evenodd" d="M127.953 43.8481C128.511 44.8211 129.747 45.173 130.735 44.6325C131.736 44.0853 132.103 42.8307 131.556 41.8301L129.744 42.8209C131.556 41.8301 131.555 41.8291 131.555 41.8281L131.554 41.8261L131.551 41.8217L131.546 41.8124L131.534 41.791C131.525 41.7755 131.515 41.7576 131.503 41.7375C131.479 41.6972 131.448 41.6479 131.411 41.5909C131.337 41.4769 131.235 41.331 131.104 41.1643C130.841 40.8319 130.453 40.4082 129.919 39.9899C128.83 39.1361 127.181 38.3464 124.912 38.3555M127.953 43.8481C127.952 43.8468 127.951 43.8453 127.95 43.8435C127.938 43.8254 127.91 43.7828 127.863 43.7233C127.768 43.6033 127.607 43.4242 127.372 43.2406C126.926 42.8906 126.162 42.4801 124.928 42.4852L124.927 42.4852C123.379 42.4908 122.653 42.9426 122.344 43.2032C122.173 43.3476 122.079 43.4782 122.035 43.5477C122.023 43.5659 122.016 43.5797 122.011 43.5883C121.603 44.6102 120.457 45.1373 119.409 44.7689C118.333 44.3907 117.768 43.212 118.146 42.1362L120.094 42.8209C118.146 42.1362 118.146 42.1348 118.147 42.1333L118.148 42.1304L118.15 42.1244L118.155 42.1116L118.165 42.0833C118.173 42.0631 118.182 42.0405 118.192 42.0155C118.212 41.9657 118.238 41.9064 118.27 41.8391C118.333 41.7047 118.421 41.5371 118.54 41.3481C118.778 40.9697 119.142 40.5028 119.679 40.049C120.786 39.113 122.472 38.3646 124.911 38.3556" fill="#3A179D"/>
<path fill-rule="evenodd" clip-rule="evenodd" d="M104.677 91.7023C104.119 90.7293 102.883 90.3774 101.895 90.9179C100.894 91.4651 100.527 92.7198 101.074 93.7203L102.886 92.7295C101.074 93.7203 101.074 93.7213 101.075 93.7223L101.076 93.7244L101.079 93.7287L101.084 93.738L101.096 93.7594C101.105 93.7749 101.115 93.7928 101.127 93.813C101.151 93.8532 101.181 93.9025 101.219 93.9596C101.293 94.0735 101.394 94.2194 101.526 94.3861C101.788 94.7185 102.177 95.1422 102.71 95.5605C103.8 96.4143 105.449 97.204 107.718 97.1949M104.677 91.7023C104.678 91.7036 104.679 91.7051 104.68 91.7069C104.692 91.725 104.72 91.7677 104.767 91.8271C104.862 91.9471 105.023 92.1262 105.257 92.3098C105.704 92.6598 106.468 93.0703 107.702 93.0652L107.703 93.0652C109.25 93.0596 109.977 92.6078 110.285 92.3473C110.456 92.2028 110.551 92.0722 110.595 92.0028C110.606 91.9845 110.614 91.9707 110.619 91.9621C111.027 90.9402 112.173 90.4131 113.221 90.7815C114.297 91.1597 114.862 92.3384 114.484 93.4142L112.536 92.7295C114.484 93.4142 114.483 93.4157 114.483 93.4171L114.482 93.42L114.48 93.426L114.475 93.4388L114.465 93.4671C114.457 93.4873 114.448 93.5099 114.438 93.5349C114.418 93.5847 114.392 93.644 114.36 93.7113C114.297 93.8457 114.209 94.0134 114.09 94.2023C113.852 94.5807 113.488 95.0476 112.951 95.5014C111.844 96.4374 110.158 97.1858 107.719 97.1949" fill="#3A179D"/>
<path d="M106.917 110.825V145.247C106.917 161.015 94.09 173.842 78.3225 173.842C73.0876 173.842 68.8457 169.6 68.8457 164.365C68.8457 159.13 73.0876 154.888 78.3225 154.888C83.6394 154.888 87.9633 150.564 87.9633 145.247V110.825" fill="#7000FF"/>
<path fill-rule="evenodd" clip-rule="evenodd" d="M106.917 108.76C105.776 108.76 104.852 109.685 104.852 110.825V145.247C104.852 159.874 92.9492 171.777 78.3221 171.777C74.2276 171.777 70.9101 168.459 70.9101 164.365C70.9101 160.27 74.2276 156.953 78.3221 156.953C84.7794 156.953 90.0277 151.705 90.0277 145.247V110.825C90.0277 109.685 89.1033 108.76 87.9629 108.76C86.8225 108.76 85.898 109.685 85.898 110.825V145.247C85.898 149.424 82.4986 152.823 78.3221 152.823C71.9468 152.823 66.7804 157.99 66.7804 164.365C66.7804 170.74 71.9468 175.907 78.3221 175.907C95.23 175.907 108.981 162.155 108.981 145.247V110.825C108.981 109.685 108.057 108.76 106.917 108.76Z" fill="#3A179D"/>
<path d="M122.904 106.126V140.549C122.904 156.316 110.077 169.143 94.3093 169.143C89.0744 169.143 84.8325 164.901 84.8325 159.666C84.8325 154.431 89.0744 150.19 94.3093 150.19C99.6262 150.19 103.95 145.866 103.95 140.549V106.126" fill="#7000FF"/>
<path fill-rule="evenodd" clip-rule="evenodd" d="M122.902 104.061C121.762 104.061 120.838 104.986 120.838 106.126V140.549C120.838 155.176 108.935 167.078 94.308 167.078C90.2134 167.078 86.896 163.761 86.896 159.666C86.896 155.572 90.2134 152.254 94.308 152.254C100.765 152.254 106.014 147.006 106.014 140.549V106.126C106.014 104.986 105.089 104.061 103.949 104.061C102.808 104.061 101.884 104.986 101.884 106.126V140.549C101.884 144.725 98.4845 148.124 94.308 148.124C87.9327 148.124 82.7663 153.291 82.7663 159.666C82.7663 166.041 87.9326 171.208 94.308 171.208C111.216 171.208 124.967 157.456 124.967 140.549V106.126C124.967 104.986 124.043 104.061 122.902 104.061Z" fill="#3A179D"/>
<path d="M150.82 107.872V142.887C150.82 158.924 163.868 171.973 179.911 171.973C185.237 171.973 189.551 167.659 189.551 162.332C189.551 157.006 185.237 152.691 179.911 152.691C174.502 152.691 170.101 148.29 170.101 142.887V107.872" fill="#7000FF"/>
<path fill-rule="evenodd" clip-rule="evenodd" d="M170.102 105.807C168.962 105.807 168.037 106.731 168.037 107.872V142.887C168.037 149.432 173.363 154.756 179.912 154.756C184.098 154.756 187.488 158.146 187.488 162.332C187.488 166.518 184.098 169.908 179.912 169.908C165.01 169.908 152.885 157.784 152.885 142.887V107.872H148.756V142.887C148.756 160.065 162.729 174.038 179.912 174.038C186.378 174.038 191.617 168.799 191.617 162.332C191.617 155.865 186.378 150.627 179.912 150.627C175.643 150.627 172.167 147.149 172.167 142.887V107.872C172.167 106.731 171.243 105.807 170.102 105.807Z" fill="#3A179D"/>
<path d="M142.936 107.107V142.122C142.936 158.159 155.985 171.208 172.027 171.208C177.353 171.208 181.667 166.894 181.667 161.567C181.667 156.241 177.353 151.926 172.027 151.926C166.618 151.926 162.217 147.525 162.217 142.122V107.107" fill="#7000FF"/>
<path fill-rule="evenodd" clip-rule="evenodd" d="M162.218 105.042C161.077 105.042 160.153 105.966 160.153 107.107V142.122C160.153 148.666 165.479 153.991 172.027 153.991C176.213 153.991 179.603 157.381 179.603 161.567C179.603 165.753 176.213 169.143 172.027 169.143C157.125 169.143 145.001 157.019 145.001 142.122V107.107C145.001 105.966 144.077 105.042 142.936 105.042C141.796 105.042 140.872 105.966 140.872 107.107V142.122C140.872 159.3 154.845 173.273 172.027 173.273C178.494 173.273 183.733 168.034 183.733 161.567C183.733 155.1 178.494 149.862 172.027 149.862C167.759 149.862 164.283 146.384 164.283 142.122V107.107C164.283 105.966 163.358 105.042 162.218 105.042Z" fill="#3A179D"/>
<path d="M122.754 107.107V141.529C122.754 157.296 135.581 170.123 151.348 170.123C156.583 170.123 160.825 165.882 160.825 160.647C160.825 155.412 156.583 151.17 151.348 151.17C146.032 151.17 141.708 146.846 141.708 141.529V107.107" fill="#7000FF"/>
<path fill-rule="evenodd" clip-rule="evenodd" d="M122.755 105.042C123.896 105.042 124.82 105.966 124.82 107.107V141.529C124.82 156.156 136.723 168.059 151.35 168.059C155.444 168.059 158.762 164.741 158.762 160.647C158.762 156.552 155.444 153.235 151.35 153.235C144.892 153.235 139.644 147.986 139.644 141.529V107.107C139.644 105.966 140.569 105.042 141.709 105.042C142.849 105.042 143.774 105.966 143.774 107.107V141.529C143.774 145.706 147.173 149.105 151.35 149.105C157.725 149.105 162.891 154.271 162.891 160.647C162.891 167.022 157.725 172.188 151.35 172.188C134.442 172.188 120.69 158.437 120.69 141.529V107.107C120.69 105.966 121.615 105.042 122.755 105.042Z" fill="#3A179D"/>
</svg>
