<svg width="80" height="101" viewBox="0 0 80 101" fill="none" xmlns="http://www.w3.org/2000/svg">
<path d="M42.3906 69.6567V85.3694C42.3906 92.5667 36.3553 98.4218 28.9366 98.4218C26.4735 98.4218 24.4776 96.4855 24.4776 94.096C24.4776 91.7064 26.4735 89.7701 28.9366 89.7701C31.4382 89.7701 33.4727 87.7964 33.4727 85.3694V69.6567" fill="#FF4C4C"/>
<path fill-rule="evenodd" clip-rule="evenodd" d="M42.3898 68.7139C41.8532 68.7139 41.4183 69.1359 41.4183 69.6564V85.3691C41.4183 92.0459 35.818 97.479 28.9357 97.479C27.0092 97.479 25.4483 95.9647 25.4483 94.0956C25.4483 92.2266 27.0092 90.7123 28.9357 90.7123C31.974 90.7123 34.4434 88.3166 34.4434 85.3691V69.6564C34.4434 69.1359 34.0084 68.7139 33.4718 68.7139C32.9353 68.7139 32.5003 69.1359 32.5003 69.6564V85.3691C32.5003 87.2755 30.9008 88.8272 28.9357 88.8272C25.9361 88.8272 23.5052 91.1855 23.5052 94.0956C23.5052 97.0058 25.9361 99.364 28.9357 99.364C36.8911 99.364 43.3613 93.0869 43.3613 85.3691V69.6564C43.3613 69.1359 42.9264 68.7139 42.3898 68.7139Z" fill="#7A0000"/>
<path d="M45.7588 79.7437L61.0867 74.4416C68.1078 72.013 71.8441 64.5584 69.4159 57.8236C68.6097 55.5876 66.0676 54.4291 63.7365 55.2354C61.4054 56.0418 60.1698 58.507 60.976 60.743C61.7948 63.014 60.5353 65.5269 58.1678 66.3459L42.8399 71.6479" fill="#FF4C4C"/>
<path fill-rule="evenodd" clip-rule="evenodd" d="M41.9184 71.968C41.7428 71.4808 42.0121 70.9434 42.52 70.7677L57.8498 65.4647C59.7098 64.8213 60.7001 62.8453 60.0568 61.0611C59.0749 58.3374 60.58 55.3344 63.4192 54.3522C66.2584 53.37 69.3549 54.7813 70.3369 57.5049C72.9411 64.7282 68.935 72.7215 61.4051 75.3263L46.0753 80.6293L45.4393 78.865L60.7691 73.562C67.2832 71.3086 70.7507 64.39 68.4978 58.1411C67.8671 56.3918 65.8787 55.4857 64.0552 56.1165C62.2317 56.7473 61.2653 58.6756 61.8959 60.4248C62.8905 63.1835 61.3615 66.2342 58.4858 67.229L43.156 72.532C42.6482 72.7077 42.0941 72.4551 41.9184 71.968Z" fill="#7A0000"/>
<path d="M30.2676 20.9941C41.5277 20.9941 50.6686 29.9275 50.6686 40.932V75.661H9.86426L9.86426 40.9342C9.86426 29.9298 19.0075 20.9941 30.2676 20.9941Z" fill="#FF4C4C"/>
<path fill-rule="evenodd" clip-rule="evenodd" d="M48.7256 40.932C48.7256 30.9556 40.4411 22.8792 30.2676 22.8792C20.094 22.8792 11.8073 30.9578 11.8073 40.9342V73.7759H48.7256V40.932ZM50.6686 40.932C50.6686 29.9275 41.5277 20.9941 30.2676 20.9941C19.0075 20.9941 9.86426 29.9298 9.86426 40.9342V75.661H50.6686V40.932Z" fill="#7A0000"/>
<path d="M49.0092 61.1535C45.931 61.1535 43.4248 58.7246 43.4248 55.7383V50.4724C43.4248 47.4861 45.9284 45.0547 49.0092 45.0547C52.09 45.0547 54.5911 47.4836 54.5911 50.4724V55.7383C54.5911 58.7246 52.0874 61.1535 49.0092 61.1535Z" fill="white"/>
<path fill-rule="evenodd" clip-rule="evenodd" d="M49.0092 62.4106C45.2163 62.4106 42.1294 59.4198 42.1294 55.7387V50.4728C42.1294 46.7927 45.2126 43.7983 49.0092 43.7983C52.8061 43.7983 55.8864 46.7906 55.8864 50.4728V55.7387C55.8864 59.419 52.8028 62.4106 49.0092 62.4106ZM43.4248 55.7387C43.4248 58.725 45.931 61.1539 49.0092 61.1539C52.0874 61.1539 54.591 58.725 54.591 55.7387V50.4728C54.591 47.4839 52.09 45.055 49.0092 45.055C45.9284 45.055 43.4248 47.4864 43.4248 50.4728V55.7387Z" fill="#7A0000"/>
<path d="M49.0097 45.5521C51.8057 45.5521 54.0785 47.7595 54.0785 50.4696V55.7355C54.0785 58.4481 51.8032 60.653 49.0071 60.653C46.2111 60.653 43.9357 58.4456 43.9357 55.7355V50.4696C43.9357 47.757 46.2111 45.5521 49.0071 45.5521M49.0071 44.5566C45.6416 44.5566 42.9097 47.2045 42.9097 50.4696V55.7355C42.9097 59.003 45.639 61.6484 49.0071 61.6484C52.3726 61.6484 55.102 59.0005 55.102 55.7355V50.4696C55.102 47.202 52.3726 44.5566 49.0071 44.5566Z" fill="#7A0000"/>
<path d="M50.3594 50.1138C50.3594 48.9043 49.3488 47.9238 48.1021 47.9238C46.8554 47.9238 45.8447 48.9043 45.8447 50.1138V53.6576C45.8447 54.8671 46.8554 55.8476 48.1021 55.8476C49.3488 55.8476 50.3594 54.8671 50.3594 53.6576V50.1138Z" fill="#1C1C1C"/>
<path d="M50.2369 48.7779C50.2369 48.1383 49.7008 47.6182 49.0416 47.6182C48.3823 47.6182 47.8462 48.1383 47.8462 48.7779C47.8462 49.4174 48.3823 49.9376 49.0416 49.9376C49.7008 49.9376 50.2369 49.4174 50.2369 48.7779Z" fill="white"/>
<path d="M32.1601 61.1535C29.0819 61.1535 26.5757 58.7246 26.5757 55.7383V50.4724C26.5757 47.4861 29.0793 45.0547 32.1601 45.0547C35.2409 45.0547 37.7419 47.4836 37.7419 50.4724V55.7383C37.7419 58.7246 35.2383 61.1535 32.1601 61.1535Z" fill="white"/>
<path fill-rule="evenodd" clip-rule="evenodd" d="M32.1615 62.4106C28.3687 62.4106 25.2817 59.4198 25.2817 55.7387V50.4728C25.2817 46.7927 28.3649 43.7983 32.1615 43.7983C35.9585 43.7983 39.0387 46.7906 39.0387 50.4728V55.7387C39.0387 59.419 35.9552 62.4106 32.1615 62.4106ZM26.5771 55.7387C26.5771 58.725 29.0833 61.1539 32.1615 61.1539C35.2397 61.1539 37.7434 58.725 37.7434 55.7387V50.4728C37.7434 47.4839 35.2423 45.055 32.1615 45.055C29.0807 45.055 26.5771 47.4864 26.5771 50.4728V55.7387Z" fill="#7A0000"/>
<path d="M32.161 45.5521C34.9571 45.5521 37.2298 47.7595 37.2298 50.4696V55.7355C37.2298 58.4481 34.9545 60.653 32.1585 60.653C29.3624 60.653 27.0871 58.4456 27.0871 55.7355V50.4696C27.0871 47.757 29.3624 45.5521 32.1585 45.5521M32.1585 44.5566C28.793 44.5566 26.061 47.2045 26.061 50.4696V55.7355C26.061 59.003 28.7904 61.6484 32.1585 61.6484C35.524 61.6484 38.2534 59.0005 38.2534 55.7355V50.4696C38.2534 47.202 35.524 44.5566 32.1585 44.5566Z" fill="#7A0000"/>
<path d="M33.5118 50.1137C33.5118 48.9042 32.5011 47.9237 31.2544 47.9237C30.0077 47.9237 28.9971 48.9042 28.9971 50.1137V53.6575C28.9971 54.867 30.0077 55.8474 31.2544 55.8474C32.5011 55.8474 33.5118 54.867 33.5118 53.6575V50.1137Z" fill="#1C1C1C"/>
<path d="M33.3888 48.7777C33.3888 48.1382 32.8527 47.618 32.1934 47.618C31.5342 47.618 30.998 48.1382 30.998 48.7777C30.998 49.4173 31.5342 49.9374 32.1934 49.9374C32.8527 49.9374 33.3888 49.4173 33.3888 48.7777Z" fill="white"/>
<path fill-rule="evenodd" clip-rule="evenodd" d="M47.2686 36.5262C47.0063 36.9704 46.4247 37.131 45.9596 36.8843C45.4889 36.6345 45.316 36.0618 45.5734 35.6051L46.4258 36.0574C45.5734 35.6051 45.5737 35.6047 45.574 35.6042L45.5745 35.6033L45.5756 35.6013L45.578 35.597L45.5837 35.5872C45.5879 35.5802 45.5928 35.572 45.5984 35.5628C45.6097 35.5444 45.624 35.5219 45.6415 35.4959C45.6764 35.4439 45.7242 35.3773 45.7862 35.3012C45.9096 35.1495 46.0922 34.956 46.3434 34.7651C46.8562 34.3754 47.6319 34.0149 48.6997 34.0191M47.2686 36.5262C47.269 36.5257 47.2695 36.525 47.27 36.5242C47.2755 36.5159 47.2891 36.4964 47.3112 36.4693C47.3558 36.4145 47.4316 36.3328 47.5418 36.2489C47.752 36.0892 48.1113 35.9018 48.6921 35.9041L48.6926 35.9041C49.4206 35.9067 49.7625 36.1129 49.9076 36.2319C49.988 36.2978 50.0327 36.3574 50.0532 36.3891C50.0586 36.3974 50.0623 36.4038 50.0645 36.4077C50.2565 36.8741 50.7955 37.1147 51.2886 36.9466C51.7948 36.7739 52.0609 36.2359 51.883 35.7448L50.9664 36.0574C51.883 35.7448 51.8828 35.7442 51.8825 35.7435L51.882 35.7422L51.881 35.7394L51.8789 35.7336L51.8739 35.7207C51.8703 35.7115 51.8662 35.7011 51.8614 35.6897C51.8518 35.667 51.8398 35.6399 51.8249 35.6092C51.7951 35.5478 51.7537 35.4713 51.6977 35.3851C51.5857 35.2123 51.4144 34.9992 51.1618 34.7921C50.6407 34.3648 49.8476 34.0232 48.7001 34.0191" fill="#7A0000"/>
<path fill-rule="evenodd" clip-rule="evenodd" d="M30.752 40.7811C30.4897 41.2253 29.908 41.3859 29.443 41.1392C28.9723 40.8894 28.7994 40.3167 29.0568 39.86L29.9092 40.3123C29.0568 39.86 29.0571 39.8595 29.0574 39.8591L29.0579 39.8581L29.059 39.8562L29.0614 39.8519L29.0671 39.8421C29.0713 39.8351 29.0762 39.8269 29.0818 39.8177C29.0931 39.7993 29.1074 39.7768 29.1249 39.7508C29.1598 39.6988 29.2076 39.6322 29.2696 39.556C29.393 39.4044 29.5756 39.2109 29.8268 39.02C30.3396 38.6303 31.1153 38.2698 32.1831 38.274M30.752 40.7811C30.7524 40.7805 30.7529 40.7798 30.7534 40.779C30.7589 40.7708 30.7725 40.7513 30.7946 40.7242C30.8392 40.6694 30.915 40.5876 31.0252 40.5038C31.2354 40.3441 31.5947 40.1567 32.1755 40.159L32.176 40.159C32.904 40.1616 33.2459 40.3678 33.391 40.4867C33.4714 40.5527 33.5161 40.6123 33.5366 40.644C33.542 40.6523 33.5457 40.6586 33.5479 40.6625C33.7399 41.129 34.2789 41.3696 34.772 41.2015C35.2782 41.0288 35.5443 40.4908 35.3664 39.9997L34.4498 40.3123C35.3664 39.9997 35.3662 39.999 35.3659 39.9984L35.3654 39.9971L35.3644 39.9943L35.3623 39.9885L35.3573 39.9755C35.3537 39.9663 35.3496 39.956 35.3448 39.9446C35.3352 39.9219 35.3232 39.8948 35.3083 39.8641C35.2785 39.8027 35.2371 39.7262 35.1811 39.64C35.0691 39.4672 34.8979 39.2541 34.6452 39.047C34.1241 38.6197 33.331 38.2781 32.1835 38.274" fill="#7A0000"/>
<path d="M40.6494 70.4111V86.1238C40.6494 93.3211 46.6847 99.1762 54.1035 99.1762C56.5666 99.1762 58.5625 97.2399 58.5625 94.8504C58.5625 92.4608 56.5666 90.5245 54.1035 90.5245C51.6018 90.5245 49.5674 88.5508 49.5674 86.1238V70.4111" fill="#FF4C4C"/>
<path fill-rule="evenodd" clip-rule="evenodd" d="M40.6498 69.4683C41.1863 69.4683 41.6213 69.8902 41.6213 70.4108V86.1235C41.6213 92.8002 47.2216 98.2334 54.1038 98.2334C56.0304 98.2334 57.5913 96.7191 57.5913 94.85C57.5913 92.981 56.0304 91.4667 54.1038 91.4667C51.0656 91.4667 48.5962 89.071 48.5962 86.1235V70.4108C48.5962 69.8902 49.0312 69.4683 49.5677 69.4683C50.1043 69.4683 50.5393 69.8902 50.5393 70.4108V86.1235C50.5393 88.0299 52.1387 89.5816 54.1038 89.5816C57.1035 89.5816 59.5343 91.9399 59.5343 94.85C59.5343 97.7601 57.1035 100.118 54.1038 100.118C46.1485 100.118 39.6782 93.8413 39.6782 86.1235V70.4108C39.6782 69.8902 40.1132 69.4683 40.6498 69.4683Z" fill="#7A0000"/>
<path d="M33.1284 69.2095L33.1284 84.9221C33.1284 92.1195 39.1637 97.9746 46.5825 97.9746C49.0456 97.9746 51.0415 96.0383 51.0415 93.6487C51.0415 91.2591 49.0456 89.3228 46.5825 89.3228C44.0808 89.3228 42.0464 87.3491 42.0464 84.9221V69.2095" fill="#FF4C4C"/>
<path fill-rule="evenodd" clip-rule="evenodd" d="M33.1283 68.2666C33.6648 68.2666 34.0998 68.6886 34.0998 69.2091L34.0998 84.9218C34.0998 91.5986 39.7001 97.0317 46.5823 97.0317C48.5089 97.0317 50.0698 95.5174 50.0698 93.6484C50.0698 91.7793 48.5089 90.265 46.5823 90.265C43.5441 90.265 41.0747 87.8693 41.0747 84.9218L41.0747 69.2091C41.0747 68.6886 41.5097 68.2666 42.0462 68.2666C42.5828 68.2666 43.0178 68.6886 43.0178 69.2091L43.0178 84.9218C43.0178 86.8282 44.6172 88.38 46.5823 88.38C49.582 88.38 52.0128 90.7382 52.0128 93.6484C52.0128 96.5585 49.582 98.9168 46.5823 98.9168C38.627 98.9168 32.1567 92.6397 32.1567 84.9218L32.1567 69.2091C32.1567 68.6886 32.5917 68.2666 33.1283 68.2666Z" fill="#7A0000"/>
<path d="M19.9928 70.0059V85.9892C19.9928 93.3097 13.8532 99.266 6.30514 99.266C3.79895 99.266 1.76904 97.2967 1.76904 94.8654C1.76904 92.434 3.79895 90.4647 6.30514 90.4647C8.84989 90.4647 10.9206 88.4558 10.9206 85.9892V70.0059" fill="#FF4C4C"/>
<path fill-rule="evenodd" clip-rule="evenodd" d="M10.9205 69.063C11.457 69.063 11.892 69.485 11.892 70.0055V85.9888C11.892 88.9763 9.38599 91.4069 6.30499 91.4069C4.33536 91.4069 2.74043 92.9542 2.74043 94.865C2.74043 96.7758 4.33536 98.3232 6.30499 98.3232C13.3166 98.3232 19.0211 92.7887 19.0211 85.9888V70.0055H20.9642V85.9888C20.9642 93.83 14.3895 100.208 6.30499 100.208C3.26224 100.208 0.797363 97.8169 0.797363 94.865C0.797363 91.9131 3.26224 89.5218 6.30499 89.5218C8.31349 89.5218 9.94894 87.9346 9.94894 85.9888V70.0055C9.94894 69.485 10.3839 69.063 10.9205 69.063Z" fill="#7A0000"/>
<path d="M23.7023 69.6567V85.64C23.7023 92.9606 17.5627 98.9169 10.0146 98.9169C7.50842 98.9169 5.47852 96.9476 5.47852 94.5162C5.47852 92.0849 7.50842 90.1155 10.0146 90.1155C12.5594 90.1155 14.6301 88.1066 14.6301 85.64V69.6567" fill="#FF4C4C"/>
<path fill-rule="evenodd" clip-rule="evenodd" d="M14.6299 68.7139C15.1665 68.7139 15.6015 69.1359 15.6015 69.6564V85.6397C15.6015 88.6271 13.0955 91.0577 10.0145 91.0577C8.04483 91.0577 6.4499 92.6051 6.4499 94.5159C6.4499 96.4267 8.04483 97.9741 10.0145 97.9741C17.0261 97.9741 22.7306 92.4396 22.7306 85.6397V69.6564C22.7306 69.1359 23.1656 68.7139 23.7021 68.7139C24.2387 68.7139 24.6737 69.1359 24.6737 69.6564V85.6397C24.6737 93.4809 18.099 99.8591 10.0145 99.8591C6.97171 99.8591 4.50684 97.4678 4.50684 94.5159C4.50684 91.564 6.97171 89.1727 10.0145 89.1727C12.023 89.1727 13.6584 87.5854 13.6584 85.6397V69.6564C13.6584 69.1359 14.0934 68.7139 14.6299 68.7139Z" fill="#7A0000"/>
<path d="M33.1987 69.6567V85.3694C33.1987 92.5667 27.1635 98.4218 19.7447 98.4218C17.2816 98.4218 15.2857 96.4855 15.2857 94.096C15.2857 91.7064 17.2816 89.7701 19.7447 89.7701C22.2463 89.7701 24.2808 87.7964 24.2808 85.3694V69.6567" fill="#FF4C4C"/>
<path fill-rule="evenodd" clip-rule="evenodd" d="M33.1974 68.7139C32.6608 68.7139 32.2259 69.1359 32.2259 69.6564V85.3691C32.2259 92.0459 26.6256 97.479 19.7433 97.479C17.8168 97.479 16.2559 95.9647 16.2559 94.0956C16.2559 92.2266 17.8168 90.7123 19.7433 90.7123C22.7816 90.7123 25.251 88.3166 25.251 85.3691V69.6564C25.251 69.1359 24.816 68.7139 24.2794 68.7139C23.7429 68.7139 23.3079 69.1359 23.3079 69.6564V85.3691C23.3079 87.2755 21.7084 88.8272 19.7433 88.8272C16.7437 88.8272 14.3128 91.1855 14.3128 94.0956C14.3128 97.0058 16.7437 99.364 19.7433 99.364C27.6987 99.364 34.1689 93.0869 34.1689 85.3691V69.6564C34.1689 69.1359 33.734 68.7139 33.1974 68.7139Z" fill="#7A0000"/>
<path d="M7.55012 9.37435H11.629L11.3818 17.4826L11.0851 21.4873H8.09397L7.79732 17.4579L7.55012 9.37435ZM9.60191 27.173C8.95918 27.173 8.40709 26.9506 7.94565 26.5056C7.50068 26.0441 7.27819 25.4921 7.27819 24.8493C7.27819 24.2066 7.50068 23.6627 7.94565 23.2178C8.40709 22.7563 8.95918 22.5256 9.60191 22.5256C10.2446 22.5256 10.7885 22.7563 11.2335 23.2178C11.6949 23.6627 11.9256 24.2066 11.9256 24.8493C11.9256 25.4921 11.6949 26.0441 11.2335 26.5056C10.7885 26.9506 10.2446 27.173 9.60191 27.173Z" fill="#FF4C4C"/>
</svg>
