<svg width="233" height="264" viewBox="0 0 233 264" fill="none" xmlns="http://www.w3.org/2000/svg">
<path d="M98.6465 162.467V214.632C98.6465 238.526 118.085 257.964 141.979 257.964C149.913 257.964 156.341 251.536 156.341 243.603C156.341 235.67 149.913 229.241 141.979 229.241C133.922 229.241 127.37 222.689 127.37 214.632V162.467" fill="#7000FF"/>
<path fill-rule="evenodd" clip-rule="evenodd" d="M98.6482 159.338C100.376 159.338 101.777 160.739 101.777 162.467V214.631C101.777 236.798 119.815 254.835 141.981 254.835C148.186 254.835 153.213 249.808 153.213 243.603C153.213 237.398 148.186 232.371 141.981 232.371C132.196 232.371 124.242 224.417 124.242 214.631V162.467C124.242 160.739 125.643 159.338 127.371 159.338C129.099 159.338 130.5 160.739 130.5 162.467V214.631C130.5 220.961 135.652 226.112 141.981 226.112C151.642 226.112 159.472 233.942 159.472 243.603C159.472 253.264 151.642 261.094 141.981 261.094C116.358 261.094 95.519 240.254 95.519 214.631V162.467C95.519 160.739 96.92 159.338 98.6482 159.338Z" fill="#3C008A"/>
<path d="M106.222 175.286L76.7073 218.298C63.1877 238 36.1616 243.03 16.4596 229.51C9.9184 225.021 8.25517 216.084 12.7438 209.543C17.2324 203.001 26.17 201.338 32.7112 205.827C39.3548 210.386 48.4651 208.69 53.024 202.047L82.5389 159.035" fill="#7000FF"/>
<path fill-rule="evenodd" clip-rule="evenodd" d="M84.3128 156.455C82.8879 155.477 80.94 155.839 79.9622 157.264L50.4473 200.276C46.8662 205.495 39.7038 206.828 34.4851 203.246C26.519 197.78 15.6336 199.806 10.1672 207.772C4.70074 215.738 6.72644 226.623 14.6926 232.09C35.8195 246.587 64.7934 241.195 79.2908 220.068L108.806 177.057L103.646 173.516L74.1306 216.528C61.5889 234.805 36.5105 239.471 18.2335 226.93C13.1173 223.419 11.8165 216.429 15.3273 211.313C18.8381 206.197 25.8279 204.896 30.9442 208.407C39.0127 213.943 50.0708 211.885 55.6075 203.817L85.1224 160.805C86.1002 159.38 85.7377 157.432 84.3128 156.455Z" fill="#3C008A"/>
<path d="M137.694 0.912354C101.427 0.912354 71.9857 30.5704 71.9857 67.1041V182.401H203.409L203.409 67.1115C203.409 30.5779 173.96 0.912354 137.694 0.912354Z" fill="#7000FF"/>
<path fill-rule="evenodd" clip-rule="evenodd" d="M78.244 67.1041C78.244 33.9834 104.927 7.17059 137.694 7.17059C170.461 7.17059 197.15 33.9908 197.15 67.1115V176.143H78.244V67.1041ZM71.9857 67.1041C71.9857 30.5704 101.427 0.912354 137.694 0.912354C173.96 0.912354 203.409 30.5779 203.409 67.1115V182.401H71.9857V67.1041Z" fill="#3C008A"/>
<path d="M77.3292 134.239C87.2435 134.239 95.3154 126.175 95.3154 116.261V98.7788C95.3154 88.8644 87.2518 80.7925 77.3292 80.7925C67.4065 80.7925 59.3511 88.8561 59.3511 98.7788V116.261C59.3511 126.175 67.4148 134.239 77.3292 134.239Z" fill="white"/>
<path fill-rule="evenodd" clip-rule="evenodd" d="M77.3298 138.411C89.5459 138.411 99.4883 128.482 99.4883 116.261V98.7789C99.4883 86.5616 89.5579 76.6205 77.3298 76.6205C65.1005 76.6205 55.1797 86.5546 55.1797 98.7789V116.261C55.1797 128.48 65.1113 138.411 77.3298 138.411ZM95.3161 116.261C95.3161 126.176 87.2442 134.239 77.3298 134.239C67.4155 134.239 59.3518 126.176 59.3518 116.261V98.7789C59.3518 88.8563 67.4072 80.7926 77.3298 80.7926C87.2525 80.7926 95.3161 88.8646 95.3161 98.7789V116.261Z" fill="#3C008A"/>
<path d="M77.3282 82.4452C68.3226 82.4452 61.0025 89.7735 61.0025 98.7708V116.253C61.0025 125.259 68.3309 132.579 77.3364 132.579C86.342 132.579 93.6703 125.25 93.6703 116.253V98.7708C93.6703 89.7653 86.342 82.4452 77.3364 82.4452M77.3364 79.1404C88.1761 79.1404 96.9751 87.9311 96.9751 98.7708V116.253C96.9751 127.101 88.1844 135.884 77.3364 135.884C66.4967 135.884 57.706 127.093 57.706 116.253V98.7708C57.706 87.9228 66.4967 79.1404 77.3364 79.1404Z" fill="#3C008A"/>
<path d="M70.0586 96.0852C70.0586 92.0698 73.3137 88.8147 77.3291 88.8147C81.3445 88.8147 84.5996 92.0698 84.5996 96.0852V107.85C84.5996 111.866 81.3445 115.121 77.3291 115.121C73.3137 115.121 70.0586 111.866 70.0586 107.85V96.0852Z" fill="#1C1C1C"/>
<path d="M70.4537 91.6488C70.4537 89.5255 72.1804 87.7987 74.3037 87.7987C76.4271 87.7987 78.1538 89.5255 78.1538 91.6488C78.1538 93.7721 76.4271 95.4989 74.3037 95.4989C72.1804 95.4989 70.4537 93.7721 70.4537 91.6488Z" fill="white"/>
<path d="M131.598 134.239C141.512 134.239 149.584 126.175 149.584 116.261V98.7788C149.584 88.8644 141.52 80.7925 131.598 80.7925C121.675 80.7925 113.62 88.8561 113.62 98.7788V116.261C113.62 126.175 121.683 134.239 131.598 134.239Z" fill="white"/>
<path fill-rule="evenodd" clip-rule="evenodd" d="M131.593 138.411C143.809 138.411 153.751 128.482 153.751 116.261V98.7789C153.751 86.5616 143.821 76.6205 131.593 76.6205C119.364 76.6205 109.443 86.5546 109.443 98.7789V116.261C109.443 128.48 119.374 138.411 131.593 138.411ZM149.579 116.261C149.579 126.176 141.507 134.239 131.593 134.239C121.679 134.239 113.615 126.176 113.615 116.261V98.7789C113.615 88.8563 121.67 80.7926 131.593 80.7926C141.516 80.7926 149.579 88.8646 149.579 98.7789V116.261Z" fill="#3C008A"/>
<path d="M131.595 82.4452C122.59 82.4452 115.27 89.7735 115.27 98.7708V116.253C115.27 125.259 122.598 132.579 131.604 132.579C140.609 132.579 147.937 125.25 147.937 116.253V98.7708C147.937 89.7653 140.609 82.4452 131.604 82.4452M131.604 79.1404C142.443 79.1404 151.242 87.9311 151.242 98.7708V116.253C151.242 127.101 142.451 135.884 131.604 135.884C120.764 135.884 111.973 127.093 111.973 116.253V98.7708C111.973 87.9228 120.764 79.1404 131.604 79.1404Z" fill="#3C008A"/>
<path d="M124.322 96.0852C124.322 92.0698 127.577 88.8147 131.593 88.8147C135.608 88.8147 138.863 92.0698 138.863 96.0852V107.85C138.863 111.866 135.608 115.121 131.593 115.121C127.577 115.121 124.322 111.866 124.322 107.85V96.0852Z" fill="#1C1C1C"/>
<path d="M124.719 91.6488C124.719 89.5255 126.446 87.7987 128.569 87.7987C130.693 87.7987 132.419 89.5255 132.419 91.6488C132.419 93.7721 130.693 95.4989 128.569 95.4989C126.446 95.4989 124.719 93.7721 124.719 91.6488Z" fill="white"/>
<path d="M171.089 57.2559C167.658 57.2559 164.876 54.4742 164.876 51.0427C164.876 47.6112 167.658 44.8295 171.089 44.8295C174.521 44.8295 177.303 47.6112 177.303 51.0427C177.303 54.4742 174.521 57.2559 171.089 57.2559Z" fill="#FEE702"/>
<path d="M155.406 51.7914C152.836 51.7914 150.753 49.7079 150.753 47.1377C150.753 44.5675 152.836 42.484 155.406 42.484C157.977 42.484 160.06 44.5675 160.06 47.1377C160.06 49.7079 157.977 51.7914 155.406 51.7914Z" fill="#FEE702"/>
<path d="M163.803 38.7657C161.99 38.7657 160.521 37.2966 160.521 35.4844C160.521 33.6722 161.99 32.2031 163.803 32.2031C165.615 32.2031 167.084 33.6722 167.084 35.4844C167.084 37.2966 165.615 38.7657 163.803 38.7657Z" fill="#FEE702"/>
<path fill-rule="evenodd" clip-rule="evenodd" d="M82.9361 65.5607C83.7808 67.0352 85.6543 67.5686 87.152 66.7495C88.6682 65.9203 89.2252 64.0189 88.3959 62.5027L85.6506 64.0041C88.3959 62.5027 88.3951 62.5012 88.3943 62.4996L88.3925 62.4965L88.3889 62.49L88.3811 62.4758L88.3627 62.4433C88.3493 62.4199 88.3336 62.3927 88.3154 62.3622C88.2791 62.3012 88.233 62.2265 88.1768 62.1401C88.0644 61.9674 87.9103 61.7463 87.7107 61.4936C87.3131 60.99 86.7249 60.3478 85.9159 59.7139C84.2645 58.42 81.7661 57.2234 78.327 57.2372M82.9361 65.5607C82.9348 65.5588 82.9334 65.5565 82.9316 65.5538C82.9138 65.5264 82.87 65.4617 82.7989 65.3717C82.6553 65.1898 82.4112 64.9184 82.056 64.6401C81.3792 64.1097 80.222 63.4876 78.3512 63.4954L78.3497 63.4954C76.005 63.5039 74.9038 64.1885 74.4365 64.5834C74.1774 64.8023 74.0336 65.0002 73.9674 65.1055C73.95 65.1331 73.9381 65.1541 73.9311 65.167C73.3125 66.7157 71.5765 67.5144 69.9884 66.9562C68.358 66.3831 67.5009 64.5968 68.074 62.9665L71.0261 64.0041C68.074 62.9665 68.0748 62.9643 68.0756 62.9621L68.0771 62.9577L68.0804 62.9486L68.0874 62.9293L68.1033 62.8863C68.1149 62.8558 68.1283 62.8214 68.1437 62.7836C68.1745 62.7081 68.2133 62.6182 68.2613 62.5162C68.3571 62.3125 68.4905 62.0585 68.6707 61.7721C69.0316 61.1987 69.5832 60.4912 70.397 59.8035C72.0753 58.3851 74.6297 57.2509 78.3254 57.2372" fill="#3C008A"/>
<path fill-rule="evenodd" clip-rule="evenodd" d="M136.132 66.6032C136.977 68.0777 138.85 68.6111 140.348 67.792C141.864 66.9627 142.421 65.0614 141.592 63.5452L138.846 65.0466C141.592 63.5452 141.591 63.5436 141.59 63.5421L141.588 63.539L141.585 63.5324L141.577 63.5183L141.559 63.4858C141.545 63.4623 141.529 63.4352 141.511 63.4047C141.475 63.3437 141.429 63.269 141.373 63.1825C141.26 63.0099 141.106 62.7888 140.907 62.5361C140.509 62.0324 139.921 61.3903 139.112 60.7564C137.46 59.4625 134.962 58.2658 131.523 58.2797M136.132 66.6032C136.131 66.6013 136.129 66.599 136.127 66.5963C136.11 66.5689 136.066 66.5042 135.995 66.4142C135.851 66.2323 135.607 65.9608 135.252 65.6826C134.575 65.1522 133.418 64.5301 131.547 64.5378L131.545 64.5379C129.201 64.5464 128.1 65.231 127.632 65.6259C127.373 65.8448 127.229 66.0427 127.163 66.1479C127.146 66.1755 127.134 66.1966 127.127 66.2095C126.508 67.7581 124.772 68.5569 123.184 67.9987C121.554 67.4256 120.697 65.6393 121.27 64.0089L124.222 65.0466C121.27 64.0089 121.271 64.0068 121.271 64.0046L121.273 64.0002L121.276 63.9911L121.283 63.9717L121.299 63.9288C121.311 63.8982 121.324 63.8639 121.339 63.8261C121.37 63.7505 121.409 63.6607 121.457 63.5587C121.553 63.355 121.686 63.101 121.867 62.8146C122.227 62.2412 122.779 61.5337 123.593 60.846C125.271 59.4276 127.825 58.2934 131.521 58.2797" fill="#3C008A"/>
<path fill-rule="evenodd" clip-rule="evenodd" d="M100.859 139.123C100.014 137.648 98.1406 137.115 96.6429 137.934C95.1267 138.763 94.5698 140.665 95.399 142.181L98.1444 140.68C95.399 142.181 95.3998 142.183 95.4007 142.184L95.4024 142.187L95.406 142.194L95.4138 142.208L95.4322 142.24C95.4456 142.264 95.4613 142.291 95.4795 142.321C95.5158 142.382 95.5619 142.457 95.6181 142.544C95.7305 142.716 95.8846 142.937 96.0842 143.19C96.4818 143.694 97.07 144.336 97.8791 144.97C99.5304 146.264 102.029 147.46 105.468 147.447M100.859 139.123C100.86 139.125 100.862 139.127 100.863 139.13C100.881 139.157 100.925 139.222 100.996 139.312C101.14 139.494 101.384 139.765 101.739 140.044C102.416 140.574 103.573 141.196 105.444 141.188L105.445 141.188C107.79 141.18 108.891 140.495 109.358 140.1C109.617 139.881 109.761 139.683 109.828 139.578C109.845 139.551 109.857 139.53 109.864 139.517C110.482 137.968 112.218 137.169 113.807 137.728C115.437 138.301 116.294 140.087 115.721 141.717L112.769 140.68C115.721 141.717 115.72 141.719 115.719 141.722L115.718 141.726L115.715 141.735L115.708 141.754L115.692 141.797C115.68 141.828 115.667 141.862 115.651 141.9C115.62 141.976 115.582 142.066 115.534 142.167C115.438 142.371 115.304 142.625 115.124 142.912C114.763 143.485 114.212 144.192 113.398 144.88C111.72 146.299 109.165 147.433 105.47 147.447" fill="#3C008A"/>
<path d="M104.254 164.973V217.137C104.254 241.032 84.8155 260.47 60.921 260.47C52.9878 260.47 46.5595 254.042 46.5595 246.109C46.5595 238.175 52.9878 231.747 60.921 231.747C68.9783 231.747 75.5309 225.194 75.5309 217.137V164.973" fill="#7000FF"/>
<path fill-rule="evenodd" clip-rule="evenodd" d="M104.253 161.843C102.525 161.843 101.124 163.244 101.124 164.972V217.137C101.124 239.303 83.0866 257.341 60.9203 257.341C54.7153 257.341 49.6879 252.313 49.6879 246.108C49.6879 239.903 54.7153 234.876 60.9203 234.876C70.7058 234.876 78.6593 226.922 78.6593 217.137V164.972C78.6593 163.244 77.2583 161.843 75.5302 161.843C73.802 161.843 72.4011 163.244 72.4011 164.972V217.137C72.4011 223.466 67.2495 228.618 60.9203 228.618C51.259 228.618 43.4297 236.447 43.4297 246.108C43.4297 255.769 51.259 263.599 60.9203 263.599C86.5429 263.599 107.382 242.759 107.382 217.137V164.972C107.382 163.244 105.981 161.843 104.253 161.843Z" fill="#3C008A"/>
<path d="M127.496 160.982V213.146C127.496 237.041 108.057 256.479 84.1627 256.479C76.2295 256.479 69.8012 250.051 69.8012 242.118C69.8012 234.185 76.2295 227.756 84.1627 227.756C92.22 227.756 98.7726 221.204 98.7726 213.146V160.982" fill="#7000FF"/>
<path fill-rule="evenodd" clip-rule="evenodd" d="M127.494 157.852C125.766 157.852 124.365 159.253 124.365 160.981V213.146C124.365 235.312 106.327 253.35 84.161 253.35C77.956 253.35 72.9286 248.322 72.9286 242.117C72.9286 235.912 77.956 230.885 84.161 230.885C93.9465 230.885 101.9 222.932 101.9 213.146V160.981C101.9 159.253 100.499 157.852 98.7709 157.852C97.0427 157.852 95.6418 159.253 95.6418 160.981V213.146C95.6418 219.475 90.4902 224.627 84.161 224.627C74.4997 224.627 66.6704 232.456 66.6704 242.117C66.6704 251.779 74.4997 259.608 84.161 259.608C109.784 259.608 130.623 238.769 130.623 213.146V160.981C130.623 159.253 129.222 157.852 127.494 157.852Z" fill="#3C008A"/>
<path d="M170.784 163.626V216.689C170.784 240.993 190.559 260.767 214.87 260.767C222.942 260.767 229.479 254.23 229.479 246.158C229.479 238.086 222.942 231.548 214.87 231.548C206.673 231.548 200.004 224.878 200.004 216.689V163.626" fill="#7000FF"/>
<path fill-rule="evenodd" clip-rule="evenodd" d="M200.006 160.497C198.278 160.497 196.877 161.898 196.877 163.626V216.689C196.877 226.607 204.948 234.677 214.871 234.677C221.215 234.677 226.352 239.814 226.352 246.158C226.352 252.501 221.215 257.638 214.871 257.638C192.288 257.638 173.915 239.264 173.915 216.689V163.626H167.657V216.689C167.657 242.721 188.833 263.897 214.871 263.897C224.671 263.897 232.61 255.958 232.61 246.158C232.61 236.357 224.671 228.419 214.871 228.419C208.402 228.419 203.135 223.149 203.135 216.689V163.626C203.135 161.898 201.734 160.497 200.006 160.497Z" fill="#3C008A"/>
<path d="M158.838 162.467V215.53C158.838 239.834 178.612 259.608 202.923 259.608C210.995 259.608 217.533 253.07 217.533 244.998C217.533 236.926 210.995 230.388 202.923 230.388C194.727 230.388 188.057 223.719 188.057 215.53V162.467" fill="#7000FF"/>
<path fill-rule="evenodd" clip-rule="evenodd" d="M188.059 159.338C186.33 159.338 184.929 160.739 184.929 162.467V215.53C184.929 225.448 193.001 233.517 202.924 233.517C209.268 233.517 214.405 238.654 214.405 244.998C214.405 251.342 209.268 256.479 202.924 256.479C180.341 256.479 161.968 238.105 161.968 215.53V162.467C161.968 160.739 160.567 159.338 158.839 159.338C157.111 159.338 155.71 160.739 155.71 162.467V215.53C155.71 241.562 176.885 262.737 202.924 262.737C212.724 262.737 220.663 254.798 220.663 244.998C220.663 235.198 212.724 227.259 202.924 227.259C196.455 227.259 191.188 221.99 191.188 215.53V162.467C191.188 160.739 189.787 159.338 188.059 159.338Z" fill="#3C008A"/>
<path d="M128.253 162.467V214.632C128.253 238.526 147.692 257.964 171.586 257.964C179.52 257.964 185.948 251.536 185.948 243.603C185.948 235.67 179.52 229.241 171.586 229.241C163.529 229.241 156.976 222.689 156.976 214.632V162.467" fill="#7000FF"/>
<path fill-rule="evenodd" clip-rule="evenodd" d="M128.255 159.338C129.983 159.338 131.384 160.739 131.384 162.467V214.631C131.384 236.798 149.422 254.835 171.588 254.835C177.793 254.835 182.82 249.808 182.82 243.603C182.82 237.398 177.793 232.371 171.588 232.371C161.803 232.371 153.849 224.417 153.849 214.631V162.467C153.849 160.739 155.25 159.338 156.978 159.338C158.706 159.338 160.107 160.739 160.107 162.467V214.631C160.107 220.961 165.259 226.112 171.588 226.112C181.249 226.112 189.079 233.942 189.079 243.603C189.079 253.264 181.249 261.094 171.588 261.094C145.965 261.094 125.126 240.254 125.126 214.631V162.467C125.126 160.739 126.527 159.338 128.255 159.338Z" fill="#3C008A"/>
</svg>
