<svg width="89" height="83" viewBox="0 0 89 83" fill="none" xmlns="http://www.w3.org/2000/svg">
<path d="M44.1436 76.9727V101.665C44.1436 112.976 53.3449 122.177 64.6554 122.177C68.4106 122.177 71.4535 119.134 71.4535 115.379C71.4535 111.624 68.4106 108.581 64.6554 108.581C60.8414 108.581 57.7398 105.479 57.7398 101.665V76.9727" fill="#D4D4D4"/>
<path fill-rule="evenodd" clip-rule="evenodd" d="M44.1443 75.4912C44.9623 75.4912 45.6255 76.1544 45.6255 76.9724V101.665C45.6255 112.157 54.1636 120.695 64.6561 120.695C67.5933 120.695 69.9731 118.316 69.9731 115.379C69.9731 112.441 67.5933 110.062 64.6561 110.062C60.0241 110.062 56.2593 106.297 56.2593 101.665V76.9724C56.2593 76.1544 56.9224 75.4912 57.7405 75.4912C58.5585 75.4912 59.2217 76.1544 59.2217 76.9724V101.665C59.2217 104.661 61.6602 107.099 64.6561 107.099C69.2294 107.099 72.9354 110.805 72.9354 115.379C72.9354 119.952 69.2294 123.658 64.6561 123.658C52.5275 123.658 42.6631 113.793 42.6631 101.665V76.9724C42.6631 76.1544 43.3262 75.4912 44.1443 75.4912Z" fill="#5F5F5F"/>
<path d="M62.6268 0.5C45.4598 0.5 31.5236 14.5388 31.5236 31.8322V86.4087H93.7334L93.7334 31.8357C93.7334 14.5423 79.7937 0.5 62.6268 0.5Z" fill="#D4D4D4"/>
<path fill-rule="evenodd" clip-rule="evenodd" d="M34.486 31.8322C34.486 16.1543 47.1163 3.46237 62.6268 3.46237C78.1372 3.46237 90.771 16.1579 90.771 31.8357V83.4463H34.486V31.8322ZM31.5236 31.8322C31.5236 14.5388 45.4598 0.5 62.6268 0.5C79.7937 0.5 93.7334 14.5423 93.7334 31.8357V86.4087H31.5236V31.8322Z" fill="#5F5F5F"/>
<path d="M78.4349 27.1692C76.8106 27.1692 75.4938 25.8525 75.4938 24.2282C75.4938 22.6039 76.8106 21.2871 78.4349 21.2871C80.0592 21.2871 81.376 22.6039 81.376 24.2282C81.376 25.8525 80.0592 27.1692 78.4349 27.1692Z" fill="#555555"/>
<path d="M71.011 24.5834C69.7944 24.5834 68.8082 23.5972 68.8082 22.3806C68.8082 21.164 69.7944 20.1777 71.011 20.1777C72.2276 20.1777 73.2139 21.164 73.2139 22.3806C73.2139 23.5972 72.2276 24.5834 71.011 24.5834Z" fill="#555555"/>
<path d="M74.9858 18.418C74.128 18.418 73.4326 17.7226 73.4326 16.8647C73.4326 16.0069 74.128 15.3115 74.9858 15.3115C75.8437 15.3115 76.5391 16.0069 76.5391 16.8647C76.5391 17.7226 75.8437 18.418 74.9858 18.418Z" fill="#555555"/>
<path fill-rule="evenodd" clip-rule="evenodd" d="M35.3047 30.0796C36 30.4841 36.8943 30.2593 37.3144 29.5691C37.7397 28.8703 37.518 27.959 36.8192 27.5337L36.0491 28.799C36.8192 27.5337 36.8185 27.5333 36.8178 27.5329L36.8163 27.532L36.8133 27.5302L36.8067 27.5262L36.7915 27.5173C36.7805 27.5108 36.7676 27.5034 36.7529 27.4952C36.7236 27.4788 36.687 27.4591 36.6435 27.4369C36.5566 27.3928 36.4411 27.3386 36.2995 27.2822C36.0173 27.1699 35.6242 27.0459 35.1424 26.9775C34.1593 26.8379 32.8518 26.9387 31.4453 27.7583M35.3047 30.0796C35.3038 30.0791 35.3026 30.0785 35.3013 30.0778C35.2875 30.0708 35.2542 30.0546 35.2038 30.0345C35.1019 29.9939 34.9375 29.9405 34.7261 29.9104C34.3231 29.8532 33.7015 29.8721 32.9364 30.318L32.9358 30.3184C31.9766 30.8768 31.6872 31.4181 31.5891 31.6906C31.5347 31.8416 31.5226 31.9568 31.5204 32.0156C31.5198 32.031 31.5199 32.0425 31.5201 32.0494C31.633 32.8307 31.1104 33.569 30.3273 33.716C29.5233 33.867 28.7492 33.3376 28.5982 32.5336L30.054 32.2603C28.5982 32.5336 28.598 32.5325 28.5978 32.5314L28.5974 32.5293L28.5966 32.5248L28.5949 32.5152L28.5913 32.4938C28.5888 32.4785 28.5861 32.4613 28.5835 32.4422C28.5782 32.4039 28.5729 32.3579 28.5684 32.3047C28.5595 32.1985 28.5541 32.0628 28.5602 31.9028C28.5724 31.5823 28.631 31.1617 28.8019 30.6872C29.1542 29.7085 29.9329 28.639 31.4447 27.7587" fill="#5F5F5F"/>
<path fill-rule="evenodd" clip-rule="evenodd" d="M64.3256 32.4684C64.3229 33.2728 64.9647 33.9349 65.7725 33.9536C66.5904 33.9725 67.2687 33.3249 67.2876 32.5071L65.8068 32.4728C67.2876 32.5071 67.2876 32.5062 67.2876 32.5054L67.2877 32.5037L67.2877 32.5002L67.2879 32.4925L67.288 32.4749C67.2881 32.4621 67.2881 32.4472 67.2878 32.4304C67.2874 32.3968 67.2862 32.3553 67.2836 32.3065C67.2784 32.2092 67.2675 32.0821 67.2455 31.9312C67.2017 31.6307 67.1126 31.2282 66.931 30.7769C66.5602 29.8556 65.8193 28.7737 64.4062 27.9654M64.3256 32.4684C64.3256 32.4674 64.3255 32.4661 64.3254 32.4645C64.3246 32.4491 64.322 32.4122 64.3141 32.3585C64.2983 32.2499 64.2625 32.0809 64.1828 31.8828C64.0308 31.5051 63.7037 30.9762 62.9349 30.5366L62.9343 30.5363C61.9711 29.9848 61.3576 30.0049 61.0727 30.0561C60.9146 30.0846 60.8088 30.1317 60.7568 30.1591C60.7431 30.1663 60.7333 30.1721 60.7273 30.1758C60.1072 30.6642 59.2065 30.5808 58.6876 29.9761C58.1549 29.3553 58.2263 28.4202 58.8471 27.8874L59.8117 29.0115C58.8471 27.8874 58.8479 27.8867 58.8488 27.886L58.8505 27.8846L58.8539 27.8816L58.8614 27.8754L58.8781 27.8615C58.8901 27.8517 58.9037 27.8408 58.9189 27.829C58.9494 27.8053 58.9866 27.7776 59.0304 27.7472C59.1179 27.6864 59.2327 27.6138 59.3744 27.5391C59.6581 27.3894 60.0516 27.2299 60.548 27.1406C61.5717 26.9564 62.8873 27.096 64.4055 27.9651" fill="#5F5F5F"/>
<path d="M50.4526 70.585C51.5572 70.585 52.4526 69.6895 52.4526 68.585C52.4526 67.4804 51.5572 66.585 50.4526 66.585L50.4526 70.585ZM42.4619 70.585L50.4526 70.585L50.4526 66.585L42.4619 66.585L42.4619 70.585Z" fill="#5F5F5F"/>
<path d="M46.7969 78.1582V102.851C46.7969 114.161 37.5956 123.362 26.285 123.362C22.5298 123.362 19.4869 120.32 19.4869 116.564C19.4869 112.809 22.5298 109.766 26.285 109.766C30.099 109.766 33.2007 106.665 33.2007 102.851V78.1582" fill="#D4D4D4"/>
<path fill-rule="evenodd" clip-rule="evenodd" d="M46.7971 76.6768C45.9791 76.6768 45.316 77.3399 45.316 78.1579V102.85C45.316 113.343 36.7778 121.881 26.2853 121.881C23.3481 121.881 20.9684 119.501 20.9684 116.564C20.9684 113.627 23.3481 111.247 26.2853 111.247C30.9173 111.247 34.6821 107.482 34.6821 102.85V78.1579C34.6821 77.3399 34.019 76.6768 33.2009 76.6768C32.3829 76.6768 31.7197 77.3399 31.7197 78.1579V102.85C31.7197 105.846 29.2812 108.285 26.2853 108.285C21.712 108.285 18.006 111.991 18.006 116.564C18.006 121.137 21.712 124.843 26.2853 124.843C38.4139 124.843 48.2783 114.979 48.2783 102.85V78.1579C48.2783 77.3399 47.6152 76.6768 46.7971 76.6768Z" fill="#5F5F5F"/>
<path d="M58.2666 76.2705L58.2666 100.963C58.2666 112.273 49.0653 121.475 37.7547 121.475C33.9995 121.475 30.9566 118.432 30.9566 114.677C30.9566 110.921 33.9995 107.879 37.7547 107.879C41.5687 107.879 44.6704 104.777 44.6704 100.963L44.6704 76.2705" fill="#D4D4D4"/>
<path fill-rule="evenodd" clip-rule="evenodd" d="M58.2649 74.7881C57.4469 74.7881 56.7837 75.4512 56.7837 76.2693L56.7837 100.962C56.7837 111.454 48.2456 119.992 37.753 119.992C34.8159 119.992 32.4361 117.613 32.4361 114.675C32.4361 111.738 34.8159 109.359 37.753 109.359C42.3851 109.359 46.1499 105.594 46.1499 100.962L46.1499 76.2693C46.1499 75.4512 45.4867 74.7881 44.6687 74.7881C43.8507 74.7881 43.1875 75.4512 43.1875 76.2693L43.1875 100.962C43.1875 103.958 40.749 106.396 37.753 106.396C33.1798 106.396 29.4738 110.102 29.4738 114.675C29.4738 119.249 33.1798 122.955 37.753 122.955C49.8816 122.955 59.7461 113.09 59.7461 100.962L59.7461 76.2693C59.7461 75.4512 59.0829 74.7881 58.2649 74.7881Z" fill="#5F5F5F"/>
<path d="M78.2905 77.5215V102.639C78.2905 114.143 87.6509 123.504 99.1586 123.504C102.979 123.504 106.074 120.409 106.074 116.588C106.074 112.767 102.979 109.672 99.1586 109.672C95.2789 109.672 92.1219 106.515 92.1219 102.639V77.5215" fill="#D4D4D4"/>
<path fill-rule="evenodd" clip-rule="evenodd" d="M92.1231 76.04C91.3051 76.04 90.6419 76.7032 90.6419 77.5212V102.639C90.6419 107.334 94.4625 111.153 99.1598 111.153C102.163 111.153 104.594 113.585 104.594 116.588C104.594 119.591 102.163 122.022 99.1598 122.022C88.47 122.022 79.773 113.325 79.773 102.639V77.5212H76.8106V102.639C76.8106 114.961 86.8342 124.985 99.1598 124.985C103.799 124.985 107.557 121.227 107.557 116.588C107.557 111.949 103.799 108.191 99.1598 108.191C96.0977 108.191 93.6043 105.697 93.6043 102.639V77.5212C93.6043 76.7032 92.9411 76.04 92.1231 76.04Z" fill="#5F5F5F"/>
<path d="M72.6353 76.9727V102.09C72.6353 113.595 81.9956 122.955 93.5033 122.955C97.3242 122.955 100.419 119.86 100.419 116.039C100.419 112.218 97.3242 109.124 93.5033 109.124C89.6236 109.124 86.4666 105.967 86.4666 102.09V76.9727" fill="#D4D4D4"/>
<path fill-rule="evenodd" clip-rule="evenodd" d="M86.4678 75.4912C85.6498 75.4912 84.9867 76.1544 84.9867 76.9724V102.09C84.9867 106.785 88.8073 110.605 93.5045 110.605C96.5074 110.605 98.939 113.036 98.939 116.039C98.939 119.042 96.5074 121.473 93.5045 121.473C82.8147 121.473 74.1177 112.776 74.1177 102.09V76.9724C74.1177 76.1544 73.4545 75.4912 72.6365 75.4912C71.8185 75.4912 71.1553 76.1544 71.1553 76.9724V102.09C71.1553 114.412 81.179 124.436 93.5045 124.436C98.1435 124.436 101.901 120.678 101.901 116.039C101.901 111.4 98.1435 107.642 93.5045 107.642C90.4424 107.642 87.949 105.148 87.949 102.09V76.9724C87.949 76.1544 87.2859 75.4912 86.4678 75.4912Z" fill="#5F5F5F"/>
<path d="M58.1582 76.9727V101.665C58.1582 112.976 67.3595 122.177 78.6701 122.177C82.4253 122.177 85.4682 119.134 85.4682 115.379C85.4682 111.624 82.4253 108.581 78.6701 108.581C74.8561 108.581 71.7544 105.479 71.7544 101.665V76.9727" fill="#D4D4D4"/>
<path fill-rule="evenodd" clip-rule="evenodd" d="M58.1589 75.4912C58.977 75.4912 59.6401 76.1544 59.6401 76.9724V101.665C59.6401 112.157 68.1783 120.695 78.6708 120.695C81.608 120.695 83.9877 118.316 83.9877 115.379C83.9877 112.441 81.608 110.062 78.6708 110.062C74.0388 110.062 70.2739 106.297 70.2739 101.665V76.9724C70.2739 76.1544 70.9371 75.4912 71.7551 75.4912C72.5732 75.4912 73.2363 76.1544 73.2363 76.9724V101.665C73.2363 104.661 75.6748 107.099 78.6708 107.099C83.244 107.099 86.9501 110.805 86.9501 115.379C86.9501 119.952 83.244 123.658 78.6708 123.658C66.5422 123.658 56.6777 113.793 56.6777 101.665V76.9724C56.6777 76.1544 57.3409 75.4912 58.1589 75.4912Z" fill="#5F5F5F"/>
<g clip-path="url(#clip0_849_1763)">
<path d="M24.6875 45.001V53.564C24.6875 58.8765 28.9069 63.18 34.1075 63.18C39.3117 63.18 43.5275 58.8728 43.5275 53.564V45.001" fill="#D4D4D4"/>
<path d="M34.1076 64.2846C28.3176 64.2846 23.6094 59.4748 23.6094 53.568V45.0049C23.6094 44.3959 24.091 43.9043 24.6876 43.9043C25.2842 43.9043 25.7658 44.3959 25.7658 45.0049V53.568C25.7658 58.2641 29.5072 62.0833 34.1076 62.0833C38.708 62.0833 42.4494 58.2641 42.4494 53.568V45.0049C42.4494 44.3959 42.931 43.9043 43.5276 43.9043C44.1242 43.9043 44.6058 44.3959 44.6058 45.0049V53.568C44.6058 59.4785 39.894 64.2846 34.1076 64.2846Z" fill="#5F5F5F"/>
<path d="M24.7129 47.6309C24.7273 47.8583 24.7488 48.0821 24.7812 48.3023C25.4209 52.98 29.3528 56.5791 34.1113 56.5791C36.7098 56.5791 39.0675 55.5005 40.7711 53.7615C42.1835 52.3196 43.1503 50.4228 43.4379 48.3023C43.4702 48.0821 43.4918 47.8583 43.5061 47.6309" fill="#D4D4D4"/>
<path d="M34.1112 57.6802C28.9034 57.6802 24.4324 53.7142 23.7136 48.4567C23.6813 48.2256 23.6561 47.9761 23.6381 47.7046C23.5986 47.0993 24.0515 46.5746 24.6445 46.5343C25.2411 46.5049 25.7514 46.9562 25.791 47.5616C25.8054 47.7743 25.8233 47.9615 25.8485 48.1412C26.4199 52.331 29.9744 55.4789 34.1112 55.4789C36.3395 55.4789 38.4312 54.591 40.009 52.9841C41.3029 51.6633 42.1223 49.9903 42.3703 48.1522C42.3991 47.9651 42.417 47.7743 42.4314 47.5616C42.4709 46.9562 42.9921 46.4976 43.5779 46.5343C44.1709 46.5746 44.6238 47.0956 44.5842 47.7046C44.5663 47.9798 44.5411 48.2293 44.5052 48.4678C44.1925 50.7754 43.1646 52.8777 41.5365 54.5433C39.5526 56.5685 36.9181 57.6838 34.1148 57.6838L34.1112 57.6802Z" fill="#5F5F5F"/>
<path d="M43.5314 45.0008C43.5314 39.6883 39.312 35.3848 34.1114 35.3848C28.9072 35.3848 24.6914 39.692 24.6914 45.0008" fill="#D4D4D4"/>
<path d="M43.5312 46.1015C42.9346 46.1015 42.4529 45.6098 42.4529 45.0008C42.4529 40.3047 38.7115 36.4855 34.1112 36.4855C29.5108 36.4855 25.7658 40.3047 25.7658 45.0008C25.7658 45.6098 25.2842 46.1015 24.6876 46.1015C24.091 46.1015 23.6094 45.6098 23.6094 45.0008C23.6094 39.094 28.3212 34.2842 34.1076 34.2842C39.894 34.2842 44.6058 39.094 44.6058 45.0008C44.6058 45.6098 44.1242 46.1015 43.5276 46.1015H43.5312Z" fill="#5F5F5F"/>
</g>
<path d="M24.6885 45.001V53.564C24.6885 58.8765 28.9079 63.18 34.1085 63.18C39.3126 63.18 43.5285 58.8728 43.5285 53.564V45.001" fill="#D4D4D4"/>
<path d="M34.1086 64.2846C28.3185 64.2846 23.6104 59.4748 23.6104 53.568V45.0049C23.6104 44.3959 24.092 43.9043 24.6886 43.9043C25.2852 43.9043 25.7668 44.3959 25.7668 45.0049V53.568C25.7668 58.2641 29.5082 62.0833 34.1086 62.0833C38.7089 62.0833 42.4503 58.2641 42.4503 53.568V45.0049C42.4503 44.3959 42.9319 43.9043 43.5285 43.9043C44.1252 43.9043 44.6068 44.3959 44.6068 45.0049V53.568C44.6068 59.4785 39.895 64.2846 34.1086 64.2846Z" fill="#5F5F5F"/>
<path d="M24.7139 47.6309C24.7282 47.8583 24.7498 48.0821 24.7822 48.3023C25.4219 52.98 29.3538 56.5791 34.1123 56.5791C36.7108 56.5791 39.0685 55.5005 40.7721 53.7615C42.1845 52.3196 43.1513 50.4228 43.4388 48.3023C43.4712 48.0821 43.4927 47.8583 43.5071 47.6309" fill="#D4D4D4"/>
<path d="M34.1122 57.6802C28.9044 57.6802 24.4334 53.7142 23.7146 48.4567C23.6823 48.2256 23.6571 47.9761 23.6391 47.7046C23.5996 47.0993 24.0524 46.5746 24.6455 46.5343C25.2421 46.5049 25.7524 46.9562 25.792 47.5616C25.8063 47.7743 25.8243 47.9615 25.8495 48.1412C26.4209 52.331 29.9754 55.4789 34.1122 55.4789C36.3405 55.4789 38.4322 54.591 40.01 52.9841C41.3039 51.6633 42.1233 49.9903 42.3713 48.1522C42.4 47.9651 42.418 47.7743 42.4324 47.5616C42.4719 46.9562 42.9931 46.4976 43.5789 46.5343C44.1719 46.5746 44.6247 47.0956 44.5852 47.7046C44.5672 47.9798 44.5421 48.2293 44.5061 48.4678C44.1935 50.7754 43.1656 52.8777 41.5375 54.5433C39.5536 56.5685 36.9191 57.6838 34.1158 57.6838L34.1122 57.6802Z" fill="#5F5F5F"/>
<path d="M43.5324 45.0008C43.5324 39.6883 39.313 35.3848 34.1124 35.3848C28.9082 35.3848 24.6924 39.692 24.6924 45.0008" fill="#D4D4D4"/>
<path d="M43.5321 46.1015C42.9355 46.1015 42.4539 45.6098 42.4539 45.0008C42.4539 40.3047 38.7125 36.4855 34.1121 36.4855C29.5118 36.4855 25.7668 40.3047 25.7668 45.0008C25.7668 45.6098 25.2852 46.1015 24.6886 46.1015C24.092 46.1015 23.6104 45.6098 23.6104 45.0008C23.6104 39.094 28.3221 34.2842 34.1086 34.2842C39.895 34.2842 44.6068 39.094 44.6068 45.0008C44.6068 45.6098 44.1252 46.1015 43.5285 46.1015H43.5321Z" fill="#5F5F5F"/>
<path d="M51.834 45.001V53.564C51.834 58.8765 56.0534 63.18 61.254 63.18C66.4581 63.18 70.674 58.8728 70.674 53.564V45.001" fill="#D4D4D4"/>
<path d="M61.2541 64.2846C55.4641 64.2846 50.7559 59.4748 50.7559 53.568V45.0049C50.7559 44.3959 51.2375 43.9043 51.8341 43.9043C52.4307 43.9043 52.9123 44.3959 52.9123 45.0049V53.568C52.9123 58.2641 56.6537 62.0833 61.2541 62.0833C65.8544 62.0833 69.5958 58.2641 69.5958 53.568V45.0049C69.5958 44.3959 70.0774 43.9043 70.6741 43.9043C71.2707 43.9043 71.7523 44.3959 71.7523 45.0049V53.568C71.7523 59.4785 67.0405 64.2846 61.2541 64.2846Z" fill="#5F5F5F"/>
<path d="M51.8594 47.6309C51.8738 47.8583 51.8953 48.0821 51.9277 48.3023C52.5674 52.98 56.4993 56.5791 61.2578 56.5791C63.8563 56.5791 66.214 55.5005 67.9176 53.7615C69.33 52.3196 70.2968 50.4228 70.5843 48.3023C70.6167 48.0821 70.6383 47.8583 70.6526 47.6309" fill="#D4D4D4"/>
<path d="M61.2577 57.6802C56.0499 57.6802 51.5789 53.7142 50.8601 48.4567C50.8278 48.2256 50.8026 47.9761 50.7846 47.7046C50.7451 47.0993 51.1979 46.5746 51.791 46.5343C52.3876 46.5049 52.8979 46.9562 52.9375 47.5616C52.9518 47.7743 52.9698 47.9615 52.995 48.1412C53.5664 52.331 57.1209 55.4789 61.2577 55.4789C63.486 55.4789 65.5777 54.591 67.1555 52.9841C68.4494 51.6633 69.2688 49.9903 69.5168 48.1522C69.5455 47.9651 69.5635 47.7743 69.5779 47.5616C69.6174 46.9562 70.1386 46.4976 70.7244 46.5343C71.3174 46.5746 71.7703 47.0956 71.7307 47.7046C71.7127 47.9798 71.6876 48.2293 71.6517 48.4678C71.339 50.7754 70.3111 52.8777 68.683 54.5433C66.6991 56.5685 64.0646 57.6838 61.2613 57.6838L61.2577 57.6802Z" fill="#5F5F5F"/>
<path d="M70.6779 45.0008C70.6779 39.6883 66.4585 35.3848 61.2579 35.3848C56.0537 35.3848 51.8379 39.692 51.8379 45.0008" fill="#D4D4D4"/>
<path d="M70.6776 46.1015C70.081 46.1015 69.5994 45.6098 69.5994 45.0008C69.5994 40.3047 65.858 36.4855 61.2577 36.4855C56.6573 36.4855 52.9123 40.3047 52.9123 45.0008C52.9123 45.6098 52.4307 46.1015 51.8341 46.1015C51.2375 46.1015 50.7559 45.6098 50.7559 45.0008C50.7559 39.094 55.4677 34.2842 61.2541 34.2842C67.0405 34.2842 71.7523 39.094 71.7523 45.0008C71.7523 45.6098 71.2707 46.1015 70.6741 46.1015H70.6776Z" fill="#5F5F5F"/>
<path opacity="0.9" d="M3.47522 20.6334C3.71538 20.3014 3.99439 19.9553 4.31225 19.595C4.6301 19.2277 4.91264 18.8957 5.15986 18.5991L5.09629 18.5143C4.87026 18.5426 4.59478 18.5673 4.26987 18.5885C3.95201 18.6097 3.62356 18.6273 3.28451 18.6415C2.94547 18.6556 2.6382 18.6626 2.36273 18.6626H0.370832C0.335515 18.5284 0.310793 18.3872 0.296666 18.2388C0.282539 18.0905 0.275475 17.9528 0.275475 17.8256C0.275475 17.649 0.289602 17.4583 0.317856 17.2535C0.34611 17.0486 0.381427 16.8509 0.423808 16.6602H7.62854C7.75569 17.0063 7.84751 17.2959 7.90402 17.529C7.96759 17.7621 7.99938 17.9704 7.99938 18.1541C7.99938 18.2883 7.97465 18.4296 7.92521 18.5779C7.87576 18.7262 7.8016 18.8675 7.70271 19.0017L4.59832 23.1656C4.35816 23.4835 4.08975 23.8225 3.79308 24.1827C3.50348 24.543 3.228 24.8714 2.96666 25.1681L3.03023 25.2529C3.36221 25.2246 3.68713 25.1999 4.00499 25.1787C4.3299 25.1575 4.62304 25.1469 4.88439 25.1469H5.78498C6.20172 25.1469 6.59728 25.1257 6.97164 25.0833C7.346 25.041 7.66739 24.9597 7.9358 24.8397C8.11239 25.2493 8.20068 25.6237 8.20068 25.9627C8.20068 26.33 8.0912 26.6232 7.87223 26.8421C7.65326 27.0611 7.25418 27.1706 6.67498 27.1706H0.328451C0.208372 26.8245 0.123611 26.5525 0.0741664 26.3548C0.0247221 26.1499 0 25.9663 0 25.8038C0 25.6555 0.0282539 25.5001 0.0847616 25.3376C0.141269 25.1681 0.24369 24.988 0.392022 24.7973L3.47522 20.6334Z" fill="#5F5F5F"/>
<path opacity="0.7" d="M16.6134 42.0999C16.6411 41.8306 16.6864 41.5404 16.7493 41.2293C16.8098 40.9142 16.8618 40.6309 16.9053 40.3795L16.8409 40.352C16.7209 40.4428 16.5715 40.548 16.3926 40.6674C16.2177 40.7846 16.0356 40.9032 15.8463 41.0232C15.657 41.1433 15.4835 41.2489 15.3259 41.3399L14.1862 41.9979C14.1216 41.9327 14.0608 41.8601 14.0037 41.7799C13.9467 41.6997 13.8971 41.6232 13.8551 41.5504C13.7968 41.4494 13.7419 41.3356 13.6904 41.2091C13.6389 41.0826 13.5937 40.9577 13.555 40.8346L17.6773 38.4546C17.8643 38.6106 18.0126 38.746 18.1219 38.8607C18.2353 38.9731 18.3223 39.0818 18.3829 39.1869C18.4273 39.2637 18.4598 39.3527 18.4805 39.4539C18.5012 39.5551 18.5055 39.6604 18.4932 39.7699L18.0925 43.1778C18.0601 43.439 18.0185 43.7216 17.9678 44.0258C17.9211 44.3275 17.8719 44.6065 17.8204 44.8625L17.8848 44.89C18.0654 44.7642 18.2431 44.6427 18.418 44.5256C18.5969 44.4061 18.7611 44.3032 18.9107 44.2169L19.4259 43.9194C19.6644 43.7817 19.8837 43.639 20.0839 43.491C20.2841 43.3431 20.4412 43.1905 20.5551 43.0331C20.7914 43.2092 20.9656 43.3942 21.0776 43.5882C21.199 43.7984 21.2332 44.0022 21.1802 44.1999C21.1272 44.3975 20.9351 44.592 20.6037 44.7833L16.9724 46.8798C16.7894 46.7214 16.6511 46.5938 16.5574 46.497C16.4615 46.3961 16.3867 46.2992 16.333 46.2063C16.284 46.1214 16.2488 46.0232 16.2275 45.9115C16.2038 45.7959 16.2029 45.659 16.2248 45.5009L16.6134 42.0999Z" fill="#5F5F5F"/>
<path opacity="0.8" d="M15.3167 28.012C15.5902 27.7896 15.8991 27.5641 16.2434 27.3355C16.5893 27.1011 16.898 26.8881 17.1695 26.6967L17.1356 26.6121C16.9415 26.5852 16.707 26.5444 16.4323 26.4897C16.1635 26.4365 15.8866 26.3781 15.6017 26.3143C15.3168 26.2505 15.0599 26.188 14.831 26.1267L13.1758 25.6831C13.1763 25.5638 13.1872 25.4409 13.2085 25.3144C13.2298 25.188 13.2546 25.072 13.2829 24.9664C13.3222 24.8196 13.3764 24.6643 13.4455 24.5003C13.5146 24.3364 13.588 24.1799 13.6657 24.0309L19.6527 25.6351C19.6813 25.951 19.6931 26.2121 19.6882 26.4184C19.6891 26.6263 19.6691 26.8065 19.6282 26.9591C19.5983 27.0706 19.5463 27.1825 19.4722 27.2948C19.3981 27.407 19.305 27.5079 19.193 27.5974L15.6861 30.3663C15.4158 30.577 15.1172 30.799 14.7905 31.0323C14.4696 31.2671 14.1676 31.4787 13.8843 31.6671L13.9183 31.7517C14.2004 31.8021 14.476 31.8539 14.7448 31.9071C15.0195 31.9618 15.2655 32.0183 15.4827 32.0765L16.231 32.277C16.5773 32.3698 16.9108 32.4403 17.2313 32.4884C17.5518 32.5365 17.837 32.5406 18.0868 32.5006C18.1423 32.8803 18.1323 33.2111 18.0568 33.4928C17.975 33.7981 17.8188 34.0173 17.5881 34.1505C17.3573 34.2837 17.0013 34.2858 16.52 34.1568L11.2461 32.7437C11.2234 32.4293 11.2135 32.1845 11.2165 32.0091C11.221 31.8279 11.2414 31.6698 11.2775 31.5348C11.3106 31.4115 11.3686 31.2887 11.4518 31.1663C11.5365 31.038 11.6617 30.9111 11.8274 30.7857L15.3167 28.012Z" fill="#5F5F5F"/>
<defs>
<clipPath id="clip0_849_1763">
<rect width="21" height="30" fill="white" transform="translate(23.6094 34.2842)"/>
</clipPath>
</defs>
</svg>
