<svg width="122" height="81" viewBox="0 0 122 81" fill="none" xmlns="http://www.w3.org/2000/svg">
<path d="M76.5684 85.5781L52.2998 91.0949C41.1833 93.6219 30.0531 86.6982 27.4879 75.6603C26.6362 71.9957 28.9367 68.3463 32.6275 67.5073C36.3183 66.6683 39.999 68.958 40.8507 72.6227C41.7157 76.3447 45.4676 78.6786 49.2162 77.8265L73.4848 72.3097" fill="#7000FF"/>
<path fill-rule="evenodd" clip-rule="evenodd" d="M74.9418 71.98C74.7563 71.1817 73.9542 70.6827 73.1502 70.8654L48.882 76.382C45.9375 77.0514 42.9878 75.2165 42.3084 72.2929C41.2712 67.83 36.7883 65.0415 32.2936 66.0632C27.7989 67.0849 24.9971 71.5294 26.0343 75.9923C28.785 87.8281 40.7171 95.2506 52.6374 92.5409L76.9056 87.0243L76.2337 84.1334L51.9655 89.65C41.6533 91.9942 31.3254 85.5697 28.9457 75.3305C28.2796 72.4642 30.0787 69.6102 32.9655 68.954C35.8522 68.2978 38.7307 70.0885 39.3969 72.9547C40.4474 77.4749 45.0014 80.3078 49.5538 79.2729L73.822 73.7563C74.626 73.5735 75.1274 72.7782 74.9418 71.98Z" fill="#3C008A"/>
<rect width="3.55089" height="12.8669" rx="1.77544" transform="matrix(0.949823 -0.312787 0.317707 0.948189 28.2373 61.877)" fill="#D9D9D9"/>
<path d="M39.5436 70.3193C40.2544 71.7286 40.9652 74.8996 35.8444 75.9566C33.0045 76.5427 31.2985 73.2084 35.2789 72.081" stroke="#3C008A" stroke-width="2.5" stroke-linecap="round"/>
<path d="M42.4796 43.011C44.5264 45.0402 45.3279 48.0055 44.5787 50.7774L42.1573 59.7363C41.4154 62.4812 39.2651 64.6199 36.5118 65.3513L27.3741 67.7786C24.6208 68.51 21.6799 67.7237 19.653 65.7143L13.0376 59.1559C10.9908 57.1268 10.1893 54.1614 10.9384 51.3895L13.3599 42.4307C14.1018 39.6857 16.2521 37.547 19.0054 36.8156L28.143 34.3883C30.8964 33.6569 33.8373 34.4432 35.8642 36.4527L42.4796 43.011Z" fill="#3C008A"/>
<path d="M39.5842 44.8205C41.1193 46.3423 41.7205 48.5664 41.1586 50.6453L39.1322 58.1427C38.5757 60.2014 36.963 61.8054 34.898 62.354L27.2597 64.383C25.1947 64.9315 22.989 64.3418 21.4688 62.8347L15.9326 57.3462C14.3975 55.8244 13.7964 53.6003 14.3582 51.5214L16.3847 44.024C16.9411 41.9653 18.5538 40.3613 20.6188 39.8127L28.2571 37.7837C30.3221 37.2352 32.5278 37.8249 34.048 39.332L39.5842 44.8205Z" fill="white"/>
<path d="M20.9393 53.1866L25.3311 51.9595L26.0617 54.5297L21.6699 55.7568L20.9393 53.1866ZM19.5736 58.037L20.3078 46.5186L23.097 45.7393L29.4513 55.2771L26.6467 56.0607L21.6935 48.1748L22.803 47.8648L22.3628 57.2577L19.5736 58.037ZM32.8836 52.8728L30.6654 45.07L33.47 44.2864L35.6882 52.0892L32.8836 52.8728ZM29.7269 51.0137L28.9525 48.2897L36.642 46.1412L37.4164 48.8653L29.7269 51.0137Z" fill="#3C008A"/>
<path d="M74.8008 76.4912V101.19C74.8008 112.503 84.0845 121.707 95.4963 121.707C99.2851 121.707 102.355 118.663 102.355 114.907C102.355 111.151 99.2851 108.107 95.4963 108.107C91.6482 108.107 88.5187 105.005 88.5187 101.19V76.4912" fill="#7000FF"/>
<path fill-rule="evenodd" clip-rule="evenodd" d="M74.8021 75.0098C75.6274 75.0098 76.2965 75.6731 76.2965 76.4913V101.19C76.2965 111.685 84.9111 120.225 95.4976 120.225C98.461 120.225 100.862 117.845 100.862 114.907C100.862 111.969 98.4611 109.589 95.4976 109.589C90.8241 109.589 87.0255 105.823 87.0255 101.19V76.4913C87.0255 75.6731 87.6946 75.0098 88.52 75.0098C89.3454 75.0098 90.0144 75.6731 90.0144 76.4913V101.19C90.0144 104.187 92.4748 106.626 95.4976 106.626C100.112 106.626 103.851 110.333 103.851 114.907C103.851 119.481 100.112 123.188 95.4976 123.188C83.2604 123.188 73.3076 113.321 73.3076 101.19V76.4913C73.3076 75.6731 73.9767 75.0098 74.8021 75.0098Z" fill="#3C008A"/>
<path d="M93.4498 0C76.1292 0 62.0682 14.0423 62.0682 31.34V85.93H124.835L124.835 31.3435C124.835 14.0458 110.771 0 93.4498 0Z" fill="#7000FF"/>
<path fill-rule="evenodd" clip-rule="evenodd" d="M65.0571 31.34C65.0571 15.6582 77.8005 2.9631 93.4498 2.9631C109.099 2.9631 121.846 15.6617 121.846 31.3435V82.9669H65.0571V31.34ZM62.0682 31.34C62.0682 14.0423 76.1292 0 93.4498 0C110.771 0 124.835 14.0458 124.835 31.3435V85.93H62.0682V31.34Z" fill="#3C008A"/>
<path d="M64.6198 63.1268C69.3549 63.1268 73.21 59.3089 73.21 54.6147V46.3373C73.21 41.6431 69.3588 37.8213 64.6198 37.8213C59.8809 37.8213 56.0336 41.6392 56.0336 46.3373V54.6147C56.0336 59.3089 59.8848 63.1268 64.6198 63.1268Z" fill="white"/>
<path fill-rule="evenodd" clip-rule="evenodd" d="M64.6204 65.102C70.4547 65.102 75.2031 60.4008 75.2031 54.6145V46.3371C75.2031 40.5525 70.4605 35.8457 64.6204 35.8457C58.7798 35.8457 54.0416 40.5492 54.0416 46.3371V54.6145C54.0416 60.3997 58.7849 65.102 64.6204 65.102ZM73.2105 54.6145C73.2105 59.3087 69.3554 63.1266 64.6204 63.1266C59.8854 63.1266 56.0342 59.3087 56.0342 54.6145V46.3371C56.0342 41.639 59.8814 37.8211 64.6204 37.8211C69.3594 37.8211 73.2105 41.6429 73.2105 46.3371V54.6145Z" fill="#3C008A"/>
<path d="M64.6197 38.6038C60.3187 38.6038 56.8227 42.0736 56.8227 46.3335V54.6109C56.8227 58.8748 60.3227 62.3406 64.6236 62.3406C68.9246 62.3406 72.4246 58.8709 72.4246 54.6109V46.3335C72.4246 42.0696 68.9246 38.6038 64.6236 38.6038M64.6236 37.0391C69.8006 37.0391 74.0029 41.2012 74.0029 46.3335V54.6109C74.0029 59.7471 69.8045 63.9054 64.6236 63.9054C59.4467 63.9054 55.2483 59.7432 55.2483 54.6109V46.3335C55.2483 41.1973 59.4467 37.0391 64.6236 37.0391Z" fill="#3C008A"/>
<path d="M61.1481 45.0615C61.1481 43.1604 62.7027 41.6191 64.6204 41.6191C66.5382 41.6191 68.0928 43.1604 68.0928 45.0615V50.632C68.0928 52.5331 66.5382 54.0743 64.6204 54.0743C62.7027 54.0743 61.1481 52.5331 61.1481 50.632V45.0615Z" fill="#1C1C1C"/>
<path d="M61.3371 42.9616C61.3371 41.9562 62.1618 41.1387 63.1759 41.1387C64.19 41.1387 65.0146 41.9562 65.0146 42.9616C65.0146 43.9669 64.19 44.7845 63.1759 44.7845C62.1618 44.7845 61.3371 43.9669 61.3371 42.9616Z" fill="white"/>
<path d="M90.5388 63.1268C95.2738 63.1268 99.1289 59.3089 99.1289 54.6147V46.3373C99.1289 41.6431 95.2778 37.8213 90.5388 37.8213C85.7998 37.8213 81.9526 41.6392 81.9526 46.3373V54.6147C81.9526 59.3089 85.8038 63.1268 90.5388 63.1268Z" fill="white"/>
<path fill-rule="evenodd" clip-rule="evenodd" d="M90.5364 65.102C96.3707 65.102 101.119 60.4008 101.119 54.6145V46.3371C101.119 40.5525 96.3765 35.8457 90.5364 35.8457C84.6958 35.8457 79.9576 40.5492 79.9576 46.3371V54.6145C79.9576 60.3997 84.7009 65.102 90.5364 65.102ZM99.1265 54.6145C99.1265 59.3087 95.2714 63.1266 90.5364 63.1266C85.8014 63.1266 81.9502 59.3087 81.9502 54.6145V46.3371C81.9502 41.639 85.7974 37.8211 90.5364 37.8211C95.2754 37.8211 99.1265 41.6429 99.1265 46.3371V54.6145Z" fill="#3C008A"/>
<path d="M90.5377 38.6038C86.2367 38.6038 82.7406 42.0736 82.7406 46.3335V54.6109C82.7406 58.8748 86.2406 62.3406 90.5416 62.3406C94.8426 62.3406 98.3426 58.8709 98.3426 54.6109V46.3335C98.3426 42.0696 94.8426 38.6038 90.5416 38.6038M90.5416 37.0391C95.7186 37.0391 99.9209 41.2012 99.9209 46.3335V54.6109C99.9209 59.7471 95.7225 63.9054 90.5416 63.9054C85.3646 63.9054 81.1662 59.7432 81.1662 54.6109V46.3335C81.1662 41.1973 85.3646 37.0391 90.5416 37.0391Z" fill="#3C008A"/>
<path d="M87.0641 45.0615C87.0641 43.1604 88.6187 41.6191 90.5364 41.6191C92.4542 41.6191 94.0088 43.1604 94.0088 45.0615V50.632C94.0088 52.5331 92.4542 54.0743 90.5364 54.0743C88.6187 54.0743 87.0641 52.5331 87.0641 50.632V45.0615Z" fill="#1C1C1C"/>
<path d="M87.2541 42.9616C87.2541 41.9562 88.0788 41.1387 89.0929 41.1387C90.107 41.1387 90.9316 41.9562 90.9316 42.9616C90.9316 43.9669 90.107 44.7845 89.0929 44.7845C88.0788 44.7845 87.2541 43.9669 87.2541 42.9616Z" fill="white"/>
<path d="M109.399 26.6775C107.76 26.6775 106.431 25.3604 106.431 23.7357C106.431 22.111 107.76 20.7939 109.399 20.7939C111.038 20.7939 112.366 22.111 112.366 23.7357C112.366 25.3604 111.038 26.6775 109.399 26.6775Z" fill="#FEE702"/>
<path d="M101.908 24.0894C100.681 24.0894 99.6857 23.1029 99.6857 21.886C99.6857 20.6691 100.681 19.6826 101.908 19.6826C103.136 19.6826 104.131 20.6691 104.131 21.886C104.131 23.1029 103.136 24.0894 101.908 24.0894Z" fill="#FEE702"/>
<path d="M105.918 17.9226C105.053 17.9226 104.351 17.2271 104.351 16.369C104.351 15.511 105.053 14.8154 105.918 14.8154C106.784 14.8154 107.485 15.511 107.485 16.369C107.485 17.2271 106.784 17.9226 105.918 17.9226Z" fill="#FEE702"/>
<path fill-rule="evenodd" clip-rule="evenodd" d="M67.2977 30.609C67.7012 31.3071 68.5959 31.5597 69.3112 31.1718C70.0354 30.7792 70.3013 29.879 69.9053 29.1611L68.5941 29.872C69.9053 29.1611 69.9049 29.1604 69.9045 29.1597L69.9037 29.1582L69.902 29.1551L69.8982 29.1484L69.8895 29.133C69.8831 29.1219 69.8755 29.109 69.8669 29.0946C69.8495 29.0657 69.8275 29.0303 69.8006 28.9894C69.747 28.9077 69.6734 28.803 69.5781 28.6833C69.3882 28.4449 69.1072 28.1408 68.7208 27.8407C67.9322 27.2281 66.7389 26.6615 65.0964 26.668M67.2977 30.609C67.2971 30.6081 67.2964 30.607 67.2956 30.6057C67.2871 30.5927 67.2662 30.5621 67.2322 30.5195C67.1636 30.4334 67.047 30.3049 66.8774 30.1731C66.5541 29.922 66.0015 29.6275 65.108 29.6311L65.1073 29.6311C63.9875 29.6351 63.4615 29.9593 63.2384 30.1463C63.1146 30.2499 63.046 30.3436 63.0143 30.3934C63.006 30.4065 63.0004 30.4165 62.997 30.4226C62.7016 31.1558 61.8725 31.534 61.114 31.2697C60.3353 30.9984 59.926 30.1526 60.1997 29.3807L61.6096 29.872C60.1997 29.3807 60.2001 29.3797 60.2004 29.3786L60.2012 29.3765L60.2027 29.3722L60.2061 29.3631L60.2137 29.3427C60.2192 29.3283 60.2256 29.312 60.233 29.2941C60.2477 29.2583 60.2662 29.2158 60.2891 29.1675C60.3349 29.0711 60.3986 28.9508 60.4847 28.8152C60.657 28.5437 60.9204 28.2087 61.3091 27.8831C62.1107 27.2115 63.3306 26.6745 65.0957 26.668" fill="#3C008A"/>
<path fill-rule="evenodd" clip-rule="evenodd" d="M92.704 31.1031C93.1074 31.8013 94.0022 32.0538 94.7175 31.666C95.4416 31.2734 95.7076 30.3731 95.3116 29.6552L94.0004 30.3661C95.3116 29.6552 95.3112 29.6545 95.3108 29.6538L95.3099 29.6523L95.3082 29.6492L95.3045 29.6425L95.2957 29.6271C95.2893 29.616 95.2818 29.6032 95.2731 29.5887C95.2558 29.5599 95.2338 29.5245 95.2069 29.4835C95.1532 29.4018 95.0796 29.2971 94.9843 29.1775C94.7944 28.939 94.5135 28.635 94.1271 28.3348C93.3384 27.7222 92.1452 27.1556 90.5027 27.1622M92.704 31.1031C92.7034 31.1022 92.7027 31.1011 92.7018 31.0999C92.6933 31.0869 92.6724 31.0563 92.6385 31.0136C92.5699 30.9275 92.4533 30.799 92.2837 30.6672C91.9604 30.4161 91.4077 30.1216 90.5143 30.1252L90.5135 30.1252C89.3938 30.1293 88.8678 30.4534 88.6446 30.6404C88.5209 30.7441 88.4522 30.8378 88.4206 30.8876C88.4123 30.9007 88.4066 30.9106 88.4033 30.9167C88.1078 31.65 87.2787 32.0282 86.5202 31.7638C85.7416 31.4925 85.3322 30.6468 85.606 29.8748L87.0158 30.3661C85.606 29.8748 85.6063 29.8738 85.6067 29.8728L85.6074 29.8707L85.609 29.8664L85.6123 29.8572L85.6199 29.8369C85.6255 29.8224 85.6319 29.8062 85.6392 29.7883C85.6539 29.7525 85.6725 29.7099 85.6954 29.6616C85.7412 29.5652 85.8049 29.4449 85.8909 29.3093C86.0633 29.0378 86.3267 28.7029 86.7154 28.3772C87.5169 27.7057 88.7369 27.1687 90.5019 27.1622" fill="#3C008A"/>
<path fill-rule="evenodd" clip-rule="evenodd" d="M75.8576 65.4389C75.4541 64.7407 74.5593 64.4882 73.844 64.876C73.1199 65.2686 72.8539 66.1689 73.25 66.8868L74.5611 66.1759C73.25 66.8868 73.2504 66.8875 73.2508 66.8882L73.2516 66.8897L73.2533 66.8928L73.2571 66.8995L73.2658 66.9149C73.2722 66.926 73.2797 66.9388 73.2884 66.9533C73.3058 66.9821 73.3278 67.0175 73.3546 67.0585C73.4083 67.1402 73.4819 67.2449 73.5772 67.3645C73.7671 67.603 74.048 67.907 74.4344 68.2072C75.2231 68.8198 76.4163 69.3864 78.0588 69.3798M75.8576 65.4389C75.8581 65.4398 75.8589 65.4409 75.8597 65.4421C75.8682 65.4551 75.8891 65.4857 75.9231 65.5284C75.9916 65.6145 76.1082 65.743 76.2779 65.8748C76.6011 66.1259 77.1538 66.4204 78.0472 66.4167L78.048 66.4167C79.1678 66.4127 79.6937 66.0886 79.9169 65.9016C80.0406 65.7979 80.1093 65.7042 80.1409 65.6544C80.1492 65.6413 80.1549 65.6314 80.1582 65.6253C80.4537 64.892 81.2828 64.5138 82.0413 64.7781C82.8199 65.0495 83.2293 65.8952 82.9556 66.6672L81.5457 66.1759C82.9556 66.6672 82.9552 66.6682 82.9548 66.6692L82.9541 66.6713L82.9525 66.6756L82.9492 66.6848L82.9416 66.7051C82.9361 66.7196 82.9297 66.7358 82.9223 66.7537C82.9076 66.7895 82.8891 66.8321 82.8661 66.8803C82.8204 66.9768 82.7567 67.097 82.6706 67.2326C82.4982 67.5042 82.2348 67.8391 81.8461 68.1648C81.0446 68.8363 79.8246 69.3733 78.0596 69.3798" fill="#3C008A"/>
<path d="M77.4785 79.1602V103.859C77.4785 115.172 68.1948 124.376 56.783 124.376C52.9942 124.376 49.924 121.332 49.924 117.576C49.924 113.82 52.9942 110.776 56.783 110.776C60.6311 110.776 63.7606 107.674 63.7606 103.859V79.1602" fill="#7000FF"/>
<path fill-rule="evenodd" clip-rule="evenodd" d="M77.4782 77.6777C76.6529 77.6777 75.9838 78.341 75.9838 79.1593V103.858C75.9838 114.353 67.3692 122.893 56.7827 122.893C53.8192 122.893 51.4182 120.513 51.4182 117.575C51.4182 114.637 53.8192 112.257 56.7827 112.257C61.4562 112.257 65.2547 108.491 65.2547 103.858V79.1593C65.2547 78.341 64.5856 77.6777 63.7603 77.6777C62.9349 77.6777 62.2658 78.341 62.2658 79.1593V103.858C62.2658 106.854 59.8055 109.294 56.7827 109.294C52.1685 109.294 48.4293 113.001 48.4293 117.575C48.4293 122.149 52.1685 125.856 56.7827 125.856C69.0199 125.856 78.9727 115.989 78.9727 103.858V79.1593C78.9727 78.341 78.3036 77.6777 77.4782 77.6777Z" fill="#3C008A"/>
<path d="M89.0498 75.7881V100.487C89.0498 111.8 79.7661 121.004 68.3543 121.004C64.5655 121.004 61.4953 117.96 61.4953 114.204C61.4953 110.448 64.5655 107.404 68.3543 107.404C72.2024 107.404 75.3319 104.302 75.3319 100.487V75.7881" fill="#7000FF"/>
<path fill-rule="evenodd" clip-rule="evenodd" d="M89.0485 74.3066C88.2232 74.3066 87.5541 74.97 87.5541 75.7882V100.487C87.5541 110.982 78.9395 119.522 68.353 119.522C65.3896 119.522 62.9885 117.142 62.9885 114.204C62.9885 111.266 65.3895 108.886 68.353 108.886C73.0265 108.886 76.825 105.12 76.825 100.487V75.7882C76.825 74.97 76.156 74.3066 75.3306 74.3066C74.5052 74.3066 73.8361 74.97 73.8361 75.7882V100.487C73.8361 103.483 71.3758 105.923 68.353 105.923C63.7388 105.923 59.9996 109.629 59.9996 114.204C59.9996 118.778 63.7388 122.485 68.353 122.485C80.5902 122.485 90.543 112.618 90.543 100.487V75.7882C90.543 74.97 89.8739 74.3066 89.0485 74.3066Z" fill="#3C008A"/>
<path d="M109.254 77.041V102.165C109.254 113.672 118.698 123.035 130.309 123.035C134.164 123.035 137.286 119.939 137.286 116.117C137.286 112.295 134.164 109.2 130.309 109.2C126.394 109.2 123.209 106.042 123.209 102.165V77.041" fill="#7000FF"/>
<path fill-rule="evenodd" clip-rule="evenodd" d="M123.21 75.5596C122.384 75.5596 121.715 76.2229 121.715 77.0411V102.165C121.715 106.861 125.57 110.682 130.309 110.682C133.339 110.682 135.792 113.114 135.792 116.117C135.792 119.121 133.339 121.553 130.309 121.553C119.524 121.553 110.749 112.854 110.749 102.165V77.0411H107.76V102.165C107.76 114.49 117.873 124.516 130.309 124.516C134.99 124.516 138.781 120.757 138.781 116.117C138.781 111.477 134.99 107.718 130.309 107.718C127.22 107.718 124.704 105.224 124.704 102.165V77.0411C124.704 76.2229 124.035 75.5596 123.21 75.5596Z" fill="#3C008A"/>
<path d="M103.548 76.4912V101.615C103.548 113.122 112.992 122.485 124.602 122.485C128.458 122.485 131.58 119.389 131.58 115.567C131.58 111.746 128.458 108.65 124.602 108.65C120.688 108.65 117.503 105.492 117.503 101.615V76.4912" fill="#7000FF"/>
<path fill-rule="evenodd" clip-rule="evenodd" d="M117.503 75.0098C116.678 75.0098 116.009 75.6731 116.009 76.4913V101.615C116.009 106.311 119.864 110.132 124.603 110.132C127.633 110.132 130.086 112.564 130.086 115.568C130.086 118.571 127.633 121.003 124.603 121.003C113.818 121.003 105.043 112.304 105.043 101.615V76.4913C105.043 75.6731 104.374 75.0098 103.548 75.0098C102.723 75.0098 102.054 75.6731 102.054 76.4913V101.615C102.054 113.941 112.167 123.967 124.603 123.967C129.284 123.967 133.075 120.208 133.075 115.568C133.075 110.927 129.284 107.169 124.603 107.169C121.514 107.169 118.998 104.674 118.998 101.615V76.4913C118.998 75.6731 118.329 75.0098 117.503 75.0098Z" fill="#3C008A"/>
<path d="M88.9414 76.4912V101.19C88.9414 112.503 98.2251 121.707 109.637 121.707C113.426 121.707 116.496 118.663 116.496 114.907C116.496 111.151 113.426 108.107 109.637 108.107C105.789 108.107 102.659 105.005 102.659 101.19V76.4912" fill="#7000FF"/>
<path fill-rule="evenodd" clip-rule="evenodd" d="M88.9417 75.0098C89.7671 75.0098 90.4362 75.6731 90.4362 76.4913V101.19C90.4362 111.685 99.0507 120.225 109.637 120.225C112.601 120.225 115.002 117.845 115.002 114.907C115.002 111.969 112.601 109.589 109.637 109.589C104.964 109.589 101.165 105.823 101.165 101.19V76.4913C101.165 75.6731 101.834 75.0098 102.66 75.0098C103.485 75.0098 104.154 75.6731 104.154 76.4913V101.19C104.154 104.187 106.614 106.626 109.637 106.626C114.251 106.626 117.991 110.333 117.991 114.907C117.991 119.481 114.251 123.188 109.637 123.188C97.4 123.188 87.4473 113.321 87.4473 101.19V76.4913C87.4473 75.6731 88.1164 75.0098 88.9417 75.0098Z" fill="#3C008A"/>
</svg>
