<svg width="331" height="111" viewBox="0 0 331 111" fill="none" xmlns="http://www.w3.org/2000/svg">
<ellipse cx="35.561" cy="5.74219" rx="35.561" ry="5.74219" transform="matrix(-1 0 0 1 82.623 98.5986)" fill="#CFCFCF"/>
<path d="M55.835 73.8789V89.5916C55.835 96.7889 49.9798 102.644 42.7825 102.644C40.3929 102.644 38.4566 100.708 38.4566 98.3181C38.4566 95.9286 40.3929 93.9923 42.7825 93.9923C45.2095 93.9923 47.1832 92.0186 47.1832 89.5916V73.8789" fill="#7000FF"/>
<path fill-rule="evenodd" clip-rule="evenodd" d="M55.8348 72.9365C55.3143 72.9365 54.8923 73.3585 54.8923 73.8791V89.5917C54.8923 96.2685 49.4591 101.702 42.7824 101.702C40.9133 101.702 39.399 100.187 39.399 98.3183C39.399 96.4493 40.9133 94.9349 42.7824 94.9349C45.7299 94.9349 48.1256 92.5392 48.1256 89.5917V73.8791C48.1256 73.3585 47.7036 72.9365 47.1831 72.9365C46.6625 72.9365 46.2405 73.3585 46.2405 73.8791V89.5917C46.2405 91.4982 44.6888 93.0499 42.7824 93.0499C39.8722 93.0499 37.514 95.4082 37.514 98.3183C37.514 101.228 39.8722 103.587 42.7824 103.587C50.5002 103.587 56.7773 97.3096 56.7773 89.5917V73.8791C56.7773 73.3585 56.3554 72.9365 55.8348 72.9365Z" fill="#3C008A"/>
<path d="M59.2031 83.9668L74.0184 78.7326C80.8046 76.3351 84.3749 68.8639 81.9773 62.0777C81.1813 59.8246 78.7106 58.6439 76.4575 59.4399C74.2044 60.2359 73.0237 62.7066 73.8197 64.9597C74.6282 67.2481 73.4247 69.7665 71.1363 70.575L56.3211 75.8092" fill="#7000FF"/>
<path fill-rule="evenodd" clip-rule="evenodd" d="M55.4329 76.1246C55.2595 75.6338 55.5168 75.0953 56.0076 74.9219L70.8229 69.6877C72.6204 69.0527 73.5666 67.0727 72.9315 65.2751C71.9621 62.5312 73.4001 59.522 76.144 58.5526C78.8879 57.5832 81.8971 59.0212 82.8665 61.7651C85.4375 69.0422 81.6099 77.0518 74.3329 79.6228L59.5176 84.8569L58.8897 83.0795L73.7049 77.8454C80.0003 75.6212 83.3133 68.6885 81.0891 62.3931C80.4665 60.6308 78.5343 59.7074 76.772 60.33C75.0097 60.9526 74.0863 62.8849 74.7089 64.6472C75.6908 67.4264 74.23 70.4833 71.4508 71.4651L56.6356 76.6993C56.1447 76.8727 55.6063 76.6154 55.4329 76.1246Z" fill="#3C008A"/>
<path d="M44.0736 25.2168C54.9975 25.2168 63.8656 34.1502 63.8656 45.1546V79.8836H24.2793L24.2793 45.1569C24.2793 34.1524 33.1496 25.2168 44.0736 25.2168Z" fill="#7000FF"/>
<path d="M34.0141 42.1883C35.0477 42.1883 35.8856 41.3504 35.8856 40.3168C35.8856 39.2832 35.0477 38.4453 34.0141 38.4453C32.9805 38.4453 32.1426 39.2832 32.1426 40.3168C32.1426 41.3504 32.9805 42.1883 34.0141 42.1883Z" fill="#FEE702"/>
<path d="M38.7377 40.5428C39.5119 40.5428 40.1394 39.9152 40.1394 39.141C40.1394 38.3668 39.5119 37.7393 38.7377 37.7393C37.9635 37.7393 37.3359 38.3668 37.3359 39.141C37.3359 39.9152 37.9635 40.5428 38.7377 40.5428Z" fill="#FEE702"/>
<path d="M36.2091 36.6193C36.7549 36.6193 37.1974 36.1768 37.1974 35.6309C37.1974 35.0851 36.7549 34.6426 36.2091 34.6426C35.6632 34.6426 35.2207 35.0851 35.2207 35.6309C35.2207 36.1768 35.6632 36.6193 36.2091 36.6193Z" fill="#FEE702"/>
<path fill-rule="evenodd" clip-rule="evenodd" d="M61.9806 45.1546C61.9806 35.1782 53.9434 27.1019 44.0736 27.1019C34.2037 27.1019 26.1644 35.1805 26.1644 45.1569V77.9986H61.9806V45.1546ZM63.8656 45.1546C63.8656 34.1502 54.9975 25.2168 44.0736 25.2168C33.1496 25.2168 24.2793 34.1524 24.2793 45.1569V79.8836H63.8656V45.1546Z" fill="#3C008A"/>
<path d="M62.2566 65.3762C59.2702 65.3762 56.8389 62.9473 56.8389 59.9609V54.695C56.8389 51.7087 59.2677 49.2773 62.2566 49.2773C65.2454 49.2773 67.6718 51.7062 67.6718 54.695V59.9609C67.6718 62.9473 65.2429 65.3762 62.2566 65.3762Z" fill="white"/>
<path fill-rule="evenodd" clip-rule="evenodd" d="M62.2564 66.6337C58.5768 66.6337 55.582 63.6429 55.582 59.9618V54.6959C55.582 51.0159 58.5732 48.0215 62.2564 48.0215C65.9401 48.0215 68.9284 51.0138 68.9284 54.6959V59.9618C68.9284 63.6422 65.9368 66.6337 62.2564 66.6337ZM56.8387 59.9618C56.8387 62.9481 59.2701 65.377 62.2564 65.377C65.2428 65.377 67.6717 62.9481 67.6717 59.9618V54.6959C67.6717 51.7071 65.2453 49.2782 62.2564 49.2782C59.2676 49.2782 56.8387 51.7096 56.8387 54.6959V59.9618Z" fill="#3C008A"/>
<path d="M62.2568 49.7757C64.9694 49.7757 67.1743 51.9831 67.1743 54.6932V59.9591C67.1743 62.6717 64.9669 64.8766 62.2543 64.8766C59.5417 64.8766 57.3343 62.6692 57.3343 59.9591V54.6932C57.3343 51.9806 59.5417 49.7757 62.2543 49.7757M62.2543 48.7803C58.9892 48.7803 56.3389 51.4282 56.3389 54.6932V59.9591C56.3389 63.2267 58.9867 65.8721 62.2543 65.8721C65.5194 65.8721 68.1672 63.2242 68.1672 59.9591V54.6932C68.1672 51.4257 65.5194 48.7803 62.2543 48.7803Z" fill="#3C008A"/>
<path d="M64.4464 53.8853C64.4464 52.6758 63.4659 51.6953 62.2564 51.6953C61.0469 51.6953 60.0664 52.6758 60.0664 53.8853V57.4291C60.0664 58.6386 61.0469 59.6191 62.2564 59.6191C63.4659 59.6191 64.4464 58.6386 64.4464 57.4291V53.8853Z" fill="#1C1C1C"/>
<path d="M64.3272 52.5484C64.3272 51.9088 63.8071 51.3887 63.1675 51.3887C62.5279 51.3887 62.0078 51.9088 62.0078 52.5484C62.0078 53.1879 62.5279 53.7081 63.1675 53.7081C63.8071 53.7081 64.3272 53.1879 64.3272 52.5484Z" fill="white"/>
<path d="M45.9099 65.3762C42.9236 65.3762 40.4922 62.9473 40.4922 59.9609V54.695C40.4922 51.7087 42.9211 49.2773 45.9099 49.2773C48.8987 49.2773 51.3251 51.7062 51.3251 54.695V59.9609C51.3251 62.9473 48.8962 65.3762 45.9099 65.3762Z" fill="white"/>
<path fill-rule="evenodd" clip-rule="evenodd" d="M45.9107 66.6337C42.2311 66.6337 39.2363 63.6429 39.2363 59.9618V54.6959C39.2363 51.0159 42.2275 48.0215 45.9107 48.0215C49.5944 48.0215 52.5827 51.0138 52.5827 54.6959V59.9618C52.5827 63.6422 49.5911 66.6337 45.9107 66.6337ZM40.493 59.9618C40.493 62.9481 42.9244 65.377 45.9107 65.377C48.8971 65.377 51.326 62.9481 51.326 59.9618V54.6959C51.326 51.7071 48.8996 49.2782 45.9107 49.2782C42.9219 49.2782 40.493 51.7096 40.493 54.6959V59.9618Z" fill="#3C008A"/>
<path d="M45.9101 49.7757C48.6227 49.7757 50.8276 51.9831 50.8276 54.6932V59.9591C50.8276 62.6717 48.6202 64.8766 45.9076 64.8766C43.195 64.8766 40.9876 62.6692 40.9876 59.9591V54.6932C40.9876 51.9806 43.195 49.7757 45.9076 49.7757M45.9076 48.7803C42.6426 48.7803 39.9922 51.4282 39.9922 54.6932V59.9591C39.9922 63.2267 42.6401 65.8721 45.9076 65.8721C49.1727 65.8721 51.8206 63.2242 51.8206 59.9591V54.6932C51.8206 51.4257 49.1727 48.7803 45.9076 48.7803Z" fill="#3C008A"/>
<path d="M48.1007 53.8853C48.1007 52.6758 47.1202 51.6953 45.9107 51.6953C44.7012 51.6953 43.7207 52.6758 43.7207 53.8853V57.4291C43.7207 58.6386 44.7012 59.6191 45.9107 59.6191C47.1202 59.6191 48.1007 58.6386 48.1007 57.4291V53.8853Z" fill="#1C1C1C"/>
<path d="M47.9805 52.5484C47.9805 51.9088 47.4604 51.3887 46.8208 51.3887C46.1813 51.3887 45.6611 51.9088 45.6611 52.5484C45.6611 53.1879 46.1813 53.7081 46.8208 53.7081C47.4604 53.7081 47.9805 53.1879 47.9805 52.5484Z" fill="white"/>
<path fill-rule="evenodd" clip-rule="evenodd" d="M60.2445 43.3464C59.8021 43.6038 59.2331 43.4608 58.9657 43.0215C58.6951 42.5769 58.8362 41.997 59.2809 41.7264L59.7709 42.5315C59.2809 41.7264 59.2813 41.7261 59.2817 41.7258L59.2827 41.7253L59.2846 41.7241L59.2888 41.7216L59.2985 41.7159C59.3055 41.7118 59.3137 41.7071 59.323 41.7019C59.3417 41.6914 59.3649 41.6789 59.3926 41.6648C59.4479 41.6367 59.5215 41.6022 59.6116 41.5664C59.7911 41.4949 60.0413 41.4159 60.3478 41.3724C60.9734 41.2836 61.8054 41.3477 62.7004 41.8693M60.2445 43.3464C60.2452 43.3461 60.2459 43.3457 60.2468 43.3453C60.2555 43.3408 60.2767 43.3305 60.3088 43.3177C60.3736 43.2919 60.4782 43.2579 60.6128 43.2388C60.8692 43.2024 61.2648 43.2144 61.7516 43.4981L61.752 43.4984C62.3623 43.8537 62.5465 44.1982 62.6089 44.3715C62.6435 44.4677 62.6512 44.541 62.6527 44.5784C62.653 44.5882 62.653 44.5955 62.6528 44.5999C62.581 45.097 62.9135 45.5669 63.4119 45.6604C63.9235 45.7565 64.4161 45.4196 64.5121 44.908L63.5858 44.7341C64.5121 44.908 64.5123 44.9073 64.5124 44.9066L64.5127 44.9052L64.5132 44.9024L64.5143 44.8963L64.5166 44.8827C64.5182 44.8729 64.5198 44.862 64.5215 44.8498C64.5249 44.8254 64.5283 44.7962 64.5311 44.7623C64.5368 44.6948 64.5402 44.6084 64.5364 44.5066C64.5286 44.3026 64.4913 44.035 64.3826 43.733C64.1584 43.1103 63.6628 42.4297 62.7009 41.8695" fill="#3C008A"/>
<path fill-rule="evenodd" clip-rule="evenodd" d="M45.2381 45.5607C45.2398 46.0725 44.8314 46.4938 44.3173 46.5057C43.7969 46.5177 43.3653 46.1056 43.3533 45.5852L44.2955 45.5634C43.3533 45.5852 43.3532 45.5847 43.3532 45.5842L43.3532 45.5831L43.3532 45.5809L43.3531 45.576L43.353 45.5647C43.3529 45.5566 43.353 45.5472 43.3531 45.5365C43.3534 45.5151 43.3542 45.4887 43.3558 45.4576C43.3591 45.3957 43.366 45.3148 43.38 45.2188C43.4079 45.0275 43.4646 44.7715 43.5802 44.4842C43.8161 43.898 44.2876 43.2096 45.1868 42.6952M45.2381 45.5607C45.2381 45.56 45.2381 45.5591 45.2382 45.5582C45.2387 45.5483 45.2404 45.5249 45.2454 45.4907C45.2554 45.4216 45.2782 45.314 45.329 45.188C45.4257 44.9477 45.6338 44.6111 46.123 44.3314L46.1234 44.3311C46.7363 43.9802 47.1267 43.993 47.3081 44.0256C47.4086 44.0437 47.4759 44.0737 47.5091 44.0912C47.5177 44.0957 47.524 44.0994 47.5278 44.1018C47.9224 44.4126 48.4955 44.3595 48.8257 43.9747C49.1647 43.5796 49.1193 42.9846 48.7242 42.6456L48.1105 43.3609C48.7242 42.6456 48.7237 42.6451 48.7232 42.6447L48.7221 42.6438L48.7199 42.6419L48.7152 42.6379L48.7045 42.6291C48.6969 42.6229 48.6882 42.6159 48.6785 42.6084C48.6591 42.5933 48.6355 42.5757 48.6076 42.5563C48.5519 42.5177 48.4789 42.4715 48.3887 42.4239C48.2082 42.3287 47.9578 42.2272 47.6419 42.1704C46.9905 42.0531 46.1533 42.142 45.1872 42.695" fill="#3C008A"/>
<path fill-rule="evenodd" clip-rule="evenodd" d="M55.5307 67.1071C55.7851 66.6629 56.3494 66.5023 56.8006 66.749C57.2573 66.9988 57.425 67.5715 57.1752 68.0282L56.3483 67.5759C57.1752 68.0282 57.175 68.0286 57.1747 68.0291L57.1742 68.03L57.1731 68.032L57.1708 68.0363L57.1652 68.0461C57.1612 68.0531 57.1565 68.0613 57.151 68.0705C57.1401 68.0889 57.1262 68.1114 57.1092 68.1374C57.0754 68.1894 57.029 68.256 56.9689 68.3321C56.8491 68.4838 56.6719 68.6773 56.4282 68.8682C55.9308 69.2579 55.1783 69.6184 54.1423 69.6142M55.5307 67.1071C55.5303 67.1076 55.5298 67.1083 55.5293 67.1091C55.5239 67.1174 55.5108 67.1369 55.4894 67.164C55.4461 67.2188 55.3726 67.3005 55.2656 67.3844C55.0617 67.5441 54.7131 67.7315 54.1496 67.7292L54.1492 67.7292C53.4429 67.7266 53.1112 67.5204 52.9705 67.4014C52.8924 67.3355 52.8491 67.2759 52.8292 67.2442C52.824 67.2359 52.8204 67.2295 52.8183 67.2256C52.6319 66.7592 52.109 66.5186 51.6307 66.6867C51.1396 66.8594 50.8814 67.3974 51.054 67.8885L51.9432 67.5759C51.054 67.8885 51.0543 67.8891 51.0545 67.8898L51.055 67.8911L51.0559 67.8939L51.058 67.8997L51.0628 67.9126C51.0663 67.9218 51.0704 67.9322 51.075 67.9436C51.0843 67.9663 51.096 67.9934 51.1104 68.0241C51.1393 68.0855 51.1795 68.162 51.2338 68.2482C51.3425 68.421 51.5086 68.6341 51.7537 68.8412C52.2593 69.2685 53.0287 69.6101 54.1419 69.6142" fill="#3C008A"/>
<path d="M54.1465 74.6338V90.3465C54.1465 97.5438 60.0016 103.399 67.1989 103.399C69.5885 103.399 71.5248 101.463 71.5248 99.073C71.5248 96.6834 69.5885 94.7471 67.1989 94.7471C64.772 94.7471 62.7982 92.7734 62.7982 90.3465V74.6338" fill="#7000FF"/>
<path fill-rule="evenodd" clip-rule="evenodd" d="M54.1457 73.6914C54.6662 73.6914 55.0882 74.1134 55.0882 74.6339V90.3466C55.0882 97.0234 60.5213 102.457 67.1981 102.457C69.0671 102.457 70.5814 100.942 70.5814 99.0732C70.5814 97.2041 69.0671 95.6898 67.1981 95.6898C64.2506 95.6898 61.8549 93.2941 61.8549 90.3466V74.6339C61.8549 74.1134 62.2769 73.6914 62.7974 73.6914C63.318 73.6914 63.7399 74.1134 63.7399 74.6339V90.3466C63.7399 92.253 65.2917 93.8048 67.1981 93.8048C70.1082 93.8048 72.4665 96.163 72.4665 99.0732C72.4665 101.983 70.1082 104.342 67.1981 104.342C59.4802 104.342 53.2031 98.0645 53.2031 90.3466V74.6339C53.2031 74.1134 53.6251 73.6914 54.1457 73.6914Z" fill="#3C008A"/>
<path d="M46.8496 73.4316L46.8496 89.1443C46.8496 96.3416 52.7047 102.197 59.9021 102.197C62.2916 102.197 64.2279 100.26 64.2279 97.8709C64.2279 95.4813 62.2916 93.545 59.9021 93.545C57.4751 93.545 55.5014 91.5713 55.5014 89.1443V73.4316" fill="#7000FF"/>
<path fill-rule="evenodd" clip-rule="evenodd" d="M46.8488 72.4893C47.3693 72.4893 47.7913 72.9112 47.7913 73.4318L47.7913 89.1445C47.7913 95.8212 53.2244 101.254 59.9012 101.254C61.7703 101.254 63.2846 99.74 63.2846 97.871C63.2846 96.002 61.7703 94.4877 59.9012 94.4877C56.9537 94.4877 54.558 92.092 54.558 89.1445V73.4318C54.558 72.9112 54.98 72.4893 55.5005 72.4893C56.0211 72.4893 56.4431 72.9112 56.4431 73.4318V89.1445C56.4431 91.0509 57.9948 92.6026 59.9012 92.6026C62.8113 92.6026 65.1696 94.9609 65.1696 97.871C65.1696 100.781 62.8114 103.139 59.9012 103.139C52.1834 103.139 45.9063 96.8623 45.9063 89.1445L45.9062 73.4318C45.9062 72.9112 46.3282 72.4893 46.8488 72.4893Z" fill="#3C008A"/>
<path d="M34.1056 74.2285V90.2118C34.1056 97.5324 28.1492 103.489 20.8265 103.489C18.3951 103.489 16.4258 101.519 16.4258 99.088C16.4258 96.6566 18.3951 94.6873 20.8265 94.6873C23.2953 94.6873 25.3042 92.6784 25.3042 90.2118V74.2285" fill="#7000FF"/>
<path fill-rule="evenodd" clip-rule="evenodd" d="M25.3043 73.2852C25.8249 73.2852 26.2469 73.7071 26.2469 74.2277V90.211C26.2469 93.1984 23.8157 95.629 20.8266 95.629C18.9158 95.629 17.3685 97.1763 17.3685 99.0872C17.3685 100.998 18.9158 102.545 20.8266 102.545C27.6289 102.545 33.1632 97.0109 33.1632 90.211V74.2277H35.0482V90.211C35.0482 98.0522 28.6698 104.43 20.8266 104.43C17.8747 104.43 15.4834 102.039 15.4834 99.0872C15.4834 96.1353 17.8747 93.744 20.8266 93.744C22.7752 93.744 24.3618 92.1567 24.3618 90.211V74.2277C24.3618 73.7071 24.7838 73.2852 25.3043 73.2852Z" fill="#3C008A"/>
<path d="M37.7052 73.8789V89.8622C37.7052 97.1828 31.7488 103.139 24.4261 103.139C21.9947 103.139 20.0254 101.17 20.0254 98.7384C20.0254 96.307 21.9947 94.3377 24.4261 94.3377C26.8949 94.3377 28.9038 92.3288 28.9038 89.8622V73.8789" fill="#7000FF"/>
<path fill-rule="evenodd" clip-rule="evenodd" d="M28.9029 72.9365C29.4235 72.9365 29.8455 73.3585 29.8455 73.8791V89.8624C29.8455 92.8498 27.4143 95.2804 24.4253 95.2804C22.5144 95.2804 20.9671 96.8277 20.9671 98.7386C20.9671 100.649 22.5144 102.197 24.4253 102.197C31.2276 102.197 36.7618 96.6623 36.7618 89.8624V73.8791C36.7618 73.3585 37.1838 72.9365 37.7043 72.9365C38.2249 72.9365 38.6469 73.3585 38.6469 73.8791V89.8624C38.6469 97.7036 32.2684 104.082 24.4253 104.082C21.4733 104.082 19.082 101.69 19.082 98.7386C19.082 95.7866 21.4733 93.3953 24.4253 93.3953C26.3738 93.3953 27.9604 91.8081 27.9604 89.8624V73.8791C27.9604 73.3585 28.3824 72.9365 28.9029 72.9365Z" fill="#3C008A"/>
<path d="M46.918 73.8789V89.5916C46.918 96.7889 41.0628 102.644 33.8655 102.644C31.4759 102.644 29.5396 100.708 29.5396 98.3181C29.5396 95.9286 31.4759 93.9923 33.8655 93.9923C36.2925 93.9923 38.2662 92.0186 38.2662 89.5916V73.8789" fill="#7000FF"/>
<path fill-rule="evenodd" clip-rule="evenodd" d="M46.9168 72.9365C46.3963 72.9365 45.9743 73.3585 45.9743 73.8791V89.5917C45.9743 96.2685 40.5412 101.702 33.8644 101.702C31.9954 101.702 30.481 100.187 30.481 98.3183C30.481 96.4493 31.9954 94.9349 33.8644 94.9349C36.8119 94.9349 39.2076 92.5392 39.2076 89.5917V73.8791C39.2076 73.3585 38.7856 72.9365 38.2651 72.9365C37.7445 72.9365 37.3226 73.3585 37.3226 73.8791V89.5917C37.3226 91.4982 35.7708 93.0499 33.8644 93.0499C30.9543 93.0499 28.596 95.4082 28.596 98.3183C28.596 101.228 30.9543 103.587 33.8644 103.587C41.5823 103.587 47.8594 97.3096 47.8594 89.5917V73.8791C47.8594 73.3585 47.4374 72.9365 46.9168 72.9365Z" fill="#3C008A"/>
<circle cx="13.5755" cy="27.4586" r="2.91138" transform="rotate(30 13.5755 27.4586)" stroke="#D9D9D9" stroke-width="1.5"/>
<rect x="6.42871" y="4.48926" width="23.3024" height="23.1602" rx="3.25" fill="white" stroke="#D9D9D9" stroke-width="1.5"/>
<g clip-path="url(#clip0_708_4894)">
<path d="M22.7021 17.5412H13.1951C12.7375 17.5412 12.3682 17.1613 12.3682 16.6905C12.3682 16.2198 12.7375 15.8398 13.1951 15.8398H22.7021C23.1597 15.8398 23.5291 16.2198 23.5291 16.6905C23.5291 17.1613 23.1597 17.5412 22.7021 17.5412Z" fill="#D3D3D3"/>
<path d="M13.3304 22.2935C12.5696 22.2935 11.9521 21.6583 11.9521 20.8757V12.5077C11.9521 11.725 12.5696 11.0898 13.3304 11.0898C14.0912 11.0898 14.7086 11.725 14.7086 12.5077V20.8757C14.7086 21.6583 14.0912 22.2935 13.3304 22.2935Z" fill="#7000FF"/>
<path d="M11.1253 20.5919C10.3645 20.5919 9.74707 19.9567 9.74707 19.1741V14.2088C9.74707 13.4262 10.3645 12.791 11.1253 12.791C11.8861 12.791 12.5035 13.4262 12.5035 14.2088V19.1741C12.5035 19.9567 11.8861 20.5919 11.1253 20.5919Z" fill="#7000FF"/>
<path d="M22.7024 22.2935C21.9417 22.2935 21.3242 21.6583 21.3242 20.8757V12.5077C21.3242 11.725 21.9417 11.0898 22.7024 11.0898C23.4632 11.0898 24.0807 11.725 24.0807 12.5077V20.8757C24.0807 21.6583 23.4632 22.2935 22.7024 22.2935Z" fill="#7000FF"/>
<path d="M24.9075 20.5919C24.1467 20.5919 23.5293 19.9567 23.5293 19.1741V14.2088C23.5293 13.4262 24.1467 12.791 24.9075 12.791C25.6683 12.791 26.2858 13.4262 26.2858 14.2088V19.1741C26.2858 19.9567 25.6683 20.5919 24.9075 20.5919Z" fill="#7000FF"/>
<g opacity="0.6">
<path d="M13.3306 14.4925C13.0274 14.4925 12.7793 14.2373 12.7793 13.9254V12.5076C12.7793 12.1956 13.0274 11.9404 13.3306 11.9404C13.6338 11.9404 13.8819 12.1956 13.8819 12.5076V13.9254C13.8819 14.2373 13.6338 14.4925 13.3306 14.4925Z" fill="white"/>
</g>
<g opacity="0.6">
<path d="M22.7027 14.4925C22.3994 14.4925 22.1514 14.2373 22.1514 13.9254V12.5076C22.1514 12.1956 22.3994 11.9404 22.7027 11.9404C23.0059 11.9404 23.2539 12.1956 23.2539 12.5076V13.9254C23.2539 14.2373 23.0059 14.4925 22.7027 14.4925Z" fill="white"/>
</g>
<g opacity="0.6">
<path d="M24.9077 16.1937C24.6045 16.1937 24.3564 15.9385 24.3564 15.6266V14.2087C24.3564 13.8968 24.6045 13.6416 24.9077 13.6416C25.2109 13.6416 25.459 13.8968 25.459 14.2087V15.6266C25.459 15.9385 25.2109 16.1937 24.9077 16.1937Z" fill="white"/>
</g>
<g opacity="0.6">
<path d="M11.1255 16.1937C10.8223 16.1937 10.5742 15.9385 10.5742 15.6266V14.2087C10.5742 13.8968 10.8223 13.6416 11.1255 13.6416C11.4287 13.6416 11.6768 13.8968 11.6768 14.2087V15.6266C11.6768 15.9385 11.4287 16.1937 11.1255 16.1937Z" fill="white"/>
</g>
</g>
<circle cx="12.3683" cy="37.8439" r="2.52942" stroke="#D9D9D9" stroke-width="1.5"/>
<circle cx="19.0139" cy="43.9865" r="1.8371" stroke="#D9D9D9" stroke-width="1.5"/>
<rect x="92" y="17" width="239" height="76" rx="16" fill="#7000FF"/>
<rect x="86.1807" y="40.8193" width="8.23004" height="8.23004" transform="rotate(-45 86.1807 40.8193)" fill="#7000FF"/>
<path d="M104.96 40V29.104H108.976C109.755 29.104 110.448 29.2587 111.056 29.568C111.675 29.8773 112.16 30.3147 112.512 30.88C112.875 31.4453 113.056 32.1173 113.056 32.896C113.056 33.6853 112.875 34.3627 112.512 34.928C112.16 35.4933 111.675 35.9307 111.056 36.24C110.448 36.5387 109.755 36.688 108.976 36.688H106.784V34.432H108.8C109.387 34.432 109.84 34.304 110.16 34.048C110.491 33.7813 110.656 33.3973 110.656 32.896C110.656 32.3947 110.491 32.016 110.16 31.76C109.84 31.4933 109.387 31.36 108.8 31.36H106.768L107.296 30.832V40H104.96ZM110.608 40L108.288 35.568H110.848L113.168 40H110.608ZM117.585 40.144C116.806 40.144 116.118 39.9787 115.521 39.648C114.934 39.3173 114.476 38.848 114.145 38.24C113.825 37.632 113.665 36.9173 113.665 36.096C113.665 35.2853 113.825 34.5707 114.145 33.952C114.476 33.3333 114.934 32.8533 115.521 32.512C116.118 32.16 116.806 31.984 117.585 31.984C118.385 31.984 119.078 32.1653 119.665 32.528C120.252 32.8907 120.705 33.3813 121.025 34C121.345 34.608 121.505 35.296 121.505 36.064C121.505 36.2027 121.5 36.336 121.489 36.464C121.478 36.592 121.468 36.6933 121.457 36.768H115.489V35.104H119.665L119.393 35.792C119.393 35.2053 119.244 34.7253 118.945 34.352C118.657 33.9787 118.209 33.792 117.601 33.792C117.057 33.792 116.62 33.9573 116.289 34.288C115.969 34.6187 115.809 35.056 115.809 35.6V36.48C115.809 37.0667 115.974 37.5253 116.305 37.856C116.646 38.176 117.116 38.336 117.713 38.336C118.214 38.336 118.609 38.2347 118.897 38.032C119.196 37.8293 119.446 37.5787 119.649 37.28L121.233 38.16C120.892 38.7893 120.412 39.28 119.793 39.632C119.174 39.9733 118.438 40.144 117.585 40.144ZM125.06 40.208C124.494 40.208 123.993 40.1013 123.556 39.888C123.129 39.664 122.798 39.3547 122.564 38.96C122.329 38.5653 122.212 38.1067 122.212 37.584C122.212 37.0293 122.34 36.56 122.596 36.176C122.852 35.7813 123.193 35.4773 123.62 35.264C124.057 35.0507 124.542 34.944 125.076 34.944C125.854 34.944 126.484 35.12 126.964 35.472C127.444 35.824 127.764 36.3307 127.924 36.992L126.916 36.816V34.992C126.916 34.704 126.814 34.4533 126.612 34.24C126.409 34.0267 126.084 33.92 125.636 33.92C125.348 33.92 125.017 33.9573 124.644 34.032C124.27 34.096 123.886 34.224 123.492 34.416L122.804 32.752C123.273 32.5173 123.774 32.3307 124.308 32.192C124.852 32.0533 125.406 31.984 125.972 31.984C126.697 31.984 127.305 32.112 127.796 32.368C128.286 32.624 128.649 32.9867 128.884 33.456C129.129 33.9253 129.252 34.4693 129.252 35.088V40H127.348L126.884 38.48L127.924 38.16C127.753 38.8 127.428 39.3013 126.948 39.664C126.468 40.0267 125.838 40.208 125.06 40.208ZM125.78 38.544C126.132 38.544 126.409 38.4533 126.612 38.272C126.825 38.0907 126.932 37.8613 126.932 37.584C126.932 37.2853 126.825 37.0507 126.612 36.88C126.409 36.7093 126.132 36.624 125.78 36.624C125.428 36.624 125.15 36.7093 124.948 36.88C124.745 37.0507 124.644 37.2853 124.644 37.584C124.644 37.8613 124.745 38.0907 124.948 38.272C125.15 38.4533 125.428 38.544 125.78 38.544ZM133.937 40.192C133.233 40.192 132.609 40.0213 132.065 39.68C131.521 39.328 131.094 38.8427 130.785 38.224C130.486 37.5947 130.337 36.88 130.337 36.08C130.337 35.28 130.491 34.5707 130.801 33.952C131.11 33.3333 131.537 32.8533 132.081 32.512C132.625 32.16 133.249 31.984 133.953 31.984C134.646 31.984 135.243 32.144 135.745 32.464C136.257 32.7733 136.651 33.232 136.929 33.84C137.217 34.448 137.361 35.1947 137.361 36.08C137.361 36.9227 137.217 37.6533 136.929 38.272C136.641 38.88 136.241 39.3547 135.729 39.696C135.217 40.0267 134.619 40.192 133.937 40.192ZM134.385 38C134.865 38 135.259 37.824 135.569 37.472C135.889 37.1093 136.049 36.6453 136.049 36.08C136.049 35.5253 135.889 35.072 135.569 34.72C135.259 34.3573 134.865 34.176 134.385 34.176C133.905 34.176 133.505 34.3573 133.185 34.72C132.875 35.072 132.721 35.5253 132.721 36.08C132.721 36.6453 132.875 37.1093 133.185 37.472C133.505 37.824 133.905 38 134.385 38ZM136.529 40L135.937 38H136.081V34.352H135.937V29.104H138.273V40H136.529ZM142.389 39.408L139.253 32.176H141.621L144.597 39.056L142.389 39.408ZM140.709 43.04L145.429 32.176H147.797L143.093 43.04H140.709ZM156.383 40.128C155.519 40.128 154.836 39.9147 154.335 39.488C153.844 39.0613 153.599 38.3627 153.599 37.392V32.272L153.567 32.176L154.047 30.288H155.935V36.88C155.935 37.2427 156.02 37.504 156.191 37.664C156.362 37.8133 156.586 37.888 156.863 37.888C157.023 37.888 157.172 37.8773 157.311 37.856C157.46 37.824 157.583 37.792 157.679 37.76V39.952C157.498 40.0053 157.3 40.048 157.087 40.08C156.884 40.112 156.65 40.128 156.383 40.128ZM152.383 34.32V32.176H157.679V34.32H152.383ZM162.777 40.192C161.966 40.192 161.252 40.0213 160.633 39.68C160.014 39.328 159.534 38.8427 159.193 38.224C158.852 37.6053 158.681 36.896 158.681 36.096C158.681 35.2853 158.852 34.5707 159.193 33.952C159.534 33.3333 160.014 32.8533 160.633 32.512C161.252 32.16 161.966 31.984 162.777 31.984C163.598 31.984 164.318 32.16 164.937 32.512C165.556 32.8533 166.036 33.3333 166.377 33.952C166.729 34.5707 166.905 35.2853 166.905 36.096C166.905 36.896 166.729 37.6053 166.377 38.224C166.036 38.8427 165.556 39.328 164.937 39.68C164.318 40.0213 163.598 40.192 162.777 40.192ZM162.777 37.92C163.3 37.92 163.721 37.7547 164.041 37.424C164.372 37.0827 164.537 36.64 164.537 36.096C164.537 35.5413 164.372 35.0933 164.041 34.752C163.721 34.4107 163.3 34.24 162.777 34.24C162.276 34.24 161.86 34.4107 161.529 34.752C161.209 35.0827 161.049 35.5253 161.049 36.08C161.049 36.6347 161.209 37.0827 161.529 37.424C161.86 37.7547 162.276 37.92 162.777 37.92ZM179.022 40H172.398V29.104H174.734V38.624L174.142 37.744H179.022V40ZM183.554 40.144C182.775 40.144 182.087 39.9787 181.49 39.648C180.903 39.3173 180.444 38.848 180.114 38.24C179.794 37.632 179.634 36.9173 179.634 36.096C179.634 35.2853 179.794 34.5707 180.114 33.952C180.444 33.3333 180.903 32.8533 181.49 32.512C182.087 32.16 182.775 31.984 183.554 31.984C184.354 31.984 185.047 32.1653 185.634 32.528C186.22 32.8907 186.674 33.3813 186.994 34C187.314 34.608 187.474 35.296 187.474 36.064C187.474 36.2027 187.468 36.336 187.458 36.464C187.447 36.592 187.436 36.6933 187.426 36.768H181.458V35.104H185.634L185.362 35.792C185.362 35.2053 185.212 34.7253 184.914 34.352C184.626 33.9787 184.178 33.792 183.57 33.792C183.026 33.792 182.588 33.9573 182.258 34.288C181.938 34.6187 181.778 35.056 181.778 35.6V36.48C181.778 37.0667 181.943 37.5253 182.274 37.856C182.615 38.176 183.084 38.336 183.682 38.336C184.183 38.336 184.578 38.2347 184.866 38.032C185.164 37.8293 185.415 37.5787 185.618 37.28L187.202 38.16C186.86 38.7893 186.38 39.28 185.762 39.632C185.143 39.9733 184.407 40.144 183.554 40.144ZM191.029 40.208C190.463 40.208 189.962 40.1013 189.525 39.888C189.098 39.664 188.767 39.3547 188.533 38.96C188.298 38.5653 188.181 38.1067 188.181 37.584C188.181 37.0293 188.309 36.56 188.565 36.176C188.821 35.7813 189.162 35.4773 189.589 35.264C190.026 35.0507 190.511 34.944 191.045 34.944C191.823 34.944 192.453 35.12 192.933 35.472C193.413 35.824 193.733 36.3307 193.893 36.992L192.885 36.816V34.992C192.885 34.704 192.783 34.4533 192.581 34.24C192.378 34.0267 192.053 33.92 191.605 33.92C191.317 33.92 190.986 33.9573 190.613 34.032C190.239 34.096 189.855 34.224 189.461 34.416L188.773 32.752C189.242 32.5173 189.743 32.3307 190.277 32.192C190.821 32.0533 191.375 31.984 191.941 31.984C192.666 31.984 193.274 32.112 193.765 32.368C194.255 32.624 194.618 32.9867 194.853 33.456C195.098 33.9253 195.221 34.4693 195.221 35.088V40H193.317L192.853 38.48L193.893 38.16C193.722 38.8 193.397 39.3013 192.917 39.664C192.437 40.0267 191.807 40.208 191.029 40.208ZM191.749 38.544C192.101 38.544 192.378 38.4533 192.581 38.272C192.794 38.0907 192.901 37.8613 192.901 37.584C192.901 37.2853 192.794 37.0507 192.581 36.88C192.378 36.7093 192.101 36.624 191.749 36.624C191.397 36.624 191.119 36.7093 190.917 36.88C190.714 37.0507 190.613 37.2853 190.613 37.584C190.613 37.8613 190.714 38.0907 190.917 38.272C191.119 38.4533 191.397 38.544 191.749 38.544ZM198.498 32.176L199.106 34.336V40H196.77V32.176H198.498ZM198.594 35.632L198.194 35.456V33.648L198.338 33.456C198.466 33.2747 198.647 33.0667 198.882 32.832C199.127 32.5973 199.41 32.4 199.73 32.24C200.06 32.0693 200.396 31.984 200.738 31.984C200.908 31.984 201.063 31.9947 201.202 32.016C201.34 32.0373 201.452 32.0747 201.538 32.128V34.256H201.01C200.327 34.256 199.788 34.368 199.394 34.592C199.01 34.8053 198.743 35.152 198.594 35.632ZM207.461 31.984C207.983 31.984 208.41 32.0747 208.741 32.256C209.071 32.4267 209.322 32.6667 209.493 32.976C209.674 33.2853 209.791 33.6373 209.845 34.032C209.909 34.416 209.941 34.816 209.941 35.232V40H207.605V35.36C207.605 34.912 207.525 34.6187 207.365 34.48C207.205 34.3307 206.991 34.256 206.725 34.256C206.501 34.256 206.266 34.304 206.021 34.4C205.786 34.4853 205.557 34.608 205.333 34.768C205.109 34.928 204.911 35.1093 204.741 35.312L204.325 34.128H204.981V40H202.645V32.176H204.373L204.853 33.728L204.053 33.664C204.33 33.3547 204.645 33.072 204.997 32.816C205.349 32.56 205.733 32.3573 206.149 32.208C206.565 32.0587 207.002 31.984 207.461 31.984ZM213.888 36.592L212.72 34.8L213.824 34.048C214.283 33.7387 214.645 33.4773 214.912 33.264C215.179 33.04 215.371 32.8267 215.488 32.624C215.605 32.4107 215.664 32.176 215.664 31.92C215.664 31.6 215.552 31.3387 215.328 31.136C215.104 30.9227 214.821 30.816 214.48 30.816C214.192 30.816 213.883 30.8907 213.552 31.04C213.221 31.1787 212.832 31.456 212.384 31.872L211.872 32.32L210.448 30.624L210.8 30.288C211.301 29.7653 211.861 29.344 212.48 29.024C213.099 28.704 213.781 28.544 214.528 28.544C215.243 28.544 215.861 28.688 216.384 28.976C216.917 29.264 217.328 29.6587 217.616 30.16C217.904 30.6507 218.048 31.2 218.048 31.808C218.048 32.32 217.957 32.7893 217.776 33.216C217.605 33.6427 217.317 34.0533 216.912 34.448C216.507 34.8427 215.968 35.2533 215.296 35.68L213.888 36.592ZM214.288 40.112C213.872 40.112 213.515 39.968 213.216 39.68C212.928 39.392 212.784 39.04 212.784 38.624C212.784 38.208 212.928 37.856 213.216 37.568C213.515 37.2693 213.872 37.12 214.288 37.12C214.704 37.12 215.056 37.2693 215.344 37.568C215.643 37.856 215.792 38.208 215.792 38.624C215.792 39.04 215.643 39.392 215.344 39.68C215.056 39.968 214.704 40.112 214.288 40.112Z" fill="white"/>
<path d="M108.944 62.108C108.024 62.108 107.248 61.936 106.616 61.592C105.984 61.24 105.504 60.74 105.176 60.092C104.856 59.444 104.696 58.672 104.696 57.776C104.696 57.104 104.788 56.504 104.972 55.976C105.164 55.44 105.436 54.984 105.788 54.608C106.148 54.224 106.584 53.932 107.096 53.732C107.616 53.532 108.204 53.432 108.86 53.432C109.34 53.432 109.812 53.496 110.276 53.624C110.74 53.744 111.164 53.944 111.548 54.224C111.66 54.304 111.732 54.396 111.764 54.5C111.796 54.604 111.796 54.712 111.764 54.824C111.74 54.928 111.688 55.02 111.608 55.1C111.536 55.18 111.444 55.228 111.332 55.244C111.228 55.26 111.112 55.228 110.984 55.148C110.672 54.932 110.344 54.776 110 54.68C109.656 54.576 109.276 54.524 108.86 54.524C108.236 54.524 107.708 54.652 107.276 54.908C106.852 55.164 106.532 55.536 106.316 56.024C106.1 56.504 105.992 57.088 105.992 57.776C105.992 58.84 106.244 59.648 106.748 60.2C107.252 60.752 108 61.028 108.992 61.028C109.352 61.028 109.704 60.996 110.048 60.932C110.4 60.86 110.736 60.76 111.056 60.632L110.804 61.256V58.46H109.256C109.096 58.46 108.968 58.42 108.872 58.34C108.784 58.252 108.74 58.132 108.74 57.98C108.74 57.828 108.784 57.716 108.872 57.644C108.968 57.564 109.096 57.524 109.256 57.524H111.332C111.5 57.524 111.628 57.568 111.716 57.656C111.804 57.744 111.848 57.872 111.848 58.04V61.064C111.848 61.208 111.82 61.332 111.764 61.436C111.716 61.532 111.632 61.604 111.512 61.652C111.168 61.788 110.764 61.9 110.3 61.988C109.836 62.068 109.384 62.108 108.944 62.108ZM116.665 62.108C116.025 62.108 115.473 61.988 115.009 61.748C114.553 61.5 114.197 61.152 113.941 60.704C113.693 60.248 113.569 59.708 113.569 59.084C113.569 58.476 113.693 57.944 113.941 57.488C114.189 57.032 114.529 56.676 114.961 56.42C115.393 56.164 115.885 56.036 116.437 56.036C116.845 56.036 117.209 56.104 117.529 56.24C117.849 56.368 118.121 56.56 118.345 56.816C118.577 57.064 118.749 57.368 118.861 57.728C118.981 58.088 119.041 58.492 119.041 58.94C119.041 59.076 119.001 59.18 118.921 59.252C118.841 59.316 118.721 59.348 118.561 59.348H114.529V58.604H118.225L118.021 58.772C118.021 58.372 117.961 58.032 117.841 57.752C117.729 57.472 117.557 57.26 117.325 57.116C117.101 56.964 116.821 56.888 116.485 56.888C116.109 56.888 115.789 56.976 115.525 57.152C115.269 57.328 115.073 57.572 114.937 57.884C114.801 58.196 114.733 58.56 114.733 58.976V59.048C114.733 59.752 114.897 60.284 115.225 60.644C115.561 60.996 116.045 61.172 116.677 61.172C116.917 61.172 117.169 61.14 117.433 61.076C117.705 61.012 117.961 60.904 118.201 60.752C118.337 60.672 118.457 60.636 118.561 60.644C118.673 60.652 118.761 60.688 118.825 60.752C118.897 60.816 118.941 60.896 118.957 60.992C118.973 61.088 118.957 61.188 118.909 61.292C118.861 61.388 118.777 61.476 118.657 61.556C118.385 61.74 118.069 61.88 117.709 61.976C117.349 62.064 117.001 62.108 116.665 62.108ZM123.135 62.108C122.655 62.108 122.251 62.024 121.923 61.856C121.595 61.688 121.351 61.44 121.191 61.112C121.031 60.784 120.951 60.384 120.951 59.912V57.08H120.231C120.071 57.08 119.947 57.04 119.859 56.96C119.771 56.872 119.727 56.756 119.727 56.612C119.727 56.46 119.771 56.344 119.859 56.264C119.947 56.184 120.071 56.144 120.231 56.144H120.951V54.908C120.951 54.708 121.003 54.556 121.107 54.452C121.219 54.348 121.371 54.296 121.563 54.296C121.755 54.296 121.903 54.348 122.007 54.452C122.111 54.556 122.163 54.708 122.163 54.908V56.144H123.567C123.727 56.144 123.851 56.184 123.939 56.264C124.027 56.344 124.071 56.46 124.071 56.612C124.071 56.756 124.027 56.872 123.939 56.96C123.851 57.04 123.727 57.08 123.567 57.08H122.163V59.816C122.163 60.24 122.251 60.56 122.427 60.776C122.611 60.992 122.907 61.1 123.315 61.1C123.459 61.1 123.583 61.088 123.687 61.064C123.799 61.032 123.891 61.012 123.963 61.004C124.051 61.004 124.123 61.036 124.179 61.1C124.235 61.156 124.263 61.268 124.263 61.436C124.263 61.556 124.239 61.668 124.191 61.772C124.151 61.876 124.075 61.944 123.963 61.976C123.867 62.008 123.735 62.036 123.567 62.06C123.407 62.092 123.263 62.108 123.135 62.108ZM129.374 62.084C129.174 62.084 129.022 62.032 128.918 61.928C128.814 61.816 128.762 61.664 128.762 61.472V56.672C128.762 56.472 128.814 56.32 128.918 56.216C129.022 56.112 129.166 56.06 129.35 56.06C129.542 56.06 129.686 56.112 129.782 56.216C129.886 56.32 129.938 56.472 129.938 56.672V57.548H129.818C129.946 57.068 130.182 56.704 130.526 56.456C130.87 56.208 131.31 56.064 131.846 56.024C131.99 56.016 132.102 56.052 132.182 56.132C132.27 56.212 132.318 56.336 132.326 56.504C132.342 56.672 132.306 56.808 132.218 56.912C132.13 57.008 131.994 57.064 131.81 57.08L131.582 57.104C131.062 57.152 130.666 57.316 130.394 57.596C130.122 57.876 129.986 58.26 129.986 58.748V61.472C129.986 61.664 129.934 61.816 129.83 61.928C129.734 62.032 129.582 62.084 129.374 62.084ZM136.192 62.108C135.552 62.108 135 61.988 134.536 61.748C134.08 61.5 133.724 61.152 133.468 60.704C133.22 60.248 133.096 59.708 133.096 59.084C133.096 58.476 133.22 57.944 133.468 57.488C133.716 57.032 134.056 56.676 134.488 56.42C134.92 56.164 135.412 56.036 135.964 56.036C136.372 56.036 136.736 56.104 137.056 56.24C137.376 56.368 137.648 56.56 137.872 56.816C138.104 57.064 138.276 57.368 138.388 57.728C138.508 58.088 138.568 58.492 138.568 58.94C138.568 59.076 138.528 59.18 138.448 59.252C138.368 59.316 138.248 59.348 138.088 59.348H134.056V58.604H137.752L137.548 58.772C137.548 58.372 137.488 58.032 137.368 57.752C137.256 57.472 137.084 57.26 136.852 57.116C136.628 56.964 136.348 56.888 136.012 56.888C135.636 56.888 135.316 56.976 135.052 57.152C134.796 57.328 134.6 57.572 134.464 57.884C134.328 58.196 134.26 58.56 134.26 58.976V59.048C134.26 59.752 134.424 60.284 134.752 60.644C135.088 60.996 135.572 61.172 136.204 61.172C136.444 61.172 136.696 61.14 136.96 61.076C137.232 61.012 137.488 60.904 137.728 60.752C137.864 60.672 137.984 60.636 138.088 60.644C138.2 60.652 138.288 60.688 138.352 60.752C138.424 60.816 138.468 60.896 138.484 60.992C138.5 61.088 138.484 61.188 138.436 61.292C138.388 61.388 138.304 61.476 138.184 61.556C137.912 61.74 137.596 61.88 137.236 61.976C136.876 62.064 136.528 62.108 136.192 62.108ZM142.05 62.108C141.642 62.108 141.274 62.028 140.946 61.868C140.626 61.708 140.374 61.492 140.19 61.22C140.006 60.948 139.914 60.64 139.914 60.296C139.914 59.864 140.022 59.524 140.238 59.276C140.462 59.02 140.826 58.84 141.33 58.736C141.842 58.624 142.53 58.568 143.394 58.568H143.958V59.312H143.406C142.83 59.312 142.374 59.34 142.038 59.396C141.702 59.452 141.462 59.548 141.318 59.684C141.182 59.812 141.114 59.992 141.114 60.224C141.114 60.528 141.218 60.776 141.426 60.968C141.634 61.152 141.922 61.244 142.29 61.244C142.586 61.244 142.846 61.176 143.07 61.04C143.294 60.896 143.47 60.704 143.598 60.464C143.734 60.224 143.802 59.948 143.802 59.636V58.256C143.802 57.8 143.706 57.472 143.514 57.272C143.322 57.072 143.006 56.972 142.566 56.972C142.31 56.972 142.042 57.004 141.762 57.068C141.49 57.132 141.206 57.24 140.91 57.392C140.774 57.456 140.658 57.476 140.562 57.452C140.466 57.428 140.39 57.376 140.334 57.296C140.278 57.208 140.246 57.116 140.238 57.02C140.238 56.916 140.262 56.816 140.31 56.72C140.366 56.624 140.458 56.552 140.586 56.504C140.938 56.336 141.286 56.216 141.63 56.144C141.974 56.072 142.298 56.036 142.602 56.036C143.138 56.036 143.578 56.12 143.922 56.288C144.274 56.456 144.534 56.712 144.702 57.056C144.87 57.4 144.954 57.844 144.954 58.388V61.472C144.954 61.664 144.906 61.816 144.81 61.928C144.714 62.032 144.574 62.084 144.39 62.084C144.214 62.084 144.074 62.032 143.97 61.928C143.866 61.816 143.814 61.664 143.814 61.472V60.692H143.922C143.858 60.988 143.738 61.244 143.562 61.46C143.394 61.668 143.182 61.828 142.926 61.94C142.67 62.052 142.378 62.108 142.05 62.108ZM149.143 62.108C148.631 62.108 148.179 61.988 147.787 61.748C147.403 61.5 147.103 61.148 146.887 60.692C146.671 60.228 146.563 59.688 146.563 59.072C146.563 58.44 146.671 57.9 146.887 57.452C147.103 57.004 147.403 56.656 147.787 56.408C148.179 56.16 148.631 56.036 149.143 56.036C149.655 56.036 150.095 56.164 150.463 56.42C150.839 56.668 151.091 57.004 151.219 57.428H151.087V54.068C151.087 53.868 151.139 53.716 151.243 53.612C151.347 53.508 151.495 53.456 151.687 53.456C151.879 53.456 152.027 53.508 152.131 53.612C152.243 53.716 152.299 53.868 152.299 54.068V61.472C152.299 61.664 152.247 61.816 152.143 61.928C152.039 62.032 151.891 62.084 151.699 62.084C151.507 62.084 151.359 62.032 151.255 61.928C151.151 61.816 151.099 61.664 151.099 61.472V60.416L151.231 60.68C151.103 61.112 150.851 61.46 150.475 61.724C150.107 61.98 149.663 62.108 149.143 62.108ZM149.455 61.172C149.783 61.172 150.071 61.092 150.319 60.932C150.567 60.772 150.759 60.536 150.895 60.224C151.039 59.912 151.111 59.528 151.111 59.072C151.111 58.384 150.959 57.864 150.655 57.512C150.351 57.16 149.951 56.984 149.455 56.984C149.119 56.984 148.827 57.064 148.579 57.224C148.331 57.376 148.135 57.608 147.991 57.92C147.855 58.232 147.787 58.616 147.787 59.072C147.787 59.752 147.939 60.272 148.243 60.632C148.547 60.992 148.951 61.172 149.455 61.172ZM155.669 64.244C155.525 64.244 155.405 64.204 155.309 64.124C155.221 64.052 155.169 63.952 155.153 63.824C155.145 63.704 155.169 63.572 155.225 63.428L156.041 61.592V62.108L153.797 56.888C153.741 56.744 153.721 56.608 153.737 56.48C153.753 56.352 153.813 56.252 153.917 56.18C154.021 56.1 154.161 56.06 154.337 56.06C154.489 56.06 154.609 56.096 154.697 56.168C154.785 56.24 154.865 56.364 154.937 56.54L156.749 61.016H156.413L158.249 56.54C158.321 56.356 158.405 56.232 158.501 56.168C158.597 56.096 158.729 56.06 158.897 56.06C159.041 56.06 159.153 56.1 159.233 56.18C159.321 56.252 159.373 56.352 159.389 56.48C159.413 56.6 159.393 56.732 159.329 56.876L156.329 63.776C156.249 63.96 156.157 64.084 156.053 64.148C155.957 64.212 155.829 64.244 155.669 64.244ZM165.223 62.084C165.031 62.084 164.879 62.032 164.767 61.928C164.663 61.816 164.611 61.664 164.611 61.472V57.08H163.939C163.787 57.08 163.667 57.04 163.579 56.96C163.491 56.872 163.447 56.756 163.447 56.612C163.447 56.46 163.491 56.344 163.579 56.264C163.667 56.184 163.787 56.144 163.939 56.144H164.959L164.611 56.468V56.036C164.611 55.244 164.807 54.648 165.199 54.248C165.591 53.84 166.163 53.6 166.915 53.528L167.287 53.504C167.423 53.488 167.531 53.508 167.611 53.564C167.691 53.62 167.743 53.692 167.767 53.78C167.791 53.868 167.791 53.96 167.767 54.056C167.751 54.144 167.711 54.224 167.647 54.296C167.583 54.368 167.503 54.408 167.407 54.416L167.179 54.428C166.707 54.468 166.363 54.604 166.147 54.836C165.931 55.06 165.823 55.404 165.823 55.868V56.336L165.655 56.144H166.987C167.155 56.144 167.279 56.184 167.359 56.264C167.447 56.344 167.491 56.46 167.491 56.612C167.491 56.756 167.447 56.872 167.359 56.96C167.279 57.04 167.155 57.08 166.987 57.08H165.823V61.472C165.823 61.88 165.623 62.084 165.223 62.084ZM171.091 62.108C170.499 62.108 169.987 61.984 169.555 61.736C169.131 61.488 168.799 61.136 168.559 60.68C168.319 60.224 168.199 59.688 168.199 59.072C168.199 58.6 168.267 58.18 168.403 57.812C168.539 57.444 168.731 57.128 168.979 56.864C169.235 56.592 169.539 56.388 169.891 56.252C170.251 56.108 170.651 56.036 171.091 56.036C171.675 56.036 172.179 56.16 172.603 56.408C173.035 56.656 173.371 57.008 173.611 57.464C173.851 57.912 173.971 58.448 173.971 59.072C173.971 59.536 173.903 59.956 173.767 60.332C173.631 60.708 173.435 61.028 173.179 61.292C172.931 61.556 172.627 61.76 172.267 61.904C171.915 62.04 171.523 62.108 171.091 62.108ZM171.091 61.172C171.419 61.172 171.707 61.092 171.955 60.932C172.203 60.772 172.395 60.536 172.531 60.224C172.675 59.912 172.747 59.528 172.747 59.072C172.747 58.384 172.595 57.864 172.291 57.512C171.987 57.16 171.587 56.984 171.091 56.984C170.755 56.984 170.463 57.064 170.215 57.224C169.967 57.376 169.771 57.608 169.627 57.92C169.491 58.232 169.423 58.616 169.423 59.072C169.423 59.752 169.575 60.272 169.879 60.632C170.183 60.992 170.587 61.172 171.091 61.172ZM176.233 62.084C176.033 62.084 175.881 62.032 175.777 61.928C175.673 61.816 175.621 61.664 175.621 61.472V56.672C175.621 56.472 175.673 56.32 175.777 56.216C175.881 56.112 176.025 56.06 176.209 56.06C176.401 56.06 176.545 56.112 176.641 56.216C176.745 56.32 176.797 56.472 176.797 56.672V57.548H176.677C176.805 57.068 177.041 56.704 177.385 56.456C177.729 56.208 178.169 56.064 178.705 56.024C178.849 56.016 178.961 56.052 179.041 56.132C179.129 56.212 179.177 56.336 179.185 56.504C179.201 56.672 179.165 56.808 179.077 56.912C178.989 57.008 178.853 57.064 178.669 57.08L178.441 57.104C177.921 57.152 177.525 57.316 177.253 57.596C176.981 57.876 176.845 58.26 176.845 58.748V61.472C176.845 61.664 176.793 61.816 176.689 61.928C176.593 62.032 176.441 62.084 176.233 62.084ZM186.333 62.108C185.853 62.108 185.449 62.024 185.121 61.856C184.793 61.688 184.549 61.44 184.389 61.112C184.229 60.784 184.149 60.384 184.149 59.912V57.08H183.429C183.269 57.08 183.145 57.04 183.057 56.96C182.969 56.872 182.925 56.756 182.925 56.612C182.925 56.46 182.969 56.344 183.057 56.264C183.145 56.184 183.269 56.144 183.429 56.144H184.149V54.908C184.149 54.708 184.201 54.556 184.305 54.452C184.417 54.348 184.569 54.296 184.761 54.296C184.953 54.296 185.101 54.348 185.205 54.452C185.309 54.556 185.361 54.708 185.361 54.908V56.144H186.765C186.925 56.144 187.049 56.184 187.137 56.264C187.225 56.344 187.269 56.46 187.269 56.612C187.269 56.756 187.225 56.872 187.137 56.96C187.049 57.04 186.925 57.08 186.765 57.08H185.361V59.816C185.361 60.24 185.449 60.56 185.625 60.776C185.809 60.992 186.105 61.1 186.513 61.1C186.657 61.1 186.781 61.088 186.885 61.064C186.997 61.032 187.089 61.012 187.161 61.004C187.249 61.004 187.321 61.036 187.377 61.1C187.433 61.156 187.461 61.268 187.461 61.436C187.461 61.556 187.437 61.668 187.389 61.772C187.349 61.876 187.273 61.944 187.161 61.976C187.065 62.008 186.933 62.036 186.765 62.06C186.605 62.092 186.461 62.108 186.333 62.108ZM190.993 62.108C190.401 62.108 189.889 61.984 189.457 61.736C189.033 61.488 188.701 61.136 188.461 60.68C188.221 60.224 188.101 59.688 188.101 59.072C188.101 58.6 188.169 58.18 188.305 57.812C188.441 57.444 188.633 57.128 188.881 56.864C189.137 56.592 189.441 56.388 189.793 56.252C190.153 56.108 190.553 56.036 190.993 56.036C191.577 56.036 192.081 56.16 192.505 56.408C192.937 56.656 193.273 57.008 193.513 57.464C193.753 57.912 193.873 58.448 193.873 59.072C193.873 59.536 193.805 59.956 193.669 60.332C193.533 60.708 193.337 61.028 193.081 61.292C192.833 61.556 192.529 61.76 192.169 61.904C191.817 62.04 191.425 62.108 190.993 62.108ZM190.993 61.172C191.321 61.172 191.609 61.092 191.857 60.932C192.105 60.772 192.297 60.536 192.433 60.224C192.577 59.912 192.649 59.528 192.649 59.072C192.649 58.384 192.497 57.864 192.193 57.512C191.889 57.16 191.489 56.984 190.993 56.984C190.657 56.984 190.365 57.064 190.117 57.224C189.869 57.376 189.673 57.608 189.529 57.92C189.393 58.232 189.325 58.616 189.325 59.072C189.325 59.752 189.477 60.272 189.781 60.632C190.085 60.992 190.489 61.172 190.993 61.172ZM197.755 62.108C197.243 62.108 196.791 61.988 196.399 61.748C196.015 61.5 195.715 61.148 195.499 60.692C195.283 60.228 195.175 59.688 195.175 59.072C195.175 58.44 195.283 57.9 195.499 57.452C195.715 57.004 196.015 56.656 196.399 56.408C196.791 56.16 197.243 56.036 197.755 56.036C198.267 56.036 198.707 56.164 199.075 56.42C199.451 56.668 199.703 57.004 199.831 57.428H199.699V54.068C199.699 53.868 199.751 53.716 199.855 53.612C199.959 53.508 200.107 53.456 200.299 53.456C200.491 53.456 200.639 53.508 200.743 53.612C200.855 53.716 200.911 53.868 200.911 54.068V61.472C200.911 61.664 200.859 61.816 200.755 61.928C200.651 62.032 200.503 62.084 200.311 62.084C200.119 62.084 199.971 62.032 199.867 61.928C199.763 61.816 199.711 61.664 199.711 61.472V60.416L199.843 60.68C199.715 61.112 199.463 61.46 199.087 61.724C198.719 61.98 198.275 62.108 197.755 62.108ZM198.067 61.172C198.395 61.172 198.683 61.092 198.931 60.932C199.179 60.772 199.371 60.536 199.507 60.224C199.651 59.912 199.723 59.528 199.723 59.072C199.723 58.384 199.571 57.864 199.267 57.512C198.963 57.16 198.563 56.984 198.067 56.984C197.731 56.984 197.439 57.064 197.191 57.224C196.943 57.376 196.747 57.608 196.603 57.92C196.467 58.232 196.399 58.616 196.399 59.072C196.399 59.752 196.551 60.272 196.855 60.632C197.159 60.992 197.563 61.172 198.067 61.172ZM204.772 62.108C204.364 62.108 203.996 62.028 203.668 61.868C203.348 61.708 203.096 61.492 202.912 61.22C202.728 60.948 202.636 60.64 202.636 60.296C202.636 59.864 202.744 59.524 202.96 59.276C203.184 59.02 203.548 58.84 204.052 58.736C204.564 58.624 205.252 58.568 206.116 58.568H206.68V59.312H206.128C205.552 59.312 205.096 59.34 204.76 59.396C204.424 59.452 204.184 59.548 204.04 59.684C203.904 59.812 203.836 59.992 203.836 60.224C203.836 60.528 203.94 60.776 204.148 60.968C204.356 61.152 204.644 61.244 205.012 61.244C205.308 61.244 205.568 61.176 205.792 61.04C206.016 60.896 206.192 60.704 206.32 60.464C206.456 60.224 206.524 59.948 206.524 59.636V58.256C206.524 57.8 206.428 57.472 206.236 57.272C206.044 57.072 205.728 56.972 205.288 56.972C205.032 56.972 204.764 57.004 204.484 57.068C204.212 57.132 203.928 57.24 203.632 57.392C203.496 57.456 203.38 57.476 203.284 57.452C203.188 57.428 203.112 57.376 203.056 57.296C203 57.208 202.968 57.116 202.96 57.02C202.96 56.916 202.984 56.816 203.032 56.72C203.088 56.624 203.18 56.552 203.308 56.504C203.66 56.336 204.008 56.216 204.352 56.144C204.696 56.072 205.02 56.036 205.324 56.036C205.86 56.036 206.3 56.12 206.644 56.288C206.996 56.456 207.256 56.712 207.424 57.056C207.592 57.4 207.676 57.844 207.676 58.388V61.472C207.676 61.664 207.628 61.816 207.532 61.928C207.436 62.032 207.296 62.084 207.112 62.084C206.936 62.084 206.796 62.032 206.692 61.928C206.588 61.816 206.536 61.664 206.536 61.472V60.692H206.644C206.58 60.988 206.46 61.244 206.284 61.46C206.116 61.668 205.904 61.828 205.648 61.94C205.392 62.052 205.1 62.108 204.772 62.108ZM210.955 64.244C210.811 64.244 210.691 64.204 210.595 64.124C210.507 64.052 210.455 63.952 210.439 63.824C210.431 63.704 210.455 63.572 210.511 63.428L211.327 61.592V62.108L209.083 56.888C209.027 56.744 209.007 56.608 209.023 56.48C209.039 56.352 209.099 56.252 209.203 56.18C209.307 56.1 209.447 56.06 209.623 56.06C209.775 56.06 209.895 56.096 209.983 56.168C210.071 56.24 210.151 56.364 210.223 56.54L212.035 61.016H211.699L213.535 56.54C213.607 56.356 213.691 56.232 213.787 56.168C213.883 56.096 214.015 56.06 214.183 56.06C214.327 56.06 214.439 56.1 214.519 56.18C214.607 56.252 214.659 56.352 214.675 56.48C214.699 56.6 214.679 56.732 214.615 56.876L211.615 63.776C211.535 63.96 211.443 64.084 211.339 64.148C211.243 64.212 211.115 64.244 210.955 64.244ZM216.637 57.02C216.525 57.02 216.425 56.98 216.337 56.9C216.249 56.812 216.197 56.696 216.181 56.552L215.989 54.164C215.965 53.964 216.017 53.796 216.145 53.66C216.273 53.524 216.437 53.456 216.637 53.456C216.765 53.456 216.881 53.488 216.985 53.552C217.089 53.608 217.165 53.692 217.213 53.804C217.269 53.908 217.289 54.028 217.273 54.164L217.081 56.552C217.073 56.696 217.025 56.812 216.937 56.9C216.857 56.98 216.757 57.02 216.637 57.02ZM221.215 62.108C220.863 62.108 220.499 62.068 220.123 61.988C219.755 61.908 219.415 61.772 219.103 61.58C218.999 61.508 218.927 61.428 218.887 61.34C218.847 61.252 218.831 61.164 218.839 61.076C218.855 60.98 218.891 60.9 218.947 60.836C219.011 60.764 219.087 60.72 219.175 60.704C219.271 60.688 219.371 60.708 219.475 60.764C219.787 60.94 220.087 61.064 220.375 61.136C220.663 61.2 220.947 61.232 221.227 61.232C221.651 61.232 221.971 61.156 222.187 61.004C222.403 60.852 222.511 60.648 222.511 60.392C222.511 60.184 222.439 60.024 222.295 59.912C222.151 59.792 221.935 59.7 221.647 59.636L220.507 59.408C220.011 59.304 219.635 59.12 219.379 58.856C219.123 58.592 218.995 58.256 218.995 57.848C218.995 57.48 219.095 57.16 219.295 56.888C219.495 56.616 219.775 56.408 220.135 56.264C220.495 56.112 220.911 56.036 221.383 56.036C221.735 56.036 222.067 56.08 222.379 56.168C222.691 56.256 222.979 56.388 223.243 56.564C223.347 56.62 223.415 56.696 223.447 56.792C223.479 56.88 223.483 56.968 223.459 57.056C223.443 57.144 223.403 57.224 223.339 57.296C223.275 57.36 223.195 57.4 223.099 57.416C223.011 57.424 222.911 57.4 222.799 57.344C222.559 57.192 222.319 57.084 222.079 57.02C221.847 56.956 221.615 56.924 221.383 56.924C220.959 56.924 220.639 57.004 220.423 57.164C220.215 57.316 220.111 57.524 220.111 57.788C220.111 57.988 220.175 58.152 220.303 58.28C220.431 58.408 220.631 58.5 220.903 58.556L222.043 58.784C222.563 58.888 222.955 59.064 223.219 59.312C223.491 59.56 223.627 59.896 223.627 60.32C223.627 60.872 223.407 61.308 222.967 61.628C222.527 61.948 221.943 62.108 221.215 62.108ZM227.779 64.28C227.635 64.288 227.519 64.264 227.431 64.208C227.335 64.152 227.271 64.08 227.239 63.992C227.199 63.904 227.187 63.812 227.203 63.716C227.211 63.628 227.251 63.548 227.323 63.476C227.387 63.412 227.475 63.376 227.587 63.368C227.987 63.344 228.279 63.236 228.463 63.044C228.655 62.852 228.751 62.548 228.751 62.132V56.672C228.751 56.472 228.803 56.32 228.907 56.216C229.019 56.112 229.171 56.06 229.363 56.06C229.563 56.06 229.711 56.112 229.807 56.216C229.911 56.32 229.963 56.472 229.963 56.672V62.036C229.963 62.532 229.879 62.94 229.711 63.26C229.551 63.588 229.311 63.832 228.991 63.992C228.671 64.152 228.267 64.248 227.779 64.28ZM229.363 54.836C229.123 54.836 228.935 54.776 228.799 54.656C228.671 54.536 228.607 54.368 228.607 54.152C228.607 53.928 228.671 53.76 228.799 53.648C228.935 53.528 229.123 53.468 229.363 53.468C229.603 53.468 229.787 53.528 229.915 53.648C230.043 53.76 230.107 53.928 230.107 54.152C230.107 54.368 230.043 54.536 229.915 54.656C229.787 54.776 229.603 54.836 229.363 54.836ZM234.5 62.108C233.908 62.108 233.396 61.984 232.964 61.736C232.54 61.488 232.208 61.136 231.968 60.68C231.728 60.224 231.608 59.688 231.608 59.072C231.608 58.6 231.676 58.18 231.812 57.812C231.948 57.444 232.14 57.128 232.388 56.864C232.644 56.592 232.948 56.388 233.3 56.252C233.66 56.108 234.06 56.036 234.5 56.036C235.084 56.036 235.588 56.16 236.012 56.408C236.444 56.656 236.78 57.008 237.02 57.464C237.26 57.912 237.38 58.448 237.38 59.072C237.38 59.536 237.312 59.956 237.176 60.332C237.04 60.708 236.844 61.028 236.588 61.292C236.34 61.556 236.036 61.76 235.676 61.904C235.324 62.04 234.932 62.108 234.5 62.108ZM234.5 61.172C234.828 61.172 235.116 61.092 235.364 60.932C235.612 60.772 235.804 60.536 235.94 60.224C236.084 59.912 236.156 59.528 236.156 59.072C236.156 58.384 236.004 57.864 235.7 57.512C235.396 57.16 234.996 56.984 234.5 56.984C234.164 56.984 233.872 57.064 233.624 57.224C233.376 57.376 233.18 57.608 233.036 57.92C232.9 58.232 232.832 58.616 232.832 59.072C232.832 59.752 232.984 60.272 233.288 60.632C233.592 60.992 233.996 61.172 234.5 61.172ZM241.118 62.108C240.646 62.108 240.25 62.02 239.93 61.844C239.618 61.668 239.382 61.408 239.222 61.064C239.07 60.712 238.994 60.272 238.994 59.744V56.672C238.994 56.464 239.046 56.312 239.15 56.216C239.254 56.112 239.402 56.06 239.594 56.06C239.786 56.06 239.934 56.112 240.038 56.216C240.15 56.312 240.206 56.464 240.206 56.672V59.756C240.206 60.228 240.302 60.576 240.494 60.8C240.686 61.024 240.99 61.136 241.406 61.136C241.862 61.136 242.23 60.984 242.51 60.68C242.798 60.368 242.942 59.96 242.942 59.456V56.672C242.942 56.464 242.994 56.312 243.098 56.216C243.202 56.112 243.354 56.06 243.554 56.06C243.746 56.06 243.894 56.112 243.998 56.216C244.102 56.312 244.154 56.464 244.154 56.672V61.472C244.154 61.88 243.958 62.084 243.566 62.084C243.382 62.084 243.238 62.032 243.134 61.928C243.03 61.816 242.978 61.664 242.978 61.472V60.452L243.134 60.716C242.974 61.164 242.718 61.508 242.366 61.748C242.014 61.988 241.598 62.108 241.118 62.108ZM246.762 62.084C246.562 62.084 246.41 62.032 246.306 61.928C246.202 61.816 246.15 61.664 246.15 61.472V56.672C246.15 56.472 246.202 56.32 246.306 56.216C246.41 56.112 246.554 56.06 246.738 56.06C246.93 56.06 247.074 56.112 247.17 56.216C247.274 56.32 247.326 56.472 247.326 56.672V57.548H247.206C247.334 57.068 247.57 56.704 247.914 56.456C248.258 56.208 248.698 56.064 249.234 56.024C249.378 56.016 249.49 56.052 249.57 56.132C249.658 56.212 249.706 56.336 249.714 56.504C249.73 56.672 249.694 56.808 249.606 56.912C249.518 57.008 249.382 57.064 249.198 57.08L248.97 57.104C248.45 57.152 248.054 57.316 247.782 57.596C247.51 57.876 247.374 58.26 247.374 58.748V61.472C247.374 61.664 247.322 61.816 247.218 61.928C247.122 62.032 246.97 62.084 246.762 62.084ZM251.514 62.084C251.322 62.084 251.174 62.032 251.07 61.928C250.966 61.816 250.914 61.664 250.914 61.472V56.672C250.914 56.472 250.966 56.32 251.07 56.216C251.174 56.112 251.318 56.06 251.502 56.06C251.694 56.06 251.838 56.112 251.934 56.216C252.038 56.32 252.09 56.472 252.09 56.672V57.608L251.958 57.392C252.134 56.944 252.41 56.608 252.786 56.384C253.162 56.152 253.594 56.036 254.082 56.036C254.546 56.036 254.93 56.124 255.234 56.3C255.546 56.468 255.778 56.728 255.93 57.08C256.082 57.424 256.158 57.86 256.158 58.388V61.472C256.158 61.664 256.106 61.816 256.002 61.928C255.898 62.032 255.75 62.084 255.558 62.084C255.358 62.084 255.206 62.032 255.102 61.928C254.998 61.816 254.946 61.664 254.946 61.472V58.46C254.946 57.956 254.846 57.588 254.646 57.356C254.454 57.124 254.15 57.008 253.734 57.008C253.246 57.008 252.854 57.16 252.558 57.464C252.27 57.768 252.126 58.176 252.126 58.688V61.472C252.126 61.88 251.922 62.084 251.514 62.084ZM260.864 62.108C260.224 62.108 259.672 61.988 259.208 61.748C258.752 61.5 258.396 61.152 258.14 60.704C257.892 60.248 257.768 59.708 257.768 59.084C257.768 58.476 257.892 57.944 258.14 57.488C258.388 57.032 258.728 56.676 259.16 56.42C259.592 56.164 260.084 56.036 260.636 56.036C261.044 56.036 261.408 56.104 261.728 56.24C262.048 56.368 262.32 56.56 262.544 56.816C262.776 57.064 262.948 57.368 263.06 57.728C263.18 58.088 263.24 58.492 263.24 58.94C263.24 59.076 263.2 59.18 263.12 59.252C263.04 59.316 262.92 59.348 262.76 59.348H258.728V58.604H262.424L262.22 58.772C262.22 58.372 262.16 58.032 262.04 57.752C261.928 57.472 261.756 57.26 261.524 57.116C261.3 56.964 261.02 56.888 260.684 56.888C260.308 56.888 259.988 56.976 259.724 57.152C259.468 57.328 259.272 57.572 259.136 57.884C259 58.196 258.932 58.56 258.932 58.976V59.048C258.932 59.752 259.096 60.284 259.424 60.644C259.76 60.996 260.244 61.172 260.876 61.172C261.116 61.172 261.368 61.14 261.632 61.076C261.904 61.012 262.16 60.904 262.4 60.752C262.536 60.672 262.656 60.636 262.76 60.644C262.872 60.652 262.96 60.688 263.024 60.752C263.096 60.816 263.14 60.896 263.156 60.992C263.172 61.088 263.156 61.188 263.108 61.292C263.06 61.388 262.976 61.476 262.856 61.556C262.584 61.74 262.268 61.88 261.908 61.976C261.548 62.064 261.2 62.108 260.864 62.108ZM266.148 64.244C266.004 64.244 265.884 64.204 265.788 64.124C265.7 64.052 265.648 63.952 265.632 63.824C265.624 63.704 265.648 63.572 265.704 63.428L266.52 61.592V62.108L264.276 56.888C264.22 56.744 264.2 56.608 264.216 56.48C264.232 56.352 264.292 56.252 264.396 56.18C264.5 56.1 264.64 56.06 264.816 56.06C264.968 56.06 265.088 56.096 265.176 56.168C265.264 56.24 265.344 56.364 265.416 56.54L267.228 61.016H266.892L268.728 56.54C268.8 56.356 268.884 56.232 268.98 56.168C269.076 56.096 269.208 56.06 269.376 56.06C269.52 56.06 269.632 56.1 269.712 56.18C269.8 56.252 269.852 56.352 269.868 56.48C269.892 56.6 269.872 56.732 269.808 56.876L266.808 63.776C266.728 63.96 266.636 64.084 266.532 64.148C266.436 64.212 266.308 64.244 266.148 64.244ZM275.342 62.072C275.15 62.072 275.002 62.016 274.898 61.904C274.794 61.784 274.742 61.62 274.742 61.412V56.732C274.742 56.524 274.794 56.364 274.898 56.252C275.002 56.14 275.15 56.084 275.342 56.084C275.534 56.084 275.682 56.14 275.786 56.252C275.898 56.364 275.954 56.524 275.954 56.732V61.412C275.954 61.62 275.902 61.784 275.798 61.904C275.694 62.016 275.542 62.072 275.342 62.072ZM275.342 54.836C275.102 54.836 274.914 54.776 274.778 54.656C274.65 54.536 274.586 54.368 274.586 54.152C274.586 53.928 274.65 53.76 274.778 53.648C274.914 53.528 275.102 53.468 275.342 53.468C275.582 53.468 275.766 53.528 275.894 53.648C276.03 53.76 276.098 53.928 276.098 54.152C276.098 54.368 276.03 54.536 275.894 54.656C275.766 54.776 275.582 54.836 275.342 54.836ZM278.548 62.084C278.356 62.084 278.208 62.032 278.104 61.928C278 61.816 277.948 61.664 277.948 61.472V56.672C277.948 56.472 278 56.32 278.104 56.216C278.208 56.112 278.352 56.06 278.536 56.06C278.728 56.06 278.872 56.112 278.968 56.216C279.072 56.32 279.124 56.472 279.124 56.672V57.608L278.992 57.392C279.168 56.944 279.444 56.608 279.82 56.384C280.196 56.152 280.628 56.036 281.116 56.036C281.58 56.036 281.964 56.124 282.268 56.3C282.58 56.468 282.812 56.728 282.964 57.08C283.116 57.424 283.192 57.86 283.192 58.388V61.472C283.192 61.664 283.14 61.816 283.036 61.928C282.932 62.032 282.784 62.084 282.592 62.084C282.392 62.084 282.24 62.032 282.136 61.928C282.032 61.816 281.98 61.664 281.98 61.472V58.46C281.98 57.956 281.88 57.588 281.68 57.356C281.488 57.124 281.184 57.008 280.768 57.008C280.28 57.008 279.888 57.16 279.592 57.464C279.304 57.768 279.16 58.176 279.16 58.688V61.472C279.16 61.88 278.956 62.084 278.548 62.084ZM287.646 62.108C287.166 62.108 286.762 62.024 286.434 61.856C286.106 61.688 285.862 61.44 285.702 61.112C285.542 60.784 285.462 60.384 285.462 59.912V57.08H284.742C284.582 57.08 284.458 57.04 284.37 56.96C284.282 56.872 284.238 56.756 284.238 56.612C284.238 56.46 284.282 56.344 284.37 56.264C284.458 56.184 284.582 56.144 284.742 56.144H285.462V54.908C285.462 54.708 285.514 54.556 285.618 54.452C285.73 54.348 285.882 54.296 286.074 54.296C286.266 54.296 286.414 54.348 286.518 54.452C286.622 54.556 286.674 54.708 286.674 54.908V56.144H288.078C288.238 56.144 288.362 56.184 288.45 56.264C288.538 56.344 288.582 56.46 288.582 56.612C288.582 56.756 288.538 56.872 288.45 56.96C288.362 57.04 288.238 57.08 288.078 57.08H286.674V59.816C286.674 60.24 286.762 60.56 286.938 60.776C287.122 60.992 287.418 61.1 287.826 61.1C287.97 61.1 288.094 61.088 288.198 61.064C288.31 61.032 288.402 61.012 288.474 61.004C288.562 61.004 288.634 61.036 288.69 61.1C288.746 61.156 288.774 61.268 288.774 61.436C288.774 61.556 288.75 61.668 288.702 61.772C288.662 61.876 288.586 61.944 288.474 61.976C288.378 62.008 288.246 62.036 288.078 62.06C287.918 62.092 287.774 62.108 287.646 62.108ZM292.306 62.108C291.714 62.108 291.202 61.984 290.77 61.736C290.346 61.488 290.014 61.136 289.774 60.68C289.534 60.224 289.414 59.688 289.414 59.072C289.414 58.6 289.482 58.18 289.618 57.812C289.754 57.444 289.946 57.128 290.194 56.864C290.45 56.592 290.754 56.388 291.106 56.252C291.466 56.108 291.866 56.036 292.306 56.036C292.89 56.036 293.394 56.16 293.818 56.408C294.25 56.656 294.586 57.008 294.826 57.464C295.066 57.912 295.186 58.448 295.186 59.072C295.186 59.536 295.118 59.956 294.982 60.332C294.846 60.708 294.65 61.028 294.394 61.292C294.146 61.556 293.842 61.76 293.482 61.904C293.13 62.04 292.738 62.108 292.306 62.108ZM292.306 61.172C292.634 61.172 292.922 61.092 293.17 60.932C293.418 60.772 293.61 60.536 293.746 60.224C293.89 59.912 293.962 59.528 293.962 59.072C293.962 58.384 293.81 57.864 293.506 57.512C293.202 57.16 292.802 56.984 292.306 56.984C291.97 56.984 291.678 57.064 291.43 57.224C291.182 57.376 290.986 57.608 290.842 57.92C290.706 58.232 290.638 58.616 290.638 59.072C290.638 59.752 290.79 60.272 291.094 60.632C291.398 60.992 291.802 61.172 292.306 61.172ZM105.452 80.084C105.26 80.084 105.112 80.032 105.008 79.928C104.904 79.816 104.852 79.664 104.852 79.472V74.672C104.852 74.472 104.904 74.32 105.008 74.216C105.112 74.112 105.256 74.06 105.44 74.06C105.632 74.06 105.776 74.112 105.872 74.216C105.976 74.32 106.028 74.472 106.028 74.672V75.608L105.896 75.392C106.072 74.944 106.348 74.608 106.724 74.384C107.1 74.152 107.532 74.036 108.02 74.036C108.484 74.036 108.868 74.124 109.172 74.3C109.484 74.468 109.716 74.728 109.868 75.08C110.02 75.424 110.096 75.86 110.096 76.388V79.472C110.096 79.664 110.044 79.816 109.94 79.928C109.836 80.032 109.688 80.084 109.496 80.084C109.296 80.084 109.144 80.032 109.04 79.928C108.936 79.816 108.884 79.664 108.884 79.472V76.46C108.884 75.956 108.784 75.588 108.584 75.356C108.392 75.124 108.088 75.008 107.672 75.008C107.184 75.008 106.792 75.16 106.496 75.464C106.208 75.768 106.064 76.176 106.064 76.688V79.472C106.064 79.88 105.86 80.084 105.452 80.084ZM114.802 80.108C114.162 80.108 113.61 79.988 113.146 79.748C112.69 79.5 112.334 79.152 112.078 78.704C111.83 78.248 111.706 77.708 111.706 77.084C111.706 76.476 111.83 75.944 112.078 75.488C112.326 75.032 112.666 74.676 113.098 74.42C113.53 74.164 114.022 74.036 114.574 74.036C114.982 74.036 115.346 74.104 115.666 74.24C115.986 74.368 116.258 74.56 116.482 74.816C116.714 75.064 116.886 75.368 116.998 75.728C117.118 76.088 117.178 76.492 117.178 76.94C117.178 77.076 117.138 77.18 117.058 77.252C116.978 77.316 116.858 77.348 116.698 77.348H112.666V76.604H116.362L116.158 76.772C116.158 76.372 116.098 76.032 115.978 75.752C115.866 75.472 115.694 75.26 115.462 75.116C115.238 74.964 114.958 74.888 114.622 74.888C114.246 74.888 113.926 74.976 113.662 75.152C113.406 75.328 113.21 75.572 113.074 75.884C112.938 76.196 112.87 76.56 112.87 76.976V77.048C112.87 77.752 113.034 78.284 113.362 78.644C113.698 78.996 114.182 79.172 114.814 79.172C115.054 79.172 115.306 79.14 115.57 79.076C115.842 79.012 116.098 78.904 116.338 78.752C116.474 78.672 116.594 78.636 116.698 78.644C116.81 78.652 116.898 78.688 116.962 78.752C117.034 78.816 117.078 78.896 117.094 78.992C117.11 79.088 117.094 79.188 117.046 79.292C116.998 79.388 116.914 79.476 116.794 79.556C116.522 79.74 116.206 79.88 115.846 79.976C115.486 80.064 115.138 80.108 114.802 80.108ZM120.841 80.084C120.673 80.084 120.525 80.044 120.397 79.964C120.277 79.876 120.181 79.74 120.109 79.556L118.345 74.888C118.281 74.728 118.261 74.588 118.285 74.468C118.309 74.34 118.369 74.24 118.465 74.168C118.569 74.096 118.701 74.06 118.861 74.06C119.005 74.06 119.121 74.096 119.209 74.168C119.305 74.232 119.385 74.36 119.449 74.552L121.021 78.98H120.733L122.365 74.504C122.421 74.352 122.497 74.24 122.593 74.168C122.689 74.096 122.813 74.06 122.965 74.06C123.117 74.06 123.241 74.096 123.337 74.168C123.441 74.24 123.517 74.352 123.565 74.504L125.161 78.98H124.897L126.493 74.528C126.557 74.344 126.637 74.22 126.733 74.156C126.837 74.092 126.953 74.06 127.081 74.06C127.241 74.06 127.361 74.1 127.441 74.18C127.529 74.26 127.577 74.364 127.585 74.492C127.601 74.612 127.581 74.744 127.525 74.888L125.761 79.556C125.689 79.732 125.589 79.864 125.461 79.952C125.341 80.04 125.201 80.084 125.041 80.084C124.873 80.084 124.725 80.04 124.597 79.952C124.477 79.864 124.381 79.732 124.309 79.556L122.629 75.008H123.229L121.561 79.556C121.497 79.732 121.401 79.864 121.273 79.952C121.153 80.04 121.009 80.084 120.841 80.084ZM133.194 80.084C133.002 80.084 132.854 80.032 132.75 79.928C132.646 79.816 132.594 79.664 132.594 79.472V72.068C132.594 71.868 132.646 71.716 132.75 71.612C132.854 71.508 133.002 71.456 133.194 71.456C133.386 71.456 133.534 71.508 133.638 71.612C133.75 71.716 133.806 71.868 133.806 72.068V76.7H133.83L136.074 74.468C136.202 74.34 136.318 74.24 136.422 74.168C136.526 74.096 136.662 74.06 136.83 74.06C136.998 74.06 137.126 74.104 137.214 74.192C137.302 74.28 137.346 74.388 137.346 74.516C137.346 74.636 137.286 74.76 137.166 74.888L134.79 77.24V76.676L137.382 79.256C137.51 79.384 137.57 79.512 137.562 79.64C137.554 79.768 137.502 79.876 137.406 79.964C137.31 80.044 137.19 80.084 137.046 80.084C136.862 80.084 136.714 80.048 136.602 79.976C136.498 79.904 136.374 79.796 136.23 79.652L133.83 77.324H133.806V79.472C133.806 79.88 133.602 80.084 133.194 80.084ZM139.669 80.084C139.477 80.084 139.329 80.032 139.225 79.928C139.121 79.816 139.069 79.664 139.069 79.472V74.672C139.069 74.472 139.121 74.32 139.225 74.216C139.329 74.112 139.473 74.06 139.657 74.06C139.849 74.06 139.993 74.112 140.089 74.216C140.193 74.32 140.245 74.472 140.245 74.672V75.608L140.113 75.392C140.289 74.944 140.565 74.608 140.941 74.384C141.317 74.152 141.749 74.036 142.237 74.036C142.701 74.036 143.085 74.124 143.389 74.3C143.701 74.468 143.933 74.728 144.085 75.08C144.237 75.424 144.313 75.86 144.313 76.388V79.472C144.313 79.664 144.261 79.816 144.157 79.928C144.053 80.032 143.905 80.084 143.713 80.084C143.513 80.084 143.361 80.032 143.257 79.928C143.153 79.816 143.101 79.664 143.101 79.472V76.46C143.101 75.956 143.001 75.588 142.801 75.356C142.609 75.124 142.305 75.008 141.889 75.008C141.401 75.008 141.009 75.16 140.713 75.464C140.425 75.768 140.281 76.176 140.281 76.688V79.472C140.281 79.88 140.077 80.084 139.669 80.084ZM148.815 80.108C148.223 80.108 147.711 79.984 147.279 79.736C146.855 79.488 146.523 79.136 146.283 78.68C146.043 78.224 145.923 77.688 145.923 77.072C145.923 76.6 145.991 76.18 146.127 75.812C146.263 75.444 146.455 75.128 146.703 74.864C146.959 74.592 147.263 74.388 147.615 74.252C147.975 74.108 148.375 74.036 148.815 74.036C149.399 74.036 149.903 74.16 150.327 74.408C150.759 74.656 151.095 75.008 151.335 75.464C151.575 75.912 151.695 76.448 151.695 77.072C151.695 77.536 151.627 77.956 151.491 78.332C151.355 78.708 151.159 79.028 150.903 79.292C150.655 79.556 150.351 79.76 149.991 79.904C149.639 80.04 149.247 80.108 148.815 80.108ZM148.815 79.172C149.143 79.172 149.431 79.092 149.679 78.932C149.927 78.772 150.119 78.536 150.255 78.224C150.399 77.912 150.471 77.528 150.471 77.072C150.471 76.384 150.319 75.864 150.015 75.512C149.711 75.16 149.311 74.984 148.815 74.984C148.479 74.984 148.187 75.064 147.939 75.224C147.691 75.376 147.495 75.608 147.351 75.92C147.215 76.232 147.147 76.616 147.147 77.072C147.147 77.752 147.299 78.272 147.603 78.632C147.907 78.992 148.311 79.172 148.815 79.172ZM155.375 80.084C155.207 80.084 155.059 80.044 154.931 79.964C154.811 79.876 154.715 79.74 154.643 79.556L152.879 74.888C152.815 74.728 152.795 74.588 152.819 74.468C152.843 74.34 152.903 74.24 152.999 74.168C153.103 74.096 153.235 74.06 153.395 74.06C153.539 74.06 153.655 74.096 153.743 74.168C153.839 74.232 153.919 74.36 153.983 74.552L155.555 78.98H155.267L156.899 74.504C156.955 74.352 157.031 74.24 157.127 74.168C157.223 74.096 157.347 74.06 157.499 74.06C157.651 74.06 157.775 74.096 157.871 74.168C157.975 74.24 158.051 74.352 158.099 74.504L159.695 78.98H159.431L161.027 74.528C161.091 74.344 161.171 74.22 161.267 74.156C161.371 74.092 161.487 74.06 161.615 74.06C161.775 74.06 161.895 74.1 161.975 74.18C162.063 74.26 162.111 74.364 162.119 74.492C162.135 74.612 162.115 74.744 162.059 74.888L160.295 79.556C160.223 79.732 160.123 79.864 159.995 79.952C159.875 80.04 159.735 80.084 159.575 80.084C159.407 80.084 159.259 80.04 159.131 79.952C159.011 79.864 158.915 79.732 158.843 79.556L157.163 75.008H157.763L156.095 79.556C156.031 79.732 155.935 79.864 155.807 79.952C155.687 80.04 155.543 80.084 155.375 80.084ZM165.56 80.108C164.936 80.108 164.464 79.928 164.144 79.568C163.832 79.2 163.676 78.672 163.676 77.984V72.068C163.676 71.868 163.728 71.716 163.832 71.612C163.936 71.508 164.084 71.456 164.276 71.456C164.468 71.456 164.616 71.508 164.72 71.612C164.832 71.716 164.888 71.868 164.888 72.068V77.912C164.888 78.312 164.968 78.612 165.128 78.812C165.296 79.004 165.536 79.1 165.848 79.1C165.92 79.1 165.984 79.1 166.04 79.1C166.096 79.092 166.152 79.084 166.208 79.076C166.304 79.068 166.372 79.096 166.412 79.16C166.452 79.216 166.472 79.336 166.472 79.52C166.472 79.688 166.436 79.82 166.364 79.916C166.292 80.004 166.176 80.06 166.016 80.084C165.944 80.092 165.868 80.096 165.788 80.096C165.708 80.104 165.632 80.108 165.56 80.108ZM170.321 80.108C169.681 80.108 169.129 79.988 168.665 79.748C168.209 79.5 167.853 79.152 167.597 78.704C167.349 78.248 167.225 77.708 167.225 77.084C167.225 76.476 167.349 75.944 167.597 75.488C167.845 75.032 168.185 74.676 168.617 74.42C169.049 74.164 169.541 74.036 170.093 74.036C170.501 74.036 170.865 74.104 171.185 74.24C171.505 74.368 171.777 74.56 172.001 74.816C172.233 75.064 172.405 75.368 172.517 75.728C172.637 76.088 172.697 76.492 172.697 76.94C172.697 77.076 172.657 77.18 172.577 77.252C172.497 77.316 172.377 77.348 172.217 77.348H168.185V76.604H171.881L171.677 76.772C171.677 76.372 171.617 76.032 171.497 75.752C171.385 75.472 171.213 75.26 170.981 75.116C170.757 74.964 170.477 74.888 170.141 74.888C169.765 74.888 169.445 74.976 169.181 75.152C168.925 75.328 168.729 75.572 168.593 75.884C168.457 76.196 168.389 76.56 168.389 76.976V77.048C168.389 77.752 168.553 78.284 168.881 78.644C169.217 78.996 169.701 79.172 170.333 79.172C170.573 79.172 170.825 79.14 171.089 79.076C171.361 79.012 171.617 78.904 171.857 78.752C171.993 78.672 172.113 78.636 172.217 78.644C172.329 78.652 172.417 78.688 172.481 78.752C172.553 78.816 172.597 78.896 172.613 78.992C172.629 79.088 172.613 79.188 172.565 79.292C172.517 79.388 172.433 79.476 172.313 79.556C172.041 79.74 171.725 79.88 171.365 79.976C171.005 80.064 170.657 80.108 170.321 80.108ZM176.538 80.108C176.026 80.108 175.574 79.988 175.182 79.748C174.798 79.5 174.498 79.148 174.282 78.692C174.066 78.228 173.958 77.688 173.958 77.072C173.958 76.44 174.066 75.9 174.282 75.452C174.498 75.004 174.798 74.656 175.182 74.408C175.574 74.16 176.026 74.036 176.538 74.036C177.05 74.036 177.49 74.164 177.858 74.42C178.234 74.668 178.486 75.004 178.614 75.428H178.482V72.068C178.482 71.868 178.534 71.716 178.638 71.612C178.742 71.508 178.89 71.456 179.082 71.456C179.274 71.456 179.422 71.508 179.526 71.612C179.638 71.716 179.694 71.868 179.694 72.068V79.472C179.694 79.664 179.642 79.816 179.538 79.928C179.434 80.032 179.286 80.084 179.094 80.084C178.902 80.084 178.754 80.032 178.65 79.928C178.546 79.816 178.494 79.664 178.494 79.472V78.416L178.626 78.68C178.498 79.112 178.246 79.46 177.87 79.724C177.502 79.98 177.058 80.108 176.538 80.108ZM176.85 79.172C177.178 79.172 177.466 79.092 177.714 78.932C177.962 78.772 178.154 78.536 178.29 78.224C178.434 77.912 178.506 77.528 178.506 77.072C178.506 76.384 178.354 75.864 178.05 75.512C177.746 75.16 177.346 74.984 176.85 74.984C176.514 74.984 176.222 75.064 175.974 75.224C175.726 75.376 175.53 75.608 175.386 75.92C175.25 76.232 175.182 76.616 175.182 77.072C175.182 77.752 175.334 78.272 175.638 78.632C175.942 78.992 176.346 79.172 176.85 79.172ZM184.336 82.268C183.904 82.268 183.484 82.224 183.076 82.136C182.676 82.048 182.312 81.904 181.984 81.704C181.864 81.64 181.784 81.56 181.744 81.464C181.704 81.376 181.692 81.284 181.708 81.188C181.732 81.092 181.776 81.008 181.84 80.936C181.904 80.864 181.98 80.816 182.068 80.792C182.164 80.768 182.264 80.784 182.368 80.84C182.72 81.032 183.052 81.16 183.364 81.224C183.684 81.296 183.98 81.332 184.252 81.332C184.812 81.332 185.232 81.188 185.512 80.9C185.792 80.62 185.932 80.204 185.932 79.652V78.428H186.04C185.92 78.868 185.668 79.216 185.284 79.472C184.9 79.728 184.456 79.856 183.952 79.856C183.424 79.856 182.964 79.736 182.572 79.496C182.18 79.248 181.876 78.908 181.66 78.476C181.444 78.036 181.336 77.524 181.336 76.94C181.336 76.5 181.396 76.104 181.516 75.752C181.644 75.4 181.82 75.096 182.044 74.84C182.276 74.584 182.552 74.388 182.872 74.252C183.2 74.108 183.56 74.036 183.952 74.036C184.464 74.036 184.908 74.164 185.284 74.42C185.668 74.676 185.916 75.024 186.028 75.464L185.908 75.668V74.672C185.908 74.472 185.96 74.32 186.064 74.216C186.176 74.112 186.324 74.06 186.508 74.06C186.7 74.06 186.848 74.112 186.952 74.216C187.056 74.32 187.108 74.472 187.108 74.672V79.508C187.108 80.42 186.872 81.108 186.4 81.572C185.928 82.036 185.24 82.268 184.336 82.268ZM184.24 78.908C184.592 78.908 184.892 78.828 185.14 78.668C185.388 78.508 185.58 78.28 185.716 77.984C185.852 77.688 185.92 77.34 185.92 76.94C185.92 76.34 185.768 75.864 185.464 75.512C185.168 75.16 184.76 74.984 184.24 74.984C183.896 74.984 183.6 75.064 183.352 75.224C183.104 75.384 182.908 75.612 182.764 75.908C182.628 76.196 182.56 76.54 182.56 76.94C182.56 77.548 182.712 78.028 183.016 78.38C183.32 78.732 183.728 78.908 184.24 78.908ZM191.845 80.108C191.205 80.108 190.653 79.988 190.189 79.748C189.733 79.5 189.377 79.152 189.121 78.704C188.873 78.248 188.749 77.708 188.749 77.084C188.749 76.476 188.873 75.944 189.121 75.488C189.369 75.032 189.709 74.676 190.141 74.42C190.573 74.164 191.065 74.036 191.617 74.036C192.025 74.036 192.389 74.104 192.709 74.24C193.029 74.368 193.301 74.56 193.525 74.816C193.757 75.064 193.929 75.368 194.041 75.728C194.161 76.088 194.221 76.492 194.221 76.94C194.221 77.076 194.181 77.18 194.101 77.252C194.021 77.316 193.901 77.348 193.741 77.348H189.709V76.604H193.405L193.201 76.772C193.201 76.372 193.141 76.032 193.021 75.752C192.909 75.472 192.737 75.26 192.505 75.116C192.281 74.964 192.001 74.888 191.665 74.888C191.289 74.888 190.969 74.976 190.705 75.152C190.449 75.328 190.253 75.572 190.117 75.884C189.981 76.196 189.913 76.56 189.913 76.976V77.048C189.913 77.752 190.077 78.284 190.405 78.644C190.741 78.996 191.225 79.172 191.857 79.172C192.097 79.172 192.349 79.14 192.613 79.076C192.885 79.012 193.141 78.904 193.381 78.752C193.517 78.672 193.637 78.636 193.741 78.644C193.853 78.652 193.941 78.688 194.005 78.752C194.077 78.816 194.121 78.896 194.137 78.992C194.153 79.088 194.137 79.188 194.089 79.292C194.041 79.388 193.957 79.476 193.837 79.556C193.565 79.74 193.249 79.88 192.889 79.976C192.529 80.064 192.181 80.108 191.845 80.108ZM201.154 80.108C200.746 80.108 200.378 80.028 200.05 79.868C199.73 79.708 199.478 79.492 199.294 79.22C199.11 78.948 199.018 78.64 199.018 78.296C199.018 77.864 199.126 77.524 199.342 77.276C199.566 77.02 199.93 76.84 200.434 76.736C200.946 76.624 201.634 76.568 202.498 76.568H203.062V77.312H202.51C201.934 77.312 201.478 77.34 201.142 77.396C200.806 77.452 200.566 77.548 200.422 77.684C200.286 77.812 200.218 77.992 200.218 78.224C200.218 78.528 200.322 78.776 200.53 78.968C200.738 79.152 201.026 79.244 201.394 79.244C201.69 79.244 201.95 79.176 202.174 79.04C202.398 78.896 202.574 78.704 202.702 78.464C202.838 78.224 202.906 77.948 202.906 77.636V76.256C202.906 75.8 202.81 75.472 202.618 75.272C202.426 75.072 202.11 74.972 201.67 74.972C201.414 74.972 201.146 75.004 200.866 75.068C200.594 75.132 200.31 75.24 200.014 75.392C199.878 75.456 199.762 75.476 199.666 75.452C199.57 75.428 199.494 75.376 199.438 75.296C199.382 75.208 199.35 75.116 199.342 75.02C199.342 74.916 199.366 74.816 199.414 74.72C199.47 74.624 199.562 74.552 199.69 74.504C200.042 74.336 200.39 74.216 200.734 74.144C201.078 74.072 201.402 74.036 201.706 74.036C202.242 74.036 202.682 74.12 203.026 74.288C203.378 74.456 203.638 74.712 203.806 75.056C203.974 75.4 204.058 75.844 204.058 76.388V79.472C204.058 79.664 204.01 79.816 203.914 79.928C203.818 80.032 203.678 80.084 203.494 80.084C203.318 80.084 203.178 80.032 203.074 79.928C202.97 79.816 202.918 79.664 202.918 79.472V78.692H203.026C202.962 78.988 202.842 79.244 202.666 79.46C202.498 79.668 202.286 79.828 202.03 79.94C201.774 80.052 201.482 80.108 201.154 80.108ZM206.616 80.084C206.424 80.084 206.276 80.032 206.172 79.928C206.068 79.816 206.016 79.664 206.016 79.472V74.672C206.016 74.472 206.068 74.32 206.172 74.216C206.276 74.112 206.42 74.06 206.604 74.06C206.796 74.06 206.94 74.112 207.036 74.216C207.14 74.32 207.192 74.472 207.192 74.672V75.608L207.06 75.392C207.236 74.944 207.512 74.608 207.888 74.384C208.264 74.152 208.696 74.036 209.184 74.036C209.648 74.036 210.032 74.124 210.336 74.3C210.648 74.468 210.88 74.728 211.032 75.08C211.184 75.424 211.26 75.86 211.26 76.388V79.472C211.26 79.664 211.208 79.816 211.104 79.928C211 80.032 210.852 80.084 210.66 80.084C210.46 80.084 210.308 80.032 210.204 79.928C210.1 79.816 210.048 79.664 210.048 79.472V76.46C210.048 75.956 209.948 75.588 209.748 75.356C209.556 75.124 209.252 75.008 208.836 75.008C208.348 75.008 207.956 75.16 207.66 75.464C207.372 75.768 207.228 76.176 207.228 76.688V79.472C207.228 79.88 207.024 80.084 206.616 80.084ZM215.45 80.108C214.938 80.108 214.486 79.988 214.094 79.748C213.71 79.5 213.41 79.148 213.194 78.692C212.978 78.228 212.87 77.688 212.87 77.072C212.87 76.44 212.978 75.9 213.194 75.452C213.41 75.004 213.71 74.656 214.094 74.408C214.486 74.16 214.938 74.036 215.45 74.036C215.962 74.036 216.402 74.164 216.77 74.42C217.146 74.668 217.398 75.004 217.526 75.428H217.394V72.068C217.394 71.868 217.446 71.716 217.55 71.612C217.654 71.508 217.802 71.456 217.994 71.456C218.186 71.456 218.334 71.508 218.438 71.612C218.55 71.716 218.606 71.868 218.606 72.068V79.472C218.606 79.664 218.554 79.816 218.45 79.928C218.346 80.032 218.198 80.084 218.006 80.084C217.814 80.084 217.666 80.032 217.562 79.928C217.458 79.816 217.406 79.664 217.406 79.472V78.416L217.538 78.68C217.41 79.112 217.158 79.46 216.782 79.724C216.414 79.98 215.97 80.108 215.45 80.108ZM215.762 79.172C216.09 79.172 216.378 79.092 216.626 78.932C216.874 78.772 217.066 78.536 217.202 78.224C217.346 77.912 217.418 77.528 217.418 77.072C217.418 76.384 217.266 75.864 216.962 75.512C216.658 75.16 216.258 74.984 215.762 74.984C215.426 74.984 215.134 75.064 214.886 75.224C214.638 75.376 214.442 75.608 214.298 75.92C214.162 76.232 214.094 76.616 214.094 77.072C214.094 77.752 214.246 78.272 214.55 78.632C214.854 78.992 215.258 79.172 215.762 79.172ZM226.796 80.108C226.156 80.108 225.604 79.988 225.14 79.748C224.684 79.5 224.328 79.152 224.072 78.704C223.824 78.248 223.7 77.708 223.7 77.084C223.7 76.476 223.824 75.944 224.072 75.488C224.32 75.032 224.66 74.676 225.092 74.42C225.524 74.164 226.016 74.036 226.568 74.036C226.976 74.036 227.34 74.104 227.66 74.24C227.98 74.368 228.252 74.56 228.476 74.816C228.708 75.064 228.88 75.368 228.992 75.728C229.112 76.088 229.172 76.492 229.172 76.94C229.172 77.076 229.132 77.18 229.052 77.252C228.972 77.316 228.852 77.348 228.692 77.348H224.66V76.604H228.356L228.152 76.772C228.152 76.372 228.092 76.032 227.972 75.752C227.86 75.472 227.688 75.26 227.456 75.116C227.232 74.964 226.952 74.888 226.616 74.888C226.24 74.888 225.92 74.976 225.656 75.152C225.4 75.328 225.204 75.572 225.068 75.884C224.932 76.196 224.864 76.56 224.864 76.976V77.048C224.864 77.752 225.028 78.284 225.356 78.644C225.692 78.996 226.176 79.172 226.808 79.172C227.048 79.172 227.3 79.14 227.564 79.076C227.836 79.012 228.092 78.904 228.332 78.752C228.468 78.672 228.588 78.636 228.692 78.644C228.804 78.652 228.892 78.688 228.956 78.752C229.028 78.816 229.072 78.896 229.088 78.992C229.104 79.088 229.088 79.188 229.04 79.292C228.992 79.388 228.908 79.476 228.788 79.556C228.516 79.74 228.2 79.88 227.84 79.976C227.48 80.064 227.132 80.108 226.796 80.108ZM230.938 80.072C230.794 80.072 230.674 80.032 230.578 79.952C230.49 79.864 230.442 79.756 230.434 79.628C230.434 79.5 230.49 79.36 230.602 79.208L232.63 76.676V77.276L230.734 74.912C230.606 74.768 230.546 74.632 230.554 74.504C230.562 74.368 230.614 74.26 230.71 74.18C230.806 74.1 230.922 74.06 231.058 74.06C231.21 74.06 231.334 74.088 231.43 74.144C231.534 74.192 231.63 74.276 231.718 74.396L233.314 76.424H232.882L234.49 74.396C234.578 74.276 234.67 74.192 234.766 74.144C234.87 74.088 234.994 74.06 235.138 74.06C235.282 74.06 235.398 74.104 235.486 74.192C235.582 74.272 235.63 74.38 235.63 74.516C235.638 74.644 235.582 74.78 235.462 74.924L233.566 77.252V76.712L235.594 79.208C235.714 79.352 235.77 79.492 235.762 79.628C235.762 79.756 235.714 79.864 235.618 79.952C235.522 80.032 235.402 80.072 235.258 80.072C235.114 80.072 234.99 80.044 234.886 79.988C234.79 79.932 234.694 79.848 234.598 79.736L232.882 77.576H233.29L231.586 79.736C231.498 79.84 231.402 79.924 231.298 79.988C231.202 80.044 231.082 80.072 230.938 80.072ZM239.872 80.108C239.272 80.108 238.752 79.984 238.312 79.736C237.88 79.48 237.544 79.124 237.304 78.668C237.064 78.204 236.944 77.66 236.944 77.036C236.944 76.572 237.012 76.156 237.148 75.788C237.284 75.412 237.476 75.096 237.724 74.84C237.98 74.584 238.288 74.388 238.648 74.252C239.016 74.108 239.424 74.036 239.872 74.036C240.152 74.036 240.444 74.08 240.748 74.168C241.06 74.248 241.348 74.384 241.612 74.576C241.716 74.64 241.78 74.72 241.804 74.816C241.836 74.904 241.84 74.996 241.816 75.092C241.8 75.188 241.756 75.272 241.684 75.344C241.62 75.408 241.54 75.448 241.444 75.464C241.348 75.472 241.244 75.444 241.132 75.38C240.94 75.244 240.744 75.148 240.544 75.092C240.344 75.028 240.152 74.996 239.968 74.996C239.68 74.996 239.424 75.044 239.2 75.14C238.984 75.228 238.8 75.36 238.648 75.536C238.496 75.704 238.38 75.916 238.3 76.172C238.228 76.428 238.192 76.72 238.192 77.048C238.192 77.704 238.344 78.22 238.648 78.596C238.96 78.964 239.4 79.148 239.968 79.148C240.152 79.148 240.344 79.12 240.544 79.064C240.744 79.008 240.94 78.912 241.132 78.776C241.244 78.712 241.348 78.688 241.444 78.704C241.54 78.72 241.616 78.764 241.672 78.836C241.736 78.9 241.776 78.98 241.792 79.076C241.816 79.164 241.812 79.256 241.78 79.352C241.748 79.448 241.68 79.528 241.576 79.592C241.32 79.776 241.04 79.908 240.736 79.988C240.44 80.068 240.152 80.108 239.872 80.108ZM243.781 80.072C243.589 80.072 243.441 80.016 243.337 79.904C243.233 79.784 243.181 79.62 243.181 79.412V74.732C243.181 74.524 243.233 74.364 243.337 74.252C243.441 74.14 243.589 74.084 243.781 74.084C243.973 74.084 244.121 74.14 244.225 74.252C244.337 74.364 244.393 74.524 244.393 74.732V79.412C244.393 79.62 244.341 79.784 244.237 79.904C244.133 80.016 243.981 80.072 243.781 80.072ZM243.781 72.836C243.541 72.836 243.353 72.776 243.217 72.656C243.089 72.536 243.025 72.368 243.025 72.152C243.025 71.928 243.089 71.76 243.217 71.648C243.353 71.528 243.541 71.468 243.781 71.468C244.021 71.468 244.205 71.528 244.333 71.648C244.469 71.76 244.537 71.928 244.537 72.152C244.537 72.368 244.469 72.536 244.333 72.656C244.205 72.776 244.021 72.836 243.781 72.836ZM248.883 80.108C248.403 80.108 247.999 80.024 247.671 79.856C247.343 79.688 247.099 79.44 246.939 79.112C246.779 78.784 246.699 78.384 246.699 77.912V75.08H245.979C245.819 75.08 245.695 75.04 245.607 74.96C245.519 74.872 245.475 74.756 245.475 74.612C245.475 74.46 245.519 74.344 245.607 74.264C245.695 74.184 245.819 74.144 245.979 74.144H246.699V72.908C246.699 72.708 246.751 72.556 246.855 72.452C246.967 72.348 247.119 72.296 247.311 72.296C247.503 72.296 247.651 72.348 247.755 72.452C247.859 72.556 247.911 72.708 247.911 72.908V74.144H249.315C249.475 74.144 249.599 74.184 249.687 74.264C249.775 74.344 249.819 74.46 249.819 74.612C249.819 74.756 249.775 74.872 249.687 74.96C249.599 75.04 249.475 75.08 249.315 75.08H247.911V77.816C247.911 78.24 247.999 78.56 248.175 78.776C248.359 78.992 248.655 79.1 249.063 79.1C249.207 79.1 249.331 79.088 249.435 79.064C249.547 79.032 249.639 79.012 249.711 79.004C249.799 79.004 249.871 79.036 249.927 79.1C249.983 79.156 250.011 79.268 250.011 79.436C250.011 79.556 249.987 79.668 249.939 79.772C249.899 79.876 249.823 79.944 249.711 79.976C249.615 80.008 249.483 80.036 249.315 80.06C249.155 80.092 249.011 80.108 248.883 80.108ZM251.763 80.072C251.571 80.072 251.423 80.016 251.319 79.904C251.215 79.784 251.163 79.62 251.163 79.412V74.732C251.163 74.524 251.215 74.364 251.319 74.252C251.423 74.14 251.571 74.084 251.763 74.084C251.955 74.084 252.103 74.14 252.207 74.252C252.319 74.364 252.375 74.524 252.375 74.732V79.412C252.375 79.62 252.323 79.784 252.219 79.904C252.115 80.016 251.963 80.072 251.763 80.072ZM251.763 72.836C251.523 72.836 251.335 72.776 251.199 72.656C251.071 72.536 251.007 72.368 251.007 72.152C251.007 71.928 251.071 71.76 251.199 71.648C251.335 71.528 251.523 71.468 251.763 71.468C252.003 71.468 252.187 71.528 252.315 71.648C252.451 71.76 252.519 71.928 252.519 72.152C252.519 72.368 252.451 72.536 252.315 72.656C252.187 72.776 252.003 72.836 251.763 72.836ZM254.969 80.084C254.777 80.084 254.629 80.032 254.525 79.928C254.421 79.816 254.369 79.664 254.369 79.472V74.672C254.369 74.472 254.421 74.32 254.525 74.216C254.629 74.112 254.773 74.06 254.957 74.06C255.149 74.06 255.293 74.112 255.389 74.216C255.493 74.32 255.545 74.472 255.545 74.672V75.608L255.413 75.392C255.589 74.944 255.865 74.608 256.241 74.384C256.617 74.152 257.049 74.036 257.537 74.036C258.001 74.036 258.385 74.124 258.689 74.3C259.001 74.468 259.233 74.728 259.385 75.08C259.537 75.424 259.613 75.86 259.613 76.388V79.472C259.613 79.664 259.561 79.816 259.457 79.928C259.353 80.032 259.205 80.084 259.013 80.084C258.813 80.084 258.661 80.032 258.557 79.928C258.453 79.816 258.401 79.664 258.401 79.472V76.46C258.401 75.956 258.301 75.588 258.101 75.356C257.909 75.124 257.605 75.008 257.189 75.008C256.701 75.008 256.309 75.16 256.013 75.464C255.725 75.768 255.581 76.176 255.581 76.688V79.472C255.581 79.88 255.377 80.084 254.969 80.084ZM264.224 82.268C263.792 82.268 263.372 82.224 262.964 82.136C262.564 82.048 262.2 81.904 261.872 81.704C261.752 81.64 261.672 81.56 261.632 81.464C261.592 81.376 261.58 81.284 261.596 81.188C261.62 81.092 261.664 81.008 261.728 80.936C261.792 80.864 261.868 80.816 261.956 80.792C262.052 80.768 262.152 80.784 262.256 80.84C262.608 81.032 262.94 81.16 263.252 81.224C263.572 81.296 263.868 81.332 264.14 81.332C264.7 81.332 265.12 81.188 265.4 80.9C265.68 80.62 265.82 80.204 265.82 79.652V78.428H265.928C265.808 78.868 265.556 79.216 265.172 79.472C264.788 79.728 264.344 79.856 263.84 79.856C263.312 79.856 262.852 79.736 262.46 79.496C262.068 79.248 261.764 78.908 261.548 78.476C261.332 78.036 261.224 77.524 261.224 76.94C261.224 76.5 261.284 76.104 261.404 75.752C261.532 75.4 261.708 75.096 261.932 74.84C262.164 74.584 262.44 74.388 262.76 74.252C263.088 74.108 263.448 74.036 263.84 74.036C264.352 74.036 264.796 74.164 265.172 74.42C265.556 74.676 265.804 75.024 265.916 75.464L265.796 75.668V74.672C265.796 74.472 265.848 74.32 265.952 74.216C266.064 74.112 266.212 74.06 266.396 74.06C266.588 74.06 266.736 74.112 266.84 74.216C266.944 74.32 266.996 74.472 266.996 74.672V79.508C266.996 80.42 266.76 81.108 266.288 81.572C265.816 82.036 265.128 82.268 264.224 82.268ZM264.128 78.908C264.48 78.908 264.78 78.828 265.028 78.668C265.276 78.508 265.468 78.28 265.604 77.984C265.74 77.688 265.808 77.34 265.808 76.94C265.808 76.34 265.656 75.864 265.352 75.512C265.056 75.16 264.648 74.984 264.128 74.984C263.784 74.984 263.488 75.064 263.24 75.224C262.992 75.384 262.796 75.612 262.652 75.908C262.516 76.196 262.448 76.54 262.448 76.94C262.448 77.548 262.6 78.028 262.904 78.38C263.208 78.732 263.616 78.908 264.128 78.908ZM275.017 80.108C274.417 80.108 273.897 79.984 273.457 79.736C273.025 79.48 272.689 79.124 272.449 78.668C272.209 78.204 272.089 77.66 272.089 77.036C272.089 76.572 272.157 76.156 272.293 75.788C272.429 75.412 272.621 75.096 272.869 74.84C273.125 74.584 273.433 74.388 273.793 74.252C274.161 74.108 274.569 74.036 275.017 74.036C275.297 74.036 275.589 74.08 275.893 74.168C276.205 74.248 276.493 74.384 276.757 74.576C276.861 74.64 276.925 74.72 276.949 74.816C276.981 74.904 276.985 74.996 276.961 75.092C276.945 75.188 276.901 75.272 276.829 75.344C276.765 75.408 276.685 75.448 276.589 75.464C276.493 75.472 276.389 75.444 276.277 75.38C276.085 75.244 275.889 75.148 275.689 75.092C275.489 75.028 275.297 74.996 275.113 74.996C274.825 74.996 274.569 75.044 274.345 75.14C274.129 75.228 273.945 75.36 273.793 75.536C273.641 75.704 273.525 75.916 273.445 76.172C273.373 76.428 273.337 76.72 273.337 77.048C273.337 77.704 273.489 78.22 273.793 78.596C274.105 78.964 274.545 79.148 275.113 79.148C275.297 79.148 275.489 79.12 275.689 79.064C275.889 79.008 276.085 78.912 276.277 78.776C276.389 78.712 276.493 78.688 276.589 78.704C276.685 78.72 276.761 78.764 276.817 78.836C276.881 78.9 276.921 78.98 276.937 79.076C276.961 79.164 276.957 79.256 276.925 79.352C276.893 79.448 276.825 79.528 276.721 79.592C276.465 79.776 276.185 79.908 275.881 79.988C275.585 80.068 275.297 80.108 275.017 80.108ZM280.753 80.108C280.161 80.108 279.649 79.984 279.217 79.736C278.793 79.488 278.461 79.136 278.221 78.68C277.981 78.224 277.861 77.688 277.861 77.072C277.861 76.6 277.929 76.18 278.065 75.812C278.201 75.444 278.393 75.128 278.641 74.864C278.897 74.592 279.201 74.388 279.553 74.252C279.913 74.108 280.313 74.036 280.753 74.036C281.337 74.036 281.841 74.16 282.265 74.408C282.697 74.656 283.033 75.008 283.273 75.464C283.513 75.912 283.633 76.448 283.633 77.072C283.633 77.536 283.565 77.956 283.429 78.332C283.293 78.708 283.097 79.028 282.841 79.292C282.593 79.556 282.289 79.76 281.929 79.904C281.577 80.04 281.185 80.108 280.753 80.108ZM280.753 79.172C281.081 79.172 281.369 79.092 281.617 78.932C281.865 78.772 282.057 78.536 282.193 78.224C282.337 77.912 282.409 77.528 282.409 77.072C282.409 76.384 282.257 75.864 281.953 75.512C281.649 75.16 281.249 74.984 280.753 74.984C280.417 74.984 280.125 75.064 279.877 75.224C279.629 75.376 279.433 75.608 279.289 75.92C279.153 76.232 279.085 76.616 279.085 77.072C279.085 77.752 279.237 78.272 279.541 78.632C279.845 78.992 280.249 79.172 280.753 79.172ZM285.882 80.084C285.69 80.084 285.542 80.032 285.438 79.928C285.334 79.816 285.282 79.664 285.282 79.472V74.672C285.282 74.472 285.334 74.32 285.438 74.216C285.542 74.112 285.686 74.06 285.87 74.06C286.062 74.06 286.206 74.112 286.302 74.216C286.406 74.32 286.458 74.472 286.458 74.672V75.608L286.326 75.392C286.502 74.944 286.778 74.608 287.154 74.384C287.53 74.152 287.962 74.036 288.45 74.036C288.914 74.036 289.298 74.124 289.602 74.3C289.914 74.468 290.146 74.728 290.298 75.08C290.45 75.424 290.526 75.86 290.526 76.388V79.472C290.526 79.664 290.474 79.816 290.37 79.928C290.266 80.032 290.118 80.084 289.926 80.084C289.726 80.084 289.574 80.032 289.47 79.928C289.366 79.816 289.314 79.664 289.314 79.472V76.46C289.314 75.956 289.214 75.588 289.014 75.356C288.822 75.124 288.518 75.008 288.102 75.008C287.614 75.008 287.222 75.16 286.926 75.464C286.638 75.768 286.494 76.176 286.494 76.688V79.472C286.494 79.88 286.29 80.084 285.882 80.084ZM294.98 80.108C294.5 80.108 294.096 80.024 293.768 79.856C293.44 79.688 293.196 79.44 293.036 79.112C292.876 78.784 292.796 78.384 292.796 77.912V75.08H292.076C291.916 75.08 291.792 75.04 291.704 74.96C291.616 74.872 291.572 74.756 291.572 74.612C291.572 74.46 291.616 74.344 291.704 74.264C291.792 74.184 291.916 74.144 292.076 74.144H292.796V72.908C292.796 72.708 292.848 72.556 292.952 72.452C293.064 72.348 293.216 72.296 293.408 72.296C293.6 72.296 293.748 72.348 293.852 72.452C293.956 72.556 294.008 72.708 294.008 72.908V74.144H295.412C295.572 74.144 295.696 74.184 295.784 74.264C295.872 74.344 295.916 74.46 295.916 74.612C295.916 74.756 295.872 74.872 295.784 74.96C295.696 75.04 295.572 75.08 295.412 75.08H294.008V77.816C294.008 78.24 294.096 78.56 294.272 78.776C294.456 78.992 294.752 79.1 295.16 79.1C295.304 79.1 295.428 79.088 295.532 79.064C295.644 79.032 295.736 79.012 295.808 79.004C295.896 79.004 295.968 79.036 296.024 79.1C296.08 79.156 296.108 79.268 296.108 79.436C296.108 79.556 296.084 79.668 296.036 79.772C295.996 79.876 295.92 79.944 295.808 79.976C295.712 80.008 295.58 80.036 295.412 80.06C295.252 80.092 295.108 80.108 294.98 80.108ZM299.844 80.108C299.204 80.108 298.652 79.988 298.188 79.748C297.732 79.5 297.376 79.152 297.12 78.704C296.872 78.248 296.748 77.708 296.748 77.084C296.748 76.476 296.872 75.944 297.12 75.488C297.368 75.032 297.708 74.676 298.14 74.42C298.572 74.164 299.064 74.036 299.616 74.036C300.024 74.036 300.388 74.104 300.708 74.24C301.028 74.368 301.3 74.56 301.524 74.816C301.756 75.064 301.928 75.368 302.04 75.728C302.16 76.088 302.22 76.492 302.22 76.94C302.22 77.076 302.18 77.18 302.1 77.252C302.02 77.316 301.9 77.348 301.74 77.348H297.708V76.604H301.404L301.2 76.772C301.2 76.372 301.14 76.032 301.02 75.752C300.908 75.472 300.736 75.26 300.504 75.116C300.28 74.964 300 74.888 299.664 74.888C299.288 74.888 298.968 74.976 298.704 75.152C298.448 75.328 298.252 75.572 298.116 75.884C297.98 76.196 297.912 76.56 297.912 76.976V77.048C297.912 77.752 298.076 78.284 298.404 78.644C298.74 78.996 299.224 79.172 299.856 79.172C300.096 79.172 300.348 79.14 300.612 79.076C300.884 79.012 301.14 78.904 301.38 78.752C301.516 78.672 301.636 78.636 301.74 78.644C301.852 78.652 301.94 78.688 302.004 78.752C302.076 78.816 302.12 78.896 302.136 78.992C302.152 79.088 302.136 79.188 302.088 79.292C302.04 79.388 301.956 79.476 301.836 79.556C301.564 79.74 301.248 79.88 300.888 79.976C300.528 80.064 300.18 80.108 299.844 80.108ZM304.43 80.084C304.238 80.084 304.09 80.032 303.986 79.928C303.882 79.816 303.83 79.664 303.83 79.472V74.672C303.83 74.472 303.882 74.32 303.986 74.216C304.09 74.112 304.234 74.06 304.418 74.06C304.61 74.06 304.754 74.112 304.85 74.216C304.954 74.32 305.006 74.472 305.006 74.672V75.608L304.874 75.392C305.05 74.944 305.326 74.608 305.702 74.384C306.078 74.152 306.51 74.036 306.998 74.036C307.462 74.036 307.846 74.124 308.15 74.3C308.462 74.468 308.694 74.728 308.846 75.08C308.998 75.424 309.074 75.86 309.074 76.388V79.472C309.074 79.664 309.022 79.816 308.918 79.928C308.814 80.032 308.666 80.084 308.474 80.084C308.274 80.084 308.122 80.032 308.018 79.928C307.914 79.816 307.862 79.664 307.862 79.472V76.46C307.862 75.956 307.762 75.588 307.562 75.356C307.37 75.124 307.066 75.008 306.65 75.008C306.162 75.008 305.77 75.16 305.474 75.464C305.186 75.768 305.042 76.176 305.042 76.688V79.472C305.042 79.88 304.838 80.084 304.43 80.084ZM313.528 80.108C313.048 80.108 312.644 80.024 312.316 79.856C311.988 79.688 311.744 79.44 311.584 79.112C311.424 78.784 311.344 78.384 311.344 77.912V75.08H310.624C310.464 75.08 310.34 75.04 310.252 74.96C310.164 74.872 310.12 74.756 310.12 74.612C310.12 74.46 310.164 74.344 310.252 74.264C310.34 74.184 310.464 74.144 310.624 74.144H311.344V72.908C311.344 72.708 311.396 72.556 311.5 72.452C311.612 72.348 311.764 72.296 311.956 72.296C312.148 72.296 312.296 72.348 312.4 72.452C312.504 72.556 312.556 72.708 312.556 72.908V74.144H313.96C314.12 74.144 314.244 74.184 314.332 74.264C314.42 74.344 314.464 74.46 314.464 74.612C314.464 74.756 314.42 74.872 314.332 74.96C314.244 75.04 314.12 75.08 313.96 75.08H312.556V77.816C312.556 78.24 312.644 78.56 312.82 78.776C313.004 78.992 313.3 79.1 313.708 79.1C313.852 79.1 313.976 79.088 314.08 79.064C314.192 79.032 314.284 79.012 314.356 79.004C314.444 79.004 314.516 79.036 314.572 79.1C314.628 79.156 314.656 79.268 314.656 79.436C314.656 79.556 314.632 79.668 314.584 79.772C314.544 79.876 314.468 79.944 314.356 79.976C314.26 80.008 314.128 80.036 313.96 80.06C313.8 80.092 313.656 80.108 313.528 80.108ZM316.478 80.048C316.246 80.048 316.058 79.976 315.914 79.832C315.77 79.688 315.698 79.504 315.698 79.28C315.698 79.056 315.77 78.876 315.914 78.74C316.058 78.596 316.246 78.524 316.478 78.524C316.71 78.524 316.894 78.596 317.03 78.74C317.166 78.876 317.234 79.056 317.234 79.28C317.234 79.504 317.166 79.688 317.03 79.832C316.894 79.976 316.71 80.048 316.478 80.048Z" fill="white"/>
<defs>
<clipPath id="clip0_708_4894">
<rect width="16.5387" height="11.2037" fill="white" transform="translate(9.74707 11.0898)"/>
</clipPath>
</defs>
</svg>
