<svg width="65" height="90" viewBox="0 0 65 90" fill="none" xmlns="http://www.w3.org/2000/svg">
<g clip-path="url(#clip0_551_7537)">
<mask id="path-1-inside-1_551_7537" fill="white">
<path d="M29.5241 59.0255V74.0345C29.5241 82.0762 36.0309 88.6182 44.0294 88.6182C46.6849 88.6182 48.8367 86.4547 48.8367 83.7848C48.8367 81.1149 46.6849 78.9515 44.0294 78.9515C41.3738 78.9515 39.1388 76.7462 39.1388 74.0345V56.4785"/>
</mask>
<path d="M29.5241 59.0255V74.0345C29.5241 82.0762 36.0309 88.6182 44.0294 88.6182C46.6849 88.6182 48.8367 86.4547 48.8367 83.7848C48.8367 81.1149 46.6849 78.9515 44.0294 78.9515C41.3738 78.9515 39.1388 76.7462 39.1388 74.0345V56.4785" fill="#949494"/>
<path d="M28.0241 59.0255V74.0345H31.0241V59.0255H28.0241ZM28.0241 74.0345C28.0241 82.897 35.1949 90.1182 44.0294 90.1182V87.1182C36.867 87.1182 31.0241 81.2554 31.0241 74.0345H28.0241ZM44.0294 90.1182C47.5209 90.1182 50.3367 87.2755 50.3367 83.7848H47.3367C47.3367 85.634 45.8489 87.1182 44.0294 87.1182V90.1182ZM50.3367 83.7848C50.3367 80.2941 47.5209 77.4515 44.0294 77.4515V80.4515C45.8489 80.4515 47.3367 81.9357 47.3367 83.7848H50.3367ZM44.0294 77.4515C42.2016 77.4515 40.6388 75.9171 40.6388 74.0345H37.6388C37.6388 77.5753 40.546 80.4515 44.0294 80.4515V77.4515ZM40.6388 74.0345V56.4785H37.6388V74.0345H40.6388Z" fill="#262626" mask="url(#path-1-inside-1_551_7537)"/>
<path d="M11.5417 63.9426V21.8928C11.5417 10.2273 20.9804 0.737549 32.5831 0.737549C44.1858 0.737549 53.6245 10.2273 53.6245 21.8928V63.9426H11.5417Z" fill="#CDCDCD"/>
<path d="M32.5831 1.47509C38.0067 1.47509 43.1075 3.59921 46.9441 7.45657C50.7807 11.3139 52.8934 16.4398 52.8934 21.8952V63.2075H12.2753V21.8928C12.2753 10.6329 21.3863 1.47509 32.5831 1.47509ZM32.5831 0C20.5573 0 10.8081 9.80196 10.8081 21.8928V64.6801H54.3605V21.8928C54.3605 9.80196 44.6113 0 32.5855 0H32.5831Z" fill="#262626"/>
<path d="M32.6075 51.1141C30.7271 51.1141 29.1964 49.5751 29.1964 47.6846C29.1964 47.2765 29.5241 46.947 29.93 46.947C30.3359 46.947 30.6636 47.2765 30.6636 47.6846C30.6636 48.7614 31.5365 49.6391 32.6075 49.6391C33.6786 49.6391 34.5515 48.7614 34.5515 47.6846C34.5515 47.2765 34.8792 46.947 35.2851 46.947C35.691 46.947 36.0187 47.2765 36.0187 47.6846C36.0187 49.5751 34.4879 51.1141 32.6075 51.1141Z" fill="#262626"/>
<path d="M42.7334 29.0322H42.7309C39.1913 29.0322 36.3219 31.9172 36.3219 35.4759V41.2164C36.3219 44.7752 39.1913 47.6601 42.7309 47.6601H42.7334C46.273 47.6601 49.1424 44.7752 49.1424 41.2164V35.4759C49.1424 31.9172 46.273 29.0322 42.7334 29.0322Z" fill="white"/>
<path d="M42.7309 48.3976C38.7916 48.3976 35.5883 45.1746 35.5883 41.2164V35.4783C35.5883 31.5177 38.794 28.2971 42.7309 28.2971C46.6678 28.2971 49.8735 31.5202 49.8735 35.4783V41.2164C49.8735 45.177 46.6678 48.3976 42.7309 48.3976ZM42.7309 29.7697C39.601 29.7697 37.0555 32.329 37.0555 35.4759V41.214C37.0555 44.3608 39.601 46.9201 42.7309 46.9201C45.8608 46.9201 48.4063 44.3608 48.4063 41.214V35.4759C48.4063 32.329 45.8608 29.7697 42.7309 29.7697Z" fill="#262626"/>
<path d="M42.9534 36.2185H42.5108C41.3224 36.2185 40.359 37.1871 40.359 38.382V42.6892C40.359 43.8841 41.3224 44.8527 42.5108 44.8527H42.9534C44.1418 44.8527 45.1052 43.8841 45.1052 42.6892V38.382C45.1052 37.1871 44.1418 36.2185 42.9534 36.2185Z" fill="#262626"/>
<path d="M43.7212 38.4113C44.4154 38.4113 44.9781 37.8456 44.9781 37.1477C44.9781 36.4498 44.4154 35.884 43.7212 35.884C43.0271 35.884 42.4644 36.4498 42.4644 37.1477C42.4644 37.8456 43.0271 38.4113 43.7212 38.4113Z" fill="white"/>
<path d="M23.2642 29.0322H23.2618C19.7222 29.0322 16.8528 31.9172 16.8528 35.4759V41.2164C16.8528 44.7752 19.7222 47.6601 23.2618 47.6601H23.2642C26.8038 47.6601 29.6732 44.7752 29.6732 41.2164V35.4759C29.6732 31.9172 26.8038 29.0322 23.2642 29.0322Z" fill="white"/>
<path d="M23.2618 48.3976C19.3225 48.3976 16.1192 45.1746 16.1192 41.2164V35.4783C16.1192 31.5177 19.3249 28.2971 23.2618 28.2971C27.1986 28.2971 30.4044 31.5202 30.4044 35.4783V41.2164C30.4044 45.177 27.1986 48.3976 23.2618 48.3976ZM23.2618 29.7697C20.1319 29.7697 17.5864 32.329 17.5864 35.4759V41.214C17.5864 44.3608 20.1319 46.9201 23.2618 46.9201C26.3917 46.9201 28.9372 44.3608 28.9372 41.214V35.4759C28.9372 32.329 26.3917 29.7697 23.2618 29.7697Z" fill="#262626"/>
<path d="M23.4843 36.0513H23.0417C21.8533 36.0513 20.8899 37.0199 20.8899 38.2147V42.522C20.8899 43.7168 21.8533 44.6854 23.0417 44.6854H23.4843C24.6727 44.6854 25.6361 43.7168 25.6361 42.522V38.2147C25.6361 37.0199 24.6727 36.0513 23.4843 36.0513Z" fill="#262626"/>
<path d="M24.2521 38.2441C24.9462 38.2441 25.509 37.6784 25.509 36.9805C25.509 36.2826 24.9462 35.7168 24.2521 35.7168C23.558 35.7168 22.9952 36.2826 22.9952 36.9805C22.9952 37.6784 23.558 38.2441 24.2521 38.2441Z" fill="white"/>
<path d="M44.0098 59.0257V74.0348C44.0098 82.0764 50.5166 88.6185 58.515 88.6185C61.1705 88.6185 63.3224 86.455 63.3224 83.7851C63.3224 81.1152 61.1705 78.9517 58.515 78.9517C55.8179 78.9517 53.6245 76.7465 53.6245 74.0348V56.4788" fill="#CDCDCD"/>
<path d="M58.515 89.356C50.1107 89.356 43.2762 82.4821 43.2762 74.0348V59.0257C43.2762 58.6176 43.6038 58.2882 44.0098 58.2882C44.4157 58.2882 44.7433 58.6176 44.7433 59.0257V74.0348C44.7433 81.6708 50.9225 87.8809 58.515 87.8809C60.7622 87.8809 62.5888 86.0444 62.5888 83.7851C62.5888 81.5257 60.7622 79.6893 58.515 79.6893C55.4144 79.6893 52.8909 77.1521 52.8909 74.0348V56.4788C52.8909 56.0706 53.2186 55.7412 53.6245 55.7412C54.0304 55.7412 54.3581 56.0706 54.3581 56.4788V74.0348C54.3581 76.3384 56.2238 78.2142 58.515 78.2142C61.5716 78.2142 64.0559 80.7144 64.0559 83.7851C64.0559 86.8557 61.5691 89.356 58.515 89.356Z" fill="#262626"/>
<path d="M39.1804 59.0257V74.0348C39.1804 82.0764 45.6872 88.6185 53.6857 88.6185C56.3412 88.6185 58.493 86.455 58.493 83.7851C58.493 81.1152 56.3412 78.9517 53.6857 78.9517C51.0301 78.9517 48.7952 76.7465 48.7952 74.0348V56.4788" fill="#CDCDCD"/>
<path d="M53.6881 89.356C45.2838 89.356 38.4493 82.4821 38.4493 74.0348V59.0257C38.4493 58.6176 38.7769 58.2882 39.1829 58.2882C39.5888 58.2882 39.9164 58.6176 39.9164 59.0257V74.0348C39.9164 81.6708 46.0956 87.8809 53.6881 87.8809C55.9353 87.8809 57.7619 86.0444 57.7619 83.7851C57.7619 81.5257 55.9353 79.6893 53.6881 79.6893C50.5875 79.6893 48.064 77.1521 48.064 74.0348V56.4788C48.064 56.0706 48.3917 55.7412 48.7976 55.7412C49.2035 55.7412 49.5312 56.0706 49.5312 56.4788V74.0348C49.5312 76.3384 51.3969 78.2142 53.6881 78.2142C56.7447 78.2142 59.229 80.7144 59.229 83.7851C59.229 86.8557 56.7422 89.356 53.6881 89.356Z" fill="#262626"/>
<path d="M46.3744 17.3642C47.0469 17.3642 47.5921 16.816 47.5921 16.1399C47.5921 15.4637 47.0469 14.9155 46.3744 14.9155C45.7018 14.9155 45.1566 15.4637 45.1566 16.1399C45.1566 16.816 45.7018 17.3642 46.3744 17.3642Z" fill="#262626"/>
<path d="M49.025 19.4588C49.5287 19.4588 49.9371 19.0482 49.9371 18.5418C49.9371 18.0353 49.5287 17.6248 49.025 17.6248C48.5213 17.6248 48.1129 18.0353 48.1129 18.5418C48.1129 19.0482 48.5213 19.4588 49.025 19.4588Z" fill="#262626"/>
<path d="M49.5287 16.248C49.8839 16.248 50.1718 15.9585 50.1718 15.6014C50.1718 15.2443 49.8839 14.9548 49.5287 14.9548C49.1735 14.9548 48.8856 15.2443 48.8856 15.6014C48.8856 15.9585 49.1735 16.248 49.5287 16.248Z" fill="#262626"/>
<path d="M16.0972 49.6022C16.7697 49.6022 17.3149 49.0541 17.3149 48.3779C17.3149 47.7017 16.7697 47.1536 16.0972 47.1536C15.4247 47.1536 14.8795 47.7017 14.8795 48.3779C14.8795 49.0541 15.4247 49.6022 16.0972 49.6022Z" fill="#949494"/>
<path d="M19.1122 51.2149C19.6159 51.2149 20.0243 50.8043 20.0243 50.2979C20.0243 49.7914 19.6159 49.3809 19.1122 49.3809C18.6085 49.3809 18.2001 49.7914 18.2001 50.2979C18.2001 50.8043 18.6085 51.2149 19.1122 51.2149Z" fill="#949494"/>
<path d="M16.4322 52.2228C16.7873 52.2228 17.0753 51.9334 17.0753 51.5763C17.0753 51.2192 16.7873 50.9297 16.4322 50.9297C16.077 50.9297 15.7891 51.2192 15.7891 51.5763C15.7891 51.9334 16.077 52.2228 16.4322 52.2228Z" fill="#949494"/>
<path d="M21.3227 61.7301V74.3372C21.3227 82.5165 14.7034 89.1716 6.56562 89.1716C3.86361 89.1716 1.67511 86.9713 1.67511 84.2547C1.67511 81.538 3.86361 79.3377 6.56562 79.3377C9.30919 79.3377 11.5417 77.0931 11.5417 74.3372V56.4788" fill="#CDCDCD"/>
<path d="M6.56561 89.9092C3.46503 89.9092 0.941528 87.372 0.941528 84.2547C0.941528 81.1373 3.46503 78.6001 6.56561 78.6001C8.90327 78.6001 10.8081 76.6875 10.8081 74.3371V56.4788C10.8081 56.0706 11.1358 55.7412 11.5417 55.7412C11.9476 55.7412 12.2753 56.0706 12.2753 56.4788V74.3371C12.2753 77.5012 9.7151 80.0752 6.56561 80.0752C4.27441 80.0752 2.40868 81.9511 2.40868 84.2547C2.40868 86.5582 4.27441 88.4341 6.56561 88.4341C14.2975 88.4341 20.5891 82.1109 20.5891 74.3371V61.7301C20.5891 61.322 20.9168 60.9925 21.3227 60.9925C21.7286 60.9925 22.0563 61.322 22.0563 61.7301V74.3371C22.0563 82.9246 15.1069 89.9092 6.56561 89.9092Z" fill="#262626"/>
<path d="M43.7237 70.502C42.9852 70.9715 42.1098 71.242 41.1708 71.242C40.8334 71.242 40.4984 71.2297 40.1658 71.2075C41.4007 71.1215 42.5915 70.8806 43.7237 70.502Z" fill="#CDCDCD"/>
<path d="M41.1708 71.9794C40.8309 71.9794 40.4764 71.9671 40.1169 71.9425C39.733 71.9179 39.4323 71.5959 39.4323 71.2074C39.4323 70.819 39.7306 70.4969 40.1145 70.4699C41.2662 70.3888 42.4032 70.1651 43.4914 69.8012C43.8435 69.6832 44.2274 69.8479 44.3863 70.1847C44.5453 70.5215 44.4279 70.9247 44.1149 71.1239C43.2371 71.6819 42.2174 71.9769 41.1708 71.9769V71.9794Z" fill="#262626"/>
<path d="M26.4749 60.255V74.3372C26.4749 82.5165 19.8556 89.1716 11.7178 89.1716C9.01577 89.1716 6.82727 86.9713 6.82727 84.2547C6.82727 81.538 9.01577 79.3377 11.7178 79.3377C14.4614 79.3377 16.6939 77.0931 16.6939 74.3372V56.4788" fill="#CDCDCD"/>
<path d="M11.7202 89.9092C8.61963 89.9092 6.09613 87.372 6.09613 84.2547C6.09613 81.1373 8.61963 78.6001 11.7202 78.6001C14.0579 78.6001 15.9627 76.6875 15.9627 74.3371V56.4788C15.9627 56.0706 16.2904 55.7412 16.6963 55.7412C17.1022 55.7412 17.4299 56.0706 17.4299 56.4788V74.3371C17.4299 77.5012 14.8697 80.0752 11.7202 80.0752C9.42901 80.0752 7.56328 81.9511 7.56328 84.2547C7.56328 86.5582 9.42901 88.4341 11.7202 88.4341C19.4521 88.4341 25.7437 82.1109 25.7437 74.3371V60.255C25.7437 59.8469 26.0714 59.5174 26.4773 59.5174C26.8832 59.5174 27.2109 59.8469 27.2109 60.255V74.3371C27.2109 82.9246 20.2615 89.9092 11.7202 89.9092Z" fill="#262626"/>
<path d="M40.1771 26.08C40.0553 26.0694 39.936 26.0294 39.8297 25.9535C39.5011 25.725 39.41 25.2778 39.6332 24.9418C39.6755 24.8789 40.6692 23.4182 42.8373 23.6071L42.8543 23.6086C44.0573 23.7184 44.7867 24.1645 45.222 24.6047C45.6214 25.0072 45.4315 25.6939 44.884 25.8363C44.6303 25.903 44.3674 25.8209 44.1795 25.6391C43.9534 25.4171 43.52 25.1523 42.719 25.0775C41.4413 24.9514 40.8674 25.7354 40.8449 25.768C40.6882 25.9888 40.4282 26.0994 40.1773 26.0776L40.1771 26.08Z" fill="#262626"/>
<path d="M21.4392 26.0694C21.3173 26.0613 21.1972 26.0237 21.0894 25.95C20.7562 25.7282 20.6561 25.2829 20.8724 24.9425C20.9134 24.8787 21.8773 23.3982 24.0487 23.5431L24.0658 23.5442C25.2708 23.6296 26.0091 24.0608 26.4533 24.492C26.8607 24.8864 26.6848 25.5768 26.1403 25.7302C25.8879 25.8021 25.6235 25.7253 25.432 25.5474C25.2014 25.33 24.7627 25.074 23.9603 25.0156C22.6804 24.9154 22.1224 25.7109 22.1006 25.744C21.9484 25.9679 21.6907 26.0837 21.4394 26.067L21.4392 26.0694Z" fill="#262626"/>
<path d="M40.1658 71.2075C39.8333 71.2297 39.4958 71.242 39.1584 71.242C38.2218 71.242 37.3464 70.9715 36.6055 70.502C37.7377 70.8806 38.931 71.1215 40.1658 71.2075Z" fill="#CDCDCD"/>
<path d="M39.1584 71.9794C38.1143 71.9794 37.0946 71.6844 36.2143 71.1263C35.9013 70.9272 35.7839 70.524 35.9429 70.1872C36.1018 69.8503 36.4857 69.6856 36.8378 69.8036C37.926 70.1675 39.063 70.3937 40.2172 70.4723C40.6011 70.4994 40.8994 70.8214 40.8994 71.2099C40.8994 71.5983 40.5986 71.9179 40.2147 71.945C39.8553 71.9696 39.5007 71.9819 39.1584 71.9819V71.9794Z" fill="#262626"/>
<path d="M29.2355 69.5995C29.2355 76.0382 33.4071 81.5157 39.1779 83.4432C39.3198 83.4899 39.464 83.5366 39.6083 83.5784C41.6476 84.1881 43.8313 84.1881 45.8706 83.5784C46.0149 83.5366 46.1567 83.4899 46.2985 83.4432C52.0693 81.5157 56.2409 76.0382 56.2409 69.5995V57.2677C56.2409 55.419 54.9547 53.8234 53.1574 53.4374L51.3333 53.0465C48.91 52.5278 46.6286 54.3864 46.6286 56.8768V69.597C46.6286 69.7937 46.6164 69.9879 46.5944 70.1797C46.0662 74.6516 39.7134 74.6148 39.1853 70.1428C39.1633 69.951 39.1853 69.3266 39.1853 69.1299L29.2404 69.597L29.2355 69.5995Z" fill="#CDCDCD"/>
<path d="M42.7358 84.7757C41.611 84.7757 40.4886 84.611 39.3956 84.284C39.244 84.2397 39.0948 84.1906 38.9432 84.1414C32.7053 82.0591 28.5117 76.2276 28.4995 69.6265C28.4995 69.2676 28.7465 68.9333 29.0986 68.8718C29.5632 68.7882 29.9667 69.1471 29.9667 69.597C29.9667 75.5736 33.7593 80.8544 39.4078 82.7401C39.5423 82.7843 39.6792 82.8286 39.8161 82.8679C41.7283 83.4407 43.7481 83.4407 45.6579 82.8679C45.7923 82.8261 45.9293 82.7843 46.0638 82.7401C51.7099 80.8544 55.5049 75.5711 55.5049 69.597V57.2653C55.5049 55.7656 54.4608 54.4676 53.0009 54.1553L51.2453 53.7792C50.5068 53.6218 49.7268 53.6956 49.0592 54.0521C47.9906 54.6224 47.3573 55.7017 47.3573 56.8744V69.5946C47.3573 69.8158 47.3451 70.042 47.3182 70.2633C46.9954 73.002 44.8045 74.2485 42.9069 74.2485C41.0094 74.2485 38.7794 72.9897 38.4541 70.2264C38.4346 70.0519 38.437 69.7568 38.4444 69.3561C38.4444 69.2602 38.4468 69.1766 38.4468 69.125C38.4468 68.7169 38.7745 68.3875 39.1804 68.3875C39.5863 68.3875 39.914 68.7169 39.914 69.125C39.914 69.184 39.914 69.275 39.9091 69.3856C39.9066 69.5553 39.8968 69.9535 39.9091 70.0519C40.1316 71.9301 41.5743 72.7709 42.9045 72.7709C44.1222 72.7709 45.6236 72.0678 45.8584 70.0863C45.8779 69.9216 45.8877 69.7568 45.8877 69.5921V56.9654C45.8877 55.7829 46.2912 54.62 47.0859 53.7472C48.2205 52.5008 49.8784 51.9771 51.48 52.3213L53.3042 52.7122C54.4388 53.1056 55.4193 54.1037 56.126 55.3207C56.6982 56.304 56.9672 57.4374 56.9672 58.5781V69.5946C56.9672 76.2079 52.7687 82.0517 46.5235 84.1389C46.3743 84.1881 46.2252 84.2348 46.076 84.2815C44.983 84.6085 43.8582 84.7732 42.7333 84.7732L42.7358 84.7757Z" fill="#262626"/>
<path d="M33.0844 56.5671V74.4255C33.0844 82.6049 26.4651 89.26 18.3273 89.26C15.6253 89.26 13.4368 87.0597 13.4368 84.343C13.4368 81.6264 15.6253 79.4261 18.3273 79.4261C21.0708 79.4261 23.3034 77.1815 23.3034 74.4255V56.5671" fill="#CDCDCD"/>
<path d="M18.3297 90C15.2291 90 12.7056 87.4628 12.7056 84.3455C12.7056 81.2281 15.2291 78.691 18.3297 78.691C20.6674 78.691 22.5722 76.7783 22.5722 74.428V56.5696C22.5722 56.1615 22.8999 55.832 23.3058 55.832C23.7117 55.832 24.0394 56.1615 24.0394 56.5696V74.428C24.0394 77.592 21.4792 80.1661 18.3297 80.1661C16.0385 80.1661 14.1728 82.0419 14.1728 84.3455C14.1728 86.6491 16.0385 88.5249 18.3297 88.5249C26.0616 88.5249 32.3532 82.2017 32.3532 74.428V56.5696C32.3532 56.1615 32.6809 55.832 33.0868 55.832C33.4927 55.832 33.8204 56.1615 33.8204 56.5696V74.428C33.8204 83.0154 26.871 90 18.3297 90Z" fill="#262626"/>
<path d="M46.8634 43.7109H31.4998C30.4221 43.7109 29.5498 44.5883 29.5498 45.6688V70.5707C29.5498 71.6513 30.4221 72.5286 31.4998 72.5286H46.8634C47.9411 72.5286 48.8134 71.6513 48.8134 70.5707V45.6688C48.8134 44.5883 47.9411 43.7109 46.8634 43.7109ZM47.1654 70.5707C47.1654 70.7441 47.0253 70.8796 46.8634 70.8796H31.4998C31.3379 70.8796 31.1978 70.7441 31.1978 70.5707V45.6688C31.1978 45.494 31.3369 45.36 31.4998 45.36H46.8634C47.0263 45.36 47.1654 45.494 47.1654 45.6688V70.5707Z" fill="#7000FF" stroke="#7000FF"/>
<path d="M47.6654 45.6687V70.5706C47.6654 71.0156 47.306 71.3795 46.8634 71.3795H31.4999C31.0573 71.3795 30.6978 71.0156 30.6978 70.5706V45.6687C30.6978 45.2213 31.0573 44.8599 31.4999 44.8599H46.8634C47.306 44.8599 47.6654 45.2213 47.6654 45.6687Z" fill="white"/>
<path d="M32.476 55.4545V49.0795H33.4919L33.8358 50.2529H33.7525V52.3953H33.8358V55.4545H32.4708H32.476ZM34.9977 53.7835C34.5913 53.7835 34.2422 53.6892 33.9452 53.5059C33.6483 53.3225 33.419 53.0501 33.2575 52.6939C33.096 52.3377 33.0126 51.8977 33.0126 51.3791C33.0126 50.8605 33.096 50.4467 33.2627 50.0852C33.4294 49.7238 33.6587 49.4461 33.9609 49.2523C34.2578 49.0585 34.6069 48.959 35.0081 48.959C35.4093 48.959 35.7896 49.0585 36.1074 49.2628C36.4201 49.4671 36.6701 49.75 36.8473 50.1114C37.0244 50.4729 37.113 50.8919 37.113 51.3686C37.113 51.8453 37.0244 52.2539 36.8421 52.6153C36.6597 52.9768 36.4096 53.2597 36.097 53.464C35.7792 53.6682 35.4145 53.7678 35.0029 53.7678L34.9977 53.7835ZM34.7476 52.4949C35.0289 52.4949 35.2582 52.3901 35.4458 52.1806C35.6281 51.971 35.7219 51.7039 35.7219 51.3791C35.7219 51.0543 35.6281 50.7767 35.4458 50.5671C35.2634 50.3576 35.0289 50.2529 34.7476 50.2529C34.4663 50.2529 34.2422 50.3576 34.0546 50.5671C33.8671 50.7767 33.7733 51.0438 33.7733 51.3686C33.7733 51.6934 33.8671 51.971 34.0546 52.1806C34.2422 52.3901 34.4715 52.4949 34.7476 52.4949Z" fill="#7000FF"/>
<path d="M39.64 53.7837C39.2284 53.7837 38.8637 53.6842 38.5458 53.4799C38.228 53.2756 37.9831 52.9927 37.806 52.626C37.6289 52.2594 37.5403 51.8403 37.5403 51.3741C37.5403 50.9079 37.6289 50.4888 37.8112 50.1274C37.9936 49.7659 38.2384 49.483 38.5563 49.2787C38.8741 49.0744 39.2388 48.9749 39.6504 48.9749C40.062 48.9749 40.4059 49.0692 40.7028 49.2526C40.9998 49.4359 41.2291 49.7083 41.3958 50.0645C41.5625 50.4207 41.6407 50.8607 41.6407 51.3793C41.6407 51.8979 41.5573 52.3013 41.3906 52.6627C41.2239 53.0241 40.9894 53.3018 40.6872 53.5008C40.3902 53.6999 40.0412 53.7942 39.64 53.7942V53.7837ZM39.9005 52.4951C40.1818 52.4951 40.4111 52.3903 40.5986 52.1808C40.781 51.9712 40.8748 51.6989 40.8748 51.3688C40.8748 51.0388 40.781 50.7769 40.5986 50.5674C40.4163 50.3578 40.1818 50.2531 39.9005 50.2531C39.6191 50.2531 39.3899 50.3578 39.2023 50.5674C39.0148 50.7769 38.9262 51.0441 38.9262 51.3688C38.9262 51.6936 39.02 51.9712 39.2023 52.1808C39.3847 52.3903 39.6191 52.4951 39.9005 52.4951ZM41.1509 53.6685L40.8071 52.4951H40.8904V50.3526H40.8071V47.2725H42.1721V53.6685H41.1561H41.1509Z" fill="#7000FF"/>
<path d="M45.6368 50.4782H42.8442V49.221H45.6368V50.4782ZM43.459 53.6736V48.781C43.459 48.4352 43.5215 48.1419 43.6518 47.8957C43.782 47.6495 43.9592 47.4661 44.1936 47.3352C44.4281 47.2095 44.699 47.1414 45.0116 47.1414C45.1731 47.1414 45.319 47.1518 45.444 47.1676C45.5691 47.1885 45.6681 47.2042 45.741 47.2252V48.4719C45.6837 48.4614 45.6264 48.4457 45.5587 48.4352C45.4909 48.4247 45.4128 48.4143 45.319 48.4143C45.1627 48.4143 45.0429 48.4614 44.9595 48.5505C44.8761 48.6395 44.8345 48.7862 44.8345 48.9853V53.6631H43.459V53.6736Z" fill="#7000FF"/>
<path d="M55.5049 57.2678C55.5049 54.3545 53.8348 52.8474 50.9372 52.8474C48.0396 52.8474 45.6921 55.2076 45.6921 58.1208C45.6921 61.0341 48.0396 63.3943 50.9372 63.3943" fill="#CDCDCD"/>
<path d="M50.9372 64.0531C47.685 64.0531 45.0368 61.393 45.0368 58.1208C45.0368 54.8486 47.6826 52.1885 50.9372 52.1885C54.1918 52.1885 56.8376 54.8486 56.8376 58.1208C56.8376 58.4846 56.5442 58.7797 56.1823 58.7797C55.8204 58.7797 55.5269 58.4846 55.5269 58.1208C55.5269 55.5763 53.468 53.5062 50.9372 53.5062C48.4064 53.5062 46.3475 55.5763 46.3475 58.1208C46.3475 60.6653 48.4064 62.7354 50.9372 62.7354C51.2991 62.7354 51.5925 63.0304 51.5925 63.3942C51.5925 63.7581 51.2991 64.0531 50.9372 64.0531Z" fill="#262626"/>
</g>
<defs>
<clipPath id="clip0_551_7537">
<rect width="63.1169" height="90" fill="white" transform="translate(0.941528)"/>
</clipPath>
</defs>
</svg>
