<svg width="64" height="90" viewBox="0 0 64 90" fill="none" xmlns="http://www.w3.org/2000/svg">
<g clip-path="url(#clip0_551_3626)">
<mask id="path-1-inside-1_551_3626" fill="white">
<path d="M29.0081 59.0257V74.0348C29.0081 82.0765 35.5501 88.6185 43.5918 88.6185C46.2617 88.6185 48.4251 86.455 48.4251 83.7851C48.4251 81.1152 46.2617 78.9517 43.5918 78.9517C40.9218 78.9517 38.6748 76.7465 38.6748 74.0348V56.4788"/>
</mask>
<path d="M29.0081 59.0257V74.0348C29.0081 82.0765 35.5501 88.6185 43.5918 88.6185C46.2617 88.6185 48.4251 86.455 48.4251 83.7851C48.4251 81.1152 46.2617 78.9517 43.5918 78.9517C40.9218 78.9517 38.6748 76.7465 38.6748 74.0348V56.4788" fill="#949494"/>
<path d="M27.5081 59.0257V74.0348H30.5081V59.0257H27.5081ZM27.5081 74.0348C27.5081 82.9049 34.7216 90.1185 43.5918 90.1185V87.1185C36.3785 87.1185 30.5081 81.248 30.5081 74.0348H27.5081ZM43.5918 90.1185C47.0901 90.1185 49.9251 87.2834 49.9251 83.7851H46.9251C46.9251 85.6266 45.4332 87.1185 43.5918 87.1185V90.1185ZM49.9251 83.7851C49.9251 80.2868 47.0901 77.4517 43.5918 77.4517V80.4517C45.4332 80.4517 46.9251 81.9436 46.9251 83.7851H49.9251ZM43.5918 77.4517C41.742 77.4517 40.1748 75.9098 40.1748 74.0348H37.1748C37.1748 77.5832 40.1017 80.4517 43.5918 80.4517V77.4517ZM40.1748 74.0348V56.4788H37.1748V74.0348H40.1748Z" fill="#262626" mask="url(#path-1-inside-1_551_3626)"/>
<path d="M10.9283 63.9426V21.8928C10.9283 10.2273 20.4181 0.737549 32.0836 0.737549C43.749 0.737549 53.2388 10.2273 53.2388 21.8928V63.9426H10.9283Z" fill="#CDCDCD"/>
<path d="M32.0836 1.47509C37.5365 1.47509 42.6648 3.59921 46.5222 7.45657C50.3796 11.3139 52.5037 16.4398 52.5037 21.8952V63.2075H11.6659V21.8928C11.6659 10.6329 20.8262 1.47509 32.0836 1.47509ZM32.0836 0C19.9928 0 10.1908 9.80196 10.1908 21.8928V64.6801H53.9788V21.8928C53.9788 9.80196 44.1768 0 32.086 0H32.0836Z" fill="#262626"/>
<path d="M27.6485 40.3632C27.3437 40.3632 27.0585 40.1739 26.9528 39.8715C26.9233 39.7978 26.1218 37.8187 22.498 37.8039C22.4882 37.8039 22.4783 37.8039 22.4685 37.8039C19.2676 37.8039 18.0457 39.8961 17.9965 39.9846C17.7974 40.3386 17.3475 40.464 16.9935 40.2673C16.6394 40.0707 16.5091 39.6257 16.7034 39.2717C16.7697 39.1512 18.3628 36.3289 22.466 36.3289C22.4783 36.3289 22.4882 36.3289 22.5005 36.3289C27.2183 36.3485 28.2976 39.2569 28.3418 39.3823C28.477 39.7658 28.2754 40.1887 27.8919 40.3239C27.8108 40.3534 27.7272 40.3657 27.6461 40.3657L27.6485 40.3632Z" fill="#262626"/>
<path d="M32.1082 51.1141C30.2176 51.1141 28.6786 49.5751 28.6786 47.6846C28.6786 47.2765 29.008 46.947 29.4161 46.947C29.8242 46.947 30.1537 47.2765 30.1537 47.6846C30.1537 48.7614 31.0314 49.6391 32.1082 49.6391C33.185 49.6391 34.0627 48.7614 34.0627 47.6846C34.0627 47.2765 34.3921 46.947 34.8002 46.947C35.2083 46.947 35.5377 47.2765 35.5377 47.6846C35.5377 49.5751 33.9987 51.1141 32.1082 51.1141Z" fill="#262626"/>
<path d="M42.2888 29.0322H42.2863C38.7276 29.0322 35.8427 31.9172 35.8427 35.4759V41.2164C35.8427 44.7752 38.7276 47.6601 42.2863 47.6601H42.2888C45.8475 47.6601 48.7325 44.7752 48.7325 41.2164V35.4759C48.7325 31.9172 45.8475 29.0322 42.2888 29.0322Z" fill="white"/>
<path d="M42.2863 48.3976C38.3257 48.3976 35.1051 45.1746 35.1051 41.2164V35.4783C35.1051 31.5177 38.3282 28.2971 42.2863 28.2971C46.2445 28.2971 49.4675 31.5202 49.4675 35.4783V41.2164C49.4675 45.177 46.2445 48.3976 42.2863 48.3976ZM42.2863 29.7697C39.1395 29.7697 36.5802 32.329 36.5802 35.4759V41.214C36.5802 44.3608 39.1395 46.9201 42.2863 46.9201C45.4332 46.9201 47.9925 44.3608 47.9925 41.214V35.4759C47.9925 32.329 45.4332 29.7697 42.2863 29.7697Z" fill="#262626"/>
<path d="M42.5101 33.8088H42.0651C40.8702 33.8088 39.9016 34.7775 39.9016 35.9723V40.2796C39.9016 41.4744 40.8702 42.443 42.0651 42.443H42.5101C43.7049 42.443 44.6735 41.4744 44.6735 40.2796V35.9723C44.6735 34.7775 43.7049 33.8088 42.5101 33.8088Z" fill="#1C1C1C"/>
<path d="M43.282 36.0044C43.9799 36.0044 44.5456 35.4386 44.5456 34.7407C44.5456 34.0428 43.9799 33.4771 43.282 33.4771C42.5841 33.4771 42.0183 34.0428 42.0183 34.7407C42.0183 35.4386 42.5841 36.0044 43.282 36.0044Z" fill="white"/>
<path d="M51.7686 35.1588V48.9484C51.7686 49.9072 50.9893 50.6865 50.0305 50.6865H27.8771C26.5544 50.6865 25.4825 49.6146 25.4825 48.292V35.1588C25.4825 33.8361 26.5544 32.7642 27.8771 32.7642H35.4394C35.7074 32.7642 35.9409 32.5971 36.0491 32.3512C36.3392 31.6972 36.9981 31.2424 37.7602 31.2424H47.0508C47.8129 31.2424 48.4693 31.6972 48.7594 32.3512C48.8701 32.5971 49.1012 32.7642 49.3691 32.7642C50.6918 32.7642 51.7661 33.8361 51.7661 35.1612L51.7686 35.1588Z" fill="#7000FF"/>
<path d="M49.2388 41.777C49.197 45.4549 46.2026 48.4124 42.5566 48.378C38.8148 48.3411 35.872 45.3762 35.8892 41.6614C35.9064 37.9762 38.9623 34.9965 42.6697 35.053C46.3378 35.1096 49.2806 38.1188 49.2388 41.7745V41.777Z" fill="#3A179D"/>
<path d="M30.611 44.6118V36.1644C30.611 35.6892 30.2257 35.304 29.7505 35.304H29.0744C28.5992 35.304 28.2139 35.6892 28.2139 36.1644V44.6118C28.2139 45.087 28.5992 45.4722 29.0744 45.4722H29.7505C30.2257 45.4722 30.611 45.087 30.611 44.6118Z" fill="#F5F5F5"/>
<path d="M47.8965 41.7647C47.8645 44.7026 45.4724 47.0652 42.5591 47.0381C39.5696 47.0086 37.2193 44.6411 37.2316 41.6737C37.2439 38.7285 39.6852 36.3511 42.6476 36.3954C45.5782 36.4396 47.9285 38.844 47.8965 41.7647Z" fill="#F5F5F5"/>
<path d="M44.5259 41.7351C44.5136 42.8168 43.6335 43.6847 42.5616 43.6748C41.4627 43.665 40.5973 42.7922 40.6022 41.7007C40.6071 40.619 41.5045 39.7437 42.5936 39.7585C43.6704 39.7757 44.5358 40.6583 44.5235 41.7326L44.5259 41.7351Z" fill="#3A179D"/>
<path d="M33.5022 36.1029C33.4972 36.5995 33.0916 36.9977 32.5999 36.9928C32.0959 36.9879 31.6976 36.5872 31.7001 36.0856C31.7001 35.589 32.1156 35.1858 32.6146 35.1932C33.1088 35.2006 33.5071 35.6062 33.4997 36.1004L33.5022 36.1029Z" fill="#F5F5F5"/>
<path d="M43.572 59.0257V74.0348C43.572 82.0765 50.114 88.6185 58.1557 88.6185C60.8256 88.6185 62.9891 86.455 62.9891 83.7851C62.9891 81.1152 60.8256 78.9517 58.1557 78.9517C55.444 78.9517 53.2388 76.7465 53.2388 74.0348V56.4788" fill="#CDCDCD"/>
<path d="M58.1557 89.356C49.7059 89.356 42.8345 82.4821 42.8345 74.0348V59.0257C42.8345 58.6176 43.1639 58.2882 43.572 58.2882C43.9801 58.2882 44.3096 58.6176 44.3096 59.0257V74.0348C44.3096 81.6708 50.5221 87.8809 58.1557 87.8809C60.4151 87.8809 62.2515 86.0444 62.2515 83.7851C62.2515 81.5257 60.4151 79.6893 58.1557 79.6893C55.0384 79.6893 52.5012 77.1521 52.5012 74.0348V56.4788C52.5012 56.0706 52.8306 55.7412 53.2388 55.7412C53.6469 55.7412 53.9763 56.0706 53.9763 56.4788V74.0348C53.9763 76.3384 55.8521 78.2142 58.1557 78.2142C61.2288 78.2142 63.7266 80.7144 63.7266 83.7851C63.7266 86.8557 61.2264 89.356 58.1557 89.356Z" fill="#262626"/>
<path d="M38.7166 59.0257V74.0348C38.7166 82.0765 45.2586 88.6185 53.3003 88.6185C55.9702 88.6185 58.1336 86.455 58.1336 83.7851C58.1336 81.1152 55.9702 78.9517 53.3003 78.9517C50.6303 78.9517 48.3833 76.7465 48.3833 74.0348V56.4788" fill="#CDCDCD"/>
<path d="M53.3027 89.356C44.8529 89.356 37.9814 82.4821 37.9814 74.0348V59.0257C37.9814 58.6176 38.3109 58.2882 38.719 58.2882C39.1271 58.2882 39.4565 58.6176 39.4565 59.0257V74.0348C39.4565 81.6708 45.6691 87.8809 53.3027 87.8809C55.562 87.8809 57.3985 86.0444 57.3985 83.7851C57.3985 81.5257 55.562 79.6893 53.3027 79.6893C50.1853 79.6893 47.6482 77.1521 47.6482 74.0348V56.4788C47.6482 56.0706 47.9776 55.7412 48.3857 55.7412C48.7938 55.7412 49.1233 56.0706 49.1233 56.4788V74.0348C49.1233 76.3384 50.9991 78.2142 53.3027 78.2142C56.3758 78.2142 58.8736 80.7144 58.8736 83.7851C58.8736 86.8557 56.3733 89.356 53.3027 89.356Z" fill="#262626"/>
<path d="M46.6157 18.9499C47.2919 18.9499 47.84 18.4017 47.84 17.7255C47.84 17.0494 47.2919 16.5012 46.6157 16.5012C45.9395 16.5012 45.3914 17.0494 45.3914 17.7255C45.3914 18.4017 45.9395 18.9499 46.6157 18.9499Z" fill="#262626"/>
<path d="M49.2807 21.0445C49.7871 21.0445 50.1977 20.6339 50.1977 20.1275C50.1977 19.621 49.7871 19.2104 49.2807 19.2104C48.7742 19.2104 48.3636 19.621 48.3636 20.1275C48.3636 20.6339 48.7742 21.0445 49.2807 21.0445Z" fill="#262626"/>
<path d="M49.7871 17.8337C50.1442 17.8337 50.4337 17.5442 50.4337 17.1871C50.4337 16.83 50.1442 16.5405 49.7871 16.5405C49.43 16.5405 49.1406 16.83 49.1406 17.1871C49.1406 17.5442 49.43 17.8337 49.7871 17.8337Z" fill="#262626"/>
<path d="M15.5085 49.6022C16.1847 49.6022 16.7328 49.0541 16.7328 48.3779C16.7328 47.7017 16.1847 47.1536 15.5085 47.1536C14.8323 47.1536 14.2842 47.7017 14.2842 48.3779C14.2842 49.0541 14.8323 49.6022 15.5085 49.6022Z" fill="#949494"/>
<path d="M18.5398 51.2149C19.0463 51.2149 19.4568 50.8043 19.4568 50.2979C19.4568 49.7914 19.0463 49.3809 18.5398 49.3809C18.0334 49.3809 17.6228 49.7914 17.6228 50.2979C17.6228 50.8043 18.0334 51.2149 18.5398 51.2149Z" fill="#949494"/>
<path d="M15.8453 52.2228C16.2024 52.2228 16.4919 51.9334 16.4919 51.5763C16.4919 51.2192 16.2024 50.9297 15.8453 50.9297C15.4882 50.9297 15.1987 51.2192 15.1987 51.5763C15.1987 51.9334 15.4882 52.2228 15.8453 52.2228Z" fill="#949494"/>
<path d="M20.7623 61.7301V74.3372C20.7623 82.5165 14.1072 89.1716 5.92538 89.1716C3.20876 89.1716 1.00842 86.9713 1.00842 84.2547C1.00842 81.538 3.20876 79.3377 5.92538 79.3377C8.68379 79.3377 10.9284 77.0931 10.9284 74.3372V56.4788" fill="#CDCDCD"/>
<path d="M5.92538 89.9091C2.80802 89.9091 0.270874 87.372 0.270874 84.2546C0.270874 81.1373 2.80802 78.6001 5.92538 78.6001C8.27568 78.6001 10.1908 76.6875 10.1908 74.3371V56.4788C10.1908 56.0706 10.5203 55.7412 10.9284 55.7412C11.3365 55.7412 11.6659 56.0706 11.6659 56.4788V74.3371C11.6659 77.5012 9.0919 80.0752 5.92538 80.0752C3.62178 80.0752 1.74596 81.9511 1.74596 84.2546C1.74596 86.5582 3.62178 88.4341 5.92538 88.4341C13.6991 88.4341 20.0248 82.1109 20.0248 74.3371V61.7301C20.0248 61.322 20.3542 60.9925 20.7623 60.9925C21.1704 60.9925 21.4998 61.322 21.4998 61.7301V74.3371C21.4998 82.9246 14.5128 89.9091 5.92538 89.9091Z" fill="#262626"/>
<path d="M43.2845 70.502C42.542 70.9715 41.6619 71.242 40.7178 71.242C40.3786 71.242 40.0418 71.2297 39.7074 71.2075C40.9489 71.1215 42.1462 70.8806 43.2845 70.502Z" fill="#7000FF"/>
<path d="M40.7178 71.9794C40.3761 71.9794 40.0196 71.9671 39.6582 71.9425C39.2722 71.9179 38.9698 71.5959 38.9698 71.2074C38.9698 70.819 39.2698 70.4969 39.6558 70.4699C40.8137 70.3888 41.9569 70.1651 43.0509 69.8012C43.4049 69.6832 43.7909 69.8479 43.9507 70.1847C44.1105 70.5215 43.9925 70.9247 43.6778 71.1239C42.7952 71.6819 41.7701 71.9769 40.7178 71.9769V71.9794Z" fill="#3A179D"/>
<path d="M25.9424 60.255V74.3372C25.9424 82.5165 19.2873 89.1716 11.1054 89.1716C8.38882 89.1716 6.18848 86.9713 6.18848 84.2547C6.18848 81.538 8.38882 79.3377 11.1054 79.3377C13.8638 79.3377 16.1084 77.0931 16.1084 74.3372V56.4788" fill="#CDCDCD"/>
<path d="M11.1079 89.9091C7.99052 89.9091 5.45337 87.372 5.45337 84.2546C5.45337 81.1373 7.99052 78.6001 11.1079 78.6001C13.4582 78.6001 15.3733 76.6875 15.3733 74.3371V56.4788C15.3733 56.0706 15.7028 55.7412 16.1109 55.7412C16.519 55.7412 16.8484 56.0706 16.8484 56.4788V74.3371C16.8484 77.5012 14.2744 80.0752 11.1079 80.0752C8.80428 80.0752 6.92846 81.9511 6.92846 84.2546C6.92846 86.5582 8.80428 88.4341 11.1079 88.4341C18.8816 88.4341 25.2072 82.1109 25.2072 74.3371V60.255C25.2072 59.8469 25.5367 59.5174 25.9448 59.5174C26.3529 59.5174 26.6823 59.8469 26.6823 60.255V74.3371C26.6823 82.9246 19.6953 89.9091 11.1079 89.9091Z" fill="#262626"/>
<path d="M39.8277 21.3691C39.7048 21.3691 39.5819 21.3396 39.4688 21.2732C39.1197 21.074 38.9894 20.6364 39.1836 20.2824C39.2205 20.216 40.0883 18.6746 42.2764 18.6746H42.2936C44.8185 18.6844 45.4232 20.3217 45.4478 20.3906L44.0563 20.8798C44.0563 20.8798 43.7269 20.1546 42.2887 20.1472C40.998 20.1324 40.4915 20.9634 40.4719 20.9978C40.3342 21.2314 40.0834 21.3641 39.8302 21.3641L39.8277 21.3691Z" fill="#262626"/>
<path d="M20.251 26.7311C20.1305 26.7311 20.0101 26.7016 19.897 26.6402C19.5405 26.4435 19.4077 25.9961 19.6044 25.6396C19.6413 25.5732 20.5091 24.0317 22.6972 24.0317H22.7168C25.2417 24.0416 25.8465 25.6789 25.8711 25.7478L24.4796 26.237C24.4796 26.237 24.1501 25.5117 22.7119 25.5068H22.6996C21.3966 25.5068 20.9049 26.3402 20.9 26.3476C20.7648 26.5935 20.514 26.7311 20.2534 26.7311H20.251Z" fill="#262626"/>
<path d="M39.7074 71.2075C39.373 71.2297 39.0337 71.242 38.6945 71.242C37.7529 71.242 36.8727 70.9715 36.1278 70.502C37.2661 70.8806 38.4658 71.1215 39.7074 71.2075Z" fill="#7000FF"/>
<path d="M38.6944 71.9794C37.6446 71.9794 36.6195 71.6844 35.7344 71.1263C35.4197 70.9272 35.3017 70.524 35.4615 70.1872C35.6213 69.8503 36.0073 69.6856 36.3613 69.8036C37.4553 70.1675 38.5985 70.3937 39.7589 70.4723C40.1449 70.4994 40.4448 70.8214 40.4448 71.2099C40.4448 71.5983 40.1425 71.9179 39.7565 71.945C39.3951 71.9696 39.0386 71.9819 38.6944 71.9819V71.9794Z" fill="#3A179D"/>
<path d="M28.7179 57.5777C28.7179 64.0165 32.9121 69.494 38.7141 71.4214C38.8567 71.4682 39.0017 71.5149 39.1468 71.5567C41.1971 72.1664 43.3926 72.1664 45.4429 71.5567C45.588 71.5149 45.7306 71.4682 45.8732 71.4214C51.6752 69.494 55.8693 64.0165 55.8693 57.5777V45.246C55.8693 43.3972 54.5762 41.8017 52.7692 41.4157L50.9352 41.0248C48.4988 40.5061 46.2051 42.3647 46.2051 44.8551V57.5753C46.2051 57.772 46.1928 57.9662 46.1706 58.1579C45.6396 62.6299 39.2525 62.593 38.7214 58.1211C38.6993 57.9293 38.7214 57.3049 38.7214 57.1082" fill="#CDCDCD"/>
<path d="M42.2912 72.7563C41.1603 72.7563 40.0318 72.5916 38.9329 72.2646C38.7805 72.2204 38.6305 72.1712 38.4781 72.122C32.1967 70.0348 27.9779 64.191 27.9779 57.5777C27.9779 57.1695 28.3073 56.8401 28.7154 56.8401C29.1236 56.8401 29.453 57.1695 29.453 57.5777C29.453 63.5542 33.2661 68.835 38.9452 70.7207C39.0804 70.7649 39.2181 70.8092 39.3557 70.8485C41.2783 71.4213 43.309 71.4213 45.2291 70.8485C45.3643 70.8067 45.5019 70.7649 45.6372 70.7207C51.3138 68.835 55.1293 63.5518 55.1293 57.5777V45.2459C55.1293 43.7561 54.0697 42.4482 52.6119 42.1359L50.7778 41.745C49.8362 41.5435 48.8651 41.777 48.1153 42.3842C47.3655 42.9915 46.9377 43.8913 46.9377 44.855V57.5752C46.9377 57.7965 46.9254 58.0226 46.8984 58.2439C46.5738 60.9826 44.371 62.2291 42.4633 62.2291C40.5555 62.2291 38.3134 60.9704 37.9864 58.207C37.9667 58.0325 37.9692 57.7375 37.9765 57.3367C37.9765 57.2408 37.979 57.1573 37.979 57.1056C37.979 56.6975 38.3084 56.3681 38.7165 56.3681C39.1247 56.3681 39.4541 56.6975 39.4541 57.1056C39.4541 57.1646 39.4541 57.2556 39.4492 57.3662C39.4467 57.5359 39.4369 57.9341 39.4492 58.0325C39.6729 59.9107 41.1234 60.7515 42.4608 60.7515C43.6851 60.7515 45.1946 60.0484 45.4307 58.0669C45.4503 57.9022 45.4601 57.7375 45.4601 57.5727V44.8526C45.4601 43.4414 46.0895 42.1237 47.186 41.2361C48.2825 40.3486 49.7035 40.0069 51.0827 40.3019L52.9167 40.6928C55.0507 41.1476 56.602 43.0603 56.602 45.2435V57.5752C56.602 64.1885 52.3808 70.0323 46.1018 72.1196C45.9518 72.1687 45.8019 72.2154 45.6519 72.2621C44.553 72.5891 43.4221 72.7538 42.2912 72.7538V72.7563Z" fill="#262626"/>
<path d="M32.5876 56.5671V74.4255C32.5876 82.6049 25.9325 89.26 17.7507 89.26C15.0341 89.26 12.8337 87.0597 12.8337 84.343C12.8337 81.6264 15.0341 79.4261 17.7507 79.4261C20.5091 79.4261 22.7537 77.1815 22.7537 74.4255V56.5671" fill="#CDCDCD"/>
<path d="M17.7531 90C14.6358 90 12.0986 87.4628 12.0986 84.3455C12.0986 81.2281 14.6358 78.691 17.7531 78.691C20.1034 78.691 22.0186 76.7783 22.0186 74.428V56.5696C22.0186 56.1615 22.348 55.832 22.7561 55.832C23.1642 55.832 23.4937 56.1615 23.4937 56.5696V74.428C23.4937 77.592 20.9197 80.166 17.7531 80.166C15.4495 80.166 13.5737 82.0419 13.5737 84.3455C13.5737 86.6491 15.4495 88.5249 17.7531 88.5249C25.5268 88.5249 31.8525 82.2017 31.8525 74.428V56.5696C31.8525 56.1615 32.182 55.832 32.5901 55.832C32.9982 55.832 33.3276 56.1615 33.3276 56.5696V74.428C33.3276 83.0154 26.3406 90 17.7531 90Z" fill="#262626"/>
</g>
<defs>
<clipPath id="clip0_551_3626">
<rect width="63.4583" height="90" fill="white" transform="translate(0.270874)"/>
</clipPath>
</defs>
</svg>
