<svg width="23" height="31" viewBox="0 0 23 31" fill="none" xmlns="http://www.w3.org/2000/svg">
<g clip-path="url(#clip0_634_6573)">
<path d="M12.6428 23.9355L12.5075 24.1669L12.3809 24.3808C12.4638 24.2324 12.5511 24.0752 12.6428 23.9355Z" fill="#FCCD06"/>
<path d="M15.6073 22.7266C15.6073 25.0535 13.5904 26.9045 11.2068 26.6294C9.51294 26.433 8.09848 25.1059 7.81035 23.4295C7.64445 22.469 7.82344 21.561 8.24691 20.8057L8.29493 20.7271L8.34295 20.6442L10.7178 16.5318C11.1457 15.7896 12.2109 15.7896 12.6387 16.5274L15.0223 20.6616L15.1097 20.8057C15.4284 21.3732 15.6073 22.0281 15.6073 22.7266Z" fill="#FCCD06"/>
<path d="M15.6073 22.7266C15.6073 25.0535 13.5904 26.9045 11.2068 26.6294C9.51294 26.433 8.09848 25.1059 7.81035 23.4295C7.64445 22.469 7.82344 21.561 8.24691 20.8057L8.29493 20.7271L8.34295 20.6442L10.7178 16.5318C11.1457 15.7896 12.2109 15.7896 12.6387 16.5274L15.0223 20.6616L15.1097 20.8057C15.4284 21.3732 15.6073 22.0281 15.6073 22.7266Z" fill="#FF4C4C"/>
<path d="M21.0949 14.266L20.8636 13.8731L13.5468 1.19538C12.7173 -0.240908 10.6393 -0.240908 9.8098 1.19538L5.78034 8.18474C5.6319 8.44667 5.29139 8.52525 5.03818 8.355L4.25237 7.82676C3.54514 7.3509 2.5847 7.82239 2.52795 8.67369L2.20926 13.4366L2.19616 13.5981C2.1918 13.681 2.1918 13.7596 2.1918 13.8426C2.1918 14.1831 2.12195 14.5149 1.97352 14.8205C1.24009 16.3179 0.847186 18.0161 0.886477 19.8147C1.02618 25.4115 5.59261 30.0739 11.185 30.3184C17.3711 30.5891 22.4657 25.6603 22.4657 19.5397C22.4657 17.6232 21.9637 15.8202 21.0906 14.266H21.0949ZM11.2068 26.6295C9.51294 26.433 8.09848 25.1059 7.81035 23.4295C7.64445 22.469 7.82345 21.561 8.24691 20.8057L8.29493 20.7272L8.34295 20.6442L10.7179 16.5318C11.1457 15.7896 12.2109 15.7896 12.6387 16.5274L15.0224 20.6617L15.1097 20.8057C15.4284 21.3733 15.6073 22.0281 15.6073 22.7266C15.6073 25.0535 13.5904 26.9045 11.2068 26.6295Z" fill="#FCCD06"/>
<path opacity="0.6" d="M8.98926 10.6425L10.7224 7.6084" stroke="white" stroke-width="3.16799" stroke-linecap="round" stroke-linejoin="round"/>
</g>
<defs>
<clipPath id="clip0_634_6573">
<rect width="21.5836" height="30.2101" fill="white" transform="translate(0.886719 0.117188)"/>
</clipPath>
</defs>
</svg>
