<svg width="32" height="32" viewBox="0 0 32 32" fill="none" xmlns="http://www.w3.org/2000/svg">
<mask id="mask0_423_7935" style="mask-type:luminance" maskUnits="userSpaceOnUse" x="1" y="1" width="30" height="31">
<path d="M16 31.0049C24.2843 31.0049 31 24.2892 31 16.0049C31 7.72061 24.2843 1.00488 16 1.00488C7.71573 1.00488 1 7.72061 1 16.0049C1 24.2892 7.71573 31.0049 16 31.0049Z" fill="white"/>
</mask>
<g mask="url(#mask0_423_7935)">
<path d="M1.51001 33.9849V5.06489C1.51001 -2.95511 8.04001 -9.48511 16.06 -9.48511C24.08 -9.48511 30.61 -2.95511 30.61 5.06489V33.9849H1.51001Z" fill="#7000FF"/>
<path d="M16.06 -8.98512C23.8 -8.98512 30.1 -2.68512 30.1 5.05488V33.4649H2.00999V5.06488C2.00999 -2.67512 8.31 -8.97512 16.05 -8.97512M16.05 -9.98512C7.73 -9.98512 0.98999 -3.24512 0.98999 5.07488V34.5049H31.11V5.06488C31.11 -3.25512 24.37 -9.99512 16.05 -9.99512V-9.98512Z" fill="#3A179D"/>
<path d="M24.48 6.13483C24.9439 6.13483 25.32 5.75875 25.32 5.29483C25.32 4.83091 24.9439 4.45483 24.48 4.45483C24.0161 4.45483 23.64 4.83091 23.64 5.29483C23.64 5.75875 24.0161 6.13483 24.48 6.13483Z" fill="#FEE702"/>
<path d="M26.32 7.57494C26.6679 7.57494 26.95 7.29288 26.95 6.94494C26.95 6.597 26.6679 6.31494 26.32 6.31494C25.9721 6.31494 25.69 6.597 25.69 6.94494C25.69 7.29288 25.9721 7.57494 26.32 7.57494Z" fill="#FEE702"/>
<path d="M26.66 5.36486C26.903 5.36486 27.1 5.16787 27.1 4.92486C27.1 4.68186 26.903 4.48486 26.66 4.48486C26.417 4.48486 26.22 4.68186 26.22 4.92486C26.22 5.16787 26.417 5.36486 26.66 5.36486Z" fill="#FEE702"/>
<path d="M4.66002 24.1148C5.12394 24.1148 5.50002 23.7387 5.50002 23.2748C5.50002 22.8109 5.12394 22.4348 4.66002 22.4348C4.1961 22.4348 3.82001 22.8109 3.82001 23.2748C3.82001 23.7387 4.1961 24.1148 4.66002 24.1148Z" fill="#2B147F"/>
<path d="M6.73997 25.2248C7.08791 25.2248 7.36998 24.9428 7.36998 24.5948C7.36998 24.2469 7.08791 23.9648 6.73997 23.9648C6.39204 23.9648 6.10999 24.2469 6.10999 24.5948C6.10999 24.9428 6.39204 25.2248 6.73997 25.2248Z" fill="#2B147F"/>
<path d="M4.89001 25.9149C5.13302 25.9149 5.33002 25.7179 5.33002 25.4749C5.33002 25.2319 5.13302 25.0349 4.89001 25.0349C4.64701 25.0349 4.45001 25.2319 4.45001 25.4749C4.45001 25.7179 4.64701 25.9149 4.89001 25.9149Z" fill="#2B147F"/>
<path d="M8.27 32.465V41.135C8.27 46.765 3.68999 51.335 -1.93001 51.335C-3.80001 51.335 -5.31 49.825 -5.31 47.955C-5.31 46.085 -3.80001 44.575 -1.93001 44.575C-0.060008 44.575 1.50999 43.035 1.50999 41.135V28.855" fill="#7000FF"/>
<path d="M-1.93001 51.845C-4.07001 51.845 -5.82001 50.105 -5.82001 47.955C-5.82001 45.805 -4.08001 44.065 -1.93001 44.065C-0.310008 44.065 1 42.745 1 41.135V28.855C1 28.575 1.22999 28.345 1.50999 28.345C1.78999 28.345 2.02 28.575 2.02 28.855V41.135C2.02 43.315 0.249992 45.085 -1.93001 45.085C-3.52001 45.085 -4.8 46.375 -4.8 47.955C-4.8 49.535 -3.51001 50.825 -1.93001 50.825C3.41999 50.825 7.77 46.475 7.77 41.125V32.455C7.77 32.175 8 31.945 8.28 31.945C8.56 31.945 8.78999 32.175 8.78999 32.455V41.125C8.78999 47.035 3.99 51.835 -1.92 51.835L-1.93001 51.845Z" fill="#3A179D"/>
<path d="M23.96 30.605V40.925C23.96 46.455 28.46 50.955 33.99 50.955C35.83 50.955 37.31 49.465 37.31 47.635C37.31 45.805 35.82 44.315 33.99 44.315C32.16 44.315 30.61 42.795 30.61 40.935V28.855" fill="#7000FF"/>
<path d="M33.99 51.465C28.18 51.465 23.45 46.7349 23.45 40.9249V30.6049C23.45 30.3249 23.68 30.095 23.96 30.095C24.24 30.095 24.47 30.3249 24.47 30.6049V40.9249C24.47 46.1749 28.74 50.445 33.99 50.445C35.54 50.445 36.81 49.1849 36.81 47.625C36.81 46.065 35.55 44.805 33.99 44.805C31.85 44.805 30.1 43.065 30.1 40.915V28.835C30.1 28.555 30.33 28.325 30.61 28.325C30.89 28.325 31.12 28.555 31.12 28.835V40.915C31.12 42.505 32.41 43.785 33.99 43.785C36.1 43.785 37.82 45.505 37.82 47.615C37.82 49.725 36.1 51.445 33.99 51.445V51.465Z" fill="#3A179D"/>
<path d="M20.62 30.605V40.925C20.62 46.455 25.12 50.955 30.65 50.955C32.49 50.955 33.97 49.465 33.97 47.635C33.97 45.805 32.48 44.315 30.65 44.315C28.82 44.315 27.27 42.795 27.27 40.935V28.855" fill="#7000FF"/>
<path d="M30.65 51.465C24.84 51.465 20.11 46.7349 20.11 40.9249V30.6049C20.11 30.3249 20.34 30.095 20.62 30.095C20.9 30.095 21.13 30.3249 21.13 30.6049V40.9249C21.13 46.1749 25.4 50.445 30.65 50.445C32.2 50.445 33.47 49.1849 33.47 47.625C33.47 46.065 32.21 44.805 30.65 44.805C28.51 44.805 26.76 43.065 26.76 40.915V28.835C26.76 28.555 26.99 28.325 27.27 28.325C27.55 28.325 27.78 28.555 27.78 28.835V40.915C27.78 42.505 29.07 43.785 30.65 43.785C32.76 43.785 34.48 45.505 34.48 47.615C34.48 49.725 32.76 51.445 30.65 51.445V51.465Z" fill="#3A179D"/>
<path d="M11.84 31.445V41.125C11.84 46.755 7.26001 51.325 1.64001 51.325C-0.229985 51.325 -1.73999 49.815 -1.73999 47.945C-1.73999 46.075 -0.229985 44.565 1.64001 44.565C3.51001 44.565 5.08002 43.025 5.08002 41.125V28.845" fill="#7000FF"/>
<path d="M1.62999 51.845C-0.51001 51.845 -2.26001 50.105 -2.26001 47.955C-2.26001 45.805 -0.52001 44.065 1.62999 44.065C3.24999 44.065 4.56 42.745 4.56 41.135V28.855C4.56 28.575 4.78999 28.345 5.06999 28.345C5.34999 28.345 5.58 28.575 5.58 28.855V41.135C5.58 43.315 3.80999 45.085 1.62999 45.085C0.0399895 45.085 -1.24001 46.375 -1.24001 47.955C-1.24001 49.535 0.0499897 50.825 1.62999 50.825C6.97999 50.825 11.33 46.475 11.33 41.125V31.445C11.33 31.165 11.56 30.935 11.84 30.935C12.12 30.935 12.35 31.165 12.35 31.445V41.125C12.35 47.035 7.55 51.835 1.64 51.835L1.62999 51.845Z" fill="#3A179D"/>
<path d="M21.39 8.3849C21.31 8.3849 21.22 8.3649 21.14 8.3149C20.9 8.1749 20.81 7.8749 20.94 7.6349C20.96 7.5849 21.56 6.5249 23.07 6.5249H23.08C24.82 6.5249 25.23 7.6549 25.25 7.7049L24.29 8.0449C24.29 8.0449 24.06 7.5449 23.07 7.5449C22.18 7.5449 21.84 8.1049 21.83 8.1249C21.73 8.2849 21.56 8.3749 21.39 8.3749V8.3849Z" fill="#3A179D"/>
<path d="M7.77001 8.46498C7.69001 8.46498 7.60001 8.44498 7.52001 8.39498C7.28001 8.25498 7.18999 7.95498 7.31999 7.71498C7.33999 7.66498 7.94 6.60498 9.45 6.60498H9.45999C11.2 6.60498 11.61 7.73498 11.63 7.78498L10.67 8.12498C10.67 8.12498 10.44 7.62498 9.45 7.62498C8.56 7.62498 8.21999 8.18498 8.20999 8.20498C8.10999 8.36498 7.94001 8.45498 7.77001 8.45498V8.46498Z" fill="#3A179D"/>
<path d="M16.08 25.1549C14.78 25.1549 13.72 24.0949 13.72 22.7949C13.72 22.5149 13.95 22.2849 14.23 22.2849C14.51 22.2849 14.74 22.5149 14.74 22.7949C14.74 23.5349 15.34 24.1349 16.08 24.1349C16.82 24.1349 17.42 23.5349 17.42 22.7949C17.42 22.5149 17.65 22.2849 17.93 22.2849C18.21 22.2849 18.44 22.5149 18.44 22.7949C18.44 24.0949 17.38 25.1549 16.08 25.1549Z" fill="#3A179D"/>
<path d="M4.60999 14.4048V18.3548C4.60999 20.8048 6.58998 22.7848 9.03998 22.7848C11.49 22.7848 13.47 20.8048 13.47 18.3548V14.4048" fill="white"/>
<path d="M9.03998 23.2948C6.31998 23.2948 4.09998 21.0748 4.09998 18.3548V14.4048C4.09998 14.1248 4.32999 13.8948 4.60999 13.8948C4.88999 13.8948 5.11998 14.1248 5.11998 14.4048V18.3548C5.11998 20.5148 6.87999 22.2848 9.04999 22.2848C11.22 22.2848 12.98 20.5248 12.98 18.3548V14.4048C12.98 14.1248 13.21 13.8948 13.49 13.8948C13.77 13.8948 14 14.1248 14 14.4048V18.3548C14 21.0748 11.78 23.2948 9.05998 23.2948H9.03998Z" fill="#3A179D"/>
<path d="M13.47 14.4049C13.47 11.9549 11.49 9.97485 9.03998 9.97485C6.58998 9.97485 4.60999 11.9549 4.60999 14.4049" fill="white"/>
<path d="M13.47 14.9148C13.19 14.9148 12.96 14.6848 12.96 14.4048C12.96 12.2448 11.2 10.4748 9.03001 10.4748C6.86001 10.4748 5.10001 12.2348 5.10001 14.4048C5.10001 14.6848 4.87001 14.9148 4.59001 14.9148C4.31001 14.9148 4.08002 14.6848 4.08002 14.4048C4.08002 11.6848 6.30002 9.46484 9.02002 9.46484C11.74 9.46484 13.96 11.6848 13.96 14.4048C13.96 14.6848 13.73 14.9148 13.45 14.9148H13.47Z" fill="#3A179D"/>
<path d="M9.22003 13.2549H8.86003C8.0537 13.2549 7.40002 13.9085 7.40002 14.7149V17.7349C7.40002 18.5412 8.0537 19.1949 8.86003 19.1949H9.22003C10.0264 19.1949 10.68 18.5412 10.68 17.7349V14.7149C10.68 13.9085 10.0264 13.2549 9.22003 13.2549Z" fill="#1C1C1C"/>
<path d="M9.73004 14.7649C10.2105 14.7649 10.6 14.3754 10.6 13.8949C10.6 13.4144 10.2105 13.0249 9.73004 13.0249C9.24955 13.0249 8.86005 13.4144 8.86005 13.8949C8.86005 14.3754 9.24955 14.7649 9.73004 14.7649Z" fill="white"/>
<path d="M23.56 9.97485H22.58C20.404 9.97485 18.64 11.7389 18.64 13.9149V18.8449C18.64 21.0209 20.404 22.7849 22.58 22.7849H23.56C25.736 22.7849 27.5 21.0209 27.5 18.8449V13.9149C27.5 11.7389 25.736 9.97485 23.56 9.97485Z" fill="white"/>
<path d="M23.08 23.2948C20.36 23.2948 18.14 21.0748 18.14 18.3548V14.4048C18.14 11.6848 20.36 9.46484 23.08 9.46484C25.8 9.46484 28.02 11.6848 28.02 14.4048V18.3548C28.02 21.0748 25.8 23.2948 23.08 23.2948ZM23.08 10.4848C20.92 10.4848 19.15 12.2448 19.15 14.4148V18.3648C19.15 20.5248 20.91 22.2948 23.08 22.2948C25.25 22.2948 27.01 20.5348 27.01 18.3648V14.4148C27.01 12.2548 25.25 10.4848 23.08 10.4848Z" fill="#3A179D"/>
<path d="M23.26 13.2549H22.9C22.0937 13.2549 21.44 13.9085 21.44 14.7149V17.7349C21.44 18.5412 22.0937 19.1949 22.9 19.1949H23.26C24.0663 19.1949 24.72 18.5412 24.72 17.7349V14.7149C24.72 13.9085 24.0663 13.2549 23.26 13.2549Z" fill="#1C1C1C"/>
<path d="M23.76 14.7649C24.2405 14.7649 24.63 14.3754 24.63 13.8949C24.63 13.4144 24.2405 13.0249 23.76 13.0249C23.2795 13.0249 22.89 13.4144 22.89 13.8949C22.89 14.3754 23.2795 14.7649 23.76 14.7649Z" fill="white"/>
</g>
<path d="M16 31.0049C24.2843 31.0049 31 24.2892 31 16.0049C31 7.72061 24.2843 1.00488 16 1.00488C7.71573 1.00488 1 7.72061 1 16.0049C1 24.2892 7.71573 31.0049 16 31.0049Z" stroke="#3A179D" stroke-width="1.5" stroke-miterlimit="10"/>
</svg>
