<svg width="24" height="33" viewBox="0 0 24 33" fill="none" xmlns="http://www.w3.org/2000/svg">
<path d="M11.7452 0C5.2618 0 -0.00143814 5.302 -0.00143814 11.8332V29.3824C-0.00143814 31.0738 1.36969 32.4449 3.06106 32.4449H20.4307C22.122 32.4449 23.4932 31.0738 23.4932 29.3824L23.4932 11.8345C23.4932 5.30333 18.2286 0 11.7452 0Z" fill="#7000FF"/>
<path fill-rule="evenodd" clip-rule="evenodd" d="M1.11735 11.8332C1.11735 5.91214 5.88741 1.11879 11.7452 1.11879C17.603 1.11879 22.3744 5.91346 22.3744 11.8345V28.2636C22.3744 29.955 21.0032 31.3261 19.3119 31.3261H4.17986C2.48848 31.3261 1.11735 29.955 1.11735 28.2636V11.8332ZM-0.00143814 11.8332C-0.00143814 5.302 5.2618 0 11.7452 0C18.2286 0 23.4932 5.30333 23.4932 11.8345V29.3824C23.4932 31.0738 22.122 32.4449 20.4307 32.4449H3.06107C1.36969 32.4449 -0.00143814 31.0738 -0.00143814 29.3824V11.8332Z" fill="#3C008A"/>
<path d="M6.97794 23.8359C8.75033 23.8359 10.1934 22.3944 10.1934 20.622V17.4967C10.1934 15.7243 8.75181 14.2812 6.97794 14.2812C5.20406 14.2812 3.76399 15.7228 3.76399 17.4967V20.622C3.76399 22.3944 5.20554 23.8359 6.97794 23.8359Z" fill="white"/>
<path fill-rule="evenodd" clip-rule="evenodd" d="M6.97817 24.5816C9.16205 24.5816 10.9395 22.8065 10.9395 20.6218V17.4964C10.9395 15.3123 9.16419 13.5352 6.97817 13.5352C4.79192 13.5352 3.01836 15.3111 3.01836 17.4964V20.6218C3.01836 22.8061 4.79385 24.5816 6.97817 24.5816ZM10.1936 20.6218C10.1936 22.3942 8.75057 23.8357 6.97817 23.8357C5.20577 23.8357 3.76422 22.3942 3.76422 20.6218V17.4964C3.76422 15.7226 5.2043 14.281 6.97817 14.281C8.75204 14.281 10.1936 15.724 10.1936 17.4964V20.6218Z" fill="#3C008A"/>
<path d="M6.97793 14.5762C5.36801 14.5762 4.05938 15.8862 4.05938 17.4947V20.62C4.05938 22.23 5.36948 23.5386 6.97941 23.5386C8.58934 23.5386 9.89944 22.2285 9.89944 20.62V17.4947C9.89944 15.8848 8.58934 14.5762 6.97941 14.5762M6.97941 13.9854C8.91723 13.9854 10.4902 15.5569 10.4902 17.4947V20.62C10.4902 22.5593 8.91871 24.1294 6.97941 24.1294C5.04159 24.1294 3.47006 22.5578 3.47006 20.62V17.4947C3.47006 15.5554 5.04159 13.9854 6.97941 13.9854Z" fill="#3C008A"/>
<path d="M5.67881 17.0146C5.67881 16.2968 6.26073 15.7148 6.97856 15.7148C7.6964 15.7148 8.27832 16.2968 8.27832 17.0146V19.1178C8.27832 19.8357 7.6964 20.4176 6.97856 20.4176C6.26073 20.4176 5.67881 19.8357 5.67881 19.1178V17.0146Z" fill="#1C1C1C"/>
<path d="M5.74941 16.2215C5.74941 15.8419 6.05811 15.5332 6.43769 15.5332C6.81728 15.5332 7.12598 15.8419 7.12598 16.2215C7.12598 16.6011 6.81728 16.9098 6.43769 16.9098C6.05811 16.9098 5.74941 16.6011 5.74941 16.2215Z" fill="white"/>
<path fill-rule="evenodd" clip-rule="evenodd" d="M8.01675 12.0632C8.16777 12.3268 8.50269 12.4222 8.77044 12.2757C9.0415 12.1275 9.14106 11.7876 8.99281 11.5165L8.50202 11.785C8.99281 11.5165 8.99267 11.5163 8.99252 11.516L8.99221 11.5154L8.99156 11.5143L8.99016 11.5117L8.98688 11.5059C8.98449 11.5017 8.98167 11.4969 8.97842 11.4914C8.97193 11.4805 8.9637 11.4672 8.95364 11.4517C8.93355 11.4208 8.90599 11.3813 8.87032 11.3361C8.79924 11.2461 8.69409 11.1313 8.54945 11.018C8.25424 10.7867 7.80759 10.5727 7.19278 10.5752M8.01675 12.0632C8.01653 12.0629 8.01626 12.0625 8.01595 12.062C8.01276 12.0571 8.00494 12.0455 7.99223 12.0294C7.96656 11.9969 7.92292 11.9484 7.85943 11.8986C7.73842 11.8038 7.53155 11.6926 7.19711 11.694L7.19683 11.694C6.77768 11.6955 6.58081 11.8179 6.49728 11.8885C6.45096 11.9276 6.42525 11.963 6.41341 11.9818C6.41031 11.9868 6.40818 11.9905 6.40693 11.9928C6.29634 12.2697 5.98599 12.4125 5.70208 12.3127C5.41062 12.2102 5.2574 11.8909 5.35985 11.5994L5.88759 11.785C5.35985 11.5994 5.35999 11.5991 5.36012 11.5987L5.3604 11.5979L5.36098 11.5963L5.36223 11.5928L5.36509 11.5851C5.36715 11.5797 5.36955 11.5735 5.3723 11.5668C5.3778 11.5533 5.38474 11.5372 5.39332 11.519C5.41046 11.4825 5.43431 11.4371 5.46653 11.3859C5.53104 11.2834 5.62964 11.1569 5.77513 11.034C6.07516 10.7804 6.53181 10.5777 7.1925 10.5752" fill="#3C008A"/>
<path d="M16.807 23.835C18.5794 23.835 20.0225 22.3934 20.0225 20.621V17.4957C20.0225 15.7233 18.5809 14.2803 16.807 14.2803C15.0332 14.2803 13.5931 15.7218 13.5931 17.4957V20.621C13.5931 22.3934 15.0346 23.835 16.807 23.835Z" fill="white"/>
<path fill-rule="evenodd" clip-rule="evenodd" d="M16.8073 24.5806C18.9912 24.5806 20.7686 22.8056 20.7686 20.6208V17.4955C20.7686 15.3114 18.9933 13.5342 16.8073 13.5342C14.621 13.5342 12.8475 15.3101 12.8475 17.4955V20.6208C12.8475 22.8051 14.6229 24.5806 16.8073 24.5806ZM20.0227 20.6208C20.0227 22.3932 18.5797 23.8347 16.8073 23.8347C15.0349 23.8347 13.5933 22.3932 13.5933 20.6208V17.4955C13.5933 15.7216 15.0334 14.28 16.8073 14.28C18.5811 14.28 20.0227 15.7231 20.0227 17.4955V20.6208Z" fill="#3C008A"/>
<path d="M16.808 14.5752C15.1981 14.5752 13.8895 15.8853 13.8895 17.4937V20.619C13.8895 22.229 15.1996 23.5376 16.8095 23.5376C18.4194 23.5376 19.7295 22.2275 19.7295 20.619V17.4937C19.7295 15.8838 18.4194 14.5752 16.8095 14.5752M16.8095 13.9844C18.7473 13.9844 20.3203 15.5559 20.3203 17.4937V20.619C20.3203 22.5583 18.7488 24.1284 16.8095 24.1284C14.8717 24.1284 13.3001 22.5569 13.3001 20.619V17.4937C13.3001 15.5544 14.8717 13.9844 16.8095 13.9844Z" fill="#3C008A"/>
<path d="M15.5069 17.0136C15.5069 16.2958 16.0889 15.7139 16.8067 15.7139C17.5245 15.7139 18.1064 16.2958 18.1064 17.0136V19.1169C18.1064 19.8347 17.5245 20.4166 16.8067 20.4166C16.0889 20.4166 15.5069 19.8347 15.5069 19.1169V17.0136Z" fill="#1C1C1C"/>
<path d="M15.5775 16.2205C15.5775 15.8409 15.8862 15.5322 16.2658 15.5322C16.6454 15.5322 16.9541 15.8409 16.9541 16.2205C16.9541 16.6001 16.6454 16.9088 16.2658 16.9088C15.8862 16.9088 15.5775 16.6001 15.5775 16.2205Z" fill="white"/>
<path fill-rule="evenodd" clip-rule="evenodd" d="M17.4582 11.9441C17.6092 12.2077 17.9441 12.303 18.2118 12.1566C18.4829 12.0084 18.5825 11.6685 18.4342 11.3974L17.9434 11.6658C18.4342 11.3974 18.4341 11.3971 18.4339 11.3968L18.4336 11.3963L18.433 11.3951L18.4316 11.3926L18.4283 11.3868C18.4259 11.3826 18.4231 11.3777 18.4198 11.3723C18.4133 11.3614 18.4051 11.348 18.395 11.3326C18.375 11.3017 18.3474 11.2622 18.3117 11.217C18.2406 11.127 18.1355 11.0122 17.9909 10.8988C17.6956 10.6675 17.249 10.4536 16.6342 10.4561M17.4582 11.9441C17.4579 11.9437 17.4577 11.9433 17.4574 11.9428C17.4542 11.9379 17.4464 11.9264 17.4336 11.9103C17.408 11.8778 17.3643 11.8292 17.3008 11.7795C17.1798 11.6847 16.973 11.5735 16.6385 11.5749L16.6382 11.5749C16.2191 11.5764 16.0222 11.6988 15.9387 11.7694C15.8924 11.8085 15.8667 11.8439 15.8548 11.8627C15.8517 11.8676 15.8496 11.8714 15.8483 11.8737C15.7377 12.1506 15.4274 12.2933 15.1435 12.1936C14.852 12.0911 14.6988 11.7718 14.8013 11.4803L15.329 11.6658C14.8013 11.4803 14.8014 11.4799 14.8015 11.4795L14.8018 11.4787L14.8024 11.4771L14.8036 11.4737L14.8065 11.466C14.8086 11.4605 14.811 11.4544 14.8137 11.4476C14.8192 11.4341 14.8261 11.418 14.8347 11.3998C14.8519 11.3634 14.8757 11.318 14.9079 11.2668C14.9724 11.1643 15.071 11.0378 15.2165 10.9149C15.5166 10.6613 15.9732 10.4585 16.6339 10.4561" fill="#3C008A"/>
<path fill-rule="evenodd" clip-rule="evenodd" d="M10.8622 26.3401C10.7111 26.0765 10.3762 25.9811 10.1085 26.1276C9.83741 26.2758 9.73785 26.6157 9.88609 26.8868L10.3769 26.6184C9.88609 26.8868 9.88624 26.8871 9.88639 26.8873L9.8867 26.8879L9.88734 26.8891L9.88875 26.8916L9.89203 26.8974C9.89442 26.9016 9.89724 26.9064 9.90048 26.9119C9.90697 26.9228 9.91521 26.9362 9.92527 26.9516C9.94536 26.9825 9.97291 27.022 10.0086 27.0672C10.0797 27.1572 10.1848 27.272 10.3295 27.3853C10.6247 27.6166 11.0713 27.8306 11.6861 27.8281M10.8622 26.3401C10.8624 26.3404 10.8626 26.3409 10.863 26.3413C10.8661 26.3462 10.874 26.3578 10.8867 26.3739C10.9123 26.4064 10.956 26.4549 11.0195 26.5047C11.1405 26.5995 11.3474 26.7107 11.6818 26.7093L11.6821 26.7093C12.1012 26.7078 12.2981 26.5854 12.3816 26.5148C12.4279 26.4757 12.4537 26.4403 12.4655 26.4215C12.4686 26.4165 12.4707 26.4128 12.472 26.4105C12.5826 26.1336 12.8929 25.9908 13.1768 26.0906C13.4683 26.1931 13.6215 26.5124 13.5191 26.8039L12.9913 26.6184C13.5191 26.8039 13.5189 26.8043 13.5188 26.8046L13.5185 26.8054L13.5179 26.8071L13.5167 26.8105L13.5138 26.8182C13.5118 26.8237 13.5094 26.8298 13.5066 26.8366C13.5011 26.8501 13.4942 26.8661 13.4856 26.8844C13.4684 26.9208 13.4446 26.9662 13.4124 27.0174C13.3479 27.1199 13.2493 27.2464 13.1038 27.3693C12.8037 27.6229 12.3471 27.8256 11.6864 27.8281" fill="#3C008A"/>
</svg>
