<svg width="29" height="28" viewBox="0 0 29 28" fill="none" xmlns="http://www.w3.org/2000/svg">
<path d="M2.88525 25.5049L8.37525 16.0049L10.8353 20.2549L18.2653 7.40488L20.7253 11.6649L26.0253 2.50488" stroke="#7000FF" stroke-width="2" stroke-linecap="round" stroke-linejoin="round"/>
<path d="M2.9552 28.0049C4.33591 28.0049 5.4552 26.8856 5.4552 25.5049C5.4552 24.1242 4.33591 23.0049 2.9552 23.0049C1.57449 23.0049 0.4552 24.1242 0.4552 25.5049C0.4552 26.8856 1.57449 28.0049 2.9552 28.0049Z" fill="#221160"/>
<path d="M25.9552 5.00488C27.3359 5.00488 28.4552 3.88559 28.4552 2.50488C28.4552 1.12417 27.3359 0.00488281 25.9552 0.00488281C24.5745 0.00488281 23.4552 1.12417 23.4552 2.50488C23.4552 3.88559 24.5745 5.00488 25.9552 5.00488Z" fill="#221160"/>
</svg>
