<svg width="30" height="27" viewBox="0 0 30 27" fill="none" xmlns="http://www.w3.org/2000/svg">
<path d="M1.89551 24.0892L4.50892 17.1766C4.65839 16.7813 5.18864 16.713 5.43332 17.0577L6.9287 19.1638C7.15236 19.4789 7.62752 19.4549 7.81833 19.1189L11.0285 13.4671C11.2309 13.1108 11.7444 13.1108 11.9468 13.4671L15.0124 18.8644C15.233 19.2528 15.8064 19.2088 15.9651 18.7911L19.8224 8.63865C19.9685 8.25407 20.4789 8.17695 20.7321 8.50119L23.1424 11.5873C23.3967 11.9129 23.9096 11.8335 24.0535 11.4461L27.4809 2.21772" stroke="#FF4C4C" stroke-width="2.11199" stroke-linecap="round" stroke-linejoin="round"/>
<circle cx="1.89626" cy="24.3308" r="1.89821" fill="#FF4C4C"/>
<circle cx="27.3162" cy="2.11501" r="1.89821" fill="#FF4C4C"/>
</svg>
