<svg width="88" height="111" viewBox="0 0 88 111" fill="none" xmlns="http://www.w3.org/2000/svg">
<ellipse cx="35.561" cy="5.74219" rx="35.561" ry="5.74219" transform="matrix(-1 0 0 1 82.6222 98.5986)" fill="#CFCFCF"/>
<path d="M55.8344 73.8789V89.5916C55.8344 96.7889 49.9792 102.644 42.7819 102.644C40.3923 102.644 38.456 100.708 38.456 98.3181C38.456 95.9286 40.3923 93.9923 42.7819 93.9923C45.2089 93.9923 47.1826 92.0186 47.1826 89.5916V73.8789" fill="#7000FF"/>
<path fill-rule="evenodd" clip-rule="evenodd" d="M55.8337 72.936C55.3132 72.936 54.8912 73.358 54.8912 73.8786V89.5912C54.8912 96.268 49.458 101.701 42.7813 101.701C40.9122 101.701 39.3979 100.187 39.3979 98.3178C39.3979 96.4488 40.9122 94.9345 42.7813 94.9345C45.7288 94.9345 48.1245 92.5388 48.1245 89.5912V73.8786C48.1245 73.358 47.7025 72.936 47.182 72.936C46.6614 72.936 46.2394 73.358 46.2394 73.8786V89.5912C46.2394 91.4977 44.6877 93.0494 42.7813 93.0494C39.8711 93.0494 37.5129 95.4077 37.5129 98.3178C37.5129 101.228 39.8711 103.586 42.7813 103.586C50.4991 103.586 56.7762 97.3091 56.7762 89.5912V73.8786C56.7762 73.358 56.3543 72.936 55.8337 72.936Z" fill="#3C008A"/>
<path d="M59.2031 83.9658L74.0184 78.7317C80.8046 76.3341 84.3749 68.863 81.9773 62.0767C81.1813 59.8236 78.7106 58.6429 76.4575 59.4389C74.2044 60.2349 73.0237 62.7057 73.8197 64.9587C74.6282 67.2471 73.4247 69.7656 71.1363 70.574L56.3211 75.8082" fill="#7000FF"/>
<path fill-rule="evenodd" clip-rule="evenodd" d="M55.4323 76.1232C55.2589 75.6324 55.5162 75.094 56.007 74.9206L70.8222 69.6864C72.6198 69.0513 73.566 67.0713 72.9309 65.2738C71.9615 62.5299 73.3995 59.5207 76.1434 58.5513C78.8873 57.5819 81.8965 59.0199 82.8659 61.7638C85.4369 69.0409 81.6093 77.0505 74.3322 79.6214L59.517 84.8556L58.889 83.0782L73.7043 77.844C79.9997 75.6199 83.3127 68.6872 81.0885 62.3917C80.4659 60.6295 78.5336 59.7061 76.7714 60.3287C75.0091 60.9513 74.0857 62.8836 74.7083 64.6458C75.6902 67.425 74.2294 70.4819 71.4502 71.4638L56.6349 76.698C56.1441 76.8714 55.6057 76.6141 55.4323 76.1232Z" fill="#3C008A"/>
<path d="M44.0735 25.2163C54.9974 25.2163 63.8655 34.1497 63.8655 45.1541V79.8831H24.2792L24.2792 45.1564C24.2792 34.1519 33.1495 25.2163 44.0735 25.2163Z" fill="#7000FF"/>
<path d="M34.0138 42.1875C35.0475 42.1875 35.8853 41.3496 35.8853 40.316C35.8853 39.2824 35.0475 38.4445 34.0138 38.4445C32.9802 38.4445 32.1423 39.2824 32.1423 40.316C32.1423 41.3496 32.9802 42.1875 34.0138 42.1875Z" fill="#FEE702"/>
<path d="M38.7381 40.5418C39.5122 40.5418 40.1398 39.9142 40.1398 39.14C40.1398 38.3659 39.5122 37.7383 38.7381 37.7383C37.9639 37.7383 37.3363 38.3659 37.3363 39.14C37.3363 39.9142 37.9639 40.5418 38.7381 40.5418Z" fill="#FEE702"/>
<path d="M36.2086 36.6181C36.7544 36.6181 37.197 36.1756 37.197 35.6297C37.197 35.0839 36.7544 34.6414 36.2086 34.6414C35.6627 34.6414 35.2202 35.0839 35.2202 35.6297C35.2202 36.1756 35.6627 36.6181 36.2086 36.6181Z" fill="#FEE702"/>
<path fill-rule="evenodd" clip-rule="evenodd" d="M61.9804 45.1541C61.9804 35.1777 53.9433 27.1014 44.0735 27.1014C34.2036 27.1014 26.1642 35.18 26.1642 45.1564V77.9981H61.9804V45.1541ZM63.8655 45.1541C63.8655 34.1497 54.9974 25.2163 44.0735 25.2163C33.1495 25.2163 24.2792 34.1519 24.2792 45.1564V79.8831H63.8655V45.1541Z" fill="#3C008A"/>
<path d="M62.2556 65.3757C59.2693 65.3757 56.8379 62.9468 56.8379 59.9605V54.6946C56.8379 51.7082 59.2668 49.2769 62.2556 49.2769C65.2444 49.2769 67.6708 51.7057 67.6708 54.6946V59.9605C67.6708 62.9468 65.2419 65.3757 62.2556 65.3757Z" fill="white"/>
<path fill-rule="evenodd" clip-rule="evenodd" d="M62.2553 66.6328C58.5757 66.6328 55.5809 63.642 55.5809 59.9608V54.6949C55.5809 51.0149 58.5721 48.0205 62.2553 48.0205C65.939 48.0205 68.9273 51.0128 68.9273 54.6949V59.9608C68.9273 63.6412 65.9357 66.6328 62.2553 66.6328ZM56.8376 59.9608C56.8376 62.9472 59.269 65.376 62.2553 65.376C65.2417 65.376 67.6706 62.9472 67.6706 59.9608V54.6949C67.6706 51.7061 65.2442 49.2772 62.2553 49.2772C59.2665 49.2772 56.8376 51.7086 56.8376 54.6949V59.9608Z" fill="#3C008A"/>
<path d="M62.2557 49.7747C64.9683 49.7747 67.1732 51.9821 67.1732 54.6922V59.9581C67.1732 62.6707 64.9658 64.8756 62.2532 64.8756C59.5406 64.8756 57.3332 62.6682 57.3332 59.9581V54.6922C57.3332 51.9796 59.5406 49.7747 62.2532 49.7747M62.2532 48.7793C58.9881 48.7793 56.3378 51.4272 56.3378 54.6922V59.9581C56.3378 63.2257 58.9856 65.8711 62.2532 65.8711C65.5183 65.8711 68.1661 63.2232 68.1661 59.9581V54.6922C68.1661 51.4247 65.5183 48.7793 62.2532 48.7793Z" fill="#3C008A"/>
<path d="M64.4454 53.8838C64.4454 52.6743 63.4649 51.6938 62.2554 51.6938C61.0459 51.6938 60.0654 52.6743 60.0654 53.8838V57.4276C60.0654 58.6371 61.0459 59.6176 62.2554 59.6176C63.4649 59.6176 64.4454 58.6371 64.4454 57.4276V53.8838Z" fill="#1C1C1C"/>
<path d="M64.3263 52.5476C64.3263 51.9081 63.8062 51.3879 63.1667 51.3879C62.5271 51.3879 62.007 51.9081 62.007 52.5476C62.007 53.1872 62.5271 53.7073 63.1667 53.7073C63.8062 53.7073 64.3263 53.1872 64.3263 52.5476Z" fill="white"/>
<path d="M45.9094 65.3757C42.9231 65.3757 40.4917 62.9468 40.4917 59.9605V54.6946C40.4917 51.7082 42.9206 49.2769 45.9094 49.2769C48.8982 49.2769 51.3246 51.7057 51.3246 54.6946V59.9605C51.3246 62.9468 48.8957 65.3757 45.9094 65.3757Z" fill="white"/>
<path fill-rule="evenodd" clip-rule="evenodd" d="M45.9106 66.6328C42.231 66.6328 39.2362 63.642 39.2362 59.9608V54.6949C39.2362 51.0149 42.2274 48.0205 45.9106 48.0205C49.5943 48.0205 52.5825 51.0128 52.5825 54.6949V59.9608C52.5825 63.6412 49.591 66.6328 45.9106 66.6328ZM40.4929 59.9608C40.4929 62.9472 42.9243 65.376 45.9106 65.376C48.897 65.376 51.3258 62.9472 51.3258 59.9608V54.6949C51.3258 51.7061 48.8994 49.2772 45.9106 49.2772C42.9218 49.2772 40.4929 51.7086 40.4929 54.6949V59.9608Z" fill="#3C008A"/>
<path d="M45.9101 49.7747C48.6227 49.7747 50.8276 51.9821 50.8276 54.6922V59.9581C50.8276 62.6707 48.6202 64.8756 45.9076 64.8756C43.195 64.8756 40.9876 62.6682 40.9876 59.9581V54.6922C40.9876 51.9796 43.195 49.7747 45.9076 49.7747M45.9076 48.7793C42.6426 48.7793 39.9922 51.4272 39.9922 54.6922V59.9581C39.9922 63.2257 42.6401 65.8711 45.9076 65.8711C49.1727 65.8711 51.8206 63.2232 51.8206 59.9581V54.6922C51.8206 51.4247 49.1727 48.7793 45.9076 48.7793Z" fill="#3C008A"/>
<path d="M48.1004 53.8838C48.1004 52.6743 47.1199 51.6938 45.9104 51.6938C44.7009 51.6938 43.7205 52.6743 43.7205 53.8838V57.4276C43.7205 58.6371 44.7009 59.6176 45.9104 59.6176C47.1199 59.6176 48.1004 58.6371 48.1004 57.4276V53.8838Z" fill="#1C1C1C"/>
<path d="M47.9808 52.5476C47.9808 51.9081 47.4606 51.3879 46.8211 51.3879C46.1815 51.3879 45.6614 51.9081 45.6614 52.5476C45.6614 53.1872 46.1815 53.7073 46.8211 53.7073C47.4606 53.7073 47.9808 53.1872 47.9808 52.5476Z" fill="white"/>
<path fill-rule="evenodd" clip-rule="evenodd" d="M60.2439 43.3454C59.8015 43.6028 59.2325 43.4598 58.9651 43.0206C58.6945 42.5759 58.8356 41.996 59.2802 41.7254L59.7703 42.5305C59.2802 41.7254 59.2807 41.7251 59.2811 41.7249L59.2821 41.7243L59.284 41.7231L59.2882 41.7206L59.2978 41.7149C59.3049 41.7108 59.3131 41.7061 59.3224 41.7009C59.3411 41.6905 59.3643 41.6779 59.392 41.6638C59.4473 41.6357 59.5208 41.6012 59.611 41.5654C59.7905 41.4939 60.0407 41.415 60.3472 41.3714C60.9728 41.2826 61.8048 41.3468 62.6998 41.8683M60.2439 43.3454C60.2445 43.3451 60.2453 43.3447 60.2461 43.3443C60.2549 43.3398 60.2761 43.3295 60.3082 43.3168C60.373 43.2909 60.4776 43.2569 60.6121 43.2378C60.8686 43.2014 61.2641 43.2134 61.751 43.4972L61.7514 43.4974C62.3617 43.8527 62.5459 44.1972 62.6083 44.3706C62.6429 44.4667 62.6506 44.54 62.652 44.5774C62.6524 44.5872 62.6524 44.5945 62.6522 44.5989C62.5804 45.0961 62.9129 45.5659 63.4113 45.6594C63.9229 45.7555 64.4155 45.4186 64.5115 44.907L63.5852 44.7331C64.5115 44.907 64.5117 44.9063 64.5118 44.9056L64.512 44.9043L64.5126 44.9014L64.5137 44.8953L64.516 44.8817C64.5175 44.872 64.5192 44.861 64.5209 44.8488C64.5243 44.8245 64.5277 44.7952 64.5305 44.7614C64.5362 44.6938 64.5396 44.6074 64.5357 44.5056C64.528 44.3016 64.4906 44.034 64.3819 43.7321C64.1577 43.1093 63.6622 42.4287 62.7002 41.8686" fill="#3C008A"/>
<path fill-rule="evenodd" clip-rule="evenodd" d="M45.2375 45.5597C45.2392 46.0715 44.8308 46.4928 44.3167 46.5047C43.7963 46.5168 43.3647 46.1047 43.3526 45.5842L44.2949 45.5624C43.3526 45.5843 43.3526 45.5837 43.3526 45.5832L43.3526 45.5821L43.3526 45.5799L43.3525 45.575L43.3524 45.5638C43.3523 45.5556 43.3523 45.5462 43.3525 45.5355C43.3528 45.5141 43.3535 45.4877 43.3552 45.4566C43.3585 45.3947 43.3654 45.3138 43.3794 45.2178C43.4073 45.0266 43.464 44.7705 43.5796 44.4833C43.8155 43.897 44.287 43.2086 45.1862 42.6942M45.2375 45.5597C45.2375 45.559 45.2375 45.5582 45.2376 45.5572C45.2381 45.5474 45.2398 45.5239 45.2448 45.4897C45.2548 45.4206 45.2776 45.3131 45.3284 45.187C45.4251 44.9467 45.6332 44.6101 46.1224 44.3304L46.1228 44.3302C46.7357 43.9793 47.1261 43.992 47.3074 44.0246C47.408 44.0427 47.4753 44.0727 47.5084 44.0902C47.5171 44.0948 47.5234 44.0985 47.5272 44.1008C47.9218 44.4116 48.4949 44.3585 48.8251 43.9737C49.1641 43.5786 49.1187 42.9836 48.7236 42.6446L48.1098 43.3599C48.7236 42.6446 48.7231 42.6442 48.7226 42.6437L48.7215 42.6428L48.7193 42.6409L48.7146 42.6369L48.7039 42.6281C48.6963 42.6219 48.6876 42.615 48.6779 42.6074C48.6585 42.5923 48.6349 42.5747 48.607 42.5554C48.5513 42.5167 48.4782 42.4705 48.3881 42.4229C48.2076 42.3277 47.9572 42.2262 47.6413 42.1694C46.9899 42.0522 46.1527 42.141 45.1866 42.694" fill="#3C008A"/>
<path fill-rule="evenodd" clip-rule="evenodd" d="M55.5304 67.1067C55.7849 66.6626 56.3492 66.5019 56.8003 66.7486C57.257 66.9984 57.4248 67.5711 57.175 68.0278L56.3481 67.5756C57.175 68.0278 57.1748 68.0283 57.1745 68.0287L57.174 68.0297L57.1729 68.0316L57.1705 68.0359L57.165 68.0457C57.161 68.0528 57.1562 68.0609 57.1508 68.0701C57.1398 68.0885 57.1259 68.111 57.109 68.137C57.0751 68.189 57.0287 68.2556 56.9686 68.3318C56.8488 68.4835 56.6717 68.6769 56.428 68.8678C55.9306 69.2576 55.178 69.618 54.1421 69.6139M55.5304 67.1067C55.5301 67.1073 55.5296 67.108 55.5291 67.1088C55.5237 67.117 55.5105 67.1365 55.4891 67.1636C55.4459 67.2184 55.3723 67.3002 55.2653 67.384C55.0615 67.5438 54.7129 67.7311 54.1494 67.7288L54.1489 67.7288C53.4427 67.7262 53.111 67.52 52.9702 67.4011C52.8922 67.3351 52.8489 67.2755 52.8289 67.2438C52.8237 67.2355 52.8201 67.2292 52.818 67.2253C52.6317 66.7588 52.1088 66.5182 51.6304 66.6864C51.1393 66.859 50.8812 67.397 51.0538 67.8881L51.943 67.5756C51.0538 67.8881 51.054 67.8888 51.0542 67.8894L51.0547 67.8908L51.0557 67.8935L51.0578 67.8993L51.0626 67.9123C51.0661 67.9215 51.0701 67.9318 51.0748 67.9432C51.084 67.966 51.0957 67.993 51.1102 68.0237C51.1391 68.0851 51.1792 68.1616 51.2335 68.2479C51.3422 68.4206 51.5083 68.6337 51.7535 68.8409C52.259 69.2681 53.0284 69.6097 54.1416 69.6139" fill="#3C008A"/>
<path d="M54.1454 74.6333V90.346C54.1454 97.5433 60.0005 103.398 67.1978 103.398C69.5874 103.398 71.5237 101.462 71.5237 99.0725C71.5237 96.683 69.5874 94.7467 67.1978 94.7467C64.7709 94.7467 62.7971 92.7729 62.7971 90.346V74.6333" fill="#7000FF"/>
<path fill-rule="evenodd" clip-rule="evenodd" d="M54.1455 73.6904C54.6661 73.6904 55.0881 74.1124 55.0881 74.633V90.3456C55.0881 97.0224 60.5212 102.456 67.198 102.456C69.067 102.456 70.5813 100.941 70.5813 99.0722C70.5813 97.2032 69.067 95.6889 67.198 95.6889C64.2505 95.6889 61.8548 93.2932 61.8548 90.3456V74.633C61.8548 74.1124 62.2767 73.6904 62.7973 73.6904C63.3178 73.6904 63.7398 74.1124 63.7398 74.633V90.3456C63.7398 92.2521 65.2915 93.8038 67.198 93.8038C70.1081 93.8038 72.4664 96.1621 72.4664 99.0722C72.4664 101.982 70.1081 104.341 67.198 104.341C59.4801 104.341 53.203 98.0635 53.203 90.3456V74.633C53.203 74.1124 53.625 73.6904 54.1455 73.6904Z" fill="#3C008A"/>
<path d="M46.8485 73.4316L46.8485 89.1443C46.8485 96.3416 52.7036 102.197 59.901 102.197C62.2905 102.197 64.2268 100.26 64.2268 97.8709C64.2268 95.4813 62.2905 93.545 59.901 93.545C57.474 93.545 55.5003 91.5713 55.5003 89.1443V73.4316" fill="#7000FF"/>
<path fill-rule="evenodd" clip-rule="evenodd" d="M46.8487 72.4888C47.3692 72.4888 47.7912 72.9108 47.7912 73.4313L47.7912 89.144C47.7912 95.8207 53.2243 101.254 59.9011 101.254C61.7701 101.254 63.2844 99.7396 63.2844 97.8705C63.2844 96.0015 61.7701 94.4872 59.9011 94.4872C56.9536 94.4872 54.5579 92.0915 54.5579 89.144V73.4313C54.5579 72.9108 54.9799 72.4888 55.5004 72.4888C56.021 72.4888 56.443 72.9108 56.443 73.4313V89.144C56.443 91.0504 57.9947 92.6021 59.9011 92.6021C62.8112 92.6021 65.1695 94.9604 65.1695 97.8705C65.1695 100.781 62.8112 103.139 59.9011 103.139C52.1832 103.139 45.9061 96.8618 45.9061 89.144L45.9061 73.4313C45.9061 72.9108 46.3281 72.4888 46.8487 72.4888Z" fill="#3C008A"/>
<path d="M34.1054 74.228V90.2113C34.1054 97.5319 28.1491 103.488 20.8263 103.488C18.395 103.488 16.4257 101.519 16.4257 99.0875C16.4257 96.6561 18.395 94.6868 20.8263 94.6868C23.2951 94.6868 25.3041 92.6779 25.3041 90.2113V74.228" fill="#7000FF"/>
<path fill-rule="evenodd" clip-rule="evenodd" d="M25.3037 73.2852C25.8243 73.2852 26.2462 73.7071 26.2462 74.2277V90.211C26.2462 93.1984 23.815 95.629 20.826 95.629C18.9152 95.629 17.3679 97.1763 17.3679 99.0872C17.3679 100.998 18.9152 102.545 20.826 102.545C27.6283 102.545 33.1626 97.0109 33.1626 90.211V74.2277H35.0476V90.211C35.0476 98.0522 28.6692 104.43 20.826 104.43C17.8741 104.43 15.4828 102.039 15.4828 99.0872C15.4828 96.1353 17.8741 93.744 20.826 93.744C22.7746 93.744 24.3612 92.1567 24.3612 90.211V74.2277C24.3612 73.7071 24.7832 73.2852 25.3037 73.2852Z" fill="#3C008A"/>
<path d="M37.7041 73.8789V89.8622C37.7041 97.1828 31.7477 103.139 24.425 103.139C21.9936 103.139 20.0243 101.17 20.0243 98.7384C20.0243 96.307 21.9936 94.3377 24.425 94.3377C26.8938 94.3377 28.9027 92.3288 28.9027 89.8622V73.8789" fill="#7000FF"/>
<path fill-rule="evenodd" clip-rule="evenodd" d="M28.9023 72.936C29.4229 72.936 29.8449 73.358 29.8449 73.8786V89.8619C29.8449 92.8493 27.4137 95.2799 24.4246 95.2799C22.5138 95.2799 20.9665 96.8272 20.9665 98.7381C20.9665 100.649 22.5138 102.196 24.4246 102.196C31.2269 102.196 36.7612 96.6618 36.7612 89.8619V73.8786C36.7612 73.358 37.1832 72.936 37.7037 72.936C38.2243 72.936 38.6463 73.358 38.6463 73.8786V89.8619C38.6463 97.7031 32.2678 104.081 24.4246 104.081C21.4727 104.081 19.0814 101.69 19.0814 98.7381C19.0814 95.7861 21.4727 93.3948 24.4246 93.3948C26.3732 93.3948 27.9598 91.8076 27.9598 89.8619V73.8786C27.9598 73.358 28.3818 72.936 28.9023 72.936Z" fill="#3C008A"/>
<path d="M46.9169 73.8789V89.5916C46.9169 96.7889 41.0618 102.644 33.8644 102.644C31.4748 102.644 29.5385 100.708 29.5385 98.3181C29.5385 95.9286 31.4748 93.9923 33.8644 93.9923C36.2914 93.9923 38.2651 92.0186 38.2651 89.5916V73.8789" fill="#7000FF"/>
<path fill-rule="evenodd" clip-rule="evenodd" d="M46.9157 72.936C46.3952 72.936 45.9732 73.358 45.9732 73.8786V89.5912C45.9732 96.268 40.5401 101.701 33.8633 101.701C31.9943 101.701 30.4799 100.187 30.4799 98.3178C30.4799 96.4488 31.9943 94.9345 33.8633 94.9345C36.8108 94.9345 39.2065 92.5388 39.2065 89.5912V73.8786C39.2065 73.358 38.7845 72.936 38.264 72.936C37.7434 72.936 37.3215 73.358 37.3215 73.8786V89.5912C37.3215 91.4977 35.7697 93.0494 33.8633 93.0494C30.9532 93.0494 28.5949 95.4077 28.5949 98.3178C28.5949 101.228 30.9532 103.586 33.8633 103.586C41.5812 103.586 47.8583 97.3091 47.8583 89.5912V73.8786C47.8583 73.358 47.4363 72.936 46.9157 72.936Z" fill="#3C008A"/>
<circle cx="13.5744" cy="27.4587" r="2.91138" transform="rotate(30 13.5744 27.4587)" stroke="#D9D9D9" stroke-width="1.5"/>
<rect x="6.42749" y="4.48975" width="23.3024" height="23.1602" rx="3.25" fill="white" stroke="#D9D9D9" stroke-width="1.5"/>
<g clip-path="url(#clip0_423_8870)">
<path d="M22.7015 17.5411H13.1945C12.7369 17.5411 12.3676 17.1611 12.3676 16.6904C12.3676 16.2197 12.7369 15.8397 13.1945 15.8397H22.7015C23.1591 15.8397 23.5284 16.2197 23.5284 16.6904C23.5284 17.1611 23.1591 17.5411 22.7015 17.5411Z" fill="#D3D3D3"/>
<path d="M13.3296 22.2936C12.5689 22.2936 11.9514 21.6584 11.9514 20.8758V12.5078C11.9514 11.7252 12.5689 11.09 13.3296 11.09C14.0904 11.09 14.7079 11.7252 14.7079 12.5078V20.8758C14.7079 21.6584 14.0904 22.2936 13.3296 22.2936Z" fill="#7000FF"/>
<path d="M11.1244 20.5923C10.3637 20.5923 9.74622 19.9571 9.74622 19.1744V14.2092C9.74622 13.4266 10.3637 12.7914 11.1244 12.7914C11.8852 12.7914 12.5027 13.4266 12.5027 14.2092V19.1744C12.5027 19.9571 11.8852 20.5923 11.1244 20.5923Z" fill="#7000FF"/>
<path d="M22.7016 22.2936C21.9408 22.2936 21.3234 21.6584 21.3234 20.8758V12.5078C21.3234 11.7252 21.9408 11.09 22.7016 11.09C23.4624 11.09 24.0798 11.7252 24.0798 12.5078V20.8758C24.0798 21.6584 23.4624 22.2936 22.7016 22.2936Z" fill="#7000FF"/>
<path d="M24.9067 20.5923C24.1459 20.5923 23.5284 19.9571 23.5284 19.1744V14.2092C23.5284 13.4266 24.1459 12.7914 24.9067 12.7914C25.6675 12.7914 26.2849 13.4266 26.2849 14.2092V19.1744C26.2849 19.9571 25.6675 20.5923 24.9067 20.5923Z" fill="#7000FF"/>
<g opacity="0.6">
<path d="M13.3296 14.4928C13.0264 14.4928 12.7783 14.2376 12.7783 13.9256V12.5078C12.7783 12.1959 13.0264 11.9407 13.3296 11.9407C13.6328 11.9407 13.8809 12.1959 13.8809 12.5078V13.9256C13.8809 14.2376 13.6328 14.4928 13.3296 14.4928Z" fill="white"/>
</g>
<g opacity="0.6">
<path d="M22.7016 14.4928C22.3983 14.4928 22.1503 14.2376 22.1503 13.9256V12.5078C22.1503 12.1959 22.3983 11.9407 22.7016 11.9407C23.0048 11.9407 23.2529 12.1959 23.2529 12.5078V13.9256C23.2529 14.2376 23.0048 14.4928 22.7016 14.4928Z" fill="white"/>
</g>
<g opacity="0.6">
<path d="M24.9068 16.1942C24.6035 16.1942 24.3555 15.939 24.3555 15.627V14.2092C24.3555 13.8973 24.6035 13.6421 24.9068 13.6421C25.21 13.6421 25.4581 13.8973 25.4581 14.2092V15.627C25.4581 15.939 25.21 16.1942 24.9068 16.1942Z" fill="white"/>
</g>
<g opacity="0.6">
<path d="M11.1244 16.1942C10.8212 16.1942 10.5731 15.939 10.5731 15.627V14.2092C10.5731 13.8973 10.8212 13.6421 11.1244 13.6421C11.4276 13.6421 11.6757 13.8973 11.6757 14.2092V15.627C11.6757 15.939 11.4276 16.1942 11.1244 16.1942Z" fill="white"/>
</g>
</g>
<circle cx="12.3677" cy="37.8439" r="2.52942" stroke="#D9D9D9" stroke-width="1.5"/>
<circle cx="19.0128" cy="43.9865" r="1.8371" stroke="#D9D9D9" stroke-width="1.5"/>
<defs>
<clipPath id="clip0_423_8870">
<rect width="16.5387" height="11.2037" fill="white" transform="translate(9.74622 11.09)"/>
</clipPath>
</defs>
</svg>
