<svg width="245" height="76" viewBox="0 0 245 76" fill="none" xmlns="http://www.w3.org/2000/svg">
<rect x="5.99927" width="239" height="76" rx="16" fill="#7000FF"/>
<rect x="0.179688" y="23.8196" width="8.23004" height="8.23004" transform="rotate(-45 0.179688 23.8196)" fill="#7000FF"/>
<path d="M18.9593 23V12.104H22.9753C23.7539 12.104 24.4473 12.2587 25.0553 12.568C25.6739 12.8773 26.1593 13.3147 26.5113 13.88C26.8739 14.4453 27.0553 15.1173 27.0553 15.896C27.0553 16.6853 26.8739 17.3627 26.5113 17.928C26.1593 18.4933 25.6739 18.9307 25.0553 19.24C24.4473 19.5387 23.7539 19.688 22.9753 19.688H20.7833V17.432H22.7993C23.3859 17.432 23.8393 17.304 24.1593 17.048C24.4899 16.7813 24.6553 16.3973 24.6553 15.896C24.6553 15.3947 24.4899 15.016 24.1593 14.76C23.8393 14.4933 23.3859 14.36 22.7993 14.36H20.7673L21.2953 13.832V23H18.9593ZM24.6073 23L22.2873 18.568H24.8473L27.1673 23H24.6073ZM31.5841 23.144C30.8055 23.144 30.1175 22.9787 29.5201 22.648C28.9335 22.3173 28.4748 21.848 28.1441 21.24C27.8241 20.632 27.6641 19.9173 27.6641 19.096C27.6641 18.2853 27.8241 17.5707 28.1441 16.952C28.4748 16.3333 28.9335 15.8533 29.5201 15.512C30.1175 15.16 30.8055 14.984 31.5841 14.984C32.3841 14.984 33.0775 15.1653 33.6641 15.528C34.2508 15.8907 34.7041 16.3813 35.0241 17C35.3441 17.608 35.5041 18.296 35.5041 19.064C35.5041 19.2027 35.4988 19.336 35.4881 19.464C35.4775 19.592 35.4668 19.6933 35.4561 19.768H29.4881V18.104H33.6641L33.3921 18.792C33.3921 18.2053 33.2428 17.7253 32.9441 17.352C32.6561 16.9787 32.2081 16.792 31.6001 16.792C31.0561 16.792 30.6188 16.9573 30.2881 17.288C29.9681 17.6187 29.8081 18.056 29.8081 18.6V19.48C29.8081 20.0667 29.9735 20.5253 30.3041 20.856C30.6455 21.176 31.1148 21.336 31.7121 21.336C32.2135 21.336 32.6081 21.2347 32.8961 21.032C33.1948 20.8293 33.4455 20.5787 33.6481 20.28L35.2321 21.16C34.8908 21.7893 34.4108 22.28 33.7921 22.632C33.1735 22.9733 32.4375 23.144 31.5841 23.144ZM39.059 23.208C38.4937 23.208 37.9924 23.1013 37.555 22.888C37.1284 22.664 36.7977 22.3547 36.563 21.96C36.3284 21.5653 36.211 21.1067 36.211 20.584C36.211 20.0293 36.339 19.56 36.595 19.176C36.851 18.7813 37.1924 18.4773 37.619 18.264C38.0564 18.0507 38.5417 17.944 39.075 17.944C39.8537 17.944 40.483 18.12 40.963 18.472C41.443 18.824 41.763 19.3307 41.923 19.992L40.915 19.816V17.992C40.915 17.704 40.8137 17.4533 40.611 17.24C40.4084 17.0267 40.083 16.92 39.635 16.92C39.347 16.92 39.0164 16.9573 38.643 17.032C38.2697 17.096 37.8857 17.224 37.491 17.416L36.803 15.752C37.2724 15.5173 37.7737 15.3307 38.307 15.192C38.851 15.0533 39.4057 14.984 39.971 14.984C40.6964 14.984 41.3044 15.112 41.795 15.368C42.2857 15.624 42.6484 15.9867 42.883 16.456C43.1284 16.9253 43.251 17.4693 43.251 18.088V23H41.347L40.883 21.48L41.923 21.16C41.7524 21.8 41.427 22.3013 40.947 22.664C40.467 23.0267 39.8377 23.208 39.059 23.208ZM39.779 21.544C40.131 21.544 40.4084 21.4533 40.611 21.272C40.8244 21.0907 40.931 20.8613 40.931 20.584C40.931 20.2853 40.8244 20.0507 40.611 19.88C40.4084 19.7093 40.131 19.624 39.779 19.624C39.427 19.624 39.1497 19.7093 38.947 19.88C38.7444 20.0507 38.643 20.2853 38.643 20.584C38.643 20.8613 38.7444 21.0907 38.947 21.272C39.1497 21.4533 39.427 21.544 39.779 21.544ZM47.936 23.192C47.232 23.192 46.608 23.0213 46.064 22.68C45.52 22.328 45.0934 21.8427 44.784 21.224C44.4854 20.5947 44.336 19.88 44.336 19.08C44.336 18.28 44.4907 17.5707 44.8 16.952C45.1094 16.3333 45.536 15.8533 46.08 15.512C46.624 15.16 47.248 14.984 47.952 14.984C48.6454 14.984 49.2427 15.144 49.744 15.464C50.256 15.7733 50.6507 16.232 50.928 16.84C51.216 17.448 51.36 18.1947 51.36 19.08C51.36 19.9227 51.216 20.6533 50.928 21.272C50.64 21.88 50.24 22.3547 49.728 22.696C49.216 23.0267 48.6187 23.192 47.936 23.192ZM48.384 21C48.864 21 49.2587 20.824 49.568 20.472C49.888 20.1093 50.048 19.6453 50.048 19.08C50.048 18.5253 49.888 18.072 49.568 17.72C49.2587 17.3573 48.864 17.176 48.384 17.176C47.904 17.176 47.504 17.3573 47.184 17.72C46.8747 18.072 46.72 18.5253 46.72 19.08C46.72 19.6453 46.8747 20.1093 47.184 20.472C47.504 20.824 47.904 21 48.384 21ZM50.528 23L49.936 21H50.08V17.352H49.936V12.104H52.272V23H50.528ZM56.3886 22.408L53.2526 15.176H55.6206L58.5966 22.056L56.3886 22.408ZM54.7086 26.04L59.4286 15.176H61.7966L57.0926 26.04H54.7086ZM70.3821 23.128C69.5181 23.128 68.8355 22.9147 68.3341 22.488C67.8435 22.0613 67.5981 21.3627 67.5981 20.392V15.272L67.5661 15.176L68.0461 13.288H69.9341V19.88C69.9341 20.2427 70.0195 20.504 70.1901 20.664C70.3608 20.8133 70.5848 20.888 70.8621 20.888C71.0221 20.888 71.1715 20.8773 71.3101 20.856C71.4595 20.824 71.5821 20.792 71.6781 20.76V22.952C71.4968 23.0053 71.2995 23.048 71.0861 23.08C70.8835 23.112 70.6488 23.128 70.3821 23.128ZM66.3821 17.32V15.176H71.6781V17.32H66.3821ZM76.7761 23.192C75.9655 23.192 75.2508 23.0213 74.6321 22.68C74.0135 22.328 73.5335 21.8427 73.1921 21.224C72.8508 20.6053 72.6801 19.896 72.6801 19.096C72.6801 18.2853 72.8508 17.5707 73.1921 16.952C73.5335 16.3333 74.0135 15.8533 74.6321 15.512C75.2508 15.16 75.9655 14.984 76.7761 14.984C77.5975 14.984 78.3175 15.16 78.9361 15.512C79.5548 15.8533 80.0348 16.3333 80.3761 16.952C80.7281 17.5707 80.9041 18.2853 80.9041 19.096C80.9041 19.896 80.7281 20.6053 80.3761 21.224C80.0348 21.8427 79.5548 22.328 78.9361 22.68C78.3175 23.0213 77.5975 23.192 76.7761 23.192ZM76.7761 20.92C77.2988 20.92 77.7201 20.7547 78.0401 20.424C78.3708 20.0827 78.5361 19.64 78.5361 19.096C78.5361 18.5413 78.3708 18.0933 78.0401 17.752C77.7201 17.4107 77.2988 17.24 76.7761 17.24C76.2748 17.24 75.8588 17.4107 75.5281 17.752C75.2081 18.0827 75.0481 18.5253 75.0481 19.08C75.0481 19.6347 75.2081 20.0827 75.5281 20.424C75.8588 20.7547 76.2748 20.92 76.7761 20.92ZM93.0208 23H86.3968V12.104H88.7328V21.624L88.1408 20.744H93.0208V23ZM97.5529 23.144C96.7742 23.144 96.0862 22.9787 95.4889 22.648C94.9022 22.3173 94.4436 21.848 94.1129 21.24C93.7929 20.632 93.6329 19.9173 93.6329 19.096C93.6329 18.2853 93.7929 17.5707 94.1129 16.952C94.4436 16.3333 94.9022 15.8533 95.4889 15.512C96.0862 15.16 96.7742 14.984 97.5529 14.984C98.3529 14.984 99.0462 15.1653 99.6329 15.528C100.22 15.8907 100.673 16.3813 100.993 17C101.313 17.608 101.473 18.296 101.473 19.064C101.473 19.2027 101.468 19.336 101.457 19.464C101.446 19.592 101.436 19.6933 101.425 19.768H95.4569V18.104H99.6329L99.3609 18.792C99.3609 18.2053 99.2116 17.7253 98.9129 17.352C98.6249 16.9787 98.1769 16.792 97.5689 16.792C97.0249 16.792 96.5876 16.9573 96.2569 17.288C95.9369 17.6187 95.7769 18.056 95.7769 18.6V19.48C95.7769 20.0667 95.9422 20.5253 96.2729 20.856C96.6142 21.176 97.0836 21.336 97.6809 21.336C98.1822 21.336 98.5769 21.2347 98.8649 21.032C99.1636 20.8293 99.4142 20.5787 99.6169 20.28L101.201 21.16C100.86 21.7893 100.38 22.28 99.7609 22.632C99.1422 22.9733 98.4062 23.144 97.5529 23.144ZM105.028 23.208C104.462 23.208 103.961 23.1013 103.524 22.888C103.097 22.664 102.766 22.3547 102.532 21.96C102.297 21.5653 102.18 21.1067 102.18 20.584C102.18 20.0293 102.308 19.56 102.564 19.176C102.82 18.7813 103.161 18.4773 103.588 18.264C104.025 18.0507 104.51 17.944 105.044 17.944C105.822 17.944 106.452 18.12 106.932 18.472C107.412 18.824 107.732 19.3307 107.892 19.992L106.884 19.816V17.992C106.884 17.704 106.782 17.4533 106.58 17.24C106.377 17.0267 106.052 16.92 105.604 16.92C105.316 16.92 104.985 16.9573 104.612 17.032C104.238 17.096 103.854 17.224 103.46 17.416L102.772 15.752C103.241 15.5173 103.742 15.3307 104.276 15.192C104.82 15.0533 105.374 14.984 105.94 14.984C106.665 14.984 107.273 15.112 107.764 15.368C108.254 15.624 108.617 15.9867 108.852 16.456C109.097 16.9253 109.22 17.4693 109.22 18.088V23H107.316L106.852 21.48L107.892 21.16C107.721 21.8 107.396 22.3013 106.916 22.664C106.436 23.0267 105.806 23.208 105.028 23.208ZM105.748 21.544C106.1 21.544 106.377 21.4533 106.58 21.272C106.793 21.0907 106.9 20.8613 106.9 20.584C106.9 20.2853 106.793 20.0507 106.58 19.88C106.377 19.7093 106.1 19.624 105.748 19.624C105.396 19.624 105.118 19.7093 104.916 19.88C104.713 20.0507 104.612 20.2853 104.612 20.584C104.612 20.8613 104.713 21.0907 104.916 21.272C105.118 21.4533 105.396 21.544 105.748 21.544ZM112.497 15.176L113.105 17.336V23H110.769V15.176H112.497ZM112.593 18.632L112.193 18.456V16.648L112.337 16.456C112.465 16.2747 112.646 16.0667 112.881 15.832C113.126 15.5973 113.409 15.4 113.729 15.24C114.059 15.0693 114.395 14.984 114.737 14.984C114.907 14.984 115.062 14.9947 115.201 15.016C115.339 15.0373 115.451 15.0747 115.537 15.128V17.256H115.009C114.326 17.256 113.787 17.368 113.393 17.592C113.009 17.8053 112.742 18.152 112.593 18.632ZM121.46 14.984C121.982 14.984 122.409 15.0747 122.74 15.256C123.07 15.4267 123.321 15.6667 123.492 15.976C123.673 16.2853 123.79 16.6373 123.844 17.032C123.908 17.416 123.94 17.816 123.94 18.232V23H121.604V18.36C121.604 17.912 121.524 17.6187 121.364 17.48C121.204 17.3307 120.99 17.256 120.724 17.256C120.5 17.256 120.265 17.304 120.02 17.4C119.785 17.4853 119.556 17.608 119.332 17.768C119.108 17.928 118.91 18.1093 118.74 18.312L118.324 17.128H118.98V23H116.644V15.176H118.372L118.852 16.728L118.052 16.664C118.329 16.3547 118.644 16.072 118.996 15.816C119.348 15.56 119.732 15.3573 120.148 15.208C120.564 15.0587 121.001 14.984 121.46 14.984ZM127.872 19.592L126.704 17.8L127.808 17.048C128.266 16.7387 128.629 16.4773 128.896 16.264C129.162 16.04 129.354 15.8267 129.472 15.624C129.589 15.4107 129.648 15.176 129.648 14.92C129.648 14.6 129.536 14.3387 129.312 14.136C129.088 13.9227 128.805 13.816 128.464 13.816C128.176 13.816 127.866 13.8907 127.536 14.04C127.205 14.1787 126.816 14.456 126.368 14.872L125.856 15.32L124.432 13.624L124.784 13.288C125.285 12.7653 125.845 12.344 126.464 12.024C127.082 11.704 127.765 11.544 128.512 11.544C129.226 11.544 129.845 11.688 130.368 11.976C130.901 12.264 131.312 12.6587 131.6 13.16C131.888 13.6507 132.032 14.2 132.032 14.808C132.032 15.32 131.941 15.7893 131.76 16.216C131.589 16.6427 131.301 17.0533 130.896 17.448C130.49 17.8427 129.952 18.2533 129.28 18.68L127.872 19.592ZM128.272 23.112C127.856 23.112 127.498 22.968 127.2 22.68C126.912 22.392 126.768 22.04 126.768 21.624C126.768 21.208 126.912 20.856 127.2 20.568C127.498 20.2693 127.856 20.12 128.272 20.12C128.688 20.12 129.04 20.2693 129.328 20.568C129.626 20.856 129.776 21.208 129.776 21.624C129.776 22.04 129.626 22.392 129.328 22.68C129.04 22.968 128.688 23.112 128.272 23.112Z" fill="white"/>
<path d="M22.9433 45.108C22.0233 45.108 21.2473 44.936 20.6153 44.592C19.9833 44.24 19.5033 43.74 19.1753 43.092C18.8553 42.444 18.6953 41.672 18.6953 40.776C18.6953 40.104 18.7873 39.504 18.9713 38.976C19.1633 38.44 19.4353 37.984 19.7873 37.608C20.1473 37.224 20.5833 36.932 21.0953 36.732C21.6153 36.532 22.2033 36.432 22.8593 36.432C23.3393 36.432 23.8113 36.496 24.2753 36.624C24.7393 36.744 25.1633 36.944 25.5473 37.224C25.6593 37.304 25.7313 37.396 25.7633 37.5C25.7953 37.604 25.7953 37.712 25.7633 37.824C25.7393 37.928 25.6873 38.02 25.6073 38.1C25.5353 38.18 25.4433 38.228 25.3313 38.244C25.2273 38.26 25.1113 38.228 24.9833 38.148C24.6713 37.932 24.3433 37.776 23.9993 37.68C23.6553 37.576 23.2753 37.524 22.8593 37.524C22.2353 37.524 21.7073 37.652 21.2753 37.908C20.8513 38.164 20.5313 38.536 20.3153 39.024C20.0993 39.504 19.9913 40.088 19.9913 40.776C19.9913 41.84 20.2433 42.648 20.7473 43.2C21.2513 43.752 21.9993 44.028 22.9913 44.028C23.3513 44.028 23.7033 43.996 24.0473 43.932C24.3993 43.86 24.7353 43.76 25.0553 43.632L24.8033 44.256V41.46H23.2553C23.0953 41.46 22.9673 41.42 22.8713 41.34C22.7833 41.252 22.7393 41.132 22.7393 40.98C22.7393 40.828 22.7833 40.716 22.8713 40.644C22.9673 40.564 23.0953 40.524 23.2553 40.524H25.3313C25.4993 40.524 25.6273 40.568 25.7153 40.656C25.8033 40.744 25.8473 40.872 25.8473 41.04V44.064C25.8473 44.208 25.8193 44.332 25.7633 44.436C25.7153 44.532 25.6313 44.604 25.5113 44.652C25.1673 44.788 24.7633 44.9 24.2993 44.988C23.8353 45.068 23.3833 45.108 22.9433 45.108ZM30.6646 45.108C30.0246 45.108 29.4726 44.988 29.0086 44.748C28.5526 44.5 28.1966 44.152 27.9406 43.704C27.6926 43.248 27.5686 42.708 27.5686 42.084C27.5686 41.476 27.6926 40.944 27.9406 40.488C28.1886 40.032 28.5286 39.676 28.9606 39.42C29.3926 39.164 29.8846 39.036 30.4366 39.036C30.8446 39.036 31.2086 39.104 31.5286 39.24C31.8486 39.368 32.1206 39.56 32.3446 39.816C32.5766 40.064 32.7486 40.368 32.8606 40.728C32.9806 41.088 33.0406 41.492 33.0406 41.94C33.0406 42.076 33.0006 42.18 32.9206 42.252C32.8406 42.316 32.7206 42.348 32.5606 42.348H28.5286V41.604H32.2246L32.0206 41.772C32.0206 41.372 31.9606 41.032 31.8406 40.752C31.7286 40.472 31.5566 40.26 31.3246 40.116C31.1006 39.964 30.8206 39.888 30.4846 39.888C30.1086 39.888 29.7886 39.976 29.5246 40.152C29.2686 40.328 29.0726 40.572 28.9366 40.884C28.8006 41.196 28.7326 41.56 28.7326 41.976V42.048C28.7326 42.752 28.8966 43.284 29.2246 43.644C29.5606 43.996 30.0446 44.172 30.6766 44.172C30.9166 44.172 31.1686 44.14 31.4326 44.076C31.7046 44.012 31.9606 43.904 32.2006 43.752C32.3366 43.672 32.4566 43.636 32.5606 43.644C32.6726 43.652 32.7606 43.688 32.8246 43.752C32.8966 43.816 32.9406 43.896 32.9566 43.992C32.9726 44.088 32.9566 44.188 32.9086 44.292C32.8606 44.388 32.7766 44.476 32.6566 44.556C32.3846 44.74 32.0686 44.88 31.7086 44.976C31.3486 45.064 31.0006 45.108 30.6646 45.108ZM37.1342 45.108C36.6542 45.108 36.2502 45.024 35.9222 44.856C35.5942 44.688 35.3502 44.44 35.1902 44.112C35.0302 43.784 34.9502 43.384 34.9502 42.912V40.08H34.2302C34.0702 40.08 33.9462 40.04 33.8582 39.96C33.7702 39.872 33.7262 39.756 33.7262 39.612C33.7262 39.46 33.7702 39.344 33.8582 39.264C33.9462 39.184 34.0702 39.144 34.2302 39.144H34.9502V37.908C34.9502 37.708 35.0022 37.556 35.1062 37.452C35.2182 37.348 35.3702 37.296 35.5622 37.296C35.7542 37.296 35.9022 37.348 36.0062 37.452C36.1102 37.556 36.1622 37.708 36.1622 37.908V39.144H37.5662C37.7262 39.144 37.8502 39.184 37.9382 39.264C38.0262 39.344 38.0702 39.46 38.0702 39.612C38.0702 39.756 38.0262 39.872 37.9382 39.96C37.8502 40.04 37.7262 40.08 37.5662 40.08H36.1622V42.816C36.1622 43.24 36.2502 43.56 36.4262 43.776C36.6102 43.992 36.9062 44.1 37.3142 44.1C37.4582 44.1 37.5822 44.088 37.6862 44.064C37.7982 44.032 37.8902 44.012 37.9622 44.004C38.0502 44.004 38.1222 44.036 38.1782 44.1C38.2342 44.156 38.2622 44.268 38.2622 44.436C38.2622 44.556 38.2382 44.668 38.1902 44.772C38.1502 44.876 38.0742 44.944 37.9622 44.976C37.8662 45.008 37.7342 45.036 37.5662 45.06C37.4062 45.092 37.2622 45.108 37.1342 45.108ZM43.3731 45.084C43.1731 45.084 43.0211 45.032 42.9171 44.928C42.8131 44.816 42.7611 44.664 42.7611 44.472V39.672C42.7611 39.472 42.8131 39.32 42.9171 39.216C43.0211 39.112 43.1651 39.06 43.3491 39.06C43.5411 39.06 43.6851 39.112 43.7811 39.216C43.8851 39.32 43.9371 39.472 43.9371 39.672V40.548H43.8171C43.9451 40.068 44.1811 39.704 44.5251 39.456C44.8691 39.208 45.3091 39.064 45.8451 39.024C45.9891 39.016 46.1011 39.052 46.1811 39.132C46.2691 39.212 46.3171 39.336 46.3251 39.504C46.3411 39.672 46.3051 39.808 46.2171 39.912C46.1291 40.008 45.9931 40.064 45.8091 40.08L45.5811 40.104C45.0611 40.152 44.6651 40.316 44.3931 40.596C44.1211 40.876 43.9851 41.26 43.9851 41.748V44.472C43.9851 44.664 43.9331 44.816 43.8291 44.928C43.7331 45.032 43.5811 45.084 43.3731 45.084ZM50.1916 45.108C49.5516 45.108 48.9996 44.988 48.5356 44.748C48.0796 44.5 47.7236 44.152 47.4676 43.704C47.2196 43.248 47.0956 42.708 47.0956 42.084C47.0956 41.476 47.2196 40.944 47.4676 40.488C47.7156 40.032 48.0556 39.676 48.4876 39.42C48.9196 39.164 49.4116 39.036 49.9636 39.036C50.3716 39.036 50.7356 39.104 51.0556 39.24C51.3756 39.368 51.6476 39.56 51.8716 39.816C52.1036 40.064 52.2756 40.368 52.3876 40.728C52.5076 41.088 52.5676 41.492 52.5676 41.94C52.5676 42.076 52.5276 42.18 52.4476 42.252C52.3676 42.316 52.2476 42.348 52.0876 42.348H48.0556V41.604H51.7516L51.5476 41.772C51.5476 41.372 51.4876 41.032 51.3676 40.752C51.2556 40.472 51.0836 40.26 50.8516 40.116C50.6276 39.964 50.3476 39.888 50.0116 39.888C49.6356 39.888 49.3156 39.976 49.0516 40.152C48.7956 40.328 48.5996 40.572 48.4636 40.884C48.3276 41.196 48.2596 41.56 48.2596 41.976V42.048C48.2596 42.752 48.4236 43.284 48.7516 43.644C49.0876 43.996 49.5716 44.172 50.2036 44.172C50.4436 44.172 50.6956 44.14 50.9596 44.076C51.2316 44.012 51.4876 43.904 51.7276 43.752C51.8636 43.672 51.9836 43.636 52.0876 43.644C52.1996 43.652 52.2876 43.688 52.3516 43.752C52.4236 43.816 52.4676 43.896 52.4836 43.992C52.4996 44.088 52.4836 44.188 52.4356 44.292C52.3876 44.388 52.3036 44.476 52.1836 44.556C51.9116 44.74 51.5956 44.88 51.2356 44.976C50.8756 45.064 50.5276 45.108 50.1916 45.108ZM56.0489 45.108C55.6409 45.108 55.2729 45.028 54.9449 44.868C54.6249 44.708 54.3729 44.492 54.1889 44.22C54.0049 43.948 53.9129 43.64 53.9129 43.296C53.9129 42.864 54.0209 42.524 54.2369 42.276C54.4609 42.02 54.8249 41.84 55.3289 41.736C55.8409 41.624 56.5289 41.568 57.3929 41.568H57.9569V42.312H57.4049C56.8289 42.312 56.3729 42.34 56.0369 42.396C55.7009 42.452 55.4609 42.548 55.3169 42.684C55.1809 42.812 55.1129 42.992 55.1129 43.224C55.1129 43.528 55.2169 43.776 55.4249 43.968C55.6329 44.152 55.9209 44.244 56.2889 44.244C56.5849 44.244 56.8449 44.176 57.0689 44.04C57.2929 43.896 57.4689 43.704 57.5969 43.464C57.7329 43.224 57.8009 42.948 57.8009 42.636V41.256C57.8009 40.8 57.7049 40.472 57.5129 40.272C57.3209 40.072 57.0049 39.972 56.5649 39.972C56.3089 39.972 56.0409 40.004 55.7609 40.068C55.4889 40.132 55.2049 40.24 54.9089 40.392C54.7729 40.456 54.6569 40.476 54.5609 40.452C54.4649 40.428 54.3889 40.376 54.3329 40.296C54.2769 40.208 54.2449 40.116 54.2369 40.02C54.2369 39.916 54.2609 39.816 54.3089 39.72C54.3649 39.624 54.4569 39.552 54.5849 39.504C54.9369 39.336 55.2849 39.216 55.6289 39.144C55.9729 39.072 56.2969 39.036 56.6009 39.036C57.1369 39.036 57.5769 39.12 57.9209 39.288C58.2729 39.456 58.5329 39.712 58.7009 40.056C58.8689 40.4 58.9529 40.844 58.9529 41.388V44.472C58.9529 44.664 58.9049 44.816 58.8089 44.928C58.7129 45.032 58.5729 45.084 58.3889 45.084C58.2129 45.084 58.0729 45.032 57.9689 44.928C57.8649 44.816 57.8129 44.664 57.8129 44.472V43.692H57.9209C57.8569 43.988 57.7369 44.244 57.5609 44.46C57.3929 44.668 57.1809 44.828 56.9249 44.94C56.6689 45.052 56.3769 45.108 56.0489 45.108ZM63.1422 45.108C62.6302 45.108 62.1782 44.988 61.7862 44.748C61.4022 44.5 61.1022 44.148 60.8862 43.692C60.6702 43.228 60.5622 42.688 60.5622 42.072C60.5622 41.44 60.6702 40.9 60.8862 40.452C61.1022 40.004 61.4022 39.656 61.7862 39.408C62.1782 39.16 62.6302 39.036 63.1422 39.036C63.6542 39.036 64.0942 39.164 64.4622 39.42C64.8382 39.668 65.0902 40.004 65.2182 40.428H65.0862V37.068C65.0862 36.868 65.1382 36.716 65.2422 36.612C65.3462 36.508 65.4942 36.456 65.6862 36.456C65.8782 36.456 66.0262 36.508 66.1302 36.612C66.2422 36.716 66.2982 36.868 66.2982 37.068V44.472C66.2982 44.664 66.2462 44.816 66.1422 44.928C66.0382 45.032 65.8902 45.084 65.6982 45.084C65.5062 45.084 65.3582 45.032 65.2542 44.928C65.1502 44.816 65.0982 44.664 65.0982 44.472V43.416L65.2302 43.68C65.1022 44.112 64.8502 44.46 64.4742 44.724C64.1062 44.98 63.6622 45.108 63.1422 45.108ZM63.4542 44.172C63.7822 44.172 64.0702 44.092 64.3182 43.932C64.5662 43.772 64.7582 43.536 64.8942 43.224C65.0382 42.912 65.1102 42.528 65.1102 42.072C65.1102 41.384 64.9582 40.864 64.6542 40.512C64.3502 40.16 63.9502 39.984 63.4542 39.984C63.1182 39.984 62.8262 40.064 62.5782 40.224C62.3302 40.376 62.1342 40.608 61.9902 40.92C61.8542 41.232 61.7862 41.616 61.7862 42.072C61.7862 42.752 61.9382 43.272 62.2422 43.632C62.5462 43.992 62.9502 44.172 63.4542 44.172ZM69.6681 47.244C69.5241 47.244 69.4041 47.204 69.3081 47.124C69.2201 47.052 69.1681 46.952 69.1521 46.824C69.1441 46.704 69.1681 46.572 69.2241 46.428L70.0401 44.592V45.108L67.7961 39.888C67.7401 39.744 67.7201 39.608 67.7361 39.48C67.7521 39.352 67.8121 39.252 67.9161 39.18C68.0201 39.1 68.1601 39.06 68.3361 39.06C68.4881 39.06 68.6081 39.096 68.6961 39.168C68.7841 39.24 68.8641 39.364 68.9361 39.54L70.7481 44.016H70.4121L72.2481 39.54C72.3201 39.356 72.4041 39.232 72.5001 39.168C72.5961 39.096 72.7281 39.06 72.8961 39.06C73.0401 39.06 73.1521 39.1 73.2321 39.18C73.3201 39.252 73.3721 39.352 73.3881 39.48C73.4121 39.6 73.3921 39.732 73.3281 39.876L70.3281 46.776C70.2481 46.96 70.1561 47.084 70.0521 47.148C69.9561 47.212 69.8281 47.244 69.6681 47.244ZM79.2225 45.084C79.0305 45.084 78.8785 45.032 78.7665 44.928C78.6625 44.816 78.6105 44.664 78.6105 44.472V40.08H77.9385C77.7865 40.08 77.6665 40.04 77.5785 39.96C77.4905 39.872 77.4465 39.756 77.4465 39.612C77.4465 39.46 77.4905 39.344 77.5785 39.264C77.6665 39.184 77.7865 39.144 77.9385 39.144H78.9585L78.6105 39.468V39.036C78.6105 38.244 78.8065 37.648 79.1985 37.248C79.5905 36.84 80.1625 36.6 80.9145 36.528L81.2865 36.504C81.4225 36.488 81.5305 36.508 81.6105 36.564C81.6905 36.62 81.7425 36.692 81.7665 36.78C81.7905 36.868 81.7905 36.96 81.7665 37.056C81.7505 37.144 81.7105 37.224 81.6465 37.296C81.5825 37.368 81.5025 37.408 81.4065 37.416L81.1785 37.428C80.7065 37.468 80.3625 37.604 80.1465 37.836C79.9305 38.06 79.8225 38.404 79.8225 38.868V39.336L79.6545 39.144H80.9865C81.1545 39.144 81.2785 39.184 81.3585 39.264C81.4465 39.344 81.4905 39.46 81.4905 39.612C81.4905 39.756 81.4465 39.872 81.3585 39.96C81.2785 40.04 81.1545 40.08 80.9865 40.08H79.8225V44.472C79.8225 44.88 79.6225 45.084 79.2225 45.084ZM85.0906 45.108C84.4986 45.108 83.9866 44.984 83.5546 44.736C83.1306 44.488 82.7986 44.136 82.5586 43.68C82.3186 43.224 82.1986 42.688 82.1986 42.072C82.1986 41.6 82.2666 41.18 82.4026 40.812C82.5386 40.444 82.7306 40.128 82.9786 39.864C83.2346 39.592 83.5386 39.388 83.8906 39.252C84.2506 39.108 84.6506 39.036 85.0906 39.036C85.6746 39.036 86.1786 39.16 86.6026 39.408C87.0346 39.656 87.3706 40.008 87.6106 40.464C87.8506 40.912 87.9706 41.448 87.9706 42.072C87.9706 42.536 87.9026 42.956 87.7666 43.332C87.6306 43.708 87.4346 44.028 87.1786 44.292C86.9306 44.556 86.6266 44.76 86.2666 44.904C85.9146 45.04 85.5226 45.108 85.0906 45.108ZM85.0906 44.172C85.4186 44.172 85.7066 44.092 85.9546 43.932C86.2026 43.772 86.3946 43.536 86.5306 43.224C86.6746 42.912 86.7466 42.528 86.7466 42.072C86.7466 41.384 86.5946 40.864 86.2906 40.512C85.9866 40.16 85.5866 39.984 85.0906 39.984C84.7546 39.984 84.4626 40.064 84.2146 40.224C83.9666 40.376 83.7706 40.608 83.6266 40.92C83.4906 41.232 83.4226 41.616 83.4226 42.072C83.4226 42.752 83.5746 43.272 83.8786 43.632C84.1826 43.992 84.5866 44.172 85.0906 44.172ZM90.2318 45.084C90.0318 45.084 89.8798 45.032 89.7758 44.928C89.6718 44.816 89.6198 44.664 89.6198 44.472V39.672C89.6198 39.472 89.6718 39.32 89.7758 39.216C89.8798 39.112 90.0238 39.06 90.2078 39.06C90.3998 39.06 90.5438 39.112 90.6398 39.216C90.7438 39.32 90.7958 39.472 90.7958 39.672V40.548H90.6758C90.8038 40.068 91.0398 39.704 91.3838 39.456C91.7278 39.208 92.1678 39.064 92.7038 39.024C92.8478 39.016 92.9598 39.052 93.0398 39.132C93.1278 39.212 93.1758 39.336 93.1838 39.504C93.1998 39.672 93.1638 39.808 93.0758 39.912C92.9878 40.008 92.8518 40.064 92.6678 40.08L92.4398 40.104C91.9198 40.152 91.5238 40.316 91.2518 40.596C90.9798 40.876 90.8438 41.26 90.8438 41.748V44.472C90.8438 44.664 90.7918 44.816 90.6878 44.928C90.5918 45.032 90.4398 45.084 90.2318 45.084ZM100.332 45.108C99.8524 45.108 99.4484 45.024 99.1204 44.856C98.7924 44.688 98.5484 44.44 98.3884 44.112C98.2284 43.784 98.1484 43.384 98.1484 42.912V40.08H97.4284C97.2684 40.08 97.1444 40.04 97.0564 39.96C96.9684 39.872 96.9244 39.756 96.9244 39.612C96.9244 39.46 96.9684 39.344 97.0564 39.264C97.1444 39.184 97.2684 39.144 97.4284 39.144H98.1484V37.908C98.1484 37.708 98.2004 37.556 98.3044 37.452C98.4164 37.348 98.5684 37.296 98.7604 37.296C98.9524 37.296 99.1004 37.348 99.2044 37.452C99.3084 37.556 99.3604 37.708 99.3604 37.908V39.144H100.764C100.924 39.144 101.048 39.184 101.136 39.264C101.224 39.344 101.268 39.46 101.268 39.612C101.268 39.756 101.224 39.872 101.136 39.96C101.048 40.04 100.924 40.08 100.764 40.08H99.3604V42.816C99.3604 43.24 99.4484 43.56 99.6244 43.776C99.8084 43.992 100.104 44.1 100.512 44.1C100.656 44.1 100.78 44.088 100.884 44.064C100.996 44.032 101.088 44.012 101.16 44.004C101.248 44.004 101.32 44.036 101.376 44.1C101.432 44.156 101.46 44.268 101.46 44.436C101.46 44.556 101.436 44.668 101.388 44.772C101.348 44.876 101.272 44.944 101.16 44.976C101.064 45.008 100.932 45.036 100.764 45.06C100.604 45.092 100.46 45.108 100.332 45.108ZM104.993 45.108C104.401 45.108 103.889 44.984 103.457 44.736C103.033 44.488 102.701 44.136 102.461 43.68C102.221 43.224 102.101 42.688 102.101 42.072C102.101 41.6 102.169 41.18 102.305 40.812C102.441 40.444 102.633 40.128 102.881 39.864C103.137 39.592 103.441 39.388 103.793 39.252C104.153 39.108 104.553 39.036 104.993 39.036C105.577 39.036 106.081 39.16 106.505 39.408C106.937 39.656 107.273 40.008 107.513 40.464C107.753 40.912 107.873 41.448 107.873 42.072C107.873 42.536 107.805 42.956 107.669 43.332C107.533 43.708 107.337 44.028 107.081 44.292C106.833 44.556 106.529 44.76 106.169 44.904C105.817 45.04 105.425 45.108 104.993 45.108ZM104.993 44.172C105.321 44.172 105.609 44.092 105.857 43.932C106.105 43.772 106.297 43.536 106.433 43.224C106.577 42.912 106.649 42.528 106.649 42.072C106.649 41.384 106.497 40.864 106.193 40.512C105.889 40.16 105.489 39.984 104.993 39.984C104.657 39.984 104.365 40.064 104.117 40.224C103.869 40.376 103.673 40.608 103.529 40.92C103.393 41.232 103.325 41.616 103.325 42.072C103.325 42.752 103.477 43.272 103.781 43.632C104.085 43.992 104.489 44.172 104.993 44.172ZM111.754 45.108C111.242 45.108 110.79 44.988 110.398 44.748C110.014 44.5 109.714 44.148 109.498 43.692C109.282 43.228 109.174 42.688 109.174 42.072C109.174 41.44 109.282 40.9 109.498 40.452C109.714 40.004 110.014 39.656 110.398 39.408C110.79 39.16 111.242 39.036 111.754 39.036C112.266 39.036 112.706 39.164 113.074 39.42C113.45 39.668 113.702 40.004 113.83 40.428H113.698V37.068C113.698 36.868 113.75 36.716 113.854 36.612C113.958 36.508 114.106 36.456 114.298 36.456C114.49 36.456 114.638 36.508 114.742 36.612C114.854 36.716 114.91 36.868 114.91 37.068V44.472C114.91 44.664 114.858 44.816 114.754 44.928C114.65 45.032 114.502 45.084 114.31 45.084C114.118 45.084 113.97 45.032 113.866 44.928C113.762 44.816 113.71 44.664 113.71 44.472V43.416L113.842 43.68C113.714 44.112 113.462 44.46 113.086 44.724C112.718 44.98 112.274 45.108 111.754 45.108ZM112.066 44.172C112.394 44.172 112.682 44.092 112.93 43.932C113.178 43.772 113.37 43.536 113.506 43.224C113.65 42.912 113.722 42.528 113.722 42.072C113.722 41.384 113.57 40.864 113.266 40.512C112.962 40.16 112.562 39.984 112.066 39.984C111.73 39.984 111.438 40.064 111.19 40.224C110.942 40.376 110.746 40.608 110.602 40.92C110.466 41.232 110.398 41.616 110.398 42.072C110.398 42.752 110.55 43.272 110.854 43.632C111.158 43.992 111.562 44.172 112.066 44.172ZM118.772 45.108C118.364 45.108 117.996 45.028 117.668 44.868C117.348 44.708 117.096 44.492 116.912 44.22C116.728 43.948 116.636 43.64 116.636 43.296C116.636 42.864 116.744 42.524 116.96 42.276C117.184 42.02 117.548 41.84 118.052 41.736C118.564 41.624 119.252 41.568 120.116 41.568H120.68V42.312H120.128C119.552 42.312 119.096 42.34 118.76 42.396C118.424 42.452 118.184 42.548 118.04 42.684C117.904 42.812 117.836 42.992 117.836 43.224C117.836 43.528 117.94 43.776 118.148 43.968C118.356 44.152 118.644 44.244 119.012 44.244C119.308 44.244 119.568 44.176 119.792 44.04C120.016 43.896 120.192 43.704 120.32 43.464C120.456 43.224 120.524 42.948 120.524 42.636V41.256C120.524 40.8 120.428 40.472 120.236 40.272C120.044 40.072 119.728 39.972 119.288 39.972C119.032 39.972 118.764 40.004 118.484 40.068C118.212 40.132 117.928 40.24 117.632 40.392C117.496 40.456 117.38 40.476 117.284 40.452C117.188 40.428 117.112 40.376 117.056 40.296C117 40.208 116.968 40.116 116.96 40.02C116.96 39.916 116.984 39.816 117.032 39.72C117.088 39.624 117.18 39.552 117.308 39.504C117.66 39.336 118.008 39.216 118.352 39.144C118.696 39.072 119.02 39.036 119.324 39.036C119.86 39.036 120.3 39.12 120.644 39.288C120.996 39.456 121.256 39.712 121.424 40.056C121.592 40.4 121.676 40.844 121.676 41.388V44.472C121.676 44.664 121.628 44.816 121.532 44.928C121.436 45.032 121.296 45.084 121.112 45.084C120.936 45.084 120.796 45.032 120.692 44.928C120.588 44.816 120.536 44.664 120.536 44.472V43.692H120.644C120.58 43.988 120.46 44.244 120.284 44.46C120.116 44.668 119.904 44.828 119.648 44.94C119.392 45.052 119.1 45.108 118.772 45.108ZM124.954 47.244C124.81 47.244 124.69 47.204 124.594 47.124C124.506 47.052 124.454 46.952 124.438 46.824C124.43 46.704 124.454 46.572 124.51 46.428L125.326 44.592V45.108L123.082 39.888C123.026 39.744 123.006 39.608 123.022 39.48C123.038 39.352 123.098 39.252 123.202 39.18C123.306 39.1 123.446 39.06 123.622 39.06C123.774 39.06 123.894 39.096 123.982 39.168C124.07 39.24 124.15 39.364 124.222 39.54L126.034 44.016H125.698L127.534 39.54C127.606 39.356 127.69 39.232 127.786 39.168C127.882 39.096 128.014 39.06 128.182 39.06C128.326 39.06 128.438 39.1 128.518 39.18C128.606 39.252 128.658 39.352 128.674 39.48C128.698 39.6 128.678 39.732 128.614 39.876L125.614 46.776C125.534 46.96 125.442 47.084 125.338 47.148C125.242 47.212 125.114 47.244 124.954 47.244ZM130.637 40.02C130.525 40.02 130.425 39.98 130.337 39.9C130.249 39.812 130.197 39.696 130.181 39.552L129.989 37.164C129.965 36.964 130.017 36.796 130.145 36.66C130.273 36.524 130.437 36.456 130.637 36.456C130.765 36.456 130.881 36.488 130.985 36.552C131.089 36.608 131.165 36.692 131.213 36.804C131.269 36.908 131.289 37.028 131.273 37.164L131.081 39.552C131.073 39.696 131.025 39.812 130.937 39.9C130.857 39.98 130.757 40.02 130.637 40.02ZM135.214 45.108C134.862 45.108 134.498 45.068 134.122 44.988C133.754 44.908 133.414 44.772 133.102 44.58C132.998 44.508 132.926 44.428 132.886 44.34C132.846 44.252 132.83 44.164 132.838 44.076C132.854 43.98 132.89 43.9 132.946 43.836C133.01 43.764 133.086 43.72 133.174 43.704C133.27 43.688 133.37 43.708 133.474 43.764C133.786 43.94 134.086 44.064 134.374 44.136C134.662 44.2 134.946 44.232 135.226 44.232C135.65 44.232 135.97 44.156 136.186 44.004C136.402 43.852 136.51 43.648 136.51 43.392C136.51 43.184 136.438 43.024 136.294 42.912C136.15 42.792 135.934 42.7 135.646 42.636L134.506 42.408C134.01 42.304 133.634 42.12 133.378 41.856C133.122 41.592 132.994 41.256 132.994 40.848C132.994 40.48 133.094 40.16 133.294 39.888C133.494 39.616 133.774 39.408 134.134 39.264C134.494 39.112 134.91 39.036 135.382 39.036C135.734 39.036 136.066 39.08 136.378 39.168C136.69 39.256 136.978 39.388 137.242 39.564C137.346 39.62 137.414 39.696 137.446 39.792C137.478 39.88 137.482 39.968 137.458 40.056C137.442 40.144 137.402 40.224 137.338 40.296C137.274 40.36 137.194 40.4 137.098 40.416C137.01 40.424 136.91 40.4 136.798 40.344C136.558 40.192 136.318 40.084 136.078 40.02C135.846 39.956 135.614 39.924 135.382 39.924C134.958 39.924 134.638 40.004 134.422 40.164C134.214 40.316 134.11 40.524 134.11 40.788C134.11 40.988 134.174 41.152 134.302 41.28C134.43 41.408 134.63 41.5 134.902 41.556L136.042 41.784C136.562 41.888 136.954 42.064 137.218 42.312C137.49 42.56 137.626 42.896 137.626 43.32C137.626 43.872 137.406 44.308 136.966 44.628C136.526 44.948 135.942 45.108 135.214 45.108ZM141.779 47.28C141.635 47.288 141.519 47.264 141.431 47.208C141.335 47.152 141.271 47.08 141.239 46.992C141.199 46.904 141.187 46.812 141.203 46.716C141.211 46.628 141.251 46.548 141.323 46.476C141.387 46.412 141.475 46.376 141.587 46.368C141.987 46.344 142.279 46.236 142.463 46.044C142.655 45.852 142.751 45.548 142.751 45.132V39.672C142.751 39.472 142.803 39.32 142.907 39.216C143.019 39.112 143.171 39.06 143.363 39.06C143.563 39.06 143.711 39.112 143.807 39.216C143.911 39.32 143.963 39.472 143.963 39.672V45.036C143.963 45.532 143.879 45.94 143.711 46.26C143.551 46.588 143.311 46.832 142.991 46.992C142.671 47.152 142.267 47.248 141.779 47.28ZM143.363 37.836C143.123 37.836 142.935 37.776 142.799 37.656C142.671 37.536 142.607 37.368 142.607 37.152C142.607 36.928 142.671 36.76 142.799 36.648C142.935 36.528 143.123 36.468 143.363 36.468C143.603 36.468 143.787 36.528 143.915 36.648C144.043 36.76 144.107 36.928 144.107 37.152C144.107 37.368 144.043 37.536 143.915 37.656C143.787 37.776 143.603 37.836 143.363 37.836ZM148.5 45.108C147.908 45.108 147.396 44.984 146.964 44.736C146.54 44.488 146.208 44.136 145.968 43.68C145.728 43.224 145.608 42.688 145.608 42.072C145.608 41.6 145.676 41.18 145.812 40.812C145.948 40.444 146.14 40.128 146.388 39.864C146.644 39.592 146.948 39.388 147.3 39.252C147.66 39.108 148.06 39.036 148.5 39.036C149.084 39.036 149.588 39.16 150.012 39.408C150.444 39.656 150.78 40.008 151.02 40.464C151.26 40.912 151.38 41.448 151.38 42.072C151.38 42.536 151.312 42.956 151.176 43.332C151.04 43.708 150.844 44.028 150.588 44.292C150.34 44.556 150.036 44.76 149.676 44.904C149.324 45.04 148.932 45.108 148.5 45.108ZM148.5 44.172C148.828 44.172 149.116 44.092 149.364 43.932C149.612 43.772 149.804 43.536 149.94 43.224C150.084 42.912 150.156 42.528 150.156 42.072C150.156 41.384 150.004 40.864 149.7 40.512C149.396 40.16 148.996 39.984 148.5 39.984C148.164 39.984 147.872 40.064 147.624 40.224C147.376 40.376 147.18 40.608 147.036 40.92C146.9 41.232 146.832 41.616 146.832 42.072C146.832 42.752 146.984 43.272 147.288 43.632C147.592 43.992 147.996 44.172 148.5 44.172ZM155.117 45.108C154.645 45.108 154.249 45.02 153.929 44.844C153.617 44.668 153.381 44.408 153.221 44.064C153.069 43.712 152.993 43.272 152.993 42.744V39.672C152.993 39.464 153.045 39.312 153.149 39.216C153.253 39.112 153.401 39.06 153.593 39.06C153.785 39.06 153.933 39.112 154.037 39.216C154.149 39.312 154.205 39.464 154.205 39.672V42.756C154.205 43.228 154.301 43.576 154.493 43.8C154.685 44.024 154.989 44.136 155.405 44.136C155.861 44.136 156.229 43.984 156.509 43.68C156.797 43.368 156.941 42.96 156.941 42.456V39.672C156.941 39.464 156.993 39.312 157.097 39.216C157.201 39.112 157.353 39.06 157.553 39.06C157.745 39.06 157.893 39.112 157.997 39.216C158.101 39.312 158.153 39.464 158.153 39.672V44.472C158.153 44.88 157.957 45.084 157.565 45.084C157.381 45.084 157.237 45.032 157.133 44.928C157.029 44.816 156.977 44.664 156.977 44.472V43.452L157.133 43.716C156.973 44.164 156.717 44.508 156.365 44.748C156.013 44.988 155.597 45.108 155.117 45.108ZM160.761 45.084C160.561 45.084 160.409 45.032 160.305 44.928C160.201 44.816 160.149 44.664 160.149 44.472V39.672C160.149 39.472 160.201 39.32 160.305 39.216C160.409 39.112 160.553 39.06 160.737 39.06C160.929 39.06 161.073 39.112 161.169 39.216C161.273 39.32 161.325 39.472 161.325 39.672V40.548H161.205C161.333 40.068 161.569 39.704 161.913 39.456C162.257 39.208 162.697 39.064 163.233 39.024C163.377 39.016 163.489 39.052 163.569 39.132C163.657 39.212 163.705 39.336 163.713 39.504C163.729 39.672 163.693 39.808 163.605 39.912C163.517 40.008 163.381 40.064 163.197 40.08L162.969 40.104C162.449 40.152 162.053 40.316 161.781 40.596C161.509 40.876 161.373 41.26 161.373 41.748V44.472C161.373 44.664 161.321 44.816 161.217 44.928C161.121 45.032 160.969 45.084 160.761 45.084ZM165.513 45.084C165.321 45.084 165.173 45.032 165.069 44.928C164.965 44.816 164.913 44.664 164.913 44.472V39.672C164.913 39.472 164.965 39.32 165.069 39.216C165.173 39.112 165.317 39.06 165.501 39.06C165.693 39.06 165.837 39.112 165.933 39.216C166.037 39.32 166.089 39.472 166.089 39.672V40.608L165.957 40.392C166.133 39.944 166.409 39.608 166.785 39.384C167.161 39.152 167.593 39.036 168.081 39.036C168.545 39.036 168.929 39.124 169.233 39.3C169.545 39.468 169.777 39.728 169.929 40.08C170.081 40.424 170.157 40.86 170.157 41.388V44.472C170.157 44.664 170.105 44.816 170.001 44.928C169.897 45.032 169.749 45.084 169.557 45.084C169.357 45.084 169.205 45.032 169.101 44.928C168.997 44.816 168.945 44.664 168.945 44.472V41.46C168.945 40.956 168.845 40.588 168.645 40.356C168.453 40.124 168.149 40.008 167.733 40.008C167.245 40.008 166.853 40.16 166.557 40.464C166.269 40.768 166.125 41.176 166.125 41.688V44.472C166.125 44.88 165.921 45.084 165.513 45.084ZM174.864 45.108C174.224 45.108 173.672 44.988 173.208 44.748C172.752 44.5 172.396 44.152 172.14 43.704C171.892 43.248 171.768 42.708 171.768 42.084C171.768 41.476 171.892 40.944 172.14 40.488C172.388 40.032 172.728 39.676 173.16 39.42C173.592 39.164 174.084 39.036 174.636 39.036C175.044 39.036 175.408 39.104 175.728 39.24C176.048 39.368 176.32 39.56 176.544 39.816C176.776 40.064 176.948 40.368 177.06 40.728C177.18 41.088 177.24 41.492 177.24 41.94C177.24 42.076 177.2 42.18 177.12 42.252C177.04 42.316 176.92 42.348 176.76 42.348H172.728V41.604H176.424L176.22 41.772C176.22 41.372 176.16 41.032 176.04 40.752C175.928 40.472 175.756 40.26 175.524 40.116C175.3 39.964 175.02 39.888 174.684 39.888C174.308 39.888 173.988 39.976 173.724 40.152C173.468 40.328 173.272 40.572 173.136 40.884C173 41.196 172.932 41.56 172.932 41.976V42.048C172.932 42.752 173.096 43.284 173.424 43.644C173.76 43.996 174.244 44.172 174.876 44.172C175.116 44.172 175.368 44.14 175.632 44.076C175.904 44.012 176.16 43.904 176.4 43.752C176.536 43.672 176.656 43.636 176.76 43.644C176.872 43.652 176.96 43.688 177.024 43.752C177.096 43.816 177.14 43.896 177.156 43.992C177.172 44.088 177.156 44.188 177.108 44.292C177.06 44.388 176.976 44.476 176.856 44.556C176.584 44.74 176.268 44.88 175.908 44.976C175.548 45.064 175.2 45.108 174.864 45.108ZM180.147 47.244C180.003 47.244 179.883 47.204 179.787 47.124C179.699 47.052 179.647 46.952 179.631 46.824C179.623 46.704 179.647 46.572 179.703 46.428L180.519 44.592V45.108L178.275 39.888C178.219 39.744 178.199 39.608 178.215 39.48C178.231 39.352 178.291 39.252 178.395 39.18C178.499 39.1 178.639 39.06 178.815 39.06C178.967 39.06 179.087 39.096 179.175 39.168C179.263 39.24 179.343 39.364 179.415 39.54L181.227 44.016H180.891L182.727 39.54C182.799 39.356 182.883 39.232 182.979 39.168C183.075 39.096 183.207 39.06 183.375 39.06C183.519 39.06 183.631 39.1 183.711 39.18C183.799 39.252 183.851 39.352 183.867 39.48C183.891 39.6 183.871 39.732 183.807 39.876L180.807 46.776C180.727 46.96 180.635 47.084 180.531 47.148C180.435 47.212 180.307 47.244 180.147 47.244ZM189.341 45.072C189.149 45.072 189.001 45.016 188.897 44.904C188.793 44.784 188.741 44.62 188.741 44.412V39.732C188.741 39.524 188.793 39.364 188.897 39.252C189.001 39.14 189.149 39.084 189.341 39.084C189.533 39.084 189.681 39.14 189.785 39.252C189.897 39.364 189.953 39.524 189.953 39.732V44.412C189.953 44.62 189.901 44.784 189.797 44.904C189.693 45.016 189.541 45.072 189.341 45.072ZM189.341 37.836C189.101 37.836 188.913 37.776 188.777 37.656C188.649 37.536 188.585 37.368 188.585 37.152C188.585 36.928 188.649 36.76 188.777 36.648C188.913 36.528 189.101 36.468 189.341 36.468C189.581 36.468 189.765 36.528 189.893 36.648C190.029 36.76 190.097 36.928 190.097 37.152C190.097 37.368 190.029 37.536 189.893 37.656C189.765 37.776 189.581 37.836 189.341 37.836ZM192.547 45.084C192.355 45.084 192.207 45.032 192.103 44.928C191.999 44.816 191.947 44.664 191.947 44.472V39.672C191.947 39.472 191.999 39.32 192.103 39.216C192.207 39.112 192.351 39.06 192.535 39.06C192.727 39.06 192.871 39.112 192.967 39.216C193.071 39.32 193.123 39.472 193.123 39.672V40.608L192.991 40.392C193.167 39.944 193.443 39.608 193.819 39.384C194.195 39.152 194.627 39.036 195.115 39.036C195.579 39.036 195.963 39.124 196.267 39.3C196.579 39.468 196.811 39.728 196.963 40.08C197.115 40.424 197.191 40.86 197.191 41.388V44.472C197.191 44.664 197.139 44.816 197.035 44.928C196.931 45.032 196.783 45.084 196.591 45.084C196.391 45.084 196.239 45.032 196.135 44.928C196.031 44.816 195.979 44.664 195.979 44.472V41.46C195.979 40.956 195.879 40.588 195.679 40.356C195.487 40.124 195.183 40.008 194.767 40.008C194.279 40.008 193.887 40.16 193.591 40.464C193.303 40.768 193.159 41.176 193.159 41.688V44.472C193.159 44.88 192.955 45.084 192.547 45.084ZM201.645 45.108C201.165 45.108 200.761 45.024 200.433 44.856C200.105 44.688 199.861 44.44 199.701 44.112C199.541 43.784 199.461 43.384 199.461 42.912V40.08H198.741C198.581 40.08 198.457 40.04 198.369 39.96C198.281 39.872 198.237 39.756 198.237 39.612C198.237 39.46 198.281 39.344 198.369 39.264C198.457 39.184 198.581 39.144 198.741 39.144H199.461V37.908C199.461 37.708 199.513 37.556 199.617 37.452C199.729 37.348 199.881 37.296 200.073 37.296C200.265 37.296 200.413 37.348 200.517 37.452C200.621 37.556 200.673 37.708 200.673 37.908V39.144H202.077C202.237 39.144 202.361 39.184 202.449 39.264C202.537 39.344 202.581 39.46 202.581 39.612C202.581 39.756 202.537 39.872 202.449 39.96C202.361 40.04 202.237 40.08 202.077 40.08H200.673V42.816C200.673 43.24 200.761 43.56 200.937 43.776C201.121 43.992 201.417 44.1 201.825 44.1C201.969 44.1 202.093 44.088 202.197 44.064C202.309 44.032 202.401 44.012 202.473 44.004C202.561 44.004 202.633 44.036 202.689 44.1C202.745 44.156 202.773 44.268 202.773 44.436C202.773 44.556 202.749 44.668 202.701 44.772C202.661 44.876 202.585 44.944 202.473 44.976C202.377 45.008 202.245 45.036 202.077 45.06C201.917 45.092 201.773 45.108 201.645 45.108ZM206.306 45.108C205.714 45.108 205.202 44.984 204.77 44.736C204.346 44.488 204.014 44.136 203.774 43.68C203.534 43.224 203.414 42.688 203.414 42.072C203.414 41.6 203.482 41.18 203.618 40.812C203.754 40.444 203.946 40.128 204.194 39.864C204.45 39.592 204.754 39.388 205.106 39.252C205.466 39.108 205.866 39.036 206.306 39.036C206.89 39.036 207.394 39.16 207.818 39.408C208.25 39.656 208.586 40.008 208.826 40.464C209.066 40.912 209.186 41.448 209.186 42.072C209.186 42.536 209.118 42.956 208.982 43.332C208.846 43.708 208.65 44.028 208.394 44.292C208.146 44.556 207.842 44.76 207.482 44.904C207.13 45.04 206.738 45.108 206.306 45.108ZM206.306 44.172C206.634 44.172 206.922 44.092 207.17 43.932C207.418 43.772 207.61 43.536 207.746 43.224C207.89 42.912 207.962 42.528 207.962 42.072C207.962 41.384 207.81 40.864 207.506 40.512C207.202 40.16 206.802 39.984 206.306 39.984C205.97 39.984 205.678 40.064 205.43 40.224C205.182 40.376 204.986 40.608 204.842 40.92C204.706 41.232 204.638 41.616 204.638 42.072C204.638 42.752 204.79 43.272 205.094 43.632C205.398 43.992 205.802 44.172 206.306 44.172ZM19.4513 63.084C19.2593 63.084 19.1113 63.032 19.0073 62.928C18.9033 62.816 18.8513 62.664 18.8513 62.472V57.672C18.8513 57.472 18.9033 57.32 19.0073 57.216C19.1113 57.112 19.2553 57.06 19.4393 57.06C19.6313 57.06 19.7753 57.112 19.8713 57.216C19.9753 57.32 20.0273 57.472 20.0273 57.672V58.608L19.8953 58.392C20.0713 57.944 20.3473 57.608 20.7233 57.384C21.0993 57.152 21.5313 57.036 22.0193 57.036C22.4833 57.036 22.8673 57.124 23.1713 57.3C23.4833 57.468 23.7153 57.728 23.8673 58.08C24.0193 58.424 24.0953 58.86 24.0953 59.388V62.472C24.0953 62.664 24.0433 62.816 23.9393 62.928C23.8353 63.032 23.6873 63.084 23.4953 63.084C23.2953 63.084 23.1433 63.032 23.0393 62.928C22.9353 62.816 22.8833 62.664 22.8833 62.472V59.46C22.8833 58.956 22.7833 58.588 22.5833 58.356C22.3913 58.124 22.0873 58.008 21.6713 58.008C21.1833 58.008 20.7913 58.16 20.4953 58.464C20.2073 58.768 20.0633 59.176 20.0633 59.688V62.472C20.0633 62.88 19.8593 63.084 19.4513 63.084ZM28.8013 63.108C28.1613 63.108 27.6093 62.988 27.1453 62.748C26.6893 62.5 26.3333 62.152 26.0773 61.704C25.8293 61.248 25.7053 60.708 25.7053 60.084C25.7053 59.476 25.8293 58.944 26.0773 58.488C26.3253 58.032 26.6653 57.676 27.0973 57.42C27.5293 57.164 28.0213 57.036 28.5733 57.036C28.9813 57.036 29.3453 57.104 29.6653 57.24C29.9853 57.368 30.2573 57.56 30.4813 57.816C30.7133 58.064 30.8853 58.368 30.9973 58.728C31.1173 59.088 31.1773 59.492 31.1773 59.94C31.1773 60.076 31.1373 60.18 31.0573 60.252C30.9773 60.316 30.8573 60.348 30.6973 60.348H26.6653V59.604H30.3613L30.1573 59.772C30.1573 59.372 30.0973 59.032 29.9773 58.752C29.8653 58.472 29.6933 58.26 29.4613 58.116C29.2373 57.964 28.9573 57.888 28.6213 57.888C28.2453 57.888 27.9253 57.976 27.6613 58.152C27.4053 58.328 27.2093 58.572 27.0733 58.884C26.9373 59.196 26.8693 59.56 26.8693 59.976V60.048C26.8693 60.752 27.0333 61.284 27.3613 61.644C27.6973 61.996 28.1813 62.172 28.8133 62.172C29.0533 62.172 29.3053 62.14 29.5693 62.076C29.8413 62.012 30.0973 61.904 30.3373 61.752C30.4733 61.672 30.5933 61.636 30.6973 61.644C30.8093 61.652 30.8973 61.688 30.9613 61.752C31.0333 61.816 31.0773 61.896 31.0933 61.992C31.1093 62.088 31.0933 62.188 31.0453 62.292C30.9973 62.388 30.9133 62.476 30.7933 62.556C30.5213 62.74 30.2053 62.88 29.8453 62.976C29.4853 63.064 29.1373 63.108 28.8013 63.108ZM34.8406 63.084C34.6726 63.084 34.5246 63.044 34.3966 62.964C34.2766 62.876 34.1806 62.74 34.1086 62.556L32.3446 57.888C32.2806 57.728 32.2606 57.588 32.2846 57.468C32.3086 57.34 32.3686 57.24 32.4646 57.168C32.5686 57.096 32.7006 57.06 32.8606 57.06C33.0046 57.06 33.1206 57.096 33.2086 57.168C33.3046 57.232 33.3846 57.36 33.4486 57.552L35.0206 61.98H34.7326L36.3646 57.504C36.4206 57.352 36.4966 57.24 36.5926 57.168C36.6886 57.096 36.8126 57.06 36.9646 57.06C37.1166 57.06 37.2406 57.096 37.3366 57.168C37.4406 57.24 37.5166 57.352 37.5646 57.504L39.1606 61.98H38.8966L40.4926 57.528C40.5566 57.344 40.6366 57.22 40.7326 57.156C40.8366 57.092 40.9526 57.06 41.0806 57.06C41.2406 57.06 41.3606 57.1 41.4406 57.18C41.5286 57.26 41.5766 57.364 41.5846 57.492C41.6006 57.612 41.5806 57.744 41.5246 57.888L39.7606 62.556C39.6886 62.732 39.5886 62.864 39.4606 62.952C39.3406 63.04 39.2006 63.084 39.0406 63.084C38.8726 63.084 38.7246 63.04 38.5966 62.952C38.4766 62.864 38.3806 62.732 38.3086 62.556L36.6286 58.008H37.2286L35.5606 62.556C35.4966 62.732 35.4006 62.864 35.2726 62.952C35.1526 63.04 35.0086 63.084 34.8406 63.084ZM47.1931 63.084C47.0011 63.084 46.8531 63.032 46.7491 62.928C46.6451 62.816 46.5931 62.664 46.5931 62.472V55.068C46.5931 54.868 46.6451 54.716 46.7491 54.612C46.8531 54.508 47.0011 54.456 47.1931 54.456C47.3851 54.456 47.5331 54.508 47.6371 54.612C47.7491 54.716 47.8051 54.868 47.8051 55.068V59.7H47.8291L50.0731 57.468C50.2011 57.34 50.3171 57.24 50.4211 57.168C50.5251 57.096 50.6611 57.06 50.8291 57.06C50.9971 57.06 51.1251 57.104 51.2131 57.192C51.3011 57.28 51.3451 57.388 51.3451 57.516C51.3451 57.636 51.2851 57.76 51.1651 57.888L48.7891 60.24V59.676L51.3811 62.256C51.5091 62.384 51.5691 62.512 51.5611 62.64C51.5531 62.768 51.5011 62.876 51.4051 62.964C51.3091 63.044 51.1891 63.084 51.0451 63.084C50.8611 63.084 50.7131 63.048 50.6011 62.976C50.4971 62.904 50.3731 62.796 50.2291 62.652L47.8291 60.324H47.8051V62.472C47.8051 62.88 47.6011 63.084 47.1931 63.084ZM53.6686 63.084C53.4766 63.084 53.3286 63.032 53.2246 62.928C53.1206 62.816 53.0686 62.664 53.0686 62.472V57.672C53.0686 57.472 53.1206 57.32 53.2246 57.216C53.3286 57.112 53.4726 57.06 53.6566 57.06C53.8486 57.06 53.9926 57.112 54.0886 57.216C54.1926 57.32 54.2446 57.472 54.2446 57.672V58.608L54.1126 58.392C54.2886 57.944 54.5646 57.608 54.9406 57.384C55.3166 57.152 55.7486 57.036 56.2366 57.036C56.7006 57.036 57.0846 57.124 57.3886 57.3C57.7006 57.468 57.9326 57.728 58.0846 58.08C58.2366 58.424 58.3126 58.86 58.3126 59.388V62.472C58.3126 62.664 58.2606 62.816 58.1566 62.928C58.0526 63.032 57.9046 63.084 57.7126 63.084C57.5126 63.084 57.3606 63.032 57.2566 62.928C57.1526 62.816 57.1006 62.664 57.1006 62.472V59.46C57.1006 58.956 57.0006 58.588 56.8006 58.356C56.6086 58.124 56.3046 58.008 55.8886 58.008C55.4006 58.008 55.0086 58.16 54.7126 58.464C54.4246 58.768 54.2806 59.176 54.2806 59.688V62.472C54.2806 62.88 54.0766 63.084 53.6686 63.084ZM62.8147 63.108C62.2227 63.108 61.7107 62.984 61.2787 62.736C60.8547 62.488 60.5227 62.136 60.2827 61.68C60.0427 61.224 59.9227 60.688 59.9227 60.072C59.9227 59.6 59.9907 59.18 60.1267 58.812C60.2627 58.444 60.4547 58.128 60.7027 57.864C60.9587 57.592 61.2627 57.388 61.6147 57.252C61.9747 57.108 62.3747 57.036 62.8147 57.036C63.3987 57.036 63.9027 57.16 64.3267 57.408C64.7587 57.656 65.0947 58.008 65.3347 58.464C65.5747 58.912 65.6947 59.448 65.6947 60.072C65.6947 60.536 65.6267 60.956 65.4907 61.332C65.3547 61.708 65.1587 62.028 64.9027 62.292C64.6547 62.556 64.3507 62.76 63.9907 62.904C63.6387 63.04 63.2467 63.108 62.8147 63.108ZM62.8147 62.172C63.1427 62.172 63.4307 62.092 63.6787 61.932C63.9267 61.772 64.1187 61.536 64.2547 61.224C64.3987 60.912 64.4707 60.528 64.4707 60.072C64.4707 59.384 64.3187 58.864 64.0147 58.512C63.7107 58.16 63.3107 57.984 62.8147 57.984C62.4787 57.984 62.1867 58.064 61.9387 58.224C61.6907 58.376 61.4947 58.608 61.3507 58.92C61.2147 59.232 61.1467 59.616 61.1467 60.072C61.1467 60.752 61.2987 61.272 61.6027 61.632C61.9067 61.992 62.3107 62.172 62.8147 62.172ZM69.3744 63.084C69.2064 63.084 69.0584 63.044 68.9304 62.964C68.8104 62.876 68.7144 62.74 68.6424 62.556L66.8784 57.888C66.8144 57.728 66.7944 57.588 66.8184 57.468C66.8424 57.34 66.9024 57.24 66.9984 57.168C67.1024 57.096 67.2344 57.06 67.3944 57.06C67.5384 57.06 67.6544 57.096 67.7424 57.168C67.8384 57.232 67.9184 57.36 67.9824 57.552L69.5544 61.98H69.2664L70.8984 57.504C70.9544 57.352 71.0304 57.24 71.1264 57.168C71.2224 57.096 71.3464 57.06 71.4984 57.06C71.6504 57.06 71.7744 57.096 71.8704 57.168C71.9744 57.24 72.0504 57.352 72.0984 57.504L73.6944 61.98H73.4304L75.0264 57.528C75.0904 57.344 75.1704 57.22 75.2664 57.156C75.3704 57.092 75.4864 57.06 75.6144 57.06C75.7744 57.06 75.8944 57.1 75.9744 57.18C76.0624 57.26 76.1104 57.364 76.1184 57.492C76.1344 57.612 76.1144 57.744 76.0584 57.888L74.2944 62.556C74.2224 62.732 74.1224 62.864 73.9944 62.952C73.8744 63.04 73.7344 63.084 73.5744 63.084C73.4064 63.084 73.2584 63.04 73.1304 62.952C73.0104 62.864 72.9144 62.732 72.8424 62.556L71.1624 58.008H71.7624L70.0944 62.556C70.0304 62.732 69.9344 62.864 69.8064 62.952C69.6864 63.04 69.5424 63.084 69.3744 63.084ZM79.5588 63.108C78.9348 63.108 78.4628 62.928 78.1428 62.568C77.8308 62.2 77.6748 61.672 77.6748 60.984V55.068C77.6748 54.868 77.7268 54.716 77.8308 54.612C77.9348 54.508 78.0828 54.456 78.2748 54.456C78.4668 54.456 78.6148 54.508 78.7188 54.612C78.8308 54.716 78.8868 54.868 78.8868 55.068V60.912C78.8868 61.312 78.9668 61.612 79.1268 61.812C79.2948 62.004 79.5348 62.1 79.8468 62.1C79.9188 62.1 79.9828 62.1 80.0388 62.1C80.0948 62.092 80.1508 62.084 80.2068 62.076C80.3028 62.068 80.3708 62.096 80.4108 62.16C80.4508 62.216 80.4708 62.336 80.4708 62.52C80.4708 62.688 80.4348 62.82 80.3628 62.916C80.2908 63.004 80.1748 63.06 80.0148 63.084C79.9428 63.092 79.8668 63.096 79.7868 63.096C79.7068 63.104 79.6308 63.108 79.5588 63.108ZM84.3202 63.108C83.6802 63.108 83.1282 62.988 82.6642 62.748C82.2082 62.5 81.8522 62.152 81.5962 61.704C81.3482 61.248 81.2242 60.708 81.2242 60.084C81.2242 59.476 81.3482 58.944 81.5962 58.488C81.8442 58.032 82.1842 57.676 82.6162 57.42C83.0482 57.164 83.5402 57.036 84.0922 57.036C84.5002 57.036 84.8642 57.104 85.1842 57.24C85.5042 57.368 85.7762 57.56 86.0002 57.816C86.2322 58.064 86.4042 58.368 86.5162 58.728C86.6362 59.088 86.6962 59.492 86.6962 59.94C86.6962 60.076 86.6562 60.18 86.5762 60.252C86.4962 60.316 86.3762 60.348 86.2162 60.348H82.1842V59.604H85.8802L85.6762 59.772C85.6762 59.372 85.6162 59.032 85.4962 58.752C85.3842 58.472 85.2122 58.26 84.9802 58.116C84.7562 57.964 84.4762 57.888 84.1402 57.888C83.7642 57.888 83.4442 57.976 83.1802 58.152C82.9242 58.328 82.7282 58.572 82.5922 58.884C82.4562 59.196 82.3882 59.56 82.3882 59.976V60.048C82.3882 60.752 82.5522 61.284 82.8802 61.644C83.2162 61.996 83.7002 62.172 84.3322 62.172C84.5722 62.172 84.8242 62.14 85.0882 62.076C85.3602 62.012 85.6162 61.904 85.8562 61.752C85.9922 61.672 86.1122 61.636 86.2162 61.644C86.3282 61.652 86.4162 61.688 86.4802 61.752C86.5522 61.816 86.5962 61.896 86.6122 61.992C86.6282 62.088 86.6122 62.188 86.5642 62.292C86.5162 62.388 86.4322 62.476 86.3122 62.556C86.0402 62.74 85.7242 62.88 85.3642 62.976C85.0042 63.064 84.6562 63.108 84.3202 63.108ZM90.5375 63.108C90.0255 63.108 89.5735 62.988 89.1815 62.748C88.7975 62.5 88.4975 62.148 88.2815 61.692C88.0655 61.228 87.9575 60.688 87.9575 60.072C87.9575 59.44 88.0655 58.9 88.2815 58.452C88.4975 58.004 88.7975 57.656 89.1815 57.408C89.5735 57.16 90.0255 57.036 90.5375 57.036C91.0495 57.036 91.4895 57.164 91.8575 57.42C92.2335 57.668 92.4855 58.004 92.6135 58.428H92.4815V55.068C92.4815 54.868 92.5335 54.716 92.6375 54.612C92.7415 54.508 92.8895 54.456 93.0815 54.456C93.2735 54.456 93.4215 54.508 93.5255 54.612C93.6375 54.716 93.6935 54.868 93.6935 55.068V62.472C93.6935 62.664 93.6415 62.816 93.5375 62.928C93.4335 63.032 93.2855 63.084 93.0935 63.084C92.9015 63.084 92.7535 63.032 92.6495 62.928C92.5455 62.816 92.4935 62.664 92.4935 62.472V61.416L92.6255 61.68C92.4975 62.112 92.2455 62.46 91.8695 62.724C91.5015 62.98 91.0575 63.108 90.5375 63.108ZM90.8495 62.172C91.1775 62.172 91.4655 62.092 91.7135 61.932C91.9615 61.772 92.1535 61.536 92.2895 61.224C92.4335 60.912 92.5055 60.528 92.5055 60.072C92.5055 59.384 92.3535 58.864 92.0495 58.512C91.7455 58.16 91.3455 57.984 90.8495 57.984C90.5135 57.984 90.2215 58.064 89.9735 58.224C89.7255 58.376 89.5295 58.608 89.3855 58.92C89.2495 59.232 89.1815 59.616 89.1815 60.072C89.1815 60.752 89.3335 61.272 89.6375 61.632C89.9415 61.992 90.3455 62.172 90.8495 62.172ZM98.3353 65.268C97.9033 65.268 97.4833 65.224 97.0753 65.136C96.6753 65.048 96.3113 64.904 95.9833 64.704C95.8633 64.64 95.7833 64.56 95.7433 64.464C95.7033 64.376 95.6913 64.284 95.7073 64.188C95.7313 64.092 95.7753 64.008 95.8393 63.936C95.9033 63.864 95.9793 63.816 96.0673 63.792C96.1633 63.768 96.2633 63.784 96.3673 63.84C96.7193 64.032 97.0513 64.16 97.3633 64.224C97.6833 64.296 97.9793 64.332 98.2513 64.332C98.8113 64.332 99.2313 64.188 99.5113 63.9C99.7913 63.62 99.9313 63.204 99.9313 62.652V61.428H100.039C99.9193 61.868 99.6673 62.216 99.2833 62.472C98.8993 62.728 98.4553 62.856 97.9513 62.856C97.4233 62.856 96.9633 62.736 96.5713 62.496C96.1793 62.248 95.8753 61.908 95.6593 61.476C95.4433 61.036 95.3353 60.524 95.3353 59.94C95.3353 59.5 95.3953 59.104 95.5153 58.752C95.6433 58.4 95.8193 58.096 96.0433 57.84C96.2753 57.584 96.5513 57.388 96.8713 57.252C97.1993 57.108 97.5593 57.036 97.9513 57.036C98.4633 57.036 98.9073 57.164 99.2833 57.42C99.6673 57.676 99.9153 58.024 100.027 58.464L99.9073 58.668V57.672C99.9073 57.472 99.9593 57.32 100.063 57.216C100.175 57.112 100.323 57.06 100.507 57.06C100.699 57.06 100.847 57.112 100.951 57.216C101.055 57.32 101.107 57.472 101.107 57.672V62.508C101.107 63.42 100.871 64.108 100.399 64.572C99.9273 65.036 99.2393 65.268 98.3353 65.268ZM98.2393 61.908C98.5913 61.908 98.8913 61.828 99.1393 61.668C99.3873 61.508 99.5793 61.28 99.7153 60.984C99.8513 60.688 99.9193 60.34 99.9193 59.94C99.9193 59.34 99.7673 58.864 99.4633 58.512C99.1673 58.16 98.7593 57.984 98.2393 57.984C97.8953 57.984 97.5993 58.064 97.3513 58.224C97.1033 58.384 96.9073 58.612 96.7633 58.908C96.6273 59.196 96.5593 59.54 96.5593 59.94C96.5593 60.548 96.7113 61.028 97.0153 61.38C97.3193 61.732 97.7273 61.908 98.2393 61.908ZM105.844 63.108C105.204 63.108 104.652 62.988 104.188 62.748C103.732 62.5 103.376 62.152 103.12 61.704C102.872 61.248 102.748 60.708 102.748 60.084C102.748 59.476 102.872 58.944 103.12 58.488C103.368 58.032 103.708 57.676 104.14 57.42C104.572 57.164 105.064 57.036 105.616 57.036C106.024 57.036 106.388 57.104 106.708 57.24C107.028 57.368 107.3 57.56 107.524 57.816C107.756 58.064 107.928 58.368 108.04 58.728C108.16 59.088 108.22 59.492 108.22 59.94C108.22 60.076 108.18 60.18 108.1 60.252C108.02 60.316 107.9 60.348 107.74 60.348H103.708V59.604H107.404L107.2 59.772C107.2 59.372 107.14 59.032 107.02 58.752C106.908 58.472 106.736 58.26 106.504 58.116C106.28 57.964 106 57.888 105.664 57.888C105.288 57.888 104.968 57.976 104.704 58.152C104.448 58.328 104.252 58.572 104.116 58.884C103.98 59.196 103.912 59.56 103.912 59.976V60.048C103.912 60.752 104.076 61.284 104.404 61.644C104.74 61.996 105.224 62.172 105.856 62.172C106.096 62.172 106.348 62.14 106.612 62.076C106.884 62.012 107.14 61.904 107.38 61.752C107.516 61.672 107.636 61.636 107.74 61.644C107.852 61.652 107.94 61.688 108.004 61.752C108.076 61.816 108.12 61.896 108.136 61.992C108.152 62.088 108.136 62.188 108.088 62.292C108.04 62.388 107.956 62.476 107.836 62.556C107.564 62.74 107.248 62.88 106.888 62.976C106.528 63.064 106.18 63.108 105.844 63.108ZM115.154 63.108C114.746 63.108 114.378 63.028 114.05 62.868C113.73 62.708 113.478 62.492 113.294 62.22C113.11 61.948 113.018 61.64 113.018 61.296C113.018 60.864 113.126 60.524 113.342 60.276C113.566 60.02 113.93 59.84 114.434 59.736C114.946 59.624 115.634 59.568 116.498 59.568H117.062V60.312H116.51C115.934 60.312 115.478 60.34 115.142 60.396C114.806 60.452 114.566 60.548 114.422 60.684C114.286 60.812 114.218 60.992 114.218 61.224C114.218 61.528 114.322 61.776 114.53 61.968C114.738 62.152 115.026 62.244 115.394 62.244C115.69 62.244 115.95 62.176 116.174 62.04C116.398 61.896 116.574 61.704 116.702 61.464C116.838 61.224 116.906 60.948 116.906 60.636V59.256C116.906 58.8 116.81 58.472 116.618 58.272C116.426 58.072 116.11 57.972 115.67 57.972C115.414 57.972 115.146 58.004 114.866 58.068C114.594 58.132 114.31 58.24 114.014 58.392C113.878 58.456 113.762 58.476 113.666 58.452C113.57 58.428 113.494 58.376 113.438 58.296C113.382 58.208 113.35 58.116 113.342 58.02C113.342 57.916 113.366 57.816 113.414 57.72C113.47 57.624 113.562 57.552 113.69 57.504C114.042 57.336 114.39 57.216 114.734 57.144C115.078 57.072 115.402 57.036 115.706 57.036C116.242 57.036 116.682 57.12 117.026 57.288C117.378 57.456 117.638 57.712 117.806 58.056C117.974 58.4 118.058 58.844 118.058 59.388V62.472C118.058 62.664 118.01 62.816 117.914 62.928C117.818 63.032 117.678 63.084 117.494 63.084C117.318 63.084 117.178 63.032 117.074 62.928C116.97 62.816 116.918 62.664 116.918 62.472V61.692H117.026C116.962 61.988 116.842 62.244 116.666 62.46C116.498 62.668 116.286 62.828 116.03 62.94C115.774 63.052 115.482 63.108 115.154 63.108ZM120.615 63.084C120.423 63.084 120.275 63.032 120.171 62.928C120.067 62.816 120.015 62.664 120.015 62.472V57.672C120.015 57.472 120.067 57.32 120.171 57.216C120.275 57.112 120.419 57.06 120.603 57.06C120.795 57.06 120.939 57.112 121.035 57.216C121.139 57.32 121.191 57.472 121.191 57.672V58.608L121.059 58.392C121.235 57.944 121.511 57.608 121.887 57.384C122.263 57.152 122.695 57.036 123.183 57.036C123.647 57.036 124.031 57.124 124.335 57.3C124.647 57.468 124.879 57.728 125.031 58.08C125.183 58.424 125.259 58.86 125.259 59.388V62.472C125.259 62.664 125.207 62.816 125.103 62.928C124.999 63.032 124.851 63.084 124.659 63.084C124.459 63.084 124.307 63.032 124.203 62.928C124.099 62.816 124.047 62.664 124.047 62.472V59.46C124.047 58.956 123.947 58.588 123.747 58.356C123.555 58.124 123.251 58.008 122.835 58.008C122.347 58.008 121.955 58.16 121.659 58.464C121.371 58.768 121.227 59.176 121.227 59.688V62.472C121.227 62.88 121.023 63.084 120.615 63.084ZM129.449 63.108C128.937 63.108 128.485 62.988 128.093 62.748C127.709 62.5 127.409 62.148 127.193 61.692C126.977 61.228 126.869 60.688 126.869 60.072C126.869 59.44 126.977 58.9 127.193 58.452C127.409 58.004 127.709 57.656 128.093 57.408C128.485 57.16 128.937 57.036 129.449 57.036C129.961 57.036 130.401 57.164 130.769 57.42C131.145 57.668 131.397 58.004 131.525 58.428H131.393V55.068C131.393 54.868 131.445 54.716 131.549 54.612C131.653 54.508 131.801 54.456 131.993 54.456C132.185 54.456 132.333 54.508 132.437 54.612C132.549 54.716 132.605 54.868 132.605 55.068V62.472C132.605 62.664 132.553 62.816 132.449 62.928C132.345 63.032 132.197 63.084 132.005 63.084C131.813 63.084 131.665 63.032 131.561 62.928C131.457 62.816 131.405 62.664 131.405 62.472V61.416L131.537 61.68C131.409 62.112 131.157 62.46 130.781 62.724C130.413 62.98 129.969 63.108 129.449 63.108ZM129.761 62.172C130.089 62.172 130.377 62.092 130.625 61.932C130.873 61.772 131.065 61.536 131.201 61.224C131.345 60.912 131.417 60.528 131.417 60.072C131.417 59.384 131.265 58.864 130.961 58.512C130.657 58.16 130.257 57.984 129.761 57.984C129.425 57.984 129.133 58.064 128.885 58.224C128.637 58.376 128.441 58.608 128.297 58.92C128.161 59.232 128.093 59.616 128.093 60.072C128.093 60.752 128.245 61.272 128.549 61.632C128.853 61.992 129.257 62.172 129.761 62.172ZM140.795 63.108C140.155 63.108 139.603 62.988 139.139 62.748C138.683 62.5 138.327 62.152 138.071 61.704C137.823 61.248 137.699 60.708 137.699 60.084C137.699 59.476 137.823 58.944 138.071 58.488C138.319 58.032 138.659 57.676 139.091 57.42C139.523 57.164 140.015 57.036 140.567 57.036C140.975 57.036 141.339 57.104 141.659 57.24C141.979 57.368 142.251 57.56 142.475 57.816C142.707 58.064 142.879 58.368 142.991 58.728C143.111 59.088 143.171 59.492 143.171 59.94C143.171 60.076 143.131 60.18 143.051 60.252C142.971 60.316 142.851 60.348 142.691 60.348H138.659V59.604H142.355L142.151 59.772C142.151 59.372 142.091 59.032 141.971 58.752C141.859 58.472 141.687 58.26 141.455 58.116C141.231 57.964 140.951 57.888 140.615 57.888C140.239 57.888 139.919 57.976 139.655 58.152C139.399 58.328 139.203 58.572 139.067 58.884C138.931 59.196 138.863 59.56 138.863 59.976V60.048C138.863 60.752 139.027 61.284 139.355 61.644C139.691 61.996 140.175 62.172 140.807 62.172C141.047 62.172 141.299 62.14 141.563 62.076C141.835 62.012 142.091 61.904 142.331 61.752C142.467 61.672 142.587 61.636 142.691 61.644C142.803 61.652 142.891 61.688 142.955 61.752C143.027 61.816 143.071 61.896 143.087 61.992C143.103 62.088 143.087 62.188 143.039 62.292C142.991 62.388 142.907 62.476 142.787 62.556C142.515 62.74 142.199 62.88 141.839 62.976C141.479 63.064 141.131 63.108 140.795 63.108ZM144.937 63.072C144.793 63.072 144.673 63.032 144.577 62.952C144.489 62.864 144.441 62.756 144.433 62.628C144.433 62.5 144.489 62.36 144.601 62.208L146.629 59.676V60.276L144.733 57.912C144.605 57.768 144.545 57.632 144.553 57.504C144.561 57.368 144.613 57.26 144.709 57.18C144.805 57.1 144.921 57.06 145.057 57.06C145.209 57.06 145.333 57.088 145.429 57.144C145.533 57.192 145.629 57.276 145.717 57.396L147.313 59.424H146.881L148.489 57.396C148.577 57.276 148.669 57.192 148.765 57.144C148.869 57.088 148.993 57.06 149.137 57.06C149.281 57.06 149.397 57.104 149.485 57.192C149.581 57.272 149.629 57.38 149.629 57.516C149.637 57.644 149.581 57.78 149.461 57.924L147.565 60.252V59.712L149.593 62.208C149.713 62.352 149.769 62.492 149.761 62.628C149.761 62.756 149.713 62.864 149.617 62.952C149.521 63.032 149.401 63.072 149.257 63.072C149.113 63.072 148.989 63.044 148.885 62.988C148.789 62.932 148.693 62.848 148.597 62.736L146.881 60.576H147.289L145.585 62.736C145.497 62.84 145.401 62.924 145.297 62.988C145.201 63.044 145.081 63.072 144.937 63.072ZM153.871 63.108C153.271 63.108 152.751 62.984 152.311 62.736C151.879 62.48 151.543 62.124 151.303 61.668C151.063 61.204 150.943 60.66 150.943 60.036C150.943 59.572 151.011 59.156 151.147 58.788C151.283 58.412 151.475 58.096 151.723 57.84C151.979 57.584 152.287 57.388 152.647 57.252C153.015 57.108 153.423 57.036 153.871 57.036C154.151 57.036 154.443 57.08 154.747 57.168C155.059 57.248 155.347 57.384 155.611 57.576C155.715 57.64 155.779 57.72 155.803 57.816C155.835 57.904 155.839 57.996 155.815 58.092C155.799 58.188 155.755 58.272 155.683 58.344C155.619 58.408 155.539 58.448 155.443 58.464C155.347 58.472 155.243 58.444 155.131 58.38C154.939 58.244 154.743 58.148 154.543 58.092C154.343 58.028 154.151 57.996 153.967 57.996C153.679 57.996 153.423 58.044 153.199 58.14C152.983 58.228 152.799 58.36 152.647 58.536C152.495 58.704 152.379 58.916 152.299 59.172C152.227 59.428 152.191 59.72 152.191 60.048C152.191 60.704 152.343 61.22 152.647 61.596C152.959 61.964 153.399 62.148 153.967 62.148C154.151 62.148 154.343 62.12 154.543 62.064C154.743 62.008 154.939 61.912 155.131 61.776C155.243 61.712 155.347 61.688 155.443 61.704C155.539 61.72 155.615 61.764 155.671 61.836C155.735 61.9 155.775 61.98 155.791 62.076C155.815 62.164 155.811 62.256 155.779 62.352C155.747 62.448 155.679 62.528 155.575 62.592C155.319 62.776 155.039 62.908 154.735 62.988C154.439 63.068 154.151 63.108 153.871 63.108ZM157.781 63.072C157.589 63.072 157.441 63.016 157.337 62.904C157.233 62.784 157.181 62.62 157.181 62.412V57.732C157.181 57.524 157.233 57.364 157.337 57.252C157.441 57.14 157.589 57.084 157.781 57.084C157.973 57.084 158.121 57.14 158.225 57.252C158.337 57.364 158.393 57.524 158.393 57.732V62.412C158.393 62.62 158.341 62.784 158.237 62.904C158.133 63.016 157.981 63.072 157.781 63.072ZM157.781 55.836C157.541 55.836 157.353 55.776 157.217 55.656C157.089 55.536 157.025 55.368 157.025 55.152C157.025 54.928 157.089 54.76 157.217 54.648C157.353 54.528 157.541 54.468 157.781 54.468C158.021 54.468 158.205 54.528 158.333 54.648C158.469 54.76 158.537 54.928 158.537 55.152C158.537 55.368 158.469 55.536 158.333 55.656C158.205 55.776 158.021 55.836 157.781 55.836ZM162.882 63.108C162.402 63.108 161.998 63.024 161.67 62.856C161.342 62.688 161.098 62.44 160.938 62.112C160.778 61.784 160.698 61.384 160.698 60.912V58.08H159.978C159.818 58.08 159.694 58.04 159.606 57.96C159.518 57.872 159.474 57.756 159.474 57.612C159.474 57.46 159.518 57.344 159.606 57.264C159.694 57.184 159.818 57.144 159.978 57.144H160.698V55.908C160.698 55.708 160.75 55.556 160.854 55.452C160.966 55.348 161.118 55.296 161.31 55.296C161.502 55.296 161.65 55.348 161.754 55.452C161.858 55.556 161.91 55.708 161.91 55.908V57.144H163.314C163.474 57.144 163.598 57.184 163.686 57.264C163.774 57.344 163.818 57.46 163.818 57.612C163.818 57.756 163.774 57.872 163.686 57.96C163.598 58.04 163.474 58.08 163.314 58.08H161.91V60.816C161.91 61.24 161.998 61.56 162.174 61.776C162.358 61.992 162.654 62.1 163.062 62.1C163.206 62.1 163.33 62.088 163.434 62.064C163.546 62.032 163.638 62.012 163.71 62.004C163.798 62.004 163.87 62.036 163.926 62.1C163.982 62.156 164.01 62.268 164.01 62.436C164.01 62.556 163.986 62.668 163.938 62.772C163.898 62.876 163.822 62.944 163.71 62.976C163.614 63.008 163.482 63.036 163.314 63.06C163.154 63.092 163.01 63.108 162.882 63.108ZM165.763 63.072C165.571 63.072 165.423 63.016 165.319 62.904C165.215 62.784 165.163 62.62 165.163 62.412V57.732C165.163 57.524 165.215 57.364 165.319 57.252C165.423 57.14 165.571 57.084 165.763 57.084C165.955 57.084 166.103 57.14 166.207 57.252C166.319 57.364 166.375 57.524 166.375 57.732V62.412C166.375 62.62 166.323 62.784 166.219 62.904C166.115 63.016 165.963 63.072 165.763 63.072ZM165.763 55.836C165.523 55.836 165.335 55.776 165.199 55.656C165.071 55.536 165.007 55.368 165.007 55.152C165.007 54.928 165.071 54.76 165.199 54.648C165.335 54.528 165.523 54.468 165.763 54.468C166.003 54.468 166.187 54.528 166.315 54.648C166.451 54.76 166.519 54.928 166.519 55.152C166.519 55.368 166.451 55.536 166.315 55.656C166.187 55.776 166.003 55.836 165.763 55.836ZM168.969 63.084C168.777 63.084 168.629 63.032 168.525 62.928C168.421 62.816 168.369 62.664 168.369 62.472V57.672C168.369 57.472 168.421 57.32 168.525 57.216C168.629 57.112 168.773 57.06 168.957 57.06C169.149 57.06 169.293 57.112 169.389 57.216C169.493 57.32 169.545 57.472 169.545 57.672V58.608L169.413 58.392C169.589 57.944 169.865 57.608 170.241 57.384C170.617 57.152 171.049 57.036 171.537 57.036C172.001 57.036 172.385 57.124 172.689 57.3C173.001 57.468 173.233 57.728 173.385 58.08C173.537 58.424 173.613 58.86 173.613 59.388V62.472C173.613 62.664 173.561 62.816 173.457 62.928C173.353 63.032 173.205 63.084 173.013 63.084C172.813 63.084 172.661 63.032 172.557 62.928C172.453 62.816 172.401 62.664 172.401 62.472V59.46C172.401 58.956 172.301 58.588 172.101 58.356C171.909 58.124 171.605 58.008 171.189 58.008C170.701 58.008 170.309 58.16 170.013 58.464C169.725 58.768 169.581 59.176 169.581 59.688V62.472C169.581 62.88 169.377 63.084 168.969 63.084ZM178.223 65.268C177.791 65.268 177.371 65.224 176.963 65.136C176.563 65.048 176.199 64.904 175.871 64.704C175.751 64.64 175.671 64.56 175.631 64.464C175.591 64.376 175.579 64.284 175.595 64.188C175.619 64.092 175.663 64.008 175.727 63.936C175.791 63.864 175.867 63.816 175.955 63.792C176.051 63.768 176.151 63.784 176.255 63.84C176.607 64.032 176.939 64.16 177.251 64.224C177.571 64.296 177.867 64.332 178.139 64.332C178.699 64.332 179.119 64.188 179.399 63.9C179.679 63.62 179.819 63.204 179.819 62.652V61.428H179.927C179.807 61.868 179.555 62.216 179.171 62.472C178.787 62.728 178.343 62.856 177.839 62.856C177.311 62.856 176.851 62.736 176.459 62.496C176.067 62.248 175.763 61.908 175.547 61.476C175.331 61.036 175.223 60.524 175.223 59.94C175.223 59.5 175.283 59.104 175.403 58.752C175.531 58.4 175.707 58.096 175.931 57.84C176.163 57.584 176.439 57.388 176.759 57.252C177.087 57.108 177.447 57.036 177.839 57.036C178.351 57.036 178.795 57.164 179.171 57.42C179.555 57.676 179.803 58.024 179.915 58.464L179.795 58.668V57.672C179.795 57.472 179.847 57.32 179.951 57.216C180.063 57.112 180.211 57.06 180.395 57.06C180.587 57.06 180.735 57.112 180.839 57.216C180.943 57.32 180.995 57.472 180.995 57.672V62.508C180.995 63.42 180.759 64.108 180.287 64.572C179.815 65.036 179.127 65.268 178.223 65.268ZM178.127 61.908C178.479 61.908 178.779 61.828 179.027 61.668C179.275 61.508 179.467 61.28 179.603 60.984C179.739 60.688 179.807 60.34 179.807 59.94C179.807 59.34 179.655 58.864 179.351 58.512C179.055 58.16 178.647 57.984 178.127 57.984C177.783 57.984 177.487 58.064 177.239 58.224C176.991 58.384 176.795 58.612 176.651 58.908C176.515 59.196 176.447 59.54 176.447 59.94C176.447 60.548 176.599 61.028 176.903 61.38C177.207 61.732 177.615 61.908 178.127 61.908ZM189.016 63.108C188.416 63.108 187.896 62.984 187.456 62.736C187.024 62.48 186.688 62.124 186.448 61.668C186.208 61.204 186.088 60.66 186.088 60.036C186.088 59.572 186.156 59.156 186.292 58.788C186.428 58.412 186.62 58.096 186.868 57.84C187.124 57.584 187.432 57.388 187.792 57.252C188.16 57.108 188.568 57.036 189.016 57.036C189.296 57.036 189.588 57.08 189.892 57.168C190.204 57.248 190.492 57.384 190.756 57.576C190.86 57.64 190.924 57.72 190.948 57.816C190.98 57.904 190.984 57.996 190.96 58.092C190.944 58.188 190.9 58.272 190.828 58.344C190.764 58.408 190.684 58.448 190.588 58.464C190.492 58.472 190.388 58.444 190.276 58.38C190.084 58.244 189.888 58.148 189.688 58.092C189.488 58.028 189.296 57.996 189.112 57.996C188.824 57.996 188.568 58.044 188.344 58.14C188.128 58.228 187.944 58.36 187.792 58.536C187.64 58.704 187.524 58.916 187.444 59.172C187.372 59.428 187.336 59.72 187.336 60.048C187.336 60.704 187.488 61.22 187.792 61.596C188.104 61.964 188.544 62.148 189.112 62.148C189.296 62.148 189.488 62.12 189.688 62.064C189.888 62.008 190.084 61.912 190.276 61.776C190.388 61.712 190.492 61.688 190.588 61.704C190.684 61.72 190.76 61.764 190.816 61.836C190.88 61.9 190.92 61.98 190.936 62.076C190.96 62.164 190.956 62.256 190.924 62.352C190.892 62.448 190.824 62.528 190.72 62.592C190.464 62.776 190.184 62.908 189.88 62.988C189.584 63.068 189.296 63.108 189.016 63.108ZM194.752 63.108C194.16 63.108 193.648 62.984 193.216 62.736C192.792 62.488 192.46 62.136 192.22 61.68C191.98 61.224 191.86 60.688 191.86 60.072C191.86 59.6 191.928 59.18 192.064 58.812C192.2 58.444 192.392 58.128 192.64 57.864C192.896 57.592 193.2 57.388 193.552 57.252C193.912 57.108 194.312 57.036 194.752 57.036C195.336 57.036 195.84 57.16 196.264 57.408C196.696 57.656 197.032 58.008 197.272 58.464C197.512 58.912 197.632 59.448 197.632 60.072C197.632 60.536 197.564 60.956 197.428 61.332C197.292 61.708 197.096 62.028 196.84 62.292C196.592 62.556 196.288 62.76 195.928 62.904C195.576 63.04 195.184 63.108 194.752 63.108ZM194.752 62.172C195.08 62.172 195.368 62.092 195.616 61.932C195.864 61.772 196.056 61.536 196.192 61.224C196.336 60.912 196.408 60.528 196.408 60.072C196.408 59.384 196.256 58.864 195.952 58.512C195.648 58.16 195.248 57.984 194.752 57.984C194.416 57.984 194.124 58.064 193.876 58.224C193.628 58.376 193.432 58.608 193.288 58.92C193.152 59.232 193.084 59.616 193.084 60.072C193.084 60.752 193.236 61.272 193.54 61.632C193.844 61.992 194.248 62.172 194.752 62.172ZM199.881 63.084C199.689 63.084 199.541 63.032 199.437 62.928C199.333 62.816 199.281 62.664 199.281 62.472V57.672C199.281 57.472 199.333 57.32 199.437 57.216C199.541 57.112 199.685 57.06 199.869 57.06C200.061 57.06 200.205 57.112 200.301 57.216C200.405 57.32 200.457 57.472 200.457 57.672V58.608L200.325 58.392C200.501 57.944 200.777 57.608 201.153 57.384C201.529 57.152 201.961 57.036 202.449 57.036C202.913 57.036 203.297 57.124 203.601 57.3C203.913 57.468 204.145 57.728 204.297 58.08C204.449 58.424 204.525 58.86 204.525 59.388V62.472C204.525 62.664 204.473 62.816 204.369 62.928C204.265 63.032 204.117 63.084 203.925 63.084C203.725 63.084 203.573 63.032 203.469 62.928C203.365 62.816 203.313 62.664 203.313 62.472V59.46C203.313 58.956 203.213 58.588 203.013 58.356C202.821 58.124 202.517 58.008 202.101 58.008C201.613 58.008 201.221 58.16 200.925 58.464C200.637 58.768 200.493 59.176 200.493 59.688V62.472C200.493 62.88 200.289 63.084 199.881 63.084ZM208.979 63.108C208.499 63.108 208.095 63.024 207.767 62.856C207.439 62.688 207.195 62.44 207.035 62.112C206.875 61.784 206.795 61.384 206.795 60.912V58.08H206.075C205.915 58.08 205.791 58.04 205.703 57.96C205.615 57.872 205.571 57.756 205.571 57.612C205.571 57.46 205.615 57.344 205.703 57.264C205.791 57.184 205.915 57.144 206.075 57.144H206.795V55.908C206.795 55.708 206.847 55.556 206.951 55.452C207.063 55.348 207.215 55.296 207.407 55.296C207.599 55.296 207.747 55.348 207.851 55.452C207.955 55.556 208.007 55.708 208.007 55.908V57.144H209.411C209.571 57.144 209.695 57.184 209.783 57.264C209.871 57.344 209.915 57.46 209.915 57.612C209.915 57.756 209.871 57.872 209.783 57.96C209.695 58.04 209.571 58.08 209.411 58.08H208.007V60.816C208.007 61.24 208.095 61.56 208.271 61.776C208.455 61.992 208.751 62.1 209.159 62.1C209.303 62.1 209.427 62.088 209.531 62.064C209.643 62.032 209.735 62.012 209.807 62.004C209.895 62.004 209.967 62.036 210.023 62.1C210.079 62.156 210.107 62.268 210.107 62.436C210.107 62.556 210.083 62.668 210.035 62.772C209.995 62.876 209.919 62.944 209.807 62.976C209.711 63.008 209.579 63.036 209.411 63.06C209.251 63.092 209.107 63.108 208.979 63.108ZM213.844 63.108C213.204 63.108 212.652 62.988 212.188 62.748C211.732 62.5 211.376 62.152 211.12 61.704C210.872 61.248 210.748 60.708 210.748 60.084C210.748 59.476 210.872 58.944 211.12 58.488C211.368 58.032 211.708 57.676 212.14 57.42C212.572 57.164 213.064 57.036 213.616 57.036C214.024 57.036 214.388 57.104 214.708 57.24C215.028 57.368 215.3 57.56 215.524 57.816C215.756 58.064 215.928 58.368 216.04 58.728C216.16 59.088 216.22 59.492 216.22 59.94C216.22 60.076 216.18 60.18 216.1 60.252C216.02 60.316 215.9 60.348 215.74 60.348H211.708V59.604H215.404L215.2 59.772C215.2 59.372 215.14 59.032 215.02 58.752C214.908 58.472 214.736 58.26 214.504 58.116C214.28 57.964 214 57.888 213.664 57.888C213.288 57.888 212.968 57.976 212.704 58.152C212.448 58.328 212.252 58.572 212.116 58.884C211.98 59.196 211.912 59.56 211.912 59.976V60.048C211.912 60.752 212.076 61.284 212.404 61.644C212.74 61.996 213.224 62.172 213.856 62.172C214.096 62.172 214.348 62.14 214.612 62.076C214.884 62.012 215.14 61.904 215.38 61.752C215.516 61.672 215.636 61.636 215.74 61.644C215.852 61.652 215.94 61.688 216.004 61.752C216.076 61.816 216.12 61.896 216.136 61.992C216.152 62.088 216.136 62.188 216.088 62.292C216.04 62.388 215.956 62.476 215.836 62.556C215.564 62.74 215.248 62.88 214.888 62.976C214.528 63.064 214.18 63.108 213.844 63.108ZM218.429 63.084C218.237 63.084 218.089 63.032 217.985 62.928C217.881 62.816 217.829 62.664 217.829 62.472V57.672C217.829 57.472 217.881 57.32 217.985 57.216C218.089 57.112 218.233 57.06 218.417 57.06C218.609 57.06 218.753 57.112 218.849 57.216C218.953 57.32 219.005 57.472 219.005 57.672V58.608L218.873 58.392C219.049 57.944 219.325 57.608 219.701 57.384C220.077 57.152 220.509 57.036 220.997 57.036C221.461 57.036 221.845 57.124 222.149 57.3C222.461 57.468 222.693 57.728 222.845 58.08C222.997 58.424 223.073 58.86 223.073 59.388V62.472C223.073 62.664 223.021 62.816 222.917 62.928C222.813 63.032 222.665 63.084 222.473 63.084C222.273 63.084 222.121 63.032 222.017 62.928C221.913 62.816 221.861 62.664 221.861 62.472V59.46C221.861 58.956 221.761 58.588 221.561 58.356C221.369 58.124 221.065 58.008 220.649 58.008C220.161 58.008 219.769 58.16 219.473 58.464C219.185 58.768 219.041 59.176 219.041 59.688V62.472C219.041 62.88 218.837 63.084 218.429 63.084ZM227.527 63.108C227.047 63.108 226.643 63.024 226.315 62.856C225.987 62.688 225.743 62.44 225.583 62.112C225.423 61.784 225.343 61.384 225.343 60.912V58.08H224.623C224.463 58.08 224.339 58.04 224.251 57.96C224.163 57.872 224.119 57.756 224.119 57.612C224.119 57.46 224.163 57.344 224.251 57.264C224.339 57.184 224.463 57.144 224.623 57.144H225.343V55.908C225.343 55.708 225.395 55.556 225.499 55.452C225.611 55.348 225.763 55.296 225.955 55.296C226.147 55.296 226.295 55.348 226.399 55.452C226.503 55.556 226.555 55.708 226.555 55.908V57.144H227.959C228.119 57.144 228.243 57.184 228.331 57.264C228.419 57.344 228.463 57.46 228.463 57.612C228.463 57.756 228.419 57.872 228.331 57.96C228.243 58.04 228.119 58.08 227.959 58.08H226.555V60.816C226.555 61.24 226.643 61.56 226.819 61.776C227.003 61.992 227.299 62.1 227.707 62.1C227.851 62.1 227.975 62.088 228.079 62.064C228.191 62.032 228.283 62.012 228.355 62.004C228.443 62.004 228.515 62.036 228.571 62.1C228.627 62.156 228.655 62.268 228.655 62.436C228.655 62.556 228.631 62.668 228.583 62.772C228.543 62.876 228.467 62.944 228.355 62.976C228.259 63.008 228.127 63.036 227.959 63.06C227.799 63.092 227.655 63.108 227.527 63.108ZM230.477 63.048C230.245 63.048 230.057 62.976 229.913 62.832C229.769 62.688 229.697 62.504 229.697 62.28C229.697 62.056 229.769 61.876 229.913 61.74C230.057 61.596 230.245 61.524 230.477 61.524C230.709 61.524 230.893 61.596 231.029 61.74C231.165 61.876 231.233 62.056 231.233 62.28C231.233 62.504 231.165 62.688 231.029 62.832C230.893 62.976 230.709 63.048 230.477 63.048Z" fill="white"/>
</svg>
